<?xml version="1.0" encoding="UTF-8"?>
<svg id="Layer_2" data-name="Layer 2" xmlns="http://www.w3.org/2000/svg" viewBox="0 0 68.15 116.33">
  <defs>
    <style>
      .cls-1 {
        fill: #201522;
      }
    </style>
  </defs>
  <g id="Objects">
    <path class="cls-1" d="M60.64,112.83c-2.26-1.62-4.29-3.53-6.16-5.58-3.76-4.09-6.94-8.69-9.83-13.44-.74-1.23-1.47-2.47-2.18-3.71,2.28-5.27,3.41-10.93,3.9-16.58.47-5.81.25-11.65-.47-17.4-1.35-10.71-4.61-21.18-9.74-30.67.92,1.74,1.77,3.51,2.57,5.3-.83,2.09-1.99,3.96-3.14,5.86-1.19,1.89-2.38,3.78-3.6,5.66l-3.63,5.67c-1.04,1.65-2.06,3.32-3.03,5.03-.82-2.1-1.64-4.21-2.43-6.33,1.35-1.44,2.6-2.96,3.79-4.52,1.35-1.76,2.59-3.6,3.78-5.48,1.16-1.89,2.27-3.83,3.21-5.86.91-1.99,1.76-4.1,1.96-6.3.18.32.35.65.53.97-.17-.33-.35-.65-.53-.97,0-.03,0-.06.01-.09,0,.02-.02.04-.03.06-.21-.38-.41-.76-.62-1.13.22.37.41.76.62,1.13-.82,2.04-1.92,3.9-3.02,5.77-1.14,1.87-2.28,3.74-3.45,5.6-2.16,3.48-4.35,6.95-6.34,10.59-.49-1.32-.98-2.64-1.47-3.96,1.31-1.35,2.51-2.79,3.66-4.28,1.32-1.69,2.53-3.47,3.69-5.27,1.14-1.82,2.2-3.7,3.11-5.66.89-1.92,1.69-3.98,1.87-6.11.45.73.9,1.46,1.33,2.19-.43-.75-.87-1.49-1.32-2.23,0-.02,0-.03,0-.05,0,.01,0,.02-.01.03-2.79-4.57-6.01-8.9-9.96-12.54-2.29-2.11-4.81-4-7.57-5.46C13.37,1.6,10.39.53,7.3,0c-.07-.01-.15.02-.2.08C4.23,3.54,2.26,7.71,1.2,12.07.13,16.44-.17,20.98.09,25.46c.52,8.97,2.74,17.79,6.23,26.06,1.73,4.14,3.81,8.14,6.16,11.96,1.18,1.91,2.43,3.78,3.77,5.58,1.32,1.81,2.73,3.56,4.19,5.27,2.93,3.4,6.12,6.59,9.62,9.42,3.43,2.76,7.16,5.2,11.25,6.92.75,1.27,1.52,2.53,2.33,3.77,3.04,4.72,6.37,9.29,10.29,13.33,1.98,2,4.12,3.86,6.48,5.4,2.35,1.55,4.99,2.69,7.75,3.16-2.73-.63-5.26-1.89-7.52-3.5ZM41.78,88.87c-1.49-2.66-2.92-5.36-4.29-8.09,1.04-.72,1.98-1.55,2.85-2.45.99-1,1.87-2.09,2.69-3.23.79-1.16,1.53-2.37,2.11-3.66.3-.68.57-1.39.77-2.11-.07,1.37-.17,2.74-.31,4.11-.57,5.3-1.73,10.57-3.83,15.42ZM45.97,67.91l-1.88,2.94c-.77,1.12-1.53,2.24-2.32,3.35-1.46,2.09-2.97,4.15-4.37,6.39-.93-1.85-1.83-3.71-2.71-5.58,1.23-1,2.36-2.11,3.42-3.27,1.22-1.31,2.33-2.71,3.38-4.16,1.03-1.47,2-2.99,2.78-4.62.64-1.34,1.2-2.75,1.47-4.22.23,3.05.32,6.11.22,9.17ZM29.34,48.63c1.4-1.78,2.7-3.63,3.94-5.52,1.21-1.91,2.37-3.87,3.36-5.92.96-2.02,1.86-4.16,2.09-6.42,3.56,8.05,5.88,16.64,6.79,25.38.07.67.13,1.35.19,2.02-.74,1.47-1.61,2.83-2.48,4.19-.96,1.46-1.96,2.9-2.99,4.32-1.88,2.68-3.83,5.31-5.64,8.12-.68-1.45-1.34-2.9-1.99-4.36,1.4-1.22,2.66-2.57,3.87-3.97,1.28-1.47,2.45-3.04,3.57-4.64,1.1-1.62,2.11-3.3,2.96-5.08.84-1.76,1.59-3.66,1.69-5.64-.73,1.82-1.73,3.44-2.75,5.06-1.04,1.61-2.08,3.22-3.18,4.79-2.08,3.09-4.23,6.14-6.19,9.38-.95-2.14-1.89-4.29-2.79-6.45-1.52-3.55-2.97-7.13-4.38-10.72,1.4-1.44,2.71-2.97,3.94-4.54ZM1.09,25.4c-.16-1.99-.2-4-.11-6,.83.9,1.77,1.66,2.77,2.35,1.13.78,2.34,1.42,3.57,2.02,1.24.56,2.51,1.07,3.81,1.47,1.09.34,2.2.62,3.35.78.72,2.33,1.45,4.66,2.2,6.99.17.53.36,1.05.53,1.57-2.55-1.54-5.17-2.81-7.8-4.08l-8.19-3.79c-.04-.43-.1-.87-.13-1.3ZM4.52,29.55c1.35.89,2.78,1.63,4.22,2.34,1.46.68,2.93,1.3,4.45,1.81,1.34.46,2.7.86,4.11,1.14,1.35,4.08,2.76,8.14,4.23,12.17-2.89-1.82-5.89-3.39-8.89-4.93-1.69-.84-3.37-1.69-5.07-2.5-1.48-.72-2.97-1.43-4.47-2.17-.85-3.44-1.49-6.93-1.84-10.45.99.99,2.12,1.82,3.28,2.58ZM30.72,26.67c-1.11,1.8-2.21,3.61-3.35,5.4-2.08,3.33-4.2,6.64-6.13,10.12-1.16-3.18-2.31-6.37-3.43-9.57-.29-.84-.57-1.68-.86-2.51,1.18-1.32,2.2-2.75,3.16-4.21.99-1.5,1.87-3.06,2.7-4.65.81-1.6,1.55-3.24,2.14-4.95.57-1.67,1.07-3.41,1.12-5.2,2.88,3.04,5.37,6.45,7.59,10.01-.8,1.98-1.85,3.77-2.93,5.57ZM26.04,11.06c-.67,1.65-1.45,3.19-2.22,4.76-.8,1.57-1.58,3.15-2.4,4.72-1.56,3.12-3.16,6.22-4.49,9.52-.99-2.85-1.95-5.71-2.9-8.58.87-.96,1.64-1.99,2.34-3.07.8-1.22,1.5-2.5,2.13-3.81.6-1.33,1.17-2.68,1.56-4.1.39-1.37.66-2.78.66-4.21.99.75,1.95,1.53,2.87,2.36.85.77,1.66,1.58,2.45,2.42ZM1.89,12.24C2.83,7.98,4.65,3.9,7.35.45c3.01.47,5.94,1.44,8.66,2.84,1.64.85,3.19,1.86,4.66,2.97-1.19,2.64-2.37,5.13-3.58,7.68-.59,1.3-1.22,2.58-1.79,3.9-.49,1.09-.95,2.2-1.37,3.35-.49-1.48-.98-2.96-1.46-4.45-1.75-5.31-3.4-10.65-5.01-16,1.28,5.45,2.78,10.84,4.29,16.23.84,2.9,1.72,5.8,2.61,8.69-2.1-1.24-4.24-2.26-6.38-3.28-1.21-.56-2.41-1.13-3.63-1.67-1.1-.51-2.21-1.01-3.36-1.5.11-2.34.4-4.66.91-6.94ZM3.34,38.44c-.05-.21-.1-.43-.15-.64,1.17,1.07,2.46,1.99,3.79,2.84,1.6,1.04,3.27,1.96,4.97,2.82,1.71.84,3.43,1.65,5.2,2.35,1.48.6,2.99,1.14,4.54,1.59,1.93,5.27,3.97,10.51,6.11,15.71-3.01-1.86-6.12-3.48-9.24-5.07-1.77-.87-3.53-1.75-5.31-2.59-1.53-.74-3.06-1.47-4.6-2.23-.35-.75-.69-1.49-1.02-2.25-1.76-4.05-3.17-8.25-4.28-12.53ZM8.89,53.78c1.17,1.02,2.46,1.91,3.76,2.73,1.68,1.07,3.43,2.02,5.2,2.92,1.78.88,3.58,1.71,5.42,2.45,1.53.62,3.09,1.19,4.69,1.66.13.32.26.64.39.96,1.91,4.45,3.92,8.86,6.05,13.21-2.73-1.79-5.57-3.29-8.42-4.78-1.56-.78-3.11-1.57-4.68-2.33l-3.11-1.51c-3.58-4.79-6.72-9.91-9.29-15.31ZM30.91,82.7c-3.4-2.8-6.51-5.95-9.36-9.32-.71-.85-1.4-1.71-2.08-2.58.4.29.81.57,1.22.84,1.47.99,3.01,1.85,4.58,2.66,1.57.79,3.17,1.54,4.81,2.19,1.46.58,2.94,1.11,4.47,1.52.29.58.57,1.17.86,1.75,1.57,3.1,3.19,6.17,4.92,9.19-3.36-1.68-6.48-3.87-9.41-6.25Z"/>
  </g>
</svg>