<?xml version="1.0" encoding="UTF-8"?>
<svg id="Layer_2" data-name="Layer 2" xmlns="http://www.w3.org/2000/svg" viewBox="0 0 82.24 99.8">
  <defs>
    <style>
      .cls-1 {
        fill: #201522;
      }
    </style>
  </defs>
  <g id="Objects">
    <path class="cls-1" d="M76.18,94.51l-5.88-5.48-5.73-5.63-2.78-2.89c-.61-2.04-.6-4.29-.45-6.5.16-2.29.49-4.58.75-6.9.23-2.32.46-4.69,0-7.16-.05-.31-.18-.61-.27-.92-.08-.31-.23-.61-.41-.9-.29-.63-.78-1.03-1.19-1.52-.83-.79-1.48-1.59-1.98-2.57-.49-.96-.83-2.01-1.01-3.09-.1-.54-.15-1.09-.18-1.64-.02-.53-.05-1.23-.17-1.83-.43-2.51-2.15-4.79-4.45-5.89-.54-.29-1.22-.5-1.71-.68-.52-.18-1.02-.4-1.5-.64-.97-.49-1.85-1.13-2.61-1.9-.75-.77-1.39-1.65-1.83-2.64-.22-.49-.42-1-.55-1.52-.15-.52-.23-1.05-.34-1.66-.97-4.74-3.52-8.95-6.52-12.54-3.01-3.63-6.52-6.78-10.22-9.64-3.71-2.85-7.68-5.38-11.94-7.33l-1.6-.72-1.65-.62c-1.08-.45-2.24-.71-3.36-1.05C6.31.13,3.94-.18,1.58.11h0c-.09.01-.17.07-.2.16C-.06,3.75-.17,7.54.14,11.18c.31,3.26.97,6.47,1.85,9.62-.05-.01-.09-.02-.14-.03.05.06.12.11.18.17.1.34.18.68.28,1.02,1.05,3.51,2.38,6.94,3.95,10.25,1.58,3.3,3.4,6.51,5.58,9.45-2.16-2.96-3.94-6.18-5.5-9.49-.82-1.76-1.56-3.56-2.23-5.38,1.11.54,2.27.92,3.44,1.22,1.21.32,2.43.54,3.67.69,1.24.14,2.5.2,3.76.11,1.05-.08,2.17-.25,3.15-.73,2.05,3.11,4.16,6.18,6.3,9.23-1.14.07-2.26.16-3.36.27-1.32.1-2.63.25-3.94.31-1.3.08-2.61.13-3.91.11-1.3-.04-2.6-.14-3.96-.34,1.12.81,2.47,1.28,3.84,1.55,1.37.27,2.76.29,4.13.23,1.37-.1,2.73-.32,4.05-.67,1.14-.31,2.25-.7,3.3-1.24,3.59,5.11,7.31,10.13,11.12,15.07-1.85-.08-3.64-.11-5.42-.23-1.12-.08-2.24-.19-3.36-.33-1.11-.18-2.21-.41-3.39-.69.86.85,1.95,1.45,3.1,1.87,1.15.4,2.35.62,3.55.7,1.2.06,2.41,0,3.59-.19.79-.13,1.58-.32,2.34-.6.27.34.53.69.79,1.04,1.37,1.72,2.77,3.42,4.17,5.12-2.28.17-4.47.42-6.66.55-1.23.06-2.46.11-3.69.07-1.2-.06-2.38-.19-3.64-.42-.02-.4-.03-.8-.08-1.2-.07-.71-.22-1.4-.41-2.08-.4-1.36-1.07-2.64-1.97-3.73-.91-1.09-2.05-1.98-3.31-2.61-1.26-.62-2.47-1.34-3.59-2.19-2.25-1.68-4.19-3.77-5.88-6.01,1.67,2.26,3.59,4.36,5.84,6.07,2.17,1.82,5.12,2.52,6.84,4.83.88,1.09,1.53,2.35,1.91,3.7.19.67.33,1.36.39,2.06.09.69.04,1.4.13,2.11.16,1.41.69,2.8,1.58,3.92.88,1.13,2.1,1.99,3.43,2.5,2.64.87,5.12,2.47,6.47,4.89.24.48.53.99.83,1.49-.08.16-.09.34,0,.51.11.18.36.32.74.44.08.08.15.17.23.25l.9.64c1.26.74,2.64,1.17,4,1.56,2.75.72,5.54,1.15,8.27,1.76,2.67.59,5.38,1.31,7.54,2.82l2.93,2.9,5.9,5.49,6.12,5.24c2.1,1.68,4.21,3.34,6.33,4.98l-6.06-5.29ZM56.99,54.7c.56,1.09,1.42,2.11,2.27,2.91.79.75,1.26,1.58,1.5,2.63.42,2.12.24,4.44.04,6.73-.21,2.3-.5,4.62-.61,6.97-.07,1.68-.08,3.4.21,5.11l-1.38-1.44c-2.78-2.97-5.49-5.99-8.17-9.05.84-1.17,1.55-2.41,2.19-3.68.73-1.44,1.35-2.93,1.9-4.45.52-1.53.98-3.08,1.28-4.68.13-.68.23-1.38.3-2.07.14.35.29.69.47,1.03ZM55.43,47.76c.11.54.13,1,.16,1.63.04.61.1,1.21.22,1.82.07.4.17.79.28,1.18l-1.03,3.05-1.58,4.47c-.97,2.79-1.97,5.57-2.77,8.48-1.25-1.43-2.49-2.86-3.71-4.31.97-1.35,1.8-2.8,2.55-4.28.87-1.71,1.59-3.48,2.23-5.29.61-1.82,1.11-3.67,1.45-5.57.27-1.54.41-3.11.38-4.68.94.94,1.6,2.16,1.84,3.49ZM42.82,34.59c.15.6.36,1.19.62,1.76.13.29.27.57.43.85-.26,1.14-.62,2.21-1.01,3.28-.52,1.4-1.14,2.77-1.78,4.12-1.18,2.53-2.51,4.99-3.73,7.59-2.63-3.32-5.2-6.69-7.72-10.09,1.4-.69,2.65-1.66,3.76-2.75,1.3-1.27,2.4-2.74,3.35-4.29.9-1.58,1.69-3.22,2.22-4.95.31-.85.47-1.74.69-2.61.09-.49.16-.99.22-1.49,1.2,2.15,2.12,4.43,2.59,6.83.1.53.19,1.15.35,1.75ZM39.64,25.6c-.25.56-.48,1.11-.72,1.66-.38.8-.7,1.62-1.09,2.4-.39.78-.73,1.58-1.17,2.33-.38.78-.83,1.52-1.26,2.27-.89,1.48-1.86,2.91-2.92,4.28-.93,1.17-1.91,2.3-3.01,3.37-1.27-1.72-2.52-3.44-3.77-5.18,1.17-1.06,2.22-2.23,3.21-3.46,1.15-1.41,2.18-2.92,3.12-4.49.91-1.58,1.75-3.22,2.34-4.97.46-1.35.81-2.76.88-4.19.36.41.74.82,1.08,1.24,1.23,1.49,2.35,3.07,3.31,4.74ZM34.95,19.29c-.46,1.42-1.06,2.75-1.7,4.06-.78,1.58-1.65,3.13-2.56,4.65-1.65,2.85-3.45,5.62-5.13,8.53-1.04-1.44-2.07-2.89-3.1-4.34,1.03-1.15,1.93-2.39,2.76-3.68.96-1.48,1.79-3.04,2.54-4.64.71-1.62,1.35-3.27,1.8-4.99.36-1.44.61-2.93.63-4.42,1.67,1.53,3.27,3.14,4.76,4.83ZM20.8,7.15c-.24,1.18-.66,2.27-1.12,3.36-.54,1.23-1.08,2.46-1.69,3.67-1.07,2.27-2.2,4.52-3.16,6.94-1.24-1.86-2.47-3.74-3.68-5.62.89-.53,1.55-1.42,2.02-2.3.55-1.03.93-2.12,1.19-3.23.26-1.11.42-2.23.46-3.36.04-.96.01-1.92-.14-2.88l.16.08c2.05.99,4.03,2.12,5.94,3.36ZM8.43,1.3c1.09.36,2.21.63,3.27,1.1l1.6.64,1.18.56c-.33.94-.6,1.88-.83,2.81-.28,1.07-.53,2.13-.78,3.18-.24,1.06-.51,2.09-.8,3.12-.27.88-.55,1.75-1.03,2.58-.28-.44-.58-.88-.86-1.32C7.32,9.59,4.57,5.14,1.89.63c2.2-.18,4.4.14,6.55.67ZM.45,11.16C.21,7.6.42,3.91,1.8.63c.02,0,.04,0,.06,0,2.39,4.67,5.02,9.22,7.67,13.75,1.52,2.53,3.08,5.04,4.65,7.54-2.13-.32-4.17-.35-6.19-.46-1.02-.05-2.04-.09-3.05-.19-.9-.09-1.8-.2-2.73-.42-.87-3.18-1.53-6.41-1.76-9.69ZM15.01,27.61l-3.62-.44c-1.21-.14-2.43-.27-3.66-.34-1.2-.08-2.41-.13-3.65-.08-.59-1.6-1.13-3.21-1.6-4.84-.07-.24-.13-.48-.19-.73.69.59,1.54,1,2.4,1.27,1.05.35,2.15.5,3.23.55,1.09.05,2.17,0,3.23-.19,1.04-.17,2.07-.42,3.06-.86,1.24,1.97,2.49,3.92,3.76,5.87-1,0-1.97-.13-2.95-.22ZM14.98,21.31c.87-.88,1.62-1.84,2.32-2.85.8-1.14,1.48-2.36,2.1-3.62.6-1.26,1.11-2.59,1.44-3.97.27-1.14.44-2.37.23-3.55,1.86,1.22,3.66,2.53,5.4,3.92,1.2.96,2.36,1.98,3.5,3.01-.5,1.45-1.01,2.85-1.56,4.24-.66,1.59-1.34,3.17-2.06,4.73-1.31,2.91-2.73,5.77-4.03,8.76-1.08-1.54-2.17-3.08-3.24-4.63-1.38-2.01-2.75-4.03-4.1-6.05ZM37.48,52.39c.98-.95,1.83-2,2.61-3.09.91-1.26,1.69-2.62,2.37-4.03.65-1.42,1.24-2.89,1.55-4.45.2-.95.31-1.94.28-2.92.37.54.78,1.06,1.23,1.53.87.9,1.88,1.64,2.98,2.21.55.28,1.11.54,1.7.73.61.21,1.04.34,1.54.59.58.28,1.11.64,1.58,1.07-.42,1.57-.84,3.11-1.3,4.64-.56,1.79-1.11,3.57-1.74,5.34-1.12,3.28-2.34,6.53-3.47,9.87-2.96-3.5-5.87-7.05-8.69-10.66-.22-.27-.43-.56-.65-.83ZM28.72,64.2c-.87-1.08-1.4-2.42-1.57-3.8-.04-.28-.04-.56-.06-.85,1,.79,2.23,1.28,3.48,1.56,1.3.29,2.63.34,3.94.28,1.31-.07,2.6-.31,3.85-.66,1.01-.29,2.01-.65,2.95-1.14,2.58,3.13,5.23,6.21,7.93,9.24-2.34-.33-4.65-.49-6.96-.66l-4.08-.27c-1.14-.09-2.29-.17-3.46-.24-.85-.46-1.75-.84-2.66-1.12-1.3-.47-2.49-1.26-3.36-2.34ZM36.14,68.54c.62.22,1.25.4,1.88.56,1.37.33,2.76.51,4.16.62,1.4.08,2.8.1,4.19-.01,1.09-.08,2.17-.22,3.25-.46,1.22,1.37,2.44,2.73,3.69,4.08-6.13.36-12.46.39-13.14-.13-.1-.16-.27-.24-.44-.24-.29-.47-.58-.93-.86-1.47-.69-1.19-1.64-2.16-2.72-2.95ZM53.59,77.56c-2.78-.56-5.57-.93-8.28-1.58-1.34-.35-2.68-.75-3.87-1.41l-.21-.14c1.12.15,2.62.22,4.33.22,2.65,0,5.78-.15,8.67-.33,1.3,1.38,2.59,2.77,3.92,4.13l.47.47c-1.64-.62-3.35-1-5.03-1.34Z"/>
  </g>
</svg>