<?xml version="1.0" encoding="UTF-8"?>
<svg id="Layer_2" data-name="Layer 2" xmlns="http://www.w3.org/2000/svg" viewBox="0 0 95.53 81.36">
  <defs>
    <style>
      .cls-1 {
        fill: #201522;
      }
    </style>
  </defs>
  <g id="Objects">
    <path class="cls-1" d="M95.08,22.81c.53-1.37.6-3.01.15-4.43-.45-1.42-1.28-2.7-2.4-3.68-.57-.48-1.21-.89-1.91-1.18-.34-.15-.74-.25-1.08-.34-.31-.07-.61-.15-.92-.24-1.12-.34-2.25-.81-3.3-1.35-.31-1.13-.55-2.33-.65-3.49-.03-.32-.04-.64-.05-.95-.02-.35-.03-.76-.11-1.12-.14-.75-.41-1.46-.77-2.11-.73-1.3-1.81-2.36-3.11-3.09-1.3-.73-2.92-.99-4.36-.75-2.92.46-5.22,2.09-7.64,2.6-1.2.27-2.37.21-3.49-.28-1.15-.46-2.27-1.22-3.62-1.76-1.36-.54-2.94-.7-4.38-.35-1.45.32-2.75,1.03-3.87,1.89-1.13.87-2.1,1.9-2.93,3.03-.82,1.12-1.52,2.28-2.23,3.42-1.4,2.26-2.83,4.49-4.92,5.92-2.08,1.46-4.77,2.28-6.9,4.31-1.06,1-1.79,2.39-2.14,3.75-.38,1.37-.5,2.75-.65,4.07-.15,1.33-.31,2.62-.69,3.82-.41,1.18-1.05,2.27-1.92,3.19-3.51,3.74-9.38,4.97-12.92,9.45-1.73,2.18-2.79,4.85-3.09,7.59-.31,2.74-.03,5.44.06,8.1.22,2.65-.52,5.22-1.43,7.72-.47,1.24-1.01,2.46-1.66,3.62-.65,1.14-1.41,2.27-2.42,3.07h-.01S0,81.36,0,81.36l9.91-7.84h-.01c.34-.25.65-.54.94-.84.79-.46,1.66-.79,2.53-1.07,1.28-.4,2.59-.68,3.91-.88,2.64-.39,5.34-.59,7.91.17,2.59.62,5.17,1.46,7.89,1.72,2.72.28,5.54-.21,8.01-1.46,5.08-2.54,7.47-8.03,11.87-10.73,1.09-.67,2.3-1.08,3.54-1.24,1.26-.14,2.57-.03,3.89.1,1.33.12,2.69.29,4.11.2,1.4-.07,2.9-.48,4.1-1.31,2.42-1.67,3.76-4.14,5.61-5.88,1.82-1.76,4.3-2.72,6.8-3.63,1.26-.46,2.54-.91,3.8-1.49,1.27-.59,2.48-1.32,3.56-2.25,1.07-.92,2.03-2.05,2.63-3.4.63-1.34.79-2.91.54-4.35-.26-1.43-.77-2.68-.99-3.9-.25-1.21-.07-2.36.43-3.49.98-2.27,3.07-4.18,4.12-6.95ZM67.01,4.36c.75.03,1.51,0,2.22-.16,2.85-.62,5.1-2.26,7.54-2.6,1.21-.19,2.37,0,3.43.57,1.04.58,1.95,1.45,2.53,2.49.29.52.5,1.08.61,1.65.06.29.07.56.09.87,0,.36.03.71.06,1.06.12,1.23.36,2.41.68,3.59l-18.5,15.15-4.43,3.65c.44-1.96,1.03-3.84,1.7-5.7.81-2.16,1.73-4.28,2.77-6.33.54-1.02,1.05-2.05,1.65-3.04.54-1.02,1.18-1.98,1.78-2.98.59-1,1.28-1.94,1.9-2.93.65-.97,1.35-1.91,1.98-2.92-.88.78-1.75,1.59-2.57,2.44-.77.89-1.61,1.75-2.3,2.71-1.48,1.86-2.72,3.91-3.83,6.01-1.05,2.14-1.95,4.36-2.54,6.68-.52,2.04-.85,4.15-.79,6.26l-6.12,5.04c.11-2.53.35-5.08.65-7.6.36-3.01.86-6.01,1.52-8.97.68-2.95,1.48-5.89,2.61-8.71,1.01-2.59,2.29-5.07,3.88-7.39.41.22.83.43,1.29.62.66.29,1.42.46,2.17.55ZM44.26,15.69c2.39-1.62,3.93-4.05,5.35-6.31,1.42-2.29,2.78-4.53,4.83-6.04,1-.76,2.12-1.36,3.3-1.61,1.18-.27,2.38-.14,3.51.3.74.29,1.47.71,2.24,1.12-1.82,2.14-3.27,4.59-4.5,7.13-1.3,2.81-2.24,5.75-3.07,8.72-.83,2.97-1.36,6.02-1.82,9.06-.42,3.02-.7,6.04-.8,9.11l-6.41,5.28-.94.78c-.24-2.53-.2-5.04,0-7.53.23-2.7.65-5.37,1.24-8,.34-1.31.62-2.63,1.06-3.91.2-.65.37-1.3.59-1.94.24-.64.46-1.28.68-1.92.2-.65.46-1.28.72-1.91l.75-1.91c.52-1.27,1.11-2.5,1.61-3.8-.8,1.12-1.58,2.27-2.3,3.46-.64,1.22-1.38,2.41-1.91,3.7-1.2,2.51-2.03,5.19-2.72,7.89-.58,2.73-.95,5.51-.93,8.31.02,2.59.29,5.22,1.09,7.68l-8.77,7.27c-.35-2.53-.43-5.19-.4-7.79.03-2.94.3-5.87.63-8.8.39-2.92.88-5.84,1.56-8.72.27-1.46.7-2.88,1.04-4.32l.96-3.37c1.13-.59,2.31-1.17,3.42-1.93ZM32.05,34.52c.98-1.02,1.75-2.27,2.24-3.62.46-1.35.65-2.74.8-4.07.29-2.65.6-5.32,2.43-7,.9-.88,2.02-1.52,3.21-2.14-.98,2.44-1.86,4.92-2.61,7.44-.85,2.86-1.46,5.79-2.01,8.73-.5,2.95-.8,5.94-.92,8.94-.09,2.99-.02,5.95.46,8.99l-7.52,6.24-.3.25c.13-3.1.16-6.11.36-9.11.1-1.57.27-3.12.47-4.68.24-1.55.55-3.09.92-4.68-.96,1.32-1.64,2.85-2.11,4.42-.45,1.58-.71,3.21-.83,4.84-.08,1.63-.07,3.27.13,4.88.17,1.5.45,2.99.94,4.43l-6.25,5.23c-.3-1.76-.46-3.61-.55-5.42-.1-2.05-.08-4.1.04-6.16.13-2.05.33-4.11.68-6.14.24-1.8.68-3.56,1.12-5.34.81-.52,1.65-.99,2.5-1.46,2.32-1.29,4.82-2.52,6.79-4.57ZM12.51,70.39c.69-1.17,1.27-2.39,1.78-3.65.5-1.26.94-2.54,1.26-3.86.35-1.31.43-2.74.4-4.07-.02-2.7-.27-5.37.07-7.98.32-2.59,1.36-5.07,3-7.08.99-1.24,2.23-2.22,3.58-3.1-.66,1.65-1.23,3.35-1.69,5.08-.54,2.03-.91,4.1-1.15,6.19-.26,2.09-.33,4.2-.3,6.31.04,2.12.21,4.2.59,6.34.01.06.04.11.06.16l-8.72,7.3c.41-.52.77-1.08,1.11-1.64ZM40.7,70.41c-2.31,1.2-4.96,1.74-7.58,1.54-2.63-.18-5.22-.95-7.85-1.51-2.64-.7-5.43-.43-8.05.03-1.32.24-2.63.57-3.9,1.02-.82.3-1.65.65-2.4,1.1.08-.09.16-.17.23-.26l9.19-7.28s0,0,.01.01c1.03.67,2.02,1.09,3.07,1.5,1.04.4,2.1.71,3.18.97,2.15.49,4.34.75,6.53.81,2.19.08,4.37-.1,6.52-.37,1.08-.15,2.14-.39,3.2-.58.78-.18,1.55-.38,2.33-.59-1.33,1.44-2.75,2.76-4.47,3.63ZM67.86,57.07c-2.02,1.47-4.72,1.25-7.37,1.01-1.34-.11-2.73-.21-4.13-.03-1.41.2-2.78.7-3.97,1.45-2.4,1.51-4.1,3.7-5.83,5.72-.42.49-.84.97-1.27,1.44-.84.09-1.67.19-2.5.3-1.07.07-2.14.18-3.21.22-1.07.02-2.13.11-3.2.06l-1.59-.03-1.59-.11c-2.11-.19-4.21-.47-6.24-1.02-1.85-.48-3.74-1.16-5.31-2.08l6.46-5.12c1.31.77,2.71,1.35,4.15,1.82,1.54.51,3.14.86,4.75,1.11,1.62.2,3.27.29,4.91.16,1.64-.15,3.27-.5,4.76-1.17-1.64.04-3.2.04-4.77-.04-1.57-.12-3.12-.27-4.68-.49-2.98-.41-5.93-.99-8.99-1.49l.31-.24,7.63-6.11s.05.02.08.03h.02c3,.52,5.98.93,8.99,1.28,3.01.31,6.02.61,9.04.71,3.02.1,6.05.16,9.07.02,2.66-.18,5.33-.43,7.94-.96-1.1,1.35-2.13,2.68-3.46,3.59ZM89.66,40.91c-.48,1.11-1.29,2.09-2.24,2.91-1.9,1.7-4.37,2.59-6.89,3.52-2.49.93-5.18,1.94-7.25,3.96-.68.66-1.27,1.36-1.85,2.06-2.68.27-5.37.37-8.05.32-3,0-6-.2-8.98-.45-2.99-.27-5.97-.57-8.94-.97-2.56-.33-5.12-.7-7.66-1.13l8.71-6.97c2.24,1.28,4.75,2.09,7.28,2.63,2.73.58,5.53.78,8.32.76,2.79-.13,5.57-.4,8.28-1.07,1.37-.26,2.68-.74,4-1.13,1.31-.46,2.59-1,3.85-1.55-1.37.23-2.7.56-4.04.81l-2.02.35c-.67.13-1.34.25-2.01.32-.67.08-1.35.17-2.02.28-.67.09-1.35.12-2.02.19-1.34.17-2.7.17-4.05.24-2.7.05-5.4-.08-8.09-.4-2.48-.32-4.95-.78-7.37-1.53l.95-.76,6.47-5.21c3.07.57,6.11.79,9.18.8,3.1-.01,6.21-.25,9.26-.81,1.53-.23,3.03-.64,4.54-.98,1.48-.47,2.99-.83,4.42-1.42,2.63-.95,5.13-2.24,7.52-3.66,0,.51.02,1.02.12,1.49.27,1.42.79,2.67,1.01,3.89.21,1.2.09,2.4-.42,3.51ZM89.58,29.16c-.31.66-.49,1.39-.61,2.13-.02.21-.02.43-.02.64-2.54,1.17-5.08,2.31-7.77,3.03-1.44.5-2.94.8-4.4,1.18-1.5.26-2.98.6-4.49.75-3.01.37-6.04.6-9.07.52-2.53-.04-5.09-.24-7.57-.63l6.17-4.97c2.05.49,4.18.59,6.29.5,2.38-.12,4.75-.53,7.05-1.14,2.3-.64,4.54-1.47,6.67-2.52,2.13-1.04,4.17-2.28,6.03-3.74-2.19.9-4.33,1.82-6.51,2.63-2.18.81-4.37,1.55-6.59,2.14-2.22.62-4.48,1.08-6.76,1.44-1.95.27-3.92.47-5.93.5l4.47-3.6,18.56-15.05c1.1.56,2.2,1.03,3.39,1.4.33.1.68.19,1.02.27.31.08.56.14.84.27.54.22,1.04.54,1.49.93.9.79,1.57,1.85,1.93,2.98.34,1.15.29,2.32-.14,3.46-.82,2.31-2.86,4.21-4.04,6.87Z"/>
  </g>
</svg>