<?xml version="1.0" encoding="UTF-8"?>
<svg id="Layer_2" data-name="Layer 2" xmlns="http://www.w3.org/2000/svg" viewBox="0 0 81.64 109.17">
  <defs>
    <style>
      .cls-1 {
        fill: #201522;
      }
    </style>
  </defs>
  <g id="Objects">
    <path class="cls-1" d="M80.43,41.53c-1.25-5.86-3.37-11.51-6.19-16.77-2.81-5.26-6.36-10.13-10.56-14.37-4.19-4.23-9.03-7.84-14.39-10.4,3.32,1.75,6.43,3.87,9.28,6.28-.94.59-1.89,1.07-2.82,1.6-1,.54-1.99,1.11-2.96,1.7-.98.59-1.94,1.2-2.88,1.87-.86.6-1.7,1.25-2.5,1.98l1.88-13.44-2.59,15.24c-1.04-.74-2.03-1.44-2.92-2.26-.94-.88-1.85-1.77-2.66-2.77-1.61-1.91-3.01-4-4.47-6.2,4.02-1.85,8.26-3.22,12.63-4.01-5.88.82-11.58,2.8-16.85,5.56-5.28,2.76-10.14,6.32-14.42,10.49-4.28,4.16-8.02,8.9-10.99,14.1-2.97,5.19-5.12,10.89-6.07,16.83-1.19,5.06-1.3,10.37-.24,15.48,1.06,5.09,3.35,10.05,7.09,13.81,3.72,3.79,8.94,5.97,14.17,6.29,2.62.18,5.25-.03,7.81-.5,2.39-.46,4.71-1.17,6.98-1.99-.68,2.42-1.38,4.8-2.2,7.14-.92,2.6-1.94,5.16-3.12,7.65-1.15,2.5-2.46,4.92-3.86,7.3-1.4,2.38-2.97,4.66-4.52,7,2.04-1.92,3.91-4.04,5.54-6.34,1.64-2.29,3.05-4.75,4.26-7.3,1.18-2.56,2.17-5.22,2.87-7.95.64-2.45,1.06-4.96,1.23-7.48,1.93,1.48,3.94,2.86,6.09,4.03,2.3,1.22,4.74,2.22,7.29,2.84,5.09,1.28,10.72.78,15.41-1.71,4.71-2.46,8.38-6.49,10.94-11.02,2.55-4.54,4.06-9.64,4.45-14.83.88-5.96.54-12.03-.71-17.88ZM79.26,41.77c.36,1.84.62,3.71.8,5.58-2.78,2.44-5.57,4.82-8.62,6.85-1.59,1.16-3.29,2.14-4.95,3.17-.85.49-1.72.94-2.58,1.42-.85.49-1.73.91-2.62,1.32-3.51,1.74-7.17,3.17-10.92,4.37-3.52,1.11-7.12,2.05-10.79,2.67l.93-6.11c3.61-.15,7.2-.93,10.66-2.03,3.68-1.17,7.22-2.76,10.6-4.61,3.33-1.95,6.59-4.05,9.51-6.56,1.53-1.17,2.87-2.57,4.28-3.86,1.16-1.2,2.28-2.44,3.38-3.68.11.5.22.99.32,1.49ZM75.05,43.4l-2.24,1.76-1.11.89-1.16.83-2.3,1.67-2.38,1.55-1.18.78-1.22.73-2.45,1.43c-3.3,1.84-6.73,3.45-10.25,4.83-3.32,1.26-6.71,2.37-10.24,3.06l.21-1.38,1.64-11.19c3.12-.35,6.19-1.17,9.15-2.25,3.14-1.16,6.18-2.61,9.07-4.31,2.85-1.76,5.64-3.63,8.15-5.86,1.31-1.05,2.46-2.26,3.66-3.42.6-.58,1.12-1.24,1.68-1.85.43-.48.84-.97,1.26-1.47,1.53,3.54,2.74,7.22,3.59,10.98-1.3,1.07-2.54,2.2-3.86,3.24ZM45.24,28.69c2.12-.22,4.2-.75,6.22-1.44,2.15-.73,4.21-1.7,6.19-2.82.99-.56,1.93-1.2,2.88-1.83.89-.71,1.84-1.34,2.66-2.14,1.63-1.39,3.04-3.03,4.27-4.77.95,1.25,1.85,2.54,2.71,3.86-1.76,1.79-3.66,3.35-5.66,4.8-.54.36-1.08.73-1.6,1.11-.54.36-1.1.7-1.65,1.04-1.09.71-2.23,1.35-3.36,1.99-2.26,1.31-4.61,2.46-6.95,3.64-2.2,1.07-4.42,2.12-6.65,3.17l.96-6.62ZM62.42,19.51c-1.79,1.29-3.63,2.49-5.55,3.57-3.68,2.14-7.56,3.91-11.61,5.5l.66-4.58c1.75-.46,3.44-1.09,5.1-1.8,1.77-.75,3.48-1.64,5.16-2.59,1.66-.98,3.28-2.05,4.77-3.3,1.4-1.18,2.75-2.5,3.65-4.11.98,1.11,1.91,2.25,2.8,3.43-1.66,1.35-3.25,2.71-4.97,3.9ZM43.39,35.17c-1.82-1.68-3.61-3.35-5.38-5.03-1.88-1.83-3.77-3.64-5.53-5.57-.89-.95-1.77-1.91-2.6-2.92-.42-.5-.85-.99-1.26-1.49-.39-.52-.79-1.03-1.19-1.54-1.46-1.98-2.8-4.05-3.94-6.29,2.38-1.95,4.89-3.73,7.53-5.32.37,1.81,1.27,3.47,2.24,5.01,1.04,1.64,2.26,3.16,3.54,4.59,1.31,1.42,2.67,2.78,4.13,4.03,1.36,1.18,2.79,2.29,4.32,3.26l-1.86,11.28ZM26.43,19.3c1.4,2.29,3.12,4.35,4.92,6.33,1.82,1.95,3.79,3.75,5.86,5.42,1.95,1.56,3.99,3.02,6.16,4.25l-.7,4.25-.24,1.47c-2.17-1.76-4.29-3.54-6.38-5.35-2.22-1.96-4.42-3.92-6.46-6.04-.54-.51-1.03-1.05-1.53-1.59-.5-.54-1.01-1.06-1.48-1.63l-1.44-1.66c-.44-.58-.89-1.16-1.34-1.74-1.64-2.23-3.1-4.59-4.23-7.18,1.24-1.19,2.52-2.34,3.85-3.44.6,2.44,1.71,4.75,3.03,6.9ZM39.45,59.34l-.22,1.38c-3.15-1.72-6.05-3.81-8.83-6.01-2.94-2.38-5.72-4.95-8.31-7.7l-1.9-2.1-.94-1.06-.89-1.1-1.8-2.2-1.69-2.28-.85-1.14-.79-1.18-1.6-2.36c-.95-1.39-1.79-2.85-2.71-4.28,1.95-3.32,4.21-6.45,6.74-9.36.25.6.49,1.2.76,1.79.35.76.64,1.54,1.04,2.28.79,1.47,1.53,2.98,2.45,4.37,1.71,2.88,3.81,5.51,5.99,8.05,2.24,2.5,4.69,4.8,7.34,6.85,2.49,1.93,5.17,3.64,8.04,4.91l-1.82,11.16ZM39.56,67.24c3.75-.08,7.5-.67,11.14-1.61.96-.27,1.93-.51,2.89-.81l2.85-.95c1.86-.73,3.73-1.47,5.53-2.36.91-.43,1.8-.87,2.67-1.38.87-.5,1.76-.96,2.61-1.49,1.66-1.13,3.38-2.16,4.91-3.46,2.97-2.2,5.54-4.89,7.91-7.67.2,2.13.27,4.27.19,6.41-1.41,1.1-2.77,2.24-4.17,3.32l-2.44,1.8c-.82.59-1.59,1.24-2.45,1.77-1.69,1.1-3.31,2.3-5.07,3.27-.87.5-1.7,1.07-2.59,1.54l-2.66,1.41c-3.58,1.81-7.29,3.36-11.13,4.54-.96.28-1.92.58-2.9.8l-1.46.36-1.48.29c-1.75.35-3.52.58-5.31.66l.97-6.42ZM75.29,29.1c-2.41,2.03-4.8,4.04-7.31,5.88l-1.98,1.46-2.04,1.38c-.67.47-1.36.91-2.06,1.34-.7.43-1.38.89-2.1,1.28-2.81,1.69-5.74,3.17-8.73,4.53-2.82,1.24-5.69,2.39-8.68,3.27l1.25-8.54.62-4.26c2.44-.52,4.83-1.29,7.16-2.19,2.48-.96,4.9-2.08,7.23-3.39,2.31-1.34,4.57-2.78,6.6-4.54,1.91-1.65,3.66-3.53,4.96-5.67,1.16,1.8,2.24,3.65,3.22,5.55.66,1.28,1.28,2.59,1.85,3.91ZM50.51,12.51c1.07-.46,2.09-1,3.09-1.6.99-.6,1.95-1.27,2.85-2.03.83-.72,1.67-1.53,2.21-2.54,1.63,1.38,3.19,2.86,4.65,4.42.42.45.82.9,1.22,1.36-1.34,1.23-2.82,2.22-4.31,3.2-1.58,1.02-3.19,2-4.83,2.94-3.13,1.85-6.32,3.6-9.45,5.6l.58-4,.88-6.28c1.09-.25,2.12-.63,3.11-1.07ZM32.69,6.03c1.27-.71,2.57-1.37,3.89-1.98.18,1.29.6,2.52,1.15,3.69.58,1.24,1.34,2.4,2.21,3.47.89,1.06,1.95,1.99,3.12,2.74,1.1.71,2.36,1.18,3.63,1.39l-.75,4.42-.66,3.99c-2.38-2.84-4.89-5.48-7.32-8.19-1.28-1.39-2.51-2.81-3.71-4.26-1.12-1.39-2.23-2.78-3.14-4.36.52-.31,1.05-.62,1.58-.92ZM18.66,16.7c.26-.26.54-.52.8-.78.59,2.76,1.83,5.37,3.33,7.77,1.59,2.58,3.61,4.85,5.69,7.02,2.11,2.14,4.41,4.1,6.81,5.89,2.26,1.68,4.62,3.23,7.12,4.53l-1.13,6.93c-2.58-1.74-4.97-3.7-7.28-5.74-2.44-2.2-4.79-4.49-6.95-6.96-.56-.59-1.07-1.24-1.61-1.86-.54-.62-1.06-1.25-1.56-1.9l-1.53-1.93-1.45-1.99c-1.84-2.52-3.51-5.16-5.2-7.83.95-1.09,1.93-2.14,2.95-3.16ZM8.08,30.74c.25-.45.51-.89.76-1.33.67,1.53,1.37,3.05,2.12,4.55.96,1.66,1.8,3.4,2.91,4.98,2.03,3.28,4.5,6.26,7.08,9.13,2.67,2.79,5.56,5.37,8.71,7.6,2.96,2.1,6.14,3.93,9.54,5.16l-1.99,12.62c-1.68-.62-3.31-1.37-4.86-2.24l-1.32-.72-1.29-.79c-.87-.5-1.69-1.09-2.52-1.64-3.3-2.28-6.37-4.88-9.23-7.69l-2.11-2.15c-.71-.71-1.33-1.51-2.01-2.25-1.39-1.46-2.56-3.09-3.85-4.65-.66-.77-1.2-1.62-1.8-2.43l-1.78-2.45c-1.01-1.46-1.97-2.97-2.98-4.44,1.09-3.91,2.67-7.69,4.63-11.27ZM2.31,47.23c.26-1.71.64-3.41,1.1-5.08.76,1.58,1.56,3.14,2.38,4.7,1.07,1.73,2.06,3.53,3.25,5.19,1.18,1.67,2.36,3.35,3.71,4.89.67.78,1.3,1.59,2.01,2.32l2.13,2.22c2.95,2.85,6.15,5.47,9.67,7.6,3.31,1.99,6.88,3.66,10.64,4.47l-.82,5.18c-.22.08-.43.15-.65.22-3.39-.88-6.55-2.36-9.5-4.17-1.65-1.02-3.27-2.11-4.8-3.32-1.55-1.18-3.05-2.42-4.49-3.74-2.92-2.59-5.65-5.41-8.29-8.31-2.41-2.68-4.76-5.43-7.02-8.27.15-1.3.37-2.58.66-3.85,0-.02,0-.04.01-.05ZM22.1,81.08c-2.47-.18-4.9-.75-7.15-1.75-2.24-1-4.3-2.4-6.05-4.13-3.51-3.49-5.71-8.17-6.76-13.03-.05-.24-.09-.47-.13-.71,1.03,1.84,2.19,3.62,3.56,5.24l.7.88.76.83c.51.55,1.01,1.11,1.53,1.64,1.09,1.03,2.16,2.07,3.32,3.01,2.31,1.9,4.76,3.63,7.37,5.08,2.04,1.15,4.16,2.16,6.36,2.95-1.17.07-2.35.07-3.51-.02ZM29.54,80.64c-1.07.19-2.15.32-3.24.41-4.77-2.7-9.28-5.71-13.43-9.18-2.27-1.84-4.38-3.85-6.39-5.97-1.68-1.7-3.16-3.56-4.66-5.45-.47-2.99-.54-6.05-.21-9.07,1.81,3.08,3.87,6.03,6.12,8.81,2.49,3.09,5.21,6.01,8.17,8.68,2.98,2.65,6.18,5.09,9.73,6.96,3,1.64,6.31,2.82,9.68,3.26-1.9.64-3.83,1.18-5.79,1.55ZM65.05,83.89c-2.19,1.12-4.58,1.84-7.02,2.11-2.44.27-4.93.08-7.34-.49-1.14-.27-2.26-.63-3.35-1.04,2.34-.09,4.67-.41,6.96-.89,2.93-.6,5.78-1.51,8.56-2.62,1.39-.55,2.73-1.22,4.08-1.87.66-.35,1.3-.74,1.96-1.1l.97-.56.93-.63c1.79-1.13,3.44-2.47,4.98-3.92-.11.21-.22.43-.34.64-2.46,4.32-5.98,8.11-10.38,10.38ZM79.78,59.28c-.35,4.4-1.55,8.75-3.53,12.69-2,1.35-3.98,2.68-6.09,3.79-2.55,1.41-5.18,2.69-7.89,3.76-5,2.05-10.2,3.57-15.55,4.7-1.01-.41-2.01-.87-2.98-1.37-2.09-1.12-4.05-2.46-5.95-3.9l.79-5.18c3.83.37,7.74-.14,11.49-1.04,4-.96,7.84-2.49,11.51-4.32l2.71-1.47c.9-.49,1.75-1.07,2.62-1.61,1.75-1.07,3.38-2.31,5.01-3.54,1.64-1.22,3.12-2.64,4.67-3.96,1.24-1.24,2.47-2.48,3.67-3.75-.06,1.73-.21,3.45-.47,5.16v.05Z"/>
  </g>
</svg>