<?xml version="1.0" encoding="UTF-8"?>
<!DOCTYPE svg PUBLIC "-//W3C//DTD SVG 1.0//EN" "http://www.w3.org/TR/2001/REC-SVG-20010904/DTD/svg10.dtd">
<svg xmlns="http://www.w3.org/2000/svg" xml:space="preserve" width="325mm" height="230mm" version="1.0"
  style="shape-rendering:geometricPrecision; text-rendering:geometricPrecision; image-rendering:optimizeQuality; fill-rule:evenodd; clip-rule:evenodd"
  viewBox="0 0 325 230" xmlns:xlink="http://www.w3.org/1999/xlink">
  <defs>
    <style type="text/css"><![CDATA[
      .str0 {stroke:black;stroke-width:0.0762;stroke-linejoin:bevel;stroke-miterlimit:22.9256}
      .fil0 {fill:none}
    ]]></style>
  </defs>
  <g id="Visible">
    <metadata id="CorelCorpID_0Corel-Layer"/>
    <path class="fil0 str0" d="M164 54.7429l0 3.5357m0 4.2857l3 0m0 0l0 -4.2857m15 -19.1786l30 0m-30 0l0 -3m-15 22.1786l-3 0m0 -3.5357l3 0m-3 7.8214l0 3.5357m0 0l156 0m0 0l0 -3.5357m0 0l-3 0m0 0l0 -4.2857m0 0l3 0m0 0l0 -3.5357m0 0l-3 0m0 0l0 -4.2858m0 0l3 0m0 0l0 -3.5357m0 0l-3 0m0 0l0 -4.2857m0 0l3 0m0 0l0 -6.5357m0 0l-18 0m0 3l0 -3m-30 3l30 0m-30 0l0 -3m0 0l-15 0m0 3l0 -3m-30 3l30 0m-30 0l0 -3m0 0l-15 0m0 3l0 -3m-30 0l-18 0m0 0l0 6.5357m3 0l-3 0m3 4.2857l0 -4.2857m-3 4.2857l3 0m-3 0l0 3.5357m3 0l-3 0m3 4.2858l0 -4.2858"/>
    <path class="fil0 str0" d="M320 88.9l0 30m-3 -30l3 0m-3 0l0 -15m0 0l-15 0m0 0l0 -3m0 0l-30 0m0 0l0 3m0 0l-15 0m0 0l0 -3m0 0l-30 0m0 0l0 3m0 0l-15 0m0 0l0 -3m0 0l-30 0m0 0l0 3m0 0l-15 0m0 0l0 15m0 0l-3 0m0 0l0 30m0 0l3 0m0 0l0 15m-3 0l3 0m-3 30l0 -30m3 30l-3 0m3 0l0 15m-3 0l3 0m-3 30l0 -30m3 30l-3 0m3 0l0 15m0 0l15 0m0 3l0 -3m30 3l-30 0m30 -3l0 3m0 -3l15 0m0 3l0 -3m30 3l-30 0m30 -3l0 3m0 -3l15 0m0 3l0 -3m30 3l-30 0m30 -3l0 3m0 -3l15 0m0 0l0 -15m0 0l3 0m0 0l0 -30m0 0l-3 0m0 0l0 -15m0 0l3 0m0 0l0 -30m0 0l-3 0m0 0l0 -15m3 0l-3 0"/>
    <path class="fil0 str0" d="M320 6.6357l0 -3.5357m-18 30l18 0m-48 -3l30 0m0 0l0 3m18 -30l-54 0m0 0c-1.0609,0 -2.0783,0.4214 -2.8284,1.1716 -0.7502,0.7501 -1.1716,1.7675 -1.1716,2.8284m10 26l0 -3m-10 -23l0 1.5m0 0l-40 0m0 0l0 -1.5m0 0c0,-1.0609 -0.4214,-2.0783 -1.1716,-2.8284 -0.7501,-0.7502 -1.7675,-1.1716 -2.8284,-1.1716m0 0l-54 0m0 0l0 3.5357m0 0l3 0m0 0l0 4.2857m0 0l-3 0m0 0l0 3.5357m0 0l3 0m0 0l0 4.2858m0 0l-3 0m0 0l0 3.5357m0 0l3 0m0 0l0 4.2857m0 0l-3 0m0 0l0 6.5357m0 0l18 0m0 0l0 -3m0 0l30 0m0 0l0 3m0 0l15 0m0 0l0 -3m0 0l30 0m0 0l0 3m0 0l15 0m48 0l0 -6.5357m0 0l-3 0m0 0l0 -4.2857m0 0l3 0m0 0l0 -3.5357m0 0l-3 0m0 0l0 -4.2858m0 0l3 0m0 0l0 -3.5357m0 0l-3 0m0 0l0 -4.2857m0 0l3 0"/>
    <path class="fil0 str0" d="M63.5 216.9l0 2m0 0c0,2.1217 0.8429,4.1566 2.3431,5.6569 1.5003,1.5002 3.5352,2.3431 5.6569,2.3431m0 0l23 0m0 0c4.4183,0 8,-3.5817 8,-8m0 0l0 -2m0 0l54.5 0m0 0l0 -142.8382m0 0l4 0m0 0l0 -3.3236m0 0l-4 0m0 0l0 -1.6382m0 0l-148 0m0 0l0 1.6382m0 0l-4 0m0 0l0 3.3236m0 0l4 0m0 0l0 142.8382m0 0l54.5 0"/>
    <path class="fil0 str0" d="M158 18.7429l0 3.5357m-15 7.8214l0 3m15 -14.3571l3 0m0 0l0 -4.2858m0 0l-3 0m0 -3.5357l0 3.5357m3 -3.5357l-3 0m3 0l0 -4.2857m0 0l-3 0m0 -3.5357l0 3.5357m0 -3.5357l-150 0m0 3.5357l0 -3.5357m-3 3.5357l3 0m-3 0l0 4.2857m3 0l-3 0m3 3.5357l0 -3.5357m0 3.5357l-3 0m0 0l0 4.2858m3 0l-3 0m3 3.5357l0 -3.5357m0 3.5357l-3 0m0 0l0 4.2857m3 0l-3 0m3 6.5357l0 -6.5357m0 6.5357l15 0m0 -3l0 3m30 -3l-30 0m30 0l0 3m0 0l15 0m0 -3l0 3m30 -3l-30 0m30 0l0 3m0 0l15 0m0 -3l0 3m30 -3l-30 0m30 3l15 0m0 -6.5357l0 6.5357m0 -6.5357l3 0m0 0l0 -4.2857m-3 0l3 0m-146.25 -15.1786c0,-1.2426 -1.0074,-2.25 -2.25,-2.25 -1.2426,0 -2.25,1.0074 -2.25,2.25 0,1.2426 1.0074,2.25 2.25,2.25 1.2426,0 2.25,-1.0073 2.25,-2.25z"/>
    <path class="fil0 str0" d="M5 51.7429l0 -4.2858m3 4.2858l-3 0m3 0l0 3.5357m0 0l-3 0m0 4.2857l0 -4.2857m3 4.2857l-3 0m3 0l0 6.5357m15 0l-15 0m15 -3l0 3m0 -3l30 0m0 0l0 3m15 0l-15 0m15 -3l0 3m0 -3l30 0m0 0l0 3m15 0l-15 0m15 -3l0 3m0 -3l30 0m0 0l0 3m15 0l-15 0m15 0l0 -6.5357m0 0l3 0m0 -4.2857l0 4.2857m-3 -4.2857l3 0m-3 0l0 -3.5357m0 0l3 0m0 -4.2858l0 4.2858m-3 -4.2858l3 0m-3 0l0 -3.5357m0 0l3 0m0 -4.2857l0 4.2857m0 -4.2857l-3 0m0 0l0 -3.5357m-150 0l150 0m-150 0l0 3.5357m-3 0l3 0m-3 4.2857l0 -4.2857m0 4.2857l3 0m0 0l0 3.5357m-3 0l3 0m147.75 -7.3571c0,-1.2426 -1.0074,-2.25 -2.25,-2.25 -1.2426,0 -2.25,1.0074 -2.25,2.25 0,1.2426 1.0074,2.25 2.25,2.25 1.2426,0 2.25,-1.0073 2.25,-2.25z"/>
  </g>
</svg>
