<?xml version="1.0" encoding="UTF-8"?>
<svg id="Layer_2" data-name="Layer 2" xmlns="http://www.w3.org/2000/svg" viewBox="0 0 198.16 198.16">
  <defs>
    <style>
      .cls-1 {
        fill: #201522;
      }
    </style>
  </defs>
  <g id="Objects">
    <g>
      <path class="cls-1" d="M92.94,11.57c.8.76,1.83,1.34,2.97,1.53.45.08.92.08,1.38.03-.07.54-.03,1.04.13,1.53.12.3.33.59.41.9.09.31.07.64.02.96-.12.65-.13,1.28-.12,1.89.04.62.14,1.19.22,1.88,0,.01,0,.03.02.04.02.02.06.02.08,0,.54-.52.71-1.26.75-1.92-.01-.67-.12-1.33-.4-1.95-.13-.31-.23-.62-.25-.95-.02-.32.08-.67.08-1-.04-.5-.19-.99-.48-1.43.53-.11,1.05-.29,1.51-.57,1.02-.58,1.76-1.56,2.16-2.6.4-1.05.47-2.17.3-3.24-.13-.78-.4-1.53-.72-2.26-.34-.73-.78-1.41-1.31-2.03-1.06-1.25-2.61-2.13-4.3-2.36-.09-.01-.19,0-.28.04-1.1.5-1.96,1.35-2.59,2.29-.66.93-1.08,2-1.32,3.09-.21,1.1-.24,2.25.06,3.33.26,1.09.89,2.05,1.69,2.82ZM91.92,5.61c.6-1.89,1.8-3.69,3.48-4.52,1.37.2,2.66.88,3.79,1.78,1.16.94,2.16,2.25,2.43,3.8.18,1.05-.04,2.16-.58,3.04-.53.89-1.32,1.57-2.19,2.02-.02.01-.05.02-.07.03.24-.43.39-.9.44-1.39.02-.4-.08-.81-.06-1.2.02-.39.1-.77.2-1.16.23-.78.21-1.61.06-2.41-.2-.79-.61-1.54-1.24-2.09-.01,0-.03-.01-.04-.01-.03,0-.05.03-.05.06.05.83.19,1.53.28,2.25.14.71.26,1.42.44,2.18.07.38.12.77.03,1.14-.07.38-.3.72-.43,1.07-.18.58-.26,1.18-.26,1.83-.6.21-1.24.32-1.89.33-.18-.41-.39-.74-.68-1.03-.2-.17-.48-.31-.65-.52-.17-.21-.23-.49-.27-.76-.02-.57-.15-1.06-.25-1.57-.17-.49-.34-.99-.7-1.51,0,0-.01-.02-.02-.02-.03-.01-.06,0-.08.03-.28.57-.33,1.17-.24,1.75.05.29.16.56.29.82.11.27.3.51.49.73.2.22.38.44.49.7.11.26.13.58.26.85.09.17.22.32.36.46-.75-.15-1.48-.46-2.09-.97-.8-.67-1.35-1.63-1.53-2.65-.19-1.02-.02-2.08.29-3.05Z"/>
      <path class="cls-1" d="M105.22,186.59c-.8-.76-1.83-1.34-2.97-1.53-.45-.08-.92-.08-1.38-.03.07-.54.03-1.04-.13-1.53-.12-.3-.33-.59-.42-.9-.09-.31-.07-.64-.02-.96.12-.65.13-1.28.13-1.89-.04-.62-.14-1.19-.22-1.88,0-.01,0-.03-.02-.04-.02-.02-.06-.02-.08,0-.54.52-.71,1.26-.75,1.92.01.67.12,1.33.4,1.95.13.31.23.62.25.95.02.32-.08.67-.08,1,.04.5.19.99.48,1.43-.53.11-1.05.29-1.51.57-1.02.58-1.76,1.56-2.16,2.6-.4,1.05-.47,2.17-.3,3.24.13.78.4,1.53.72,2.26.34.73.78,1.41,1.31,2.03,1.06,1.25,2.61,2.13,4.3,2.36.09.01.19,0,.28-.04,1.1-.5,1.96-1.35,2.59-2.29.66-.94,1.08-2,1.32-3.09.21-1.1.24-2.25-.06-3.33-.26-1.09-.89-2.05-1.69-2.82ZM106.24,192.55c-.6,1.89-1.8,3.69-3.48,4.52-1.37-.2-2.66-.88-3.79-1.78-1.16-.94-2.16-2.25-2.43-3.8-.18-1.05.04-2.16.58-3.04.53-.89,1.32-1.57,2.19-2.02.02-.01.05-.02.07-.03-.24.43-.39.9-.44,1.39-.02.4.08.81.07,1.2-.02.39-.1.77-.2,1.16-.23.78-.21,1.61-.06,2.41.19.79.61,1.54,1.24,2.09.01,0,.03.01.04.01.03,0,.05-.03.05-.06-.05-.83-.19-1.53-.28-2.25-.14-.71-.26-1.42-.44-2.18-.07-.38-.12-.77-.03-1.14.07-.38.3-.72.43-1.07.18-.58.26-1.18.26-1.83.6-.21,1.24-.32,1.89-.33.18.41.39.74.68,1.03.2.17.48.31.65.52.17.21.23.49.27.76.02.57.14,1.06.25,1.57.17.49.34.99.7,1.51,0,0,.01.02.02.02.03.01.06,0,.08-.03.28-.57.33-1.17.24-1.75-.05-.29-.16-.56-.29-.82-.11-.27-.3-.51-.49-.73-.2-.22-.38-.44-.49-.7-.11-.26-.13-.58-.26-.85-.09-.17-.22-.32-.36-.46.75.15,1.48.46,2.09.97.8.67,1.35,1.63,1.53,2.65.19,1.02.02,2.08-.29,3.05Z"/>
      <path class="cls-1" d="M8.75,106.91c1.09-.26,2.05-.89,2.81-1.69.76-.8,1.34-1.83,1.53-2.97.08-.45.08-.92.03-1.38.54.07,1.04.03,1.53-.13.3-.12.59-.33.9-.42.31-.09.64-.07.96-.02.65.12,1.28.13,1.89.13.62-.04,1.19-.14,1.88-.22.01,0,.03,0,.04-.02.02-.02.02-.06,0-.08-.52-.54-1.26-.71-1.92-.75-.67.01-1.33.12-1.95.4-.31.13-.62.23-.95.25-.32.02-.67-.08-1-.08-.5.04-.99.19-1.43.48-.11-.53-.29-1.05-.57-1.51-.58-1.02-1.56-1.76-2.6-2.16-1.05-.4-2.17-.47-3.24-.3-.78.13-1.53.4-2.26.72-.73.34-1.41.78-2.03,1.31-1.25,1.06-2.13,2.61-2.36,4.3-.01.09,0,.19.04.28.5,1.1,1.35,1.96,2.29,2.59.93.66,2,1.08,3.09,1.32,1.1.21,2.25.24,3.33-.07ZM1.1,102.76c.2-1.37.88-2.66,1.78-3.79.94-1.16,2.25-2.16,3.8-2.43,1.05-.18,2.16.04,3.04.58.89.53,1.57,1.32,2.02,2.19.01.02.02.05.03.07-.43-.24-.9-.39-1.39-.44-.4-.02-.81.08-1.2.07-.39-.02-.77-.1-1.16-.2-.78-.23-1.61-.21-2.41-.06-.79.2-1.54.61-2.09,1.24,0,.01-.01.03-.01.04,0,.03.03.05.06.05.83-.05,1.53-.19,2.25-.29.71-.14,1.42-.26,2.18-.44.38-.07.77-.12,1.14-.03.38.07.72.3,1.07.43.58.18,1.18.26,1.83.26.21.6.32,1.24.33,1.89-.41.18-.74.39-1.03.68-.17.2-.31.48-.52.65-.21.17-.49.23-.76.27-.57.02-1.06.15-1.57.25-.49.17-.99.34-1.51.7,0,0-.02.01-.02.02-.01.03,0,.06.03.08.57.28,1.17.33,1.75.24.29-.05.56-.16.82-.29.27-.11.51-.3.73-.49.22-.2.44-.38.7-.49.26-.11.58-.13.85-.26.17-.09.32-.22.46-.36-.15.75-.46,1.48-.97,2.09-.67.8-1.63,1.35-2.65,1.53-1.02.19-2.08.02-3.05-.29-1.89-.6-3.69-1.8-4.52-3.48Z"/>
      <path class="cls-1" d="M198.12,95.1c-.5-1.1-1.35-1.96-2.29-2.59-.94-.66-2-1.08-3.09-1.32-1.1-.21-2.25-.24-3.33.07-1.09.26-2.05.89-2.82,1.69-.76.8-1.34,1.82-1.53,2.97-.08.45-.08.92-.03,1.38-.54-.07-1.04-.03-1.53.13-.3.12-.59.33-.9.42-.31.09-.64.07-.96.02-.65-.12-1.28-.13-1.89-.13-.62.04-1.19.14-1.88.22-.01,0-.03,0-.04.02-.02.02-.02.06,0,.08.52.54,1.26.71,1.92.75.67-.01,1.33-.12,1.95-.4.31-.13.62-.23.95-.25.32-.02.67.08,1,.08.5-.04.99-.19,1.43-.48.11.53.29,1.05.57,1.51.58,1.02,1.56,1.76,2.6,2.16,1.05.4,2.17.47,3.24.3.78-.13,1.53-.4,2.26-.72.73-.34,1.41-.78,2.03-1.31,1.25-1.06,2.13-2.61,2.36-4.3.01-.09,0-.19-.04-.28ZM195.29,99.19c-.94,1.16-2.25,2.16-3.8,2.43-1.05.18-2.16-.04-3.04-.58-.89-.53-1.57-1.32-2.02-2.19-.01-.02-.02-.05-.03-.07.43.24.9.39,1.39.44.4.02.81-.08,1.2-.07.39.02.77.1,1.16.2.78.23,1.61.21,2.41.06.79-.2,1.54-.61,2.09-1.24,0-.01.01-.03.01-.04,0-.03-.03-.05-.06-.05-.83.05-1.53.19-2.25.28-.71.14-1.42.26-2.18.44-.38.07-.77.12-1.14.03-.38-.07-.72-.3-1.07-.43-.58-.18-1.18-.26-1.83-.26-.21-.6-.32-1.24-.33-1.89.41-.18.74-.39,1.03-.68.17-.2.31-.48.52-.65.21-.17.49-.23.76-.27.57-.02,1.06-.15,1.57-.25.49-.17.99-.34,1.51-.7,0,0,.02-.01.02-.02.01-.03,0-.06-.03-.08-.57-.28-1.17-.33-1.75-.24-.29.05-.56.16-.82.29-.27.11-.51.3-.73.49-.22.2-.44.38-.7.49-.26.11-.58.13-.85.26-.17.09-.32.22-.46.36.15-.75.46-1.48.97-2.09.67-.8,1.63-1.35,2.65-1.53,1.02-.19,2.08-.02,3.05.29,1.89.6,3.69,1.8,4.52,3.48-.2,1.37-.88,2.66-1.78,3.79Z"/>
      <path class="cls-1" d="M31.42,139.42s0-.06-.04-.07c-.72-.21-1.45.02-2.04.31-.58.35-1.1.77-1.49,1.32-.21.27-.42.51-.7.69-.27.18-.62.26-.91.43-.42.28-.76.66-1,1.13-.36-.41-.78-.76-1.25-1.02-1.01-.59-2.23-.74-3.33-.57-1.11.18-2.12.68-2.96,1.36-.61.5-1.13,1.11-1.59,1.76-.46.65-.83,1.38-1.1,2.15-.55,1.54-.54,3.32.11,4.9.04.09.1.17.18.23.98.7,2.14,1.02,3.28,1.1,1.14.1,2.27-.07,3.34-.4,1.05-.37,2.07-.91,2.85-1.72.81-.77,1.33-1.8,1.6-2.87.26-1.07.25-2.25-.16-3.33-.15-.43-.39-.84-.66-1.21.5-.21.92-.5,1.26-.88.2-.25.34-.58.57-.81.22-.23.52-.38.82-.5.63-.23,1.17-.53,1.7-.84.52-.35.96-.71,1.51-1.13,0,0,.02-.02.02-.03ZM25.61,146.33c.1-.17.17-.35.22-.54.25.72.34,1.52.2,2.29-.18,1.03-.74,1.98-1.53,2.65-.79.67-1.79,1.05-2.79,1.28-1.93.43-4.09.29-5.65-.75-.51-1.29-.57-2.74-.36-4.17.23-1.47.88-2.99,2.07-4.01.82-.68,1.89-1.04,2.92-1.01,1.04,0,2.02.36,2.84.89.02.01.04.03.06.05-.49.01-.98.11-1.42.31-.36.19-.67.47-1.01.66-.34.18-.72.3-1.1.41-.79.19-1.5.62-2.12,1.15-.59.56-1.03,1.3-1.19,2.12,0,.01,0,.03.01.04.02.02.05.03.07.01.7-.46,1.23-.93,1.81-1.37.55-.47,1.1-.94,1.67-1.47.29-.25.6-.48.97-.59.36-.13.77-.1,1.15-.17.6-.13,1.16-.35,1.73-.67.48.41.88.91,1.21,1.46-.27.36-.45.71-.55,1.11-.04.26-.02.57-.13.82-.1.25-.31.45-.53.61-.48.3-.85.66-1.24,1-.34.39-.69.79-.96,1.36,0,0,0,.02,0,.03,0,.03.03.06.06.05.63-.04,1.18-.3,1.63-.67.22-.19.41-.42.57-.66.18-.23.29-.51.39-.79.09-.28.2-.55.37-.77.17-.23.44-.4.61-.65Z"/>
      <path class="cls-1" d="M166.74,58.74s0,.06.04.07c.72.21,1.45-.02,2.04-.31.58-.35,1.1-.77,1.49-1.32.21-.27.42-.51.69-.69.27-.18.62-.26.91-.43.42-.28.76-.66,1-1.13.36.41.78.76,1.25,1.02,1.01.59,2.23.74,3.33.57,1.11-.18,2.12-.68,2.96-1.36.61-.5,1.13-1.11,1.59-1.76.46-.65.83-1.38,1.1-2.15.55-1.54.54-3.32-.11-4.9-.04-.09-.1-.17-.18-.23-.98-.7-2.14-1.02-3.28-1.1-1.14-.1-2.27.07-3.34.4-1.05.37-2.07.91-2.85,1.72-.81.77-1.33,1.8-1.6,2.87-.26,1.07-.25,2.25.16,3.33.15.43.39.84.66,1.21-.5.21-.92.5-1.26.88-.2.25-.34.58-.57.81-.22.23-.52.38-.82.5-.63.23-1.17.53-1.7.84-.52.35-.96.71-1.51,1.13,0,0-.02.02-.02.03ZM172.56,51.83c-.1.17-.17.35-.22.54-.25-.72-.34-1.52-.2-2.29.18-1.03.74-1.98,1.53-2.65.79-.67,1.79-1.05,2.79-1.28,1.93-.43,4.09-.29,5.65.75.51,1.29.57,2.74.36,4.17-.23,1.47-.87,2.99-2.07,4.01-.82.68-1.89,1.04-2.92,1.01-1.04,0-2.02-.36-2.84-.89-.02-.01-.04-.03-.06-.05.49-.01.98-.11,1.42-.31.36-.19.67-.47,1.01-.66.34-.18.72-.3,1.1-.41.79-.19,1.5-.62,2.12-1.15.59-.56,1.03-1.3,1.19-2.12,0-.01,0-.03,0-.04-.02-.02-.05-.03-.08-.01-.7.46-1.23.93-1.81,1.37-.55.47-1.1.94-1.67,1.47-.29.25-.6.48-.97.59-.36.13-.77.1-1.15.17-.6.13-1.16.35-1.73.67-.48-.41-.88-.91-1.21-1.46.27-.36.45-.71.55-1.11.04-.26.02-.57.13-.82.1-.25.31-.45.53-.61.48-.3.85-.66,1.24-1,.34-.39.69-.79.96-1.36,0,0,0-.02,0-.03,0-.03-.03-.06-.06-.05-.63.04-1.18.3-1.63.67-.22.19-.41.42-.57.67-.18.23-.29.51-.39.79-.09.28-.2.55-.37.77-.17.23-.44.4-.61.65Z"/>
      <path class="cls-1" d="M58.84,175.13c-.35-.3-.76-.53-1.18-.72.33-.43.54-.89.65-1.39.05-.32,0-.67.09-.98.08-.31.26-.59.46-.85.43-.51.75-1.04,1.05-1.57.27-.56.47-1.1.75-1.74,0-.01,0-.03,0-.04,0-.03-.04-.05-.07-.04-.73.18-1.25.74-1.61,1.29-.33.59-.57,1.21-.63,1.89-.05.33-.11.65-.26.94-.14.29-.4.54-.57.83-.22.45-.33.95-.3,1.48-.51-.17-1.05-.27-1.6-.26-1.17,0-2.3.47-3.17,1.17-.88.71-1.49,1.65-1.88,2.66-.28.74-.42,1.52-.5,2.32-.07.8-.03,1.61.12,2.42.29,1.61,1.19,3.15,2.54,4.19.07.06.17.1.27.11,1.2.12,2.37-.19,3.39-.68,1.04-.48,1.93-1.19,2.69-2.02.73-.85,1.34-1.83,1.61-2.91.31-1.07.25-2.22-.05-3.28-.31-1.06-.91-2.07-1.81-2.81ZM60.32,181.1c-.35.98-1.02,1.81-1.77,2.5-1.46,1.33-3.4,2.29-5.27,2.17-1.08-.86-1.86-2.09-2.39-3.43-.54-1.39-.74-3.03-.21-4.51.37-1,1.12-1.85,2.03-2.34.9-.51,1.93-.7,2.91-.65.03,0,.05,0,.08,0-.42.26-.79.59-1.07.98-.21.34-.34.74-.54,1.07-.21.33-.47.62-.75.91-.59.56-.99,1.29-1.26,2.05-.23.78-.24,1.64.03,2.43,0,.01.02.03.03.03.03.01.06,0,.07-.03.37-.75.6-1.42.88-2.09.24-.68.48-1.36.71-2.11.13-.36.28-.72.55-1,.25-.29.62-.48.91-.72.45-.41.83-.88,1.16-1.45.63.12,1.23.35,1.8.66-.05.44-.05.84.06,1.23.09.25.27.51.3.78.04.27-.04.54-.15.79-.27.5-.4.99-.57,1.48-.1.51-.2,1.02-.15,1.66,0,0,0,.02,0,.03.02.03.05.03.08.02.53-.35.87-.85,1.08-1.39.1-.28.14-.57.16-.86.04-.29,0-.59-.06-.88-.06-.29-.1-.57-.07-.85.03-.28.18-.57.21-.87,0-.19-.03-.39-.08-.58.58.5,1.05,1.14,1.32,1.88.36.98.35,2.08,0,3.06Z"/>
      <path class="cls-1" d="M139.33,23.03c.35.3.76.53,1.18.72-.33.43-.54.89-.65,1.39-.05.32,0,.67-.09.98-.08.31-.26.59-.46.85-.43.51-.75,1.04-1.05,1.57-.27.56-.47,1.1-.75,1.74,0,.01,0,.03,0,.04,0,.03.04.05.07.04.73-.18,1.25-.74,1.61-1.29.33-.59.57-1.21.63-1.89.05-.33.11-.65.26-.94.14-.29.41-.54.57-.83.22-.45.33-.95.3-1.48.51.17,1.05.27,1.6.26,1.17,0,2.3-.47,3.17-1.17.88-.71,1.49-1.65,1.88-2.66.28-.74.42-1.52.5-2.32.07-.8.03-1.61-.12-2.42-.29-1.61-1.19-3.15-2.54-4.19-.07-.06-.17-.1-.27-.11-1.2-.12-2.37.19-3.39.68-1.04.48-1.93,1.19-2.69,2.02-.73.85-1.34,1.83-1.61,2.91-.31,1.07-.25,2.22.05,3.28.31,1.06.91,2.07,1.81,2.81ZM137.84,17.06c.35-.98,1.02-1.81,1.77-2.5,1.46-1.33,3.4-2.29,5.27-2.17,1.09.86,1.86,2.09,2.39,3.43.54,1.39.74,3.03.21,4.51-.37,1-1.12,1.85-2.03,2.34-.9.51-1.93.7-2.91.65-.03,0-.05,0-.08,0,.42-.26.79-.59,1.07-.98.21-.34.34-.74.54-1.07.21-.33.47-.62.75-.91.59-.56.99-1.29,1.26-2.05.23-.78.24-1.64-.03-2.43,0-.01-.02-.03-.03-.03-.03-.01-.06,0-.07.03-.37.75-.6,1.42-.88,2.09-.24.68-.48,1.36-.71,2.11-.13.36-.28.72-.55,1-.25.29-.62.48-.91.72-.45.41-.83.88-1.16,1.45-.63-.12-1.23-.35-1.8-.66.05-.44.05-.84-.06-1.23-.09-.25-.27-.51-.3-.78-.04-.27.04-.54.15-.79.27-.5.4-.99.57-1.48.1-.51.2-1.02.15-1.66,0,0,0-.02,0-.03-.02-.03-.05-.03-.08-.02-.53.35-.87.85-1.08,1.39-.1.28-.14.57-.16.86-.04.29,0,.59.06.88.06.29.1.57.07.85-.03.28-.18.57-.21.87,0,.19.03.39.08.58-.58-.5-1.05-1.14-1.32-1.88-.36-.98-.35-2.08,0-3.06Z"/>
      <path class="cls-1" d="M151.02,173.39c-.77-.81-1.8-1.33-2.87-1.6-1.07-.26-2.25-.25-3.33.16-.43.15-.84.39-1.21.66-.21-.5-.5-.92-.88-1.26-.25-.2-.58-.34-.81-.57-.23-.22-.38-.51-.5-.82-.23-.63-.53-1.17-.84-1.7-.35-.52-.71-.96-1.13-1.51,0,0-.02-.02-.03-.02-.03,0-.06,0-.07.04-.21.72.02,1.45.31,2.04.35.58.77,1.1,1.32,1.49.27.21.51.42.69.7.18.27.26.62.43.91.28.42.66.76,1.13,1-.41.36-.76.78-1.02,1.25-.59,1.01-.74,2.23-.57,3.33.18,1.11.68,2.12,1.36,2.96.5.61,1.11,1.13,1.76,1.59.65.46,1.38.83,2.15,1.1,1.54.55,3.32.54,4.9-.11.09-.04.17-.1.23-.18.7-.98,1.02-2.14,1.1-3.28.1-1.14-.07-2.27-.4-3.34-.37-1.05-.91-2.07-1.72-2.85ZM151.26,182.1c-1.29.51-2.74.57-4.17.36-1.47-.23-2.99-.88-4.01-2.07-.68-.82-1.04-1.89-1.01-2.92,0-1.04.36-2.02.89-2.84.01-.02.03-.04.05-.06,0,.49.11.98.31,1.42.19.36.47.67.66,1.01.18.34.3.72.41,1.11.19.79.62,1.5,1.15,2.12.56.59,1.3,1.03,2.12,1.19.01,0,.03,0,.04-.01.02-.02.03-.05.01-.07-.46-.7-.93-1.22-1.37-1.81-.47-.55-.94-1.1-1.47-1.67-.25-.29-.48-.6-.59-.97-.13-.36-.1-.77-.17-1.15-.13-.6-.35-1.16-.67-1.73.41-.48.91-.88,1.46-1.21.36.27.71.45,1.11.55.26.04.57.02.82.13.25.1.45.31.61.53.3.48.66.85,1,1.24.39.34.79.69,1.36.96,0,0,.02,0,.03,0,.03,0,.06-.03.05-.06-.04-.63-.3-1.18-.67-1.63-.19-.22-.42-.41-.67-.57-.23-.18-.51-.29-.79-.39-.28-.09-.55-.2-.77-.37-.23-.17-.4-.44-.65-.61-.17-.1-.35-.17-.54-.22.72-.25,1.52-.34,2.29-.2,1.03.18,1.98.74,2.65,1.53.67.79,1.05,1.79,1.28,2.79.43,1.93.29,4.09-.75,5.65Z"/>
      <path class="cls-1" d="M47.14,24.77c.77.81,1.8,1.33,2.87,1.6,1.08.26,2.25.25,3.33-.16.43-.15.84-.39,1.21-.66.21.5.5.91.88,1.26.25.2.58.34.81.57.23.22.38.52.5.82.23.63.53,1.17.84,1.7.35.52.71.96,1.13,1.51,0,0,.02.02.03.02.03,0,.06,0,.07-.04.21-.72-.02-1.45-.31-2.04-.35-.58-.77-1.1-1.32-1.49-.27-.21-.51-.42-.69-.7-.18-.27-.26-.62-.43-.91-.28-.42-.66-.76-1.13-1,.41-.36.76-.78,1.02-1.25.59-1.01.74-2.22.57-3.33-.18-1.11-.68-2.12-1.36-2.96-.5-.61-1.11-1.13-1.76-1.59-.65-.46-1.38-.83-2.15-1.1-1.54-.55-3.32-.54-4.9.11-.09.04-.17.1-.23.18-.7.98-1.02,2.14-1.1,3.28-.1,1.14.07,2.27.4,3.34.37,1.05.91,2.07,1.72,2.85ZM46.9,16.06c1.29-.51,2.74-.57,4.17-.36,1.47.23,2.99.87,4.01,2.07.68.82,1.04,1.89,1.01,2.92,0,1.04-.36,2.02-.89,2.84-.01.02-.03.04-.05.06,0-.49-.11-.98-.31-1.42-.19-.36-.47-.67-.66-1.01-.18-.34-.3-.72-.41-1.11-.19-.79-.62-1.5-1.15-2.12-.56-.59-1.3-1.03-2.12-1.19-.01,0-.03,0-.04.01-.02.02-.03.05-.01.07.46.7.93,1.23,1.37,1.81.47.55.94,1.1,1.47,1.67.25.29.48.6.59.97.13.36.1.77.17,1.15.13.6.35,1.16.67,1.73-.41.48-.91.88-1.46,1.21-.36-.27-.71-.45-1.11-.55-.26-.04-.57-.02-.82-.13-.25-.1-.45-.31-.61-.53-.3-.48-.66-.85-1-1.24-.39-.34-.79-.69-1.36-.96,0,0-.02,0-.03,0-.03,0-.06.03-.05.06.04.63.3,1.18.67,1.63.19.22.42.41.67.57.23.18.51.29.79.39.28.09.55.2.77.37.23.17.4.44.65.61.17.1.35.17.54.22-.72.25-1.52.34-2.29.2-1.03-.18-1.98-.74-2.65-1.53-.67-.79-1.05-1.79-1.28-2.79-.43-1.93-.29-4.09.75-5.65Z"/>
      <path class="cls-1" d="M184.13,139.07c-.85-.73-1.83-1.34-2.91-1.61-1.07-.31-2.22-.26-3.28.05-1.06.31-2.07.91-2.81,1.81-.3.35-.53.76-.72,1.18-.43-.33-.89-.54-1.39-.65-.32-.05-.67,0-.98-.09-.31-.08-.59-.26-.85-.46-.51-.43-1.04-.75-1.57-1.05-.56-.27-1.1-.47-1.74-.75-.01,0-.03,0-.04,0-.03,0-.05.04-.04.07.18.73.74,1.25,1.29,1.61.59.33,1.21.57,1.89.63.33.05.65.11.94.26.29.14.54.41.83.57.45.22.95.33,1.48.3-.17.51-.27,1.05-.26,1.6,0,1.17.47,2.3,1.17,3.17.71.88,1.65,1.49,2.66,1.88.74.28,1.52.42,2.32.5.8.07,1.61.03,2.42-.12,1.61-.29,3.15-1.19,4.19-2.54.06-.07.1-.17.11-.27.12-1.2-.19-2.37-.68-3.39-.48-1.04-1.19-1.93-2.02-2.69ZM182.35,147.28c-1.39.54-3.03.74-4.51.21-1-.37-1.85-1.11-2.34-2.03-.51-.9-.7-1.93-.65-2.91,0-.03,0-.05,0-.08.26.42.59.79.98,1.07.34.21.74.34,1.07.54.33.21.62.47.91.75.56.59,1.29.99,2.05,1.26.78.23,1.64.24,2.43-.03.01,0,.03-.02.03-.03.01-.03,0-.06-.03-.07-.75-.37-1.42-.6-2.09-.88-.68-.24-1.36-.48-2.11-.71-.36-.13-.72-.28-1-.55-.29-.25-.48-.62-.72-.91-.41-.45-.88-.83-1.45-1.16.12-.63.35-1.23.66-1.8.44.05.84.05,1.23-.06.25-.09.51-.27.78-.3.27-.04.54.04.79.15.5.27.99.4,1.48.57.51.1,1.02.2,1.66.15,0,0,.02,0,.03,0,.03-.02.03-.05.02-.08-.35-.53-.85-.87-1.39-1.08-.28-.1-.57-.14-.86-.16-.29-.04-.59,0-.88.06-.29.06-.57.1-.85.07-.28-.03-.57-.18-.87-.21-.19,0-.39.03-.58.08.5-.58,1.14-1.05,1.88-1.32.98-.36,2.08-.35,3.06,0,.98.35,1.81,1.02,2.5,1.78,1.33,1.46,2.29,3.4,2.17,5.27-.86,1.08-2.09,1.86-3.43,2.39Z"/>
      <path class="cls-1" d="M14.03,59.09c.85.73,1.83,1.34,2.91,1.61,1.07.31,2.22.25,3.28-.05,1.06-.31,2.07-.91,2.81-1.81.3-.35.53-.76.72-1.18.43.33.89.54,1.39.65.32.05.67,0,.98.09.31.08.59.26.85.46.51.43,1.04.75,1.57,1.05.56.27,1.1.47,1.74.75.01,0,.03,0,.04,0,.03,0,.05-.04.04-.07-.18-.73-.74-1.25-1.29-1.61-.59-.33-1.21-.57-1.89-.63-.33-.05-.65-.11-.94-.26-.29-.14-.54-.41-.83-.57-.45-.22-.95-.33-1.48-.3.17-.51.27-1.05.26-1.6,0-1.17-.47-2.3-1.17-3.17-.71-.88-1.65-1.49-2.66-1.88-.74-.28-1.52-.42-2.32-.5-.8-.07-1.61-.03-2.42.12-1.61.29-3.15,1.19-4.19,2.54-.06.07-.1.17-.11.27-.12,1.2.19,2.37.68,3.39.48,1.04,1.19,1.93,2.02,2.69ZM15.82,50.88c1.39-.54,3.03-.74,4.51-.21,1,.37,1.85,1.11,2.34,2.03.51.9.7,1.93.65,2.91,0,.03,0,.05,0,.08-.26-.42-.59-.79-.98-1.07-.34-.21-.74-.34-1.07-.54-.33-.21-.62-.47-.91-.75-.56-.59-1.29-.99-2.05-1.26-.78-.23-1.64-.24-2.43.03-.01,0-.03.02-.03.03-.01.03,0,.06.03.07.75.37,1.42.6,2.09.88.68.24,1.36.48,2.11.71.36.13.72.28,1,.55.29.25.48.62.72.91.41.45.88.83,1.45,1.16-.12.63-.35,1.23-.66,1.8-.44-.05-.84-.05-1.23.06-.25.09-.51.27-.78.3-.27.04-.54-.04-.79-.15-.5-.27-.99-.4-1.48-.57-.51-.1-1.02-.2-1.66-.15,0,0-.02,0-.03,0-.03.02-.03.05-.02.08.35.53.85.87,1.39,1.08.27.1.56.14.86.16.29.04.59,0,.88-.06.29-.06.57-.1.85-.07.28.03.57.18.87.21.19,0,.39-.03.58-.08-.5.58-1.14,1.05-1.88,1.32-.98.36-2.08.35-3.06,0-.98-.35-1.81-1.02-2.5-1.78-1.33-1.46-2.29-3.4-2.17-5.27.86-1.09,2.09-1.86,3.43-2.39Z"/>
      <path class="cls-1" d="M27.28,38.44c.63.92,1.42,1.76,2.4,2.31.96.58,2.08.82,3.18.8,1.11-.03,2.24-.34,3.18-1.02.38-.26.71-.59,1-.95.33.43.72.75,1.17.99.3.13.65.18.93.34.28.16.5.4.7.66.38.55.81.99,1.25,1.42.47.41.94.74,1.49,1.17,0,0,.02.01.04.01.03,0,.06-.02.06-.05.02-.75-.39-1.39-.83-1.89-.48-.47-1.02-.86-1.66-1.1-.31-.13-.6-.27-.84-.49-.24-.21-.42-.53-.65-.77-.38-.33-.83-.57-1.35-.67.3-.45.53-.95.67-1.47.31-1.13.14-2.34-.31-3.36-.46-1.03-1.21-1.87-2.08-2.5-.64-.46-1.36-.8-2.11-1.09-.75-.27-1.55-.45-2.37-.51-1.63-.14-3.35.34-4.71,1.37-.07.06-.14.14-.17.23-.42,1.13-.43,2.34-.22,3.45.2,1.12.65,2.18,1.25,3.12ZM27.19,32.4c1.11-.82,2.5-1.26,3.93-1.42,1.48-.16,3.12.07,4.41.96.87.62,1.49,1.55,1.74,2.56.26,1,.17,2.05-.12,2.98,0,.02-.02.05-.03.07-.14-.47-.36-.91-.67-1.29-.27-.29-.63-.52-.9-.8-.26-.29-.48-.61-.68-.96-.39-.71-.99-1.29-1.66-1.75-.7-.42-1.52-.66-2.35-.6-.01,0-.03,0-.04.02-.02.02-.01.06,0,.08.63.55,1.22.94,1.79,1.39.6.41,1.19.82,1.85,1.23.32.22.62.46.82.79.22.32.3.72.46,1.06.28.55.64,1.03,1.1,1.49-.28.57-.65,1.1-1.11,1.56-.41-.16-.79-.26-1.2-.26-.26.02-.56.13-.83.09-.27-.03-.51-.18-.73-.35-.42-.39-.85-.65-1.28-.94-.47-.23-.94-.46-1.57-.57,0,0-.02,0-.03,0-.03.01-.05.04-.04.07.2.6.59,1.06,1.07,1.4.24.17.51.28.79.38.27.12.57.15.87.17.3.02.58.05.84.15.26.1.5.32.79.42.19.06.38.07.58.07-.63.43-1.38.72-2.16.79-1.04.09-2.1-.2-2.96-.79-.85-.59-1.48-1.46-1.96-2.36-.91-1.76-1.34-3.88-.74-5.65Z"/>
      <path class="cls-1" d="M170.88,159.72c-.63-.92-1.42-1.76-2.4-2.31-.96-.58-2.08-.82-3.18-.8-1.11.03-2.24.34-3.18,1.02-.38.26-.71.59-1,.95-.33-.43-.72-.75-1.17-.99-.3-.13-.65-.18-.93-.34-.28-.16-.5-.4-.7-.66-.38-.55-.81-.99-1.25-1.42-.47-.41-.94-.74-1.49-1.17,0,0-.02-.01-.04-.01-.03,0-.06.02-.06.05-.02.75.39,1.39.83,1.89.48.47,1.02.86,1.66,1.1.31.13.6.27.84.49.24.21.42.53.65.77.38.33.83.57,1.35.67-.3.45-.53.95-.67,1.47-.31,1.13-.14,2.34.31,3.36.46,1.03,1.21,1.87,2.08,2.5.64.46,1.36.8,2.11,1.09.75.27,1.55.45,2.37.51,1.63.14,3.35-.34,4.71-1.37.07-.06.14-.14.17-.23.42-1.13.43-2.34.22-3.45-.2-1.12-.65-2.18-1.25-3.12ZM170.97,165.76c-1.11.82-2.5,1.26-3.93,1.42-1.48.16-3.12-.07-4.41-.96-.87-.62-1.49-1.55-1.74-2.56-.26-1-.17-2.05.12-2.98,0-.02.02-.05.03-.07.14.47.36.91.67,1.29.27.29.63.52.9.8.26.29.48.61.68.96.39.71.99,1.29,1.66,1.75.7.42,1.52.66,2.35.6.01,0,.03,0,.04-.02.02-.02.01-.06,0-.08-.63-.55-1.22-.94-1.79-1.39-.6-.41-1.19-.82-1.85-1.23-.32-.22-.62-.46-.82-.79-.22-.32-.3-.72-.46-1.06-.28-.55-.64-1.03-1.1-1.49.28-.57.65-1.1,1.11-1.56.41.16.79.26,1.2.26.26-.02.56-.13.83-.09.27.03.51.18.73.35.42.39.85.65,1.28.94.47.23.94.46,1.57.57,0,0,.02,0,.03,0,.03-.01.05-.04.04-.07-.2-.6-.59-1.06-1.07-1.4-.24-.17-.51-.29-.79-.38-.27-.12-.57-.15-.87-.17-.3-.02-.58-.05-.84-.15-.26-.1-.5-.32-.79-.42-.19-.05-.38-.07-.58-.07.63-.43,1.38-.72,2.16-.79,1.04-.09,2.1.2,2.96.79.85.59,1.48,1.46,1.96,2.36.91,1.76,1.34,3.88.74,5.65Z"/>
      <path class="cls-1" d="M154.09,157.11c-.3-.5-.79-.95-1.4-1.12-.25-.08-.5-.1-.76-.09.08-.28.08-.55,0-.8-.08-.19-.26-.37-.29-.57-.05-.2.02-.4.11-.6.12-.22.2-.44.27-.65,4.46-4.36,8.4-9.26,11.68-14.6.09.14.17.29.19.45.03.21-.05.46-.04.68.05.28.19.52.42.72-.14.09-.27.18-.39.3-.46.41-.73.97-.88,1.52-.32,1.1-.03,2.34.71,3.26.37.46.84.83,1.38,1.1.53.27,1.16.46,1.82.39.09,0,.19-.04.27-.11.73-.56,1.2-1.4,1.29-2.26.05-.43.03-.85-.04-1.26-.07-.4-.15-.8-.3-1.17-.19-.51-.48-1-.9-1.41-.42-.4-1.01-.71-1.64-.72-.26,0-.51.03-.76.11,0-.3-.06-.55-.21-.78-.13-.16-.35-.29-.43-.48-.1-.18-.09-.39-.05-.6.06-.23.08-.45.09-.66,3.18-5.33,5.72-11.08,7.52-17.15.12.11.23.23.29.37.08.19.07.45.14.66.12.25.32.46.59.59-.11.12-.22.25-.3.39-.34.52-.46,1.13-.46,1.7-.02,1.14.58,2.27,1.53,2.96.47.35,1.03.58,1.62.71.58.13,1.24.14,1.86-.09.09-.03.17-.09.23-.17.56-.73.8-1.66.66-2.51-.06-.43-.19-.83-.36-1.21-.17-.37-.35-.73-.59-1.05-.32-.44-.72-.84-1.23-1.13-.51-.28-1.16-.43-1.77-.27-.25.06-.49.17-.7.3-.07-.29-.2-.51-.4-.7-.16-.12-.41-.19-.54-.35-.14-.15-.19-.36-.2-.57,0-.23-.03-.43-.07-.63,1.67-5.92,2.63-12.14,2.8-18.55.15.08.29.16.39.29.13.16.18.42.31.6.18.21.43.36.73.41-.08.14-.14.29-.19.45-.2.59-.15,1.21,0,1.76.27,1.11,1.15,2.04,2.25,2.47.55.21,1.14.3,1.74.26.6-.03,1.23-.18,1.77-.57.08-.05.14-.13.18-.23.35-.85.35-1.81-.01-2.6-.17-.4-.4-.75-.66-1.07-.26-.32-.53-.61-.84-.86-.42-.34-.91-.63-1.48-.77-.57-.14-1.23-.11-1.78.2-.23.12-.43.29-.6.47-.15-.26-.33-.44-.57-.57-.19-.08-.45-.08-.61-.2-.18-.11-.27-.3-.35-.5-.06-.22-.15-.41-.24-.59,0-.32.02-.63.02-.95,0-6.09-.74-12-2.1-17.68.16.03.31.08.44.18.17.13.29.36.45.5.23.16.51.23.81.21-.04.16-.06.32-.07.48-.04.62.17,1.21.45,1.7.55,1,1.64,1.67,2.81,1.8.58.06,1.18,0,1.75-.2.57-.18,1.14-.49,1.57-1.01.06-.07.1-.16.11-.26.12-.91-.13-1.84-.69-2.51-.27-.34-.58-.62-.91-.86-.33-.24-.67-.46-1.04-.62-.5-.22-1.04-.37-1.63-.36-.58.01-1.22.21-1.67.65-.19.18-.34.39-.46.61-.21-.21-.43-.34-.7-.4-.2-.02-.45.04-.64-.03-.2-.06-.34-.22-.46-.39-.11-.18-.23-.34-.35-.48-1.57-6.16-3.88-12.03-6.86-17.49.17,0,.32,0,.47.06.19.08.37.27.57.37.27.09.55.09.84,0,0,.16.02.33.06.49.13.61.47,1.12.88,1.52.79.82,2.01,1.19,3.18,1.01.58-.09,1.14-.31,1.64-.64.5-.32.98-.77,1.25-1.38.04-.08.06-.19.04-.28-.12-.91-.61-1.74-1.31-2.24-.35-.26-.73-.45-1.11-.6-.38-.14-.77-.27-1.16-.33-.54-.09-1.1-.09-1.67.07-.56.16-1.12.52-1.45,1.06-.14.22-.23.46-.29.71-.25-.15-.51-.22-.78-.21-.2.03-.43.15-.63.14-.2,0-.38-.12-.55-.26-.17-.17-.35-.3-.53-.41-3.09-5.48-6.84-10.54-11.14-15.07.17-.06.34-.1.52-.08.21.03.43.17.65.21.28.02.56-.05.81-.22.05.16.11.31.19.45.28.56.75.96,1.24,1.24.98.59,2.25.63,3.33.15.54-.24,1.02-.6,1.42-1.05.4-.44.74-1,.85-1.66.02-.09,0-.19-.03-.29-.36-.85-1.04-1.52-1.85-1.83-.4-.16-.82-.25-1.22-.29-.41-.04-.81-.06-1.2-.02-.54.05-1.09.2-1.6.5-.5.3-.95.79-1.12,1.4-.08.25-.1.5-.09.76-.29-.08-.55-.08-.8,0-.19.08-.37.26-.57.29-.2.05-.4-.02-.6-.11-.22-.12-.44-.2-.65-.27-4.36-4.46-9.26-8.4-14.6-11.68.14-.09.29-.17.45-.19.21-.03.46.05.68.04.28-.05.52-.19.72-.42.09.14.18.27.3.39.41.46.97.73,1.52.88,1.1.32,2.34.03,3.26-.71.46-.37.83-.84,1.1-1.38.27-.53.46-1.16.39-1.82,0-.09-.04-.19-.11-.27-.56-.73-1.4-1.2-2.26-1.29-.43-.05-.85-.03-1.26.04-.4.07-.8.15-1.17.3-.51.19-1,.48-1.41.9-.4.42-.71,1.01-.72,1.64,0,.26.03.51.11.76-.3,0-.55.06-.78.21-.16.13-.29.35-.48.43-.18.1-.39.09-.6.05-.23-.06-.45-.08-.66-.09-5.33-3.18-11.08-5.72-17.15-7.52.11-.12.23-.23.37-.29.19-.08.45-.07.66-.14.25-.12.46-.32.59-.59.12.11.25.22.39.3.52.34,1.13.46,1.7.46,1.14.02,2.27-.58,2.96-1.53.35-.47.58-1.03.71-1.62.13-.58.14-1.24-.09-1.86-.03-.09-.09-.17-.17-.23-.73-.56-1.66-.8-2.51-.66-.43.06-.83.2-1.21.36-.37.17-.73.35-1.05.59-.44.32-.84.72-1.13,1.23-.28.51-.43,1.16-.27,1.77.06.25.17.49.3.7-.29.07-.51.2-.7.4-.12.16-.19.41-.35.54-.15.14-.36.19-.57.2-.23,0-.43.03-.63.07-5.92-1.67-12.14-2.63-18.55-2.8.08-.15.16-.29.29-.39.16-.13.42-.18.6-.31.21-.18.36-.43.41-.73.14.08.29.14.45.19.59.2,1.21.15,1.76,0,1.11-.27,2.04-1.15,2.47-2.25.21-.55.3-1.14.26-1.74-.03-.6-.18-1.23-.57-1.77-.05-.08-.13-.14-.23-.18-.85-.35-1.81-.35-2.6.01-.4.17-.75.4-1.07.66-.32.26-.61.53-.86.84-.35.42-.63.91-.77,1.48-.14.57-.11,1.23.2,1.78.12.23.29.43.47.6-.26.15-.44.33-.57.57-.08.19-.08.45-.2.61-.11.18-.3.27-.5.35-.22.06-.41.15-.59.24-.32,0-.63-.02-.96-.02-6.09,0-12,.74-17.68,2.1.03-.16.08-.31.18-.44.13-.17.36-.29.5-.45.16-.23.23-.51.21-.81.16.04.32.06.48.07.62.04,1.21-.17,1.7-.45,1-.55,1.67-1.64,1.8-2.81.06-.58,0-1.18-.2-1.75-.18-.57-.49-1.14-1.01-1.57-.07-.06-.16-.1-.26-.11-.91-.12-1.84.14-2.51.68-.34.27-.62.58-.86.91-.24.33-.46.67-.62,1.04-.22.5-.37,1.04-.36,1.63.01.58.21,1.22.65,1.67.17.19.39.34.61.46-.21.21-.34.43-.4.7-.02.2.04.45-.03.64-.06.2-.22.34-.39.46-.18.11-.34.23-.48.35-6.17,1.57-12.03,3.89-17.49,6.86,0-.17,0-.32.06-.47.08-.19.27-.37.37-.57.09-.27.09-.55,0-.84.16,0,.33-.02.49-.06.61-.13,1.12-.47,1.52-.88.82-.79,1.19-2.01,1.01-3.18-.09-.58-.31-1.14-.64-1.64-.32-.5-.77-.98-1.38-1.25-.08-.04-.19-.06-.28-.04-.91.12-1.74.61-2.24,1.31-.26.35-.45.73-.6,1.11-.14.38-.27.77-.33,1.16-.09.54-.09,1.1.07,1.67.16.56.52,1.12,1.06,1.45.22.14.46.23.71.29-.15.26-.22.51-.21.78.03.2.15.43.14.63,0,.2-.12.38-.26.55-.17.17-.3.35-.41.53-5.48,3.09-10.54,6.84-15.07,11.14-.06-.17-.1-.34-.08-.52.03-.21.17-.43.21-.65.02-.28-.05-.56-.22-.81.16-.05.31-.11.45-.19.56-.28.96-.75,1.25-1.24.59-.98.63-2.25.15-3.33-.24-.54-.6-1.02-1.05-1.42-.44-.4-1-.74-1.66-.85-.09-.01-.19,0-.29.03-.85.36-1.52,1.04-1.83,1.85-.16.4-.25.82-.29,1.22-.04.41-.06.81-.02,1.2.05.54.2,1.09.5,1.59.3.5.79.95,1.4,1.12.25.08.5.1.76.09-.08.28-.08.55,0,.8.08.19.26.37.29.57.05.2-.02.4-.11.6-.12.22-.2.44-.27.65-4.46,4.36-8.4,9.26-11.68,14.6-.09-.14-.17-.29-.19-.45-.03-.21.05-.46.04-.68-.05-.28-.19-.52-.42-.72.14-.09.27-.18.39-.3.46-.41.73-.97.88-1.52.32-1.1.03-2.34-.71-3.26-.37-.46-.84-.83-1.38-1.1-.53-.27-1.16-.46-1.82-.39-.09,0-.19.04-.27.11-.73.56-1.2,1.4-1.29,2.26-.05.43-.03.85.04,1.26.07.4.15.8.3,1.17.19.51.48,1,.9,1.41.42.4,1.01.71,1.64.72.26,0,.51-.03.76-.11,0,.3.06.55.21.78.13.16.35.29.43.48.1.18.09.39.05.6-.06.23-.08.45-.09.66-3.18,5.33-5.72,11.08-7.52,17.15-.12-.11-.23-.23-.29-.37-.08-.19-.07-.45-.14-.66-.12-.25-.32-.46-.59-.59.11-.12.22-.25.3-.39.34-.52.46-1.13.46-1.7.02-1.14-.58-2.27-1.53-2.96-.47-.35-1.03-.58-1.62-.71-.58-.13-1.24-.14-1.86.09-.09.03-.17.09-.23.17-.56.73-.8,1.66-.66,2.51.06.43.19.83.36,1.21.17.37.35.73.59,1.05.32.44.72.84,1.23,1.13.51.28,1.16.43,1.77.27.25-.06.49-.17.7-.3.07.29.2.51.4.7.16.12.41.19.54.35.14.15.19.36.21.57,0,.23.03.43.07.63-1.67,5.92-2.63,12.14-2.8,18.55-.15-.08-.29-.16-.39-.29-.13-.16-.18-.42-.31-.6-.18-.21-.43-.36-.73-.41.08-.14.14-.29.19-.45.2-.59.15-1.21,0-1.76-.27-1.11-1.15-2.04-2.25-2.47-.55-.21-1.14-.3-1.74-.26-.6.03-1.23.18-1.77.57-.08.05-.14.13-.18.23-.35.85-.35,1.81.01,2.6.17.4.4.75.66,1.07.26.32.53.61.84.86.42.35.91.63,1.48.77.57.14,1.23.11,1.78-.2.23-.12.43-.29.6-.47.15.26.33.44.57.57.19.08.45.08.61.2.18.11.27.3.35.5.06.22.15.41.24.59,0,.32-.02.63-.02.96,0,6.09.74,12,2.1,17.68-.16-.03-.31-.08-.44-.18-.17-.13-.29-.36-.45-.5-.23-.16-.51-.23-.81-.21.04-.16.06-.32.07-.48.04-.62-.17-1.21-.45-1.7-.55-1-1.64-1.67-2.81-1.8-.58-.06-1.18,0-1.75.2-.57.18-1.14.49-1.57,1.01-.06.07-.1.16-.11.26-.12.91.14,1.84.69,2.51.27.34.58.62.91.86.33.24.67.46,1.04.62.5.22,1.04.37,1.63.36.58-.01,1.22-.21,1.67-.65.19-.17.34-.39.46-.61.21.21.43.34.7.4.2.02.45-.04.64.03.2.06.34.22.46.39.11.18.23.34.35.48,1.57,6.16,3.88,12.03,6.86,17.49-.17,0-.32,0-.47-.06-.19-.08-.37-.27-.57-.37-.27-.09-.55-.09-.84,0,0-.16-.02-.33-.06-.49-.13-.61-.47-1.12-.88-1.52-.79-.82-2.01-1.19-3.18-1.01-.58.09-1.14.31-1.64.64-.5.32-.98.77-1.25,1.38-.04.08-.06.19-.04.28.12.91.61,1.74,1.31,2.24.35.26.73.45,1.11.6.38.14.77.27,1.16.33.54.09,1.1.09,1.67-.07.56-.16,1.12-.52,1.45-1.06.14-.22.23-.46.29-.71.25.15.51.22.78.21.2-.03.43-.15.63-.14.2,0,.38.12.55.26.17.17.35.3.53.41,3.09,5.48,6.84,10.54,11.14,15.07-.17.06-.34.1-.52.08-.21-.03-.43-.17-.65-.21-.28-.02-.56.05-.81.22-.05-.16-.11-.31-.19-.45-.28-.56-.75-.96-1.24-1.24-.98-.59-2.25-.63-3.33-.15-.54.24-1.02.6-1.42,1.05-.4.44-.74,1-.85,1.66-.01.09,0,.19.03.29.36.85,1.04,1.52,1.85,1.83.4.16.82.25,1.22.29.41.04.81.06,1.2.02.54-.05,1.09-.2,1.6-.5.5-.3.95-.79,1.12-1.4.08-.25.1-.5.09-.76.29.08.55.08.8,0,.19-.08.37-.26.57-.29.2-.05.4.02.6.11.23.12.44.2.65.27,4.36,4.46,9.26,8.4,14.6,11.68-.14.09-.29.17-.45.19-.21.03-.46-.05-.68-.04-.28.05-.52.19-.72.42-.09-.14-.18-.27-.3-.39-.41-.46-.97-.73-1.52-.88-1.1-.32-2.34-.03-3.26.71-.46.37-.83.84-1.1,1.38-.27.53-.46,1.16-.39,1.82,0,.09.04.19.11.27.56.73,1.4,1.2,2.26,1.29.43.05.85.03,1.26-.04.4-.07.8-.15,1.17-.3.51-.19,1-.48,1.41-.9.4-.42.71-1.01.72-1.64,0-.26-.03-.51-.11-.76.3,0,.55-.06.78-.21.16-.13.29-.35.48-.43.18-.1.39-.09.6-.05.23.06.45.08.66.09,5.33,3.18,11.08,5.72,17.15,7.52-.11.12-.23.23-.37.29-.19.08-.45.07-.66.14-.25.12-.46.32-.59.59-.12-.11-.25-.22-.39-.3-.52-.34-1.13-.46-1.7-.46-1.14-.02-2.27.58-2.96,1.53-.35.47-.58,1.03-.71,1.62-.13.58-.14,1.24.09,1.86.03.09.09.17.17.23.73.56,1.66.8,2.51.66.43-.06.83-.2,1.21-.36.37-.17.73-.35,1.05-.59.44-.32.84-.72,1.13-1.23.28-.51.43-1.16.27-1.77-.06-.25-.17-.49-.3-.7.29-.07.51-.2.7-.4.12-.16.19-.41.35-.54.15-.14.36-.19.57-.2.23,0,.43-.03.63-.07,5.92,1.67,12.14,2.63,18.55,2.8-.08.15-.16.29-.29.39-.16.13-.42.18-.6.31-.21.18-.36.43-.41.73-.14-.08-.29-.14-.45-.19-.59-.2-1.21-.15-1.76,0-1.11.27-2.04,1.15-2.47,2.25-.21.55-.3,1.14-.26,1.74.03.6.18,1.23.57,1.77.05.08.13.14.23.18.85.35,1.81.35,2.6-.01.4-.17.75-.4,1.07-.66.32-.26.61-.53.86-.84.35-.42.63-.91.77-1.48.14-.57.11-1.23-.2-1.78-.12-.23-.29-.43-.47-.6.26-.15.44-.33.57-.57.08-.19.08-.45.2-.61.11-.18.3-.27.5-.35.22-.06.41-.15.59-.24.32,0,.63.02.96.02,6.09,0,12-.74,17.68-2.1-.03.16-.08.31-.18.44-.13.17-.36.29-.5.45-.16.23-.23.51-.21.81-.16-.04-.32-.06-.48-.07-.62-.04-1.21.17-1.7.45-1,.55-1.67,1.64-1.8,2.81-.06.58,0,1.18.2,1.75.18.57.49,1.14,1.01,1.57.07.06.16.1.26.11.91.12,1.84-.14,2.51-.68.34-.27.62-.58.86-.91.24-.33.46-.67.62-1.04.22-.5.37-1.04.36-1.63-.01-.58-.21-1.22-.65-1.67-.17-.19-.39-.34-.61-.46.21-.21.34-.43.4-.7.02-.2-.04-.45.03-.64.06-.2.22-.34.39-.46.18-.11.34-.23.48-.35,6.16-1.57,12.03-3.88,17.49-6.86,0,.17,0,.32-.06.47-.08.19-.27.37-.37.57-.09.27-.09.55,0,.84-.16,0-.33.02-.49.06-.61.13-1.12.47-1.52.88-.82.79-1.19,2.01-1.01,3.18.09.58.31,1.14.64,1.64.32.5.77.98,1.38,1.25.08.04.19.06.28.04.91-.12,1.74-.61,2.24-1.31.26-.35.45-.73.6-1.11.14-.38.27-.77.33-1.16.09-.54.09-1.1-.07-1.67-.16-.56-.52-1.12-1.06-1.45-.22-.14-.46-.23-.71-.29.15-.25.22-.51.21-.78-.03-.2-.15-.43-.14-.63,0-.2.12-.38.26-.55.17-.17.3-.35.41-.53,5.48-3.09,10.54-6.84,15.07-11.14.06.17.1.34.08.52-.03.21-.17.43-.21.65-.02.28.05.56.22.81-.16.05-.31.11-.45.19-.56.28-.96.75-1.24,1.24-.59.98-.63,2.25-.15,3.33.24.54.6,1.02,1.05,1.42.44.4,1,.74,1.66.85.09.01.19,0,.29-.03.85-.36,1.52-1.04,1.83-1.85.16-.4.25-.82.29-1.22.04-.41.06-.81.02-1.2-.05-.54-.2-1.09-.5-1.59ZM164.47,141.35c.23-.1.47-.17.72-.22.09.27.23.47.44.62.16.1.41.14.54.27.15.13.2.32.22.52.02.42.11.75.22,1.07.15.31.32.6.66.96,0,0,0,0,.01.01.03.02.07.02.09-.01.3-.4.35-.88.25-1.3-.14-.4-.38-.78-.76-1.02-.18-.12-.34-.25-.43-.43-.09-.18-.09-.43-.18-.63-.03-.05-.07-.09-.11-.14.28.02.57.07.85.2.47.19.86.6,1.05,1.09.27.74.07,1.56-.26,2.2-.31.59-.66,1.11-1.12,1.49-.8.03-1.7-.36-2.4-.95-.38-.31-.73-.69-.93-1.15-.2-.46-.19-1.01,0-1.47.09-.22.23-.42.39-.59.06.12.15.24.17.34.04.14-.02.28-.09.44-.16.31-.16.64-.07.93.13.28.36.53.77.63.04,0,.08-.01.09-.05.17-.39.18-.65.16-.9-.08-.23-.17-.45-.4-.68-.1-.12-.17-.25-.13-.38.03-.13.2-.25.27-.36.07-.16.06-.31-.01-.5ZM172.86,124.42c-.08.34,0,.66.17.92.2.24.49.41.91.41.04,0,.07-.03.07-.07.06-.42,0-.68-.08-.91-.14-.2-.28-.39-.56-.55-.12-.09-.23-.2-.22-.34,0-.14.13-.3.17-.42.03-.17-.02-.31-.14-.48.2-.16.41-.29.63-.4.16.23.35.39.58.48.18.05.43.03.6.12.17.08.27.26.35.45.13.4.3.69.49.97.23.26.46.49.89.76,0,0,0,0,.01,0,.03.01.07,0,.08-.04.19-.46.11-.94-.1-1.32-.24-.35-.57-.65-1-.78-.21-.07-.39-.16-.52-.31-.13-.15-.2-.39-.34-.56-.04-.04-.09-.07-.14-.11.28-.05.57-.08.87-.03.5.06.99.35,1.29.79.45.64.47,1.48.32,2.19-.15.65-.35,1.24-.7,1.73-.76.24-1.73.09-2.57-.3-.45-.2-.89-.47-1.19-.87-.31-.39-.45-.92-.39-1.42.03-.24.11-.46.23-.67.09.1.2.19.25.29.07.13.06.28.03.45ZM176.44,103.82c.11.07.25.13.32.21.1.11.13.25.14.43.01.35.18.64.4.84.25.18.58.27.98.16.04-.01.06-.05.06-.08-.05-.42-.17-.65-.31-.86-.19-.16-.37-.3-.69-.39-.14-.05-.27-.13-.3-.27-.04-.13.05-.32.06-.45-.02-.17-.1-.3-.26-.42.15-.21.32-.39.51-.55.22.18.44.29.69.31.19,0,.42-.09.61-.04.19.04.33.18.45.34.23.35.47.59.72.82.29.19.57.36,1.06.5,0,0,.01,0,.01,0,.03,0,.07-.02.07-.06.06-.5-.14-.93-.43-1.25-.33-.28-.72-.48-1.17-.5-.22-.02-.42-.05-.59-.16-.17-.11-.3-.33-.47-.45-.05-.03-.11-.04-.16-.07.25-.12.53-.22.83-.25.5-.07,1.05.09,1.45.43.6.51.84,1.31.87,2.03.02.66-.02,1.29-.23,1.85-.68.43-1.65.53-2.56.38-.48-.08-.98-.23-1.38-.53-.4-.3-.67-.78-.74-1.27-.03-.24-.01-.48.04-.71ZM175.4,83.76c.13.08.19.21.25.38.1.34.34.57.61.71.29.11.63.11.99-.1.03-.02.05-.06.03-.09-.15-.4-.33-.59-.52-.75-.22-.11-.44-.19-.77-.19-.15-.02-.3-.06-.36-.18-.07-.12-.04-.32-.06-.45-.06-.16-.17-.26-.36-.34.09-.24.21-.46.35-.66.26.12.5.16.75.12.18-.05.39-.19.58-.19.19-.01.37.09.53.21.31.28.6.45.91.6.33.11.65.2,1.15.21,0,0,.01,0,.02,0,.03,0,.06-.04.05-.07-.07-.49-.38-.87-.74-1.09-.39-.18-.82-.28-1.26-.18-.22.04-.42.06-.61,0-.19-.06-.37-.24-.57-.32-.05-.01-.11-.01-.17-.02.21-.18.45-.35.73-.46.47-.19,1.03-.19,1.51.03.71.33,1.15,1.05,1.37,1.74.19.64.31,1.25.26,1.85-.54.59-1.46.94-2.37,1.02-.49.05-1,.03-1.47-.16-.47-.19-.85-.58-1.05-1.04-.09-.22-.13-.46-.14-.69.13.04.27.06.36.12ZM168.55,62.85c.28.05.52.03.75-.07.16-.09.32-.29.51-.34.18-.06.38,0,.56.07.37.19.7.28,1.03.35.35.02.68.02,1.17-.09,0,0,.01,0,.01,0,.03-.01.05-.05.03-.08-.2-.46-.59-.74-1-.86-.42-.08-.86-.06-1.26.15-.2.1-.39.17-.59.15-.2-.01-.42-.14-.63-.16-.06,0-.11.01-.17.02.16-.23.34-.46.59-.64.4-.31.95-.45,1.47-.36.77.14,1.38.71,1.77,1.32.35.56.63,1.13.73,1.72-.37.71-1.16,1.29-2.03,1.6-.46.18-.96.29-1.46.23-.5-.06-.97-.34-1.28-.73-.15-.19-.25-.41-.31-.63.14,0,.28,0,.38.02.14.04.24.16.33.3.19.3.47.46.77.53.31.03.64-.05.93-.35.02-.03.03-.07,0-.1-.25-.34-.47-.48-.7-.59-.24-.05-.47-.07-.79,0-.15.03-.3.02-.4-.08-.1-.09-.12-.3-.18-.42-.1-.14-.24-.21-.44-.24.03-.25.09-.5.16-.73ZM159.5,44.31c-.43.03-.85.16-1.18.47-.17.14-.33.26-.53.3-.19.04-.44-.02-.65.01-.06.02-.11.04-.16.07.09-.27.22-.53.41-.77.31-.4.8-.68,1.33-.73.78-.07,1.52.33,2.05.82.48.45.9.93,1.15,1.47-.17.78-.79,1.54-1.54,2.07-.4.29-.85.53-1.35.6-.5.07-1.02-.07-1.42-.38-.19-.15-.35-.33-.47-.53.13-.03.27-.08.38-.08.15,0,.27.09.4.2.26.24.58.32.88.31.3-.05.6-.22.81-.58.02-.03,0-.08-.02-.1-.33-.27-.58-.35-.82-.39-.24.02-.48.05-.76.21-.14.06-.29.1-.4.03-.12-.06-.19-.26-.28-.36-.13-.11-.28-.14-.48-.12-.04-.25-.05-.5-.03-.75.28-.02.51-.11.71-.26.13-.13.24-.36.4-.46.16-.11.36-.11.56-.08.41.08.75.09,1.09.07.34-.07.66-.15,1.1-.39,0,0,0,0,.01,0,.03-.02.03-.06.01-.09-.31-.39-.76-.56-1.19-.58ZM141.25,31.17c.19-.47.6-.86,1.09-1.05.74-.27,1.56-.07,2.2.26.58.31,1.11.66,1.49,1.12.03.8-.36,1.7-.95,2.4-.31.38-.69.73-1.15.93-.46.2-1.01.19-1.47,0-.22-.09-.42-.23-.59-.39.12-.06.24-.15.34-.17.14-.04.28.02.44.09.31.16.64.16.93.07.28-.13.53-.36.63-.77,0-.04-.01-.08-.05-.09-.39-.17-.65-.18-.9-.16-.23.08-.45.17-.68.4-.12.1-.25.17-.38.13-.13-.03-.25-.2-.36-.28-.16-.07-.31-.06-.5.01-.1-.24-.17-.47-.22-.72.27-.09.47-.24.62-.44.09-.16.14-.41.27-.54.13-.15.32-.2.52-.22.42-.02.75-.11,1.07-.22.31-.15.6-.32.96-.66,0,0,0,0,.01-.01.02-.03.02-.07-.01-.09-.4-.3-.88-.35-1.3-.25-.4.14-.78.38-1.02.76-.12.18-.25.34-.43.43-.18.09-.43.09-.63.18-.05.03-.09.07-.14.11.02-.28.07-.57.2-.85ZM122.24,22.57c.06-.5.35-.99.79-1.29.64-.45,1.48-.47,2.19-.32.65.15,1.24.35,1.73.7.24.76.09,1.73-.3,2.57-.2.45-.47.89-.87,1.19-.39.31-.92.45-1.42.39-.24-.03-.46-.11-.67-.23.1-.09.19-.2.29-.25.13-.07.28-.06.45-.03.34.08.66,0,.92-.17.24-.2.41-.49.41-.91,0-.04-.03-.07-.07-.07-.42-.06-.67-.01-.91.08-.2.14-.39.28-.55.56-.09.12-.2.23-.34.22-.14,0-.3-.13-.42-.17-.17-.03-.31.02-.48.14-.16-.2-.29-.41-.4-.63.23-.16.39-.35.48-.58.05-.18.03-.43.12-.6.08-.17.26-.27.45-.35.4-.13.69-.3.97-.49.26-.23.5-.46.76-.89,0,0,0,0,0-.01.01-.03,0-.07-.04-.08-.46-.19-.94-.11-1.32.1-.35.24-.65.57-.78,1-.07.21-.16.39-.31.52-.15.13-.39.2-.56.34-.04.04-.07.09-.11.14-.05-.28-.08-.57-.03-.87ZM101.65,19.18c-.07-.5.09-1.05.43-1.45.51-.6,1.31-.84,2.03-.87.66-.02,1.29.02,1.85.23.43.68.53,1.65.38,2.56-.08.48-.23.98-.53,1.38-.3.4-.78.67-1.27.74-.24.03-.48.01-.71-.04.07-.11.13-.25.21-.32.11-.1.25-.13.43-.14.35-.01.64-.18.85-.4.18-.25.27-.58.16-.98-.01-.03-.05-.06-.08-.05-.42.05-.65.16-.86.31-.16.19-.3.37-.39.69-.05.14-.13.27-.27.3-.13.04-.32-.05-.45-.06-.17.02-.3.1-.42.26-.21-.15-.39-.32-.55-.51.18-.22.29-.44.31-.69,0-.19-.09-.42-.04-.61.04-.19.18-.33.34-.45.35-.23.59-.47.82-.72.19-.29.36-.57.5-1.06,0,0,0-.01,0-.01,0-.03-.02-.07-.06-.07-.5-.06-.93.14-1.25.43-.28.33-.49.72-.5,1.17-.02.22-.05.42-.16.59-.11.17-.33.3-.45.47-.03.05-.04.11-.07.16-.12-.25-.22-.53-.25-.83ZM81.68,20.63c.04.22.06.42,0,.61-.06.19-.24.37-.32.57-.01.05-.01.11-.02.17-.18-.21-.35-.45-.46-.73-.19-.47-.19-1.03.03-1.51.33-.71,1.05-1.15,1.74-1.37.64-.19,1.25-.31,1.85-.26.59.54.94,1.46,1.02,2.37.05.49.03,1-.16,1.47-.19.47-.58.85-1.04,1.05-.22.09-.46.13-.69.14.04-.13.06-.27.12-.36.08-.13.21-.19.38-.25.34-.1.57-.34.71-.61.11-.29.11-.63-.1-.99-.02-.03-.06-.05-.1-.03-.4.15-.59.33-.75.52-.11.22-.19.44-.19.76-.02.15-.06.3-.18.36-.12.07-.32.04-.45.06-.16.06-.26.17-.34.36-.24-.09-.46-.21-.66-.35.12-.26.16-.5.12-.75-.05-.18-.19-.39-.19-.58-.01-.19.09-.37.21-.53.28-.31.45-.6.6-.91.11-.33.2-.65.21-1.15,0,0,0-.01,0-.02,0-.03-.04-.06-.07-.05-.5.07-.87.38-1.09.74-.18.39-.28.82-.18,1.26ZM62.45,28.36c-.06-.18,0-.38.07-.56.19-.37.28-.7.35-1.03.02-.35.02-.68-.09-1.17,0,0,0-.01,0-.01-.01-.03-.05-.05-.08-.03-.46.2-.74.59-.86,1-.08.42-.06.86.15,1.26.1.2.17.39.15.59-.01.2-.14.42-.16.63,0,.06.01.11.02.17-.23-.16-.46-.34-.64-.59-.31-.4-.45-.95-.36-1.47.14-.77.71-1.38,1.32-1.77.56-.35,1.13-.63,1.72-.73.71.37,1.29,1.16,1.6,2.03.18.46.29.96.23,1.46-.06.5-.34.97-.73,1.28-.19.15-.41.25-.63.31,0-.14,0-.28.02-.38.04-.14.16-.24.3-.34.3-.19.46-.47.53-.77.03-.31-.05-.64-.35-.93-.03-.02-.07-.03-.1,0-.34.25-.48.47-.59.7-.05.24-.07.47,0,.79.03.15.02.3-.08.4-.09.1-.3.12-.42.18-.14.1-.21.24-.24.44-.25-.03-.5-.09-.73-.16.05-.28.03-.52-.07-.75-.09-.16-.29-.32-.34-.51ZM46.11,41.36c-.02-.28-.11-.51-.27-.71-.13-.13-.36-.24-.46-.4-.11-.16-.11-.36-.08-.56.08-.41.09-.75.07-1.09-.07-.34-.15-.66-.39-1.1,0,0,0,0,0-.01-.02-.03-.06-.03-.09-.01-.39.31-.56.76-.58,1.19.03.43.16.85.47,1.18.14.17.26.33.3.53.04.19-.02.44.01.65.02.06.04.11.07.16-.27-.09-.53-.22-.77-.41-.4-.31-.68-.8-.73-1.33-.07-.78.33-1.52.82-2.05.45-.48.93-.9,1.47-1.15.78.17,1.54.79,2.07,1.54.29.4.53.85.6,1.35.07.5-.07,1.02-.38,1.42-.15.19-.33.35-.53.47-.03-.13-.08-.27-.08-.38,0-.15.09-.27.2-.4.24-.26.32-.58.31-.88-.05-.3-.22-.6-.58-.81-.03-.02-.08,0-.1.02-.27.33-.35.58-.39.82.02.24.05.47.21.76.06.14.1.29.03.4-.06.12-.26.19-.36.28-.11.13-.14.28-.12.48-.25.04-.5.05-.75.03ZM33.69,56.81c-.24.1-.47.17-.72.22-.09-.27-.23-.47-.44-.62-.16-.09-.41-.14-.54-.27-.15-.13-.2-.32-.22-.52-.02-.42-.11-.75-.22-1.07-.15-.31-.32-.6-.66-.96,0,0,0,0-.01-.01-.03-.02-.07-.02-.09.01-.3.4-.35.88-.25,1.3.14.4.38.78.76,1.02.18.12.34.25.43.43.09.18.09.43.18.63.03.05.07.09.11.14-.28-.02-.57-.07-.85-.2-.47-.19-.86-.6-1.05-1.09-.27-.74-.07-1.56.26-2.2.31-.59.66-1.11,1.12-1.49.8-.03,1.7.36,2.4.95.38.31.73.69.93,1.15.2.46.19,1.01,0,1.47-.09.22-.23.42-.39.59-.06-.12-.15-.24-.17-.34-.04-.14.02-.28.09-.44.16-.31.16-.64.07-.93-.13-.28-.36-.53-.77-.63-.04,0-.08.01-.09.05-.17.39-.18.65-.16.9.08.23.17.45.4.68.1.12.17.25.13.38-.03.13-.2.25-.27.36-.07.16-.06.31.01.5ZM25.3,73.74c.08-.34,0-.66-.17-.92-.2-.24-.49-.41-.91-.41-.04,0-.07.03-.07.07-.06.42,0,.68.08.91.14.2.28.39.56.55.12.09.23.2.22.34,0,.14-.13.3-.17.42-.03.17.02.31.14.48-.2.16-.41.29-.63.4-.16-.23-.35-.39-.58-.48-.18-.05-.43-.03-.6-.12-.17-.08-.27-.26-.35-.45-.13-.4-.3-.69-.49-.97-.23-.26-.46-.49-.89-.76,0,0,0,0-.01,0-.03-.01-.07,0-.08.04-.19.46-.11.94.1,1.32.24.35.57.65,1,.78.21.07.39.16.52.31.13.15.2.39.34.56.04.04.09.07.14.11-.28.05-.57.08-.87.03-.5-.06-.99-.35-1.29-.79-.45-.64-.47-1.48-.32-2.19.15-.65.35-1.24.7-1.73.76-.24,1.73-.09,2.57.3.45.2.89.47,1.19.87.31.39.45.92.39,1.42-.03.24-.11.46-.23.67-.09-.1-.2-.19-.25-.29-.07-.13-.06-.28-.03-.45ZM21.72,94.34c-.11-.07-.25-.13-.32-.21-.1-.11-.13-.25-.14-.43-.01-.35-.18-.64-.4-.84-.25-.18-.58-.27-.98-.16-.04.01-.06.05-.05.08.05.42.16.65.31.86.19.16.37.3.69.39.14.05.27.13.3.27.04.13-.05.32-.06.45.02.17.1.3.26.42-.15.21-.32.39-.51.55-.22-.18-.44-.29-.69-.31-.19,0-.42.09-.61.04-.19-.04-.33-.18-.45-.34-.23-.35-.47-.59-.72-.82-.29-.19-.57-.36-1.06-.5,0,0-.01,0-.01,0-.03,0-.07.02-.07.06-.06.5.14.93.43,1.25.33.28.72.48,1.17.5.22.02.42.05.59.16.17.11.3.33.47.45.05.03.11.04.16.07-.25.12-.53.22-.83.25-.5.07-1.05-.09-1.45-.43-.6-.51-.84-1.31-.87-2.03-.02-.66.02-1.29.23-1.85.68-.43,1.65-.53,2.56-.38.48.08.98.23,1.38.53.4.3.67.78.74,1.27.03.24.01.48-.04.71ZM22.76,114.4c-.13-.08-.19-.21-.25-.38-.1-.34-.34-.57-.61-.71-.29-.11-.63-.11-.99.1-.03.02-.05.06-.03.09.15.4.33.59.52.75.22.11.44.19.76.2.15.01.3.06.36.18.07.12.04.32.06.45.06.16.17.26.36.34-.09.24-.21.46-.35.66-.26-.12-.5-.16-.75-.12-.18.05-.39.19-.58.19-.19.01-.37-.09-.53-.21-.31-.28-.6-.45-.91-.6-.33-.11-.65-.2-1.15-.21,0,0-.01,0-.02,0-.03,0-.06.04-.05.07.07.49.38.87.74,1.09.39.18.82.28,1.26.18.22-.04.42-.06.61,0,.19.06.37.24.57.32.05.01.11.01.17.02-.21.18-.45.35-.73.46-.47.19-1.03.19-1.51-.03-.71-.33-1.15-1.05-1.37-1.74-.19-.64-.31-1.25-.26-1.85.54-.59,1.46-.94,2.37-1.02.49-.05,1-.03,1.47.16.47.19.85.58,1.05,1.04.09.22.13.46.14.69-.13-.04-.27-.06-.37-.12ZM29.62,135.31c-.28-.05-.52-.03-.75.07-.16.09-.32.29-.51.34-.18.06-.38,0-.56-.07-.37-.19-.7-.28-1.03-.34-.35-.02-.68-.02-1.17.09,0,0-.01,0-.01,0-.03.01-.05.05-.03.08.2.46.59.74,1,.86.42.08.86.06,1.26-.15.2-.1.39-.17.59-.15.2.01.42.14.63.16.06,0,.11-.01.17-.02-.16.23-.34.46-.59.64-.4.31-.95.45-1.47.36-.77-.14-1.38-.71-1.77-1.32-.35-.56-.63-1.13-.73-1.72.37-.71,1.16-1.29,2.03-1.6.46-.18.96-.29,1.46-.23.5.06.97.34,1.28.73.15.19.25.41.31.63-.14,0-.28,0-.38-.02-.14-.04-.24-.16-.34-.3-.19-.3-.47-.46-.77-.53-.31-.03-.64.05-.93.35-.02.03-.03.07,0,.1.25.34.47.48.7.59.24.05.47.07.79,0,.15-.03.3-.02.4.08.1.09.12.3.18.42.1.14.24.21.44.24-.03.25-.09.5-.16.73ZM38.66,153.85c.43-.03.85-.16,1.18-.47.17-.14.33-.26.53-.3.19-.04.44.02.65-.01.06-.02.11-.04.16-.07-.09.27-.22.53-.41.77-.31.4-.8.68-1.33.73-.78.07-1.52-.33-2.05-.82-.48-.45-.9-.93-1.15-1.47.17-.78.79-1.54,1.54-2.07.4-.29.85-.53,1.35-.6.5-.07,1.02.07,1.42.38.19.15.35.33.47.53-.13.03-.27.08-.38.08-.15,0-.27-.09-.4-.2-.26-.24-.58-.32-.88-.31-.3.05-.6.22-.81.58-.02.03,0,.08.02.1.33.27.58.35.82.39.24-.02.48-.05.76-.21.14-.06.29-.1.4-.03.12.06.19.26.28.36.13.11.28.14.48.12.04.25.05.5.03.75-.28.02-.51.11-.71.26-.13.13-.24.36-.4.46-.16.11-.36.11-.56.08-.41-.08-.75-.09-1.09-.07-.34.07-.66.15-1.1.39,0,0,0,0-.01,0-.03.02-.03.06-.01.09.31.39.76.56,1.19.58ZM56.91,166.99c-.19.47-.6.86-1.09,1.05-.74.27-1.56.07-2.2-.26-.58-.31-1.11-.66-1.49-1.12-.03-.8.36-1.7.95-2.4.31-.38.69-.73,1.15-.93.46-.2,1.01-.19,1.47,0,.22.09.42.23.59.39-.12.06-.24.15-.34.17-.14.04-.28-.02-.44-.09-.31-.16-.64-.16-.93-.07-.28.13-.53.36-.63.77,0,.04.01.08.05.09.39.17.65.18.9.16.23-.08.45-.17.68-.4.12-.1.25-.17.38-.13.13.03.25.2.36.28.16.07.31.06.5-.01.1.24.17.47.22.72-.27.09-.47.24-.62.44-.1.16-.14.41-.27.54-.13.15-.32.2-.52.22-.42.02-.75.11-1.07.22-.31.15-.6.32-.96.66,0,0,0,0-.01.01-.02.03-.02.07.01.09.4.3.88.35,1.3.25.4-.14.78-.38,1.02-.76.12-.18.25-.34.43-.43.18-.09.43-.09.63-.18.05-.03.09-.07.14-.11-.02.28-.07.57-.2.85ZM75.92,175.59c-.06.5-.35.99-.79,1.29-.64.45-1.48.47-2.19.32-.65-.15-1.24-.35-1.73-.7-.24-.76-.09-1.73.3-2.57.2-.45.47-.89.87-1.19.39-.31.92-.45,1.42-.39.24.03.46.11.67.23-.1.09-.19.2-.29.25-.13.07-.28.06-.45.03-.34-.08-.66,0-.92.17-.24.2-.41.49-.41.91,0,.04.03.07.07.07.42.06.68.01.91-.08.2-.14.39-.28.55-.56.09-.12.2-.23.34-.22.14,0,.3.13.42.17.17.03.31-.02.48-.14.16.2.29.41.4.63-.23.16-.39.35-.48.58-.05.18-.03.43-.12.6-.08.17-.26.27-.45.35-.4.13-.69.3-.97.49-.26.23-.5.46-.76.89,0,0,0,.01,0,.01-.01.03,0,.07.04.08.46.19.94.11,1.32-.1.35-.24.65-.57.78-1,.07-.21.16-.39.31-.52.15-.13.39-.2.56-.34.04-.04.07-.09.11-.14.05.28.08.57.03.87ZM96.52,178.98c.07.5-.09,1.05-.43,1.45-.51.6-1.31.84-2.03.87-.66.02-1.29-.02-1.85-.23-.43-.68-.53-1.65-.38-2.56.08-.48.23-.98.53-1.38.3-.4.78-.67,1.27-.74.24-.03.48-.01.71.04-.07.11-.13.25-.21.32-.11.1-.25.13-.43.14-.35.01-.64.18-.85.4-.18.25-.27.58-.16.98.01.03.05.06.08.05.42-.05.65-.17.86-.31.16-.19.3-.37.39-.69.05-.14.13-.27.27-.3.13-.04.32.05.45.06.17-.02.3-.1.42-.26.21.15.39.32.55.51-.18.22-.29.44-.31.69,0,.19.09.42.04.61-.04.19-.18.33-.34.45-.35.23-.59.47-.82.72-.19.29-.36.57-.5,1.06,0,0,0,.01,0,.01,0,.03.02.07.06.07.5.06.93-.14,1.25-.43.28-.33.48-.72.5-1.17.02-.22.05-.42.16-.59.11-.17.33-.3.45-.47.03-.05.04-.11.07-.16.12.25.22.53.25.83ZM116.48,177.53c-.04-.22-.06-.42,0-.61.06-.19.24-.37.32-.57.01-.05.01-.11.02-.17.18.21.35.45.46.73.19.47.19,1.03-.04,1.51-.33.71-1.05,1.15-1.74,1.37-.64.19-1.25.31-1.85.26-.59-.54-.94-1.46-1.02-2.37-.05-.49-.03-1,.16-1.47.19-.47.58-.85,1.04-1.05.22-.09.46-.13.69-.14-.04.13-.06.27-.12.36-.08.13-.21.19-.38.25-.34.1-.57.34-.71.61-.11.29-.11.63.1.99.02.03.06.05.1.03.4-.15.59-.33.75-.52.11-.22.19-.44.19-.76.02-.15.06-.3.18-.36.12-.07.32-.04.45-.06.16-.06.26-.17.34-.36.24.09.46.21.66.35-.12.26-.16.5-.12.75.05.18.19.39.19.58.01.19-.09.37-.21.53-.28.31-.45.6-.6.91-.11.33-.2.65-.21,1.15,0,0,0,.01,0,.01,0,.03.04.06.07.05.5-.07.87-.38,1.09-.74.18-.39.28-.82.18-1.26ZM135.72,169.8c.06.18,0,.38-.07.56-.19.37-.28.7-.35,1.03-.02.35-.02.68.09,1.17,0,0,0,.01,0,.01.01.03.05.05.08.03.46-.2.74-.59.86-1,.08-.42.06-.86-.15-1.26-.09-.2-.17-.39-.15-.59.01-.2.14-.42.16-.63,0-.06-.02-.11-.02-.17.23.16.46.34.64.59.31.4.45.95.36,1.47-.14.77-.72,1.38-1.32,1.77-.56.35-1.13.63-1.72.73-.71-.37-1.29-1.16-1.6-2.03-.18-.46-.29-.96-.23-1.46.06-.5.34-.97.73-1.28.19-.15.41-.25.63-.31,0,.14,0,.28-.02.38-.04.14-.16.24-.3.34-.3.19-.46.47-.53.77-.03.31.05.64.35.93.03.02.07.03.1,0,.34-.25.48-.47.59-.7.05-.24.07-.47,0-.79-.03-.15-.02-.3.08-.4.09-.1.3-.12.42-.18.14-.1.21-.24.24-.44.25.03.5.09.73.16-.05.28-.03.52.07.75.09.16.29.32.34.51ZM25.28,99.08c0-40.7,33.11-73.8,73.8-73.8s73.8,33.11,73.8,73.8-33.11,73.8-73.8,73.8S25.28,139.78,25.28,99.08ZM153.67,160.77c-.45.48-.93.9-1.47,1.15-.78-.17-1.54-.79-2.07-1.54-.29-.4-.53-.85-.6-1.35-.07-.5.07-1.02.38-1.42.15-.19.33-.35.53-.47.03.13.08.27.08.38,0,.15-.09.27-.2.4-.24.26-.32.58-.31.88.05.3.21.6.58.81.03.02.08,0,.1-.02.27-.33.35-.58.39-.82-.02-.24-.05-.48-.21-.76-.06-.14-.1-.29-.03-.4.06-.12.26-.19.36-.28.11-.13.14-.28.12-.48.25-.04.5-.05.75-.03.02.28.11.51.26.71.13.13.36.24.46.4.11.16.11.36.08.56-.08.41-.09.75-.07,1.09.07.34.15.66.39,1.1,0,0,0,.01,0,.01.02.03.06.03.09.01.39-.31.56-.76.58-1.19-.03-.43-.16-.85-.47-1.18-.14-.17-.26-.33-.3-.53-.04-.19.02-.44-.01-.65-.02-.06-.04-.11-.07-.16.27.09.53.22.77.41.4.31.68.8.73,1.33.07.78-.33,1.52-.82,2.05Z"/>
      <path class="cls-1" d="M42.23,156.33c-.47.48-.86,1.03-1.1,1.66-.13.31-.27.6-.49.84-.21.24-.53.42-.77.65-.33.38-.57.83-.67,1.35-.45-.3-.95-.53-1.47-.67-1.13-.31-2.34-.14-3.36.31-1.03.46-1.87,1.21-2.5,2.08-.46.64-.8,1.36-1.09,2.11-.27.75-.45,1.55-.51,2.37-.14,1.63.34,3.35,1.37,4.71.06.07.14.14.23.17,1.13.42,2.34.43,3.45.22,1.12-.2,2.18-.65,3.12-1.25.92-.63,1.76-1.42,2.31-2.4.58-.96.82-2.08.8-3.18-.03-1.11-.34-2.24-1.02-3.18-.26-.38-.59-.71-.95-1,.43-.33.75-.72.99-1.17.13-.3.18-.65.34-.93.16-.28.4-.5.66-.7.55-.38.99-.81,1.42-1.25.41-.47.74-.94,1.17-1.49,0,0,.01-.02.01-.04,0-.03-.02-.06-.05-.06-.75-.02-1.39.39-1.89.83ZM39.78,162.42c-.16.41-.26.79-.26,1.2.02.26.13.56.09.83-.03.27-.18.51-.35.73-.39.42-.65.85-.94,1.28-.23.47-.46.94-.57,1.57,0,0,0,.02,0,.03.01.03.04.05.07.04.6-.2,1.06-.59,1.4-1.07.17-.24.29-.51.38-.79.12-.27.15-.57.17-.87.02-.3.05-.58.15-.84.1-.26.32-.51.42-.79.06-.19.07-.38.07-.58.43.63.72,1.38.79,2.16.09,1.04-.2,2.1-.79,2.96-.59.85-1.46,1.48-2.36,1.96-1.76.91-3.88,1.34-5.65.74-.82-1.11-1.26-2.5-1.42-3.93-.16-1.48.07-3.12.96-4.41.62-.87,1.55-1.49,2.56-1.74,1-.26,2.05-.17,2.98.12.03,0,.05.02.07.03-.47.14-.91.36-1.29.67-.29.27-.52.63-.8.9-.29.26-.61.48-.96.68-.71.39-1.28.99-1.75,1.66-.42.7-.66,1.52-.6,2.35,0,.01,0,.03.02.04.02.02.06.01.08,0,.55-.63.94-1.22,1.39-1.79.41-.6.82-1.19,1.23-1.85.22-.32.46-.62.79-.82.32-.22.72-.3,1.06-.46.54-.28,1.03-.64,1.49-1.1.57.28,1.1.65,1.56,1.11Z"/>
      <path class="cls-1" d="M155.93,41.83c.47-.48.86-1.03,1.1-1.66.13-.31.27-.6.49-.84.21-.24.53-.42.77-.65.33-.38.57-.83.67-1.35.45.3.95.53,1.47.67,1.13.31,2.34.14,3.36-.31,1.03-.46,1.87-1.21,2.5-2.08.46-.64.8-1.36,1.09-2.11.27-.75.45-1.55.51-2.37.14-1.63-.34-3.35-1.37-4.71-.06-.07-.14-.14-.23-.17-1.13-.42-2.33-.43-3.45-.22-1.12.2-2.18.65-3.12,1.25-.92.63-1.76,1.42-2.31,2.4-.58.96-.82,2.08-.8,3.18.03,1.11.34,2.24,1.02,3.18.26.38.59.71.95,1-.43.33-.75.72-.99,1.17-.13.3-.18.65-.34.93-.16.28-.4.5-.66.7-.55.38-.99.81-1.42,1.25-.41.47-.74.94-1.17,1.49,0,0-.01.02-.01.04,0,.03.02.06.05.06.75.02,1.39-.39,1.89-.83ZM158.38,35.75c.16-.41.26-.79.26-1.2-.02-.26-.13-.56-.09-.83.03-.27.18-.51.35-.73.39-.42.65-.85.94-1.28.23-.47.46-.94.57-1.57,0,0,0-.02,0-.03-.01-.03-.04-.05-.07-.04-.6.2-1.06.59-1.4,1.07-.17.24-.29.51-.38.79-.12.27-.15.57-.17.87-.02.3-.05.58-.15.84-.1.26-.32.51-.42.79-.06.19-.07.38-.07.58-.43-.63-.72-1.38-.79-2.16-.09-1.04.2-2.1.79-2.95.59-.85,1.46-1.48,2.36-1.96,1.76-.91,3.88-1.34,5.65-.74.82,1.11,1.26,2.5,1.42,3.93.16,1.48-.07,3.12-.96,4.41-.62.87-1.55,1.49-2.56,1.74-1.01.26-2.05.17-2.98-.12-.02,0-.05-.02-.07-.03.47-.14.91-.36,1.29-.67.29-.27.52-.63.8-.9.29-.26.61-.48.96-.68.71-.39,1.29-.99,1.75-1.66.42-.7.66-1.52.6-2.35,0-.01,0-.03-.02-.04-.02-.02-.06-.01-.08,0-.55.63-.94,1.22-1.39,1.79-.41.6-.82,1.19-1.23,1.85-.22.32-.46.62-.79.82-.32.22-.72.3-1.06.46-.54.28-1.03.64-1.49,1.1-.58-.28-1.1-.65-1.56-1.11Z"/>
      <path class="cls-1" d="M79.89,182.96c-.42-.2-.87-.32-1.33-.39.21-.5.29-1,.27-1.51-.04-.32-.17-.65-.17-.97,0-.32.1-.63.23-.94.28-.6.45-1.2.61-1.79.12-.61.17-1.18.27-1.87,0-.01,0-.03,0-.04-.01-.03-.05-.04-.07-.02-.66.36-1.01,1.03-1.22,1.66-.16.65-.23,1.32-.12,1.99.04.33.06.66,0,.98-.06.32-.25.63-.34.95-.1.5-.07,1,.09,1.51-.54-.03-1.09.01-1.61.16-1.13.3-2.1,1.05-2.75,1.95-.66.91-1.01,1.98-1.12,3.05-.08.79-.01,1.58.11,2.37.14.79.39,1.56.74,2.3.7,1.48,1.97,2.73,3.54,3.39.09.04.19.05.29.03,1.19-.2,2.24-.79,3.09-1.54.88-.73,1.56-1.65,2.08-2.65.48-1.01.82-2.11.8-3.23.03-1.12-.33-2.21-.9-3.16-.58-.94-1.42-1.77-2.47-2.24ZM81.8,191.21c-1.06,1.67-2.69,3.1-4.53,3.46-1.27-.55-2.34-1.54-3.2-2.7-.88-1.21-1.5-2.74-1.37-4.3.1-1.06.6-2.07,1.35-2.78.74-.73,1.69-1.17,2.64-1.38.03,0,.05,0,.08-.01-.34.36-.61.77-.78,1.22-.12.38-.14.8-.25,1.18-.12.37-.29.72-.49,1.07-.42.7-.62,1.5-.68,2.31-.02.81.19,1.65.66,2.34,0,.01.02.02.04.02.03,0,.06-.02.06-.05.17-.82.21-1.52.31-2.25.05-.72.11-1.44.14-2.22.03-.38.09-.77.27-1.11.17-.34.47-.62.69-.93.33-.51.55-1.08.73-1.7.64-.05,1.28.01,1.91.17.07.45.18.82.39,1.17.15.22.39.42.49.67.11.25.1.53.06.81-.13.56-.13,1.06-.17,1.58.03.52.07,1.04.29,1.64,0,0,0,.02.02.03.02.02.06.02.08,0,.42-.48.62-1.05.68-1.63.02-.29,0-.58-.07-.87-.03-.29-.16-.57-.29-.83-.14-.27-.25-.52-.29-.8-.04-.28.03-.6-.03-.89-.05-.19-.13-.37-.23-.54.69.34,1.31.83,1.77,1.48.6.85.88,1.92.8,2.95-.08,1.04-.52,2.01-1.07,2.87Z"/>
      <path class="cls-1" d="M118.27,15.2c.42.2.87.32,1.33.39-.21.5-.29,1-.27,1.51.04.32.17.65.17.97,0,.32-.1.63-.22.94-.28.6-.45,1.2-.61,1.79-.12.61-.17,1.18-.27,1.87,0,.01,0,.03,0,.04.01.03.05.04.07.02.66-.36,1.01-1.03,1.22-1.66.16-.65.23-1.32.12-1.99-.04-.33-.06-.66,0-.98.06-.32.25-.63.34-.95.1-.5.07-1-.09-1.51.54.03,1.09-.01,1.61-.16,1.13-.3,2.1-1.05,2.75-1.95.66-.91,1.01-1.98,1.12-3.05.08-.79.01-1.58-.11-2.37-.14-.79-.39-1.56-.74-2.3-.7-1.48-1.97-2.73-3.54-3.39-.09-.04-.19-.05-.29-.03-1.19.2-2.24.79-3.09,1.54-.88.73-1.56,1.65-2.08,2.65-.48,1.01-.82,2.11-.8,3.23-.03,1.12.33,2.21.9,3.16.58.94,1.42,1.77,2.47,2.24ZM116.36,6.95c1.06-1.67,2.69-3.1,4.53-3.46,1.27.55,2.34,1.54,3.2,2.7.88,1.21,1.5,2.74,1.37,4.3-.1,1.06-.6,2.07-1.35,2.78-.74.73-1.69,1.17-2.64,1.38-.03,0-.05,0-.08.01.34-.36.61-.77.78-1.23.12-.38.14-.8.25-1.18.12-.37.29-.72.49-1.07.42-.7.62-1.5.68-2.31.02-.81-.19-1.65-.66-2.34,0-.01-.02-.02-.04-.02-.03,0-.06.02-.06.05-.17.82-.21,1.52-.31,2.25-.05.72-.11,1.44-.14,2.22-.03.38-.09.77-.27,1.11-.17.34-.47.62-.69.93-.33.51-.55,1.08-.73,1.7-.64.05-1.28-.01-1.91-.17-.07-.45-.18-.82-.39-1.17-.15-.22-.39-.42-.49-.67-.11-.25-.1-.53-.06-.81.13-.56.13-1.06.17-1.58-.03-.52-.07-1.04-.29-1.64,0,0,0-.02-.02-.03-.02-.02-.06-.02-.08,0-.42.48-.62,1.05-.68,1.63-.02.29,0,.58.07.87.03.29.16.57.29.83.14.27.25.52.29.8.04.28-.03.6.03.89.05.19.13.37.23.54-.69-.33-1.31-.83-1.77-1.48-.6-.85-.88-1.92-.79-2.95.08-1.04.52-2.01,1.07-2.87Z"/>
      <path class="cls-1" d="M130.02,184.3c-.54-.98-1.39-1.75-2.36-2.28-.97-.53-2.11-.82-3.26-.71-.46.04-.91.16-1.34.33-.07-.54-.24-1.01-.52-1.44-.19-.26-.48-.48-.63-.76-.17-.28-.23-.6-.27-.92-.06-.66-.21-1.27-.37-1.86-.2-.59-.44-1.11-.7-1.76,0-.01-.01-.02-.02-.03-.03-.02-.06,0-.08.02-.39.64-.36,1.4-.23,2.05.18.65.46,1.26.89,1.78.2.27.39.54.48.85.1.31.1.67.18.99.17.48.44.91.84,1.26-.48.24-.93.56-1.31.94-.83.82-1.29,1.96-1.41,3.07-.12,1.12.11,2.22.55,3.21.32.72.78,1.38,1.28,1.99.51.61,1.12,1.16,1.79,1.62,1.35.93,3.07,1.38,4.76,1.16.09-.01.19-.05.26-.11.93-.77,1.54-1.81,1.91-2.88.39-1.07.52-2.21.48-3.33-.09-1.11-.35-2.24-.92-3.2ZM128,192.77c-1.38.16-2.79-.16-4.12-.73-1.36-.6-2.67-1.62-3.33-3.04-.45-.97-.52-2.09-.22-3.09.28-1,.87-1.86,1.59-2.52.02-.02.04-.03.06-.05-.12.48-.14.97-.07,1.45.09.39.28.77.37,1.14.09.38.11.77.11,1.17-.02.81.21,1.61.56,2.34.39.71.99,1.33,1.74,1.69.01,0,.03,0,.04,0,.03-.01.04-.04.03-.07-.27-.79-.58-1.42-.86-2.1-.32-.65-.62-1.31-.99-1.99-.17-.35-.31-.71-.32-1.09-.03-.38.1-.77.14-1.15.03-.61-.04-1.21-.2-1.84.52-.36,1.1-.62,1.72-.8.28.35.57.62.93.82.24.11.55.17.76.34.22.16.35.41.46.67.17.54.41.99.64,1.45.29.43.58.87,1.07,1.28,0,0,.02.01.03.01.03,0,.06-.01.07-.05.12-.62.02-1.22-.22-1.75-.13-.26-.3-.5-.5-.72-.17-.23-.42-.41-.67-.58-.25-.16-.48-.33-.65-.55-.18-.22-.28-.53-.47-.76-.13-.14-.3-.25-.47-.35.76-.05,1.55.06,2.27.4.95.44,1.72,1.23,2.17,2.16.45.94.55,2,.51,3.02-.09,1.98-.78,4.03-2.19,5.26Z"/>
      <path class="cls-1" d="M68.14,13.86c.54.98,1.39,1.75,2.36,2.28.97.53,2.11.82,3.26.71.46-.04.91-.16,1.34-.33.07.54.24,1.01.52,1.44.19.26.47.48.63.76.17.28.23.6.27.92.06.66.21,1.27.37,1.86.2.59.44,1.11.7,1.76,0,.01.01.02.02.03.03.02.06,0,.08-.02.39-.64.36-1.4.23-2.05-.18-.65-.46-1.26-.89-1.78-.2-.27-.39-.54-.48-.85-.1-.31-.09-.67-.18-.99-.17-.48-.44-.91-.84-1.26.48-.24.93-.56,1.31-.94.83-.82,1.29-1.96,1.41-3.07.12-1.12-.11-2.22-.55-3.21-.32-.72-.78-1.38-1.28-1.99-.51-.61-1.12-1.16-1.79-1.62-1.35-.93-3.07-1.38-4.76-1.16-.09.01-.19.05-.26.11-.93.77-1.54,1.81-1.91,2.88-.39,1.07-.52,2.21-.48,3.33.09,1.11.35,2.24.92,3.2ZM70.16,5.39c1.38-.16,2.79.16,4.12.73,1.36.6,2.67,1.62,3.33,3.04.45.97.52,2.09.22,3.09-.28,1-.87,1.86-1.59,2.52-.02.02-.04.03-.06.05.12-.48.14-.97.07-1.45-.09-.39-.28-.77-.37-1.14-.09-.38-.11-.77-.11-1.17.02-.81-.21-1.61-.56-2.34-.39-.71-.99-1.33-1.74-1.69-.01,0-.03,0-.04,0-.03.01-.04.04-.03.07.27.79.58,1.42.86,2.1.32.65.62,1.31.99,1.99.17.35.31.71.32,1.09.03.38-.1.77-.14,1.15-.03.61.04,1.21.2,1.84-.52.36-1.1.62-1.72.8-.28-.35-.57-.62-.93-.82-.24-.11-.55-.17-.76-.34-.22-.16-.35-.41-.46-.67-.17-.54-.41-.99-.64-1.45-.29-.43-.58-.87-1.07-1.28,0,0-.02-.01-.03-.01-.03,0-.06.01-.07.04-.12.62-.02,1.22.22,1.75.13.26.3.5.5.72.17.23.42.41.67.58.25.16.48.33.65.55.18.22.28.53.47.76.13.14.3.25.47.35-.76.05-1.55-.06-2.27-.4-.95-.44-1.72-1.23-2.17-2.16-.45-.94-.55-2-.51-3.02.09-1.98.78-4.03,2.19-5.26Z"/>
      <path class="cls-1" d="M191.59,115.7c-1.01-.48-2.11-.82-3.23-.8-1.12-.03-2.21.33-3.16.9-.94.58-1.77,1.42-2.24,2.47-.2.42-.32.87-.39,1.33-.5-.21-1-.29-1.51-.27-.32.04-.65.17-.97.17-.32,0-.63-.1-.94-.23-.6-.28-1.2-.45-1.79-.61-.61-.12-1.18-.17-1.87-.27-.01,0-.03,0-.04,0-.03.01-.04.05-.02.07.36.66,1.03,1.01,1.66,1.22.65.16,1.32.23,1.99.12.33-.04.66-.06.98,0,.32.06.63.25.95.34.5.1,1,.07,1.51-.09-.03.54.01,1.09.16,1.61.3,1.13,1.05,2.1,1.95,2.75.91.66,1.98,1.01,3.05,1.12.79.08,1.58.01,2.37-.11.79-.14,1.56-.39,2.3-.74,1.48-.7,2.73-1.97,3.39-3.54.04-.09.05-.19.03-.29-.2-1.19-.79-2.24-1.54-3.09-.73-.88-1.65-1.56-2.65-2.08ZM191.98,124.08c-1.21.88-2.74,1.5-4.3,1.37-1.06-.1-2.07-.6-2.78-1.35-.73-.74-1.17-1.69-1.38-2.64,0-.03,0-.05-.01-.08.36.34.77.61,1.23.78.38.12.8.14,1.18.25.37.12.72.29,1.07.49.69.42,1.5.62,2.31.68.81.02,1.65-.19,2.34-.66.01,0,.02-.02.02-.04,0-.03-.02-.06-.05-.06-.82-.17-1.52-.21-2.25-.31-.72-.05-1.44-.11-2.22-.14-.38-.03-.77-.09-1.11-.27-.34-.17-.62-.47-.93-.69-.51-.33-1.08-.55-1.7-.73-.05-.64.01-1.28.17-1.91.45-.07.82-.18,1.17-.39.22-.15.42-.39.67-.49.25-.11.53-.1.81-.06.56.13,1.06.13,1.58.17.52-.03,1.04-.07,1.64-.29,0,0,.02,0,.03-.02.02-.02.02-.06,0-.08-.48-.42-1.05-.62-1.63-.68-.29-.02-.58,0-.87.07-.29.03-.57.16-.83.29-.27.14-.52.25-.8.29-.28.04-.6-.03-.89.03-.19.05-.37.13-.54.23.33-.69.83-1.31,1.48-1.77.85-.6,1.92-.88,2.95-.8,1.04.08,2.01.52,2.87,1.07,1.67,1.06,3.1,2.69,3.46,4.53-.55,1.27-1.54,2.34-2.7,3.2Z"/>
      <path class="cls-1" d="M6.57,82.46c1.01.48,2.11.82,3.23.8,1.12.03,2.21-.33,3.16-.9.94-.58,1.77-1.42,2.24-2.47.2-.42.32-.87.39-1.33.5.21,1,.29,1.51.27.32-.04.65-.17.97-.17.32,0,.63.1.94.22.6.28,1.2.45,1.79.61.61.12,1.18.17,1.87.27.01,0,.03,0,.04,0,.03-.01.04-.05.02-.07-.36-.66-1.03-1.01-1.66-1.22-.65-.16-1.32-.23-1.99-.12-.33.04-.66.06-.98,0-.32-.06-.63-.25-.95-.34-.5-.1-1-.07-1.51.09.03-.54-.01-1.09-.16-1.61-.3-1.13-1.05-2.1-1.95-2.75-.91-.66-1.98-1.01-3.05-1.12-.79-.08-1.58-.01-2.37.11-.79.14-1.56.39-2.3.74-1.48.7-2.73,1.97-3.39,3.54-.04.09-.05.19-.03.29.2,1.19.79,2.24,1.54,3.09.73.88,1.65,1.56,2.65,2.08ZM6.18,74.08c1.21-.88,2.74-1.5,4.3-1.37,1.06.1,2.07.6,2.78,1.35.73.74,1.17,1.69,1.38,2.64,0,.03,0,.05.01.08-.36-.34-.77-.61-1.23-.78-.38-.12-.8-.14-1.18-.25-.37-.12-.72-.29-1.07-.49-.69-.42-1.5-.62-2.31-.68-.81-.02-1.65.19-2.34.66-.01,0-.02.02-.02.04,0,.03.02.06.05.06.82.17,1.52.21,2.25.31.72.05,1.44.11,2.22.14.38.03.77.09,1.11.27.34.17.62.47.93.69.51.33,1.08.55,1.7.73.05.64-.01,1.28-.17,1.91-.45.07-.82.18-1.17.39-.22.15-.42.39-.67.49-.25.11-.53.1-.81.06-.56-.13-1.06-.13-1.58-.17-.52.03-1.04.07-1.64.29,0,0-.02,0-.03.02-.02.02-.02.06,0,.08.48.42,1.05.62,1.63.68.29.02.58,0,.87-.07.29-.03.57-.16.83-.29.27-.14.52-.25.8-.29.28-.04.6.03.89-.03.19-.05.37-.13.54-.23-.33.69-.83,1.31-1.48,1.77-.85.6-1.92.88-2.95.79-1.04-.08-2.01-.52-2.87-1.07-1.67-1.06-3.1-2.69-3.46-4.53.55-1.27,1.54-2.34,2.7-3.2Z"/>
      <path class="cls-1" d="M182.02,70.5c-.53.97-.82,2.11-.71,3.26.04.46.16.91.33,1.34-.54.07-1.01.24-1.44.52-.26.19-.48.47-.76.63-.28.17-.6.23-.92.27-.66.06-1.27.21-1.86.37-.59.2-1.11.44-1.76.7-.01,0-.02.01-.03.02-.02.03,0,.06.02.08.64.39,1.4.36,2.05.23.65-.18,1.26-.46,1.78-.89.27-.2.54-.39.85-.48.31-.1.67-.09.99-.18.48-.17.91-.44,1.26-.84.24.48.56.93.94,1.31.82.83,1.96,1.29,3.07,1.41,1.12.12,2.22-.11,3.21-.55.72-.32,1.38-.78,1.99-1.28.61-.51,1.16-1.12,1.62-1.79.93-1.35,1.38-3.07,1.16-4.76-.01-.09-.05-.19-.11-.26-.77-.93-1.81-1.54-2.88-1.91-1.07-.39-2.21-.52-3.33-.48-1.11.09-2.24.35-3.2.92-.98.54-1.75,1.39-2.28,2.36ZM184.49,68.49c.94-.45,2-.55,3.02-.51,1.98.09,4.02.78,5.26,2.19.16,1.38-.16,2.79-.73,4.12-.6,1.36-1.62,2.67-3.04,3.33-.97.45-2.09.52-3.09.22-1-.28-1.86-.87-2.52-1.59-.02-.02-.03-.04-.05-.06.48.12.97.14,1.45.07.39-.09.77-.28,1.14-.37.38-.09.77-.11,1.17-.11.81.02,1.61-.21,2.34-.56.71-.39,1.33-.99,1.69-1.74,0-.01,0-.03,0-.04-.01-.03-.04-.04-.07-.03-.79.27-1.42.58-2.1.86-.65.32-1.31.62-1.99.99-.35.17-.71.31-1.09.32-.38.03-.77-.1-1.15-.14-.61-.03-1.21.04-1.84.2-.36-.52-.62-1.1-.8-1.72.35-.28.62-.57.82-.93.11-.24.17-.55.34-.76.16-.22.41-.35.67-.45.54-.17.99-.41,1.45-.64.43-.29.87-.58,1.28-1.07,0,0,.01-.02.01-.03,0-.03-.01-.06-.04-.07-.62-.12-1.22-.02-1.75.22-.26.13-.5.3-.72.5-.23.17-.42.42-.58.67-.16.25-.33.48-.55.65-.22.18-.53.28-.76.47-.14.13-.25.3-.35.47-.05-.76.06-1.55.4-2.27.44-.95,1.23-1.72,2.16-2.17Z"/>
      <path class="cls-1" d="M16.14,127.66c.53-.97.82-2.11.71-3.26-.04-.46-.16-.91-.33-1.34.54-.07,1.01-.24,1.44-.52.26-.19.48-.48.76-.63.28-.17.6-.23.92-.27.66-.06,1.27-.21,1.86-.37.59-.2,1.11-.44,1.76-.7.01,0,.02-.01.03-.02.02-.03,0-.06-.02-.08-.64-.39-1.4-.36-2.05-.23-.65.18-1.26.46-1.78.89-.27.2-.54.39-.85.48-.31.1-.67.09-.99.18-.48.17-.91.44-1.26.84-.24-.48-.56-.93-.94-1.31-.82-.83-1.96-1.29-3.07-1.41-1.12-.12-2.22.11-3.21.55-.72.32-1.38.78-1.99,1.28-.61.51-1.16,1.12-1.62,1.79-.93,1.35-1.38,3.07-1.16,4.76.01.09.05.19.11.26.77.93,1.81,1.54,2.88,1.91,1.07.39,2.21.52,3.33.48,1.11-.09,2.24-.35,3.2-.92.98-.54,1.75-1.39,2.28-2.36ZM13.67,129.67c-.94.45-2,.55-3.02.51-1.98-.09-4.02-.78-5.26-2.19-.16-1.38.16-2.79.73-4.12.6-1.36,1.62-2.67,3.04-3.33.97-.45,2.09-.52,3.09-.22,1,.28,1.86.87,2.52,1.59.02.02.03.04.05.06-.48-.12-.97-.14-1.45-.07-.39.09-.77.28-1.14.37-.38.09-.77.11-1.17.11-.81-.02-1.61.21-2.34.56-.71.39-1.33.99-1.69,1.74,0,.01,0,.03,0,.04.01.03.04.04.07.03.79-.27,1.42-.58,2.1-.86.65-.31,1.31-.62,1.99-.98.35-.17.71-.31,1.09-.32.38-.03.77.1,1.15.14.61.03,1.21-.04,1.84-.2.36.52.62,1.1.8,1.72-.35.28-.62.57-.82.93-.11.24-.17.55-.34.76-.16.22-.41.35-.67.45-.54.17-.99.41-1.45.64-.43.29-.87.58-1.28,1.07,0,0-.01.02-.01.03,0,.03.01.06.05.07.62.12,1.22.02,1.75-.22.26-.13.5-.3.72-.5.23-.17.42-.42.58-.67.16-.25.33-.48.55-.65.22-.18.53-.28.76-.47.14-.13.25-.3.35-.47.05.76-.06,1.55-.4,2.27-.44.95-1.23,1.72-2.16,2.17Z"/>
    </g>
  </g>
</svg>