<?xml version="1.0" encoding="UTF-8"?>
<svg id="Layer_2" data-name="Layer 2" xmlns="http://www.w3.org/2000/svg" viewBox="0 0 197.47 197.62">
  <defs>
    <style>
      .cls-1 {
        fill: #201522;
      }
    </style>
  </defs>
  <g id="Objects">
    <path class="cls-1" d="M196.65,105.38c-.41-.11-.82-.19-1.23-.27-1.65-.3-3.3-.52-4.96-.74l-9.94-1.23c-.89-.11-1.77-.22-2.66-.33.04-.79.04-1.59.06-2.39l9.59-.52,5-.31c.83-.06,1.67-.13,2.5-.21.42-.04.83-.09,1.25-.15.4-.1.85-.04,1.21-.38-.36-.35-.81-.28-1.21-.38-.41-.06-.83-.11-1.25-.15-.83-.08-1.66-.15-2.5-.21l-5-.31-9.59-.52c-.01-.8-.02-1.59-.06-2.39.89-.11,1.77-.22,2.66-.33l9.94-1.23c1.66-.22,3.31-.44,4.96-.74.41-.08.82-.16,1.23-.27.66.02.68-.66-.01-.59-.84-.11-1.67-.12-2.51-.14-5.5-.07-10.99.09-16.49.15-.07-.78-.15-1.56-.24-2.34,1.9-.38,3.79-.74,5.69-1.11,3.28-.64,6.56-1.25,9.82-1.97.82-.18,1.63-.37,2.44-.6.4-.15.81-.16,1.19-.53-.38-.46-.84-.22-1.25-.3-1.68,0-3.34.13-5.01.25-4.44.32-8.87.75-13.31,1.1-.12-.76-.24-1.53-.38-2.29l8.57-2.3,4.83-1.32c1.6-.47,3.22-.9,4.78-1.52.65,0,.65-.83-.05-.66-.42,0-.84.03-1.26.07-.83.08-1.66.18-2.49.29-1.66.22-3.31.47-4.96.72l-9.9,1.54c-.06,0-.12.02-.18.03-.17-.75-.34-1.49-.53-2.24.61-.21,1.22-.42,1.83-.64l9.47-3.27c1.57-.56,3.15-1.12,4.71-1.73.39-.15.78-.31,1.16-.48.38-.2.76-.29,1.13-.67-.41-.6-.87-.16-1.27-.23-.42.06-.83.13-1.24.2-3.29.61-6.54,1.38-9.8,2.12-2.28.52-4.56,1.05-6.84,1.56-.21-.73-.45-1.45-.68-2.17,4.59-1.98,9.23-3.88,13.79-5.92.76-.34,1.52-.69,2.27-1.07.37-.19.75-.38,1.11-.6.63,0,.59-1-.12-.73-1.67.28-3.26.78-4.88,1.22-3.21.93-6.4,1.92-9.59,2.89-1.22.37-2.45.74-3.67,1.11-.21-.57-.41-1.14-.63-1.71-.05-.13-.11-.26-.17-.39l7.13-3.65c2.97-1.54,5.96-3.01,8.84-4.73.36-.25.71-.4,1.04-.81-.46-.72-.89-.09-1.29-.14-.81.23-1.6.5-2.39.77-1.58.55-3.14,1.14-4.71,1.73l-9.36,3.58-.57.21c-.31-.68-.64-1.34-.96-2.01l.88-.54,8.58-5.18c1.43-.87,2.85-1.75,4.25-2.66.7-.46,1.4-.92,2.07-1.44.61,0,.49-1.16-.2-.79-.42.12-.81.26-1.2.41-5.39,2.23-10.61,4.79-15.89,7.23-.35-.65-.69-1.31-1.06-1.95,1.1-.78,2.2-1.55,3.3-2.32,2.73-1.92,5.48-3.83,8.18-5.79.68-.49,1.35-.99,2.01-1.5.33-.26.66-.52.98-.79.32-.29.64-.5.93-.94-.53-.84-.91-.03-1.3-.06-.39.17-.77.35-1.14.53-.75.37-1.49.76-2.23,1.15-4.19,2.23-8.32,4.58-12.47,6.86-.39-.62-.79-1.22-1.2-1.83l5.48-4.47c2.59-2.11,5.2-4.19,7.69-6.43.31-.28.62-.57.91-.88.59,0,.36-1.32-.3-.84-.79.35-1.5.78-2.23,1.21-1.44.86-2.85,1.76-4.26,2.66l-8.41,5.45-.84.54c-.43-.59-.86-1.17-1.31-1.74.02-.01.03-.03.05-.04l7.32-6.84c1.22-1.15,2.43-2.3,3.62-3.47.59-.59,1.19-1.18,1.75-1.8.28-.33.57-.6.81-1.05-.63-.96-.93.04-1.31.02-2.83,1.82-5.46,3.87-8.15,5.86l-6.24,4.68c-.46-.55-.92-1.09-1.4-1.62,2.96-3.2,5.97-6.37,8.9-9.61,1.12-1.25,2.25-2.47,3.27-3.83.59,0,.2-1.48-.43-.9-.38.23-.71.48-1.05.73-.67.51-1.32,1.04-1.97,1.57-2.58,2.14-5.09,4.34-7.61,6.52-1.15,1-2.3,1.99-3.45,2.99-.49-.51-1-1-1.51-1.49,3.37-4.18,6.8-8.31,10.06-12.6l.73-1.03c.24-.36.48-.67.66-1.16-.78-1.07-.96.12-1.34.1-.33.27-.65.55-.96.83-1.24,1.13-2.44,2.29-3.63,3.46l-7.1,7.07c-.32.32-.64.64-.97.96-.52-.47-1.04-.94-1.57-1.39l5.22-7.45c.95-1.37,1.91-2.75,2.84-4.14.46-.7.93-1.39,1.37-2.11.22-.36.44-.72.64-1.1.59.02,0-1.62-.58-.93-1.32,1.13-2.39,2.39-3.53,3.63l-3.32,3.75-5.37,6.14c-.55-.42-1.11-.82-1.66-1.23.37-.61.73-1.22,1.1-1.83l5.15-8.6c.84-1.45,1.69-2.88,2.45-4.39.18-.39.38-.73.51-1.24-.95-1.17-1,.2-1.36.18-.58.63-1.11,1.27-1.64,1.93-3.12,3.92-6.09,7.94-9.11,11.92-.57-.38-1.13-.76-1.71-1.12.78-1.53,1.56-3.06,2.34-4.59,1.52-2.98,3.05-5.94,4.48-8.97.35-.76.71-1.52,1.01-2.33.58.04-.18-1.75-.75-.93-.32.33-.57.66-.83,1-1.01,1.35-1.94,2.74-2.87,4.13-2.19,3.27-4.31,6.59-6.47,9.87-.58-.33-1.17-.64-1.76-.96l3.21-7.57,1.93-4.63.92-2.34c.28-.81.6-1.53.77-2.48-1.1-1.26-1.07.32-1.38.28-.25.35-.47.71-.7,1.06-.45.71-.87,1.43-1.29,2.16l-2.48,4.36-4.2,7.54c-.6-.28-1.2-.55-1.8-.81.14-.4.28-.8.41-1.2l3.25-9.48c.53-1.59,1.06-3.17,1.52-4.79.11-.41.22-.81.32-1.24.57.07-.37-1.86-.92-.91-.53.74-.89,1.48-1.28,2.22-1.53,2.99-2.92,6.02-4.34,9.05-.77,1.65-1.54,3.31-2.32,4.96-.6-.23-1.2-.47-1.81-.69,1.23-4.62,2.51-9.23,3.65-13.89.19-.82.38-1.63.54-2.47.07-.43.16-.82.16-1.33-1.26-1.33-1.13.45-1.4.39-.76,1.53-1.36,3.08-1.99,4.64-1.24,3.11-2.42,6.23-3.62,9.35-.28.72-.56,1.43-.83,2.15-.61-.19-1.23-.35-1.85-.52l1.4-7.3c.61-3.29,1.31-6.54,1.67-9.92.52.08-.52-1.93-1.06-.84-.23.42-.38.8-.53,1.2-.3.79-.57,1.58-.84,2.38-.53,1.59-1.03,3.19-1.52,4.78l-2.69,8.8c-.63-.14-1.25-.3-1.89-.43l.06-.49,1.2-9.95c.19-1.66.37-3.32.51-5,.05-.85.15-1.64.06-2.59-1.18-1.33-1.18.62-1.32.52-.14.41-.26.81-.38,1.22-1.4,5.2-2.53,10.43-3.74,15.64-.64-.1-1.28-.18-1.92-.26.06-1.2.12-2.4.18-3.6.17-3.34.35-6.67.46-10.02.02-.84.04-1.67.04-2.52,0-.42,0-.84-.04-1.28.3.12-.41-1.99-1.15-.74-.32.87-.45,1.67-.63,2.5l-.46,2.47c-.74,4.25-1.38,8.52-2.06,12.78-.64-.06-1.28-.11-1.93-.15l-.14-6.69c-.08-3.34-.1-6.68-.37-10.04-.05-.43-.08-.83-.2-1.31-.95-1.33-1.31.77-1.23.64-.17.85-.27,1.67-.37,2.51-.2,1.67-.36,3.33-.51,4.99l-.86,9.75c-.33,0-.65-.03-.98-.03-.33,0-.65.02-.98.02l-.86-9.75c-.16-1.66-.32-3.33-.51-4.99-.1-.83-.2-1.66-.37-2.51.08.13-.28-1.97-1.23-.64-.12.47-.15.88-.2,1.31-.27,3.36-.29,6.7-.37,10.04l-.14,6.66c-.65.04-1.3.09-1.94.14-.68-4.24-1.32-8.5-2.05-12.75l-.46-2.47c-.18-.83-.31-1.63-.63-2.5-.73-1.24-1.43.85-1.14.74-.03.43-.03.85-.04,1.28,0,.84.02,1.68.04,2.52.1,3.35.29,6.68.46,10.02.06,1.19.12,2.37.18,3.56-.65.08-1.3.16-1.95.26-1.2-5.2-2.33-10.41-3.73-15.59-.12-.41-.24-.81-.38-1.22-.14.08-.15-1.84-1.3-.53-.09.95,0,1.74.06,2.59.13,1.67.32,3.34.51,5l1.2,9.95.05.42c-.64.13-1.28.29-1.92.43l-2.67-8.73c-.49-1.6-.99-3.19-1.52-4.78-.27-.79-.54-1.59-.84-2.38-.16-.4-.31-.78-.53-1.2-.53-1.07-1.53.9-1.03.83.36,3.38,1.06,6.63,1.67,9.92l1.39,7.23c-.63.17-1.27.34-1.9.53-.27-.69-.53-1.38-.8-2.07-1.2-3.12-2.38-6.24-3.62-9.35-.63-1.55-1.24-3.1-1.99-4.63-.26.05-.16-1.69-1.37-.4,0,.51.09.9.16,1.32.16.83.35,1.65.54,2.47,1.13,4.63,2.4,9.21,3.62,13.8-.62.22-1.24.46-1.85.69-.76-1.62-1.52-3.24-2.27-4.86-1.42-3.03-2.81-6.06-4.34-9.05-.4-.75-.76-1.48-1.28-2.23-.56-.96-1.49.98-.92.91.09.42.2.83.32,1.24.46,1.62.99,3.21,1.52,4.79l3.25,9.48c.12.36.25.73.37,1.09-.6.26-1.2.53-1.8.81l-4.14-7.43-2.48-4.36c-.42-.72-.85-1.44-1.29-2.16-.22-.36-.45-.71-.7-1.06-.32.05-.27-1.57-1.42-.27.16.96.48,1.68.77,2.49l.92,2.34,1.92,4.63,3.15,7.44c-.58.3-1.16.61-1.74.93-2.13-3.25-4.22-6.52-6.38-9.75-.93-1.39-1.86-2.78-2.87-4.13-.26-.34-.51-.67-.83-1-.57-.85-1.44,1.05-.81.98.3.81.65,1.57,1.01,2.33,1.43,3.03,2.96,6,4.48,8.98.75,1.48,1.51,2.95,2.26,4.43-.56.35-1.11.71-1.67,1.07-2.98-3.93-5.91-7.89-8.99-11.76-.53-.65-1.06-1.3-1.64-1.93-.38.06-.35-1.44-1.46-.13.13.52.33.85.51,1.25.76,1.51,1.61,2.95,2.45,4.4l5.15,8.6c.32.54.65,1.09.98,1.63-.53.38-1.08.76-1.6,1.15l-5.2-5.95-3.32-3.76c-1.14-1.24-2.2-2.49-3.54-3.64-.59-.75-1.39,1.13-.7,1.03.2.38.42.75.64,1.1.44.72.9,1.42,1.37,2.11.93,1.39,1.88,2.77,2.84,4.14l5.05,7.21c-.51.42-1,.86-1.49,1.29-.25-.24-.49-.49-.74-.73l-7.1-7.07c-1.19-1.17-2.39-2.34-3.64-3.47-.31-.28-.63-.56-.96-.83-.41.08-.46-1.31-1.5,0,.2.52.44.81.68,1.18l.74,1.03c3.18,4.2,6.53,8.24,9.83,12.32-.48.45-.96.9-1.42,1.37-1.05-.91-2.1-1.82-3.15-2.73-2.52-2.19-5.03-4.39-7.61-6.53-.65-.53-1.3-1.06-1.97-1.57-.34-.25-.67-.51-1.07-.74-.65-.66-1.3,1.21-.59,1.07,1.03,1.38,2.16,2.59,3.27,3.84,2.83,3.13,5.73,6.19,8.6,9.28-.44.48-.87.98-1.3,1.47l-5.85-4.4c-2.69-1.99-5.31-4.04-8.16-5.87-.43.11-.56-1.19-1.52.16.27.51.54.76.83,1.1.57.63,1.16,1.22,1.76,1.81,1.19,1.18,2.41,2.33,3.62,3.47l6.98,6.53c-.41.52-.81,1.04-1.2,1.56l-.38-.24-8.41-5.45c-1.41-.9-2.82-1.8-4.26-2.66-.73-.43-1.43-.86-2.25-1.22-.7-.57-1.22,1.29-.48,1.1.3.32.61.6.92.89,2.5,2.25,5.11,4.33,7.7,6.44l5.03,4.1c-.37.54-.74,1.09-1.1,1.64-3.97-2.19-7.93-4.43-11.94-6.56-.74-.39-1.48-.78-2.24-1.15-.38-.19-.76-.37-1.15-.54-.45.14-.65-1.02-1.51.28.34.52.64.69.98,1,.33.27.66.53.99.79.67.51,1.34,1.01,2.01,1.5,2.71,1.97,5.45,3.87,8.18,5.79.93.65,1.85,1.3,2.78,1.96-.34.58-.65,1.17-.98,1.75-5.08-2.35-10.11-4.8-15.31-6.96-.4-.15-.79-.3-1.22-.42-.73-.48-1.1,1.28-.34,1.08.68.54,1.38.99,2.08,1.45,1.41.91,2.83,1.79,4.26,2.66l8.58,5.18.3.18c-.3.61-.61,1.21-.9,1.83l-9.26-3.55c-1.56-.59-3.13-1.18-4.71-1.73-.79-.28-1.58-.55-2.4-.78-.46.16-.71-.82-1.48.38.42.53.73.61,1.1.88,2.9,1.73,5.89,3.2,8.86,4.74l6.48,3.32c-.04.1-.09.19-.13.29-.22.53-.41,1.08-.61,1.62-.98-.3-1.97-.6-2.95-.89-3.19-.97-6.38-1.96-9.6-2.89-1.62-.45-3.2-.94-4.9-1.23-.76-.38-.99,1.26-.22,1.04.37.23.75.41,1.12.6.75.37,1.51.72,2.28,1.07,4.34,1.94,8.73,3.75,13.09,5.62-.22.66-.43,1.32-.63,1.98-2.03-.46-4.05-.93-6.08-1.39-3.26-.74-6.51-1.51-9.8-2.12-.41-.07-.83-.14-1.25-.2-.46.18-.76-.62-1.44.48.48.51.81.52,1.21.75.39.17.78.33,1.17.48,1.56.61,3.14,1.17,4.71,1.73l9.47,3.27c.36.13.73.25,1.09.38-.17.68-.33,1.36-.48,2.04l-9.31-1.45c-1.65-.25-3.3-.5-4.96-.72-.83-.11-1.66-.21-2.5-.29-.42-.04-.84-.07-1.28-.07-.78-.29-.89,1.22-.12.99,1.59.63,3.2,1.06,4.81,1.53l4.83,1.32,7.84,2.1c-.12.69-.23,1.39-.33,2.08-4.19-.34-8.37-.74-12.57-1.04-1.67-.12-3.33-.24-5.02-.25-.46.18-.77-.37-1.41.52.56.59.87.45,1.31.65.81.23,1.63.42,2.45.6,3.27.72,6.55,1.34,9.83,1.97,1.66.32,3.33.64,4.99.97-.07.71-.15,1.42-.21,2.13-5.26-.07-10.52-.21-15.79-.15-.84.02-1.67.04-2.53.15-.79-.24-.81,1.14-.03.93.42.11.83.2,1.24.27,1.65.3,3.31.52,4.97.74l9.95,1.23c.66.08,1.33.17,1.99.25-.03.72-.02,1.43-.03,2.15l-8.94.48-5,.31c-.83.06-1.67.13-2.5.21-.42.04-.83.09-1.25.15-.45.18-.76-.13-1.36.56.6.69.91.38,1.36.56.42.06.84.11,1.25.15.83.08,1.67.15,2.5.21l5,.31,8.98.48c.02.72.03,1.44.07,2.16-.69.09-1.38.17-2.07.26l-9.94,1.24c-1.66.22-3.31.44-4.96.74-.41.08-.83.16-1.24.27-.76-.18-.74,1.09.03.88.85.11,1.69.12,2.52.15,5.32.06,10.64-.09,15.95-.16.07.72.17,1.44.26,2.16-1.73.34-3.46.68-5.2,1.01-3.28.64-6.56,1.26-9.83,1.98-.82.18-1.63.37-2.44.6-.43.19-.76.09-1.27.62.56.76.92.31,1.36.45,1.69,0,3.35-.13,5.02-.25,4.29-.31,8.58-.72,12.86-1.07.12.72.25,1.43.4,2.15l-8.18,2.2-4.83,1.33c-1.61.47-3.22.9-4.79,1.53-.71-.13-.66,1.07.09.84.43,0,.85-.03,1.27-.07.84-.08,1.67-.18,2.5-.29,1.66-.22,3.31-.47,4.96-.72l9.73-1.52c.17.71.36,1.42.55,2.13-.51.18-1.03.36-1.54.54l-9.47,3.27c-1.58.56-3.15,1.12-4.71,1.73-.39.15-.78.31-1.16.48-.39.21-.75.27-1.16.7.52.79.91.21,1.34.32.42-.06.83-.13,1.24-.2,3.29-.61,6.54-1.39,9.8-2.13,2.2-.51,4.4-1.01,6.6-1.51.22.7.47,1.4.71,2.1-4.53,1.95-9.1,3.83-13.61,5.85-.76.35-1.52.7-2.27,1.07-.38.19-.75.38-1.11.6-.65-.05-.58,1.09.14.79,1.68-.28,3.27-.78,4.88-1.23,3.21-.93,6.4-1.92,9.59-2.9,1.18-.36,2.36-.72,3.54-1.07.22.56.42,1.13.66,1.69.05.13.12.25.17.38l-7.05,3.61c-2.97,1.54-5.96,3.02-8.84,4.74-.36.25-.71.39-1.05.82.47.74.89.1,1.29.15.81-.23,1.6-.5,2.39-.78,1.58-.55,3.14-1.14,4.7-1.73l9.36-3.59.54-.2c.32.68.67,1.34,1.01,2.01l-.9.55-8.58,5.18c-1.42.87-2.85,1.75-4.25,2.66-.7.46-1.4.92-2.06,1.44-.59.03-.5,1.11.18.75.41-.12.81-.26,1.2-.41,5.41-2.25,10.66-4.82,15.97-7.27.37.66.74,1.32,1.13,1.97-1.13.8-2.27,1.6-3.41,2.4-2.73,1.92-5.47,3.83-8.18,5.79-.67.49-1.35.99-2.01,1.5-.33.26-.66.52-.98.78-.32.29-.65.51-.92.92.42.69.86,0,1.23,0,.39-.17.76-.35,1.14-.53.75-.37,1.49-.76,2.23-1.15,4.25-2.26,8.43-4.65,12.64-6.96.42.63.85,1.26,1.28,1.88l-5.67,4.62c-2.59,2.11-5.2,4.2-7.69,6.43-.31.28-.61.57-.91.88-.51.1-.43,1.14.21.72.78-.35,1.49-.78,2.22-1.2,1.44-.86,2.85-1.75,4.25-2.65l8.41-5.45,1.09-.7c.46.61.93,1.2,1.4,1.8-.1.09-.2.19-.29.28l-7.32,6.84c-1.22,1.15-2.43,2.3-3.62,3.47-.59.59-1.19,1.18-1.75,1.8-.28.32-.57.6-.79,1.03.43.72.84-.09,1.19-.12,2.82-1.82,5.46-3.87,8.14-5.86l6.56-4.92c.49.57.99,1.13,1.5,1.68-3.06,3.31-6.17,6.58-9.2,9.93-1.11,1.25-2.25,2.47-3.26,3.82-.48.1-.31,1.28.3.76.37-.22.71-.47,1.04-.72.67-.51,1.32-1.03,1.96-1.57,2.57-2.13,5.09-4.34,7.61-6.52,1.27-1.1,2.54-2.21,3.81-3.3.53.53,1.07,1.04,1.61,1.55-3.47,4.32-7.02,8.58-10.37,13-.49.69-1.01,1.31-1.38,2.15.52.82.84-.16,1.17-.21.33-.27.64-.54.95-.82,1.24-1.12,2.44-2.29,3.63-3.46l7.1-7.07c.45-.45.91-.9,1.36-1.35.56.49,1.1.98,1.67,1.45l-5.54,7.92c-.95,1.37-1.9,2.74-2.83,4.13-.46.7-.92,1.39-1.37,2.11-.22.36-.44.72-.64,1.09-.46.1-.15,1.41.41.79,1.3-1.12,2.38-2.38,3.51-3.61l3.32-3.75,5.76-6.59c.58.44,1.18.87,1.77,1.29-.47.78-.94,1.56-1.41,2.35l-5.15,8.6c-.84,1.45-1.69,2.88-2.45,4.38-.18.39-.38.74-.5,1.2.62.9.85-.24,1.15-.29.57-.62,1.1-1.27,1.63-1.92,3.24-4.08,6.33-8.27,9.49-12.41.6.4,1.21.8,1.82,1.19-.87,1.72-1.75,3.43-2.62,5.15-1.52,2.98-3.05,5.94-4.48,8.97-.35.76-.7,1.52-1,2.32-.43.08,0,1.52.53.8.31-.32.56-.65.82-.98,1.01-1.35,1.93-2.74,2.86-4.12,2.31-3.44,4.53-6.94,6.81-10.39.63.35,1.26.7,1.89,1.04l-3.45,8.14-1.92,4.63-.92,2.34c-.28.8-.6,1.54-.76,2.45.72.98.87-.32,1.14-.37.24-.35.47-.7.69-1.06.44-.71.87-1.43,1.29-2.15l2.48-4.36,4.49-8.06c.65.31,1.3.61,1.95.9-.2.59-.4,1.17-.6,1.76l-3.25,9.48c-.53,1.59-1.05,3.17-1.52,4.79-.11.4-.22.81-.31,1.23-.4.06.16,1.62.67.79.51-.72.88-1.46,1.27-2.2,1.52-2.98,2.92-6.02,4.34-9.04.85-1.83,1.71-3.65,2.57-5.47.66.26,1.32.52,1.99.77-1.27,4.8-2.61,9.59-3.79,14.43-.19.81-.38,1.63-.54,2.46-.07.42-.16.82-.16,1.29.83,1.05.89-.42,1.11-.46.75-1.52,1.36-3.07,1.99-4.62,1.24-3.11,2.42-6.23,3.62-9.35.34-.88.68-1.76,1.02-2.64.67.21,1.35.4,2.03.59l-1.5,7.81c-.61,3.29-1.31,6.54-1.67,9.91-.36.03.33,1.7.8.76.22-.4.37-.79.52-1.18.3-.79.57-1.58.84-2.37.53-1.59,1.03-3.18,1.52-4.78l2.84-9.26c.68.16,1.36.34,2.05.49l-.11.95-1.2,9.95c-.19,1.66-.37,3.32-.51,4.99-.05.85-.15,1.65-.06,2.56.86,1.12.96-.55,1.08-.55.14-.4.26-.81.38-1.21,1.44-5.33,2.59-10.71,3.84-16.06.69.11,1.38.21,2.07.3-.07,1.34-.13,2.67-.2,4.01-.17,3.34-.35,6.67-.46,10.01-.02.84-.04,1.67-.04,2.51,0,.42,0,.84.04,1.27-.22-.02.33,1.8.94.7.55-1.67.77-3.3,1.08-4.95.76-4.38,1.41-8.77,2.12-13.15.69.07,1.37.13,2.06.18l.14,7.05c.08,3.34.1,6.68.37,10.03.04.43.08.83.19,1.29.77,1.18,1.1-.68,1.05-.63.17-.84.27-1.67.37-2.5.2-1.66.36-3.33.51-4.99l.88-9.98v-.11c.36,0,.7.03,1.05.04.35,0,.69-.02,1.04-.02v.09s.89,9.98.89,9.98c.15,1.66.31,3.33.51,4.99.1.83.2,1.66.37,2.5-.06-.06.28,1.83,1.07.63.12-.46.15-.87.2-1.29.27-3.36.29-6.69.37-10.03l.14-6.97c.68-.03,1.36-.09,2.03-.14.7,4.34,1.34,8.7,2.1,13.03l.46,2.47c.18.83.31,1.63.63,2.49.65,1.15,1.26-.77,1.01-.72.03-.43.03-.85.04-1.27,0-.84-.02-1.68-.04-2.52-.1-3.35-.29-6.68-.45-10.02-.06-1.28-.13-2.55-.19-3.83.67-.08,1.34-.16,2.01-.26,1.23,5.28,2.37,10.59,3.78,15.85.12.4.24.81.38,1.21.13-.05.18,1.76,1.2.53.09-.93,0-1.73-.06-2.58-.13-1.67-.32-3.33-.51-5l-1.19-9.95-.08-.67c.66-.13,1.31-.29,1.96-.44l2.74,8.97c.49,1.6.99,3.19,1.52,4.78.27.79.54,1.59.84,2.38.16.4.31.78.53,1.19.51,1.04,1.43-.85.97-.81-.36-3.38-1.06-6.63-1.67-9.92l-1.43-7.46c.64-.17,1.28-.34,1.91-.53.29.76.59,1.53.89,2.29,1.2,3.12,2.38,6.24,3.62,9.35.63,1.55,1.23,3.1,1.99,4.63.26-.04.18,1.67,1.33.41,0-.5-.09-.89-.16-1.32-.16-.83-.35-1.65-.54-2.46-1.15-4.7-2.45-9.36-3.68-14.03.63-.22,1.24-.46,1.87-.7.79,1.69,1.58,3.38,2.38,5.08,1.42,3.02,2.82,6.06,4.34,9.04.4.75.76,1.48,1.28,2.22.55.92,1.38-.92.86-.88-.09-.42-.2-.83-.32-1.24-.46-1.62-.99-3.2-1.52-4.79l-3.25-9.48c-.15-.44-.3-.87-.45-1.31.62-.27,1.23-.54,1.85-.83l4.25,7.63,2.48,4.36c.42.72.85,1.44,1.29,2.16.22.36.45.71.7,1.06.3-.02.32,1.5,1.32.3-.16-.94-.48-1.67-.76-2.47l-.92-2.34-1.93-4.63-3.25-7.65c.61-.32,1.21-.64,1.8-.97,2.17,3.31,4.31,6.66,6.51,9.95.93,1.39,1.86,2.78,2.87,4.13.26.34.51.67.83,1,.56.8,1.24-.92.7-.9-.3-.81-.65-1.56-1.01-2.32-1.43-3.03-2.97-6-4.48-8.97-.79-1.55-1.59-3.11-2.38-4.66.59-.37,1.17-.75,1.75-1.14,3.04,3.99,6.02,8.04,9.15,11.97.53.65,1.06,1.3,1.63,1.93.35,0,.44,1.32,1.32.21-.13-.49-.32-.84-.5-1.23-.76-1.51-1.61-2.94-2.45-4.39l-5.15-8.6c-.37-.63-.75-1.25-1.13-1.88.57-.41,1.14-.82,1.7-1.25l5.4,6.19,3.32,3.75c1.14,1.23,2.21,2.49,3.52,3.62.58.68,1.11-.9.55-.9-.2-.38-.42-.74-.64-1.1-.44-.72-.9-1.41-1.37-2.11-.93-1.39-1.88-2.76-2.84-4.14l-5.25-7.5c.54-.46,1.07-.94,1.6-1.41.33.33.67.66,1,.99l7.1,7.07c1.19,1.17,2.39,2.34,3.63,3.46.31.28.63.56.96.83.36,0,.57,1.14,1.31.12-.39-.88-.91-1.47-1.39-2.18-3.26-4.3-6.71-8.45-10.09-12.64.51-.5,1.03-1,1.53-1.51,1.16,1,2.32,2.01,3.48,3.02,2.52,2.19,5.04,4.39,7.61,6.52.65.53,1.29,1.06,1.97,1.57.34.25.67.5,1.05.73.63.57.98-.86.41-.88-1.02-1.36-2.15-2.58-3.27-3.83-2.94-3.25-5.96-6.42-8.93-9.64.48-.54.95-1.08,1.41-1.64l6.27,4.7c2.68,1.99,5.31,4.04,8.15,5.86.37-.02.69.96,1.3.03-.24-.45-.52-.72-.8-1.05-.57-.62-1.16-1.21-1.75-1.8-1.19-1.17-2.4-2.32-3.62-3.47l-7.32-6.84s-.05-.04-.07-.07c.45-.58.89-1.16,1.32-1.75l.87.55,8.41,5.45c1.41.9,2.82,1.8,4.25,2.66.72.42,1.43.86,2.22,1.21.66.47.87-.82.29-.83-.29-.31-.6-.6-.91-.88-2.5-2.24-5.11-4.32-7.69-6.43l-5.51-4.49c.41-.61.81-1.22,1.2-1.84,4.16,2.29,8.3,4.64,12.5,6.87.74.39,1.48.78,2.23,1.15.38.18.75.37,1.14.53.39-.03.78.77,1.29-.05-.29-.43-.61-.65-.93-.94-.32-.27-.65-.53-.98-.79-.66-.51-1.34-1.01-2.01-1.5-2.7-1.97-5.45-3.87-8.18-5.79-1.11-.78-2.22-1.56-3.32-2.34.37-.64.71-1.3,1.07-1.95,5.29,2.44,10.52,5,15.92,7.24.39.15.78.3,1.2.41.69.37.79-.76.19-.78-.67-.53-1.37-.98-2.07-1.44-1.4-.91-2.83-1.79-4.25-2.66l-8.58-5.18-.9-.55c.33-.67.66-1.34.97-2.02l.59.22,9.36,3.58c1.56.59,3.13,1.18,4.71,1.73.79.27,1.58.55,2.39.77.4-.04.83.57,1.28-.13-.33-.42-.68-.56-1.04-.81-2.88-1.72-5.88-3.2-8.84-4.73l-7.15-3.66c.05-.13.12-.26.17-.4.22-.57.42-1.14.63-1.71,1.23.37,2.46.75,3.69,1.12,3.19.97,6.38,1.96,9.59,2.89,1.61.45,3.2.94,4.87,1.22.7.27.74-.71.11-.72-.36-.22-.74-.41-1.11-.6-.75-.37-1.51-.72-2.27-1.07-4.58-2.05-9.21-3.95-13.81-5.93.24-.72.47-1.44.69-2.17,2.29.52,4.57,1.04,6.86,1.57,3.26.74,6.51,1.51,9.8,2.12.41.07.82.14,1.24.2.4-.06.86.37,1.27-.22-.37-.38-.74-.47-1.13-.67-.38-.17-.77-.33-1.16-.48-1.56-.61-3.13-1.17-4.71-1.73l-9.47-3.27c-.61-.22-1.23-.43-1.85-.64.19-.74.37-1.49.53-2.24.06,0,.13.02.2.03l9.9,1.55c1.65.25,3.3.5,4.96.72.83.11,1.66.21,2.49.29.42.04.83.07,1.26.07.71.17.7-.66.05-.65-1.57-.62-3.18-1.05-4.78-1.52l-4.83-1.32-8.59-2.3c.14-.76.26-1.53.38-2.29,4.44.35,8.88.79,13.32,1.1,1.67.12,3.33.24,5.01.25.41-.08.87.16,1.25-.3-.38-.37-.79-.38-1.19-.53-.81-.23-1.62-.42-2.44-.6-3.26-.72-6.55-1.34-9.82-1.97-1.9-.37-3.8-.74-5.7-1.11.09-.78.18-1.56.25-2.34,5.5.06,10.99.22,16.5.15.84-.02,1.67-.04,2.51-.14.69.08.67-.6.01-.58ZM177.56,102.77c-2.33-.29-4.65-.6-6.95-1.02-.41-.08-.82-.17-1.2-.31-.59-.19.38-.32.63-.37.82-.13,1.65-.21,2.48-.28,1.66-.14,3.33-.24,5-.34h.11c-.02.77-.02,1.55-.06,2.32ZM169.59,106.69c.4.13.81.23,1.21.34.81.2,1.63.39,2.44.56,1.26.27,2.53.52,3.8.78-.12.97-.26,1.94-.41,2.91-2.1-.17-4.2-.32-6.3-.42-.42-.01-.84-.02-1.26-.01-.17.06-1.39-.12-.79.51.76.39,1.57.62,2.36.88,1.6.5,3.21.95,4.82,1.39l.72.19c-.19.95-.41,1.89-.63,2.83-1.44-.22-2.89-.44-4.34-.63-.83-.11-1.66-.21-2.49-.28-.42-.03-.83-.07-1.27-.04-.86,0,.11.86.34.79,2.33,1.03,4.72,1.86,7.11,2.69-.26.92-.51,1.85-.8,2.76-.8-.18-1.6-.36-2.4-.54-1.64-.35-3.26-.71-4.93-.93-.2.08-1.3-.41-.93.44.35.27.72.46,1.09.66.75.39,1.5.74,2.26,1.09,1.34.61,2.69,1.19,4.04,1.78-.32.89-.66,1.78-1.02,2.65-1.75-.53-3.5-1.04-5.27-1.51-.81-.2-1.61-.43-2.47-.53-.85-.16-.14.95.15.88.35.24.71.45,1.07.66,1.45.84,2.93,1.62,4.41,2.39l1.09.56c-.38.86-.78,1.72-1.19,2.57l-3.29-1.23c-.79-.28-1.57-.56-2.37-.82-.4-.13-.8-.25-1.21-.36-.25.08-1.15-.65-1.06.33.64.62,1.34,1.05,2.03,1.53l2.11,1.35,2.57,1.58c-.44.83-.89,1.65-1.36,2.46-.46-.21-.92-.43-1.38-.64-1.52-.69-3.04-1.38-4.61-1.99-.39-.15-.78-.3-1.21-.4-.79-.32-.43.99-.05.92.63.56,1.3,1.07,1.97,1.58,1.29.97,2.6,1.91,3.91,2.85-.49.79-1.01,1.55-1.53,2.32-1.33-.73-2.67-1.45-4.01-2.15-.75-.38-1.49-.76-2.27-1.1-.31.07-.95-.85-1.18.18.27.39.57.66.87.96,1.22,1.15,2.51,2.22,3.79,3.29l1.24,1.02c-.54.75-1.09,1.49-1.66,2.22l-2.17-1.39c-1.43-.87-2.81-1.8-4.37-2.52-.7-.46-.74.95-.26.93.27.33.56.64.85.94.58.61,1.17,1.2,1.77,1.78.82.8,1.65,1.58,2.48,2.36-.59.7-1.19,1.38-1.81,2.06l-.46-.35c-1.34-.99-2.69-1.98-4.07-2.93-.35-.23-.7-.47-1.06-.69-.36.03-.73-1-1.28.01.44.84,1,1.4,1.54,2.07,1.14,1.31,2.31,2.61,3.48,3.89-.63.65-1.25,1.3-1.9,1.93-.92-.79-1.84-1.57-2.77-2.35-.65-.53-1.29-1.06-1.96-1.57-.34-.25-.67-.5-1.05-.73-.61-.58-1.04.85-.48.89.92,1.43,1.96,2.73,2.99,4.05.41.52.83,1.04,1.25,1.56-.67.6-1.34,1.18-2.03,1.76-1.57-1.55-3.15-3.1-4.84-4.55-.4-.02-.49-1.09-1.37-.18.14.51.37.83.57,1.21.43.73.88,1.43,1.34,2.13.7,1.06,1.42,2.1,2.14,3.15-.7.55-1.41,1.08-2.12,1.6-1.03-1.16-2.06-2.32-3.12-3.46-.58-.61-1.14-1.22-1.82-1.78-.49-.68-1.32.68-.69.82.17.4.36.77.56,1.14.89,1.66,1.82,3.27,2.78,4.88-.72.49-1.45.98-2.19,1.45-.54-.71-1.08-1.42-1.64-2.12-.52-.66-1.04-1.31-1.58-1.96-.27-.32-.54-.64-.83-.96-.44-.09-.24-1.12-1.41-.41.06.59.24.89.39,1.31.16.39.33.78.5,1.16.35.76.71,1.52,1.08,2.27.36.73.73,1.46,1.09,2.18-.75.44-1.51.85-2.27,1.26-1.06-1.59-2.14-3.18-3.26-4.74-.26-.34-.51-.67-.81-1-.35-.77-1.58.43-.89.7.23.83.53,1.61.83,2.4.51,1.33,1.06,2.64,1.6,3.96-.77.38-1.53.77-2.31,1.13-.63-1.11-1.25-2.22-1.9-3.32-.43-.72-.86-1.44-1.34-2.14-.46-.18,0-1.08-1.41-.68-.06.68.1.95.18,1.41.54,2,1.18,3.94,1.83,5.88-.18.08-.36.16-.54.24-.6.24-1.21.46-1.81.69-.27-.57-.54-1.14-.81-1.71-.75-1.5-1.44-3-2.37-4.47-.19-.84-1.78.11-1.07.54.05.44.13.85.22,1.26.17.83.36,1.64.56,2.46.24.97.49,1.94.74,2.91-.79.27-1.58.53-2.37.78-.61-1.55-1.24-3.1-1.9-4.64-.17-.38-.34-.77-.53-1.15-.45-.28.2-.98-1.32-.96-.22.74-.05.99-.05,1.47.04.42.1.84.16,1.26.24,1.62.53,3.22.83,4.82-.81.22-1.62.42-2.44.61-.31-.99-.61-1.97-.94-2.96-.26-.79-.53-1.59-.83-2.38-.15-.4-.3-.79-.5-1.19-.03-.86-1.73-.29-1.13.33,0,1.73.21,3.37.37,5.04l.2,1.77c-.83.16-1.67.31-2.5.44-.1-.4-.19-.8-.28-1.2-.4-1.63-.79-3.25-1.31-4.86-.35-.4.21-.83-1.04-1.24-.5.79-.25,1-.35,1.49-.03.85-.02,1.69,0,2.52.03,1.23.09,2.46.14,3.69-.85.11-1.7.21-2.56.29-.24-1.44-.49-2.88-.76-4.32-.17-.82-.32-1.64-.58-2.47.17-.85-1.5-.66-1.12.11-.07.43-.11.85-.14,1.27-.13,1.68-.18,3.35-.23,5.02v.62c-.88.05-1.74.07-2.61.09l-.24-2.51c-.09-.83-.18-1.66-.3-2.5-.06-.42-.12-.83-.19-1.25-.22-.47.17-.73-.68-1.41-.85.69-.46.95-.68,1.41-.07.42-.14.83-.19,1.25-.11.83-.21,1.66-.3,2.5l-.24,2.54c-.87,0-1.75,0-2.62-.04v-.7c-.07-1.67-.12-3.34-.24-5.02-.04-.42-.07-.84-.15-1.27.36-.76-1.22-.94-1.07-.1-.26.83-.41,1.65-.58,2.47-.28,1.48-.53,2.96-.78,4.45-.87-.07-1.75-.15-2.62-.25.06-1.29.11-2.57.14-3.86.02-.84.03-1.67,0-2.52-.09-.48.13-.73-.33-1.45-1.11.38-.64.82-.96,1.21-.51,1.61-.9,3.23-1.3,4.86-.12.47-.22.94-.33,1.41-.87-.13-1.74-.26-2.61-.42l.23-2.04c.16-1.67.37-3.32.37-5.03.49-.6-.92-1.11-.98-.3-.19.39-.34.78-.49,1.18-.3.79-.57,1.58-.83,2.38-.36,1.08-.69,2.17-1.03,3.25-.86-.19-1.73-.39-2.58-.6l.04-.21c.3-1.64.6-3.29.85-4.95.06-.42.12-.83.16-1.25.01-.46.15-.76-.04-1.4-1.19,0-.77.66-1.14.95-.19.38-.36.76-.53,1.15-.72,1.66-1.39,3.33-2.04,5-.85-.25-1.7-.52-2.54-.8.29-1.1.57-2.2.85-3.31.2-.81.39-1.63.56-2.45.08-.41.16-.82.21-1.25.54-.45-.64-1.24-.86-.47-.92,1.45-1.61,2.96-2.36,4.46-.34.7-.67,1.4-1,2.11-.63-.23-1.27-.45-1.9-.7-.21-.08-.41-.18-.61-.26.71-2.09,1.4-4.18,1.98-6.32.08-.44.24-.76.19-1.35-1.07-.3-.83.5-1.22.71-.48.7-.91,1.42-1.34,2.13-.74,1.24-1.44,2.49-2.15,3.74-.82-.37-1.63-.77-2.44-1.17.61-1.47,1.22-2.94,1.8-4.44.3-.78.6-1.56.83-2.39.54-.32-.35-1.31-.72-.6-.29.32-.55.65-.8.99-1.22,1.71-2.39,3.44-3.55,5.18-.8-.43-1.61-.86-2.39-1.32.45-.89.9-1.78,1.33-2.67.37-.75.73-1.51,1.07-2.27.17-.38.34-.77.5-1.16.15-.41.33-.74.39-1.27-.88-.55-.86.35-1.24.48-.29.31-.56.63-.83.95-.54.64-1.06,1.3-1.58,1.95-.66.85-1.32,1.7-1.97,2.56-.29-.18-.59-.35-.88-.54-.48-.31-.94-.65-1.41-.97,1.05-1.76,2.08-3.53,3.05-5.35.19-.37.38-.75.55-1.14.52-.21-.05-1.33-.55-.71-.66.55-1.23,1.16-1.81,1.77-1.15,1.22-2.26,2.47-3.36,3.72l-.12.13c-.74-.55-1.48-1.11-2.2-1.69.82-1.19,1.64-2.37,2.43-3.58.46-.7.92-1.4,1.34-2.13.21-.38.43-.71.56-1.18-.64-.72-.87.2-1.22.26-1.81,1.56-3.5,3.22-5.19,4.89-.71-.61-1.41-1.22-2.1-1.85.51-.64,1.03-1.28,1.54-1.93,1.02-1.32,2.07-2.62,2.99-4.04.47-.13.23-1.31-.37-.78-.37.22-.71.47-1.04.72-.67.51-1.32,1.04-1.96,1.57-1.04.87-2.07,1.75-3.1,2.63,0,0-.02-.02-.03-.02-.66-.65-1.29-1.33-1.93-2.01,1.26-1.38,2.52-2.77,3.75-4.18.53-.66,1.1-1.24,1.52-2.04-.38-.8-.84.06-1.17.08-.36.22-.71.45-1.06.68-1.38.94-2.73,1.93-4.07,2.93l-.75.56c-.63-.72-1.25-1.44-1.84-2.17.9-.85,1.81-1.71,2.7-2.58.6-.58,1.19-1.17,1.77-1.78.29-.3.57-.61.85-.94.41-.06.5-1.23-.18-.81-1.55.71-2.93,1.64-4.36,2.51l-2.39,1.53c-.58-.77-1.13-1.55-1.68-2.33l1.41-1.15c1.28-1.07,2.57-2.14,3.79-3.29.3-.3.61-.57.87-.95-.13-.86-.81-.07-1.11-.1-.77.33-1.52.71-2.26,1.09-1.39.73-2.78,1.48-4.16,2.23-.52-.8-1.03-1.59-1.52-2.41,1.34-.96,2.68-1.92,4.01-2.91.67-.51,1.33-1.01,1.96-1.57.37.03.75-1.18-.02-.87-.42.1-.81.25-1.2.4-1.56.61-3.08,1.3-4.61,1.99-.48.22-.96.44-1.43.66-.46-.83-.89-1.66-1.32-2.51l2.57-1.57,2.11-1.35c.69-.48,1.4-.9,2.03-1.52.1-.97-.81-.24-1.06-.32-.41.11-.81.23-1.21.36-.8.26-1.58.54-2.37.82l-3.24,1.21c-.39-.85-.77-1.71-1.13-2.58l.98-.5c1.48-.78,2.96-1.55,4.41-2.39.36-.21.72-.43,1.07-.66.3.12,1.01-1.09.14-.92-.86.1-1.66.33-2.47.53-1.72.46-3.42.95-5.12,1.46-.33-.87-.65-1.74-.95-2.62,1.28-.56,2.57-1.11,3.85-1.69.76-.35,1.52-.7,2.27-1.09.37-.2.74-.38,1.1-.66.36-1.03-.78-.41-.97-.53-1.67.22-3.3.59-4.94.93-.71.15-1.42.32-2.14.48-.26-.89-.49-1.78-.72-2.67,2.29-.79,4.58-1.6,6.81-2.59.21.17,1.26-.95.31-.95-.44-.02-.86.01-1.28.04-.84.07-1.67.17-2.5.28-1.33.17-2.65.38-3.97.57-.2-.9-.39-1.79-.56-2.7l.32-.08c1.61-.44,3.22-.89,4.82-1.39.8-.26,1.59-.48,2.39-.89.68-.95-.74-.62-.84-.72-.42-.01-.84,0-1.26.01-1.95.09-3.9.23-5.85.38-.13-.91-.24-1.82-.34-2.73,1.1-.22,2.2-.44,3.3-.67.82-.18,1.63-.36,2.45-.56.41-.1.81-.21,1.22-.34.09.13,1.54-.62.49-.94-1.72-.25-3.37-.19-5.05-.22-.89,0-1.78.01-2.68.02-.07-.91-.13-1.82-.17-2.73,2.13-.27,4.26-.56,6.39-.95.42-.09.82-.16,1.25-.32.97-.69-.65-.89-.68-.87-.84-.14-1.67-.21-2.51-.28-1.5-.13-3-.22-4.5-.31,0-.46-.02-.91-.02-1.37,0-.45.04-.91.05-1.36,1.49-.09,2.98-.18,4.48-.31.83-.07,1.67-.15,2.51-.28.02.02,1.67-.18.68-.9-.43-.16-.84-.24-1.25-.32-2.1-.39-4.2-.67-6.3-.94.06-.9.14-1.79.23-2.69.84,0,1.68.02,2.52.02,1.68-.03,3.32.04,5.05-.22,1.1-.35-.43-1.18-.49-1.02-.41-.13-.81-.24-1.22-.34-.81-.2-1.63-.39-2.45-.56-1.03-.22-2.05-.42-3.08-.63.12-.88.25-1.76.4-2.64,1.85.14,3.7.27,5.56.36.42.01.84.02,1.27.01.06-.12,1.6.3.87-.84-.81-.42-1.6-.63-2.4-.9-1.59-.5-3.19-.94-4.79-1.38.18-.86.39-1.72.6-2.57,1.18.18,2.37.36,3.56.52.83.11,1.66.21,2.5.28.42.03.84.07,1.29.04,1.05,0-.08-1.42-.28-1.12-2.1-.93-4.23-1.69-6.37-2.43.24-.84.47-1.68.73-2.51.54.12,1.08.25,1.62.36,1.64.35,3.26.71,4.95.94.15-.19,1.4.68,1.06-.74-.38-.3-.75-.47-1.13-.68-.75-.39-1.51-.74-2.27-1.09-1.1-.5-2.21-.98-3.32-1.46.29-.82.6-1.62.91-2.43,1.5.45,3.01.89,4.53,1.29.82.21,1.61.43,2.5.53,1,.21.28-1.51-.04-1.19-.36-.24-.72-.46-1.08-.67-1.45-.84-2.93-1.62-4.42-2.4l-.41-.21c.34-.79.69-1.57,1.06-2.34l2.61.98c.79.28,1.58.56,2.38.82.4.13.8.26,1.22.37.24-.2,1.17.93,1.24-.6-.68-.67-1.37-1.07-2.07-1.56l-2.11-1.36-1.96-1.21c.39-.75.8-1.5,1.21-2.24.25.12.51.24.76.35,1.52.69,3.05,1.38,4.62,1.99.4.15.79.3,1.23.41.89.4.68-1.51.2-1.21-.64-.57-1.31-1.08-1.98-1.59-1.12-.84-2.25-1.65-3.38-2.46.44-.72.91-1.42,1.37-2.12,1.15.62,2.3,1.25,3.46,1.85.75.38,1.49.76,2.28,1.1.34-.18.88,1.13,1.39-.42-.3-.44-.59-.69-.9-1-1.23-1.16-2.52-2.22-3.8-3.3l-.77-.63c.49-.68.97-1.36,1.48-2.02l1.68,1.08c1.44.88,2.8,1.79,4.4,2.53.75.55,1.06-1.41.44-1.18-.28-.33-.57-.64-.86-.95-.58-.61-1.18-1.2-1.78-1.78-.69-.67-1.39-1.32-2.08-1.98.53-.64,1.08-1.27,1.63-1.9l.05.04c1.35.99,2.69,1.98,4.08,2.93.35.24.7.47,1.07.69.41-.12.62,1.21,1.49-.19-.24-.5-.49-.78-.76-1.13-.26-.33-.53-.66-.81-.98-1.04-1.19-2.1-2.37-3.16-3.53.57-.61,1.14-1.22,1.73-1.8.81.69,1.61,1.38,2.43,2.06.65.53,1.3,1.06,1.97,1.57.34.25.67.51,1.07.74.63.66,1.35-1.17.65-1.07-.93-1.44-1.97-2.74-3-4.06-.33-.42-.66-.83-.99-1.24.61-.56,1.23-1.11,1.86-1.66,1.48,1.46,2.98,2.91,4.58,4.29.46-.04.37,1.24,1.54.08-.16-.56-.38-.85-.59-1.24-.43-.73-.89-1.43-1.35-2.13-.64-.97-1.3-1.91-1.95-2.86.65-.52,1.31-1.03,1.97-1.52.96,1.08,1.92,2.16,2.92,3.22.58.61,1.14,1.22,1.83,1.79.5.74,1.59-.87.84-.93-.17-.4-.37-.78-.56-1.15-.84-1.57-1.73-3.11-2.63-4.63.68-.47,1.37-.94,2.07-1.39.49.64.98,1.28,1.47,1.91.52.66,1.04,1.31,1.58,1.96.27.32.54.64.83.96.49.06.13,1.2,1.55.36-.06-.63-.25-.92-.4-1.35-.16-.39-.33-.78-.51-1.16-.35-.77-.71-1.52-1.08-2.27-.32-.66-.65-1.31-.98-1.96.71-.42,1.44-.82,2.17-1.22,1.02,1.53,2.06,3.04,3.13,4.54.26.34.51.67.81,1,.35.81,1.77-.52.99-.76-.24-.84-.54-1.62-.83-2.4-.49-1.26-1-2.5-1.52-3.74.74-.37,1.48-.75,2.24-1.1.59,1.04,1.18,2.09,1.79,3.12.43.72.86,1.44,1.34,2.14.49.17-.07,1.11,1.49.67.07-.71-.1-.97-.18-1.43-.52-1.92-1.13-3.8-1.76-5.67.17-.07.34-.15.51-.22.59-.24,1.2-.46,1.79-.68.24.5.47,1,.71,1.49.75,1.5,1.44,3,2.37,4.47.18.86,1.87-.14,1.12-.56-.05-.44-.13-.85-.22-1.27-.17-.83-.36-1.64-.56-2.46-.22-.9-.46-1.79-.69-2.68.78-.27,1.56-.53,2.35-.77.58,1.48,1.18,2.96,1.82,4.43.17.39.34.77.53,1.15.47.28-.24.99,1.37.96.23-.76.06-1,.05-1.48-.04-.42-.1-.84-.16-1.26-.23-1.54-.5-3.06-.78-4.58.8-.21,1.6-.41,2.41-.59.29.91.56,1.82.86,2.72.26.8.53,1.59.83,2.38.15.4.3.79.5,1.19.01.89,1.87.27,1.21-.35,0-1.73-.21-3.37-.37-5.04l-.17-1.52c.81-.16,1.62-.29,2.44-.42.08.31.15.63.22.94.4,1.63.79,3.25,1.31,4.87.38.4-.29.82,1.12,1.27.56-.86.27-1.03.38-1.54.03-.85.02-1.69,0-2.53-.03-1.14-.08-2.28-.13-3.41.82-.1,1.64-.2,2.47-.27.23,1.35.46,2.69.71,4.04.17.83.32,1.64.58,2.48-.23.9,1.72.69,1.26-.12.07-.44.11-.86.15-1.28.13-1.68.18-3.35.23-5.02v-.32c.83-.04,1.66-.05,2.48-.07l.21,2.19c.09.83.18,1.66.3,2.5.06.42.12.83.19,1.25.26.49-.24.69.77,1.49,1.01-.8.51-1,.77-1.49.08-.42.14-.84.19-1.25.11-.83.21-1.67.3-2.5l.21-2.2c.82.01,1.65.02,2.47.06v.34c.06,1.67.11,3.34.24,5.02.04.42.07.84.15,1.28-.47.81,1.5,1.02,1.26.12.26-.84.41-1.66.58-2.48.25-1.36.48-2.71.71-4.07.82.07,1.64.16,2.45.26-.05,1.15-.1,2.3-.13,3.45-.02.84-.03,1.68,0,2.53.12.51-.18.67.38,1.54,1.43-.46.74-.87,1.13-1.27.52-1.62.9-3.24,1.31-4.87.08-.33.15-.66.23-.99.81.13,1.61.26,2.41.41l-.18,1.58c-.16,1.67-.37,3.31-.37,5.05-.68.62,1.23,1.25,1.23.35.19-.4.35-.79.5-1.19.3-.79.57-1.58.83-2.38.31-.93.59-1.86.89-2.79.79.18,1.58.37,2.37.58-.29,1.55-.57,3.1-.8,4.66-.06.42-.12.83-.16,1.26,0,.49-.18.71.06,1.49,1.67.04.92-.68,1.4-.96.19-.38.36-.77.53-1.15.65-1.5,1.26-3,1.85-4.51.78.23,1.55.49,2.32.75-.24.92-.48,1.85-.71,2.77-.2.81-.39,1.63-.56,2.46-.08.42-.16.83-.22,1.27-.77.42.95,1.43,1.14.57.94-1.47,1.62-2.97,2.37-4.48.26-.53.5-1.06.76-1.59.59.22,1.19.43,1.78.67.17.07.34.15.51.22-.64,1.9-1.26,3.82-1.8,5.78-.08.46-.25.72-.18,1.43,1.53.43.98-.5,1.47-.67.48-.71.91-1.42,1.34-2.14.63-1.07,1.24-2.15,1.85-3.23.76.35,1.51.72,2.26,1.1-.53,1.28-1.07,2.57-1.57,3.87-.3.79-.6,1.56-.83,2.4-.73.25.59,1.52.94.73.3-.33.56-.66.81-1,1.1-1.54,2.16-3.1,3.21-4.67.75.4,1.5.8,2.23,1.23-.35.7-.71,1.41-1.06,2.12-.37.75-.73,1.51-1.08,2.27-.17.38-.34.77-.5,1.16-.15.42-.33.72-.4,1.33,1.26.75,1-.32,1.46-.4.29-.31.56-.63.83-.96.54-.65,1.06-1.3,1.58-1.96.54-.69,1.06-1.38,1.59-2.07.73.46,1.45.93,2.16,1.42-.94,1.59-1.87,3.19-2.74,4.83-.19.37-.39.75-.56,1.15-.66.11.23,1.54.73.85.68-.56,1.24-1.17,1.82-1.78,1.05-1.12,2.07-2.27,3.08-3.42.71.51,1.41,1.04,2.1,1.58-.71,1.03-1.42,2.06-2.11,3.1-.46.7-.92,1.4-1.34,2.13-.21.38-.43.7-.58,1.21.93.96.99-.15,1.4-.16,1.68-1.45,3.25-2.98,4.81-4.52.68.57,1.35,1.14,2.01,1.74-.41.51-.82,1.01-1.22,1.53-1.03,1.32-2.07,2.62-2.99,4.05-.58.02-.11,1.51.5.92.38-.23.72-.48,1.05-.73.67-.51,1.32-1.04,1.97-1.57.92-.76,1.83-1.54,2.73-2.32.65.62,1.27,1.27,1.89,1.91-1.16,1.27-2.32,2.56-3.45,3.86-.54.67-1.09,1.23-1.54,2.07.58,1.05.94,0,1.3.03.36-.22.71-.45,1.06-.69,1.39-.94,2.73-1.94,4.08-2.93l.43-.33c.61.67,1.21,1.35,1.8,2.04-.82.78-1.64,1.55-2.45,2.34-.6.59-1.19,1.17-1.77,1.78-.29.3-.58.61-.85.94-.49-.04-.43,1.41.27.94,1.56-.72,2.94-1.64,4.37-2.52l2.14-1.37c.57.72,1.11,1.46,1.65,2.21l-1.22,1c-1.28,1.07-2.57,2.14-3.79,3.29-.3.3-.61.57-.88.96.24,1.06.88.12,1.19.19.78-.34,1.52-.72,2.27-1.1,1.34-.7,2.66-1.42,3.99-2.14.52.76,1.03,1.53,1.52,2.31-1.31.93-2.61,1.87-3.89,2.83-.67.51-1.33,1.01-1.97,1.58-.39-.08-.74,1.26.06.93.43-.11.82-.26,1.21-.4,1.56-.61,3.08-1.3,4.61-1.99.45-.21.91-.42,1.36-.63.47.81.92,1.62,1.35,2.45l-2.55,1.56-2.11,1.35c-.69.48-1.4.9-2.03,1.53-.09,1,.82.25,1.07.34.41-.11.81-.24,1.21-.37.8-.26,1.58-.54,2.37-.82l3.27-1.22c.41.84.81,1.7,1.19,2.56l-1.06.55c-1.48.78-2.96,1.55-4.41,2.39-.36.21-.72.43-1.07.66-.3-.09-1,1.05-.15.88.86-.1,1.66-.33,2.47-.53,1.76-.47,3.51-.98,5.25-1.51.35.88.7,1.76,1.02,2.65-1.34.58-2.69,1.17-4.02,1.77-.76.35-1.52.7-2.26,1.09-.37.2-.74.38-1.09.66-.37.86.73.36.93.44,1.67-.22,3.3-.59,4.93-.93.79-.17,1.58-.36,2.38-.53.29.91.55,1.83.8,2.75-2.38.83-4.77,1.66-7.09,2.69-.23-.07-1.2.8-.34.8.43.02.85-.01,1.27-.04.84-.07,1.66-.17,2.49-.28,1.44-.19,2.88-.41,4.32-.63.23.94.45,1.88.64,2.83l-.7.19c-1.61.44-3.22.89-4.82,1.39-.8.26-1.6.49-2.36.88-.6.64.62.46.79.52.42.01.84,0,1.26-.01,2.1-.1,4.2-.25,6.29-.42.16.97.29,1.93.42,2.91-1.26.25-2.53.5-3.79.77-.82.18-1.63.36-2.44.56-.41.1-.81.21-1.21.34-.18,0-1.33.47-.51.68,1.67.25,3.34.19,5.01.21,1.07,0,2.15-.02,3.22-.03.09.99.18,1.97.23,2.96-2.33.29-4.65.6-6.96,1.02-.41.09-.82.17-1.22.31-.73.38.48.53.65.56.83.13,1.66.21,2.49.28,1.66.14,3.33.24,5,.34h.12c.01.51.04,1,.04,1.5,0,.5-.03,1-.04,1.5h-.12c-1.67.1-3.33.21-5,.35-.83.07-1.66.15-2.49.28-.17.03-1.38.18-.65.56.4.15.81.23,1.22.31,2.31.43,4.64.73,6.96,1.03-.05.99-.14,1.98-.23,2.96-1.08-.01-2.15-.03-3.23-.03-1.67.02-3.34-.04-5.01.21-.83.2.32.68.51.67ZM187.51,97.88l5,.31c.83.06,1.66.13,2.49.21.42.04.83.09,1.24.15.38.07.89.11,1.14.3-.25.2-.76.23-1.14.3-.41.06-.83.11-1.24.15-.83.08-1.66.15-2.49.21l-5,.31-9.59.51c0-.49.03-.99.03-1.48,0-.49-.02-.99-.03-1.48l9.59.51ZM177.62,97.26h-.11c-1.67-.1-3.33-.21-5-.35-.83-.07-1.66-.15-2.48-.28-.25-.05-1.22-.18-.63-.37.38-.14.8-.22,1.2-.31,2.3-.42,4.62-.73,6.95-1.02.04.78.05,1.55.07,2.33ZM194.13,91.7c.83.02,1.67.04,2.49.14.62.03.58.25,0,.36-.4.11-.81.19-1.22.27-1.64.3-3.3.52-4.95.74l-9.94,1.24c-.88.11-1.77.22-2.65.33-.05-.98-.12-1.95-.2-2.92,5.49-.06,10.99-.23,16.48-.16ZM177.31,91.74c-1.07.01-2.14.03-3.21.03-1.66-.02-3.35.03-4.98-.21-.62-.09.25-.31.52-.42.4-.13.8-.23,1.2-.33.81-.2,1.62-.38,2.44-.56,1.26-.27,2.52-.52,3.78-.77.09.75.19,1.51.26,2.27ZM190.3,85.29c1.66-.12,3.33-.24,5-.25.37,0,.95.03,1.1.11-.22.19-.72.31-1.09.43-.8.23-1.61.41-2.43.6-3.26.72-6.54,1.34-9.82,1.98-1.89.37-3.79.74-5.68,1.11-.11-.96-.23-1.91-.38-2.86,4.43-.36,8.86-.79,13.29-1.11ZM176.58,86.27c-2.09.16-4.18.31-6.27.41-.42.01-.83.02-1.25.01-.27,0-1.18-.05-.71-.2.72-.37,1.54-.61,2.33-.86,1.59-.5,3.2-.94,4.81-1.39l.69-.18c.15.73.27,1.47.4,2.21ZM176.16,80.97l9.9-1.55c1.65-.25,3.3-.5,4.96-.72.83-.11,1.65-.21,2.48-.29.41-.04.83-.07,1.24-.07.63-.04.49.07-.02.3-1.54.61-3.16,1.05-4.76,1.52l-4.83,1.33-8.56,2.3c-.17-.93-.37-1.86-.58-2.78.06,0,.11-.02.17-.02ZM175.48,80.87c-1.43.22-2.86.43-4.3.62-.83.11-1.66.21-2.48.28-.41.03-.83.06-1.23.04-.64,0,.15-.21.41-.41,2.29-1.01,4.68-1.84,7.06-2.67.19.71.38,1.42.55,2.13ZM181.46,74.09c3.26-.74,6.51-1.51,9.78-2.13.41-.07.82-.14,1.23-.2.34-.08.98-.05,1.05-.09-.22.22-.67.4-1.02.57-.38.17-.76.33-1.15.48-1.55.61-3.12,1.17-4.7,1.73l-9.47,3.27c-.6.21-1.21.42-1.81.63-.23-.9-.46-1.81-.73-2.71,2.27-.51,4.55-1.04,6.82-1.56ZM173.99,75.56c-.78.18-1.56.36-2.35.53-1.63.34-3.27.71-4.91.93-.27.06-1.16.06-.75-.02.31-.24.69-.43,1.05-.63.74-.38,1.49-.73,2.25-1.08,1.33-.6,2.66-1.18,4-1.76.24.68.48,1.35.7,2.04ZM176.56,69.31c3.19-.98,6.38-1.97,9.59-2.9,1.6-.45,3.21-.94,4.84-1.22.62-.11.37-.08-.05.25-.35.21-.72.4-1.09.59-.75.37-1.5.72-2.26,1.06-4.56,2.04-9.18,3.94-13.76,5.92-.29-.87-.59-1.74-.91-2.6,1.22-.37,2.44-.74,3.65-1.11ZM171.44,68.77c.23.53.44,1.08.66,1.62-1.73.52-3.47,1.03-5.22,1.49-.8.2-1.62.43-2.42.52-.61.08.08-.08.33-.38.34-.23.7-.44,1.06-.65,1.44-.83,2.92-1.61,4.4-2.38l1.05-.54c.05.11.1.22.15.33ZM171.4,65.1l9.35-3.59c1.56-.59,3.12-1.18,4.7-1.73.79-.27,1.58-.54,2.37-.77.22-.11.68-.13.87-.19-.21.21-.56.43-.86.62-2.85,1.7-5.86,3.19-8.82,4.72l-7.11,3.65c-.34-.84-.69-1.68-1.06-2.5l.56-.21ZM169.85,65.35l-3.25,1.21c-.78.28-1.57.56-2.36.82-.4.13-.79.25-1.19.36-.16.08-.53.12-.72.14.55-.53,1.27-.99,1.94-1.44l2.11-1.35,2.53-1.55c.32.6.65,1.2.95,1.81ZM184.26,53.13c.39-.15.78-.3,1.17-.4.11-.03.18-.06.23-.08-.08.05-.2.14-.32.3-.64.51-1.34.97-2.04,1.42-1.4.91-2.82,1.78-4.24,2.65l-8.58,5.18-.85.52c-.39-.8-.79-1.59-1.21-2.38,5.27-2.44,10.5-5,15.85-7.22ZM167.23,60.52c-.44.2-.88.41-1.33.61-1.52.69-3.04,1.37-4.59,1.98-.39.15-.78.29-1.16.39-.59.16.05.06.26-.34.61-.55,1.28-1.05,1.94-1.56,1.27-.95,2.57-1.88,3.87-2.81.35.57.68,1.15,1.02,1.72ZM178.1,48.71c.74-.39,1.48-.78,2.22-1.14.37-.18.75-.36,1.13-.53.15-.12.47-.18.68-.25-.19.21-.46.44-.69.63-.32.26-.64.52-.97.78-.66.51-1.33,1-2,1.5-2.7,1.96-5.44,3.87-8.17,5.79-1.09.77-2.18,1.54-3.27,2.31-.44-.76-.9-1.5-1.37-2.24,4.15-2.28,8.27-4.63,12.45-6.85ZM164.3,55.87c-1.31.72-2.63,1.43-3.95,2.12-.74.38-1.49.76-2.24,1.08-.12.1-.4.16-.6.21.2-.25.45-.5.7-.74,1.21-1.14,2.5-2.2,3.78-3.27l1.2-.98c.38.52.75,1.05,1.12,1.58ZM163.38,50.44l8.4-5.45c1.41-.9,2.81-1.8,4.24-2.65.7-.41,1.42-.84,2.14-1.17-.04.05-.08.11-.11.19-.28.3-.58.58-.89.86-2.48,2.22-5.09,4.31-7.67,6.42l-5.45,4.45c-.48-.72-.97-1.43-1.47-2.13l.81-.52ZM161.04,51.45l-2.1,1.34c-1.39.85-2.79,1.77-4.24,2.44.06-.06.11-.14.14-.25.26-.31.54-.62.83-.92.57-.6,1.17-1.19,1.76-1.77.8-.78,1.61-1.54,2.42-2.31.4.48.79.97,1.18,1.46ZM165.36,41.92c2.68-1.99,5.32-4.05,8.11-5.84.09-.11.29-.19.47-.26-.15.21-.35.42-.52.62-.56.61-1.15,1.2-1.74,1.79-1.19,1.17-2.4,2.32-3.61,3.47l-7.31,6.85s0,0-.01.01c-.52-.66-1.06-1.31-1.6-1.96l6.21-4.67ZM157.48,47.27l-.4.3c-1.34.99-2.69,1.98-4.06,2.92-.34.23-.69.46-1.04.67-.08.11-.28.18-.45.25.35-.55.84-1.11,1.28-1.65,1.13-1.29,2.27-2.56,3.43-3.83.42.44.83.89,1.24,1.34ZM158.89,39.48c2.52-2.19,5.03-4.39,7.6-6.52.64-.53,1.29-1.06,1.95-1.56.27-.2.54-.4.81-.57,0,.02-.02.04-.02.07-.98,1.31-2.12,2.55-3.23,3.79-2.92,3.23-5.91,6.38-8.87,9.58-.55-.61-1.1-1.22-1.67-1.82,1.14-.99,2.28-1.98,3.42-2.97ZM153.65,43.34c-.89.76-1.78,1.53-2.68,2.27-.64.53-1.29,1.06-1.95,1.56-.27.2-.55.41-.83.58,0-.03.02-.06.02-.1.89-1.38,1.94-2.69,2.96-4,.39-.5.8-1,1.19-1.49.43.39.87.78,1.29,1.18ZM152.42,37.65l7.1-7.07c1.19-1.17,2.39-2.33,3.62-3.45.31-.28.62-.55.94-.81.04-.09.14-.16.26-.22-.3.52-.72,1.07-1.08,1.58-3.22,4.26-6.64,8.38-10,12.55-.58-.56-1.17-1.1-1.77-1.64.31-.31.63-.63.94-.94ZM144.81,44.16c-.05.1-.18.18-.32.26.1-.2.22-.41.33-.6.42-.71.87-1.41,1.33-2.1.68-1.03,1.39-2.05,2.09-3.07.44.35.87.72,1.3,1.08-1.55,1.53-3.1,3.04-4.73,4.44ZM152.57,28.87l3.31-3.75c1.01-1.1,2.02-2.25,3.09-3.23-.17.32-.36.63-.55.94-.44.71-.89,1.4-1.36,2.09-.93,1.39-1.87,2.76-2.83,4.13l-5.19,7.43c-.6-.5-1.22-1-1.83-1.48l5.35-6.13ZM145.22,36.37c-1,1.13-2.01,2.27-3.04,3.36-.5.52-1,1.04-1.52,1.51.15-.34.33-.69.5-1.03.86-1.61,1.78-3.19,2.71-4.76.45.31.91.6,1.35.92ZM151.79,19.84c.52-.65,1.05-1.29,1.6-1.89,0-.04.03-.08.07-.12-.07.16-.15.32-.22.47-.74,1.47-1.59,2.92-2.43,4.36l-5.14,8.6c-.35.59-.71,1.19-1.07,1.78-.62-.45-1.24-.89-1.88-1.32,3.01-3.97,5.97-7.98,9.07-11.87ZM140.67,33.35c-.52.67-1.03,1.34-1.55,2.01-.52.65-1.04,1.31-1.57,1.94-.27.32-.54.63-.81.93-.02.09-.09.16-.18.23.06-.16.12-.33.18-.48.16-.38.32-.76.5-1.14.34-.76.7-1.51,1.07-2.26.34-.69.69-1.37,1.03-2.06.45.27.89.54,1.33.82ZM144.43,18.92c.93-1.38,1.85-2.78,2.84-4.1.09-.12.19-.24.28-.36-.26.65-.55,1.3-.85,1.94-1.42,3.01-2.95,5.98-4.47,8.96-.77,1.51-1.55,3.02-2.31,4.54-.64-.39-1.29-.76-1.94-1.13,2.15-3.28,4.25-6.59,6.44-9.84ZM132.79,35.22c-.14.19-.29.38-.44.56.21-.68.46-1.36.71-2.03.49-1.28,1.01-2.55,1.54-3.81.45.23.9.46,1.35.69-1.03,1.55-2.08,3.08-3.16,4.59ZM137.23,18.66l2.47-4.35c.42-.72.84-1.44,1.28-2.14.16-.26.33-.51.5-.77-.14.43-.3.86-.45,1.28l-.91,2.32-1.92,4.62-3.18,7.52c-.65-.34-1.29-.68-1.95-1l4.16-7.49ZM131.05,28.25c-.6,1.05-1.19,2.11-1.81,3.14-.43.71-.86,1.43-1.32,2.1,0,.05-.02.09-.04.13.02-.11.05-.21.07-.3.52-1.89,1.13-3.78,1.76-5.66.45.19.89.38,1.33.58ZM130.25,19c1.42-3.02,2.81-6.06,4.32-9.02.21-.39.42-.79.63-1.18-.05.18-.09.36-.14.55-.45,1.59-.98,3.18-1.5,4.76l-3.24,9.48c-.13.38-.26.76-.39,1.14-.12-.05-.23-.11-.34-.15-.54-.23-1.09-.43-1.64-.65.77-1.64,1.53-3.28,2.3-4.92ZM126.01,26.21c-.24.51-.48,1.02-.73,1.53-.62,1.26-1.24,2.55-1.94,3.73.04-.2.06-.4.1-.6.17-.81.36-1.62.55-2.43.22-.91.46-1.81.7-2.71.44.15.87.32,1.31.48ZM123.5,19.92c1.2-3.12,2.38-6.24,3.62-9.34.53-1.3,1.06-2.61,1.65-3.87-.14.72-.3,1.44-.47,2.16-1.13,4.62-2.4,9.22-3.62,13.83-.66-.23-1.32-.46-1.98-.67.27-.7.54-1.4.81-2.11ZM119.06,28.93c-.15.34-.3.67-.46,1,.04-.4.1-.8.16-1.21.23-1.52.5-3.05.78-4.57.45.12.89.23,1.34.36-.58,1.48-1.18,2.96-1.81,4.41ZM119.95,11.8c.49-1.59.99-3.19,1.52-4.77.25-.74.5-1.48.78-2.2-.37,2.98-.99,5.99-1.55,8.98l-1.39,7.24c-.67-.18-1.35-.35-2.03-.51l2.67-8.74ZM115.61,23.2c-.28.9-.56,1.81-.86,2.71-.26.79-.53,1.58-.82,2.35-.05.14-.12.28-.17.42.05-1.4.21-2.84.35-4.26l.17-1.51c.45.09.89.2,1.34.29ZM115.49,3.86c.05-.18.11-.35.16-.53-.02.37-.05.74-.07,1.1-.13,1.65-.32,3.31-.5,4.97l-1.2,9.95-.05.44c-.69-.13-1.37-.25-2.06-.36,1.21-5.21,2.34-10.43,3.72-15.56ZM110.3,22.22c-.08.31-.14.62-.22.94-.39,1.59-.78,3.19-1.27,4.73-.03-.81-.01-1.64,0-2.46.03-1.12.08-2.25.13-3.38.45.06.91.1,1.36.17ZM108.25,5.99l.45-2.45c.08-.38.16-.77.25-1.15,0,.17.01.34.01.52,0,.83-.02,1.66-.04,2.49-.1,3.33-.29,6.66-.46,10-.06,1.18-.12,2.36-.18,3.54-.7-.08-1.39-.17-2.09-.24.68-4.24,1.31-8.48,2.05-12.7ZM104.92,21.64c-.22,1.33-.45,2.65-.7,3.97-.12.57-.24,1.15-.38,1.71-.02-.18-.05-.35-.06-.53-.13-1.65-.18-3.32-.23-4.98v-.26c.45.03.91.06,1.36.1ZM101.44,8.66c.16-1.66.32-3.32.51-4.97.07-.6.16-1.19.25-1.78.25,3.27.28,6.6.36,9.9l.13,6.61c-.7-.04-1.41-.04-2.11-.06l.86-9.7ZM99.51,21.42l-.21,2.13c-.09.83-.18,1.66-.29,2.48-.06.41-.11.81-.19,1.21-.07-.4-.13-.8-.19-1.21-.11-.82-.2-1.65-.29-2.48l-.21-2.13c.23,0,.46-.02.69-.02.23,0,.46.01.68.01ZM95.08,11.81c.08-3.31.11-6.65.36-9.92.1.59.18,1.2.25,1.8.2,1.65.36,3.31.51,4.97l.86,9.69c-.71.02-1.41.02-2.12.05l.13-6.6ZM94.1,21.57v.24c-.06,1.67-.1,3.34-.23,4.98-.02.19-.04.37-.06.55-.14-.57-.27-1.15-.39-1.73-.25-1.31-.47-2.63-.69-3.95.46-.04.91-.07,1.37-.1ZM89.18,15.39c-.17-3.34-.35-6.67-.46-10-.02-.83-.04-1.66-.04-2.49,0-.19.01-.38.02-.57.09.4.17.81.26,1.21l.45,2.45c.73,4.21,1.36,8.44,2.04,12.67-.7.06-1.4.15-2.1.23-.06-1.17-.12-2.34-.17-3.5ZM88.72,22.09c.05,1.11.1,2.22.12,3.34.02.83.03,1.66,0,2.48,0,.01,0,.03,0,.04-.5-1.56-.89-3.19-1.29-4.8-.07-.3-.14-.59-.21-.89.45-.07.91-.11,1.37-.17ZM83.75,19.35l-1.19-9.95c-.19-1.66-.37-3.32-.5-4.97-.03-.39-.06-.79-.08-1.19.06.2.13.41.19.61,1.38,5.12,2.5,10.32,3.71,15.51-.69.11-1.39.23-2.08.36l-.04-.38ZM83.56,24.42c.14,1.44.31,2.91.35,4.33-.07-.16-.14-.32-.2-.49-.29-.77-.56-1.56-.82-2.35-.29-.88-.56-1.77-.84-2.65.45-.1.9-.21,1.35-.3l.17,1.45ZM76.93,13.82c-.56-3.04-1.19-6.1-1.56-9.13.29.77.56,1.55.82,2.34.53,1.58,1.02,3.17,1.52,4.77l2.65,8.68c-.69.16-1.37.33-2.06.51l-1.38-7.16ZM78.15,24.23c.28,1.5.55,2.99.77,4.49.06.41.12.82.16,1.23,0,.03,0,.06,0,.09-.18-.36-.35-.73-.51-1.1-.62-1.43-1.2-2.88-1.78-4.33.45-.13.9-.25,1.35-.37ZM69.34,8.87c-.18-.78-.36-1.56-.51-2.34.62,1.31,1.17,2.68,1.73,4.04,1.23,3.1,2.42,6.22,3.61,9.34.26.68.52,1.35.78,2.03-.67.21-1.34.44-2.01.67-1.21-4.58-2.48-9.14-3.6-13.74ZM72.98,25.82c.22.87.46,1.75.67,2.62.2.81.39,1.62.55,2.43.04.22.07.43.11.65-.71-1.2-1.33-2.51-1.96-3.78-.23-.48-.45-.96-.68-1.43.44-.16.87-.33,1.31-.48ZM67.34,23.59l-3.25-9.48c-.53-1.58-1.05-3.17-1.51-4.76-.05-.18-.09-.36-.14-.55.22.39.43.79.63,1.18,1.51,2.96,2.91,6,4.33,9.02.75,1.61,1.5,3.21,2.25,4.82-.55.22-1.1.41-1.64.64-.11.05-.22.1-.33.15-.12-.34-.23-.68-.35-1.03ZM69.69,33.33s.02.09.03.13c-.45-.67-.88-1.37-1.3-2.08-.6-1-1.17-2.02-1.74-3.04.43-.19.86-.38,1.29-.57.62,1.84,1.22,3.69,1.72,5.55ZM59.46,19.62l-1.92-4.62-.91-2.32c-.13-.37-.28-.76-.41-1.14.14.21.28.42.42.64.44.7.86,1.42,1.28,2.14l2.47,4.35,4.1,7.38c-.64.31-1.27.64-1.91.97l-3.13-7.39ZM63.08,30.08c.51,1.22,1.01,2.45,1.48,3.68.24.62.47,1.25.66,1.88-.11-.14-.23-.29-.34-.44-1.05-1.47-2.07-2.96-3.07-4.46.42-.23.84-.44,1.26-.66ZM55.45,25.34c-1.51-2.98-3.05-5.94-4.47-8.95-.26-.55-.5-1.11-.73-1.67.03.04.07.09.1.13.99,1.32,1.92,2.71,2.84,4.1,2.15,3.21,4.23,6.47,6.35,9.71-.62.35-1.25.7-1.86,1.07-.74-1.46-1.49-2.92-2.23-4.38ZM58.35,32.72c.31.63.63,1.26.94,1.89.36.75.72,1.5,1.07,2.25.17.38.34.76.49,1.13.02.05.05.11.07.17-.27-.29-.53-.6-.79-.91-.53-.64-1.05-1.29-1.57-1.94-.48-.61-.95-1.23-1.42-1.85.4-.25.8-.51,1.2-.75ZM52.04,31.22l-5.14-8.59c-.83-1.43-1.68-2.87-2.42-4.33.45.51.9,1.05,1.33,1.58,3.05,3.84,5.97,7.78,8.94,11.7-.6.4-1.18.81-1.77,1.22-.32-.53-.63-1.05-.95-1.58ZM56.43,40.24c.12.23.23.46.34.69-.42-.4-.84-.82-1.24-1.25-.97-1.03-1.92-2.1-2.86-3.17.39-.28.79-.55,1.18-.83.89,1.51,1.76,3.02,2.58,4.55ZM43.47,29c-.95-1.37-1.9-2.74-2.83-4.13-.46-.69-.92-1.39-1.35-2.09-.1-.16-.18-.32-.28-.48.93.89,1.81,1.9,2.7,2.86l3.31,3.75,5.17,5.92c-.57.44-1.14.89-1.7,1.34l-5.02-7.18ZM49.51,38.95c.64.94,1.29,1.87,1.92,2.81.46.69.91,1.39,1.33,2.1.04.06.08.13.12.2-1.53-1.32-3-2.74-4.46-4.18.37-.31.73-.64,1.1-.94ZM34.49,27.61l-.71-1c.23.19.45.38.67.58,1.23,1.11,2.42,2.28,3.61,3.45l7.1,7.07c.23.23.47.46.7.69-.54.48-1.08.96-1.61,1.45-3.28-4.07-6.62-8.1-9.77-12.25ZM45.45,42.53c.32.4.64.79.95,1.19.94,1.21,1.91,2.43,2.74,3.69-.15-.11-.3-.22-.45-.33-.66-.5-1.3-1.02-1.94-1.55-.79-.66-1.58-1.33-2.36-2,.35-.34.7-.66,1.06-1ZM31.74,34.6c-.96-1.08-1.94-2.16-2.82-3.27.08.06.15.11.23.17.66.5,1.3,1.02,1.94,1.55,2.56,2.13,5.08,4.33,7.6,6.52,1.04.9,2.07,1.8,3.11,2.7-.51.52-1,1.05-1.49,1.58-2.85-3.08-5.74-6.13-8.56-9.24ZM41.63,46.36c1.05,1.15,2.09,2.31,3.11,3.48l.79.96c.06.07.12.15.18.23-.34-.21-.67-.43-1-.65-1.37-.93-2.72-1.92-4.06-2.91h0c.33-.37.65-.74.99-1.1ZM29.67,41.58c-1.21-1.14-2.42-2.29-3.61-3.46-.58-.58-1.16-1.16-1.71-1.76,2.68,1.74,5.26,3.74,7.85,5.67l5.82,4.37c-.47.55-.95,1.1-1.41,1.67l-6.93-6.49ZM38.09,50.47c.68.64,1.36,1.28,2.03,1.93.59.58,1.19,1.17,1.76,1.77.2.21.39.43.58.64-1.23-.63-2.45-1.42-3.66-2.16l-1.62-1.03c.3-.39.6-.77.91-1.15ZM28.26,48.51c-2.58-2.11-5.2-4.2-7.67-6.42-.14-.13-.27-.26-.41-.39.45.24.91.5,1.36.77,1.43.85,2.83,1.75,4.24,2.65l8.4,5.45.33.21c-.44.59-.85,1.2-1.27,1.8l-4.99-4.07ZM34.84,54.79l.73.6c1.28,1.07,2.57,2.14,3.77,3.26.09.08.18.17.27.26-.75-.32-1.49-.7-2.23-1.08-1.14-.59-2.27-1.21-3.4-1.82.28-.41.57-.82.85-1.23ZM27.46,55.36c-2.73-1.92-5.47-3.83-8.17-5.79-.67-.49-1.34-.99-2-1.49-.33-.25-.65-.51-.97-.77-.02-.02-.05-.04-.08-.07.34.15.68.31,1.01.47.74.37,1.48.75,2.22,1.14,3.99,2.13,7.93,4.36,11.9,6.55-.4.63-.8,1.25-1.18,1.89-.91-.64-1.82-1.29-2.74-1.93ZM31.89,59.32c1.11.8,2.23,1.59,3.32,2.41.62.47,1.24.95,1.81,1.45-.21-.07-.42-.15-.62-.23-1.54-.6-3.06-1.29-4.58-1.97-.23-.11-.47-.22-.7-.32.26-.45.51-.89.77-1.34ZM27.25,62.06l-8.57-5.18c-1.42-.87-2.84-1.74-4.24-2.65-.57-.37-1.13-.76-1.67-1.16.19.07.37.14.56.21,5.13,2.13,10.15,4.58,15.22,6.93-.36.66-.7,1.33-1.04,2l-.25-.15ZM31.19,65.23l2.1,1.35c.51.35,1.06.71,1.53,1.08-.07-.01-.13-.03-.17-.07-.39-.11-.79-.23-1.18-.36-.79-.26-1.57-.53-2.36-.82l-2.56-.95c.23-.47.48-.93.72-1.4l1.92,1.18ZM18.71,64.01c-2.96-1.53-5.97-3.02-8.81-4.72-.1-.06-.21-.13-.32-.21.08.01.15.04.2.08.79.22,1.58.49,2.36.77,1.57.55,3.13,1.14,4.69,1.73l9.23,3.54c-.32.7-.62,1.4-.91,2.11l-6.44-3.3ZM26.9,69.06s.04-.08.06-.12l.38.2c1.48.77,2.96,1.55,4.39,2.38.36.21.71.42,1.04.65-.64-.11-1.31-.27-1.96-.44-1.49-.4-2.98-.83-4.46-1.27.19-.46.36-.93.55-1.39ZM10.14,66.95c-.76-.34-1.51-.69-2.26-1.06-.28-.14-.55-.29-.81-.44,1.45.28,2.93.72,4.38,1.13,3.2.93,6.39,1.92,9.59,2.9.97.3,1.94.59,2.91.88-.27.73-.54,1.46-.79,2.19-4.35-1.86-8.71-3.67-13.02-5.6ZM25.03,74c1.09.47,2.18.95,3.27,1.43.76.35,1.51.7,2.24,1.08.23.12.45.25.67.38-.1,0-.19,0-.27-.05-1.63-.22-3.27-.58-4.89-.92-.52-.11-1.03-.23-1.55-.35.17-.53.35-1.05.54-1.57ZM20.52,77.56l-9.47-3.27c-1.57-.56-3.14-1.12-4.69-1.73-.39-.15-.77-.31-1.15-.48-.13-.05-.28-.13-.43-.2.14,0,.27,0,.36.05.41.05.82.12,1.22.2,3.27.61,6.52,1.38,9.78,2.12,2.01.46,4.02.93,6.03,1.38-.22.76-.41,1.53-.6,2.29-.35-.12-.7-.24-1.05-.37ZM29.7,81.55s.05.06.08.08c-.27,0-.54-.02-.81-.04-.82-.07-1.65-.17-2.48-.28-1.17-.15-2.34-.33-3.5-.51.14-.55.28-1.1.43-1.65,2.13.74,4.25,1.5,6.28,2.4ZM12.56,81.31l-4.83-1.33c-1.55-.45-3.14-.88-4.62-1.46.34,0,.68.03,1.02.06.82.08,1.65.18,2.48.29,1.65.22,3.3.47,4.95.72l9.28,1.45c-.17.79-.34,1.57-.49,2.36l-7.79-2.09ZM22.17,84.43c1.58.44,3.17.88,4.73,1.36.67.22,1.39.44,2,.72-.11.02-.23.03-.34.01-.41.01-.82,0-1.24-.01-1.83-.09-3.66-.21-5.48-.35.1-.58.21-1.15.32-1.73ZM14.61,87.98c-3.28-.64-6.56-1.26-9.81-1.98-.81-.18-1.62-.37-2.42-.6-.15-.03-.35-.1-.54-.17.18-.03.38-.06.51-.02,1.65,0,3.32.13,4.98.25,4.18.3,8.34.7,12.52,1.05-.12.81-.21,1.62-.3,2.43-1.65-.32-3.3-.64-4.95-.96ZM21.29,89.79c1.02.2,2.03.4,3.05.62.81.18,1.63.36,2.43.56.4.1.8.21,1.19.33.08.05.16.09.24.11-1.5.19-3.1.15-4.65.17-.83,0-1.65-.01-2.48-.02.06-.59.15-1.18.22-1.77ZM17.16,94.27l-9.94-1.24c-1.65-.22-3.31-.44-4.94-.74-.41-.08-.81-.16-1.2-.26-.01,0-.02,0-.03-.01,0,0,0,0,0,0,.8-.1,1.64-.12,2.47-.14,5.24-.06,10.49.09,15.75.15-.06.83-.12,1.66-.15,2.49-.65-.08-1.31-.16-1.96-.25ZM27.01,96.12c.34.07.68.15.99.24-.12.02-.27.05-.41.09-.81.13-1.64.21-2.47.28-1.47.12-2.95.21-4.42.3.02-.61.03-1.23.07-1.84,2.09.27,4.18.55,6.24.93ZM10.15,99.64l-5-.31c-.83-.06-1.66-.13-2.49-.21-.41-.04-.83-.09-1.23-.15-.18,0-.45-.08-.66-.13.21-.05.48-.13.66-.13.41-.06.82-.1,1.23-.15.83-.08,1.66-.15,2.49-.21l5-.31,8.91-.48c0,.42-.02.84-.02,1.27,0,.43.03.85.04,1.28l-8.94-.48ZM20.66,100.65c1.49.09,2.98.18,4.46.3.83.07,1.66.15,2.47.28.15.04.33.07.46.09-.33.11-.69.19-1.04.26-2.09.38-4.2.67-6.32.94-.02-.63-.02-1.25-.03-1.88ZM3.52,105.84c-.83-.02-1.67-.04-2.47-.14-.03,0-.06-.01-.08-.02.03-.01.07-.03.11-.05.39-.11.8-.19,1.2-.26,1.63-.3,3.29-.52,4.94-.74l9.94-1.23c.68-.09,1.37-.17,2.05-.26.06.85.13,1.7.22,2.55-5.31.07-10.61.22-15.91.15ZM20.9,106.09c.88,0,1.77-.02,2.65-.02,1.64.02,3.33-.03,4.9.2-.14.02-.32.07-.47.16-.39.12-.79.23-1.19.33-.81.2-1.62.38-2.43.56-1.08.23-2.17.45-3.26.67-.07-.63-.14-1.26-.19-1.9ZM7.34,112.29c-1.66.12-3.33.24-4.99.25-.2.04-.52-.03-.74-.05.22-.08.53-.2.76-.25.8-.22,1.61-.41,2.42-.6,3.26-.72,6.54-1.34,9.82-1.97,1.73-.33,3.45-.67,5.18-1,.12.85.24,1.71.38,2.56-4.28.35-8.54.76-12.82,1.06ZM21.54,111.5c1.93-.15,3.87-.28,5.8-.38.42-.01.83-.02,1.24-.01.16-.02.39.02.56.04-.68.33-1.46.57-2.21.82-1.59.5-3.2.94-4.81,1.39l-.28.07c-.11-.64-.21-1.28-.31-1.93ZM11.57,118.19c-1.65.25-3.3.5-4.95.72-.83.11-1.65.21-2.48.29-.41.04-.83.07-1.23.07-.06,0-.1,0-.14,0,.06-.03.12-.07.2-.12,1.52-.61,3.15-1.04,4.75-1.51l4.83-1.32,8.15-2.19c.18.85.38,1.7.59,2.55l-9.71,1.52ZM22.54,116.86c1.31-.2,2.63-.4,3.95-.57.83-.11,1.65-.21,2.48-.28.41-.03.83-.06,1.22-.04.55,0-.16-.05-.44.26-2.19.97-4.47,1.77-6.75,2.56-.16-.64-.31-1.28-.46-1.93ZM16.17,123.55c-3.26.74-6.51,1.51-9.78,2.12-.41.07-.82.14-1.23.2-.22.08-.6.03-.82.06.22-.14.56-.3.83-.42.38-.17.76-.32,1.15-.48,1.55-.61,3.12-1.17,4.7-1.73l9.47-3.27c.51-.18,1.02-.35,1.52-.53.24.85.47,1.7.73,2.54-2.19.5-4.38,1-6.57,1.5ZM23.91,122.13c.7-.16,1.4-.32,2.1-.47,1.63-.34,3.27-.71,4.91-.93.16-.05.47-.04.66-.04-.29.22-.65.41-1,.59-.74.38-1.49.73-2.25,1.08-1.26.57-2.54,1.12-3.81,1.68-.21-.64-.42-1.27-.62-1.91ZM21.08,128.35c-3.19.97-6.38,1.96-9.59,2.89-1.6.45-3.21.94-4.83,1.21-.13.02-.21.04-.26.05.08-.04.2-.11.34-.24.35-.21.72-.4,1.09-.59.74-.37,1.5-.72,2.26-1.06,4.49-2.01,9.05-3.89,13.58-5.83.29.84.61,1.67.93,2.5-1.17.35-2.34.71-3.51,1.07ZM26.31,128.88c-.22-.53-.41-1.06-.61-1.6,1.69-.51,3.38-1,5.08-1.45.8-.2,1.62-.43,2.42-.52.6-.08-.09.01-.34.34-.34.23-.7.44-1.06.65-1.44.83-2.92,1.61-4.4,2.39l-.96.49c-.04-.1-.09-.2-.13-.31ZM26.25,132.6l-9.36,3.58c-1.56.59-3.12,1.18-4.7,1.73-.79.27-1.58.54-2.37.77-.21.11-.65.13-.84.19.21-.2.55-.42.84-.6,2.86-1.7,5.86-3.19,8.82-4.72l7.03-3.6c.36.83.72,1.65,1.1,2.46l-.53.2ZM27.82,132.33l3.22-1.2c.78-.28,1.57-.56,2.36-.82.4-.13.79-.25,1.19-.36.17-.08.56-.12.75-.14-.56.54-1.29,1-1.96,1.46l-2.1,1.35-2.54,1.56c-.31-.61-.62-1.22-.91-1.84ZM13.39,144.59c-.39.15-.78.3-1.17.4-.61.19-.26.14.07-.26.64-.51,1.35-.97,2.04-1.43,1.4-.91,2.82-1.78,4.24-2.65l8.58-5.18.88-.54c.42.81.84,1.61,1.29,2.4-5.3,2.45-10.55,5.02-15.93,7.25ZM30.32,137.18c.47-.22.94-.44,1.41-.65,1.52-.69,3.04-1.38,4.59-1.98,2.8-1.24.05.75-1,1.57-1.31.98-2.64,1.94-3.98,2.89-.36-.6-.69-1.22-1.03-1.83ZM19.58,149.03c-.74.39-1.48.78-2.22,1.14-.37.18-.75.36-1.13.53-.21.13-.68.24-.84.31.46-.56,1.17-1.07,1.78-1.56.66-.51,1.33-1,2-1.5,2.7-1.96,5.44-3.87,8.17-5.79,1.13-.8,2.26-1.59,3.39-2.39.47.78.97,1.55,1.47,2.31-4.21,2.31-8.39,4.69-12.63,6.94ZM33.14,141.87c1.37-.75,2.75-1.49,4.14-2.22.74-.38,1.49-.76,2.25-1.09.25-.15,1.08-.36.79-.26-.21.31-.53.61-.82.89-1.21,1.14-2.5,2.21-3.78,3.28l-1.4,1.14c-.4-.58-.8-1.16-1.18-1.75ZM34.31,147.32l-8.4,5.45c-1.41.9-2.81,1.8-4.24,2.65-.72.42-1.44.86-2.18,1.19-.6.29-.22.06.05-.33.28-.3.59-.58.89-.86,2.48-2.23,5.09-4.31,7.68-6.42l5.66-4.61c.53.76,1.07,1.51,1.62,2.25l-1.07.69ZM36.3,146.35l2.37-1.52c1.42-.87,2.83-1.8,4.32-2.49.6-.28.08.04-.11.41-.26.32-.55.62-.83.92-.57.6-1.17,1.19-1.76,1.77-.88.86-1.78,1.71-2.68,2.56-.44-.55-.87-1.1-1.3-1.66ZM32.34,155.85c-2.68,1.99-5.32,4.05-8.12,5.85-.17.15-.6.32-.76.4.17-.3.45-.61.7-.89.56-.61,1.15-1.2,1.74-1.79,1.19-1.17,2.4-2.32,3.61-3.47l7.31-6.85c.09-.09.18-.18.28-.26.58.71,1.17,1.41,1.77,2.1l-6.54,4.92ZM39.78,150.6l.73-.55c1.34-.99,2.69-1.98,4.06-2.92.34-.23.69-.46,1.05-.68.16-.14.57-.31.74-.38-.36.66-.94,1.3-1.45,1.92-1.22,1.4-2.47,2.78-3.73,4.16-.47-.51-.94-1.03-1.39-1.55ZM38.82,158.29c-2.52,2.19-5.03,4.39-7.6,6.52-.64.53-1.29,1.06-1.95,1.56-.33.25-.67.5-1.01.7-.55.35-.08.11.08-.33.99-1.32,2.13-2.56,3.24-3.8,3.02-3.34,6.12-6.6,9.17-9.91.61.66,1.22,1.33,1.86,1.97-1.27,1.09-2.53,2.19-3.79,3.29ZM43.55,154.6c1.02-.87,2.04-1.75,3.07-2.6.64-.53,1.29-1.06,1.95-1.56.33-.25.67-.5,1.01-.7.54-.35.08-.11-.05.35-.89,1.39-1.95,2.7-2.97,4.01-.5.64-1.01,1.27-1.52,1.9-.5-.46-1-.92-1.49-1.4ZM45.31,160.12l-7.1,7.07c-1.19,1.17-2.39,2.33-3.62,3.45-.31.28-.62.55-.94.81-.11.14-.41.3-.59.42.31-.65.82-1.29,1.26-1.92,3.33-4.4,6.88-8.66,10.34-12.97.65.61,1.31,1.21,1.98,1.8-.45.44-.89.89-1.34,1.33ZM52.77,153.44c.12-.15.44-.32.62-.44-.11.3-.29.62-.46.92-.42.71-.87,1.41-1.33,2.11-.79,1.2-1.61,2.37-2.42,3.55-.52-.42-1.03-.87-1.54-1.3,1.68-1.66,3.37-3.32,5.15-4.85ZM45.17,168.9l-3.32,3.75c-1.12,1.22-2.23,2.51-3.46,3.57-.03.02-.04.04-.07.06.08-.1.16-.24.18-.4.19-.36.41-.72.62-1.07.44-.71.9-1.4,1.36-2.1.93-1.39,1.88-2.76,2.83-4.13l5.53-7.91c.68.56,1.37,1.11,2.07,1.65l-5.74,6.58ZM51.93,161.71l.1-.11c1.11-1.25,2.21-2.5,3.36-3.71.57-.6,1.15-1.22,1.77-1.73.05-.04.08-.07.11-.1-.05.09-.11.21-.12.37-.16.37-.35.74-.54,1.11-.96,1.79-1.99,3.55-3.03,5.31-.54-.38-1.09-.75-1.63-1.14ZM45.95,177.92c-.52.65-1.05,1.29-1.61,1.9-.06.13-.27.28-.43.41.1-.29.24-.6.39-.89.75-1.48,1.6-2.92,2.43-4.36l5.14-8.6c.46-.77.93-1.55,1.39-2.32.71.51,1.42,1.01,2.14,1.49-3.15,4.14-6.23,8.32-9.46,12.38ZM56.49,164.78c.65-.84,1.29-1.69,1.94-2.52.52-.65,1.04-1.31,1.57-1.94.27-.32.54-.63.82-.94.08-.16.33-.33.49-.47-.07.27-.18.58-.29.86-.16.38-.32.76-.5,1.14-.35.76-.71,1.51-1.07,2.26-.43.88-.88,1.76-1.32,2.64-.55-.33-1.1-.67-1.65-1.01ZM53.33,178.84c-1.47,2.17-5.28,7.97-2.5,2.39,1.42-3.01,2.96-5.98,4.47-8.96.87-1.7,1.74-3.41,2.6-5.11.73.45,1.48.87,2.22,1.3-2.27,3.46-4.49,6.94-6.79,10.38ZM64.75,162.39c.25-.33.5-.66.77-.95,0,0,0,0,.01-.01-.01.06-.02.13-.01.22-.22.78-.52,1.57-.82,2.34-.57,1.47-1.17,2.94-1.78,4.4-.57-.28-1.13-.57-1.69-.87,1.15-1.73,2.31-3.45,3.52-5.13ZM60.53,179.1l-2.47,4.35c-.42.72-.84,1.44-1.28,2.14-.22.35-.44.7-.68,1.04-.03.12-.16.25-.28.37.15-.66.42-1.37.66-2.04l.91-2.33,1.92-4.62,3.43-8.11c.75.39,1.49.79,2.25,1.16l-4.47,8.04ZM66.17,169.92c.7-1.24,1.4-2.47,2.12-3.69.43-.71.86-1.43,1.32-2.11.04-.16.25-.34.39-.5-.04.24-.1.53-.16.78-.57,2.1-1.26,4.18-1.96,6.25-.57-.24-1.14-.48-1.71-.73ZM67.53,178.75c-1.42,3.02-2.81,6.06-4.33,9.03-.33.63-.67,1.28-1.05,1.86,0-.04,0-.09-.02-.14.09-.4.19-.8.31-1.2.46-1.6.98-3.18,1.51-4.77l3.24-9.48c.19-.57.39-1.14.58-1.71.17.07.34.16.51.23.59.26,1.2.48,1.8.72-.85,1.82-1.7,3.63-2.55,5.45ZM71.25,171.95c.33-.69.65-1.38.98-2.06.73-1.47,1.44-2.99,2.31-4.36,0,.03,0,.06.02.1-.05.4-.13.81-.21,1.21-.17.81-.36,1.62-.55,2.43-.27,1.09-.56,2.18-.84,3.28-.57-.19-1.14-.4-1.7-.61ZM74.29,177.82c-1.2,3.12-2.38,6.24-3.61,9.34-.62,1.54-1.24,3.11-1.97,4.58-.01.1-.08.2-.15.3.03-.27.07-.55.12-.83.15-.81.34-1.62.53-2.43,1.17-4.81,2.51-9.59,3.77-14.39.77.27,1.54.55,2.32.8-.34.87-.67,1.75-1.01,2.62ZM76.44,173.64c.65-1.66,1.31-3.31,2.02-4.94.17-.38.34-.76.52-1.13.01-.15.16-.33.27-.49,0,.22-.03.47-.05.67-.04.41-.1.82-.16,1.23-.24,1.64-.54,3.29-.85,4.93l-.03.18c-.58-.15-1.15-.29-1.72-.45ZM77.83,185.94c-.49,1.59-.99,3.19-1.52,4.77-.26.79-.53,1.58-.83,2.35-.1.25-.2.49-.31.73,0-.03,0-.05-.02-.08.35-3.28,1.05-6.57,1.66-9.85l1.49-7.76c.78.22,1.56.42,2.35.62l-2.82,9.23ZM81.76,174.94c.33-1.07.66-2.14,1.02-3.19.26-.79.53-1.58.82-2.35.14-.36.28-.73.45-1.07,0,0,0,0,0,.01,0,1.63-.21,3.31-.37,4.96l-.23,2c-.57-.11-1.13-.24-1.69-.35ZM82.27,193.86c-.11.4-.23.8-.37,1.18,0,.06-.03.13-.06.19-.02-.64.04-1.33.09-1.99.13-1.66.32-3.32.5-4.97l1.19-9.95.1-.91c.78.16,1.57.3,2.36.44-1.24,5.35-2.4,10.72-3.82,16.01ZM87.13,175.88c.11-.46.21-.91.32-1.37.4-1.62.79-3.25,1.29-4.82,0-.13.09-.3.17-.46.02.19.04.4.04.55.03.82.02,1.66,0,2.49-.03,1.27-.09,2.54-.14,3.81-.56-.06-1.12-.12-1.68-.2ZM89.51,191.72c-.27,1.44-.5,2.93-.9,4.3-.03-.4-.03-.82-.03-1.23,0-.83.02-1.66.04-2.49.1-3.33.29-6.67.45-10,.07-1.32.13-2.64.2-3.97.78.1,1.56.21,2.35.29-.7,4.37-1.35,8.75-2.11,13.1ZM92.56,176.43c.24-1.46.5-2.92.77-4.37.15-.76.31-1.52.52-2.24.05.35.09.71.12,1.08.13,1.65.18,3.32.23,4.99v.65c-.54-.03-1.09-.06-1.64-.1ZM97.18,179.06l-.88,9.98c-.15,1.66-.31,3.32-.51,4.98-.1.82-.2,1.65-.36,2.45,0,0,0,0,0,.01-.03-.2-.05-.41-.07-.61-.26-3.3-.29-6.65-.37-9.99l-.14-6.99c.78.05,1.56.06,2.34.09v.08ZM98.82,176.63c-.27,0-.54-.01-.81-.01l.24-2.48c.09-.83.18-1.66.29-2.48.06-.41.12-.82.19-1.22,0-.11.04-.27.08-.42.05.15.09.31.08.42.07.4.13.81.19,1.22.11.82.2,1.65.29,2.48l.24,2.47c-.27,0-.53.02-.8.03ZM102.65,185.88c-.08,3.33-.1,6.69-.36,9.99-.02.17-.04.35-.06.52-.15-.78-.25-1.58-.35-2.38-.2-1.65-.36-3.31-.51-4.97l-.88-9.98v-.05c.77-.01,1.54,0,2.31-.04l-.14,6.91ZM103.46,176.44v-.55c.06-1.67.11-3.34.24-4.99.03-.32.06-.63.11-.94.19.68.34,1.4.48,2.11.26,1.41.51,2.83.74,4.25-.52.05-1.05.09-1.57.13ZM108.53,182.3c.17,3.34.35,6.67.46,10,.02.83.04,1.66.04,2.49,0,.33-.01.66-.03.98-.35-1.3-.57-2.71-.83-4.06-.75-4.31-1.39-8.64-2.09-12.97.75-.06,1.51-.15,2.26-.24.06,1.26.13,2.52.19,3.79ZM108.88,175.89c-.05-1.21-.1-2.41-.13-3.62-.02-.83-.03-1.66,0-2.49,0-.1,0-.24.02-.38.06.11.1.22.09.31.5,1.57.89,3.2,1.29,4.81.09.38.18.77.27,1.15-.51.08-1.02.14-1.53.21ZM113.94,178.33l1.2,9.95c.19,1.66.37,3.32.51,4.97.03.51.08,1.04.09,1.55-.1-.32-.21-.63-.3-.96-1.4-5.21-2.55-10.5-3.77-15.78.74-.12,1.47-.24,2.21-.37l.07.64ZM114.04,173.28c-.15-1.52-.33-3.07-.36-4.57.1.23.2.46.29.7.29.77.56,1.56.82,2.35.32.96.62,1.93.92,2.89-.49.11-.98.23-1.48.33l-.2-1.71ZM120.75,183.87c.58,3.13,1.24,6.28,1.6,9.4-.03-.08-.07-.16-.1-.25-.3-.77-.56-1.56-.83-2.35-.53-1.58-1.02-3.17-1.52-4.77l-2.73-8.92c.72-.17,1.44-.34,2.15-.53l1.42,7.41ZM119.51,173.71c-.29-1.58-.58-3.16-.81-4.73-.06-.41-.12-.82-.16-1.23-.01-.09-.02-.21-.03-.32.04.07.07.14.06.2.18.37.35.74.52,1.12.65,1.5,1.27,3.03,1.87,4.56-.48.14-.97.27-1.45.4ZM128.33,188.81c.19.81.38,1.62.53,2.43,0,.03,0,.06.01.08-.65-1.36-1.23-2.79-1.8-4.2-1.23-3.1-2.42-6.22-3.62-9.34-.29-.75-.58-1.5-.87-2.25.7-.22,1.39-.45,2.08-.69,1.23,4.66,2.52,9.3,3.66,13.97ZM124.7,172.11c-.25-.95-.5-1.9-.73-2.85-.2-.81-.39-1.62-.55-2.43-.05-.27-.09-.54-.14-.8.74,1.24,1.39,2.6,2.04,3.91.27.55.52,1.1.79,1.65-.47.17-.93.35-1.41.52ZM130.35,174.09l3.24,9.48c.53,1.58,1.05,3.17,1.51,4.76.07.26.13.52.2.78-.26-.45-.52-.92-.76-1.38-1.51-2.96-2.91-6-4.32-9.02-.78-1.68-1.57-3.36-2.35-5.04.56-.22,1.13-.42,1.68-.66.13-.05.25-.12.38-.17.14.42.29.84.43,1.25ZM127.91,164.37c-.03-.13-.07-.28-.1-.43.07.08.13.15.13.24.46.68.89,1.39,1.32,2.1.64,1.07,1.25,2.16,1.86,3.24-.47.21-.94.42-1.42.62-.65-1.92-1.28-3.84-1.8-5.78ZM138.23,178.05l1.92,4.62.91,2.32c.18.49.37,1.01.52,1.5-.22-.31-.43-.64-.63-.96-.44-.7-.86-1.42-1.28-2.14l-2.47-4.35-4.22-7.58c.68-.33,1.35-.68,2.02-1.03l3.22,7.61ZM134.61,167.86c-.54-1.3-1.08-2.6-1.58-3.9-.27-.72-.55-1.46-.76-2.18.19.22.37.45.54.69,1.1,1.53,2.16,3.1,3.21,4.67-.47.25-.94.49-1.41.73ZM142.26,172.32c1.51,2.98,3.05,5.95,4.47,8.96.33.7.65,1.42.92,2.13-.14-.17-.27-.34-.41-.52-.99-1.33-1.92-2.72-2.84-4.1-2.2-3.28-4.32-6.61-6.49-9.92.67-.38,1.34-.76,2-1.16.78,1.54,1.57,3.08,2.35,4.61ZM139.35,165.24c-.36-.71-.72-1.42-1.07-2.13-.37-.75-.73-1.5-1.07-2.26-.17-.38-.34-.76-.5-1.14-.07-.17-.15-.37-.21-.56.12.08.23.17.25.28.28.3.55.62.81.93.53.64,1.05,1.29,1.57,1.94.54.69,1.06,1.38,1.6,2.07-.46.29-.92.58-1.39.86ZM145.69,166.43l5.14,8.6c.84,1.44,1.68,2.88,2.43,4.36.09.19.19.39.27.58-.07-.06-.14-.13-.16-.2-.56-.6-1.08-1.25-1.61-1.89-3.11-3.91-6.08-7.94-9.11-11.93.65-.44,1.29-.89,1.93-1.35.37.61.74,1.23,1.1,1.84ZM141.14,157.49c-.19-.37-.38-.74-.54-1.11,0,0,0-.01,0-.02.55.48,1.08,1.03,1.6,1.58,1.05,1.12,2.07,2.26,3.08,3.41-.46.33-.93.64-1.4.96-.95-1.59-1.87-3.2-2.75-4.82ZM154.26,168.63c.95,1.37,1.9,2.74,2.83,4.13.46.69.92,1.39,1.36,2.09.22.35.43.71.62,1.07,0,0,0,0,0,0-1.12-1-2.16-2.2-3.2-3.33l-3.31-3.75-5.39-6.17c.63-.49,1.26-1,1.88-1.51l5.22,7.47ZM148.25,159.11c-.72-1.04-1.43-2.07-2.13-3.12-.46-.7-.91-1.39-1.33-2.11-.12-.21-.24-.44-.35-.65.15.08.31.17.37.28,1.65,1.41,3.22,2.94,4.77,4.48-.45.37-.88.75-1.34,1.11ZM163.25,170.01c.38.53.81,1.09,1.11,1.63-.13-.07-.27-.15-.31-.25-.32-.26-.63-.53-.94-.81-1.23-1.12-2.42-2.28-3.62-3.45l-7.1-7.07c-.33-.32-.65-.65-.98-.97.61-.55,1.21-1.1,1.8-1.67,3.37,4.19,6.8,8.32,10.03,12.59ZM152.37,155.58c-.41-.51-.82-1.02-1.22-1.53-1.02-1.31-2.07-2.63-2.96-4,0-.06-.02-.1-.03-.15.29.18.59.4.87.61.66.5,1.31,1.03,1.95,1.56.91.76,1.82,1.53,2.72,2.3-.43.41-.88.81-1.32,1.21ZM166.01,163c1.11,1.24,2.25,2.48,3.23,3.79,0,.04.02.08.03.11-.29-.18-.57-.39-.85-.6-.66-.5-1.31-1.03-1.95-1.56-2.57-2.13-5.08-4.33-7.6-6.52-1.15-1-2.3-2-3.46-3,.58-.6,1.13-1.22,1.69-1.84,2.96,3.21,5.97,6.38,8.89,9.61ZM156.26,151.8c-1.17-1.27-2.32-2.56-3.46-3.86-.45-.54-.96-1.12-1.31-1.68.18.07.4.15.49.26.35.21.7.44,1.04.67,1.37.94,2.72,1.93,4.06,2.92l.43.32c-.42.46-.84.92-1.26,1.36ZM160.77,149.15l7.31,6.85c1.21,1.15,2.42,2.29,3.61,3.47.59.59,1.18,1.18,1.74,1.79.19.21.39.44.55.65-.19-.07-.42-.16-.51-.27-2.79-1.79-5.43-3.86-8.11-5.85l-6.25-4.7c.55-.65,1.09-1.31,1.62-1.98.01.01.02.02.04.04ZM159.87,147.74c-.82-.78-1.64-1.55-2.45-2.34-.6-.58-1.19-1.17-1.76-1.77-.29-.3-.57-.6-.83-.92-.03-.13-.11-.22-.18-.29,1.47.68,2.88,1.61,4.29,2.47l2.13,1.36c-.39.5-.79.99-1.2,1.48ZM169.5,149.05c2.58,2.11,5.2,4.2,7.67,6.42.31.28.61.57.89.86.04.09.09.16.15.22,0,0,0,0-.01,0-.74-.33-1.46-.76-2.17-1.18-1.43-.86-2.84-1.75-4.24-2.65l-8.4-5.45-.84-.54c.51-.7,1-1.42,1.49-2.14l5.48,4.47ZM163.2,143.43l-1.23-1c-1.28-1.07-2.57-2.14-3.78-3.27-.25-.25-.51-.5-.71-.76.2.05.5.12.62.22.76.33,1.5.71,2.24,1.08,1.33.7,2.66,1.41,3.98,2.13-.37.54-.75,1.07-1.13,1.6ZM170.29,142.2c2.73,1.92,5.47,3.83,8.17,5.79.67.49,1.34.99,2,1.5.33.25.66.51.97.78.24.21.52.44.71.66-.2-.07-.55-.13-.7-.25-.38-.16-.75-.34-1.13-.53-.75-.37-1.49-.75-2.22-1.14-4.19-2.23-8.31-4.58-12.47-6.87.47-.75.93-1.49,1.38-2.25,1.1.78,2.2,1.55,3.29,2.32ZM166.23,138.92c-1.31-.93-2.61-1.86-3.89-2.82-.66-.5-1.33-1.01-1.94-1.56-.2-.39-.85-.51-.25-.35.39.1.78.24,1.17.39,1.55.6,3.07,1.29,4.59,1.98.45.2.9.42,1.35.62-.34.58-.67,1.17-1.03,1.74ZM170.48,135.49l8.58,5.18c1.42.87,2.85,1.75,4.24,2.65.69.46,1.4.92,2.04,1.43.15.2.32.3.38.33-.04-.02-.13-.05-.29-.1-.39-.11-.78-.26-1.17-.4-5.36-2.23-10.59-4.79-15.87-7.23.42-.79.83-1.59,1.22-2.39l.88.54ZM168.92,134.17l-2.55-1.56-2.11-1.35c-.67-.46-1.4-.92-1.96-1.46.19.02.58.07.74.14.4.11.8.23,1.19.36.79.26,1.58.54,2.36.82l3.27,1.22c-.3.62-.63,1.22-.96,1.83ZM179.02,133.53c2.96,1.54,5.96,3.02,8.82,4.72.3.19.67.42.87.64-.17-.06-.65-.09-.89-.2-.8-.23-1.59-.5-2.37-.77-1.57-.55-3.14-1.14-4.7-1.73l-9.35-3.59-.58-.22c.37-.83.72-1.67,1.07-2.52l7.13,3.66ZM171.46,128.93c-.05.11-.11.22-.16.33l-1.07-.55c-1.48-.77-2.96-1.55-4.4-2.38-.36-.21-.72-.42-1.06-.65-.25-.29-.94-.48-.32-.39.8.09,1.62.32,2.42.52,1.75.47,3.5.98,5.24,1.5-.22.54-.42,1.09-.66,1.63ZM187.58,130.59c.76.34,1.52.69,2.26,1.06.37.19.74.38,1.09.59.43.33.67.37.05.26-1.62-.27-3.23-.77-4.84-1.22-3.21-.93-6.4-1.92-9.59-2.9-1.23-.37-2.45-.75-3.68-1.12.32-.87.63-1.73.91-2.61,4.6,1.98,9.22,3.88,13.79,5.93ZM173.31,124.19c-1.34-.58-2.69-1.17-4.02-1.77-.76-.35-1.51-.7-2.25-1.08-.36-.19-.74-.39-1.05-.63-.41-.09.48-.09.75-.03,1.64.22,3.28.58,4.91.93.79.17,1.58.35,2.37.53-.22.69-.46,1.37-.7,2.05ZM177.18,119.97l9.47,3.27c1.57.56,3.15,1.12,4.7,1.73.39.15.77.31,1.15.48.36.17.81.35,1.03.57-.07-.03-.71-.01-1.05-.09-.41-.05-.82-.12-1.23-.2-3.28-.61-6.53-1.38-9.78-2.13-2.28-.52-4.56-1.05-6.84-1.57.26-.9.5-1.81.73-2.72.61.21,1.22.42,1.83.64ZM174.94,118.97c-2.39-.83-4.77-1.66-7.07-2.68-.26-.2-1.05-.41-.41-.42.4-.02.82.01,1.24.04.83.07,1.66.17,2.48.28,1.44.19,2.88.41,4.32.62-.17.72-.36,1.43-.55,2.14ZM185.13,116.22l4.83,1.33c1.6.47,3.22.9,4.76,1.52.52.22.65.35.02.31-.41,0-.83-.03-1.24-.07-.83-.08-1.66-.18-2.48-.29-1.65-.22-3.3-.47-4.96-.72l-9.9-1.55c-.06,0-.12-.02-.18-.03.21-.93.41-1.86.58-2.79l8.57,2.3ZM176.2,113.64l-.7-.19c-1.61-.44-3.22-.89-4.81-1.39-.79-.26-1.61-.49-2.33-.86-.48-.16.43-.2.71-.21.41-.01.83,0,1.25.01,2.1.1,4.19.25,6.28.42-.12.74-.25,1.48-.4,2.22ZM183.07,109.54c3.28.64,6.56,1.26,9.82,1.98.81.18,1.63.37,2.43.6.37.12.86.24,1.09.43-.16.09-.74.11-1.11.11-1.66,0-3.33-.13-5-.25-4.44-.32-8.87-.75-13.31-1.11.15-.95.27-1.91.38-2.87,1.9.38,3.79.74,5.69,1.11ZM177.06,108.23c-1.26-.25-2.53-.5-3.79-.77-.82-.18-1.63-.36-2.44-.56-.4-.1-.81-.21-1.2-.33-.27-.11-1.14-.33-.52-.42,1.63-.24,3.32-.19,4.99-.21,1.07,0,2.15.01,3.22.03-.07.76-.16,1.51-.26,2.27ZM196.63,105.85c-.82.1-1.66.12-2.49.14-5.49.07-10.99-.1-16.48-.16.08-.97.16-1.95.21-2.92.89.11,1.77.22,2.66.33l9.94,1.24c1.65.22,3.31.44,4.95.74.41.08.82.16,1.22.27.59.11.62.34,0,.36Z"/>
  </g>
</svg>