<?xml version="1.0" encoding="UTF-8"?>
<svg id="Layer_2" data-name="Layer 2" xmlns="http://www.w3.org/2000/svg" viewBox="0 0 103.79 103.83">
  <defs>
    <style>
      .cls-1 {
        fill: #030402;
      }
    </style>
  </defs>
  <g id="OBJECTS">
    <g>
      <path class="cls-1" d="M17.88,18.62c-.09-.38-.64-.27-.66.09-.06,1.08-.39,2.14-1.38,2.72-.85.51-1.97.38-2.73-.24-.77-.63-.96-1.66-.5-2.53.46-.87,1.67-1.5,2.54-.76.46.39.57,1.24-.05,1.54-.61.29-1.27-.37-.97-.98.03-.07-.06-.15-.11-.09-.38.44-.2,1.16.29,1.45.59.35,1.39-.03,1.69-.6.37-.72.02-1.59-.61-2.02-.65-.44-1.54-.41-2.23-.07-1.22.6-1.85,2.23-1.35,3.5.54,1.34,2.07,2.06,3.46,1.81,1.63-.29,2.99-2.17,2.61-3.82Z"/>
      <path class="cls-1" d="M13.11,25.16c-.53-.99-1.55-1.53-2.67-1.48-2.36.1-4.35,2.28-3.74,4.67.63,2.45,3.58,3,5.63,2.12.36-.16.1-.8-.27-.65-1.28.51-2.98.51-4.01-.53-1.25-1.26-.76-3.35.64-4.28.72-.47,1.66-.73,2.51-.51.7.19,1.25.78,1.46,1.46.22.72.05,1.46-.46,2.01-.51.53-1.29.85-2.03.71-.55-.11-.87-.43-.87-1,0-.49.18-1.02.58-1.31.2-.14.45-.23.7-.23.21,0,.52.06.58.29.14.52-.6.78-.94.94-.22.1-.06.44.16.39.5-.13,1.04-.35,1.26-.87.19-.47.04-.98-.43-1.2-1.08-.5-2.22.38-2.45,1.44-.12.54-.09,1.18.28,1.62.34.4.88.57,1.39.6,1.03.06,2.05-.5,2.62-1.35.56-.85.54-1.95.07-2.84Z"/>
      <path class="cls-1" d="M8.42,31.77c-.75-.44-1.71-.53-2.52-.2-.93.38-1.58,1.19-1.91,2.12-.41,1.14-.29,2.44.03,3.59.13.46.81.26.71-.19-.31-1.37-.47-2.97.51-4.13.39-.46.92-.79,1.53-.84.59-.05,1.2.12,1.65.52.89.8.91,2.31-.04,3.07-.45.35-1.05.53-1.61.41-.66-.14-1.16-.62-1.08-1.33.07-.65.66-1.46,1.41-1.15.27.11.41.4.35.68-.03.13-.1.27-.23.33-.1.04-.27.04-.31-.08-.1-.29-.54-.17-.46.13.1.34.44.51.78.47.36-.04.65-.32.75-.66.23-.83-.49-1.55-1.3-1.48-.94.07-1.5.94-1.57,1.82-.07.93.62,1.66,1.51,1.84.79.17,1.64-.07,2.26-.58.66-.55.96-1.42.87-2.27-.1-.85-.56-1.62-1.31-2.05Z"/>
      <path class="cls-1" d="M7.39,41.46c-.34,1.07-1.04,2.27-2.26,2.45-1.16.16-1.99-.97-2.15-2-.15-1.01.33-2.05,1.37-2.3.95-.23,1.94.35,1.92,1.39,0,.49-.36,1.3-.98,1.13-.62-.18-.53-1.01.02-1.22.17-.06.17-.38-.05-.35-.68.09-1.14.8-.87,1.46.28.68,1.16.91,1.75.48.62-.45.86-1.27.73-2.01-.13-.72-.63-1.29-1.31-1.54-.64-.23-1.37-.14-1.97.15-.66.31-1.11.93-1.3,1.63-.41,1.49.37,3.37,1.89,3.89.85.29,1.83,0,2.5-.56.73-.62,1.08-1.52,1.22-2.44.05-.32-.4-.47-.5-.14Z"/>
      <path class="cls-1" d="M6.4,46.83c-.79-.84-2.1-1.19-3.19-.82-.48.16-.29.9.21.76.69-.19,1.41-.08,2,.33.65.44.97,1.18,1.01,1.94.08,1.56-.79,3.53-2.52,3.74-.82.1-1.61-.33-2.25-.81-.63-.47-1.02-1.13-.84-1.93.17-.75.74-1.31,1.47-1.54.68-.22,1.76-.3,2.15.42.41.75.2,2.17-.91,2.12-.4-.02-.81-.35-.81-.77,0-.44.46-.8.88-.79.09,0,.13-.13.05-.17-.87-.45-1.69.56-1.39,1.39.37,1.02,1.64,1.18,2.41.53.88-.73.87-2.16.18-3.02-.7-.86-2.17-.73-3.09-.33-1,.43-1.7,1.39-1.74,2.49-.04,1.2.81,2.01,1.77,2.58,1.02.61,2.15.8,3.25.27,1.06-.52,1.74-1.59,2.05-2.69.34-1.24.27-2.73-.66-3.71Z"/>
      <path class="cls-1" d="M6.05,64.72c-.37-.11-.56.41-.25.61.9.59,1.65,1.41,1.67,2.55.01.99-.66,1.9-1.58,2.25-.93.35-1.91,0-2.44-.83-.53-.83-.47-2.2.61-2.58.57-.2,1.36.12,1.3.81-.05.67-.95.91-1.33.35-.04-.06-.16-.03-.13.05.2.55.9.75,1.4.47.6-.34.67-1.22.33-1.76-.44-.68-1.36-.81-2.05-.48-.71.34-1.13,1.13-1.18,1.89-.09,1.36,1.01,2.72,2.36,2.91,1.43.2,2.82-.76,3.3-2.09.56-1.56-.39-3.67-2-4.17Z"/>
      <path class="cls-1" d="M9.33,72.12c-1.12-.04-2.1.58-2.62,1.57-1.09,2.09-.2,4.91,2.18,5.57,2.44.68,4.39-1.59,4.65-3.82.05-.39-.64-.49-.7-.09-.2,1.37-1.05,2.83-2.47,3.21-1.72.45-3.28-1.02-3.38-2.69-.05-.86.19-1.81.81-2.43.51-.51,1.3-.69,2-.53.73.17,1.29.68,1.51,1.41.21.71.09,1.54-.4,2.11-.36.42-.8.54-1.3.26-.43-.24-.79-.66-.85-1.16-.03-.25.02-.51.15-.72.1-.18.31-.42.54-.36.52.14.37.91.34,1.29-.02.24.35.27.42.05.14-.5.22-1.08-.12-1.52-.31-.4-.83-.52-1.25-.22-.98.69-.78,2.11.02,2.84.41.37.98.67,1.54.56.51-.1.93-.48,1.21-.9.57-.86.6-2.03.14-2.94-.46-.92-1.42-1.45-2.42-1.48Z"/>
      <path class="cls-1" d="M12.71,79.49c-.76.43-1.32,1.22-1.44,2.08-.14.99.24,1.96.88,2.71.78.92,1.97,1.47,3.12,1.77.46.12.63-.57.18-.71-1.34-.42-2.81-1.08-3.32-2.51-.2-.57-.22-1.19.04-1.75.25-.53.7-.98,1.27-1.17,1.13-.37,2.46.37,2.63,1.57.08.56-.07,1.18-.45,1.6-.45.5-1.12.69-1.69.27-.53-.39-.94-1.3-.29-1.79.23-.18.55-.16.77.03.1.09.19.22.17.36-.01.1-.1.25-.22.23-.3-.06-.42.38-.12.46.35.09.66-.12.8-.44.15-.33.05-.72-.2-.98-.6-.62-1.58-.35-1.94.39-.41.85.07,1.77.79,2.27.77.53,1.75.29,2.35-.38.54-.6.76-1.45.62-2.25-.15-.85-.75-1.55-1.53-1.89-.79-.34-1.68-.32-2.43.11Z"/>
      <path class="cls-1" d="M20.59,85.23c.75.83,1.45,2.04.99,3.18-.44,1.09-1.84,1.24-2.81.86-.95-.37-1.61-1.31-1.31-2.34.28-.94,1.27-1.5,2.17-.97.42.25.95.97.49,1.41-.47.45-1.14-.04-1.05-.63.03-.18-.24-.33-.33-.13-.27.64.12,1.39.83,1.48.74.1,1.37-.55,1.29-1.28-.08-.76-.67-1.38-1.37-1.63-.69-.25-1.44-.1-1.99.37-.52.44-.81,1.11-.86,1.78-.06.73.25,1.43.76,1.94,1.09,1.1,3.1,1.36,4.31.31.68-.59.92-1.58.76-2.44-.17-.94-.78-1.7-1.51-2.28-.26-.2-.6.11-.37.37Z"/>
      <path class="cls-1" d="M24.74,88.77c-1.12.27-2.08,1.22-2.31,2.35-.1.49.63.7.77.2.18-.69.64-1.26,1.28-1.57.7-.34,1.51-.25,2.19.1,1.39.71,2.66,2.45,1.98,4.06-.32.76-1.1,1.23-1.82,1.55-.72.31-1.49.32-2.09-.24-.57-.52-.76-1.3-.6-2.04.15-.7.61-1.67,1.44-1.65.86.02,1.98.91,1.38,1.85-.21.33-.71.53-1.07.32-.38-.22-.46-.8-.25-1.15.05-.08-.05-.17-.12-.12-.83.53-.36,1.74.51,1.9,1.06.19,1.84-.83,1.67-1.82-.19-1.13-1.44-1.84-2.53-1.66-1.1.17-1.72,1.52-1.83,2.51-.13,1.09.35,2.17,1.29,2.75,1.02.63,2.15.31,3.12-.24,1.04-.58,1.77-1.46,1.85-2.68.08-1.17-.5-2.3-1.31-3.12-.9-.92-2.23-1.6-3.54-1.29Z"/>
      <path class="cls-1" d="M40.06,98.02c-.29.27.08.69.4.52.97-.49,2.05-.73,3.05-.17.86.49,1.32,1.52,1.16,2.49-.16.98-.96,1.66-1.94,1.7-.98.04-2.14-.7-1.93-1.82.11-.6.79-1.11,1.36-.72.56.38.32,1.28-.36,1.33-.07,0-.1.12-.02.14.57.1,1.1-.41,1.11-.97,0-.69-.72-1.19-1.36-1.16-.81.04-1.39.77-1.44,1.54-.06.78.42,1.54,1.05,1.96,1.13.76,2.86.49,3.7-.58.89-1.14.75-2.83-.16-3.91-1.07-1.27-3.38-1.5-4.61-.35Z"/>
      <path class="cls-1" d="M48.11,98.88c-.59.95-.55,2.11.05,3.05,1.26,1.99,4.15,2.63,5.92.9,1.81-1.77.81-4.6-.98-5.94-.32-.24-.74.31-.42.56,1.08.86,1.93,2.33,1.54,3.74-.47,1.71-2.53,2.33-4.02,1.59-.77-.38-1.47-1.07-1.69-1.92-.19-.7.05-1.47.54-1.99.51-.55,1.24-.78,1.97-.6.72.17,1.38.69,1.63,1.4.18.53.06.97-.43,1.26-.42.25-.97.36-1.43.15-.23-.1-.43-.27-.55-.49-.1-.18-.21-.48-.04-.65.38-.38.97.13,1.28.35.2.14.41-.17.25-.33-.36-.37-.83-.73-1.38-.66-.5.07-.87.46-.82.97.11,1.19,1.44,1.74,2.47,1.4.53-.17,1.07-.51,1.26-1.05.17-.49.05-1.05-.18-1.5-.46-.92-1.46-1.53-2.48-1.59-1.02-.06-1.96.5-2.49,1.36Z"/>
      <path class="cls-1" d="M56.19,99.64c0,.87.4,1.75,1.09,2.28.79.61,1.82.77,2.79.59,1.19-.22,2.26-.97,3.09-1.82.33-.34-.18-.83-.52-.51-1.04.95-2.34,1.89-3.83,1.62-.6-.11-1.14-.4-1.49-.91-.33-.48-.5-1.1-.38-1.68.25-1.17,1.55-1.94,2.68-1.5.53.21.98.65,1.16,1.19.21.64.04,1.32-.61,1.6-.6.26-1.59.16-1.7-.64-.04-.29.14-.55.41-.65.13-.04.28-.05.4.03.08.06.17.21.09.31-.2.23.12.56.34.33.25-.26.22-.63.02-.91-.22-.29-.6-.4-.95-.31-.84.21-1.1,1.2-.63,1.87.53.77,1.57.83,2.36.45.84-.41,1.12-1.37.84-2.23-.25-.77-.88-1.39-1.63-1.66-.81-.3-1.72-.12-2.4.38-.69.51-1.12,1.3-1.12,2.16Z"/>
      <path class="cls-1" d="M65.09,95.69c1.09-.24,2.49-.23,3.25.73.72.92.15,2.21-.66,2.86-.8.64-1.94.74-2.68-.03-.68-.71-.67-1.85.24-2.36.42-.24,1.31-.34,1.46.28.15.63-.61.97-1.07.59-.14-.12-.41.04-.28.22.42.55,1.26.59,1.7.02.45-.59.21-1.46-.46-1.76-.7-.32-1.53-.11-2.1.37-.56.47-.8,1.19-.68,1.91.12.67.56,1.26,1.11,1.63.6.41,1.37.5,2.06.31,1.49-.39,2.73-2,2.42-3.58-.17-.88-.91-1.59-1.73-1.88-.9-.32-1.86-.18-2.72.17-.3.12-.21.58.13.5Z"/>
      <path class="cls-1" d="M70.24,93.86c-.33,1.1.02,2.41.89,3.17.38.33.92-.2.56-.56-.51-.5-.77-1.18-.72-1.89.06-.78.53-1.43,1.18-1.85,1.31-.85,3.45-1.08,4.5.31.5.66.52,1.56.43,2.35-.09.78-.47,1.45-1.25,1.69-.73.23-1.5.01-2.07-.5-.53-.48-1.14-1.37-.71-2.07.45-.73,1.78-1.26,2.29-.28.18.35.1.88-.26,1.09-.38.22-.93,0-1.12-.36-.04-.08-.17-.05-.17.05.04.98,1.33,1.18,1.9.51.7-.83.2-2.01-.74-2.35-1.07-.4-2.31.33-2.71,1.36-.4,1.04.46,2.25,1.26,2.84.88.65,2.05.78,3.03.26,1.05-.56,1.34-1.71,1.35-2.82.02-1.19-.38-2.26-1.39-2.94-.97-.66-2.24-.72-3.36-.43-1.25.32-2.5,1.13-2.88,2.42Z"/>
      <path class="cls-1" d="M85.91,85.22c.09.38.64.27.66-.09.06-1.08.39-2.14,1.38-2.72.85-.51,1.97-.38,2.73.24.77.63.96,1.66.5,2.53-.46.87-1.67,1.5-2.54.76-.46-.39-.57-1.24.05-1.54.61-.29,1.27.37.97.98-.03.07.06.15.11.09.38-.44.2-1.16-.29-1.45-.59-.35-1.39.03-1.69.6-.37.72-.02,1.59.61,2.02.65.44,1.54.41,2.23.07,1.22-.6,1.85-2.23,1.35-3.5-.54-1.34-2.07-2.06-3.46-1.81-1.63.29-2.99,2.17-2.61,3.82Z"/>
      <path class="cls-1" d="M90.68,78.67c.53.99,1.55,1.53,2.67,1.48,2.36-.1,4.35-2.28,3.74-4.67-.63-2.45-3.58-3-5.63-2.12-.36.16-.1.8.27.65,1.28-.51,2.98-.51,4.01.53,1.25,1.26.76,3.35-.64,4.28-.72.47-1.66.73-2.51.51-.7-.19-1.25-.78-1.46-1.46-.22-.72-.05-1.46.46-2.01.51-.53,1.29-.85,2.03-.71.55.11.87.43.87,1,0,.49-.18,1.02-.58,1.31-.2.14-.45.23-.7.23-.21,0-.52-.06-.58-.29-.14-.52.6-.78.94-.94.22-.1.06-.44-.16-.39-.5.13-1.04.35-1.26.87-.19.47-.04.98.43,1.2,1.08.5,2.22-.38,2.45-1.44.12-.54.09-1.18-.28-1.62-.34-.4-.88-.57-1.39-.6-1.03-.06-2.05.5-2.62,1.35-.56.85-.54,1.95-.07,2.84Z"/>
      <path class="cls-1" d="M95.37,72.06c.75.44,1.71.53,2.52.2.93-.38,1.58-1.19,1.91-2.12.41-1.14.29-2.44-.03-3.59-.13-.46-.81-.26-.71.19.31,1.37.47,2.97-.51,4.13-.39.46-.92.79-1.53.84-.59.05-1.2-.12-1.65-.52-.89-.8-.91-2.31.04-3.07.45-.35,1.05-.53,1.61-.41.66.14,1.16.62,1.08,1.33-.07.65-.66,1.46-1.41,1.15-.27-.11-.41-.4-.35-.68.03-.13.1-.27.23-.33.1-.04.27-.04.31.08.1.29.54.17.46-.13-.1-.34-.44-.51-.78-.47-.36.04-.65.32-.75.66-.23.83.49,1.55,1.3,1.48.94-.07,1.5-.94,1.57-1.82.07-.93-.62-1.66-1.51-1.84-.79-.17-1.64.07-2.26.58-.66.55-.96,1.42-.87,2.27.1.85.56,1.62,1.31,2.05Z"/>
      <path class="cls-1" d="M96.4,62.37c.34-1.07,1.04-2.27,2.26-2.45,1.16-.16,1.99.97,2.15,2,.15,1.01-.33,2.05-1.37,2.3-.95.23-1.94-.35-1.92-1.39,0-.49.36-1.3.98-1.13.62.18.53,1.01-.02,1.22-.17.06-.17.38.05.35.68-.09,1.14-.8.87-1.46-.28-.68-1.16-.91-1.75-.48-.62.45-.86,1.27-.73,2.01.13.72.63,1.29,1.31,1.54.64.23,1.37.14,1.97-.15.66-.31,1.11-.93,1.3-1.63.41-1.49-.37-3.37-1.89-3.89-.85-.29-1.83,0-2.5.56-.73.62-1.08,1.52-1.22,2.44-.05.32.4.47.5.14Z"/>
      <path class="cls-1" d="M97.39,57c.79.84,2.1,1.19,3.19.82.48-.16.29-.9-.21-.76-.69.19-1.41.08-2-.33-.65-.44-.97-1.18-1.01-1.94-.08-1.56.79-3.53,2.52-3.74.82-.1,1.61.33,2.25.81.63.47,1.02,1.13.84,1.93-.17.75-.74,1.31-1.47,1.54-.68.22-1.76.3-2.15-.42-.41-.75-.2-2.17.91-2.12.4.02.81.35.81.77,0,.43-.46.8-.88.79-.09,0-.13.13-.05.17.87.45,1.69-.56,1.39-1.39-.37-1.02-1.64-1.18-2.41-.54-.88.73-.87,2.16-.18,3.02.7.86,2.17.73,3.09.33,1-.43,1.7-1.39,1.74-2.49.04-1.2-.81-2.01-1.77-2.58-1.02-.61-2.15-.8-3.25-.27-1.06.52-1.74,1.59-2.05,2.69-.34,1.24-.27,2.73.66,3.71Z"/>
      <path class="cls-1" d="M97.74,39.11c.37.11.56-.41.25-.61-.9-.59-1.65-1.41-1.67-2.55-.01-.99.66-1.9,1.58-2.25.93-.35,1.91,0,2.44.83.53.83.47,2.2-.61,2.58-.57.2-1.36-.12-1.3-.81.05-.67.95-.91,1.33-.35.04.06.16.03.13-.05-.2-.55-.9-.75-1.4-.47-.6.34-.67,1.22-.33,1.76.44.68,1.36.81,2.05.48.71-.34,1.13-1.13,1.18-1.89.09-1.36-1.01-2.72-2.36-2.91-1.43-.2-2.82.76-3.3,2.09-.56,1.56.39,3.67,2,4.17Z"/>
      <path class="cls-1" d="M94.46,31.71c1.12.04,2.1-.58,2.62-1.57,1.09-2.09.2-4.91-2.18-5.57-2.44-.68-4.39,1.59-4.65,3.82-.05.39.64.49.7.09.2-1.37,1.05-2.83,2.47-3.21,1.72-.45,3.28,1.02,3.38,2.69.05.86-.2,1.81-.81,2.43-.51.51-1.3.69-2,.53-.73-.17-1.29-.68-1.51-1.41-.21-.71-.09-1.54.4-2.11.36-.42.8-.54,1.3-.26.43.24.79.66.85,1.16.03.25-.02.51-.15.72-.1.18-.31.42-.54.36-.52-.14-.37-.91-.34-1.29.02-.24-.35-.27-.42-.05-.14.5-.22,1.08.12,1.52.31.4.83.52,1.25.22.98-.69.78-2.11-.02-2.84-.41-.37-.98-.67-1.54-.56-.51.1-.93.48-1.21.9-.57.86-.6,2.03-.14,2.94.46.92,1.42,1.45,2.42,1.48Z"/>
      <path class="cls-1" d="M91.08,24.34c.76-.43,1.32-1.22,1.44-2.08.14-.99-.24-1.96-.88-2.72-.78-.92-1.97-1.47-3.12-1.77-.46-.12-.63.57-.18.71,1.34.42,2.81,1.08,3.32,2.51.2.57.22,1.19-.04,1.75-.25.53-.7.98-1.27,1.17-1.13.37-2.46-.37-2.63-1.57-.08-.56.07-1.18.45-1.6.45-.5,1.12-.69,1.69-.27.53.39.94,1.3.29,1.79-.23.18-.55.16-.77-.03-.1-.09-.19-.22-.17-.36.01-.1.1-.25.22-.23.3.06.42-.38.12-.46-.35-.09-.66.12-.8.44-.15.33-.05.72.2.98.6.62,1.58.35,1.94-.39.41-.85-.07-1.77-.79-2.27-.77-.53-1.75-.29-2.35.38-.54.6-.76,1.45-.62,2.25.15.85.75,1.55,1.53,1.89.79.34,1.68.32,2.43-.11Z"/>
      <path class="cls-1" d="M83.2,18.6c-.75-.83-1.45-2.04-.99-3.18.44-1.09,1.84-1.24,2.81-.86.95.37,1.61,1.31,1.31,2.34-.28.94-1.27,1.5-2.17.97-.42-.25-.95-.97-.49-1.41.47-.45,1.14.04,1.05.63-.03.18.24.33.33.13.27-.64-.12-1.39-.83-1.48-.74-.1-1.37.55-1.29,1.28.08.76.67,1.38,1.37,1.63.69.25,1.44.1,1.99-.37.52-.44.81-1.11.86-1.78.06-.73-.25-1.43-.76-1.94-1.09-1.1-3.1-1.36-4.31-.31-.68.59-.92,1.58-.76,2.44.17.94.78,1.7,1.51,2.28.26.2.6-.11.37-.37Z"/>
      <path class="cls-1" d="M79.05,15.06c1.12-.27,2.08-1.22,2.31-2.35.1-.49-.63-.7-.77-.2-.18.69-.64,1.26-1.28,1.57-.7.34-1.51.25-2.19-.1-1.39-.71-2.66-2.45-1.98-4.06.32-.76,1.1-1.23,1.82-1.55.72-.31,1.49-.32,2.09.24.57.52.76,1.3.6,2.04-.15.7-.61,1.67-1.44,1.65-.86-.02-1.98-.91-1.38-1.85.21-.33.71-.53,1.07-.32.38.22.46.8.25,1.15-.05.08.05.17.12.12.83-.53.36-1.74-.51-1.9-1.06-.19-1.84.83-1.67,1.82.19,1.13,1.44,1.84,2.53,1.66,1.1-.17,1.72-1.52,1.83-2.51.13-1.09-.35-2.17-1.29-2.75-1.02-.63-2.15-.31-3.12.24-1.04.58-1.77,1.46-1.85,2.68-.08,1.17.5,2.3,1.31,3.12.9.92,2.23,1.6,3.54,1.29Z"/>
      <path class="cls-1" d="M63.73,5.81c.29-.27-.08-.69-.4-.52-.97.49-2.05.73-3.05.17-.86-.49-1.32-1.52-1.16-2.49.16-.98.96-1.66,1.94-1.7.98-.04,2.14.7,1.93,1.82-.11.6-.79,1.11-1.36.72-.56-.38-.32-1.28.36-1.33.07,0,.1-.12.02-.14-.57-.1-1.1.41-1.11.97,0,.69.72,1.19,1.36,1.16.81-.04,1.39-.77,1.44-1.54.06-.78-.42-1.54-1.05-1.96-1.13-.76-2.86-.49-3.7.58-.89,1.14-.75,2.83.16,3.91,1.07,1.27,3.38,1.5,4.61.35Z"/>
      <path class="cls-1" d="M55.68,4.95c.59-.95.55-2.11-.05-3.05-1.26-1.99-4.15-2.63-5.92-.9-1.81,1.77-.81,4.6.98,5.94.32.24.74-.31.42-.56-1.08-.86-1.93-2.33-1.54-3.74.47-1.71,2.53-2.33,4.02-1.59.77.38,1.47,1.07,1.69,1.92.19.7-.05,1.47-.54,1.99-.51.55-1.24.78-1.97.6-.72-.17-1.38-.69-1.63-1.4-.18-.53-.06-.97.43-1.26.42-.25.97-.36,1.43-.15.23.1.43.27.55.49.1.18.21.48.04.65-.38.38-.97-.13-1.28-.35-.2-.14-.41.17-.25.33.36.37.83.73,1.38.66.5-.07.87-.46.82-.97-.11-1.19-1.44-1.74-2.47-1.4-.53.17-1.07.51-1.26,1.05-.17.49-.05,1.05.18,1.5.46.92,1.46,1.53,2.48,1.59,1.02.06,1.96-.5,2.49-1.36Z"/>
      <path class="cls-1" d="M47.6,4.19c0-.87-.4-1.75-1.09-2.28-.79-.61-1.82-.77-2.79-.59-1.19.22-2.26.97-3.09,1.82-.33.34.18.83.52.51,1.04-.95,2.34-1.89,3.83-1.62.6.11,1.14.4,1.49.91.33.48.5,1.1.38,1.68-.25,1.17-1.55,1.94-2.68,1.5-.53-.21-.98-.65-1.16-1.19-.21-.64-.04-1.32.61-1.6.6-.26,1.59-.16,1.7.64.04.29-.14.55-.41.65-.13.04-.28.05-.4-.03-.08-.06-.17-.21-.09-.31.2-.23-.12-.56-.34-.33-.25.26-.22.63-.02.91.22.29.6.4.95.31.84-.21,1.1-1.2.63-1.87-.53-.77-1.57-.83-2.36-.45-.84.41-1.12,1.37-.84,2.23.25.77.88,1.39,1.63,1.66.81.3,1.72.12,2.4-.38.69-.51,1.12-1.3,1.12-2.16Z"/>
      <path class="cls-1" d="M38.7,8.15c-1.09.24-2.49.23-3.25-.73-.72-.92-.15-2.21.66-2.86.8-.64,1.94-.74,2.68.03.68.71.67,1.85-.24,2.36-.42.24-1.31.34-1.46-.28-.15-.63.61-.97,1.07-.59.14.12.41-.04.28-.22-.42-.55-1.26-.59-1.7-.02-.45.59-.21,1.46.46,1.76.7.32,1.53.11,2.1-.37.56-.47.8-1.19.68-1.91-.12-.67-.56-1.26-1.11-1.63-.6-.41-1.37-.5-2.06-.31-1.49.39-2.73,2-2.42,3.58.17.88.91,1.59,1.73,1.88.9.32,1.86.18,2.72-.17.3-.12.21-.58-.13-.5Z"/>
      <path class="cls-1" d="M33.55,9.98c.33-1.1-.02-2.41-.89-3.17-.38-.33-.92.2-.56.56.51.5.77,1.18.72,1.89-.06.78-.53,1.43-1.18,1.85-1.31.85-3.45,1.08-4.5-.31-.5-.66-.52-1.56-.43-2.35.09-.78.47-1.45,1.25-1.7.73-.23,1.5-.01,2.07.5.53.48,1.14,1.37.71,2.07-.45.73-1.78,1.26-2.29.28-.18-.35-.1-.88.26-1.09.38-.22.93,0,1.12.36.04.08.17.05.17-.04-.04-.98-1.33-1.18-1.9-.51-.7.83-.2,2.01.74,2.35,1.07.4,2.31-.33,2.71-1.36.4-1.04-.46-2.25-1.26-2.84-.88-.65-2.05-.78-3.03-.26-1.05.56-1.34,1.71-1.35,2.82-.02,1.19.38,2.26,1.39,2.94.97.66,2.24.72,3.36.43,1.25-.32,2.5-1.13,2.88-2.42Z"/>
      <path class="cls-1" d="M22.47,16.84c-1.62.04-2.99-1.11-3.33-2.68-.32-1.45.4-3.11,1.9-3.53,1.42-.39,2.55.66,2.93,1.95.17.58.29,1.38-.06,1.92-.37.57-1.38.6-1.99.58-.74-.03-1.61-.49-1.42-1.37.09-.39.45-.7.86-.69.23,0,.42.12.56.3.05.06.23.42.19.49-.07.03-.12.09-.09.17.14.34.54.1.58-.17.07-.44-.22-.91-.57-1.15-.84-.56-1.98.06-2.14,1.01-.17,1.02.59,1.78,1.52,2.02.46.12.95.12,1.42.09.56-.04,1.16-.11,1.58-.52.75-.71.7-1.99.44-2.9-.27-.94-.86-1.82-1.72-2.31-.94-.53-2.09-.46-3.02.04-.95.52-1.57,1.5-1.76,2.55-.44,2.5,1.52,5.07,4.15,4.84.41-.04.39-.65-.02-.64Z"/>
      <path class="cls-1" d="M7.4,58.77c-.6-2.57-3.48-3.71-5.83-2.81-.37.14-.22.75.17.61,1.5-.53,3.33-.18,4.28,1.16.88,1.24.87,2.94-.3,3.99-1.1.99-2.81.87-3.67-.37-.48-.7-.51-1.56-.14-2.32.3-.61.88-1.2,1.59-1.22.74-.02,1.45.71,1.43,1.45-.01.44-.26.9-.73.97-.53.09-.95-.49-.58-.94.11-.14-.04-.39-.21-.27-.34.26-.44.68-.29,1.09.16.43.61.67,1.06.67,1.07-.02,1.62-1.22,1.4-2.15-.24-1.01-1.23-1.76-2.27-1.66-1.1.11-1.93,1-2.3,1.98-.42,1.09-.22,2.25.53,3.14.65.78,1.69,1.26,2.71,1.17,2.19-.2,3.64-2.38,3.15-4.48Z"/>
      <path class="cls-1" d="M34.87,92.66c-.38-.05-.47.6-.09.67,1.35.23,2.39,1.45,2.35,2.82-.04,1.38-1.17,2.84-2.64,2.79-1.54-.05-2.52-1.56-2.43-3,.05-.71.43-1.3,1.18-1.37.66-.06,1.44.15,2,.52.27.18.51.45.52.79.01.44-.33.84-.65,1.09-.32.24-.77.42-1.13.17-.41-.28-.23-.68.08-.96.12-.11.03-.35-.14-.34-.44.04-.77.4-.78.85-.01.44.27.83.65,1.02.93.48,2.03-.28,2.47-1.09,1.09-2.03-2.11-3.28-3.65-2.72-1.02.37-1.41,1.46-1.34,2.47.07,1.03.52,2.05,1.35,2.7.81.63,1.93.89,2.91.54,1-.35,1.75-1.15,2.14-2.12.86-2.14-.49-4.54-2.79-4.83Z"/>
      <path class="cls-1" d="M84.05,87.55c-.27-.38-.88-.04-.63.37.34.57.37,1.23.26,1.88-.11.66-.3,1.36-.76,1.86-.45.49-1.04.69-1.68.51-.62-.16-1.23-.51-1.71-.94-.81-.73-1.33-2.15-.42-3.03.75-.72,2.58-.6,2.97.47.23.62-.12,1.29-.75,1.48-.15.04-.3.06-.45.04-.17-.03-.19-.11-.2-.27-.02-.25-.02-.94.4-.87.21.04.36-.24.15-.36-.32-.2-.7-.05-.91.23-.24.32-.3.85-.25,1.23.13,1,1.43.84,2.05.42.73-.5,1.01-1.44.68-2.26-.35-.88-1.29-1.27-2.19-1.35-.84-.07-1.72.22-2.24.9-.51.67-.6,1.59-.35,2.38.27.85.92,1.52,1.66,1.99.76.48,1.73.91,2.64.64,1.03-.3,1.65-1.26,1.93-2.24.28-.97.42-2.21-.19-3.09Z"/>
      <path class="cls-1" d="M102.62,41.94c-.24-.27-.63.07-.48.37.68,1.33.35,3.35-.69,4.42-.5.52-1.23.86-1.96.78-.75-.08-1.37-.64-1.8-1.23-.82-1.14-1.15-2.96.23-3.83.58-.37,1.32-.5,1.99-.31.79.22,1.12,1.1,1.18,1.85.06.7-.32,1.78-1.21,1.68-.32-.04-.67-.28-.7-.63-.03-.4.37-.71.75-.68.18.01.24-.25.09-.33-.85-.46-1.71.59-1.4,1.4.34.88,1.46,1.13,2.22.64.95-.61,1.1-1.8.85-2.82-.12-.48-.32-.96-.68-1.31-.38-.38-.9-.55-1.42-.6-.92-.09-1.91.25-2.55.92-.7.74-.87,1.78-.65,2.75.45,1.93,2.35,3.81,4.43,2.95,1.11-.46,1.81-1.47,2.15-2.59.34-1.1.48-2.53-.35-3.45Z"/>
      <path class="cls-1" d="M72.8,3.67c-.36-.24-.74.29-.45.58,1.07,1.12.99,2.82.02,3.98-.45.53-1.23,1.26-1.97,1.26-.73,0-1.51-.39-2.06-.85-1.08-.93-1.45-2.46-.55-3.64.98-1.29,2.89-.91,3.53.52.3.68.28,1.78-.51,2.15-.3.14-.68.08-.94-.11-.35-.26-.4-1.04.21-.88.18.05.32-.18.19-.32-.35-.37-.9-.19-1.13.22-.22.4-.14.9.14,1.25.58.72,1.69.71,2.32.07.76-.76.82-1.97.41-2.91-.47-1.07-1.6-1.77-2.77-1.7-2.12.12-3.31,2.53-2.58,4.4.38.99,1.18,1.78,2.13,2.23.48.23,1.02.41,1.55.43.6.02,1.14-.26,1.63-.59,1-.68,1.84-1.7,2.04-2.92.2-1.21-.16-2.46-1.21-3.16Z"/>
    </g>
  </g>
</svg>