<?xml version="1.0" encoding="UTF-8"?>
<svg id="Layer_2" data-name="Layer 2" xmlns="http://www.w3.org/2000/svg" viewBox="0 0 102.04 101.81">
  <defs>
    <style>
      .cls-1 {
        fill: #030402;
      }
    </style>
  </defs>
  <g id="OBJECTS">
    <g>
      <path class="cls-1" d="M18.54,16.29c-.15-.44-.31-.89-.55-1.29-.11-.19-.23-.38-.35-.56-.06-.09-.13-.18-.19-.27-.05-.06-.11-.1-.17-.15-.05-.04-.08-.08-.12-.13-.13-.15-.36.02-.31.19-.06,0-.13,0-.17.08-.52.74-.92,1.55-1.28,2.38-.1.23.06.43.3.4.21-.03.42-.08.63-.1.21-.03.43-.04.64-.06.43-.04.86-.08,1.29-.13.17-.02.34-.17.28-.36ZM16.9,16.28c-.2.03-.41.07-.62.09-.08,0-.16.01-.23.02.28-.66.6-1.32.92-1.96,0,.01,0,.02,0,.03.05.1.11.19.17.28.1.18.2.37.3.56.14.28.27.56.4.84-.31.05-.63.09-.94.14Z"/>
      <path class="cls-1" d="M18.75,17.35c-.27.02-.54.06-.8.12-.15-.01-.31-.03-.46-.02-.2.02-.4.03-.61.05-.4.03-.81.06-1.21.1-.23.02-.39.25-.26.46.44.79.98,1.54,1.5,2.28.13.19.38.19.51,0,.3-.44.59-.88.83-1.36.12-.23.23-.47.32-.71.08-.21.15-.44.32-.6.12-.11.03-.33-.13-.32ZM18.23,17.99c-.11.24-.24.47-.38.69-.21.34-.44.66-.67.98-.33-.51-.66-1.02-.99-1.53.26-.04.51-.08.77-.12.19-.03.38-.06.57-.09,0,0,0,0,0,0,.04.01.07.03.12.01.22-.07.45-.12.68-.16-.04.07-.08.13-.11.2Z"/>
      <path class="cls-1" d="M20.7,14.41c-.3,0-.6.11-.88.21-.14.05-.28.1-.41.16-.18.08-.35.13-.46.3-.16.23.05.51.3.52.02,0,.03-.01.05-.01.09.21.16.42.28.62.09.16.2.31.31.46.05.07.1.14.15.22.03.04.07.08.09.12.01.03.01.07.02.11.1.3.52.3.62,0,.06-.19.06-.43.08-.63.02-.19.04-.38.06-.56.02-.19.02-.38.03-.56,0-.09,0-.18.01-.27,0-.1.02-.18.06-.28.06-.2-.11-.4-.3-.4ZM19.82,16.04c-.12-.16-.2-.34-.29-.52.07-.03.13-.07.2-.1.12-.06.2-.09.32-.14.1-.04.21-.07.31-.1-.04.23-.09.46-.12.69-.02.19-.04.38-.06.56,0,.01,0,.02,0,.04,0,0-.02-.01-.02-.02-.12-.13-.23-.27-.33-.42Z"/>
      <path class="cls-1" d="M21.49,13.12c-.13-.2-.38-.29-.59-.4-.2-.1-.4-.2-.6-.3-.41-.19-.84-.37-1.26-.53-.21-.08-.42.13-.43.33-.02.64-.06,1.27-.06,1.91,0,.24.25.45.49.37.53-.17,1.04-.38,1.55-.61.1-.05.14-.15.14-.26.04,0,.08-.02.13-.03.13,0,.25-.02.38-.02.22,0,.39-.26.26-.46ZM20.61,13.34c-.08-.06-.18-.1-.28-.06-.33.13-.67.22-1.01.32,0-.29,0-.58-.02-.87.23.1.47.19.7.29.19.09.38.18.57.28.02,0,.04.02.06.03,0,0,0,0-.01,0Z"/>
      <path class="cls-1" d="M14.68,19.17c-.04-.07-.11-.12-.19-.13-.2-.02-.37.04-.56.09-.19.05-.38.1-.57.16-.37.12-.73.24-1.1.37-.17.06-.32.29-.19.46.61.82,1.29,1.57,2.06,2.24.22.2.51.05.55-.23.06-.46.09-.92.12-1.39.01-.23.02-.45.03-.68,0-.23-.01-.49.03-.73.02-.12-.08-.18-.17-.17ZM12.87,20.11c.23-.08.45-.15.68-.23.18-.06.36-.12.53-.19.1-.03.2-.07.29-.1.06-.02.1-.06.15-.1-.03.17-.08.35-.11.51-.05.23-.1.46-.15.69-.05.26-.09.52-.13.78-.45-.43-.88-.88-1.27-1.37Z"/>
      <path class="cls-1" d="M14.13,16.44c-.32.26-.63.52-.94.79-.16.14-.31.27-.45.42-.16.15-.33.3-.43.49-.03.05-.02.11.01.15-.16,0-.32,0-.42.11-.07.09-.08.19,0,.28.14.16.4.1.58.09.19-.01.39-.02.58-.03.19,0,.37-.02.56-.03.09,0,.19-.02.28-.02.05,0,.11-.01.16-.02.04,0,.1-.03.13-.02.15.04.31-.05.35-.2.09-.33.08-.68.11-1.02.02-.33.04-.66.07-.99.03-.38-.61-.39-.6,0ZM13.88,18.16c-.08.01-.17.02-.25.03-.19.02-.39.04-.58.06-.17.02-.34.03-.51.03.07-.03.13-.06.2-.11.09-.07.17-.13.26-.2.17-.13.34-.27.5-.41.2-.17.39-.35.58-.53-.01.13-.02.25-.03.38-.02.25-.05.5-.05.75-.04,0-.08,0-.11,0Z"/>
      <path class="cls-1" d="M17.29,21.92c-.21-.21-.46-.38-.69-.57-.19-.15-.37-.29-.56-.44,0-.03-.01-.05-.01-.08,0-.05-.08-.06-.11-.03,0,0,0,0,0,0,0,0-.01,0-.02-.01-.06-.05-.15-.06-.22,0-.06.06-.06.16,0,.22l.08.07c-.02.05-.04.11-.06.16-.06.16-.13.32-.2.48-.14.32-.26.65-.4.97-.03.08-.04.16.02.23.05.06.14.1.22.07.32-.12.64-.25.95-.39.3-.13.61-.29.92-.39.13-.04.18-.21.08-.31ZM16.15,22.26c-.18.07-.36.13-.53.2.07-.2.16-.4.21-.61.05-.17.09-.34.13-.51,0-.02,0-.04.01-.06.13.11.26.23.38.34.15.13.29.26.44.39-.22.09-.44.17-.65.25Z"/>
      <path class="cls-1" d="M11.9,21.68c-.1-.17-.21-.34-.31-.51-.05-.08-.1-.15-.14-.23-.05-.1-.07-.19-.18-.25-.05-.03-.13-.04-.18,0-.01,0-.02.02-.03.03-.01,0-.03,0-.04.02-.61.49-1.16,1.07-1.73,1.62-.11.1-.07.33.09.35.78.14,1.56.26,2.34.37.12.02.27,0,.33-.13.2-.43.09-.88-.15-1.27ZM11.54,22.5c-.55-.04-1.1-.09-1.65-.15.36-.38.72-.77,1.06-1.17,0,.03,0,.06.01.09.03.2.15.38.25.56.13.21.29.44.32.67Z"/>
      <path class="cls-1" d="M11.85,24.15c0-.07-.02-.15-.11-.18-.72-.28-1.47-.42-2.23-.5-.23-.02-.36.23-.32.42.04.2.11.39.17.58.06.2.12.4.19.6.12.39.24.79.37,1.18.07.22.39.35.56.15.26-.32.52-.65.78-.98.13-.16.29-.33.39-.51.05-.09.09-.18.13-.27.05-.1.11-.19.16-.28.06-.1,0-.19-.09-.22ZM11.21,24.55c-.15.13-.27.31-.4.46-.14.16-.28.32-.42.49-.06-.21-.13-.41-.19-.62-.07-.25-.15-.5-.22-.74.53-.01,1.06.03,1.58.15-.12.09-.23.18-.34.27Z"/>
      <path class="cls-1" d="M14.33,23.46c-.15-.15-.3-.3-.47-.43-.35-.27-.75-.56-1.2-.63-.3-.05-.47.32-.21.49.02.02.05.03.07.04-.03.4-.08.8-.12,1.2-.02.19-.04.39-.07.58-.03.22-.03.43-.03.65,0,.18.24.28.36.15.13-.14.3-.26.45-.37.15-.11.3-.22.46-.33.32-.21.65-.41,1-.57.07-.03.09-.11.1-.18.03-.24-.19-.45-.34-.61ZM13.35,24.48c-.16.11-.32.22-.48.34,0,0,0,0,0,0,0-.01,0-.02,0-.03.02-.21.04-.42.06-.63.03-.33.02-.65.02-.97.18.1.36.2.53.33.15.11.29.24.42.37.05.05.11.12.17.18-.24.14-.49.27-.73.42Z"/>
      <path class="cls-1" d="M5.78,37.33c-.35-.3-.71-.61-1.12-.84-.19-.11-.39-.21-.59-.31-.1-.05-.2-.09-.3-.14-.07-.03-.14-.03-.22-.04-.06,0-.11-.03-.17-.05-.19-.07-.3.19-.18.32-.06.03-.11.07-.11.15-.08.9-.02,1.8.08,2.7.03.24.27.34.46.19.17-.13.32-.28.5-.4.17-.13.35-.25.52-.37.35-.25.7-.5,1.05-.75.14-.1.21-.32.06-.45ZM4.35,38.14c-.16.13-.32.26-.49.38-.06.05-.13.09-.19.13-.09-.72-.14-1.44-.19-2.16,0,0,.01.02.02.02.09.06.19.11.29.16.18.11.36.22.54.34.26.18.52.35.77.53-.25.2-.5.39-.75.59Z"/>
      <path class="cls-1" d="M6.5,38.14c-.22.15-.43.32-.63.5-.14.07-.28.13-.41.22-.17.11-.33.23-.5.34-.33.23-.67.46-1,.69-.19.13-.21.41,0,.53.78.46,1.62.85,2.43,1.23.21.1.42-.02.44-.26.04-.53.07-1.06.04-1.59-.01-.26-.04-.52-.08-.78-.03-.22-.09-.46-.02-.68.05-.15-.14-.3-.28-.21ZM6.36,38.96c.02.26.03.53.02.79-.01.4-.05.79-.09,1.19-.54-.27-1.08-.55-1.62-.83.2-.16.41-.32.61-.49.15-.12.3-.24.45-.36,0,0,0,0,0,0,.04,0,.08-.01.11-.05.16-.17.33-.33.51-.48,0,.08,0,.15,0,.23Z"/>
      <path class="cls-1" d="M6.71,34.62c-.26.15-.46.4-.65.62-.1.11-.19.23-.28.35-.12.16-.23.29-.25.49-.02.27.3.41.51.3.02,0,.02-.03.04-.04.18.14.35.29.55.4.16.09.33.17.5.25.08.04.16.07.24.11.04.02.1.04.14.06.03.02.05.06.07.08.24.21.6,0,.53-.31-.04-.2-.16-.4-.24-.58-.08-.17-.15-.35-.23-.52-.08-.17-.17-.34-.26-.5-.04-.08-.08-.16-.12-.24-.05-.09-.07-.17-.09-.27-.04-.2-.29-.29-.46-.19ZM6.77,36.47c-.18-.08-.34-.2-.51-.3.04-.06.08-.13.12-.19.08-.11.13-.17.21-.28.07-.08.14-.16.22-.24.08.22.15.45.24.66.08.17.15.35.23.52,0,.01,0,.02.01.03,0,0-.02,0-.03,0-.17-.06-.34-.12-.5-.19Z"/>
      <path class="cls-1" d="M6.75,33.11c-.22-.11-.48-.06-.71-.05-.22.01-.45.03-.67.05-.45.04-.91.1-1.36.17-.23.03-.3.32-.21.5.3.56.59,1.13.9,1.68.12.21.44.27.61.08.37-.41.72-.85,1.03-1.3.06-.09.04-.2,0-.3.03-.03.06-.06.1-.09.1-.07.21-.14.32-.21.19-.11.21-.42,0-.53ZM6.09,33.74c-.1-.02-.21,0-.28.09-.22.28-.47.53-.71.79-.15-.25-.3-.5-.45-.74.25-.03.5-.07.75-.1.21-.02.42-.03.63-.04.02,0,.04,0,.07,0,0,0,0,0,0,.01Z"/>
      <path class="cls-1" d="M3.88,41.75c-.07-.04-.16-.05-.23-.02-.18.09-.3.22-.44.36-.14.14-.28.28-.41.43-.26.29-.52.57-.77.87-.12.14-.13.41.07.49.93.4,1.9.71,2.9.91.29.06.47-.21.36-.47-.18-.43-.38-.84-.59-1.26-.1-.2-.21-.4-.32-.6-.11-.21-.26-.42-.34-.64-.04-.12-.16-.12-.23-.06ZM2.78,43.47c.16-.18.31-.36.47-.54.13-.14.25-.28.37-.43.07-.08.14-.16.2-.24.04-.05.06-.11.08-.16.06.17.11.34.16.5.07.22.14.45.22.67.08.25.19.49.28.74-.61-.14-1.2-.32-1.78-.55Z"/>
      <path class="cls-1" d="M2.03,39.66c-.15.38-.28.76-.42,1.15-.07.2-.13.39-.18.59-.06.21-.13.42-.13.64,0,.05.04.1.09.12-.14.07-.28.16-.31.31-.02.11.03.2.14.24.2.07.39-.11.55-.21.16-.11.33-.21.49-.31.16-.1.31-.2.47-.31.08-.05.15-.11.23-.16.04-.03.09-.06.13-.1.03-.02.07-.07.11-.08.15-.04.25-.2.21-.35-.09-.33-.27-.63-.42-.94-.15-.3-.29-.59-.44-.89-.17-.34-.72-.03-.52.29ZM2.68,41.28c-.07.05-.14.11-.2.16-.16.12-.31.23-.47.34-.14.1-.28.19-.43.28.04-.06.09-.12.12-.19.04-.1.08-.2.13-.31.08-.2.16-.4.23-.61.08-.25.16-.5.24-.75.05.11.11.23.16.34.1.22.21.46.33.67-.03.02-.07.04-.09.06Z"/>
      <path class="cls-1" d="M7.51,42.83c-.28-.08-.59-.1-.88-.15-.23-.03-.47-.07-.7-.1-.02-.02-.04-.04-.05-.06-.03-.04-.1-.02-.11.03,0,0,0,0,0,0,0,0-.01,0-.02,0-.08-.01-.16.02-.19.11-.02.08.03.17.11.19l.11.02c0,.06.02.11.03.17.03.17.05.35.07.52.04.35.1.69.14,1.04,0,.08.04.16.13.19.07.03.17.02.23-.04.22-.26.42-.54.63-.81.2-.26.38-.55.61-.8.1-.1.05-.27-.08-.31ZM6.69,43.69c-.12.15-.24.29-.36.44-.04-.21-.07-.43-.12-.63-.04-.17-.09-.34-.14-.51,0-.02-.01-.04-.02-.06.17.03.33.07.5.1.19.04.38.08.58.12-.14.19-.29.37-.44.55Z"/>
      <path class="cls-1" d="M2.72,45.32c-.17-.09-.35-.19-.52-.28-.08-.04-.16-.08-.24-.13-.09-.06-.16-.13-.28-.13-.06,0-.13.03-.16.09,0,.02,0,.03,0,.04-.01.01-.02.02-.03.04-.28.73-.47,1.51-.69,2.26-.04.14.11.31.26.26.74-.27,1.48-.56,2.21-.85.11-.04.23-.14.22-.28-.04-.48-.36-.81-.77-1.03ZM2.82,46.2c-.49.24-1,.47-1.5.69.12-.51.24-1.02.33-1.54.02.03.04.05.06.08.13.16.32.26.5.35.21.12.47.24.61.42Z"/>
      <path class="cls-1" d="M3.92,47.48c-.03-.06-.09-.12-.18-.1-.76.12-1.48.37-2.18.68-.21.1-.19.38-.07.52.13.15.29.28.44.42.15.14.31.29.46.43.3.28.61.56.91.84.17.15.52.11.56-.15.06-.41.12-.83.18-1.24.03-.21.09-.43.09-.64,0-.1-.02-.2-.02-.3,0-.11,0-.22,0-.33,0-.12-.1-.16-.18-.14ZM3.56,48.15c-.07.19-.08.4-.12.6-.04.21-.08.42-.12.63-.16-.15-.32-.3-.47-.44-.19-.18-.37-.36-.56-.53.45-.28.93-.5,1.44-.66-.05.14-.11.27-.16.41Z"/>
      <path class="cls-1" d="M5.71,45.64c-.2-.06-.41-.11-.62-.14-.44-.06-.93-.11-1.35.05-.28.1-.25.51.07.53.03,0,.06,0,.08,0,.17.36.33.73.5,1.1.08.18.16.36.23.54.08.2.19.38.3.57.09.16.35.13.39-.05.04-.19.13-.37.2-.55.07-.17.15-.34.23-.51.17-.34.35-.68.58-.99.05-.06.03-.14,0-.2-.1-.22-.38-.3-.6-.36ZM5.38,47.02c-.09.17-.17.35-.25.53,0,0,0,0,0,0,0-.01,0-.02-.01-.03-.08-.19-.17-.38-.26-.57-.14-.3-.3-.57-.47-.85.21,0,.42,0,.62.02.19.02.37.06.55.11.07.02.15.05.23.07-.14.24-.29.48-.42.73Z"/>
      <path class="cls-1" d="M5.25,61.93c-.45-.09-.93-.17-1.39-.17-.22,0-.44.01-.66.03-.11,0-.22.02-.33.03-.08,0-.14.04-.21.07-.05.02-.11.03-.17.04-.2.04-.17.32,0,.36-.04.05-.06.11-.02.19.39.82.88,1.57,1.42,2.3.15.2.41.16.49-.07.08-.2.14-.4.23-.6.08-.2.18-.39.27-.58.18-.39.36-.79.54-1.18.07-.16.02-.38-.18-.42ZM4.42,63.34c-.08.19-.15.39-.23.58-.03.07-.07.14-.1.21-.43-.58-.84-1.17-1.24-1.78.01,0,.02,0,.03,0,.11,0,.22,0,.33,0,.21,0,.42.01.64.03.31.02.62.04.93.07l-.35.89Z"/>
      <path class="cls-1" d="M6.27,62.28c-.12.24-.21.5-.3.75-.09.13-.18.25-.25.39-.09.18-.17.37-.26.55-.17.37-.35.73-.52,1.1-.1.21.02.46.27.46.9.01,1.82-.08,2.72-.15.23-.02.35-.23.26-.44-.23-.48-.47-.95-.76-1.4-.14-.22-.29-.43-.46-.64-.14-.17-.31-.35-.36-.57-.03-.15-.27-.19-.34-.05ZM6.56,63.05c.15.22.29.44.41.67.19.35.35.71.51,1.08-.61.04-1.21.06-1.82.09.09-.24.19-.48.28-.72.07-.18.14-.36.21-.54,0,0,0,0,0,0,.03-.02.06-.05.07-.1.05-.23.12-.45.21-.67.04.07.08.13.12.2Z"/>
      <path class="cls-1" d="M4.7,59.12c-.15.26-.2.58-.25.86-.03.15-.05.29-.07.44-.02.19-.06.37.03.55.12.25.46.21.59,0,0-.01,0-.03.01-.05.23.03.45.07.68.07.19,0,.37-.01.55-.03.09-.01.18-.02.26-.03.05,0,.1-.02.15-.01.03,0,.07.03.1.03.31.07.52-.3.31-.53-.14-.15-.34-.26-.5-.38-.15-.11-.3-.23-.46-.34-.15-.11-.32-.21-.47-.31-.08-.05-.15-.1-.23-.15-.09-.05-.14-.11-.21-.19-.14-.15-.4-.11-.49.06ZM5.67,60.69c-.2.02-.4,0-.59,0,0-.08,0-.15.01-.22.01-.13.02-.21.04-.35.02-.11.04-.21.07-.32.18.15.35.31.54.45.15.11.31.22.46.33,0,0,.02.01.03.02-.01,0-.02,0-.03,0-.17.04-.35.06-.53.08Z"/>
      <path class="cls-1" d="M3.98,57.79c-.24.02-.45.19-.64.31-.19.12-.37.25-.56.38-.37.26-.74.54-1.09.82-.18.14-.1.43.07.54.54.33,1.07.69,1.62,1,.21.12.51.01.57-.24.12-.54.2-1.09.24-1.65,0-.11-.06-.19-.15-.25.01-.04.02-.08.04-.12.06-.11.11-.23.17-.34.11-.19-.03-.47-.27-.46ZM3.72,58.66c-.1.04-.18.11-.19.22-.05.35-.14.69-.22,1.04-.25-.14-.5-.28-.76-.42.2-.15.39-.31.6-.46.17-.12.35-.24.52-.35.02-.01.04-.02.06-.03,0,0,0,0,0,.01Z"/>
      <path class="cls-1" d="M5.81,66.71c-.08,0-.16.04-.21.1-.11.17-.15.34-.21.53-.05.19-.1.38-.14.58-.08.38-.16.76-.23,1.13-.03.18.09.42.31.39,1.01-.12,2-.33,2.97-.66.28-.1.3-.42.08-.59-.37-.28-.75-.54-1.14-.79-.19-.12-.38-.24-.58-.36-.2-.12-.44-.24-.61-.39-.1-.08-.19-.02-.23.06ZM5.72,68.75c.05-.23.09-.47.14-.7.04-.18.07-.37.11-.56.02-.1.04-.2.06-.31.01-.06,0-.12,0-.18.13.11.26.24.39.36.17.16.35.32.53.47.2.17.41.33.61.5-.6.18-1.2.32-1.82.41Z"/>
      <path class="cls-1" d="M3.17,65.82c.06.4.14.8.21,1.2.04.2.08.4.13.6.06.21.09.43.21.62.03.05.09.07.14.06-.08.13-.17.28-.11.42.04.11.13.16.24.14.21-.04.29-.29.37-.46.09-.17.18-.35.27-.52.09-.17.17-.33.25-.5.04-.08.08-.17.12-.25.02-.05.04-.1.07-.15.01-.03.03-.1.05-.12.11-.11.12-.3,0-.41-.24-.24-.55-.41-.83-.6-.27-.18-.55-.37-.82-.55-.32-.21-.64.33-.3.51ZM4.54,66.9c-.03.08-.06.16-.1.24-.08.18-.16.36-.24.53-.07.15-.15.31-.23.46,0-.07.01-.15,0-.23-.01-.11-.03-.22-.04-.33-.03-.22-.06-.43-.11-.64-.05-.26-.11-.51-.17-.77.1.07.21.15.31.22.2.14.41.29.62.42-.02.04-.04.07-.05.1Z"/>
      <path class="cls-1" d="M9.5,65.83c-.29.07-.56.2-.84.31-.22.09-.44.17-.66.26-.03,0-.05-.02-.08-.03-.05-.02-.09.04-.08.08,0,0,0,0,0,0h-.02c-.08.04-.13.11-.11.19.02.08.11.13.19.11l.1-.03s.07.09.11.13c.11.14.22.27.32.41.21.28.43.55.64.84.05.07.12.11.21.1.08-.01.16-.07.17-.15.06-.34.1-.68.14-1.02.04-.33.05-.67.13-.99.03-.14-.09-.26-.23-.23ZM9.22,66.98c-.03.19-.06.37-.09.56-.14-.17-.27-.34-.42-.49-.12-.13-.25-.25-.38-.37-.02-.01-.03-.03-.05-.04.16-.05.32-.11.49-.16.19-.06.37-.12.56-.19-.03.23-.07.46-.11.69Z"/>
      <path class="cls-1" d="M6.59,70.38c-.2,0-.4.01-.59.01-.09,0-.18.02-.27,0-.11,0-.2-.03-.3.03-.05.03-.1.09-.09.16,0,.02.01.03.01.04,0,.02-.01.03,0,.05.12.78.35,1.54.54,2.3.04.14.25.22.35.1.51-.61,1-1.22,1.49-1.84.07-.09.13-.24.05-.35-.28-.39-.72-.52-1.18-.51ZM7.12,71.1c-.31.46-.63.91-.95,1.35-.15-.5-.3-1.01-.48-1.5.03.01.06.03.09.04.19.07.4.06.61.06.24,0,.52-.03.74.06Z"/>
      <path class="cls-1" d="M8.71,71.65c-.06-.04-.14-.05-.21,0-.6.48-1.09,1.06-1.54,1.68-.14.19.02.42.2.49.19.07.39.1.59.14.2.05.41.09.61.14l1.21.27c.22.05.5-.16.41-.41-.15-.39-.31-.78-.46-1.16-.08-.19-.14-.41-.24-.59-.05-.09-.12-.17-.17-.25-.06-.09-.11-.19-.17-.28-.06-.1-.16-.09-.23-.03ZM8.74,72.41c.04.2.13.39.19.58.07.2.14.4.21.61-.21-.05-.42-.1-.63-.15-.25-.06-.5-.12-.76-.18.25-.47.56-.9.92-1.29.02.15.04.29.06.43Z"/>
      <path class="cls-1" d="M9.35,69.16c-.21.05-.41.11-.61.19-.41.16-.86.37-1.15.72-.19.23.04.57.32.43.02-.01.05-.03.07-.04.33.23.65.47.98.7.16.11.31.23.47.35.17.13.36.24.55.35.15.09.36-.06.31-.24-.06-.18-.07-.38-.1-.57-.02-.19-.04-.37-.05-.56-.02-.38-.04-.77,0-1.15,0-.08-.05-.14-.1-.18-.2-.15-.48-.06-.7-.01ZM9.74,70.52c.01.19.03.39.05.58,0,0,0,0,0,0,0,0-.02-.02-.03-.02-.17-.13-.34-.25-.51-.37-.27-.19-.55-.35-.83-.51.18-.11.36-.21.55-.3.17-.07.35-.13.53-.18.07-.02.16-.04.24-.06,0,.28-.01.56,0,.84Z"/>
      <path class="cls-1" d="M17.09,83.5c-.44.15-.89.31-1.29.55-.19.11-.38.23-.56.35-.09.06-.18.13-.27.19-.06.05-.1.11-.15.17-.04.05-.08.08-.13.12-.15.13.02.36.19.31,0,.06,0,.13.08.17.74.52,1.55.92,2.38,1.28.23.1.43-.06.4-.3-.03-.21-.08-.42-.1-.63-.03-.21-.04-.43-.06-.64-.04-.43-.08-.86-.13-1.29-.02-.17-.17-.34-.36-.28ZM17.07,85.14c.03.2.07.41.09.62,0,.08.01.16.02.23-.66-.28-1.32-.6-1.96-.92.01,0,.02,0,.03,0,.1-.05.19-.11.28-.17.18-.11.37-.2.56-.3.28-.14.56-.27.84-.4.05.31.09.63.14.94Z"/>
      <path class="cls-1" d="M18.15,83.29c.02.27.06.54.12.8-.01.15-.03.31-.02.46.02.2.03.4.05.61.03.4.06.81.1,1.21.02.23.25.39.46.26.79-.44,1.54-.98,2.28-1.49.19-.13.19-.38,0-.51-.44-.3-.88-.59-1.36-.83-.23-.12-.47-.23-.71-.32-.21-.08-.44-.15-.6-.32-.11-.12-.33-.03-.32.13ZM18.79,83.82c.24.11.47.24.69.38.34.21.66.44.98.67-.51.33-1.02.66-1.53.99-.04-.26-.08-.51-.12-.77-.03-.19-.06-.38-.09-.57,0,0,0,0,0,0,.01-.04.03-.07.01-.12-.07-.22-.12-.45-.16-.68.07.04.13.08.2.11Z"/>
      <path class="cls-1" d="M15.21,81.34c0,.3.11.6.21.88.05.14.1.28.16.41.08.18.13.35.3.46.23.16.51-.05.52-.3,0-.02-.01-.03-.01-.05.21-.09.42-.16.62-.28.16-.09.31-.2.46-.31.07-.05.14-.1.22-.15.04-.03.08-.07.12-.09.03-.01.07-.01.11-.02.3-.1.3-.52,0-.62-.19-.06-.43-.06-.63-.08-.19-.02-.38-.04-.56-.06-.19-.02-.38-.02-.56-.03-.09,0-.18,0-.27-.01-.1,0-.18-.02-.28-.06-.2-.06-.4.11-.4.3ZM16.84,82.22c-.16.12-.34.2-.52.29-.03-.07-.07-.13-.1-.2-.06-.12-.09-.2-.14-.32-.04-.1-.07-.21-.1-.31.23.04.46.09.69.12.19.02.38.04.56.06.01,0,.02,0,.04,0,0,0-.01.02-.02.02-.13.12-.27.23-.42.33Z"/>
      <path class="cls-1" d="M13.92,80.55c-.2.13-.29.38-.4.59-.1.2-.2.4-.3.6-.19.41-.37.84-.53,1.26-.08.21.13.42.33.43.64.02,1.27.06,1.91.06.24,0,.45-.25.37-.49-.17-.53-.38-1.04-.61-1.55-.05-.1-.15-.14-.26-.14,0-.04-.02-.08-.03-.13,0-.13-.02-.25-.02-.38,0-.22-.26-.39-.46-.26ZM14.13,81.43c-.06.08-.1.18-.06.28.13.33.22.67.32,1.01-.29,0-.58,0-.87.02.1-.23.19-.47.29-.7.09-.19.18-.38.28-.57,0-.02.02-.04.03-.06,0,0,0,0,0,.01Z"/>
      <path class="cls-1" d="M19.97,87.36c-.07.04-.12.11-.13.19-.02.2.04.37.09.56.05.19.1.38.16.57.12.37.24.73.37,1.1.06.17.29.32.46.19.82-.61,1.57-1.29,2.24-2.06.2-.22.05-.51-.23-.55-.46-.06-.92-.09-1.39-.12-.23-.01-.45-.02-.68-.03-.23,0-.49.01-.73-.03-.12-.02-.18.08-.17.17ZM20.91,89.17c-.08-.23-.15-.45-.23-.68-.06-.18-.12-.36-.19-.53-.03-.1-.07-.2-.1-.29-.02-.06-.06-.1-.1-.15.17.03.35.08.51.11.23.05.46.1.69.15.26.05.52.09.78.13-.43.45-.88.88-1.37,1.27Z"/>
      <path class="cls-1" d="M17.23,87.91c.26.32.52.63.79.94.14.16.27.31.42.45.15.16.3.33.49.43.05.03.11.02.15-.01,0,.16,0,.32.11.42.09.07.19.08.28,0,.16-.14.1-.4.09-.58-.01-.19-.02-.39-.03-.58,0-.19-.02-.37-.03-.56,0-.09-.02-.19-.02-.28,0-.05-.01-.11-.02-.16,0-.03-.03-.1-.02-.13.04-.15-.05-.31-.2-.35-.33-.09-.68-.08-1.02-.11-.33-.02-.66-.04-.99-.07-.38-.03-.39.61,0,.6ZM18.96,88.16c.01.08.02.17.03.26.02.19.04.39.06.58.02.17.03.34.03.51-.03-.07-.06-.13-.11-.2-.07-.09-.13-.17-.2-.26-.13-.17-.27-.34-.41-.5-.17-.2-.35-.39-.53-.58.13.01.25.02.38.03.25.02.5.05.75.05,0,.04,0,.08,0,.11Z"/>
      <path class="cls-1" d="M22.72,84.76c-.21.21-.38.46-.57.69-.15.19-.29.37-.44.56-.03,0-.05.01-.08.01-.05,0-.06.08-.03.11,0,0,0,0,0,0,0,0,0,.01-.01.02-.05.06-.06.15,0,.22.05.06.16.06.22,0l.07-.08c.05.02.11.04.16.06.16.06.32.13.48.2.32.14.65.26.97.4.08.03.16.04.23-.02.06-.05.1-.14.07-.22-.11-.32-.25-.64-.39-.95-.13-.3-.29-.61-.39-.92-.04-.13-.21-.18-.31-.08ZM23.05,85.89c.07.18.13.36.2.53-.2-.07-.4-.16-.61-.21-.17-.05-.34-.09-.51-.13-.02,0-.04,0-.06-.01.11-.13.23-.26.34-.38.13-.15.26-.29.39-.44.09.22.17.44.25.65Z"/>
      <path class="cls-1" d="M22.48,90.14c-.17.1-.34.21-.51.31-.08.05-.15.1-.23.14-.1.05-.19.07-.25.18-.03.05-.04.13,0,.18,0,.01.02.02.03.03,0,.01,0,.03.02.04.49.61,1.07,1.16,1.62,1.73.1.11.33.07.35-.09.14-.78.26-1.56.37-2.34.02-.12,0-.27-.13-.33-.43-.2-.88-.09-1.27.15ZM23.29,90.5c-.04.55-.09,1.1-.15,1.65-.38-.36-.77-.72-1.17-1.06.03,0,.06,0,.09-.01.2-.03.38-.15.56-.25.21-.13.44-.29.67-.32Z"/>
      <path class="cls-1" d="M24.94,90.19c-.07,0-.15.02-.18.11-.28.72-.42,1.47-.5,2.23-.02.23.23.36.42.32.2-.04.39-.11.58-.17.2-.06.4-.12.6-.19.39-.12.79-.24,1.18-.37.22-.07.35-.39.15-.56-.33-.26-.65-.52-.98-.78-.16-.13-.33-.29-.51-.39-.09-.05-.18-.09-.27-.13-.1-.05-.19-.11-.28-.16-.1-.06-.19,0-.22.09ZM25.35,90.83c.13.15.31.27.46.4.16.14.32.28.49.42-.21.06-.41.13-.62.19-.25.07-.5.15-.74.22-.01-.53.03-1.06.15-1.58.09.12.18.23.27.34Z"/>
      <path class="cls-1" d="M24.26,87.71c-.15.15-.3.3-.43.47-.27.35-.56.75-.63,1.2-.05.3.32.47.49.21.02-.02.03-.05.04-.07.4.03.8.08,1.2.12.19.02.39.04.58.07.22.03.43.03.65.03.18,0,.28-.24.15-.36-.14-.13-.26-.3-.37-.45-.11-.15-.22-.3-.33-.46-.21-.32-.41-.65-.57-1-.03-.07-.11-.09-.18-.1-.24-.03-.45.19-.61.34ZM25.28,88.69c.11.16.22.32.34.48,0,0,0,0,0,0-.01,0-.02,0-.04,0-.21-.02-.42-.04-.63-.06-.33-.03-.65-.02-.97-.02.1-.18.2-.36.33-.53.11-.15.24-.29.37-.42.05-.05.12-.11.18-.17.14.24.27.49.42.73Z"/>
      <path class="cls-1" d="M38.13,96.26c-.3.35-.61.72-.84,1.12-.11.19-.21.39-.31.59-.05.1-.09.2-.14.3-.03.07-.03.14-.04.22,0,.06-.03.11-.05.17-.07.19.19.3.32.18.03.06.07.11.15.11.9.08,1.8.02,2.7-.08.24-.03.34-.27.19-.46-.13-.17-.28-.32-.4-.5-.13-.17-.25-.35-.37-.52-.25-.35-.5-.7-.75-1.05-.1-.14-.32-.21-.45-.06ZM38.93,97.69c.13.16.26.32.38.49.05.06.09.13.13.19-.72.09-1.44.14-2.16.19,0,0,.02-.01.02-.02.06-.09.11-.19.16-.29.11-.18.22-.36.34-.54.18-.26.35-.52.53-.77.2.25.39.5.59.75Z"/>
      <path class="cls-1" d="M38.94,95.55c.15.22.32.43.5.63.07.14.13.28.22.41l.34.5c.23.33.46.67.69,1,.13.19.41.21.53,0,.46-.78.85-1.62,1.23-2.43.1-.21-.02-.42-.26-.44-.53-.04-1.06-.07-1.59-.04-.26.01-.52.04-.78.08-.22.03-.46.09-.68.02-.15-.05-.3.14-.21.28ZM39.76,95.68c.26-.02.53-.03.79-.02.4.01.79.05,1.19.09-.27.54-.55,1.08-.83,1.62-.16-.2-.32-.41-.49-.61-.12-.15-.24-.3-.36-.45,0,0,0,0,0,0,0-.04-.01-.08-.05-.11-.17-.16-.33-.33-.48-.51.08,0,.15,0,.23,0Z"/>
      <path class="cls-1" d="M35.42,95.33c.15.26.4.46.62.65.11.1.23.19.35.28.16.12.29.23.49.25.27.02.41-.3.3-.51,0-.02-.03-.02-.04-.04.14-.18.29-.35.4-.55.09-.16.17-.33.25-.5.04-.08.07-.16.11-.24.02-.04.04-.1.06-.14.02-.03.06-.05.08-.07.21-.24,0-.6-.31-.53-.2.04-.4.16-.58.24-.17.08-.35.15-.52.23-.17.08-.34.17-.5.26-.08.04-.16.08-.24.12-.09.05-.17.07-.27.09-.2.04-.29.29-.19.46ZM37.27,95.28c-.08.18-.2.34-.3.51-.06-.04-.13-.08-.19-.12-.11-.08-.17-.13-.28-.21-.08-.07-.16-.14-.24-.22.22-.08.45-.15.66-.24.17-.08.35-.15.52-.23.01,0,.02,0,.03-.01,0,0,0,.02,0,.03-.05.17-.12.34-.19.5Z"/>
      <path class="cls-1" d="M33.9,95.29c-.11.22-.06.48-.05.71.01.22.03.45.05.67.04.45.1.91.17,1.36.03.23.32.3.5.21.56-.3,1.13-.59,1.68-.9.21-.12.27-.44.08-.61-.41-.37-.85-.72-1.3-1.03-.09-.06-.2-.04-.3,0-.03-.03-.06-.06-.09-.1-.07-.1-.14-.21-.21-.32-.11-.19-.42-.21-.53,0ZM34.53,95.95c-.02.1,0,.21.09.28.28.22.53.47.79.71-.25.15-.5.3-.74.45-.03-.25-.07-.5-.1-.75-.02-.21-.03-.42-.04-.63,0-.02,0-.04,0-.07,0,0,0,0,.01,0Z"/>
      <path class="cls-1" d="M42.55,98.16c-.04.07-.05.16-.02.23.09.18.22.3.36.44.14.14.28.28.43.41.29.26.58.52.87.77.14.12.41.13.49-.07.4-.93.71-1.9.91-2.9.06-.29-.21-.47-.47-.36-.43.18-.84.38-1.26.59-.2.1-.4.21-.6.32-.21.11-.42.26-.64.34-.12.04-.12.16-.06.23ZM44.27,99.26c-.18-.16-.36-.31-.54-.47-.14-.13-.28-.25-.43-.37-.08-.07-.16-.14-.24-.2-.05-.04-.11-.06-.16-.08.17-.06.34-.11.5-.16.22-.07.45-.14.67-.22.25-.09.49-.19.74-.28-.14.61-.32,1.2-.55,1.78Z"/>
      <path class="cls-1" d="M40.46,100.01c.38.15.76.28,1.15.42.2.07.39.13.59.18.21.06.42.13.64.13.05,0,.1-.04.12-.09.07.14.16.28.31.31.11.02.2-.03.24-.14.07-.2-.11-.39-.21-.55-.11-.16-.21-.33-.31-.49-.1-.16-.2-.31-.31-.47-.05-.08-.11-.15-.16-.23-.03-.04-.06-.09-.1-.13-.02-.03-.07-.07-.08-.11-.04-.15-.2-.25-.35-.21-.33.09-.63.27-.94.42-.3.15-.59.29-.89.44-.34.17-.03.72.29.52ZM42.08,99.36c.05.07.11.14.16.2.12.16.23.31.34.47.1.14.19.28.28.43-.06-.04-.12-.09-.19-.12-.1-.04-.2-.08-.31-.13-.2-.08-.4-.16-.61-.23-.25-.08-.5-.16-.75-.24.11-.05.23-.11.34-.16.22-.1.46-.21.67-.33.02.03.04.07.06.09Z"/>
      <path class="cls-1" d="M43.63,94.53c-.08.28-.1.59-.15.88-.03.23-.07.47-.1.7-.02.02-.04.04-.06.05-.04.03-.02.1.03.11,0,0,0,0,0,0,0,0,0,.01,0,.02-.01.08.02.16.11.19.08.02.17-.03.19-.11l.02-.11c.06,0,.11-.02.17-.03.17-.03.35-.05.52-.07.35-.04.69-.1,1.04-.14.08,0,.16-.04.19-.13.03-.07.02-.17-.04-.23-.26-.22-.54-.42-.81-.63-.26-.2-.55-.38-.8-.61-.1-.1-.27-.05-.31.08ZM44.49,95.35c.15.12.29.24.44.36-.21.04-.43.07-.63.12-.17.04-.34.09-.51.14-.02,0-.04.01-.06.02.03-.17.07-.33.1-.5.04-.19.08-.38.12-.58.19.14.37.29.55.44Z"/>
      <path class="cls-1" d="M46.11,99.32c-.09.17-.19.35-.28.52-.04.08-.08.16-.13.24-.06.09-.13.16-.13.28,0,.06.03.13.09.16.02,0,.03,0,.04,0,.01.01.02.02.04.03.73.28,1.51.47,2.26.69.14.04.31-.11.26-.26-.27-.74-.56-1.48-.85-2.21-.04-.11-.14-.23-.28-.22-.48.04-.81.36-1.03.77ZM47,99.22c.24.49.47,1,.69,1.5-.51-.12-1.02-.24-1.54-.33.03-.02.05-.04.08-.06.16-.13.26-.32.35-.5.12-.21.24-.47.42-.61Z"/>
      <path class="cls-1" d="M48.27,98.13c-.06.03-.12.09-.1.18.12.76.37,1.48.68,2.18.1.21.38.19.52.07.15-.13.28-.29.42-.44.14-.15.29-.31.43-.46.28-.3.56-.61.84-.91.16-.17.11-.52-.15-.56-.41-.06-.83-.12-1.24-.18-.21-.03-.43-.09-.63-.09-.1,0-.2.02-.3.02-.11,0-.22,0-.33,0-.12,0-.16.1-.14.18ZM48.95,98.48c.19.07.4.08.6.12.21.04.42.08.63.12-.15.16-.29.32-.44.47-.18.19-.36.37-.53.56-.28-.45-.5-.93-.66-1.44.14.05.27.11.41.16Z"/>
      <path class="cls-1" d="M46.44,96.33c-.06.2-.11.41-.14.62-.06.44-.11.93.05,1.35.1.28.51.25.53-.07,0-.03,0-.06,0-.08.36-.17.73-.33,1.1-.5.18-.08.36-.16.54-.23.2-.08.38-.19.57-.3.16-.09.13-.35-.05-.39-.19-.04-.37-.13-.55-.2-.17-.07-.34-.15-.51-.23-.34-.17-.68-.35-.99-.58-.06-.05-.14-.03-.2,0-.22.1-.3.38-.36.6ZM47.82,96.66c.17.09.35.17.53.25,0,0,0,0,0,0-.01,0-.02,0-.03.01-.19.08-.38.17-.57.26-.3.14-.57.3-.85.47,0-.21,0-.42.02-.62.02-.19.06-.37.11-.55.02-.07.05-.15.07-.23.24.14.48.29.73.42Z"/>
      <path class="cls-1" d="M62.73,96.79c-.09.45-.17.93-.17,1.39,0,.22.01.44.03.66,0,.11.02.22.03.33,0,.08.04.14.07.21.02.05.03.11.04.17.04.2.32.17.36,0,.05.04.11.06.19.02.82-.39,1.57-.88,2.3-1.42.2-.15.16-.41-.07-.49-.2-.08-.4-.14-.6-.23-.2-.08-.39-.18-.58-.27-.39-.18-.79-.36-1.18-.54-.16-.07-.38-.02-.42.18ZM64.14,97.62c.19.08.39.15.58.23.07.03.14.07.21.1-.58.43-1.17.84-1.78,1.24,0-.01,0-.02,0-.03,0-.11,0-.22,0-.33,0-.21.01-.42.03-.64.02-.31.04-.62.07-.93.3.12.59.24.89.35Z"/>
      <path class="cls-1" d="M63.07,95.77c.24.12.5.21.75.3.13.09.25.18.39.25.18.09.37.17.55.26.37.17.73.35,1.1.52.21.1.46-.02.46-.27.01-.9-.08-1.82-.15-2.72-.02-.23-.23-.35-.44-.26-.48.23-.95.47-1.4.76-.22.14-.43.29-.64.46-.17.14-.35.31-.57.36-.15.03-.19.27-.05.34ZM63.85,95.48c.22-.15.44-.29.67-.41.35-.19.71-.35,1.08-.51.04.61.06,1.21.09,1.82-.24-.09-.48-.19-.72-.28-.18-.07-.36-.14-.54-.21,0,0,0,0,0,0-.02-.03-.05-.06-.1-.07-.23-.05-.45-.12-.67-.21.07-.04.13-.08.2-.12Z"/>
      <path class="cls-1" d="M59.91,97.34c.26.15.58.2.86.25.15.03.29.05.44.07.19.02.37.06.55-.03.25-.12.21-.46,0-.59-.01,0-.03,0-.05-.01.03-.23.07-.45.07-.68,0-.19-.01-.37-.03-.55-.01-.09-.02-.18-.02-.26,0-.05-.02-.1-.01-.15,0-.03.03-.07.03-.1.07-.31-.3-.52-.53-.31-.15.14-.26.34-.38.5-.11.15-.23.3-.34.46-.11.15-.21.32-.31.47-.05.08-.1.15-.15.23-.05.09-.11.14-.19.21-.15.14-.11.4.06.5ZM61.49,96.37c.02.2,0,.4,0,.59-.07,0-.15,0-.22-.01-.13-.01-.21-.02-.35-.04-.11-.02-.21-.04-.32-.07.15-.18.31-.35.45-.54.11-.15.22-.31.33-.46,0,0,.01-.02.02-.03,0,.01,0,.02,0,.03.04.17.06.35.08.53Z"/>
      <path class="cls-1" d="M58.58,98.06c.02.24.19.45.31.64.12.19.25.37.37.56.26.37.54.74.82,1.09.14.18.43.1.54-.07.33-.54.69-1.07,1-1.62.12-.21.01-.51-.24-.57-.54-.12-1.09-.2-1.65-.24-.11,0-.19.06-.25.15-.04-.01-.08-.02-.12-.04-.11-.06-.23-.11-.34-.17-.19-.11-.47.03-.46.27ZM59.46,98.32c.04.1.11.18.22.19.35.05.69.14,1.04.22-.14.25-.28.5-.42.76-.15-.2-.31-.39-.46-.6-.12-.17-.24-.35-.35-.52-.01-.02-.02-.04-.03-.06,0,0,0,0,.01,0Z"/>
      <path class="cls-1" d="M67.51,96.23c0,.08.04.16.1.21.17.11.34.16.53.21.19.05.38.1.58.14.38.08.76.16,1.13.23.18.03.42-.09.39-.31-.12-1.01-.33-2-.66-2.97-.1-.28-.42-.3-.59-.08-.28.37-.54.75-.79,1.14-.12.19-.24.38-.36.58-.12.2-.23.44-.39.61-.08.1-.02.19.06.23ZM69.55,96.32c-.23-.05-.47-.09-.7-.14-.18-.04-.37-.07-.56-.11-.1-.02-.2-.04-.31-.06-.06-.01-.12,0-.18,0,.11-.13.24-.26.35-.39.16-.17.32-.35.47-.53.17-.2.33-.41.5-.61.18.6.32,1.2.41,1.82Z"/>
      <path class="cls-1" d="M66.62,98.87c.4-.06.8-.14,1.2-.21.2-.04.4-.08.6-.13.21-.06.43-.09.62-.21.05-.03.07-.09.06-.14.13.08.28.17.42.11.11-.04.16-.13.14-.24-.04-.21-.29-.29-.46-.37-.17-.09-.35-.18-.52-.27-.17-.09-.33-.17-.5-.25-.08-.04-.17-.08-.25-.12-.05-.02-.1-.04-.15-.07-.03-.01-.1-.03-.12-.05-.11-.11-.3-.11-.41,0-.24.24-.41.55-.6.83-.18.27-.37.55-.55.82-.21.32.33.64.51.3ZM67.7,97.5c.08.03.16.06.24.1.18.08.36.16.53.24.15.07.31.15.46.23-.07,0-.15-.01-.23,0-.11.01-.22.03-.33.04-.22.03-.43.06-.64.11-.26.05-.51.11-.77.17.07-.1.15-.21.22-.31.14-.2.29-.41.42-.62.04.02.07.04.1.05Z"/>
      <path class="cls-1" d="M66.63,92.55c.07.29.2.56.31.84.09.22.17.44.26.66,0,.03-.02.05-.03.08-.02.05.04.09.08.08,0,0,0,0,0,0,0,0,0,.01,0,.02.03.08.1.13.19.11.08-.02.13-.11.11-.19l-.03-.1s.09-.07.13-.11c.14-.11.27-.22.41-.32.28-.21.55-.43.84-.64.07-.05.11-.12.1-.21-.01-.08-.07-.16-.15-.17-.34-.06-.68-.1-1.02-.14-.33-.04-.67-.05-.99-.13-.14-.03-.26.09-.23.23ZM67.78,92.82c.19.03.37.06.56.09-.17.14-.34.27-.49.42-.13.12-.25.25-.37.38-.01.02-.03.03-.04.05-.05-.16-.11-.32-.16-.49-.06-.19-.12-.37-.19-.56.23.03.46.07.69.11Z"/>
      <path class="cls-1" d="M71.17,95.45c0,.2.01.4.01.59,0,.09.02.18,0,.27,0,.11-.03.2.03.3.03.05.09.1.16.09.02,0,.03-.01.04-.01.02,0,.03.01.05,0,.78-.12,1.54-.35,2.3-.54.14-.04.22-.25.1-.35-.61-.51-1.22-1-1.84-1.49-.09-.07-.24-.13-.35-.05-.39.28-.52.72-.51,1.18ZM71.89,94.92c.46.31.91.63,1.35.95-.5.15-1.01.3-1.5.48.01-.03.03-.06.04-.09.07-.19.06-.4.06-.61,0-.24-.03-.52.06-.74Z"/>
      <path class="cls-1" d="M72.45,93.33c-.04.06-.05.14,0,.21.48.6,1.06,1.09,1.68,1.54.19.14.42-.02.49-.2.07-.19.1-.39.14-.59.05-.2.09-.41.14-.61l.27-1.21c.05-.22-.16-.5-.41-.41-.39.15-.78.31-1.16.46-.19.08-.41.14-.59.24-.09.05-.17.12-.25.17-.09.06-.19.11-.28.17-.1.06-.09.16-.03.23ZM73.2,93.3c.2-.04.39-.13.58-.19.2-.07.4-.14.61-.21-.05.21-.1.42-.15.63-.06.25-.12.5-.18.76-.47-.25-.9-.56-1.29-.92.15-.02.29-.04.43-.07Z"/>
      <path class="cls-1" d="M69.96,92.69c.05.21.11.41.19.61.16.41.37.86.72,1.15.23.19.57-.04.43-.32-.01-.02-.03-.05-.04-.07.23-.33.47-.65.7-.98.11-.16.23-.31.35-.47.13-.17.24-.36.35-.55.09-.15-.06-.36-.24-.31-.18.06-.38.07-.57.1-.19.02-.37.04-.56.05-.38.02-.77.04-1.15,0-.08,0-.14.05-.18.1-.15.2-.06.48-.01.7ZM71.32,92.3c.19-.01.39-.03.58-.05,0,0,0,0,0,0,0,0-.02.02-.02.03-.13.17-.25.34-.37.51-.19.27-.35.55-.51.83-.11-.18-.21-.36-.3-.55-.07-.17-.13-.35-.18-.53-.02-.07-.04-.16-.06-.24.28,0,.56.01.84,0Z"/>
      <path class="cls-1" d="M84.3,84.95c.15.44.31.89.55,1.29.11.19.23.38.35.56.06.09.13.18.19.27.05.06.11.1.17.15.05.04.08.08.12.13.13.15.36-.02.31-.19.06,0,.13,0,.17-.08.52-.74.92-1.55,1.28-2.38.1-.23-.06-.43-.3-.4-.21.03-.42.08-.63.1-.21.03-.43.04-.64.06-.43.04-.86.08-1.29.13-.17.02-.34.17-.28.36ZM85.94,84.97c.2-.03.41-.07.62-.09.08,0,.16-.01.23-.02-.28.66-.6,1.32-.92,1.96,0-.01,0-.02,0-.03-.05-.1-.11-.19-.17-.28-.1-.18-.2-.37-.3-.56-.14-.28-.27-.56-.4-.84.31-.05.63-.09.94-.14Z"/>
      <path class="cls-1" d="M84.08,83.89c.27-.02.54-.06.8-.12.15.01.31.03.46.02.2-.02.4-.03.61-.05.4-.03.81-.06,1.21-.1.23-.02.39-.25.26-.46-.44-.79-.98-1.54-1.5-2.28-.13-.19-.38-.19-.51,0-.3.44-.59.88-.83,1.36-.12.23-.23.47-.32.71-.08.21-.15.44-.32.6-.12.11-.03.33.13.32ZM84.61,83.25c.11-.24.24-.47.38-.69.21-.34.44-.66.67-.98.33.51.66,1.02.99,1.53-.26.04-.51.08-.77.12-.19.03-.38.06-.57.09,0,0,0,0,0,0-.04-.01-.07-.03-.12-.01-.22.07-.45.12-.68.16.04-.07.08-.13.11-.2Z"/>
      <path class="cls-1" d="M82.14,86.83c.3,0,.6-.11.88-.21.14-.05.28-.1.41-.16.18-.08.35-.13.46-.3.16-.23-.05-.51-.3-.52-.02,0-.03.01-.05.01-.09-.21-.16-.42-.28-.62-.09-.16-.2-.31-.31-.46-.05-.07-.1-.14-.15-.22-.03-.04-.07-.08-.09-.12-.01-.03-.01-.07-.02-.11-.1-.3-.52-.3-.62,0-.06.19-.06.43-.08.63-.02.19-.04.38-.06.56-.02.19-.02.38-.03.56,0,.09,0,.18-.01.27,0,.1-.02.18-.06.28-.06.2.11.4.3.4ZM83.01,85.21c.12.16.2.34.29.52-.07.03-.13.07-.2.1-.12.06-.2.09-.32.14-.1.04-.21.07-.31.1.04-.23.09-.46.12-.69.02-.19.04-.38.06-.56,0-.01,0-.02,0-.04,0,0,.02.01.02.02.12.13.23.27.33.42Z"/>
      <path class="cls-1" d="M81.35,88.12c.13.2.38.29.59.4.2.1.4.2.6.3.41.19.84.37,1.26.53.21.08.42-.13.43-.33.02-.64.06-1.27.06-1.91,0-.24-.25-.45-.49-.37-.53.17-1.04.38-1.55.61-.1.05-.14.15-.14.26-.04,0-.08.02-.13.03-.13,0-.25.02-.38.02-.22,0-.39.26-.26.46ZM82.23,87.91c.08.06.18.1.28.06.33-.13.67-.22,1.01-.32,0,.29,0,.58.02.87-.23-.1-.47-.19-.7-.29-.19-.09-.38-.18-.57-.28-.02,0-.04-.02-.06-.03,0,0,0,0,.01,0Z"/>
      <path class="cls-1" d="M88.15,82.07c.04.07.11.12.19.13.2.02.37-.04.56-.09.19-.05.38-.1.57-.16.37-.12.73-.24,1.1-.37.17-.06.32-.29.19-.46-.61-.82-1.29-1.57-2.06-2.24-.22-.2-.51-.05-.55.23-.06.46-.09.92-.12,1.39-.01.23-.02.45-.03.68,0,.23.01.49-.03.73-.02.12.08.18.17.17ZM89.96,81.13c-.23.08-.45.15-.68.23-.18.06-.36.12-.53.19-.1.03-.2.07-.29.1-.06.02-.1.06-.15.1.03-.17.08-.35.11-.51.05-.23.1-.46.15-.69.05-.26.09-.52.13-.78.45.43.88.88,1.27,1.37Z"/>
      <path class="cls-1" d="M88.71,84.81c.32-.26.63-.52.94-.79.16-.14.31-.27.45-.42.16-.15.33-.3.43-.49.03-.05.02-.11-.01-.15.16,0,.32,0,.42-.11.07-.09.08-.19,0-.28-.14-.16-.4-.1-.58-.09-.19.01-.39.02-.58.03-.19,0-.37.02-.56.03-.09,0-.19.02-.28.02-.05,0-.11.01-.16.02-.04,0-.1.03-.13.02-.15-.04-.31.05-.35.2-.09.33-.08.68-.11,1.02-.02.33-.04.66-.07.99-.03.38.61.39.6,0ZM88.96,83.08c.08-.01.17-.02.25-.03.19-.02.39-.04.58-.06.17-.02.34-.03.51-.03-.07.03-.13.06-.2.11-.09.07-.17.13-.26.2-.17.13-.34.27-.5.41-.2.17-.39.35-.58.53.01-.13.02-.25.03-.38.02-.25.05-.5.05-.75.04,0,.08,0,.11,0Z"/>
      <path class="cls-1" d="M85.55,79.32c.21.21.46.38.69.57.19.15.37.29.56.44,0,.03.01.05.01.08,0,.05.08.06.11.03,0,0,0,0,0,0,0,0,.01,0,.02.01.06.05.15.06.22,0,.06-.06.06-.16,0-.22l-.08-.07c.02-.05.04-.11.06-.16.06-.16.13-.32.2-.48.14-.32.26-.65.4-.97.03-.08.04-.16-.02-.23-.05-.06-.14-.1-.22-.07-.32.12-.64.25-.95.39-.3.13-.61.29-.92.39-.13.04-.18.21-.08.31ZM86.69,78.99c.18-.07.36-.13.53-.2-.07.2-.16.4-.21.61-.05.17-.09.34-.13.51,0,.02,0,.04-.01.06-.13-.11-.26-.23-.38-.34-.15-.13-.29-.26-.44-.39.22-.09.44-.17.65-.25Z"/>
      <path class="cls-1" d="M90.94,79.56c.1.17.21.34.31.51.05.08.1.15.14.23.05.1.07.19.18.25.05.03.13.04.18,0,.01,0,.02-.02.03-.03.01,0,.03,0,.04-.02.61-.49,1.16-1.07,1.73-1.62.11-.1.07-.33-.09-.35-.78-.14-1.56-.26-2.34-.37-.12-.02-.27,0-.33.13-.2.43-.09.88.15,1.27ZM91.3,78.75c.55.04,1.1.09,1.64.15-.36.38-.72.77-1.06,1.17,0-.03,0-.06-.01-.09-.03-.2-.15-.38-.25-.56-.13-.21-.29-.44-.32-.67Z"/>
      <path class="cls-1" d="M90.99,77.1c0,.07.02.15.11.18.72.28,1.47.42,2.23.5.23.02.36-.23.32-.42-.04-.2-.11-.39-.17-.58-.06-.2-.12-.4-.19-.6-.12-.39-.24-.79-.37-1.18-.07-.22-.39-.35-.56-.15-.26.32-.52.65-.78.98-.13.16-.29.33-.39.51-.05.09-.09.18-.13.27-.05.1-.11.19-.16.28-.06.1,0,.19.09.22ZM91.63,76.69c.15-.13.27-.31.4-.46.14-.16.28-.32.42-.49.06.21.13.41.19.62.07.25.15.5.22.74-.53.01-1.06-.03-1.58-.15.12-.09.23-.18.34-.27Z"/>
      <path class="cls-1" d="M88.51,77.79c.15.15.3.3.47.43.35.27.75.56,1.2.63.3.05.47-.32.21-.49-.02-.02-.05-.03-.07-.04.03-.4.08-.8.12-1.2.02-.19.04-.39.07-.58.03-.22.03-.43.03-.65,0-.18-.24-.28-.36-.15-.13.14-.3.26-.45.37-.15.11-.3.22-.46.33-.32.21-.65.41-1,.57-.07.03-.09.11-.1.18-.03.24.19.45.34.61ZM89.49,76.76c.16-.11.32-.22.48-.34,0,0,0,0,0,0,0,.01,0,.02,0,.03-.02.21-.04.42-.06.63-.03.33-.02.65-.02.97-.18-.1-.36-.2-.53-.33-.15-.11-.29-.24-.42-.37-.05-.05-.11-.12-.17-.18.24-.14.49-.27.73-.42Z"/>
      <path class="cls-1" d="M97.06,63.91c.35.3.71.61,1.12.84.19.11.39.21.59.31.1.05.2.09.3.14.07.03.14.03.22.04.06,0,.11.03.17.05.19.07.3-.19.18-.32.06-.03.11-.07.11-.15.08-.9.02-1.8-.08-2.7-.03-.24-.27-.34-.46-.19-.17.13-.32.28-.5.4-.17.13-.35.25-.52.37-.35.25-.7.5-1.05.75-.14.1-.21.32-.06.45ZM98.49,63.11c.16-.13.32-.26.49-.38.06-.05.13-.09.19-.13.09.72.14,1.44.19,2.16,0,0-.01-.02-.02-.02-.09-.06-.19-.11-.29-.16-.18-.11-.36-.22-.54-.34-.26-.18-.52-.35-.77-.53.25-.2.5-.39.75-.59Z"/>
      <path class="cls-1" d="M96.34,63.1c.22-.15.43-.32.63-.5.14-.07.28-.13.41-.22.17-.11.33-.23.5-.34.33-.23.67-.46,1-.69.19-.13.21-.41,0-.53-.78-.46-1.62-.85-2.43-1.23-.21-.1-.42.02-.44.26-.04.53-.07,1.06-.04,1.59.01.26.04.52.08.78.03.22.09.46.02.68-.05.15.14.3.28.21ZM96.48,62.28c-.02-.26-.03-.53-.02-.79.01-.4.05-.79.09-1.19.54.27,1.08.55,1.62.83-.2.16-.41.32-.61.49-.15.12-.3.24-.45.36,0,0,0,0,0,0-.04,0-.08.01-.11.05-.16.17-.33.33-.51.48,0-.08,0-.15,0-.23Z"/>
      <path class="cls-1" d="M96.13,66.62c.26-.15.46-.4.65-.62.1-.11.19-.23.28-.35.12-.16.23-.29.25-.49.02-.27-.3-.41-.51-.3-.02,0-.02.03-.04.04-.18-.14-.35-.29-.55-.4-.16-.09-.33-.17-.5-.25-.08-.04-.16-.07-.24-.11-.04-.02-.1-.04-.14-.06-.03-.02-.05-.06-.07-.08-.24-.21-.6,0-.53.31.04.2.16.4.24.58.08.17.15.35.23.52.08.17.17.34.26.5.04.08.08.16.12.24.05.09.07.17.09.27.04.2.29.29.46.19ZM96.07,64.77c.18.08.34.2.51.3-.04.06-.08.13-.12.19-.08.11-.13.17-.21.28-.07.08-.14.16-.22.24-.08-.22-.15-.45-.24-.66-.08-.17-.15-.35-.23-.52,0-.01,0-.02-.01-.03,0,0,.02,0,.03,0,.17.06.34.12.5.19Z"/>
      <path class="cls-1" d="M96.09,68.14c.22.11.48.06.71.05.22-.01.45-.03.67-.05.45-.04.91-.1,1.36-.17.23-.03.3-.32.21-.5-.3-.56-.59-1.13-.9-1.68-.12-.21-.44-.27-.61-.08-.37.41-.72.85-1.03,1.3-.06.09-.04.2,0,.3-.03.03-.06.06-.1.09-.1.07-.21.14-.32.21-.19.11-.21.42,0,.53ZM96.74,67.51c.1.02.21,0,.28-.09.22-.28.47-.53.71-.79.15.25.3.5.45.74-.25.03-.5.07-.75.1-.21.02-.42.03-.63.04-.02,0-.04,0-.07,0,0,0,0,0,0-.01Z"/>
      <path class="cls-1" d="M98.96,59.49c.07.04.16.05.23.02.18-.09.3-.22.44-.36.14-.14.28-.28.41-.43.26-.29.51-.57.77-.87.12-.14.13-.41-.07-.49-.93-.4-1.9-.71-2.9-.91-.29-.06-.47.21-.36.47.18.43.38.84.59,1.26.1.2.21.4.32.6.11.21.26.42.34.64.04.12.16.12.23.06ZM100.05,57.77c-.16.18-.31.36-.47.54-.13.14-.25.28-.37.43-.07.08-.14.16-.2.24-.04.05-.06.11-.08.16-.06-.17-.11-.34-.16-.5-.07-.22-.14-.45-.22-.67-.08-.25-.19-.49-.28-.74.61.14,1.2.32,1.78.55Z"/>
      <path class="cls-1" d="M100.81,61.58c.15-.38.28-.76.42-1.15.07-.2.13-.39.18-.59.06-.21.13-.42.13-.64,0-.05-.04-.1-.09-.12.14-.07.28-.16.31-.31.02-.11-.03-.2-.14-.24-.2-.07-.39.11-.55.21-.16.11-.33.21-.49.31-.16.1-.31.2-.47.31-.08.05-.15.11-.23.16-.04.03-.09.06-.13.1-.03.02-.07.07-.11.08-.15.04-.25.2-.21.35.09.33.27.63.42.94.15.3.29.59.44.89.17.34.72.03.52-.29ZM100.16,59.96c.07-.05.14-.11.2-.16.16-.12.31-.23.47-.34.14-.1.28-.19.43-.28-.04.06-.09.12-.12.19-.04.1-.08.2-.13.31-.08.2-.16.4-.23.61-.08.25-.16.5-.24.75-.05-.11-.11-.23-.16-.34-.1-.22-.21-.46-.33-.67.03-.02.07-.04.09-.06Z"/>
      <path class="cls-1" d="M95.33,58.41c.28.08.59.1.88.15.23.03.47.07.7.1.02.02.04.04.05.06.03.04.1.02.11-.03,0,0,0,0,0,0,0,0,.01,0,.02,0,.08.01.16-.02.19-.11.02-.08-.03-.17-.11-.19l-.11-.02c0-.06-.02-.11-.03-.17-.03-.17-.05-.35-.07-.52-.04-.35-.1-.69-.14-1.04,0-.08-.04-.16-.13-.19-.07-.03-.17-.02-.23.04-.22.26-.42.54-.63.81-.2.26-.38.55-.61.8-.1.1-.05.27.08.31ZM96.15,57.55c.12-.15.24-.29.36-.44.04.21.07.43.12.63.04.17.09.34.14.51,0,.02.01.04.02.06-.17-.03-.33-.07-.5-.1-.19-.04-.38-.08-.58-.12.14-.19.29-.37.44-.55Z"/>
      <path class="cls-1" d="M100.12,55.93c.17.09.35.19.52.28.08.04.16.08.24.13.09.06.16.13.28.13.06,0,.13-.03.16-.09,0-.02,0-.03,0-.04.01-.01.02-.02.03-.04.28-.73.47-1.51.69-2.26.04-.14-.11-.31-.26-.26-.74.27-1.48.56-2.21.85-.11.04-.23.14-.22.28.04.48.36.81.77,1.03ZM100.02,55.04c.49-.24,1-.47,1.5-.69-.12.51-.24,1.02-.33,1.54-.02-.03-.04-.05-.06-.08-.13-.16-.32-.26-.5-.35-.21-.12-.47-.24-.61-.42Z"/>
      <path class="cls-1" d="M98.92,53.77c.03.06.09.12.18.1.76-.12,1.48-.37,2.18-.68.21-.1.19-.38.07-.52-.13-.15-.29-.28-.44-.42-.15-.14-.31-.29-.46-.43-.3-.28-.61-.56-.91-.84-.17-.15-.52-.11-.56.15-.06.41-.12.83-.18,1.24-.03.21-.09.43-.09.64,0,.1.02.2.02.3,0,.11,0,.22,0,.33,0,.12.1.16.18.14ZM99.27,53.1c.07-.19.08-.4.12-.6.04-.21.08-.42.12-.63.16.15.32.3.47.44.19.18.37.36.56.53-.45.28-.93.5-1.44.66.05-.14.11-.27.16-.41Z"/>
      <path class="cls-1" d="M97.12,55.6c.2.06.41.11.62.14.44.06.93.11,1.35-.05.28-.1.25-.51-.07-.53-.03,0-.06,0-.08,0-.17-.36-.33-.73-.5-1.1-.08-.18-.16-.36-.23-.54-.08-.2-.19-.38-.3-.57-.09-.16-.35-.13-.39.05-.04.19-.13.37-.2.55-.07.17-.15.34-.23.51-.17.34-.35.68-.58.99-.05.06-.03.14,0,.2.1.22.38.3.6.36ZM97.46,54.22c.09-.17.17-.35.25-.53,0,0,0,0,0,0,0,.01,0,.02.01.03.08.19.17.38.26.57.14.3.3.57.47.85-.21,0-.42,0-.62-.02-.19-.02-.37-.06-.55-.11-.07-.02-.15-.05-.23-.07.14-.24.29-.48.42-.73Z"/>
      <path class="cls-1" d="M97.59,39.31c.45.09.93.17,1.39.17.22,0,.44-.01.66-.03.11,0,.22-.02.33-.03.08,0,.14-.04.21-.07.05-.02.11-.03.17-.04.2-.04.17-.32,0-.36.04-.05.06-.11.02-.19-.39-.82-.88-1.57-1.42-2.3-.15-.2-.41-.16-.49.07-.08.2-.14.4-.23.6-.08.2-.18.39-.27.58-.18.39-.36.79-.54,1.18-.07.16-.02.38.18.42ZM98.42,37.9c.08-.19.15-.39.23-.58.03-.07.07-.14.1-.21.43.58.84,1.17,1.24,1.78-.01,0-.02,0-.03,0-.11,0-.22,0-.33,0-.21,0-.42-.01-.64-.03-.31-.02-.62-.04-.93-.07.12-.3.24-.59.35-.89Z"/>
      <path class="cls-1" d="M96.56,38.97c.12-.24.21-.5.3-.75.09-.13.18-.25.25-.39.09-.18.17-.37.26-.55.17-.37.35-.73.52-1.1.1-.21-.02-.46-.27-.46-.9-.01-1.82.08-2.72.15-.23.02-.35.23-.26.44.23.48.47.95.76,1.4.14.22.29.43.46.64.14.17.31.35.36.57.03.15.27.19.34.05ZM96.27,38.19c-.15-.22-.29-.44-.41-.67-.19-.35-.35-.71-.51-1.08.61-.04,1.21-.06,1.82-.09-.09.24-.19.48-.28.72-.07.18-.14.36-.21.54,0,0,0,0,0,0-.03.02-.06.05-.07.1-.05.23-.12.45-.21.67-.04-.07-.08-.13-.12-.2Z"/>
      <path class="cls-1" d="M98.14,42.13c.15-.26.2-.58.25-.86.03-.15.05-.29.07-.44.02-.19.06-.37-.03-.55-.12-.25-.46-.21-.59,0,0,.01,0,.03-.01.05-.22-.03-.45-.07-.68-.07-.19,0-.37.01-.55.03-.09.01-.18.02-.26.03-.05,0-.1.02-.15.01-.03,0-.07-.03-.1-.03-.31-.07-.52.3-.31.53.14.15.34.26.5.38.15.11.3.23.46.34.15.11.32.21.47.31.08.05.15.1.23.15.09.05.14.11.21.19.14.15.4.11.5-.06ZM97.17,40.55c.2-.02.4,0,.59,0,0,.08,0,.15-.01.22-.01.13-.02.21-.04.35-.02.11-.04.21-.07.32-.18-.15-.35-.31-.54-.45-.15-.11-.31-.22-.46-.33,0,0-.02-.01-.03-.02.01,0,.02,0,.03,0,.17-.04.35-.06.53-.08Z"/>
      <path class="cls-1" d="M98.86,43.46c.24-.02.45-.19.64-.31.19-.12.37-.25.56-.38.37-.26.74-.54,1.09-.82.18-.14.1-.43-.07-.54-.54-.33-1.07-.69-1.62-1-.21-.12-.51-.01-.57.24-.12.54-.2,1.09-.24,1.65,0,.11.06.19.15.25-.01.04-.02.08-.04.12-.06.11-.11.23-.17.34-.11.19.03.47.27.46ZM99.12,42.58c.1-.04.18-.11.19-.22.05-.35.14-.69.22-1.04.25.14.5.28.76.42-.2.15-.39.31-.6.46-.17.12-.35.24-.52.35-.02.01-.04.02-.06.03,0,0,0,0,0-.01Z"/>
      <path class="cls-1" d="M97.02,34.53c.08,0,.16-.04.21-.1.11-.17.16-.34.21-.53.05-.19.1-.38.14-.58.08-.38.16-.76.23-1.13.03-.18-.09-.42-.31-.39-1.01.12-2,.33-2.97.66-.28.1-.3.42-.08.59.37.28.75.54,1.14.79.19.12.38.24.58.36.2.12.44.24.61.39.1.08.19.02.23-.06ZM97.11,32.5c-.05.23-.09.47-.14.7-.04.18-.07.37-.11.56-.02.1-.04.2-.06.31-.01.06,0,.12,0,.18-.13-.11-.26-.24-.39-.36-.17-.16-.35-.32-.53-.47-.2-.17-.41-.33-.61-.5.6-.18,1.2-.32,1.82-.41Z"/>
      <path class="cls-1" d="M99.67,35.42c-.06-.4-.14-.8-.21-1.2-.04-.2-.08-.4-.13-.6-.06-.21-.09-.43-.21-.62-.03-.05-.09-.07-.14-.06.08-.13.17-.28.11-.42-.04-.11-.13-.16-.24-.14-.21.04-.29.29-.37.46-.09.17-.18.35-.27.52-.09.17-.17.33-.25.5-.04.08-.08.17-.12.25-.02.05-.04.1-.07.15-.01.03-.03.1-.05.12-.11.11-.12.3,0,.41.24.24.55.41.83.6.27.18.55.37.82.55.32.21.64-.33.3-.51ZM98.3,34.34c.03-.08.06-.16.1-.24.08-.18.16-.36.24-.53.07-.15.15-.31.23-.46,0,.07-.01.15,0,.23l.04.33c.03.22.06.43.11.64.05.26.11.51.17.77-.1-.07-.21-.15-.31-.22-.2-.14-.41-.29-.62-.42.02-.04.04-.07.05-.1Z"/>
      <path class="cls-1" d="M93.34,35.41c.29-.07.56-.2.84-.31.22-.09.44-.17.66-.26.03,0,.05.02.08.03.05.02.09-.04.08-.08,0,0,0,0,0,0,0,0,.01,0,.02,0,.08-.03.13-.1.11-.19-.02-.08-.11-.13-.19-.11l-.1.03s-.07-.09-.11-.13c-.11-.14-.22-.27-.32-.41-.21-.28-.43-.55-.64-.84-.05-.07-.12-.11-.21-.1-.08.01-.16.07-.17.15-.06.34-.1.68-.14,1.02-.04.33-.05.67-.13.99-.03.14.09.26.23.23ZM93.62,34.26c.03-.19.06-.37.09-.56.14.17.27.34.42.49.12.13.25.25.38.37.02.01.03.03.05.04-.16.05-.32.11-.49.16-.19.06-.37.12-.56.19.03-.23.07-.46.11-.69Z"/>
      <path class="cls-1" d="M96.24,30.87c.2,0,.4-.01.59-.01.09,0,.18-.02.27,0,.11,0,.2.03.3-.03.05-.03.1-.09.09-.16,0-.02-.01-.03-.01-.04,0-.02.01-.03,0-.05-.12-.78-.35-1.54-.54-2.3-.04-.14-.25-.22-.35-.1-.51.61-1,1.22-1.49,1.84-.07.09-.13.24-.05.35.28.39.72.52,1.18.51ZM95.72,30.15c.31-.46.63-.91.95-1.35.15.5.3,1.01.48,1.5-.03-.01-.06-.03-.09-.04-.19-.07-.4-.06-.61-.06-.24,0-.52.03-.74-.06Z"/>
      <path class="cls-1" d="M94.13,29.59c.06.04.14.05.21,0,.6-.48,1.09-1.06,1.54-1.68.14-.19-.02-.42-.2-.49-.19-.07-.39-.1-.59-.14-.2-.05-.41-.09-.61-.14-.4-.09-.8-.18-1.21-.27-.22-.05-.5.16-.41.41.15.39.31.78.46,1.16.08.19.14.41.24.59.05.09.12.17.17.25.06.09.11.19.17.28.06.1.16.09.23.03ZM94.1,28.84c-.04-.2-.13-.39-.19-.58-.07-.2-.14-.4-.21-.61.21.05.42.1.63.15.25.06.5.12.76.18-.25.47-.56.9-.92,1.29-.02-.15-.04-.29-.06-.43Z"/>
      <path class="cls-1" d="M93.49,32.08c.21-.05.41-.11.61-.19.41-.16.86-.37,1.15-.72.19-.23-.04-.57-.32-.43-.02.01-.05.03-.07.04-.33-.23-.66-.47-.98-.7-.16-.11-.31-.23-.47-.35-.17-.13-.36-.24-.55-.35-.15-.09-.36.06-.31.24.06.18.07.38.1.57.02.19.04.37.05.56.02.38.04.77,0,1.15,0,.08.05.14.1.18.2.15.48.06.7.01ZM93.09,30.72c-.01-.19-.03-.39-.05-.58,0,0,0,0,0,0,0,0,.02.02.03.02.17.13.34.25.51.37.27.19.55.35.83.51-.18.11-.36.21-.55.3-.17.07-.35.13-.53.18-.07.02-.16.04-.24.06,0-.28.01-.56,0-.84Z"/>
      <path class="cls-1" d="M85.75,17.74c.44-.15.89-.31,1.29-.55.19-.11.38-.23.56-.35.09-.06.18-.13.27-.19.06-.05.1-.11.15-.17.04-.05.08-.08.13-.12.15-.13-.02-.36-.19-.31,0-.06,0-.13-.08-.17-.74-.52-1.55-.92-2.38-1.28-.23-.1-.43.06-.4.3.03.21.08.42.1.63.03.21.04.43.06.64.04.43.08.86.13,1.29.02.17.17.34.36.28ZM85.76,16.1c-.03-.2-.07-.41-.09-.62,0-.08-.01-.16-.02-.23.66.28,1.32.6,1.96.92-.01,0-.02,0-.03,0-.1.05-.19.11-.28.17-.18.11-.37.2-.56.3-.28.14-.56.27-.84.4-.05-.31-.09-.63-.14-.94Z"/>
      <path class="cls-1" d="M84.69,17.96c-.02-.27-.06-.54-.12-.8.01-.15.03-.31.02-.46-.02-.2-.03-.4-.05-.61-.03-.4-.06-.81-.1-1.21-.02-.23-.25-.39-.46-.26-.79.44-1.54.98-2.28,1.49-.19.13-.19.38,0,.51.44.3.88.59,1.36.83.23.12.47.23.71.32.21.08.44.15.6.32.11.12.33.03.32-.13ZM84.05,17.43c-.24-.11-.47-.24-.69-.38-.34-.21-.66-.44-.98-.67.51-.33,1.02-.66,1.53-.99.04.26.08.51.12.77.03.19.06.38.09.57,0,0,0,0,0,0-.01.04-.03.07-.01.12.07.22.12.45.16.68-.07-.04-.13-.08-.2-.11Z"/>
      <path class="cls-1" d="M87.63,19.91c0-.3-.11-.6-.21-.88-.05-.14-.1-.28-.16-.41-.08-.18-.13-.35-.3-.46-.23-.16-.51.05-.52.3,0,.02.01.03.01.05-.21.09-.42.16-.62.28-.16.09-.31.2-.46.31-.07.05-.14.1-.22.15-.04.03-.08.07-.12.09-.03.01-.07.01-.11.02-.3.1-.3.52,0,.62.19.06.43.06.63.08.19.02.38.04.56.06.19.02.38.02.56.03.09,0,.18,0,.27.01.1,0,.18.02.28.06.2.06.4-.11.4-.3ZM86,19.03c.16-.12.34-.2.52-.29.03.07.07.13.1.2.06.12.09.2.14.32.04.1.07.21.1.31-.23-.04-.46-.09-.69-.12-.19-.02-.38-.04-.56-.06-.01,0-.02,0-.04,0,0,0,.01-.02.02-.02.13-.12.27-.23.42-.33Z"/>
      <path class="cls-1" d="M88.92,20.7c.2-.13.29-.38.4-.59.1-.2.2-.4.3-.6.19-.41.37-.84.53-1.26.08-.21-.13-.42-.33-.43-.64-.02-1.27-.06-1.91-.06-.24,0-.45.25-.37.49.17.53.38,1.04.61,1.55.05.1.15.14.26.14,0,.04.02.08.03.13,0,.13.02.25.02.38,0,.22.26.39.46.26ZM88.71,19.81c.06-.08.1-.18.06-.28-.13-.33-.22-.67-.32-1.01.29,0,.58,0,.87-.02-.1.23-.19.47-.29.7-.09.19-.18.38-.28.57,0,.02-.02.04-.03.06,0,0,0,0,0-.01Z"/>
      <path class="cls-1" d="M82.87,13.89c.07-.04.12-.11.13-.19.02-.2-.04-.37-.09-.56-.05-.19-.1-.38-.16-.57-.12-.37-.24-.73-.37-1.1-.06-.17-.29-.32-.46-.19-.82.61-1.57,1.29-2.24,2.06-.2.22-.05.51.23.55.46.06.92.09,1.39.12.23.01.45.02.68.03.23,0,.49-.01.73.03.12.02.18-.08.17-.17ZM81.93,12.08c.08.23.15.45.23.68.06.18.12.36.19.53.03.1.07.2.1.29.02.06.06.1.1.15-.17-.03-.35-.08-.51-.11-.23-.05-.46-.1-.69-.15-.26-.05-.52-.09-.78-.13.43-.45.88-.88,1.37-1.27Z"/>
      <path class="cls-1" d="M85.6,13.33c-.26-.32-.52-.63-.79-.94-.14-.16-.27-.31-.42-.45-.15-.16-.3-.33-.49-.43-.05-.03-.11-.02-.15.01,0-.16,0-.32-.11-.42-.09-.07-.19-.08-.28,0-.16.14-.1.4-.09.58.01.19.02.39.03.58,0,.19.02.37.03.56,0,.09.02.19.02.28,0,.05.01.11.02.16,0,.03.03.1.02.13-.04.15.05.31.2.35.33.09.68.08,1.02.11.33.02.66.04.99.07.38.03.39-.61,0-.6ZM83.88,13.08c-.01-.08-.02-.17-.03-.26-.02-.19-.04-.39-.06-.58-.02-.17-.03-.34-.03-.51.03.07.06.13.11.2.07.09.13.17.2.26.13.17.27.34.41.5.17.2.35.39.53.58-.13-.01-.25-.02-.38-.03-.25-.02-.5-.05-.75-.05,0-.04,0-.08,0-.11Z"/>
      <path class="cls-1" d="M80.12,16.49c.21-.21.38-.46.57-.69.15-.19.29-.37.44-.56.03,0,.05-.01.08-.01.05,0,.06-.08.03-.11,0,0,0,0,0,0,0,0,0-.01.01-.02.05-.06.06-.15,0-.22-.05-.06-.16-.06-.22,0l-.07.08c-.05-.02-.11-.04-.16-.06-.16-.06-.32-.13-.48-.2-.32-.14-.65-.26-.97-.4-.08-.03-.16-.04-.23.02-.06.05-.1.14-.07.22.12.32.25.64.39.95.13.3.29.61.39.92.04.13.21.18.31.08ZM79.78,15.35c-.07-.18-.13-.36-.2-.53.2.07.4.16.61.21.17.05.34.09.51.13.02,0,.04,0,.06.01-.11.13-.23.26-.34.38-.13.15-.26.29-.39.44-.09-.22-.17-.44-.25-.65Z"/>
      <path class="cls-1" d="M80.36,11.1c.17-.1.34-.21.51-.31.08-.05.15-.1.23-.14.1-.05.19-.07.25-.18.03-.05.04-.13,0-.18,0-.01-.02-.02-.03-.03,0-.01,0-.03-.02-.04-.49-.61-1.07-1.16-1.62-1.73-.1-.11-.33-.07-.35.09-.14.78-.26,1.56-.37,2.34-.02.12,0,.27.13.33.43.2.88.09,1.27-.15ZM79.55,10.74c.04-.55.09-1.1.15-1.64.38.36.77.72,1.17,1.06-.03,0-.06,0-.09.01-.2.03-.38.15-.56.25-.21.13-.44.29-.67.32Z"/>
      <path class="cls-1" d="M77.89,11.06c.07,0,.15-.02.18-.11.28-.72.42-1.47.5-2.23.02-.23-.23-.36-.42-.32-.2.04-.39.11-.58.17-.2.06-.4.12-.6.19-.39.12-.79.24-1.18.37-.22.07-.35.39-.15.56.32.26.65.52.98.78.16.13.33.29.51.39.09.05.18.09.27.13.1.05.19.11.28.16.1.06.19,0,.22-.09ZM77.49,10.41c-.13-.15-.31-.27-.46-.4-.16-.14-.32-.28-.49-.42.21-.06.41-.13.62-.19.25-.07.5-.15.74-.22.01.53-.03,1.06-.15,1.58-.09-.12-.18-.23-.27-.34Z"/>
      <path class="cls-1" d="M78.58,13.53c.15-.15.3-.3.43-.47.27-.35.56-.75.63-1.2.05-.3-.32-.47-.49-.21-.02.02-.03.05-.04.07-.4-.03-.8-.08-1.2-.12-.19-.02-.39-.04-.58-.07-.22-.03-.43-.03-.65-.03-.18,0-.28.24-.15.36.14.13.26.3.37.45.11.15.22.3.33.46.21.32.41.65.57,1,.03.07.11.09.18.1.24.03.45-.19.61-.34ZM77.56,12.55c-.11-.16-.22-.32-.34-.48,0,0,0,0,0,0,.01,0,.02,0,.03,0,.21.02.42.04.63.06.33.03.65.02.97.02-.1.18-.2.36-.33.53-.11.15-.24.29-.37.42-.05.05-.12.11-.18.17-.14-.24-.27-.49-.42-.73Z"/>
      <path class="cls-1" d="M64.71,4.98c.3-.35.61-.72.84-1.12.11-.19.21-.39.31-.59.05-.1.09-.2.14-.3.03-.07.03-.14.04-.22,0-.06.03-.11.05-.17.07-.19-.19-.3-.32-.18-.03-.06-.07-.11-.15-.11-.9-.08-1.8-.02-2.7.08-.24.03-.34.27-.19.46.13.17.28.32.4.5.13.17.25.35.37.52.25.35.5.7.75,1.05.1.14.32.21.45.06ZM63.9,3.56c-.13-.16-.26-.32-.38-.49-.05-.06-.09-.13-.13-.19.72-.09,1.44-.14,2.16-.19,0,0-.02.01-.02.02-.06.09-.11.19-.16.29-.11.18-.22.36-.34.54-.18.26-.35.52-.53.77-.2-.25-.39-.5-.59-.75Z"/>
      <path class="cls-1" d="M63.9,5.7c-.15-.22-.32-.43-.5-.63-.07-.14-.13-.28-.22-.41l-.34-.5c-.23-.33-.46-.67-.69-1-.13-.19-.41-.21-.53,0-.46.78-.85,1.62-1.23,2.43-.1.21.02.42.26.44.53.04,1.06.07,1.59.04.26-.01.52-.04.78-.08.22-.03.46-.09.68-.02.15.05.3-.14.21-.28ZM63.08,5.56c-.26.02-.53.03-.79.02-.4-.01-.79-.05-1.19-.09.27-.54.55-1.08.83-1.62.16.2.32.41.49.61.12.15.24.3.36.45,0,0,0,0,0,0,0,.04.01.08.05.11.17.16.33.33.48.51-.08,0-.15,0-.23,0Z"/>
      <path class="cls-1" d="M67.42,5.92c-.15-.26-.4-.46-.62-.65-.11-.1-.23-.19-.35-.28-.16-.12-.29-.23-.49-.25-.27-.02-.41.3-.3.51,0,.02.03.02.04.04-.14.18-.29.35-.4.55-.09.16-.17.33-.25.5-.04.08-.07.16-.11.24-.02.04-.04.1-.06.14-.02.03-.06.05-.08.07-.21.24,0,.6.31.53.2-.04.4-.16.58-.24.17-.08.35-.15.52-.23.17-.08.34-.17.5-.26.08-.04.16-.08.24-.13.09-.05.17-.07.27-.09.2-.04.29-.29.19-.46ZM65.57,5.97c.08-.18.2-.34.3-.51.06.04.13.08.19.12.11.08.17.13.28.21.08.07.16.14.24.22-.22.08-.45.15-.66.24-.17.08-.35.15-.52.23-.01,0-.02,0-.03.01,0,0,0-.02,0-.03.06-.17.12-.34.19-.5Z"/>
      <path class="cls-1" d="M68.93,5.95c.11-.22.06-.48.05-.71-.01-.22-.03-.45-.05-.67-.04-.45-.1-.91-.17-1.36-.03-.23-.32-.3-.5-.21-.56.3-1.13.59-1.68.9-.21.12-.27.44-.08.61.41.37.85.72,1.3,1.03.09.06.2.04.3,0,.03.03.06.06.09.1.07.1.14.21.21.32.11.19.42.21.53,0ZM68.31,5.3c.02-.1,0-.21-.09-.28-.28-.22-.53-.47-.79-.71.25-.15.5-.3.74-.45.03.25.07.5.1.75.02.21.03.42.04.63,0,.02,0,.04,0,.07,0,0,0,0-.01,0Z"/>
      <path class="cls-1" d="M60.29,3.08c.04-.07.05-.16.02-.23-.09-.18-.22-.3-.36-.44-.14-.14-.28-.28-.43-.41-.29-.26-.58-.52-.87-.77-.14-.12-.41-.13-.49.07-.4.93-.71,1.9-.91,2.9-.06.29.21.47.47.36.43-.18.84-.38,1.26-.59.2-.1.4-.21.6-.32.21-.11.42-.26.64-.34.12-.04.12-.16.06-.23ZM58.57,1.99c.18.16.36.31.54.47.14.13.28.25.43.37.08.07.16.14.24.2.05.04.11.06.16.08-.17.06-.34.11-.5.16-.22.07-.45.14-.67.22-.25.09-.49.19-.74.28.14-.61.32-1.2.55-1.78Z"/>
      <path class="cls-1" d="M62.38,1.24c-.38-.15-.76-.28-1.15-.42-.2-.07-.39-.13-.59-.18-.21-.06-.42-.13-.64-.13-.05,0-.1.04-.12.09-.07-.14-.16-.28-.31-.31-.11-.02-.2.03-.24.14-.07.2.11.39.21.55.11.16.21.33.31.49.1.16.2.31.31.47.05.08.11.15.16.23.03.04.06.09.1.13.02.03.07.07.08.11.04.15.2.25.35.21.33-.09.63-.27.94-.42.3-.15.59-.29.89-.44.34-.17.03-.72-.29-.52ZM60.76,1.88c-.05-.07-.11-.14-.16-.2-.12-.16-.23-.31-.34-.47-.1-.14-.19-.28-.28-.43.06.04.12.09.19.12.1.04.2.08.31.13.2.08.4.16.61.23.25.08.5.16.75.24-.11.05-.23.11-.34.16-.22.1-.46.21-.67.33-.02-.03-.04-.07-.06-.09Z"/>
      <path class="cls-1" d="M59.21,6.71c.08-.28.1-.59.15-.88.03-.23.07-.47.1-.7.02-.02.04-.04.06-.05.04-.03.02-.1-.03-.11,0,0,0,0,0,0,0,0,0-.01,0-.02.01-.08-.02-.16-.11-.19-.08-.02-.17.03-.19.11l-.02.11c-.06,0-.11.02-.17.03-.17.03-.35.05-.52.07-.35.04-.69.1-1.04.14-.08,0-.16.04-.19.13-.03.07-.02.17.04.23.26.22.54.42.81.63.26.2.55.38.8.61.1.1.27.05.31-.08ZM58.35,5.89c-.15-.12-.29-.24-.44-.36.21-.04.43-.07.63-.12.17-.04.34-.09.51-.14.02,0,.04-.01.06-.02-.03.17-.07.33-.1.5-.04.19-.08.38-.12.58-.19-.14-.37-.29-.55-.44Z"/>
      <path class="cls-1" d="M56.72,1.93c.09-.17.19-.35.28-.52.04-.08.08-.16.13-.24.06-.09.13-.16.13-.28,0-.06-.03-.13-.09-.16-.02,0-.03,0-.04,0-.01-.01-.02-.02-.04-.03-.73-.28-1.51-.47-2.26-.69-.14-.04-.31.11-.26.26.27.74.56,1.48.85,2.21.04.11.14.23.28.22.48-.04.81-.36,1.03-.77ZM55.84,2.02c-.24-.49-.47-1-.69-1.5.51.12,1.02.24,1.54.33-.03.02-.05.04-.08.06-.16.13-.26.32-.35.5-.12.21-.24.47-.42.61Z"/>
      <path class="cls-1" d="M54.56,3.12c.06-.03.12-.09.1-.18-.12-.76-.37-1.48-.68-2.18-.1-.21-.38-.19-.52-.07-.15.13-.28.29-.42.44-.14.15-.29.31-.43.46-.28.3-.56.61-.84.91-.15.17-.11.52.15.56.41.06.83.12,1.24.18.21.03.43.09.64.09.1,0,.2-.02.3-.02.11,0,.22,0,.33,0,.12,0,.16-.1.14-.18ZM53.89,2.77c-.19-.07-.4-.08-.6-.12-.21-.04-.42-.08-.63-.12.15-.16.29-.32.44-.47.18-.19.36-.37.53-.56.28.45.5.93.66,1.44-.14-.05-.27-.11-.41-.16Z"/>
      <path class="cls-1" d="M56.4,4.92c.06-.2.11-.41.14-.62.06-.44.11-.93-.05-1.35-.1-.28-.51-.25-.53.07,0,.03,0,.06,0,.08-.36.17-.73.33-1.1.5-.18.08-.36.16-.54.23-.2.08-.38.19-.57.3-.16.09-.13.35.05.39.19.04.37.13.55.2.17.07.34.15.51.23.34.17.68.35.99.58.06.05.14.03.2,0,.22-.1.3-.38.36-.6ZM55.02,4.58c-.17-.09-.35-.17-.53-.25,0,0,0,0,0,0,.01,0,.02,0,.03-.01.19-.08.38-.17.57-.26.3-.14.57-.3.85-.47,0,.21,0,.42-.02.62-.02.19-.06.37-.11.55-.02.07-.05.15-.07.23-.24-.14-.48-.29-.73-.42Z"/>
      <path class="cls-1" d="M40.11,4.45c.09-.45.17-.93.17-1.39,0-.22-.01-.44-.03-.66,0-.11-.02-.22-.03-.33,0-.08-.04-.14-.07-.21-.02-.05-.03-.11-.04-.17-.04-.2-.32-.17-.36,0-.05-.04-.11-.06-.19-.02-.82.39-1.57.88-2.3,1.42-.2.15-.16.41.07.49.2.08.4.14.6.23.2.08.39.18.58.27.39.18.79.36,1.18.54.16.07.38.02.42-.18ZM38.7,3.62c-.19-.08-.39-.15-.58-.23-.07-.03-.14-.07-.21-.1.58-.43,1.17-.84,1.78-1.24,0,.01,0,.02,0,.03,0,.11,0,.22,0,.33,0,.21-.01.42-.03.64-.02.31-.04.62-.07.93-.3-.12-.59-.24-.89-.35Z"/>
      <path class="cls-1" d="M39.77,5.48c-.24-.12-.5-.21-.75-.3-.13-.09-.25-.18-.39-.25-.18-.09-.37-.17-.55-.26-.37-.17-.73-.35-1.1-.52-.21-.1-.46.02-.46.27-.01.9.08,1.82.15,2.72.02.23.23.35.44.26.48-.23.95-.47,1.4-.76.22-.14.43-.29.64-.46.17-.14.35-.31.57-.36.15-.03.19-.27.05-.34ZM38.99,5.77c-.22.15-.44.29-.67.41-.35.19-.71.35-1.08.51-.04-.61-.06-1.21-.09-1.82l.72.28c.18.07.36.14.54.21,0,0,0,0,0,0,.02.03.05.06.1.07.23.05.45.12.67.21-.07.04-.13.08-.2.12Z"/>
      <path class="cls-1" d="M42.92,3.9c-.26-.15-.58-.2-.86-.25-.15-.03-.29-.05-.44-.07-.19-.02-.37-.06-.55.03-.25.12-.21.46,0,.59.01,0,.03,0,.05.01-.03.23-.07.45-.07.68,0,.19.01.37.03.55.01.09.02.18.02.26,0,.05.02.1.01.15,0,.03-.03.07-.03.1-.07.31.3.52.53.31.15-.14.26-.34.38-.5.11-.15.23-.3.34-.46.11-.15.21-.32.31-.47.05-.08.1-.15.15-.23.05-.09.11-.14.19-.21.15-.14.11-.4-.06-.5ZM41.35,4.87c-.02-.2,0-.4,0-.59.07,0,.15,0,.22.01.13.01.21.02.35.04.11.02.21.04.32.07-.15.18-.31.35-.45.54-.11.15-.22.31-.33.46,0,0-.01.02-.02.03,0-.01,0-.02,0-.03-.04-.17-.06-.35-.08-.53Z"/>
      <path class="cls-1" d="M44.25,3.18c-.02-.24-.19-.45-.31-.64-.12-.19-.25-.37-.37-.56-.26-.37-.54-.74-.82-1.09-.14-.18-.43-.1-.54.07-.33.54-.69,1.07-1,1.62-.12.21-.01.51.24.57.54.12,1.09.2,1.65.24.11,0,.19-.06.25-.15.04.01.08.02.12.04.11.06.23.11.34.17.19.11.47-.03.46-.27ZM43.38,2.93c-.04-.1-.11-.18-.22-.19-.35-.05-.69-.14-1.04-.22.14-.25.28-.5.42-.76.15.2.31.39.46.6.12.17.24.35.35.52.01.02.02.04.03.06,0,0,0,0-.01,0Z"/>
      <path class="cls-1" d="M35.33,5.02c0-.08-.04-.16-.1-.21-.17-.11-.34-.16-.53-.21-.19-.05-.38-.1-.58-.14-.38-.08-.76-.16-1.13-.23-.18-.03-.42.09-.39.31.12,1.01.33,2,.66,2.97.1.28.42.3.59.08.28-.37.54-.75.79-1.14.12-.19.24-.38.36-.58.12-.2.24-.44.39-.61.08-.1.02-.19-.06-.23ZM33.29,4.93c.23.05.47.09.7.14.18.04.37.07.56.11.1.02.2.04.31.06.06.01.12,0,.18,0-.11.13-.24.26-.35.39-.16.17-.32.35-.47.53-.17.2-.33.41-.5.61-.18-.6-.32-1.2-.41-1.82Z"/>
      <path class="cls-1" d="M36.22,2.37c-.4.06-.8.14-1.2.21-.2.04-.4.08-.6.13-.21.06-.43.09-.62.21-.05.03-.07.09-.06.14-.13-.08-.28-.17-.42-.11-.11.04-.16.13-.14.24.04.21.29.29.46.37.17.09.34.18.52.27.17.09.33.17.5.25.08.04.17.08.25.12.05.02.1.04.15.07.03.01.1.03.12.05.11.11.3.11.41,0,.24-.24.41-.55.6-.83.18-.27.37-.55.55-.82.21-.32-.33-.64-.51-.3ZM35.14,3.74c-.08-.03-.16-.06-.24-.1-.18-.08-.36-.16-.53-.24-.15-.07-.31-.15-.46-.23.07,0,.15.01.23,0,.11-.01.22-.03.33-.04.22-.03.43-.06.64-.11.26-.05.51-.11.77-.17-.07.1-.15.21-.22.31-.14.2-.29.41-.42.62-.04-.02-.07-.04-.1-.05Z"/>
      <path class="cls-1" d="M36.21,8.7c-.07-.29-.2-.56-.31-.84-.09-.22-.17-.44-.26-.66,0-.03.02-.05.03-.08.02-.05-.04-.09-.08-.08,0,0,0,0,0,0,0,0,0-.01,0-.02-.03-.08-.1-.13-.19-.11-.08.02-.13.11-.11.19l.03.1s-.09.07-.13.11c-.14.11-.27.22-.41.32-.28.21-.55.43-.84.64-.07.05-.11.12-.1.21.01.08.07.16.15.17.34.06.68.1,1.02.14.33.04.67.05.99.13.14.03.26-.09.23-.23ZM35.06,8.42c-.19-.03-.37-.06-.56-.09.17-.14.34-.27.49-.42.13-.12.25-.25.37-.38.01-.02.03-.03.04-.05.05.16.11.32.16.49.06.19.12.37.19.56-.23-.03-.46-.07-.69-.11Z"/>
      <path class="cls-1" d="M31.67,5.8c0-.2-.01-.4-.01-.59,0-.09-.02-.18,0-.27,0-.11.03-.2-.03-.3-.03-.05-.09-.1-.16-.09-.02,0-.03.01-.04.01-.02,0-.03-.01-.05,0-.78.12-1.54.35-2.3.54-.14.04-.22.25-.1.35.61.51,1.22,1,1.84,1.49.09.07.24.13.35.05.39-.28.52-.72.51-1.18ZM30.94,6.32c-.46-.31-.91-.63-1.35-.95.5-.15,1.01-.3,1.5-.48-.01.03-.03.06-.04.09-.07.19-.06.4-.06.61,0,.24.03.52-.06.74Z"/>
      <path class="cls-1" d="M30.39,7.91c.04-.06.05-.14,0-.21-.48-.6-1.06-1.09-1.68-1.54-.19-.14-.42.02-.49.2-.07.19-.1.39-.14.59-.05.2-.09.41-.14.61-.09.4-.18.8-.27,1.21-.05.22.16.5.41.41.39-.15.78-.31,1.16-.46.19-.08.41-.14.59-.24.09-.05.17-.12.25-.17.09-.06.19-.11.28-.17.1-.06.09-.16.03-.23ZM29.63,7.94c-.2.04-.39.13-.58.19-.2.07-.4.14-.61.21.05-.21.1-.42.15-.63.06-.25.12-.5.18-.76.47.25.9.56,1.29.92-.15.02-.29.04-.43.07Z"/>
      <path class="cls-1" d="M32.88,8.55c-.05-.21-.11-.41-.19-.61-.16-.41-.37-.86-.72-1.15-.23-.19-.57.04-.43.32.01.02.03.05.04.07-.23.33-.47.66-.7.98-.11.16-.23.31-.35.47-.13.17-.24.36-.35.55-.09.15.06.36.24.31.18-.06.38-.07.57-.1.19-.02.37-.04.56-.05.38-.02.77-.04,1.15,0,.08,0,.14-.05.18-.1.15-.2.06-.48.01-.7ZM31.52,8.95c-.19.01-.39.03-.58.05,0,0,0,0,0,0,0,0,.02-.02.02-.03.13-.17.25-.34.37-.51.19-.27.35-.55.51-.83.11.18.21.36.3.55.07.17.13.35.18.53.02.07.04.16.06.24-.28,0-.56-.01-.84,0Z"/>
      <path class="cls-1" d="M22.89,10.43c-.2-.07-.47.04-.67.11-.21.07-.42.16-.62.26-.37.18-.72.39-1.07.62-.3.19-.07.62.23.53.2.17.41.33.61.5.27.22.54.43.81.65.07.05.15.07.23.03.19-.1.22-.36.27-.56.05-.2.1-.39.15-.59.05-.2.09-.39.14-.59.04-.2.07-.4.13-.59.05-.16-.06-.31-.2-.36ZM22.31,11.86c-.04.19-.08.38-.12.57-.01.06-.03.12-.04.18-.19-.14-.38-.28-.57-.41-.17-.12-.35-.25-.53-.38.28-.16.56-.31.86-.45.17-.08.33-.15.5-.2.02,0,.04,0,.06-.02,0,.05-.02.09-.03.14-.04.19-.07.38-.11.58Z"/>
      <path class="cls-1" d="M26.33,8.67c-.43.13-.85.28-1.26.46-.19.09-.38.18-.57.27-.21.11-.42.21-.6.36-.17.15-.02.44.19.43.11.1.21.2.32.29.17.15.35.29.52.44.35.29.72.56,1.05.86.13.13.38.08.42-.11.05-.22.06-.47.09-.7.03-.23.05-.45.08-.68.04-.45.08-.91.12-1.36.02-.19-.2-.32-.36-.28ZM24.64,10.18c-.06-.04-.12-.09-.18-.13.09-.05.18-.1.27-.15.19-.1.38-.19.58-.27.25-.11.51-.19.77-.28-.03.31-.06.61-.09.92-.02.22-.03.44-.05.65,0,.07-.01.14-.02.21-.25-.18-.49-.37-.74-.55-.18-.14-.37-.27-.55-.4Z"/>
      <path class="cls-1" d="M24.84,12.23c-.1-.13-.2-.26-.32-.38-.22-.23-.48-.42-.75-.57-.12-.07-.29-.03-.36.09-.06.11-.03.26.07.33-.04.08-.07.18-.1.26-.04.13-.09.26-.14.39-.09.25-.19.49-.29.73-.07.16.04.33.22.29.29-.06.58-.13.86-.22.14-.04.27-.09.41-.13.07-.03.14-.05.22-.08.03-.01.06-.02.09-.04.03-.01.08-.04.1-.04.1,0,.21-.09.2-.2-.02-.17-.12-.31-.22-.44ZM23.45,12.91c.06-.14.12-.27.16-.41.04-.13.08-.26.12-.39.02-.06.04-.12.06-.19.02.01.05.03.07.04.1.07.2.15.31.25.1.09.2.19.29.3.02.03.04.05.06.08-.35.13-.71.23-1.07.32Z"/>
      <path class="cls-1" d="M26.94,7.49c-.06-.33-.13-.66-.19-.99-.04-.22-.36-.24-.47-.06-.16.29-.38.55-.59.81-.22.26-.44.52-.68.77-.04.04-.04.08-.04.11-.08.02-.16.04-.22.1-.1.09-.07.26.04.33.15.09.36.04.53.03.17-.01.33-.03.5-.05.16-.02.32-.03.48-.05.16-.02.33-.02.48-.06.22-.06.29-.25.25-.45-.03-.16-.06-.32-.09-.48ZM25.65,8.05c-.1.01-.2.02-.31.03.22-.18.43-.36.64-.57.13-.13.24-.27.36-.4.02.12.05.24.07.36.03.15.06.29.09.44,0,.01,0,.02,0,.03,0,0-.01,0-.02,0-.28.04-.56.07-.84.1Z"/>
      <path class="cls-1" d="M30.21,9.9c-.44-.16-.91-.2-1.38-.21-.24,0-.48,0-.71,0-.26,0-.53-.02-.78.01-.27.03-.3.32-.12.44-.02.43-.06.87-.13,1.3-.04.21.15.35.35.27.96-.42,1.9-.86,2.84-1.32.22-.11.13-.4-.06-.48ZM29.34,10.25c-.57.29-1.15.57-1.73.84.03-.29.05-.59.04-.89.56.03,1.13,0,1.69.04Z"/>
      <path class="cls-1" d="M24.35,14.32c-.41-.11-.82-.19-1.23-.27-.2-.04-.4-.08-.6-.11-.22-.03-.48-.12-.69-.05-.16.05-.25.28-.11.4.02.01.04.01.05.03-.02.09-.03.18-.05.27-.03.16-.06.32-.08.47-.06.32-.11.65-.16.98-.03.19.16.4.36.27.83-.53,1.69-1.03,2.58-1.46.23-.11.16-.47-.07-.53ZM22.33,14.51c.2.05.41.1.62.14.16.03.33.06.49.09-.49.28-.96.57-1.43.88.02-.17.04-.34.06-.5.02-.16.04-.32.06-.48,0-.06.02-.12.03-.17.06.01.12.03.18.05Z"/>
      <path class="cls-1" d="M26.51,13.68c-.05-.19-.13-.38-.21-.56-.04-.09-.08-.2-.13-.28-.04-.06-.09-.11-.13-.16,0,0,0,0,0,0,.06-.08-.04-.19-.13-.16-.14.04-.24.13-.35.21-.11.08-.21.17-.31.27-.2.19-.38.4-.54.62-.08.11.03.26.15.26l.71.02c.11,0,.23,0,.34.01.11,0,.23,0,.34.02.15.02.3-.09.25-.25ZM25.59,13.54c-.12,0-.24,0-.36,0,.09-.11.17-.22.27-.32.09-.09.18-.17.27-.26.02-.02.03-.03.05-.05,0,.02,0,.04,0,.06.01.1.05.2.09.29.04.09.08.18.11.28-.14,0-.29,0-.43,0Z"/>
      <path class="cls-1" d="M8.69,24.96s0,0,0,0c-.03-.03-.06-.05-.11-.04-.33.05-.66.09-1,.14-.33.05-.65.12-.98.14-.16.01-.26.17-.18.32.17.34.37.66.6.97.23.31.49.59.74.88.1.11.29.08.36-.05.39-.69.73-1.44.95-2.2.07-.22-.27-.37-.37-.16ZM7.86,26.8c-.36-.37-.66-.79-.92-1.24.24-.06.48-.11.72-.16.32-.07.63-.14.94-.22-.13.28-.26.56-.39.85-.11.26-.23.51-.35.77Z"/>
      <path class="cls-1" d="M11.49,26.53c-.09-.04-.21,0-.27.08-.14.03-.29.09-.43.14-.17.06-.34.12-.5.18-.17.06-.34.12-.5.18-.16.06-.35.11-.39.3-.04.19.11.35.21.49.1.14.21.28.32.42.22.27.47.53.7.79.13.15.35.05.41-.11.13-.35.2-.73.3-1.1.1-.37.2-.73.28-1.1.02-.11-.02-.23-.13-.27ZM10.87,27.77c-.06.22-.13.44-.19.66-.11-.12-.22-.22-.32-.34-.1-.11-.19-.23-.28-.35-.05-.07-.11-.14-.17-.21,0,0,.01,0,.02,0,.07-.03.15-.06.22-.09.15-.06.29-.12.44-.18.15-.06.3-.12.44-.19.02,0,.03-.02.05-.02-.07.24-.14.48-.21.73Z"/>
      <path class="cls-1" d="M9.6,28.68c-.2-.11-.4-.22-.61-.31-.1-.05-.21-.09-.31-.13-.11-.04-.23-.11-.35-.1,0,0-.01,0-.02,0-.1-.09-.26-.07-.31.08-.05.15-.03.34-.03.49,0,.16,0,.32,0,.48,0,.32,0,.63,0,.95,0,.15.19.29.33.19.51-.38,1-.83,1.37-1.35.07-.09.02-.24-.08-.29ZM8.41,29.66c0-.16,0-.32,0-.48,0-.16,0-.32,0-.48,0-.07,0-.14,0-.21.04.02.08.03.12.05.1.05.19.1.29.15.12.07.23.14.34.21-.23.27-.48.52-.74.75Z"/>
      <path class="cls-1" d="M6.88,28.61c-.21.05-.43.08-.65.12-.11.02-.22.04-.33.07-.06.01-.12.02-.18.04-.03,0-.12.04-.15.03-.16-.06-.34.13-.29.29.21.61.44,1.21.7,1.8.08.17.32.13.41,0,.41-.63.42-1.4.75-2.06.09-.19-.11-.35-.26-.28ZM5.82,29.22c.16-.05.33-.09.5-.14.12-.03.24-.07.35-.1-.17.42-.28.86-.44,1.27-.14-.34-.28-.69-.41-1.04Z"/>
      <path class="cls-1" d="M9.66,32.34c-.35.13-.69.27-1.03.44-.32.16-.69.32-.94.58-.14.14,0,.41.2.34,0,0,0,0,0,0,.17.49.36.97.54,1.46.07.19.35.27.46.06.43-.82.78-1.69,1.07-2.56.06-.17-.13-.37-.3-.3ZM8.26,33.52c.19-.1.38-.21.57-.3.15-.07.3-.12.45-.19-.19.49-.39.97-.61,1.45-.13-.32-.27-.64-.42-.95Z"/>
      <path class="cls-1" d="M6.81,32.52c-.16-.24-.34-.46-.54-.68-.09-.1-.18-.2-.28-.29-.05-.05-.1-.1-.15-.16-.01-.09-.08-.18-.19-.18-.05,0-.09,0-.14,0-.17,0-.26.16-.23.31-.15.16-.3.32-.45.48-.09.1-.23.21-.23.35,0,.16.13.23.27.27.53.15,1.09.21,1.64.19.02,0,.02.03.05.03.18.07.35-.17.25-.32ZM5.04,32.29s-.01,0-.02,0c.02-.03.04-.07.05-.07.03-.05.07-.1.1-.14.08-.12.17-.24.25-.35.06.06.12.12.18.17.1.1.2.2.3.3.08.09.16.18.24.26-.32-.01-.64-.04-.96-.12-.05-.01-.1-.02-.15-.04Z"/>
      <path class="cls-1" d="M10.59,30.15c-.1-.09-.26-.13-.38-.05-.08.05-.12.12-.14.2-.45.15-.9.32-1.34.5-.27.11-.54.23-.81.36-.28.13-.57.25-.82.41-.2.13-.14.5.13.48.51-.04,1.04-.02,1.55-.03.25,0,.51,0,.76,0,.23,0,.48-.02.71,0,.15.09.39.03.42-.16.04-.29.04-.59.04-.88,0-.25.09-.65-.12-.83ZM9.57,31.56c-.26,0-.53,0-.79,0-.19,0-.37,0-.56,0,.24-.13.47-.25.7-.38.38-.21.77-.42,1.16-.62,0,.03,0,.07,0,.08,0,.05,0,.11,0,.16,0,.12,0,.24,0,.35,0,.14.01.28.02.42-.18,0-.36,0-.54,0Z"/>
      <path class="cls-1" d="M3.39,52.5c-.24-.41-.54-.8-.8-1.21-.26-.41-.53-.81-.79-1.22-.19-.3-.63-.1-.59.2-.07.09-.13.18-.2.27-.13.17-.25.34-.36.52-.23.35-.44.72-.62,1.1-.05.12-.02.29.13.32.99.18,1.99.32,2.99.45.22.03.35-.26.25-.43ZM.97,51.28c.1-.17.21-.35.32-.51.03-.05.07-.09.1-.14.2.35.41.69.64,1.02.15.22.31.45.47.67-.66-.04-1.32-.11-1.97-.22.13-.28.27-.55.42-.82Z"/>
      <path class="cls-1" d="M5.1,51.43c-.27-.09-.53-.2-.78-.31-.13-.06-.26-.12-.38-.18-.14-.07-.35-.21-.51-.14-.07.03-.12.09-.13.16-.02.03-.02.07-.02.11.04.29.18.58.3.85.12.27.26.53.42.78.08.13.23.13.34.04.33-.25.61-.57.88-.89.12-.15.08-.35-.11-.42ZM3.91,51.73c-.05-.1-.1-.2-.14-.3.12.05.23.11.35.16.16.07.33.12.49.18-.13.15-.26.3-.4.44-.11-.16-.21-.32-.3-.48Z"/>
      <path class="cls-1" d="M5.79,50.36c-.01-.08-.02-.16-.04-.25-.03-.13-.06-.26-.1-.39-.04-.13-.08-.26-.12-.39-.05-.15-.11-.42-.3-.45-.11-.02-.19.01-.26.1-.04.05-.04.11-.04.17-.01,0-.02-.01-.03,0-.1.04-.17.13-.23.21-.07.08-.14.17-.2.25-.12.16-.26.35-.33.55-.03.1.05.19.14.19.1,0,.19.03.29.04.1.02.2.04.3.06.1.02.2.05.3.07.04.01.09.02.13.04.03,0,.05.02.08.02.01,0,.03,0,.04.01.01.02.02.04.04.06h0c.08.08.25.08.31-.04.04-.09.03-.16.02-.26ZM5.25,50.28c-.1-.03-.2-.06-.31-.08-.1-.02-.2-.05-.3-.07-.04,0-.08-.02-.12-.03.06-.1.13-.21.2-.31.05-.08.1-.16.16-.24.04-.05.08-.11.12-.17.01.03.03.06.04.08.05.13.1.25.14.38.04.13.08.26.12.39,0,.02.01.04.02.06-.02,0-.04-.01-.06-.02Z"/>
      <path class="cls-1" d="M2.57,54.09c-.05-.16-.11-.32-.18-.47-.07-.16-.13-.31-.26-.43-.16-.16-.38-.05-.43.13-.43.43-.88.86-1.3,1.3-.11.11-.08.36.1.39l.98.15c.16.03.32.05.48.08.08.01.15.02.23.05.08.03.17.06.26.09.1.03.21,0,.28-.07.08-.08.09-.17.07-.28-.05-.32-.12-.63-.22-.93ZM1.58,54.71c-.19-.03-.38-.06-.57-.1.26-.29.52-.58.78-.87,0,.02.02.03.02.05,0,0,.03.08.03.06.06.14.12.28.17.43.06.17.09.35.14.52-.03,0-.05,0-.09,0-.16-.03-.32-.05-.48-.08Z"/>
      <path class="cls-1" d="M5.56,54.9c-.03-.21-.24-.21-.38-.12-.02,0-.03,0-.05,0-.87.48-1.8.78-2.77.95-.18.03-.17.27-.05.35,1.22.87,2.46,1.7,3.72,2.5.14.09.31-.06.27-.21-.31-1.15-.55-2.31-.74-3.48ZM5.82,58.01c-.99-.64-1.97-1.3-2.94-1.99.77-.18,1.52-.46,2.22-.84.2.95.44,1.89.72,2.83Z"/>
      <path class="cls-1" d="M5.36,53.36c-.32-.06-.66-.08-.98-.11-.32-.03-.65-.04-.97-.06-.14,0-.28.05-.32.2-.05.14-.04.31-.05.46-.03.33-.06.66-.08.99-.01.13.15.21.26.15.72-.43,1.39-.92,2.12-1.33.03-.01.04-.04.04-.06.09-.05.12-.21-.01-.23ZM4.29,53.61c.21.01.43.02.65.01-.53.31-1.08.6-1.61.9.01-.13.02-.27.03-.4,0-.11.02-.23.03-.34,0-.05,0-.14.02-.22.12,0,.25.01.37.02.17,0,.35.02.52.03Z"/>
      <path class="cls-1" d="M2.94,57.54c-.14-.19-.33-.36-.49-.52-.16-.16-.33-.33-.51-.48-.01,0-.03,0-.04-.01.02-.09-.1-.15-.15-.06,0,0-.01.02-.02.03-.05,0-.1.01-.13.05-.06.06-.07.15-.04.23-.29.48-.62.94-.98,1.38-.11.13,0,.31.16.28.34-.07.68-.15,1.02-.24.16-.05.32-.1.48-.15.09-.03.17-.06.26-.09.04-.01.07-.02.11-.04.05-.02.08,0,.13-.01.16,0,.31-.2.2-.35ZM2.1,57.68c-.16.05-.32.1-.48.15-.18.05-.36.1-.54.15.22-.33.42-.67.6-1.03.13.13.27.26.4.39.08.08.16.15.23.23,0,0,.02.01.02.02,0,0-.02,0-.02,0-.07.03-.15.05-.22.07Z"/>
      <path class="cls-1" d="M9.25,75.27c-.21.17-.45.3-.68.43s-.46.26-.7.39c-.33.18-.67.35-1.01.53.04-.26.08-.52.12-.78.03-.2.06-.41.09-.61.01-.1.03-.24.07-.35.69.16,1.38.32,2.09.4.07,0,.11-.11.04-.14-.71-.32-1.45-.54-2.19-.77-.09-.03-.17,0-.24.06-.15.13-.18.32-.2.51l-.1.7c-.07.47-.13.93-.2,1.4-.02.18.21.27.34.2.48-.25.95-.52,1.41-.8.46-.28.9-.62,1.38-.86.23-.11,0-.47-.22-.29Z"/>
      <path class="cls-1" d="M11.05,72.45c-.14-.19-.44-.03-.34.18,0,0-.01.02-.01.03-.03.39,0,.78-.02,1.16,0,.19-.02.38-.03.57-.01.17-.06.36-.01.53.04.14.16.23.28.31.16.1.32.2.48.3.34.21.67.42,1.01.62.15.1.35-.06.3-.23-.34-1.24-.9-2.41-1.65-3.46ZM11.26,74.97c-.06-.04-.16-.07-.21-.13-.05-.05-.05-.09-.05-.16.03-.48.07-.98.05-1.47.42.73.78,1.49,1.07,2.29-.14-.08-.28-.17-.41-.25-.15-.09-.3-.18-.45-.27Z"/>
      <path class="cls-1" d="M17.05,80.64c-.5-.48-1.03-.94-1.56-1.39-.26-.22-.53-.44-.8-.65-.27-.21-.57-.46-.89-.59-.23-.09-.37.23-.23.39.07.07.15.13.23.19-.06.03-.09.11-.05.19.17.33.36.65.55.97.1.16.2.32.3.47.09.14.17.3.28.42.1.11.22.14.36.16.18.02.37.02.55.03.19,0,.37.02.56.03.2.01.4,0,.59.02.12.01.18-.16.1-.24ZM15.95,80.5c-.17-.02-.33-.03-.5-.05-.07,0-.17,0-.24-.02-.07-.03-.09-.07-.14-.13-.34-.49-.65-1-.97-1.5.09.06.18.13.27.19.28.2.57.39.84.59.43.31.85.64,1.27.97-.18-.02-.36-.04-.54-.06Z"/>
      <path class="cls-1" d="M11.74,77.19c-.27-.56-.7-1.06-1.16-1.48-.2-.18-.46.04-.39.24-.08.05-.16.11-.24.17-.13.1-.26.21-.39.33-.25.23-.47.48-.68.75-.1.13-.04.32.14.33.43.02.85.02,1.28,0,.21,0,.42-.01.63-.02.22-.01.44-.04.65-.04.16,0,.23-.17.17-.29ZM10.9,77.14c-.21,0-.42.02-.63.02-.28,0-.56,0-.84,0,.12-.15.24-.3.37-.43.11-.11.22-.22.33-.32.08-.07.15-.14.23-.21.3.29.58.61.84.94-.1,0-.2,0-.3,0Z"/>
      <path class="cls-1" d="M11.18,78.46c-.42-.1-.85-.15-1.28-.2-.43-.06-.85-.1-1.28-.14-.13-.01-.25.12-.25.25,0,.14.11.22.23.24l.43.8c.08.16.17.31.25.47.07.12.16.23.31.2.15-.03.29-.17.4-.26.14-.1.27-.22.4-.32.27-.22.54-.46.83-.64.15-.09.13-.34-.05-.39ZM9.58,79.67s0,0-.01,0c-.03-.05-.07-.11-.09-.15-.08-.12-.15-.25-.23-.37-.11-.17-.22-.35-.32-.52.32.03.63.06.95.1.25.03.5.06.74.09-.34.29-.7.56-1.03.85Z"/>
      <path class="cls-1" d="M14.84,77.77c-.18-.31-.35-.63-.54-.93-.09-.15-.18-.3-.27-.45-.05-.08-.09-.15-.14-.22-.07-.1-.14-.15-.26-.16-.09-.01-.15.07-.18.14-.02.04-.02.08-.01.13-.01,0-.02,0-.03.01-.12.05-.23.09-.35.14-.23.1-.46.2-.68.31-.07.04-.1.13-.08.2.04.2.25.27.41.35.21.09.42.19.63.28.42.18.85.36,1.28.52.18.07.32-.16.23-.31ZM13.04,77.02c-.09-.04-.18-.07-.27-.11.14-.08.28-.16.43-.24.11-.06.21-.11.32-.17,0,0,0,0,.01,0,.03.05.07.1.09.15.09.15.18.3.28.45.08.12.16.24.24.36-.18-.07-.37-.13-.55-.21-.19-.07-.37-.15-.55-.23Z"/>
      <path class="cls-1" d="M13.54,79.96c-.17-.59-.37-1.17-.6-1.74-.05-.13-.17-.22-.31-.18-.08.02-.13.09-.16.17-.21.16-.4.33-.6.51-.21.19-.45.37-.65.57-.12.12-.08.36.11.4.33.07.64.19.96.28.32.09.64.18.97.27.17.04.34-.11.28-.28ZM11.84,79.37c.11-.11.22-.22.33-.32.13-.13.26-.26.39-.4.12.35.25.69.38,1.03-.17-.05-.35-.09-.52-.14-.19-.06-.39-.11-.58-.17Z"/>
      <path class="cls-1" d="M12.07,81.68c0-.39,0-.79-.04-1.18-.03-.23-.27-.26-.38-.12-.07,0-.14-.02-.22,0-.09.01-.17.02-.26.03-.17.03-.34.06-.5.09-.17.03-.38.04-.51.15-.16.14-.14.37-.03.53.1.14.24.27.35.4.12.13.23.25.35.37.23.25.46.5.7.74.08.08.22.1.32.04.17-.1.22-.28.22-.47,0-.2,0-.39,0-.59ZM10.74,81.06s-.03-.03-.04-.04c.07-.02.14-.03.21-.05.21-.05.44-.1.65-.18-.01.24-.02.49-.02.73,0,.14,0,.27,0,.41-.27-.29-.54-.58-.8-.87Z"/>
      <path class="cls-1" d="M36.23,93.74c-.27-.16-.6-.26-.89-.38-.29-.12-.58-.23-.86-.35-.59-.23-1.17-.48-1.76-.7-.22-.08-.45.22-.31.41.55.76,1.18,1.47,1.88,2.1.1.09.22.07.31,0,0,0,.01,0,.02,0,.51-.24,1.01-.49,1.56-.63.21-.05.23-.34.06-.45ZM33.47,93.2c.28.11.55.22.83.33.28.11.56.22.84.33.11.04.21.09.32.13-.29.14-.56.3-.82.48,0,0,0,0,0,0-.42-.39-.8-.82-1.16-1.26Z"/>
      <path class="cls-1" d="M29.52,94.69c-.41-.24-.79-.6-1.15-.91-.36-.32-.72-.65-1.06-.99-.1-.1-.27-.08-.34.04-.04.08-.31.13-.39.15-.15.05-.3.11-.46.16-.31.1-.61.2-.92.29,0,0,0,0-.01,0-.13-.02-.25-.03-.37,0-.3.07-.23.54.07.53.18,0,.38.09.55.13.17.05.35.09.52.14.39.11.78.21,1.17.32.37.1.75.2,1.13.3.38.1.76.23,1.15.28.25.03.32-.34.12-.45ZM27.14,93.98c-.4-.11-.81-.22-1.21-.33-.08-.02-.17-.05-.25-.08.26-.07.51-.15.77-.23.11-.04.22-.07.33-.11.05-.02.19-.1.25-.08.13.03.31.28.41.38.28.27.56.53.85.78,0,0,0,0,0,0-.39-.11-.77-.23-1.16-.33Z"/>
      <path class="cls-1" d="M30.85,91.83c-.38-.3-.82-.54-1.25-.77-.43-.23-.85-.46-1.3-.65-.21-.09-.52-.28-.74-.14-.11.07-.15.19-.12.31.02.07.06.12.12.17-.01.02-.01.05,0,.08.17.33.34.66.51,1,.16.33.39.67.45,1.03.02.12.18.2.29.16.32-.1.63-.26.94-.38.31-.12.64-.25.97-.33.19-.05.3-.35.13-.48ZM29.59,92.14c-.26.11-.53.22-.78.36-.21-.24-.36-.53-.52-.8-.16-.26-.31-.53-.46-.79.39.22.8.41,1.2.62.3.15.6.32.9.48-.11.04-.23.08-.34.13Z"/>
      <path class="cls-1" d="M33.44,95.17c-.68-.72-1.2-1.56-1.74-2.4-.17-.26-.49-.17-.58.08-.04,0-.07.01-.12.03-.14.04-.27.09-.41.13-.29.09-.59.18-.88.28-.14.05-.27.09-.33.24-.06.14-.01.29.09.39.18.19.45.33.67.46.47.29.96.54,1.46.75.25.1.51.2.77.28.26.08.53.14.79.23.28.1.46-.29.28-.48ZM31.48,94.48c-.29-.13-.56-.28-.83-.44-.13-.07-.25-.15-.37-.23-.05-.03-.1-.07-.15-.1.04-.02.09-.04.13-.06.15-.07.3-.14.45-.21.14-.06.28-.13.42-.19.04.08.12.14.21.15.32.49.66.98,1.04,1.43,0,0-.01,0-.02,0-.29-.1-.58-.22-.87-.35Z"/>
      <path class="cls-1" d="M30.71,95.59s.04-.09.02-.13c-.03-.09-.12-.13-.21-.12-.58.09-1.16.17-1.75.22-.09,0-.17.05-.21.14-.03.08-.02.19.05.25.57.47,1.1.98,1.61,1.5.11.11.32.06.35-.09.06-.28.07-.58.09-.87.03-.28.05-.56.06-.85,0-.02-.02-.04-.03-.06ZM30.19,96.84c-.3-.3-.61-.6-.92-.89.35-.06.69-.13,1.03-.21-.03.25-.06.49-.08.74,0,.12-.02.24-.03.35Z"/>
      <path class="cls-1" d="M33.4,96.67c.03-.06.02-.14-.04-.2-.15-.13-.35-.18-.53-.25-.15-.06-.31-.12-.46-.19-.16-.07-.31-.15-.47-.23-.16-.09-.32-.2-.49-.27-.09-.04-.17-.05-.26,0-.07.04-.13.13-.13.22.02.37.03.75.03,1.12v.56c0,.18-.02.4.03.57.05.17.23.19.35.09.14-.11.31-.2.47-.3l.49-.32c.16-.1.32-.21.48-.31.17-.11.32-.23.49-.33.07-.04.07-.12.04-.18ZM32.7,96.92c-.16.09-.33.19-.49.28l-.49.28c-.07.04-.13.07-.2.11,0-.05,0-.1,0-.15,0-.19,0-.37,0-.56,0-.23.01-.46.02-.69.03.01.05.03.07.04.17.08.34.16.51.24.18.08.36.15.54.21.09.03.2.07.3.1-.09.04-.17.09-.26.14Z"/>
      <path class="cls-1" d="M54.38,101.36c-.58-.68-.94-1.43-1.16-2.29-.04-.14-.17-.17-.29-.14-.03-.02-.07-.04-.12,0-1.05.58-2.02,1.28-2.89,2.11-.17.16-.02.39.17.41.68.09,1.37.16,2.05.23.69.06,1.37.08,2.06.14.25.02.32-.29.19-.45ZM50.64,101.03c.68-.63,1.4-1.24,2.16-1.78.07.72.36,1.44.81,2.02-.99-.03-1.98-.13-2.96-.24Z"/>
      <path class="cls-1" d="M58.87,96.54s-.08-.01-.11-.02c0,0,0,0,0,0-.18-.04-.37-.04-.56-.02-.26.03-.52.06-.78.09-.51.06-1.03.11-1.54.17-.15.02-.23.12-.21.27.1.65.25,1.29.45,1.91.04.12.21.23.33.13.88-.68,1.69-1.43,2.43-2.26,0,0,0-.02.01-.03.1-.04.11-.21-.01-.25ZM56.45,98.5c-.13-.44-.24-.89-.32-1.34.42-.06.83-.12,1.25-.18.25-.04.5-.07.75-.11.07-.01.15-.02.22-.04-.6.59-1.24,1.14-1.9,1.67Z"/>
      <path class="cls-1" d="M53.52,97.05c-.1-.08-.21-.05-.32,0-.02-.01-.04-.03-.06-.03-.83-.1-1.67-.12-2.5-.24-.24-.04-.39.25-.17.4.45.31.91.61,1.37.91.22.15.43.33.67.1.16-.15.3-.32.48-.46.08-.07.17-.13.26-.18.09-.06.2-.11.28-.2.08-.09.09-.22,0-.3ZM52.37,97.65s-.09.09-.13.14c0,0,0,.01-.01.02-.24-.15-.47-.31-.7-.46-.03-.02-.06-.04-.09-.06.46.03.92.03,1.38,0-.07.05-.14.1-.2.15-.09.07-.17.14-.25.22Z"/>
      <path class="cls-1" d="M55.39,99.37c-.01-.68-.07-1.35-.1-2.03-.01-.23-.32-.23-.36-.03-.04,0-.09,0-.13.03-.14.12-.23.31-.33.46-.11.17-.22.34-.32.51-.17.28-.46.59-.33.94.13.35.33.68.49,1.01.18.36.36.72.53,1.08.1.2.39.13.45-.06.09-.28.1-.58.1-.87,0-.34,0-.69-.02-1.03ZM54.24,99.06c0-.06.07-.15.1-.2.09-.15.17-.3.26-.46.09-.15.17-.31.26-.46.02-.03.04-.06.06-.1-.01.48-.03.97-.03,1.45,0,.32,0,.64.01.96,0,.03,0,.06,0,.08-.19-.36-.37-.72-.56-1.08-.03-.05-.1-.14-.1-.2Z"/>
      <path class="cls-1" d="M57.61,99.21c-.29-.03-.58-.03-.88,0-.15.01-.3.02-.45.05-.18.05-.28.2-.27.38.02.28.11.57.19.84.04.13.09.27.14.4.06.14.11.3.2.43.13.18.38.15.46-.06.02-.07.07-.13.1-.2.04-.08.07-.15.11-.23.07-.15.14-.3.2-.45.06-.15.12-.29.17-.44.04-.12.13-.3.08-.44.13-.06.12-.26-.05-.28ZM57.02,100.18c-.07.14-.14.28-.22.42,0,0,0,0,0,.01-.02-.06-.04-.11-.06-.17-.08-.23-.14-.46-.19-.7,0-.02,0-.04-.01-.05.11-.02.21-.05.32-.07.14-.03.29-.04.43-.06-.03.07-.05.14-.08.2-.06.14-.13.29-.19.43Z"/>
      <path class="cls-1" d="M59.62,100.58s-.04,0-.06.01c-.02-.04-.04-.08-.06-.12-.06-.11-.11-.22-.17-.33-.06-.11-.11-.21-.16-.32-.05-.11-.09-.23-.15-.34-.08-.15-.28-.12-.36,0-.17.24-.35.47-.5.72-.16.25-.3.51-.42.77-.06.12,0,.31.17.3.61-.06,1.22-.17,1.82-.32.24-.06.14-.44-.1-.37ZM58.78,100.02s0,0,0,0c.05.11.1.23.16.34.06.11.12.22.19.32-.29.06-.58.11-.87.15.08-.14.15-.28.23-.41.09-.14.19-.27.29-.4Z"/>
      <path class="cls-1" d="M75.81,90.86c-.52-.39-.93-.94-1.16-1.55-.06-.17-.32-.2-.37,0-.12.44-.36.86-.54,1.28-.09.21-.18.42-.27.64-.06.16-.14.31-.11.47,0,0,0,0,0,0-.13.07-.17.25-.1.36.08.13.23.16.36.1.7-.32,1.4-.63,2.13-.87.21-.07.22-.31.06-.43ZM73.92,91.23c.09-.19.16-.4.23-.59.1-.26.19-.53.3-.79.19.41.46.79.78,1.11-.49.15-.97.33-1.43.54.04-.09.08-.18.12-.27Z"/>
      <path class="cls-1" d="M73.03,89.66s-.08.1-.12.16c-.71.38-1.4.78-2.07,1.21-.16.1-.05.32.12.29.27-.04.55-.05.83-.04.13,0,.26.01.39.02.12.01.25.03.37.06,0,0,0,.02.01.02.15.11.35.08.41-.11.04-.11.04-.24.07-.35.03-.12.06-.25.09-.37.03-.12.07-.23.11-.34.04-.12.11-.23.14-.35.04-.2-.2-.36-.36-.21ZM71.76,90.94c-.07,0-.14.01-.21.02.39-.25.77-.49,1.16-.73-.02.06-.05.11-.07.17-.04.12-.08.24-.1.37-.01.07-.03.15-.04.23-.09-.01-.19-.02-.28-.03-.15-.01-.3-.02-.46-.02Z"/>
      <path class="cls-1" d="M77.68,87.82c-.49.1-.98.21-1.47.31-.24.05-.47.1-.71.16-.25.06-.55.07-.75.24-.15.12-.05.36.11.4.05.01.1.01.15.02.32.37.65.72.99,1.07.17.18.33.35.5.53.16.17.34.33.6.32.16,0,.26-.12.28-.28.1-.86.6-1.61.69-2.48.02-.21-.21-.33-.38-.29ZM76.83,90.17c-.07-.06-.13-.11-.19-.17-.17-.15-.34-.29-.51-.44-.26-.22-.53-.44-.8-.65.11-.02.22-.05.32-.07.24-.05.47-.09.71-.14.34-.07.68-.14,1.02-.2-.15.57-.46,1.1-.55,1.68Z"/>
      <path class="cls-1" d="M80.29,88.01c-.16-.25-.38-.47-.59-.67-.2-.2-.43-.38-.65-.56-.12-.09-.28-.12-.4,0-.08.08-.08.2-.04.31-.1.54-.21,1.08-.37,1.6-.07.22.18.38.36.28.48-.26.99-.45,1.52-.57.17-.04.25-.25.16-.4ZM79.28,87.75c.1.09.19.19.28.28-.25.08-.49.17-.72.28.06-.28.1-.56.14-.84.1.09.21.18.3.27Z"/>
      <path class="cls-1" d="M81.06,84.91s-.02.05-.03.07c-.07.04-.13.1-.18.15-.11.1-.21.21-.32.32-.22.22-.41.46-.62.69-.08.08-.19.16-.21.28-.02.11.07.22.13.31.17.26.36.5.54.74.08.12.25.1.3-.04.14-.4.26-.8.39-1.21.06-.19.12-.39.18-.58.06-.21.15-.42.16-.64,0-.18-.24-.24-.33-.09ZM80.44,87.04c-.1-.12-.2-.24-.3-.37-.05-.05-.09-.11-.14-.16-.04-.04-.08-.05-.04-.11.08-.11.21-.18.31-.26.19-.16.38-.31.56-.48-.04.15-.08.3-.13.45-.09.31-.17.61-.25.92Z"/>
      <path class="cls-1" d="M77.71,94.14c-.64-.16-1.29-.32-1.94-.47-.13-.03-.24.04-.28.16-.02.07-.03.14-.04.21-.02.07-.05.13-.07.2-.05.13-.09.27-.14.4-.05.13-.09.27-.14.4-.05.13-.08.27-.12.4,0,0,0,0,0,.01-.02,0-.03,0-.05.02-.04.03-.08.07-.12.1-.16.13.01.38.19.33.99-.26,1.92-.8,2.76-1.38.14-.1.14-.34-.05-.39ZM75.23,95.4c.04-.08.09-.16.13-.25.06-.13.12-.26.18-.38.06-.13.12-.26.18-.38.03-.06.05-.13.09-.19,0-.01.02-.03.02-.04.44.1.87.2,1.31.3-.28.18-.56.35-.86.5-.34.17-.69.31-1.04.45Z"/>
      <path class="cls-1" d="M78.61,91.35c-.42.12-.85.24-1.27.37-.2.06-.4.12-.61.18-.22.07-.45.12-.65.24-.01,0-.02.02-.03.03-.14-.03-.23.14-.1.24.02.01.03.02.05.04.03.06.08.1.15.11.52.38,1.02.77,1.48,1.21.1.1.31.1.38-.05.31-.65.59-1.32.88-1.98.09-.19-.06-.45-.29-.38ZM77.7,93.21c-.34-.27-.7-.51-1.07-.73.07-.02.15-.04.22-.06.21-.06.42-.12.63-.18.25-.07.49-.15.73-.22-.18.4-.35.8-.51,1.2Z"/>
      <path class="cls-1" d="M80.18,90.31c-.04-.1-.09-.2-.13-.3-.09-.2-.17-.42-.29-.59-.08-.11-.2-.16-.33-.11-.08.03-.12.11-.14.19-.35.31-.67.66-.96,1.03-.12.05-.14.24-.02.31.08.05.17.05.26.06.07,0,.13.01.2.02.14.01.29.02.43.03.14,0,.29,0,.43.01.07,0,.13,0,.2,0,.06,0,.14-.01.2,0,.19.03.34-.11.3-.3-.03-.12-.08-.23-.13-.34ZM79.19,90.52c-.14,0-.28,0-.41,0-.02,0-.05,0-.07,0,.19-.26.4-.5.61-.74.03.07.05.13.08.2.05.11.1.21.15.31.04.08.08.16.12.23-.02,0-.04,0-.06,0-.14,0-.28,0-.41,0Z"/>
      <path class="cls-1" d="M83.37,90.21c-.34-.23-.73-.41-1.1-.6-.37-.19-.75-.37-1.12-.56-.14-.07-.31-.04-.4.1-.07.11-.03.27.07.36-.06.32-.09.66-.13.98-.04.42-.07.85-.11,1.27-.01.15.18.24.3.17.39-.24.79-.47,1.19-.69.2-.11.4-.21.6-.31.2-.1.41-.22.63-.28.21-.06.23-.33.06-.44ZM81.89,90.85c-.3.17-.59.35-.88.54.02-.29.04-.59.05-.88.01-.28.02-.57.02-.86.31.15.61.3.92.46.22.11.45.22.67.32-.06.03-.12.06-.17.09-.21.11-.42.21-.62.33Z"/>
      <path class="cls-1" d="M94.83,66.4s-.01-.02-.02-.03c.02-.13-.15-.23-.27-.13-.44.38-.83.82-1.2,1.27-.37.45-.73.91-1.09,1.37-.14.18.06.38.23.4.59.07,1.18.23,1.72.46.2.09.4-.01.42-.24.04-.52.09-1.04.13-1.55.04-.51.15-1.04.06-1.54ZM93.77,67.8c.17-.21.34-.42.5-.63,0,0,0,0,0,0-.03.26-.06.52-.08.78-.04.39-.06.79-.08,1.18-.37-.13-.75-.23-1.14-.3.26-.35.53-.7.8-1.04Z"/>
      <path class="cls-1" d="M96.46,69.94c-.01-.14-.02-.27-.03-.41,0-.14-.02-.27-.02-.41,0-.16,0-.32-.03-.48-.02-.1-.14-.19-.25-.19-.11,0-.23.07-.25.19,0,.01,0,.02,0,.04-.02,0-.05.01-.06.04-.11.24-.22.48-.35.71-.06.11-.13.22-.19.33-.04.06-.07.12-.11.17-.04.05-.07.12-.11.16-.05.05-.06.15,0,.19.08.07.18.07.29.08.1.01.2.03.31.04.19.02.38.04.57.08.08.01.18,0,.21-.09.06-.14.04-.32.03-.47ZM95.4,70.06s0,0-.01,0c.03-.06.07-.12.1-.18.06-.12.12-.23.18-.35.08-.17.15-.34.22-.52,0,.04,0,.08,0,.12.01.14.02.28.04.42.02.15.03.3.06.45,0,.03.01.07.02.1-.11,0-.22-.02-.33-.02-.09,0-.19-.01-.28-.02Z"/>
      <path class="cls-1" d="M98.8,68.4c-.14-.01-.27.04-.39.09-.41.18-.84.3-1.28.37-.15.02-.2.19-.18.32.13.92.3,1.84.45,2.76.04.25.38.19.46,0,.21-.56.42-1.12.63-1.68.1-.27.2-.54.3-.81.11-.28.25-.58.29-.88.03-.17-.16-.28-.28-.17ZM98.39,69.27l-.33.84c-.11.28-.22.57-.33.85-.08-.55-.16-1.11-.25-1.66.23-.06.45-.11.67-.2.12-.05.24-.1.36-.15-.04.11-.08.22-.12.32Z"/>
      <path class="cls-1" d="M93.3,71.81c-.49-.25-.99-.47-1.5-.67-.09-.03-.2.04-.22.12-.16.61-.31,1.23-.42,1.85-.11.6-.25,1.23-.23,1.84,0,.04.02.06.05.08-.03.04-.06.07-.08.1-.09.15.1.36.25.25.23-.17.41-.4.61-.61.2-.22.4-.44.6-.66.4-.44.81-.88,1.19-1.33.12-.14.4-.36.34-.58-.06-.21-.41-.32-.58-.4ZM93.17,72.58c-.09.09-.17.19-.26.29-.34.37-.68.74-1.02,1.12-.17.19-.35.38-.52.58-.06.07-.13.15-.2.22.13-.53.2-1.09.31-1.62.11-.54.25-1.07.39-1.6.4.16.79.34,1.17.54.1.05.19.1.29.16.03.02.06.04.09.06-.08.04-.2.21-.26.27Z"/>
      <path class="cls-1" d="M93.96,70.69c-.05-.14-.09-.28-.14-.42-.05-.15-.1-.32-.2-.45-.08-.11-.26-.04-.3.08-.1.03-.18.13-.25.2-.08.09-.16.17-.24.26-.07.09-.16.18-.16.3,0,.12.08.21.16.28.35.3.72.57,1.1.83.13.09.28-.06.25-.19-.07-.3-.14-.59-.23-.88ZM93.04,70.65s.01-.02.02-.02c.03-.04.06-.07.09-.11l.19-.24s.03-.04.04-.06c.02.06.05.12.07.17.05.14.1.28.15.42.04.13.08.26.12.39-.18-.13-.36-.27-.53-.42-.01-.01-.11-.1-.15-.13Z"/>
      <path class="cls-1" d="M96.62,72.49c-.08-.53-.14-1.06-.26-1.58-.03-.12-.18-.22-.3-.17-.04.02-.09.03-.13.05-.16.06-.19.22-.13.34-.7.61-1.37,1.24-2.04,1.87-.09.08-.05.26.07.28.94.18,1.86.5,2.7.96.12.06.3-.01.29-.16-.06-.53-.12-1.06-.2-1.58ZM95.92,71.23c.07.45.16.9.24,1.35.07.4.14.79.21,1.19-.71-.3-1.43-.55-2.18-.74.59-.58,1.15-1.19,1.64-1.86.02.03.05.04.09.06Z"/>
      <path class="cls-1" d="M95.99,74.84c-.29-.12-.59-.22-.88-.34-.13-.05-.26-.1-.4-.16-.18-.07-.33-.17-.52-.07-.06.03-.08.09-.09.15,0,0,0,0,0,0-.08.08-.09.17-.1.28-.01.12-.03.24-.03.36,0,.23-.01.46-.01.7,0,.48.05.95.13,1.42.02.15.25.21.35.09.28-.34.55-.68.83-1.01.14-.16.27-.33.41-.49.14-.17.26-.37.43-.51.15-.13.05-.34-.11-.4ZM94.96,75.99c-.16.21-.34.42-.52.62-.03-.29-.06-.58-.08-.88-.01-.22-.02-.45-.03-.67,0-.09,0-.19,0-.29.05.02.09.05.14.07.15.07.3.14.45.2.2.08.4.14.61.19-.06.08-.13.17-.19.25-.13.17-.26.34-.39.51Z"/>
      <path class="cls-1" d="M98.34,44.85c-.13-.24-.26-.47-.39-.71-.13-.24-.26-.47-.39-.71-.13-.23-.26-.52-.45-.71-.09-.08-.21-.09-.3-.04-.04-.03-.1-.03-.1.03,0,.03,0,.05-.01.08-.03.05-.05.12-.03.19,0,0,0,0,0,0-.01.06-.02.12-.03.18-.01.15-.01.3-.02.45-.01.29-.02.58-.04.87-.03.59-.04,1.19-.06,1.78,0,.11.12.21.23.17.3-.1.6-.2.9-.3.3-.1.6-.22.9-.29.12-.02.2-.17.16-.28-.08-.26-.24-.51-.37-.75ZM97.5,45.79c-.21.08-.42.16-.63.24,0-.51,0-1.02,0-1.52,0-.29,0-.58,0-.87,0-.05,0-.1,0-.15.05.09.11.18.16.26.14.23.27.46.41.69.14.23.27.46.41.69.08.14.17.29.26.43-.21.08-.42.16-.62.23Z"/>
      <path class="cls-1" d="M101.33,43.15c.03-.08-.04-.15-.12-.15-.17,0-.34.12-.5.19-.17.08-.33.16-.5.24-.34.16-.69.28-1.05.39-.18.05-.22.23-.16.39.33.78.72,1.55,1.11,2.3.11.22.47.17.52-.07.13-.53.23-1.06.35-1.6.11-.53.24-1.06.28-1.6,0-.01,0-.01,0-.02.02-.03.04-.04.05-.07ZM100.47,44.73c-.07.27-.13.54-.19.81-.23-.45-.46-.89-.68-1.34.28-.11.56-.22.83-.37.11-.06.22-.13.33-.2-.11.36-.2.73-.29,1.1Z"/>
      <path class="cls-1" d="M98.9,46.87c.02-.06-.02-.13-.08-.12-.13-.14-.37-.08-.42.11-.03.01-.06.02-.09.03-.16.06-.32.12-.48.17-.33.1-.65.2-.99.27-.21.04-.24.35-.06.45.67.37,1.34.74,1.99,1.17.17.11.39-.03.39-.22,0-.62-.08-1.25-.26-1.84ZM97.98,47.45c.16-.07.31-.14.46-.22.07.33.12.66.16.99-.35-.22-.71-.42-1.07-.61.15-.05.31-.09.46-.15Z"/>
      <path class="cls-1" d="M101.3,47.08c-.32.42-.65.84-.97,1.26-.16.21-.32.42-.49.63-.13.17-.32.35-.26.59.05.19.22.31.36.43.17.15.33.31.48.48.15.17.3.35.44.53.11.15.21.31.34.45,0,.02,0,.03,0,.05.02.32.45.3.49,0,.05-.36.03-.73.04-1.09,0-.35.02-.7.02-1.05.01-.72.01-1.43.02-2.15,0-.27-.33-.31-.47-.13ZM100.98,50.4c-.11-.16-.24-.32-.37-.47-.07-.08-.14-.16-.22-.24-.06-.07-.15-.18-.23-.22,0,0,0,0-.01-.01.02-.02.03-.05.04-.05.07-.1.15-.2.23-.3.14-.19.28-.38.43-.57.14-.19.28-.38.43-.57,0,.46,0,.92,0,1.38,0,.35-.01.7-.02,1.05,0,.12,0,.23-.02.35-.08-.12-.16-.24-.23-.35Z"/>
      <path class="cls-1" d="M98.48,49.16c-.31-.23-.74-.31-1.11-.41-.17-.05-.3.11-.27.27.18.93.36,1.85.56,2.78.04.2.34.19.4,0,.24-.82.51-1.63.76-2.44.07-.22-.2-.32-.34-.2ZM97.6,49.28c.25.07.51.13.76.13-.15.5-.3.99-.46,1.49-.1-.54-.2-1.08-.31-1.62Z"/>
      <path class="cls-1" d="M88.82,22.25c-.08-.27-.16-.56-.26-.82-.05-.13-.09-.32-.19-.42-.1-.1-.29-.1-.41-.05-.05.02-.1.06-.13.1-.2-.08-.48-.05-.68-.04-.3.01-.59.04-.89.07-.2.02-.32.24-.17.4.89.94,1.84,1.82,2.8,2.69.18.17.5,0,.43-.25-.16-.56-.32-1.13-.5-1.69ZM87.17,21.42c.14-.02.29-.02.43-.04.09-.01.17-.03.25-.06.04.06.1.08.16.09.1.43.23.84.36,1.26.05.17.11.34.17.51-.61-.55-1.2-1.11-1.78-1.69.14-.02.28-.05.42-.06Z"/>
      <path class="cls-1" d="M91.77,20.61c-.07,0-.13.01-.17.05-.03-.02-.07-.03-.11-.02-.12.03-.24.04-.36.07-.1.02-.2.05-.3.08-.22.06-.43.13-.65.21-.21.08-.42.16-.63.24-.2.09-.34.26-.24.49.08.18.23.35.34.52.13.18.26.35.4.52.27.33.55.65.86.96.13.13.38.08.43-.11.11-.46.22-.92.34-1.38.11-.46.25-.92.31-1.39.01-.12-.1-.22-.21-.24ZM91.17,22.13c-.07.3-.14.59-.21.89-.17-.18-.34-.36-.5-.55-.12-.15-.24-.3-.35-.46-.06-.08-.12-.16-.17-.24-.01-.02-.06-.07-.1-.13.02,0,.03-.02.05-.02.08-.04.16-.07.24-.11.16-.07.32-.13.48-.2.15-.06.31-.12.46-.18.13-.05.26-.11.39-.16-.12.37-.2.76-.29,1.14Z"/>
      <path class="cls-1" d="M96.56,26.65c-.06-.05-.13-.09-.21-.13-.11-.28-.28-.54-.43-.79-.18-.3-.36-.6-.54-.9-.37-.59-.77-1.17-1.18-1.73-.15-.2-.5-.15-.5.13,0,.88.05,1.75.12,2.63.01.12.07.21.19.25.41.15.82.29,1.23.43l.59.19s.06.02.1.03c.03.04.05.09.08.13.1.12.26.07.34-.03.04,0,.07.02.11.02.11,0,.18-.15.09-.22ZM95.41,26.1c-.35-.15-.71-.28-1.07-.42-.03-.52-.05-1.03-.06-1.55.22.32.45.63.66.95.19.3.37.59.54.9.04.06.07.13.11.19-.06-.03-.12-.05-.18-.08Z"/>
      <path class="cls-1" d="M92.69,22.4s-.05.01-.07.04c-.22.25-.38.55-.55.84-.17.29-.35.58-.52.88-.16.28-.15.53.03.79.2.3.41.6.61.9.13.19.42.12.43-.12.03-.53.07-1.06.13-1.59.03-.26.07-.52.1-.77.04-.26.12-.54.12-.8,0-.15-.18-.24-.3-.18ZM91.85,24.5c.02-.12.13-.24.19-.34.13-.21.25-.43.36-.65-.03.19-.06.38-.09.58-.04.34-.06.68-.09,1.02l-.18-.24c-.07-.1-.22-.23-.2-.36Z"/>
      <path class="cls-1" d="M90.91,24.42c-.06-.12-.27-.13-.33,0-.15.33-.29.67-.29,1.04,0,.02,0,.03.01.04-.06.24-.13.48-.18.73-.04.21-.08.42-.11.64-.03.17-.09.38-.08.55.01.15.14.2.26.26.19.1.39.19.58.29.38.19.78.37,1.15.58.16.09.33-.06.29-.23-.27-1.35-.73-2.64-1.31-3.89ZM90.6,27.57c-.09-.04-.2-.06-.28-.11-.12-.08-.15-.14-.12-.28.1-.54.21-1.09.31-1.63.02-.02.04-.03.05-.06.06-.15.11-.31.17-.46.37.98.69,1.98.98,2.99-.21-.08-.41-.17-.62-.25-.16-.07-.33-.13-.49-.2Z"/>
      <path class="cls-1" d="M71.4,9.49c-.25-.51-.49-1.02-.75-1.53-.24-.49-.47-1.01-.77-1.47.03-.09-.05-.2-.16-.18-.5.11-.99.32-1.47.51-.39.15-.93.26-1.16.65-.07.11-.02.23.08.3.56.43,1.16.74,1.8,1.04l2.12,1c.21.1.42-.1.32-.32ZM67.63,7.58c.11-.06.23-.11.33-.15.21-.09.42-.18.63-.27.3-.13.61-.27.9-.42.19.5.46.97.7,1.45.16.31.32.62.49.94-.49-.22-.97-.45-1.46-.67-.54-.25-1.12-.49-1.59-.86Z"/>
      <path class="cls-1" d="M71.79,5.25c-.27-.37-.62-.68-.98-.96-.36-.29-.76-.54-1.18-.73-.11-.05-.24-.03-.3.08-.06.1-.03.25.08.3.04.02.08.05.12.07,0,.1.02.21.03.31.01.14.03.28.04.42.01.12,0,.26.07.37.06.1.17.15.28.17.55.09,1.11.13,1.66.23.14.03.31-.13.2-.27ZM69.9,4.97s-.03-.12-.03-.16c0-.06-.02-.12-.03-.19-.02-.12-.04-.23-.05-.35,0-.03,0-.06-.01-.1.25.15.5.29.74.47.2.14.38.31.56.47-.3-.03-.6-.07-.9-.1-.06,0-.22,0-.27-.04Z"/>
      <path class="cls-1" d="M77.8,7.53c-.41-.21-.85-.37-1.28-.56-.43-.19-.86-.37-1.3-.55-.19-.08-.39.15-.33.33.09.29.2.58.33.86.13.28.29.6.65.58.16,0,.32-.04.47-.06.16-.02.32-.03.49-.04.27-.03.54-.07.81-.12.05,0,.11,0,.15-.02,0,0,.01,0,.02,0,.06-.01.08-.06.08-.1.06-.11.05-.26-.09-.32ZM76.1,7.73c-.1,0-.2.02-.24-.06-.06-.11-.11-.22-.16-.34-.03-.06-.04-.12-.06-.18.23.1.46.19.7.29.22.09.45.19.67.29-.3,0-.6,0-.9,0Z"/>
      <path class="cls-1" d="M76.47,10.8s-.01,0-.02,0c0,0,0-.02-.02-.03-.87-.6-1.68-1.28-2.38-2.07-.16-.18-.42-.02-.44.18-.06.73-.12,1.45-.17,2.18-.01.15.13.25.26.26.92.1,1.85.1,2.77,0,.14-.02.26-.11.26-.26,0-.13-.12-.28-.26-.26ZM73.98,10.82c.04-.45.07-.9.1-1.35.55.53,1.16.99,1.82,1.37-.64.04-1.28.04-1.92-.01Z"/>
      <path class="cls-1" d="M73.4,8.27c-.31-.25-.65-.45-.98-.66-.16-.1-.32-.21-.49-.31-.08-.05-.17-.11-.25-.16-.04-.02-.07-.05-.11-.07-.02-.01-.04-.02-.06-.04-.04-.07-.09-.12-.19-.13-.14-.01-.25.1-.26.23,0,.05.01.08.03.12,0,.02-.02.05,0,.08.21.72.52,1.41.86,2.08.06.11.23.13.31.04.16-.16.33-.32.51-.47.16-.13.36-.3.56-.37.13-.04.22-.24.09-.34ZM72.52,8.68c-.13.1-.24.21-.35.31-.23-.45-.44-.9-.65-1.36.12.07.24.15.36.22.32.2.65.4.99.58-.02.01-.04.02-.05.04-.1.07-.2.13-.29.21Z"/>
      <path class="cls-1" d="M74.15,6.85c-.12-.41-.24-.84-.42-1.23-.08-.16-.27-.12-.35,0-.65.08-1.29.2-1.93.34-.12.02-.18.16-.15.27.07.27.29.44.5.6.25.19.51.37.77.55.52.34,1.05.67,1.6.96.16.09.35-.06.3-.23-.1-.42-.2-.84-.33-1.26ZM72.22,6.62c-.11-.08-.26-.18-.37-.3.5-.1,1-.21,1.5-.35.01.06.04.09.09.11.09.31.19.61.28.91.07.25.15.5.22.74-.35-.19-.7-.39-1.04-.62-.23-.16-.46-.32-.68-.5Z"/>
      <path class="cls-1" d="M48.01,5.23c-.59-.27-1.22-.45-1.83-.67-.62-.22-1.25-.41-1.88-.61-.21-.07-.32.15-.26.31-.38.47-.7,1-1.03,1.5-.05.08,0,.23.1.24.77.12,1.55-.03,2.32-.11.4-.04.8-.09,1.2-.13.18-.02.37-.04.55-.06.2-.02.48-.1.68-.06.23.04.42-.3.17-.41ZM46.66,5.38l-1.15.14c-.67.08-1.38.22-2.07.18.28-.41.56-.84.8-1.27.59.22,1.17.44,1.76.63.29.1.58.2.87.3-.07,0-.14.02-.21.03Z"/>
      <path class="cls-1" d="M52.49.52c-1.13-.09-2.26-.11-3.39-.09-.15,0-.24.12-.25.25-.05.63-.1,1.25-.14,1.88-.01.2.22.3.37.21,1.13-.59,2.27-1.16,3.41-1.74.09-.05.11-.13.1-.2.13-.08.1-.3-.09-.32ZM51.76.89c-.84.42-1.69.84-2.53,1.26.03-.4.07-.81.1-1.21.81-.01,1.62-.03,2.43-.04Z"/>
      <path class="cls-1" d="M53.92,5.56c-.23-.35-.49-.69-.73-1.03-.24-.34-.47-.68-.73-1.01-.12-.16-.34-.04-.38.12,0,0-.01,0-.02,0-.22.05-.44.19-.64.3-.23.12-.45.25-.68.38-.44.25-.88.5-1.32.75-.16.09-.13.35.05.4.67.17,1.37.23,2.06.27.7.04,1.43.02,2.12.17.19.04.38-.16.26-.34ZM50.17,5.15c.27-.15.53-.3.8-.44.21-.12.43-.24.64-.36.2-.11.43-.23.6-.39.19.3.4.6.61.89.14.19.28.38.42.57-.53-.05-1.05-.09-1.58-.11-.5-.02-.99-.07-1.48-.15Z"/>
      <path class="cls-1" d="M46.81.83c-.48-.03-.97,0-1.45,0-.48,0-.97,0-1.45.02-.21,0-.24.26-.1.36.16.43.4.82.73,1.15.05.05.13.06.19.02.73-.39,1.43-.84,2.19-1.17.19-.09.08-.36-.1-.37ZM44.1,1.24c.42,0,.84,0,1.25,0,.23,0,.47,0,.71,0-.46.27-.92.52-1.38.79-.23-.23-.42-.5-.57-.79Z"/>
      <path class="cls-1" d="M48.46,1.3s-.03-.06-.05-.07c-.04-.06-.12-.09-.2-.05-.54.25-1.03.58-1.55.87-.52.29-1.05.56-1.58.82-.16.07-.16.34,0,.41.47.23.99.36,1.49.51.53.16,1.07.31,1.59.49.15.05.28-.08.29-.22.04-.46.02-.93.03-1.39,0-.45.07-.91,0-1.36ZM45.76,3.04c.39-.19.78-.38,1.16-.6.42-.25.83-.51,1.21-.82-.08.34-.09.7-.12,1.04-.03.35-.05.72-.04,1.08-.41-.12-.83-.25-1.24-.38-.32-.1-.65-.2-.98-.32Z"/>
      <path class="cls-1" d="M51.38,2.9c-.08-.16-.14-.33-.22-.5-.07-.13-.27-.11-.34,0-.09.03-.16.09-.22.15-.08.09-.17.18-.26.27-.18.18-.36.36-.55.53-.37.34-.75.66-1.16.95-.24.17-.04.53.23.4.11-.05.2-.13.31-.19.09-.05.19-.08.29-.13.22-.09.43-.19.65-.28.21-.09.43-.18.64-.27l.32-.13c.1-.04.24-.13.35-.13.1,0,.18-.09.18-.18,0-.18-.14-.35-.22-.5ZM50.94,3.43c-.1.04-.19.08-.29.12-.22.09-.43.18-.65.27.04-.03.08-.06.11-.1.18-.18.36-.36.52-.56.08-.1.16-.2.23-.3.03.08.07.17.11.25.04.09.09.18.14.26-.06.02-.13.04-.17.06Z"/>
    </g>
  </g>
</svg>