<?xml version="1.0" encoding="UTF-8"?>
<svg id="Layer_2" data-name="Layer 2" xmlns="http://www.w3.org/2000/svg" viewBox="0 0 197.27 197.27">
  <defs>
    <style>
      .cls-1 {
        fill: #201522;
      }
    </style>
  </defs>
  <g id="Objects">
    <g>
      <path class="cls-1" d="M99.1,9.2l-.37-9.12s-.04-.09-.09-.09c-.05,0-.09.04-.1.09l-.37,9.12-.28,9.12c-.08,3.04-.32,6.08-.18,9.12.07,1.62.16,3.24.3,4.86.07.98.17,1.95.34,2.93.06.44.12.89.19,1.33,0,.04.04.07.08.08.05,0,.1-.03.11-.08.07-.44.13-.89.19-1.33.17-.98.27-1.95.34-2.93.14-1.62.24-3.24.3-4.86.14-3.04-.1-6.08-.18-9.12l-.28-9.12Z"/>
      <path class="cls-1" d="M98.73,159.91s-.04-.07-.08-.08c-.05,0-.1.03-.11.08-.51,3.04-.71,6.08-.83,9.12-.04.88-.04,1.75-.03,2.63,0,2.43.15,4.86.22,7.29l.28,9.12.37,9.12s.04.09.09.09c.05,0,.09-.04.1-.09l.37-9.12.28-9.12c.06-2.43.22-4.86.22-7.29.01-.88,0-1.75-.03-2.63-.12-3.04-.32-6.08-.83-9.12Z"/>
      <path class="cls-1" d="M137.1,163.99c-1.07-1.99-2.01-4.04-3.24-5.93-1.22-1.9-2.49-3.76-4-5.49-.02-.02-.06-.03-.09-.02-.04.01-.06.06-.05.1.75,2.17,1.73,4.21,2.76,6.21,1.03,2.01,2.33,3.86,3.52,5.77l3.58,5.73,3.65,5.69s.07.05.1.03c.04-.02.05-.07.03-.11l-3.1-6.01-3.17-5.97Z"/>
      <path class="cls-1" d="M60.17,33.28c1.07,1.98,2.01,4.04,3.24,5.93,1.22,1.9,2.49,3.76,4,5.5.02.02.06.03.09.02.04-.01.06-.06.05-.1-.75-2.17-1.73-4.2-2.76-6.21-1.03-2.01-2.33-3.86-3.52-5.77l-3.58-5.73-3.65-5.69s-.07-.05-.1-.03c-.04.02-.05.07-.03.11l3.1,6.01,3.17,5.97Z"/>
      <path class="cls-1" d="M170.36,139.59l-5.73-3.58c-1.92-1.19-3.76-2.49-5.77-3.52-2-1.03-4.04-2.01-6.21-2.76-.03-.01-.06,0-.09.02-.03.03-.03.08,0,.11,1.73,1.5,3.6,2.78,5.5,4,1.89,1.23,3.95,2.17,5.93,3.24l5.97,3.17,6.01,3.1s.08,0,.1-.03c.02-.04.01-.09-.02-.11l-5.69-3.65Z"/>
      <path class="cls-1" d="M26.91,57.68l5.73,3.58c1.92,1.19,3.76,2.49,5.77,3.52,2,1.03,4.04,2.01,6.21,2.76.03.01.06,0,.09-.02.03-.03.03-.08,0-.11-1.73-1.5-3.6-2.78-5.49-4-1.89-1.23-3.95-2.17-5.93-3.24l-5.97-3.17-6.01-3.1s-.08,0-.1.03c-.02.04-.01.09.02.11l5.69,3.65Z"/>
      <path class="cls-1" d="M163.99,60.17c-1.98,1.07-4.04,2.01-5.93,3.24-1.9,1.22-3.76,2.49-5.5,4-.02.02-.03.06-.02.09.01.04.06.06.1.05,2.17-.75,4.21-1.73,6.21-2.76,2.01-1.03,3.86-2.33,5.77-3.52l5.73-3.58,5.69-3.65s.05-.07.03-.1c-.02-.04-.07-.05-.11-.03l-6.01,3.1-5.97,3.17Z"/>
      <path class="cls-1" d="M33.28,137.1c1.99-1.07,4.04-2.01,5.93-3.24,1.9-1.22,3.76-2.49,5.49-4,.02-.02.03-.06.02-.09-.01-.04-.06-.06-.1-.05-2.17.75-4.21,1.73-6.21,2.76-2.01,1.03-3.86,2.33-5.77,3.52l-5.73,3.58-5.69,3.65s-.05.07-.03.1c.02.04.07.05.11.03l6.01-3.1,5.97-3.17Z"/>
      <path class="cls-1" d="M132.49,38.41c-1.03,2-2.01,4.04-2.76,6.21-.01.03,0,.07.02.09.03.03.08.03.11,0,1.5-1.73,2.78-3.6,4-5.5,1.23-1.89,2.17-3.95,3.24-5.93l3.17-5.97,3.1-6.01s0-.08-.03-.1c-.04-.02-.09-.01-.11.02l-3.65,5.69-3.58,5.73c-1.19,1.92-2.49,3.76-3.52,5.77Z"/>
      <path class="cls-1" d="M64.78,158.86c1.03-2,2.01-4.04,2.76-6.21.01-.03,0-.07-.02-.09-.03-.03-.08-.03-.11,0-1.5,1.73-2.78,3.6-4,5.49-1.23,1.89-2.17,3.95-3.24,5.93l-3.17,5.97-3.1,6.01s0,.08.03.1c.04.02.09.01.11-.02l3.65-5.69,3.58-5.73c1.19-1.92,2.49-3.76,3.52-5.77Z"/>
      <path class="cls-1" d="M18.32,99.37c3.04.08,6.08.32,9.12.18,3.04-.12,6.08-.32,9.12-.83.04,0,.07-.04.08-.08,0-.05-.03-.1-.08-.11-3.04-.51-6.08-.71-9.12-.83-3.04-.14-6.08.1-9.12.18l-9.12.28-9.12.37s-.09.04-.09.09c0,.05.04.09.09.1l9.12.37,9.12.28Z"/>
      <path class="cls-1" d="M197.18,98.54l-9.12-.37-9.12-.28c-3.04-.08-6.08-.32-9.12-.18-3.04.12-6.08.32-9.12.83-.04,0-.07.04-.08.08,0,.05.03.1.08.11,3.04.51,6.08.71,9.12.83,3.04.14,6.08-.1,9.12-.18l9.12-.28,9.12-.37s.09-.04.09-.09c0-.05-.04-.09-.09-.1Z"/>
      <path class="cls-1" d="M70.47,23.41c.96,2.88,1.78,5.82,2.94,8.63.62,1.5,1.26,2.99,1.95,4.47.4.89.83,1.77,1.32,2.63.21.39.41.79.63,1.18.02.03.06.05.1.05.05,0,.08-.06.07-.11-.08-.44-.18-.88-.28-1.31-.18-.97-.42-1.92-.68-2.86-.42-1.57-.89-3.13-1.38-4.67-.91-2.9-2.18-5.67-3.29-8.5l-3.38-8.47-3.46-8.44s-.07-.07-.11-.05c-.05.02-.08.07-.06.12l2.77,8.69,2.86,8.66Z"/>
      <path class="cls-1" d="M126.8,173.85c-.77-2.31-1.45-4.64-2.29-6.92-.29-.83-.59-1.65-.93-2.46-1.15-2.81-2.38-5.6-3.9-8.28-.02-.03-.06-.05-.1-.05-.05,0-.08.06-.07.11.56,3.03,1.42,5.95,2.34,8.85.26.84.56,1.66.87,2.48.83,2.29,1.81,4.52,2.7,6.78l3.38,8.47,3.46,8.44s.07.07.11.05c.05-.02.08-.07.06-.12l-2.77-8.69-2.86-8.66Z"/>
      <path class="cls-1" d="M151.04,143.65c1.65,1.54,3.51,2.83,5.28,4.22l5.33,4.16,5.38,4.1s.08.02.11,0c.03-.03.03-.08,0-.11l-4.97-4.59-5.02-4.53c-1.68-1.5-3.27-3.11-5.07-4.46-1.79-1.37-3.63-2.68-5.64-3.8-.03-.02-.06-.01-.09,0-.03.03-.04.08-.01.11,1.44,1.78,3.06,3.36,4.72,4.89Z"/>
      <path class="cls-1" d="M50.94,58.51c-1.44-1.78-3.06-3.36-4.72-4.89-1.65-1.54-3.51-2.83-5.28-4.22l-5.33-4.16-5.38-4.1s-.08-.02-.11,0c-.03.03-.03.08,0,.11l4.97,4.59,5.02,4.53c1.68,1.5,3.27,3.11,5.07,4.47,1.79,1.37,3.63,2.68,5.64,3.8.03.02.06.01.09,0,.03-.03.04-.08.01-.11Z"/>
      <path class="cls-1" d="M186.7,114.17s-.02-.09-.06-.09l-6.6-1.49-6.61-1.41c-2.21-.46-4.39-1.05-6.63-1.33-2.24-.29-4.48-.51-6.78-.47-.03,0-.06.02-.07.05-.02.04,0,.09.05.1,2.14.82,4.33,1.38,6.53,1.88,2.2.51,4.45.69,6.68,1.02l6.7.94,6.71.86s.08-.02.09-.06Z"/>
      <path class="cls-1" d="M10.57,83.1s.02.09.06.09l6.6,1.49,6.61,1.41c2.21.46,4.39,1.05,6.63,1.33,2.24.29,4.48.51,6.78.47.03,0,.06-.02.07-.05.02-.04,0-.09-.05-.1-2.14-.82-4.33-1.38-6.53-1.88-2.2-.51-4.45-.69-6.68-1.02l-6.7-.94-6.71-.86s-.08.02-.09.06Z"/>
      <path class="cls-1" d="M142.43,45.21c-1.37,1.79-2.68,3.63-3.8,5.64-.02.03-.01.06,0,.09.03.03.08.04.11.01,1.78-1.44,3.36-3.06,4.89-4.72,1.54-1.65,2.83-3.51,4.22-5.28l4.16-5.33,4.1-5.38s.02-.08,0-.11c-.03-.03-.08-.03-.11,0l-4.59,4.97-4.53,5.02c-1.5,1.68-3.11,3.27-4.47,5.07Z"/>
      <path class="cls-1" d="M54.84,152.06c1.37-1.79,2.68-3.63,3.8-5.64.02-.03.01-.06,0-.09-.03-.03-.08-.04-.11-.01-1.78,1.44-3.36,3.06-4.89,4.72-1.54,1.65-2.83,3.51-4.22,5.28l-4.16,5.33-4.1,5.38s-.02.08,0,.11c.03.03.08.03.11,0l4.59-4.97,4.53-5.02c1.5-1.68,3.11-3.27,4.46-5.07Z"/>
      <path class="cls-1" d="M114.07,10.63l-1.49,6.6-1.41,6.61c-.46,2.21-1.05,4.39-1.33,6.63-.29,2.24-.51,4.48-.47,6.78,0,.03.02.06.05.07.04.02.09,0,.1-.05.82-2.14,1.38-4.33,1.88-6.53.51-2.2.69-4.45,1.02-6.68l.94-6.7.86-6.71s-.02-.08-.06-.09c-.04,0-.09.02-.09.06Z"/>
      <path class="cls-1" d="M87.73,160c-.82,2.14-1.38,4.33-1.88,6.53-.51,2.2-.69,4.45-1.02,6.68l-.94,6.7-.86,6.71s.02.08.06.09c.04,0,.09-.02.1-.06l1.49-6.6,1.41-6.61c.46-2.21,1.05-4.39,1.33-6.63.29-2.24.51-4.48.47-6.78,0-.03-.02-.06-.05-.07-.04-.02-.09,0-.1.05Z"/>
      <path class="cls-1" d="M32.04,123.85c2.81-1.16,5.6-2.38,8.28-3.9.03-.02.05-.06.05-.1,0-.05-.06-.08-.11-.07-3.03.56-5.95,1.42-8.85,2.34-2.9.91-5.67,2.18-8.5,3.29l-8.47,3.38-8.44,3.46s-.07.07-.05.11c.02.05.07.08.12.06l8.69-2.77,8.66-2.86c2.88-.96,5.82-1.78,8.63-2.94Z"/>
      <path class="cls-1" d="M165.23,73.42c-2.81,1.16-5.6,2.38-8.28,3.9-.03.02-.05.06-.05.1,0,.05.06.08.11.07,3.03-.56,5.95-1.42,8.85-2.34,2.9-.91,5.67-2.18,8.5-3.29l8.47-3.38,8.44-3.46s.07-.07.05-.11c-.02-.05-.07-.08-.12-.06l-8.69,2.77-8.66,2.86c-2.88.96-5.82,1.78-8.63,2.94Z"/>
      <path class="cls-1" d="M120.06,38.95c-.09.44-.19.87-.28,1.31,0,.04.01.08.05.1.04.03.1,0,.13-.04.22-.39.42-.79.63-1.18.49-.86.92-1.74,1.32-2.64.69-1.47,1.33-2.96,1.95-4.46,1.17-2.81,1.98-5.75,2.94-8.63l2.86-8.66,2.77-8.69s0-.09-.05-.11c-.05-.02-.1,0-.12.05l-3.46,8.44-3.38,8.47c-1.11,2.83-2.38,5.6-3.29,8.5-.49,1.54-.96,3.1-1.38,4.67-.27.94-.51,1.89-.68,2.87Z"/>
      <path class="cls-1" d="M77.72,156.15s-.1,0-.13.04c-1.52,2.68-2.74,5.47-3.9,8.28-.34.81-.64,1.63-.93,2.46-.84,2.28-1.52,4.62-2.29,6.93l-2.86,8.66-2.77,8.69s0,.09.05.11c.05.02.1,0,.12-.05l3.46-8.44,3.38-8.47c.89-2.26,1.87-4.49,2.7-6.78.31-.82.61-1.65.87-2.48.92-2.9,1.78-5.82,2.34-8.85,0-.04-.01-.08-.05-.1Z"/>
      <path class="cls-1" d="M40.13,146.9l-5.02,4.53-4.97,4.59s-.03.07,0,.11c.03.03.08.04.11.01l5.38-4.1,5.33-4.16c1.77-1.4,3.63-2.69,5.28-4.22,1.66-1.53,3.27-3.11,4.72-4.89.02-.02.02-.06,0-.09-.02-.04-.07-.05-.11-.03-2.01,1.11-3.84,2.43-5.64,3.8-1.8,1.36-3.39,2.96-5.07,4.46Z"/>
      <path class="cls-1" d="M152.06,54.84c1.8-1.36,3.39-2.96,5.07-4.47l5.02-4.53,4.97-4.59s.03-.07,0-.11c-.03-.03-.08-.04-.11-.01l-5.38,4.1-5.33,4.16c-1.77,1.4-3.63,2.68-5.28,4.22-1.66,1.53-3.27,3.11-4.72,4.89-.02.02-.02.06,0,.09.02.04.07.05.11.03,2.01-1.11,3.84-2.43,5.64-3.8Z"/>
      <path class="cls-1" d="M23.84,111.18l-6.61,1.41-6.6,1.49s-.07.05-.06.09c0,.04.05.07.09.07l6.71-.86,6.7-.94c2.23-.32,4.48-.51,6.68-1.02,2.2-.5,4.39-1.05,6.53-1.88.03-.01.05-.04.05-.07,0-.04-.03-.08-.08-.08-2.29-.04-4.54.18-6.78.47-2.24.28-4.42.87-6.63,1.33Z"/>
      <path class="cls-1" d="M173.21,84.84c-2.23.32-4.48.51-6.68,1.02-2.2.5-4.39,1.06-6.53,1.88-.03.01-.05.04-.05.07,0,.04.03.08.08.08,2.29.04,4.54-.18,6.78-.47,2.24-.28,4.42-.87,6.63-1.33l6.61-1.41,6.6-1.49s.07-.05.06-.09c0-.04-.05-.07-.09-.07l-6.71.86-6.7.94Z"/>
      <path class="cls-1" d="M49.4,40.95c1.4,1.77,2.69,3.63,4.22,5.28,1.53,1.66,3.11,3.27,4.89,4.72.02.02.06.02.09,0,.04-.02.05-.07.03-.11-1.11-2.01-2.43-3.84-3.8-5.64-1.36-1.8-2.96-3.39-4.46-5.07l-4.53-5.02-4.59-4.97s-.07-.03-.11,0c-.03.03-.04.08-.02.11l4.1,5.38,4.16,5.33Z"/>
      <path class="cls-1" d="M147.87,156.32c-1.4-1.77-2.69-3.63-4.22-5.28-1.53-1.66-3.11-3.27-4.89-4.72-.02-.02-.06-.02-.09,0-.04.02-.05.07-.03.11,1.11,2.01,2.43,3.84,3.8,5.64,1.36,1.8,2.96,3.39,4.47,5.07l4.53,5.02,4.59,4.97s.07.03.11,0c.04-.03.04-.08.02-.11l-4.1-5.38-4.16-5.33Z"/>
      <path class="cls-1" d="M86.09,23.84l-1.41-6.61-1.49-6.6s-.05-.07-.09-.06c-.04,0-.07.05-.07.09l.86,6.71.94,6.7c.32,2.23.51,4.48,1.02,6.68.5,2.2,1.05,4.39,1.88,6.53.01.03.04.05.07.05.04,0,.08-.03.08-.08.04-2.29-.18-4.54-.47-6.78-.28-2.24-.87-4.42-1.33-6.63Z"/>
      <path class="cls-1" d="M112.43,173.21c-.32-2.23-.51-4.48-1.02-6.68-.5-2.2-1.06-4.39-1.88-6.53-.01-.03-.04-.05-.07-.05-.04,0-.08.03-.08.08-.04,2.29.18,4.54.47,6.78.28,2.24.87,4.42,1.33,6.63l1.41,6.61,1.49,6.6s.05.07.09.06c.04,0,.07-.05.07-.09l-.86-6.71-.94-6.7Z"/>
      <path class="cls-1" d="M191.27,132.25l-8.44-3.46-8.47-3.38c-2.83-1.11-5.6-2.38-8.5-3.29-2.9-.92-5.82-1.78-8.85-2.34-.04,0-.08.01-.1.05-.03.04,0,.1.04.13,2.68,1.52,5.47,2.74,8.28,3.9,2.81,1.17,5.75,1.98,8.63,2.94l8.66,2.86,8.69,2.77s.09,0,.11-.05c.02-.05,0-.1-.05-.12Z"/>
      <path class="cls-1" d="M6,65.02l8.44,3.46,8.47,3.38c2.83,1.11,5.6,2.38,8.5,3.29,2.9.92,5.82,1.78,8.85,2.34.04,0,.08-.01.1-.05.03-.04,0-.1-.04-.13-2.68-1.52-5.47-2.74-8.28-3.9-2.81-1.17-5.75-1.98-8.63-2.94l-8.66-2.86-8.69-2.77s-.09,0-.11.05c-.02.05,0,.1.05.12Z"/>
      <path class="cls-1" d="M90.9,18.69c.19,3.03.21,6.08.61,9.1.21,1.61.44,3.21.72,4.82.16.97.34,1.93.59,2.89.1.44.19.87.31,1.31,0,.04.04.07.08.07.05,0,.1-.03.1-.09.04-.45.05-.89.07-1.34.08-.99.1-1.97.08-2.94,0-1.63-.05-3.25-.12-4.87-.13-3.04-.63-6.04-.98-9.06l-1.07-9.06-1.16-9.05s-.05-.08-.1-.08c-.05,0-.09.05-.09.1l.43,9.11.52,9.1Z"/>
      <path class="cls-1" d="M106.37,178.58c-.15-2.43-.2-4.86-.42-7.28-.07-.87-.15-1.75-.26-2.62-.39-3.02-.85-6.03-1.62-9.01,0-.04-.04-.07-.08-.07-.05,0-.1.03-.1.09-.24,3.07-.17,6.12-.03,9.15.04.88.11,1.75.2,2.62.21,2.42.57,4.83.85,7.24l1.07,9.06,1.16,9.05s.05.08.1.08c.05,0,.09-.05.09-.1l-.43-9.11-.52-9.1Z"/>
      <path class="cls-1" d="M70.16,161.58c.86-2.09,1.65-4.2,2.21-6.43,0-.03,0-.07-.03-.08-.04-.03-.09-.02-.11.02-1.35,1.86-2.45,3.83-3.5,5.82-1.06,1.99-1.82,4.12-2.71,6.19l-2.64,6.22-2.57,6.26s0,.08.04.1c.04.02.09,0,.11-.03l3.14-5.99,3.07-6.02c1.01-2.01,2.15-3.97,3-6.06Z"/>
      <path class="cls-1" d="M127.11,35.69c-.86,2.09-1.65,4.2-2.21,6.43,0,.03,0,.07.03.08.04.03.09.02.11-.02,1.35-1.86,2.45-3.83,3.5-5.82,1.06-1.99,1.82-4.12,2.71-6.19l2.64-6.22,2.57-6.26s0-.08-.04-.1c-.04-.02-.09,0-.11.03l-3.14,5.99-3.07,6.02c-1.01,2.01-2.15,3.97-3,6.06Z"/>
      <path class="cls-1" d="M36.88,142.65c1.88-1.24,3.85-2.36,5.63-3.75,1.78-1.38,3.53-2.81,5.13-4.46.02-.02.03-.06.02-.09-.02-.04-.07-.06-.11-.04-2.1.93-4.04,2.09-5.94,3.29-1.91,1.2-3.64,2.66-5.44,4.01l-5.4,4.07-5.35,4.14s-.04.07-.02.11c.02.04.07.05.11.02l5.72-3.62,5.67-3.68Z"/>
      <path class="cls-1" d="M160.39,54.62c-1.88,1.24-3.85,2.36-5.63,3.75-1.78,1.38-3.53,2.81-5.13,4.46-.02.02-.03.06-.02.09.02.04.07.06.11.04,2.1-.93,4.04-2.09,5.94-3.29,1.91-1.2,3.64-2.66,5.44-4.01l5.4-4.07,5.35-4.14s.04-.07.02-.1c-.02-.04-.07-.05-.11-.02l-5.72,3.62-5.67,3.68Z"/>
      <path class="cls-1" d="M23.61,64.09l6.02,3.07c2.01,1.01,3.97,2.15,6.06,3,2.09.86,4.2,1.65,6.43,2.21.03,0,.06,0,.08-.03.03-.04.02-.09-.02-.11-1.86-1.35-3.83-2.45-5.82-3.5-1.99-1.06-4.12-1.82-6.19-2.71l-6.23-2.64-6.26-2.57s-.08,0-.1.04c-.02.04,0,.09.03.11l5.99,3.14Z"/>
      <path class="cls-1" d="M173.66,133.18l-6.02-3.07c-2.01-1.01-3.97-2.15-6.06-3-2.09-.86-4.2-1.65-6.43-2.21-.03,0-.06,0-.08.03-.03.04-.02.09.02.11,1.86,1.35,3.83,2.45,5.82,3.5,1.99,1.06,4.12,1.82,6.19,2.71l6.22,2.64,6.26,2.57s.08,0,.1-.04c.02-.04,0-.09-.03-.11l-5.99-3.14Z"/>
      <path class="cls-1" d="M54.62,36.88c1.24,1.88,2.36,3.85,3.75,5.63,1.38,1.78,2.81,3.53,4.46,5.13.02.02.06.03.09.02.04-.02.06-.07.04-.11-.93-2.1-2.09-4.04-3.29-5.94-1.2-1.91-2.66-3.64-4.01-5.44l-4.07-5.4-4.14-5.35s-.07-.04-.11-.02c-.04.02-.05.07-.02.11l3.62,5.72,3.68,5.67Z"/>
      <path class="cls-1" d="M142.65,160.39c-1.24-1.88-2.36-3.85-3.75-5.63-1.38-1.78-2.81-3.53-4.46-5.13-.02-.02-.06-.03-.09-.02-.04.02-.06.07-.04.11.93,2.1,2.09,4.04,3.29,5.94,1.2,1.91,2.66,3.64,4.01,5.44l4.07,5.4,4.14,5.35s.07.04.1.02c.04-.02.05-.07.02-.11l-3.62-5.72-3.68-5.67Z"/>
      <path class="cls-1" d="M178.58,90.9c-3.03.19-6.08.21-9.1.61-3.02.39-6.03.85-9.01,1.62-.04,0-.07.04-.07.08,0,.05.03.1.09.1,3.07.24,6.12.17,9.15.03,3.04-.13,6.04-.63,9.06-.98l9.06-1.07,9.05-1.16s.08-.05.08-.1c0-.05-.05-.09-.1-.09l-9.11.43-9.1.52Z"/>
      <path class="cls-1" d="M18.69,106.37c3.03-.19,6.08-.21,9.1-.61,3.02-.39,6.03-.85,9.01-1.62.04,0,.07-.04.07-.08,0-.05-.03-.1-.09-.1-3.07-.24-6.12-.17-9.15-.03-3.04.13-6.04.63-9.06.98l-9.06,1.07-9.05,1.16s-.08.05-.08.1c0,.05.05.09.1.09l9.11-.43,9.1-.52Z"/>
      <path class="cls-1" d="M107.13.46l-1.16,9.05-1.07,9.06c-.34,3.02-.85,6.03-.98,9.06-.08,1.62-.13,3.24-.12,4.87-.02.98,0,1.96.08,2.94.02.45.04.89.07,1.34,0,.04.03.07.07.08.05.01.1-.02.11-.07.11-.43.21-.87.31-1.31.25-.96.44-1.92.59-2.89.28-1.6.52-3.21.72-4.82.4-3.01.43-6.06.61-9.1l.52-9.1.43-9.11s-.03-.09-.08-.1c-.05,0-.1.03-.1.08Z"/>
      <path class="cls-1" d="M93.32,159.61c-.05-.01-.1.02-.11.07-.77,2.98-1.23,5.99-1.62,9.01-.12.87-.19,1.74-.26,2.62-.22,2.42-.27,4.85-.42,7.28l-.52,9.1-.43,9.11s.03.09.08.1c.05,0,.1-.03.1-.08l1.16-9.05,1.07-9.06c.28-2.42.64-4.82.85-7.24.09-.87.16-1.75.2-2.62.14-3.04.21-6.08-.03-9.15,0-.04-.03-.07-.07-.08Z"/>
      <path class="cls-1" d="M131.26,167.1c-.89-2.07-1.65-4.2-2.71-6.19-1.05-2-2.15-3.97-3.5-5.82-.02-.03-.05-.04-.08-.03-.04.01-.07.05-.06.1.56,2.23,1.35,4.34,2.21,6.43.85,2.09,1.99,4.04,3,6.06l3.07,6.02,3.14,5.99s.06.05.1.04c.04-.02.06-.06.04-.1l-2.57-6.26-2.64-6.22Z"/>
      <path class="cls-1" d="M66.01,30.17c.89,2.07,1.65,4.2,2.71,6.19,1.05,2,2.16,3.97,3.5,5.82.02.03.05.04.08.03.04-.01.07-.05.06-.1-.56-2.23-1.35-4.34-2.21-6.43-.85-2.09-1.99-4.04-3-6.06l-3.07-6.02-3.14-5.99s-.06-.05-.1-.04c-.04.02-.06.06-.04.1l2.57,6.26,2.64,6.22Z"/>
      <path class="cls-1" d="M166.52,145.68l-5.4-4.07c-1.81-1.35-3.53-2.81-5.44-4.01-1.91-1.2-3.85-2.36-5.94-3.29-.03-.01-.06,0-.09.02-.03.03-.03.08,0,.11,1.59,1.65,3.34,3.08,5.13,4.46,1.78,1.39,3.74,2.51,5.63,3.75l5.67,3.68,5.72,3.62s.08.01.11-.02c.03-.03.02-.08-.01-.11l-5.35-4.14Z"/>
      <path class="cls-1" d="M30.75,51.59l5.4,4.07c1.81,1.35,3.53,2.81,5.44,4.01,1.91,1.21,3.85,2.36,5.94,3.29.03.01.06,0,.09-.02.03-.03.03-.08,0-.11-1.59-1.65-3.34-3.08-5.13-4.46-1.78-1.39-3.74-2.51-5.63-3.75l-5.67-3.68-5.72-3.62s-.08-.01-.11.02c-.03.03-.02.08.01.11l5.35,4.14Z"/>
      <path class="cls-1" d="M167.1,66.01c-2.07.89-4.2,1.65-6.19,2.71-2,1.05-3.97,2.15-5.82,3.5-.03.02-.04.05-.03.08.01.04.05.07.1.06,2.23-.56,4.34-1.35,6.43-2.21,2.09-.85,4.04-1.99,6.06-3l6.02-3.07,5.99-3.14s.05-.06.04-.1c-.02-.04-.06-.06-.1-.04l-6.26,2.57-6.22,2.64Z"/>
      <path class="cls-1" d="M30.17,131.26c2.07-.89,4.2-1.65,6.19-2.71,2-1.05,3.97-2.15,5.82-3.5.03-.02.04-.05.03-.08-.01-.04-.05-.07-.1-.06-2.23.56-4.34,1.35-6.43,2.21-2.09.85-4.04,1.99-6.06,3l-6.02,3.07-5.99,3.14s-.05.06-.04.1c.02.04.06.06.1.04l6.26-2.57,6.23-2.64Z"/>
      <path class="cls-1" d="M137.61,41.59c-1.21,1.91-2.36,3.85-3.29,5.94-.01.03,0,.06.02.09.03.03.08.03.11,0,1.65-1.59,3.08-3.34,4.46-5.13,1.39-1.78,2.51-3.74,3.75-5.63l3.68-5.67,3.62-5.72s.01-.08-.02-.11c-.03-.03-.08-.02-.11.01l-4.14,5.35-4.07,5.4c-1.35,1.81-2.81,3.53-4.01,5.44Z"/>
      <path class="cls-1" d="M59.66,155.68c1.2-1.91,2.36-3.85,3.29-5.94.01-.03,0-.06-.02-.09-.03-.03-.08-.03-.11,0-1.65,1.59-3.08,3.34-4.46,5.13-1.39,1.78-2.51,3.74-3.75,5.63l-3.68,5.67-3.62,5.72s-.01.08.02.11c.03.03.08.02.11-.01l4.14-5.35,4.07-5.4c1.35-1.81,2.81-3.53,4.01-5.44Z"/>
      <path class="cls-1" d="M.46,90.14l9.05,1.16,9.06,1.07c3.02.34,6.03.85,9.06.98,3.04.14,6.08.21,9.15-.03.04,0,.07-.03.08-.07.01-.05-.02-.1-.07-.11-2.98-.77-5.99-1.23-9.01-1.62-3.02-.4-6.06-.43-9.1-.61l-9.1-.52-9.11-.43s-.09.03-.1.08c0,.05.03.1.08.1Z"/>
      <path class="cls-1" d="M196.81,107.13l-9.05-1.16-9.06-1.07c-3.02-.34-6.03-.85-9.06-.98-3.04-.14-6.08-.21-9.15.03-.04,0-.07.03-.08.07-.01.05.02.1.07.11,2.98.77,5.99,1.23,9.01,1.62,3.02.4,6.06.43,9.1.61l9.1.52,9.11.43s.09-.03.1-.08c0-.05-.03-.1-.08-.1Z"/>
      <path class="cls-1" d="M41.32,42.36c2.09,2.21,4.07,4.52,6.31,6.58,1.19,1.1,2.4,2.18,3.65,3.22.74.64,1.5,1.26,2.31,1.83.36.27.71.54,1.07.8.03.02.08.02.11,0,.04-.03.05-.09.02-.13-.26-.37-.54-.72-.8-1.07-.57-.81-1.19-1.57-1.83-2.31-1.04-1.25-2.12-2.46-3.22-3.65-2.05-2.24-4.37-4.22-6.58-6.32l-6.64-6.25-6.71-6.19s-.09-.03-.12,0c-.04.03-.04.09,0,.13l6.19,6.71,6.25,6.64Z"/>
      <path class="cls-1" d="M155.95,154.91c-1.67-1.76-3.28-3.59-5-5.31-.61-.63-1.24-1.25-1.88-1.84-2.24-2.06-4.52-4.07-7.03-5.86-.03-.02-.08-.02-.11,0-.04.03-.05.09-.02.13,1.79,2.51,3.8,4.8,5.86,7.03.59.65,1.21,1.27,1.84,1.88,1.71,1.72,3.54,3.33,5.31,5l6.64,6.25,6.71,6.19s.09.03.12,0c.04-.03.04-.09,0-.13l-6.19-6.71-6.25-6.64Z"/>
      <path class="cls-1" d="M165.15,117.28c2.15.7,4.37,1.08,6.57,1.6l6.59,1.52,6.61,1.44s.08-.01.09-.05c.01-.04,0-.09-.05-.1l-6.44-2.06-6.47-1.98c-2.16-.65-4.28-1.43-6.49-1.9-2.2-.48-4.42-.9-6.71-1.06-.03,0-.06.01-.08.04-.02.04,0,.09.04.11,2.06,1,4.19,1.75,6.34,2.44Z"/>
      <path class="cls-1" d="M25.22,79.62c2.16.65,4.28,1.43,6.49,1.9,2.2.48,4.42.9,6.71,1.06.03,0,.06-.01.08-.05.02-.04,0-.09-.04-.11-2.06-1-4.19-1.75-6.34-2.44-2.15-.7-4.38-1.08-6.57-1.6l-6.59-1.52-6.61-1.44s-.08.01-.09.05c-.01.04,0,.09.05.1l6.44,2.06,6.46,1.98Z"/>
      <path class="cls-1" d="M178.31,76.87l-6.59,1.52c-2.19.52-4.42.9-6.57,1.6-2.15.69-4.28,1.43-6.34,2.44-.03.01-.05.04-.05.08,0,.04.04.08.09.07,2.29-.16,4.51-.58,6.71-1.06,2.21-.47,4.33-1.25,6.49-1.9l6.47-1.98,6.44-2.06s.06-.05.05-.09c0-.04-.05-.07-.09-.06l-6.61,1.44Z"/>
      <path class="cls-1" d="M18.96,120.39l6.59-1.52c2.19-.52,4.42-.9,6.57-1.6,2.15-.69,4.28-1.43,6.34-2.44.03-.01.05-.04.05-.08,0-.04-.04-.08-.09-.07-2.29.16-4.51.58-6.71,1.06-2.21.47-4.33,1.25-6.49,1.9l-6.46,1.98-6.44,2.06s-.06.05-.05.09c0,.04.05.07.09.06l6.61-1.44Z"/>
      <path class="cls-1" d="M114.84,38.46c1-2.06,1.75-4.19,2.44-6.34.7-2.15,1.08-4.37,1.6-6.57l1.52-6.59,1.44-6.61s-.01-.08-.05-.09c-.04-.01-.09,0-.1.05l-2.06,6.44-1.98,6.47c-.65,2.16-1.43,4.28-1.9,6.49-.48,2.2-.9,4.42-1.06,6.71,0,.03.01.06.05.08.04.02.09,0,.11-.04Z"/>
      <path class="cls-1" d="M82.43,158.81c-1,2.06-1.75,4.19-2.44,6.34-.7,2.15-1.08,4.37-1.6,6.57l-1.52,6.59-1.44,6.61s.01.08.05.09c.04.01.09,0,.1-.05l2.06-6.45,1.98-6.47c.65-2.16,1.43-4.28,1.9-6.49.48-2.2.9-4.42,1.06-6.71,0-.03-.01-.06-.05-.08-.04-.02-.09,0-.11.04Z"/>
      <path class="cls-1" d="M79.62,25.22l-1.98-6.47-2.06-6.44s-.05-.06-.09-.05c-.04,0-.07.05-.06.09l1.44,6.61,1.52,6.59c.52,2.19.9,4.42,1.6,6.57.69,2.15,1.43,4.28,2.44,6.34.01.03.04.05.08.05.04,0,.08-.04.07-.09-.16-2.29-.58-4.51-1.06-6.71-.47-2.21-1.25-4.33-1.9-6.49Z"/>
      <path class="cls-1" d="M118.88,171.72c-.52-2.19-.9-4.42-1.6-6.57-.69-2.15-1.43-4.28-2.44-6.34-.01-.03-.04-.05-.08-.05-.04,0-.08.04-.07.09.16,2.29.58,4.51,1.06,6.71.47,2.21,1.25,4.33,1.9,6.49l1.98,6.47,2.06,6.45s.05.06.09.05c.04,0,.07-.05.06-.09l-1.44-6.61-1.52-6.59Z"/>
      <path class="cls-1" d="M48.94,149.63c2.06-2.24,4.07-4.52,5.86-7.03.02-.03.02-.08,0-.11-.03-.04-.09-.05-.13-.02-2.51,1.79-4.8,3.8-7.03,5.86-2.24,2.05-4.22,4.37-6.31,6.58l-6.25,6.64-6.19,6.71s-.03.09,0,.12c.03.04.09.04.13,0l6.71-6.19,6.64-6.25c2.21-2.09,4.52-4.07,6.58-6.32Z"/>
      <path class="cls-1" d="M148.33,47.64c-2.06,2.24-4.07,4.52-5.86,7.03-.02.03-.02.08,0,.11.03.04.09.05.13.02,2.51-1.79,4.8-3.8,7.03-5.86,2.24-2.05,4.22-4.37,6.32-6.58l6.25-6.64,6.19-6.71s.03-.09,0-.12c-.03-.04-.09-.04-.13,0l-6.71,6.19-6.64,6.25c-2.21,2.09-4.52,4.07-6.58,6.32Z"/>
    </g>
  </g>
</svg>