<?xml version="1.0" encoding="UTF-8"?>
<svg id="Layer_2" data-name="Layer 2" xmlns="http://www.w3.org/2000/svg" viewBox="0 0 103.63 103.54">
  <g id="OBJECTS">
    <g>
      <path d="M7.24,35.68c-.16-.18-.33-.36-.48-.55-.16-.22-.29-.47-.43-.7-.6-.98-1.31-1.91-1.75-2.98-.08-.19-.25-.32-.47-.27-.18.05-.34.28-.27.47.42,1.11,1.06,2.09,1.72,3.07.3.45.58.89.96,1.28.17.18.35.36.51.55.16.19.25.39.49.48.09.03.21-.02.25-.1.23-.45-.26-.94-.54-1.25Z"/>
      <path d="M8.01,33.63c-.28-.35-.42-.8-.67-1.17-.6-.92-1.23-1.81-1.72-2.81-.23-.47-.92-.06-.7.41.48,1.01,1.12,1.91,1.71,2.85.24.38.39.81.66,1.18.28.37.66.8,1.14.86.09.01.22-.08.23-.18.08-.54-.37-.77-.66-1.14Z"/>
      <path d="M9.32,31.6c-.14-.19-.31-.36-.45-.55-.27-.35-.51-.74-.71-1.14-.19-.39-.35-.8-.55-1.19-.21-.42-.41-.83-.53-1.28-.11-.44-.75-.25-.68.19.08.48.25.93.44,1.38.19.45.38.9.59,1.34.2.42.45.82.72,1.19.15.2.3.42.48.6.17.17.38.39.64.38.19,0,.32-.15.33-.33.01-.23-.16-.4-.29-.57Z"/>
      <path d="M11.07,29.46c-.24-.45-.58-.86-.92-1.24-.32-.36-.57-.75-.82-1.16-.23-.38-.48-.73-.72-1.1-.24-.36-.44-.72-.47-1.17-.02-.43-.65-.43-.67,0-.06,1.04.6,1.78,1.09,2.62.26.45.51.9.85,1.3.37.43.69.93,1.16,1.25.32.22.67-.2.51-.51Z"/>
      <path d="M12.52,26.51c-.23-.29-.47-.57-.68-.87-.23-.34-.44-.69-.64-1.05-.38-.7-.73-1.43-1.06-2.16-.24-.53-1.18-.14-.95.4.33.8.68,1.58,1.11,2.33.21.36.43.7.67,1.04.26.35.53.72.86,1.01.2.17.49.19.68,0,.2-.2.16-.48,0-.68Z"/>
      <path d="M14.51,24.31c-.24-.2-.46-.51-.65-.78-.22-.31-.41-.64-.63-.95-.55-.78-1.27-1.65-1.38-2.63-.03-.25-.2-.47-.47-.47-.24,0-.5.22-.47.47.11,1.2.81,2.23,1.53,3.15.03.04.06.08.09.11,0,.01.05.06.05.07.06.08.11.16.17.23.14.19.28.39.43.58.27.34.55.69.99.81.32.08.62-.35.34-.59Z"/>
      <path d="M15.53,20.76c-.24-.35-.46-.71-.7-1.05-.42-.61-.99-1.24-1.12-1.99-.04-.24-.33-.37-.55-.31-.26.07-.34.31-.31.55.11.79.64,1.53,1.1,2.16.24.34.47.69.71,1.02.28.39.55.83.93,1.13.19.15.55.08.53-.22-.03-.49-.32-.9-.59-1.29Z"/>
      <path d="M17.67,18.61s-.05-.07-.07-.09c-.04-.04-.08-.07-.12-.12-.05-.05-.09-.1-.13-.15,0-.01,0,0-.01-.01,0,0,0,0-.01-.02-.02-.03-.04-.06-.06-.08-.16-.24-.3-.49-.44-.75-.17-.31-.35-.61-.49-.93-.2-.45-.38-.91-.6-1.36-.1-.19-.37-.25-.54-.14-.2.12-.23.35-.14.54.21.46.36.94.55,1.4.15.36.32.7.5,1.04.16.29.33.57.53.84.11.15.23.27.38.38.11.07.23.11.36.09.03,0,.05,0,.06,0,.04,0,.08,0,.12-.01.28-.04.34-.47.12-.62Z"/>
      <path d="M19.59,16.95s-.01-.02-.02-.03c-.04-.11-.11-.2-.17-.3-.08-.12-.15-.24-.21-.36-.13-.24-.28-.48-.43-.71-.4-.63-.66-1.34-1.03-1.98-.14-.24-.46-.32-.69-.18-.25.14-.31.45-.18.69.36.69.6,1.43,1.04,2.09.17.25.31.5.5.74.18.23.41.52.71.57h0c.14.05.29.07.42,0,.09-.06.17-.17.16-.29,0-.09-.02-.16-.08-.23Z"/>
      <path d="M21.53,15.28c-.27-.24-.41-.38-.57-.67-.17-.31-.32-.64-.48-.96-.3-.63-.43-1.22-.45-1.93-.01-.56-.86-.56-.87,0,0,.43.01.86.09,1.28.08.4.24.79.42,1.15.33.65.71,1.73,1.6,1.7.28-.01.47-.37.24-.58Z"/>
      <path d="M23.25,13.67c-.05-.22-.12-.42-.21-.62-.16-.34-.38-.65-.52-1.01-.3-.81-.46-1.66-.85-2.45-.22-.44-.99-.12-.8.34.33.8.45,1.66.77,2.47.15.38.36.71.53,1.07.19.4.21.97.72,1.11.17.05.38-.06.43-.24.06-.25-.02-.43-.07-.67Z"/>
      <path d="M5.47,45.77c-.17-.38-.48-.68-.79-.96-.32-.29-.67-.56-1-.85-.67-.59-1.3-1.22-2.05-1.71-.28-.18-.61.24-.36.46.65.59,1.26,1.21,1.92,1.79.32.28.66.53,1,.79.34.25.64.54.97.79.21.15.39-.13.31-.31Z"/>
      <path d="M5.91,43.02c-.16-.17-.38-.3-.58-.43-.35-.22-.78-.41-1.04-.67-.31-.31-.56-.67-.87-.98-.31-.31-.7-.68-1.17-.58-.25.05-.24.44,0,.5.31.07.62.4.85.66.26.29.48.62.76.89.3.28.68.46,1.03.66.18.1.36.21.52.34.07.06.14.11.19.16.07.06.11.15.23.19.1.04.22-.02.27-.11.12-.2-.05-.49-.19-.64Z"/>
      <path d="M6.87,40.83c-.15-.4-.51-.6-.87-.78-.39-.21-.71-.46-1.04-.76-.38-.35-.8-.63-1.2-.95-.4-.32-.65-.75-.99-1.13-.13-.14-.37-.13-.5,0-.15.15-.12.35,0,.5.32.4.55.84.94,1.18.39.34.82.64,1.2,1,.34.31.68.61,1.08.83.16.09.33.17.48.28.13.09.28.29.47.33.1.02.21,0,.28-.07.01-.01.02-.02.03-.04.08-.1.15-.24.1-.37Z"/>
      <path d="M7.23,38.64c-.07-.21-.22-.38-.36-.55-.14-.18-.27-.37-.44-.52-.32-.29-.72-.47-1.04-.76-.37-.32-.81-.57-1.14-.93-.36-.39-.67-.83-1.05-1.2-.32-.32-.81.17-.5.5.37.38.67.83,1.03,1.22.33.36.76.62,1.12.95.16.14.32.28.5.41.17.12.37.22.53.36.3.28.57.8,1,.88.19.04.42-.13.35-.35Z"/>
      <path d="M24.73,11.5c-.12-.42-.29-.82-.47-1.21-.35-.72-.51-1.55-1.06-2.15-.26-.28-.66.13-.42.42.24.29.36.65.47,1.01.12.38.26.74.43,1.11.17.35.27.72.41,1.08.14.37.38.68.63.98.13.16.41.03.41-.17,0-.41-.28-.69-.39-1.07Z"/>
      <path d="M27.34,11.17c-.14-.34-.26-.69-.42-1.03-.18-.39-.43-.76-.6-1.16-.15-.35-.17-.72-.47-.98-.19-.17-.2-.13-.25-.38-.05-.25-.08-.48-.2-.72-.18-.37-.84-.1-.68.29.16.37.06.83.33,1.16.09.1.23.18.3.29.07.11.08.29.11.42.1.41.33.78.52,1.15.17.33.28.67.42,1.01.13.33.38.9.82.79.14-.03.23-.13.26-.28.05-.2-.08-.37-.15-.55Z"/>
      <g>
        <path d="M29.33,9.99s0,0,0,.01c0,0,0,0,0-.01Z"/>
        <path d="M29.39,10.07s-.03-.05-.05-.07c-.01-.02-.07-.09-.09-.1-.02-.02-.05-.04-.07-.06,0,0-.02-.02-.03-.03-.08-.12-.16-.24-.23-.36-.07-.13-.14-.27-.21-.4-.07-.13-.16-.25-.23-.38-.19-.33-.29-.71-.45-1.08-.08-.17-.17-.33-.25-.5-.06-.12-.11-.29-.11-.43-.01-.61-.95-.61-.95,0,0,.49.22.89.42,1.32.18.38.28.86.51,1.25.16.28.33.57.51.83.24.33.68.73,1.11.49.15-.09.22-.32.12-.47Z"/>
      </g>
      <path d="M31.13,9.15c-.16-.21-.19-.53-.34-.81-.18-.35-.47-.62-.65-.97-.2-.37-.26-.8-.44-1.17-.16-.33-.34-.64-.37-1.01-.04-.55-.9-.56-.87,0,.02.46.18.86.37,1.28.19.42.27.87.46,1.28.17.37.44.67.65,1.01.16.27.21.67.5.92.16.14.39.18.57.03.15-.12.25-.39.11-.56Z"/>
      <path d="M33.39,8.35c0-.33-.28-.64-.4-.94-.15-.35-.26-.71-.46-1.03-.34-.56-.79-1.14-.73-1.83.04-.43-.69-.53-.75-.1-.12.83.23,1.55.67,2.23.2.32.32.65.46.99.13.31.29.75.58.97,0,0,0,0,0,0,.05.04.09.09.13.14.17.18.56.05.53-.22,0-.07-.02-.14-.03-.2Z"/>
      <path d="M35.4,7c-.18-.41-.34-.81-.55-1.2-.18-.33-.38-.65-.48-1.01-.11-.39-.19-.78-.44-1.11-.15-.21-.41-.31-.65-.17-.21.12-.32.44-.17.65.21.29.26.64.35.98.12.41.34.78.54,1.16.2.38.37.77.55,1.15.17.35.44.86.87.92.08,0,.16-.05.2-.11.2-.36-.07-.92-.22-1.25Z"/>
      <path d="M38.34,6.95c-.05-.59-.31-1.09-.59-1.59-.49-.88-.89-1.81-1.29-2.73-.2-.48-1.05-.13-.85.36.35.84.69,1.68,1.11,2.49.26.51.54,1.01.8,1.52.09.17.14.51.41.55.32.05.44-.36.42-.6Z"/>
      <path d="M40.82,6.03s.01,0,.01,0c0,0,0,0,.02.02.01.02-.05-.07-.07-.1,0-.02-.02-.03-.02-.04-.03-.04-.06-.08-.09-.12-.01-.02-.03-.04-.04-.06-.02-.03-.04-.07-.05-.1-.04-.07-.07-.15-.11-.23,0-.01,0-.02,0-.02,0,0,0-.01-.01-.03-.02-.04-.03-.09-.05-.13-.03-.09-.06-.18-.09-.27-.06-.18-.1-.36-.16-.54-.11-.38-.26-.72-.46-1.06-.27-.47-.6-.93-.68-1.47-.08-.48-.93-.38-.87.12.09.67.43,1.24.75,1.82.07.13.14.26.21.4,0,0,0,.02,0,.02.01.04.03.08.04.12.05.17.1.34.15.51.12.41.24.86.48,1.21.13.19.3.4.53.45.2.04.41.01.55-.14.12-.13.08-.29-.05-.38Z"/>
      <path d="M43.4,5.58c-.07-.23-.13-.46-.22-.69-.17-.43-.33-.86-.55-1.27-.38-.69-.93-1.35-1.09-2.15-.09-.48-.92-.38-.87.12.11.92.6,1.65,1.04,2.43.22.39.37.8.53,1.21.09.24.21.46.34.68.14.24.25.43.5.56.21.11.42-.03.44-.25.02-.25-.04-.42-.12-.66Z"/>
      <path d="M46.07,5.32c-.18-.42-.38-.83-.59-1.25-.19-.39-.34-.79-.54-1.17-.18-.35-.43-.67-.59-1.02-.15-.34-.07-.76-.07-1.12,0-.54-.82-.54-.83,0,0,.44-.08.89.05,1.31.13.41.39.77.6,1.14.22.4.37.83.57,1.24.21.45.45.86.71,1.28.09.15.28.23.46.19.07-.02.12-.06.18-.1.15-.12.13-.33.06-.49Z"/>
      <path d="M47.97,3.76c-.14-.42-.32-.82-.49-1.23-.15-.37-.26-.74-.38-1.12-.11-.36-.24-.68-.57-.9-.23-.16-.55.16-.39.39.17.24.21.58.27.86.08.41.22.79.38,1.18.17.4.34.79.52,1.18.16.36.35.76.7.97.09.06.2-.02.2-.12.03-.41-.12-.83-.25-1.21Z"/>
      <path d="M48.49,99.03c.18.68.54,1.3.83,1.93.31.67.58,1.38.55,2.13-.02.55.8.64.86.08.16-1.47-.62-2.69-1.14-4-.06-.15-.12-.31-.19-.46-.09-.21-.13-.45-.37-.54-.22-.09-.46,0-.57.21-.11.2-.03.44.03.65Z"/>
      <path d="M46.02,99.56c.21.35.36.72.51,1.1.08.19.16.38.22.58.06.21.1.42.16.63.06.21.15.41.21.62-.02-.06.02.08.02.11.01.09,0,.14,0,.23-.02.56.78.64.87.09.06-.38,0-.69-.12-1.06-.16-.44-.21-.9-.38-1.34-.16-.39-.28-.81-.49-1.17-.19-.34-.46-.64-.64-.98-.12-.22-.46-.24-.55.02-.14.41-.02.83.2,1.19Z"/>
      <path d="M43.1,98.59c.16.42.31.83.54,1.22.25.42.36.89.54,1.35.15.36.41.79.35,1.19-.03.18.13.35.3.37.2.02.33-.13.37-.3.1-.43-.08-.9-.22-1.3-.16-.47-.25-.96-.43-1.42-.09-.23-.23-.44-.32-.68-.07-.19-.13-.39-.2-.59-.14-.38-.27-.76-.34-1.16-.1-.51-.81-.46-.89.03-.07.43.15.89.3,1.29Z"/>
      <path d="M39.91,96.5c.12.16.12.1.14.31.01.18,0,.35.05.52.14.56.34,1.11.58,1.64.21.45.34.91.46,1.4.12.48.36.97.33,1.47-.03.6.87.7.93.09.06-.6-.14-1.16-.26-1.74-.12-.6-.27-1.16-.52-1.71-.23-.5-.42-1.05-.52-1.59-.09-.47-.23-1.07-.82-1.09-.38-.02-.62.4-.38.71Z"/>
      <path d="M37.22,96.61c.06.17.11.35.16.53.12.47.18.91.4,1.35.09.18.2.35.28.53.08.17.11.35.16.52.11.36.28.76.26,1.15-.04.54.76.61.83.08.06-.43-.06-.87-.16-1.28-.1-.44-.18-.85-.39-1.25-.09-.18-.19-.35-.25-.54-.08-.24-.12-.48-.19-.72-.08-.25-.21-.43-.38-.63-.14-.16-.2-.33-.41-.43-.09-.04-.22,0-.28.08-.14.2-.09.4-.02.61Z"/>
      <path d="M34.76,95.68c0,.29.07.58.19.87.16.35.27.68.37,1.05.18.74.73,1.44.7,2.21-.02.53.78.61.82.08.07-.84-.36-1.55-.58-2.33-.11-.38-.18-.76-.34-1.13-.07-.17-.17-.32-.25-.48-.07-.13-.11-.31-.19-.44,0-.02,0-.03-.01-.05-.02-.15-.16-.28-.32-.29-.08,0-.17,0-.25,0-.27.02-.29.34-.14.51Z"/>
      <path d="M32.75,95.3c.13.39.24.78.38,1.16.12.33.25.66.3,1.01.07.45.08.91.13,1.37.03.23.28.39.5.35.25-.04.37-.27.35-.5-.04-.46-.03-.92-.09-1.37-.05-.39-.19-.77-.31-1.15-.12-.37-.24-.74-.4-1.09-.1-.21-.22-.41-.36-.59-.12-.16-.23-.35-.41-.44-.1-.05-.23-.04-.27.08-.12.36.06.83.17,1.18Z"/>
      <path d="M29.84,93.29s0,0,0,0c0,.03,0,.06,0,.09,0,.12,0,.23.02.35.01.18.03.35.06.53.06.38.15.77.27,1.14.18.56.54,1.19.54,1.77,0,.25.15.49.42.51.24.02.51-.17.51-.42.02-.73-.28-1.38-.5-2.06-.1-.31-.16-.64-.23-.96-.04-.2-.09-.4-.12-.59-.02-.1-.03-.2-.05-.3-.02-.1-.05-.19-.07-.29-.03-.18-.18-.32-.36-.33-.09,0-.18,0-.27.02-.23.04-.39.36-.2.55Z"/>
      <path d="M5.28,55.08c-.18-.2-.43-.31-.67-.43-.23-.11-.46-.22-.69-.34-.45-.22-.9-.44-1.36-.65-.41-.18-.8-.35-1.17-.6-.17-.11-.33-.2-.51-.27-.16-.07-.34-.13-.46-.25-.22-.22-.52.11-.38.35.2.33.58.48.87.71.39.29.77.54,1.22.74.47.21.93.44,1.39.67.23.11.45.23.68.34.26.13.53.27.82.28.26.01.44-.37.26-.56Z"/>
      <path d="M4.99,52.21c-.06-.02-.17-.06-.26-.09-.1-.03-.19-.05-.28-.1-.14-.07-.34-.23-.49-.35-.29-.25-.59-.49-.89-.72-.34-.27-.67-.55-1.03-.8-.35-.24-.77-.49-1.21-.49-.19,0-.36.12-.38.32-.02.18.13.38.32.38.17,0,.32.06.49.15.19.1.36.23.53.35.34.26.66.56,1.01.81.34.25.62.55.95.8.38.29.89.57,1.33.25.19-.14.11-.44-.09-.52Z"/>
      <path d="M4.75,49.61c-.13-.08-.28-.12-.42-.19-.15-.08-.29-.16-.44-.25-.27-.17-.53-.37-.76-.59-.64-.6-1.26-1.22-1.89-1.83-.25-.24-.63.13-.38.38.33.34.66.68.99,1.03.3.31.58.64.9.93.26.24.55.46.84.66.28.18.65.45,1,.45.32,0,.4-.41.15-.57Z"/>
      <path d="M4.97,47.49c-.05-.08-.12-.11-.2-.16-.08-.05-.12-.11-.19-.18-.14-.15-.25-.3-.38-.45-.26-.29-.47-.62-.75-.9-.3-.31-.65-.59-.97-.88-.23-.21-.6-.39-.73-.68-.15-.33-.7-.1-.59.25.13.4.46.61.76.87.35.3.71.62,1.02.95.29.3.53.63.84.92.08.08.18.13.28.19.08.05.17.11.27.15.09.04.18.06.27.1.09.04.18.07.28.04.08-.03.14-.13.09-.21Z"/>
      <path d="M6.82,63.25c-.28-.23-.71-.23-1.06-.27-.43-.05-.85-.16-1.28-.21-.84-.1-1.6-.48-2.43-.61-.36-.06-.47.5-.11.56.8.14,1.55.52,2.36.64.41.06.82.15,1.23.22.17.03.35.05.53.07.17.03.34.09.51.12.3.06.49-.34.25-.53Z"/>
      <path d="M6.17,60.43c-.34-.14-.7-.21-1.04-.36-.34-.15-.67-.34-1.02-.47-.72-.27-1.49-.43-2.17-.8-.2-.11-.44-.08-.57.12-.12.17-.08.46.12.57.75.42,1.58.62,2.38.93.37.14.74.3,1.12.38.38.09.84.19,1.2,0,.16-.08.13-.3-.03-.36Z"/>
      <path d="M5.4,57.53c-.09-.02-.17-.07-.27-.08-.1-.01-.19-.04-.29-.06-.18-.05-.36-.11-.53-.17-.34-.13-.67-.3-1-.46-.67-.32-1.39-.69-2.14-.69-.17,0-.31.16-.3.33,0,.19.16.29.33.3.34.03.69.18,1,.31.33.14.66.3.98.46.36.18.71.36,1.1.48.2.06.4.09.62.09.09,0,.18-.01.27-.03.13-.02.19-.09.3-.15.13-.08.08-.28-.06-.31Z"/>
      <path d="M96.34,35.68c.16-.18.33-.36.48-.55.16-.22.29-.47.43-.7.6-.98,1.31-1.91,1.75-2.98.08-.19.25-.32.47-.27.18.05.34.28.26.47-.42,1.11-1.06,2.09-1.72,3.07-.3.45-.58.89-.96,1.28-.17.18-.35.36-.51.55-.16.19-.25.39-.49.48-.09.03-.21-.02-.25-.1-.23-.45.26-.94.54-1.25Z"/>
      <path d="M95.57,33.63c.28-.35.42-.8.67-1.17.6-.92,1.23-1.81,1.72-2.81.23-.47.92-.06.7.41-.48,1.01-1.12,1.91-1.71,2.85-.24.38-.39.81-.66,1.18-.28.37-.65.8-1.14.86-.09.01-.22-.08-.23-.18-.08-.54.37-.77.66-1.14Z"/>
      <path d="M94.26,31.6c.14-.19.31-.36.45-.55.27-.35.51-.74.71-1.14.19-.39.35-.8.55-1.19.21-.42.41-.83.53-1.28.11-.44.75-.25.68.19-.08.48-.25.93-.44,1.38-.19.45-.38.9-.59,1.34-.2.42-.45.82-.72,1.19-.15.2-.3.42-.48.6-.17.17-.38.39-.64.38-.19,0-.32-.15-.33-.33-.01-.23.16-.4.29-.57Z"/>
      <path d="M92.51,29.46c.24-.45.58-.86.92-1.24.32-.36.57-.75.82-1.16.23-.38.48-.73.72-1.1.24-.36.44-.72.47-1.17.02-.43.65-.43.67,0,.06,1.04-.6,1.78-1.09,2.62-.26.45-.51.9-.85,1.3-.37.43-.69.93-1.16,1.25-.32.22-.67-.2-.51-.51Z"/>
      <path d="M91.05,26.51c.23-.29.47-.57.68-.87.23-.34.44-.69.64-1.05.38-.7.73-1.43,1.06-2.16.24-.53,1.18-.14.95.4-.33.8-.68,1.58-1.11,2.33-.21.36-.43.7-.67,1.04-.26.35-.53.72-.86,1.01-.2.17-.49.19-.68,0s-.16-.48,0-.68Z"/>
      <path d="M89.06,24.31c.24-.2.46-.51.65-.78.22-.31.41-.64.63-.95.55-.78,1.27-1.65,1.38-2.63.03-.25.2-.47.47-.47.24,0,.5.22.47.47-.11,1.2-.81,2.23-1.53,3.15-.03.04-.06.08-.09.11,0,.01-.05.06-.05.07-.06.08-.11.16-.17.23-.14.19-.28.39-.43.58-.27.34-.55.69-.99.81-.32.08-.62-.35-.34-.59Z"/>
      <path d="M88.05,20.76c.24-.35.46-.71.7-1.05.42-.61.99-1.24,1.12-1.99.04-.24.33-.37.55-.31.26.07.34.31.31.55-.11.79-.64,1.53-1.1,2.16-.24.34-.47.69-.71,1.02-.28.39-.55.83-.93,1.13-.19.15-.55.08-.53-.22.03-.49.32-.9.59-1.29Z"/>
      <path d="M98.11,45.77c.17-.38.48-.68.79-.96.32-.29.67-.56,1-.85.67-.59,1.3-1.22,2.05-1.71.28-.18.61.24.36.46-.65.59-1.26,1.21-1.92,1.79-.32.28-.66.53-1,.79-.34.25-.64.54-.97.79-.21.15-.39-.13-.31-.31Z"/>
      <path d="M97.66,43.02c.16-.17.38-.3.58-.43.35-.22.78-.41,1.04-.67.31-.31.56-.67.87-.98.31-.31.7-.68,1.17-.58.25.05.24.44,0,.5-.31.07-.62.4-.85.66-.26.29-.48.62-.76.89-.3.28-.68.46-1.03.66-.18.1-.36.21-.52.34-.07.06-.14.11-.19.16-.07.06-.11.15-.23.19-.1.04-.22-.02-.27-.11-.12-.2.05-.49.19-.64Z"/>
      <path d="M96.71,40.83c.15-.4.51-.6.87-.78.39-.21.71-.46,1.04-.76.38-.35.8-.63,1.2-.95.4-.32.65-.75.99-1.13.13-.14.37-.13.5,0,.15.15.12.35,0,.5-.32.4-.55.84-.94,1.18-.39.34-.82.64-1.2,1-.34.31-.68.61-1.08.83-.16.09-.33.17-.48.28-.13.09-.28.29-.47.33-.1.02-.21,0-.28-.07-.01-.01-.02-.02-.03-.04-.08-.1-.15-.24-.1-.37Z"/>
      <path d="M96.35,38.64c.07-.21.22-.38.36-.55.14-.18.27-.37.44-.52.32-.29.72-.47,1.04-.76.37-.32.81-.57,1.14-.93.36-.39.67-.83,1.05-1.2.32-.32.81.17.5.5-.37.38-.67.83-1.03,1.22-.33.36-.76.62-1.12.95-.16.14-.32.28-.5.41-.17.12-.37.22-.53.36-.3.28-.57.8-1,.88-.19.04-.42-.13-.35-.35Z"/>
      <path d="M98.25,54.97c.19-.19.45-.29.69-.4.23-.1.47-.2.7-.31.46-.2.92-.4,1.39-.59.41-.16.81-.31,1.2-.54.17-.1.34-.18.53-.25.16-.06.34-.11.47-.23.23-.21.52.14.37.37-.21.32-.6.46-.9.67-.4.28-.8.51-1.25.69-.48.19-.95.4-1.42.61-.23.1-.46.21-.7.31-.26.12-.54.25-.83.25-.26,0-.42-.39-.24-.57Z"/>
      <path d="M98.56,52.15c.06-.02.17-.06.26-.08.1-.03.19-.05.28-.09.15-.07.35-.22.5-.34.3-.24.6-.47.91-.69.35-.26.69-.53,1.05-.77.36-.23.78-.46,1.22-.45.19,0,.36.13.37.33.01.18-.14.37-.33.37-.17,0-.32.05-.49.13-.19.09-.37.22-.54.34-.35.25-.68.54-1.03.78-.35.24-.63.53-.97.77-.38.28-.91.54-1.34.21-.19-.14-.09-.44.11-.51Z"/>
      <path d="M98.83,49.61c.13-.08.28-.12.42-.19.15-.08.29-.16.44-.25.27-.17.53-.37.76-.59.64-.6,1.26-1.22,1.89-1.83.25-.24.63.13.38.38-.33.34-.66.68-.99,1.03-.3.31-.58.64-.9.93-.26.24-.55.46-.84.66-.28.18-.65.45-1,.45-.32,0-.4-.41-.15-.57Z"/>
      <path d="M98.61,47.49c.05-.08.12-.11.2-.16.08-.05.12-.11.19-.18.14-.15.25-.3.38-.45.26-.29.47-.62.75-.9.3-.31.65-.59.97-.88.23-.21.6-.39.73-.68.15-.33.7-.1.59.25-.13.4-.46.61-.76.87-.35.3-.71.62-1.02.95-.29.3-.53.63-.84.92-.08.08-.18.13-.28.19-.08.05-.17.11-.27.15-.09.04-.18.06-.27.1-.1.04-.18.07-.28.04-.08-.03-.14-.13-.09-.21Z"/>
      <path d="M94.67,69.21c.21-.05.42-.05.64-.06.28,0,.56,0,.84-.06.3-.06.6-.16.9-.22.61-.11,1.2-.24,1.8-.41.6-.16,1.21-.3,1.83-.36.34-.03.41.49.07.53-1.21.15-2.33.67-3.53.88-.57.1-1.09.3-1.67.32-.22,0-.44,0-.66.05-.1.02-.2.05-.3.07-.16.03-.27,0-.43-.04-.14-.03-.21-.18-.12-.3.17-.24.34-.35.63-.41Z"/>
      <path d="M96.76,63.34c.27-.24.7-.25,1.05-.31.43-.07.84-.18,1.27-.25.83-.13,1.59-.53,2.41-.69.36-.07.49.48.13.56-.8.17-1.53.57-2.33.72-.41.08-.81.18-1.22.26-.17.03-.35.06-.52.09-.17.03-.33.1-.51.14-.3.07-.5-.32-.27-.52Z"/>
      <path d="M97.46,60.61c.32-.17.68-.26,1-.44.33-.18.64-.4.98-.55.7-.32,1.45-.54,2.1-.96.19-.12.43-.11.58.07.13.17.11.46-.07.58-.72.47-1.53.74-2.3,1.11-.36.17-.71.35-1.09.47-.38.12-.82.26-1.2.09-.16-.07-.15-.29,0-.36Z"/>
      <path d="M98.17,57.52c.09-.02.17-.07.27-.08.1-.01.19-.04.29-.06.18-.05.36-.1.53-.17.34-.13.67-.3,1-.46.67-.32,1.39-.69,2.15-.69.17,0,.31.16.3.33,0,.19-.16.29-.33.3-.34.03-.69.17-1,.3-.33.14-.66.3-.98.46-.36.18-.72.36-1.1.48-.2.06-.4.09-.62.08-.09,0-.18-.01-.27-.03-.13-.02-.19-.09-.3-.15-.13-.08-.08-.28.06-.31Z"/>
      <path d="M7.33,66.08c-.13-.09-.3-.1-.44-.18-.16-.09-.33-.14-.52-.18-.49-.12-1.01-.19-1.51-.23-.2-.01-.41,0-.61-.04-.2-.03-.36-.11-.52-.21-.36-.22-.7-.39-1.14-.29-.19.04-.29.28-.24.46.07.2.27.28.46.24.12-.03.25.06.35.12.14.08.28.18.43.26.4.2.83.19,1.27.23.45.04.9.13,1.36.18.16.02.39.05.55,0,.01,0,.03-.01.04-.02.04,0,.07,0,.11,0,.07,0,.15.02.22.05.25.11.42-.23.19-.38Z"/>
      <path d="M50.76,4.33c-.04-.18-.12-.36-.2-.52-.08-.16-.18-.3-.27-.45-.04-.06-.07-.12-.11-.19,0-.02-.01-.02-.01-.02,0,0,0,0,0-.02-.02-.05-.04-.1-.06-.15-.31-.78-.72-1.59-.76-2.44-.03-.53-.85-.53-.82,0,.04.88.39,1.7.71,2.51.13.33.27.64.46.94.09.14.19.28.27.43.06.11.1.23.17.34,0,.01,0,.02,0,.03.07.24.41.29.54.07.09-.17.14-.33.1-.54Z"/>
      <path d="M52.53,1.17c0-.28-.06-.88-.45-.88s-.44.6-.45.88c-.01.37-.02.73-.02,1.1v2.28c0,.61.95.61.95,0v-2.28c0-.37-.01-.73-.02-1.1Z"/>
      <path d="M55.43.1c-.13-.08-.27-.06-.39.03-.13.1-.16.3-.2.45-.08.31-.22.6-.28.91-.07.35-.09.71-.15,1.06-.08.4-.15.8-.17,1.21-.01.18,0,.37-.05.55-.05.19-.11.37-.14.57-.03.2.05.4.26.46.19.05.41-.06.46-.26.08-.33.22-.63.27-.98.04-.34.08-.68.15-1.02.13-.67.22-1.35.39-2.02.07-.29.17-.77-.13-.96Z"/>
      <path d="M58.37.39c-.04-.23-.2-.44-.47-.38-.26.06-.39.34-.47.57-.14.44-.31.86-.47,1.3-.32.87-.45,1.8-.86,2.64-.11.23-.06.51.17.65.21.12.53.06.65-.17.38-.75.57-1.55.82-2.34.11-.37.26-.73.41-1.09.14-.36.34-.8.23-1.18Z"/>
      <path d="M61.15.23c-.17-.08-.34-.06-.48.06-.09.07-.12.18-.16.29-.01.03-.02.07-.03.1,0,0,0,.01,0,.02,0,0,0,.02-.02.04-.08.18-.18.35-.29.52-.21.31-.46.59-.66.91-.3.47-.48,1.01-.72,1.52-.23.5-.57.95-.63,1.5-.03.24.23.45.45.45.27,0,.42-.21.45-.45.03-.2.19-.41.29-.59.14-.24.26-.5.38-.75.21-.46.41-.94.71-1.35.24-.33.5-.64.7-.99.19-.33.48-1.04,0-1.27Z"/>
      <path d="M64.8,1.52c-.05-.13-.13-.19-.27-.21-.12-.02-.24.03-.34.1-.1.07-.23.15-.32.23-.19.17-.34.38-.51.56-.33.34-.73.61-1.05.97-.65.71-1.1,1.57-1.57,2.4-.31.55.53,1.03.84.49.45-.78.88-1.6,1.51-2.25.32-.34.72-.6,1.04-.93.18-.19.36-.39.5-.6.06-.1.1-.24.15-.35.05-.13.08-.27.03-.4Z"/>
      <path d="M67.13,2.58c-.06-.16-.18-.25-.34-.26-.22-.02-.38.15-.53.28.04-.04-.09.07-.08.06-.08.06-.11.09-.18.18-.02.02-.61.66-.63.68,0,0-.04.05-.05.06-.21.27-.42.53-.64.8-.43.52-.88,1.02-1.36,1.5-.19.19-.2.53,0,.71.2.19.51.2.71,0,.49-.48.95-.98,1.39-1.5.22-.26.43-.52.65-.79.05-.06.68-.74.73-.8.09-.12.13-.22.19-.35-.02.05.03-.05.03-.05.02-.04.04-.08.06-.12.06-.12.09-.26.04-.4Z"/>
      <path d="M69.91,3.59c-.21-.09-.44,0-.56.18-.04.07-.09.14-.14.21-.02.03-.04.05-.05.08,0,0-.02.02-.03.03-.1.11-.21.22-.33.31-.23.19-.48.36-.68.58-.12.13-.22.28-.31.42-.02.03-.04.07-.07.1,0,0-.02.02-.02.03-.05.06-.11.12-.18.17-.28.23-1.27,1.2-1.52,1.47-.14.16-.16.4,0,.56.16.16.4.14.56,0,.26-.24,1.29-1.16,1.58-1.39.16-.12.28-.27.39-.44.05-.07.09-.13.14-.2,0,0,0-.01.01-.02,0,0,0,0,.02-.02.03-.03.06-.06.09-.09.06-.06.12-.11.18-.16.03-.02.05-.04.08-.06,0,0,.07-.05.07-.06.02-.02.05-.04.05-.04.05-.04.09-.07.14-.11.06-.05.12-.1.18-.15.29-.24.53-.53.65-.89.07-.21-.06-.45-.26-.53Z"/>
      <path d="M73.68,5.27c-.38-.2-.73-.05-1.06.17-.31.21-.59.46-.87.72-.05.05-.1.09-.15.14-.01.01-.05.03-.06.05-.01.01-.03.02-.04.03-.24.18-.47.36-.71.54-.43.34-.86.69-1.27,1.05-.22.19-.2.57,0,.77.22.22.55.19.77,0,.39-.34.79-.66,1.19-.98.31-.24.66-.48.97-.75.23-.2.46-.41.69-.62.06-.06.13-.11.2-.17-.09.07.05-.03.08-.06.08-.06.16-.11.23-.18.01-.01.02-.03.04-.04,0,0,0,0,0,0,.25-.14.26-.54,0-.67Z"/>
      <path d="M76.05,6.65c-.43-.17-.82.13-1.1.42-.26.27-.56.49-.84.74-.3.26-.57.53-.9.76-.34.24-.76.46-1.03.77-.26.29.02.65.35.58h0c.38-.05.79-.29,1.12-.5.36-.23.67-.5,1-.78.29-.25.61-.45.88-.71.11-.11.22-.22.34-.32.03-.03.06-.05.09-.08,0,0,0,0,.01,0,0,0,0,0,.01,0,.04-.03.08-.06.13-.09,0,0,.04-.02.06-.03.15-.06.22-.27.2-.41-.03-.17-.14-.28-.3-.34Z"/>
      <path d="M78.77,7.93c-.44-.21-.81.07-1.08.42-.25.33-.56.62-.87.89-.16.14-.32.28-.5.4-.2.14-.43.24-.64.36-.45.26-.77.64-1.11,1.02-.33.37.17.86.54.54.33-.28.65-.56,1.03-.76.43-.23.83-.43,1.21-.75.31-.26.62-.54.88-.85.12-.15.24-.3.35-.46.1-.14.2-.29.23-.46,0-.01.01-.03.02-.04.07-.1.02-.27-.09-.33Z"/>
      <path d="M80.46,9.29c-.21.03-.38.2-.55.33-.14.11-.26.25-.42.35-.18.11-.38.19-.57.29-.21.11-.4.26-.58.42-.69.62-1.46,1.14-2.15,1.76-.19.17-.17.5,0,.67.19.19.48.17.67,0,.7-.61,1.48-1.12,2.18-1.73.31-.27.72-.41,1.05-.67.15-.12.29-.25.41-.4.14-.16.31-.4.35-.61.04-.27-.14-.45-.41-.41Z"/>
      <path d="M83.01,10.41c-.14-.18-.46-.29-.66-.13-.37.29-.72.6-1.08.91-.34.29-.7.55-1.05.83-.7.57-1.25,1.28-1.84,1.97-.32.38.17.87.54.54.65-.56,1.27-1.18,1.98-1.68.38-.26.74-.54,1.1-.83.35-.29.69-.57.97-.93.16-.2.21-.46.04-.67Z"/>
      <path d="M83.9,12.17c-.1.12-.22.22-.33.33-.12.12-.24.24-.37.36-.26.23-.5.49-.75.73-.58.55-1.22,1.04-1.78,1.62-.17.17-.17.45,0,.62.17.17.45.17.62,0,.59-.59,1.27-1.07,1.88-1.64.26-.24.53-.47.77-.73.13-.15.27-.3.37-.48.1-.18.13-.38.14-.58.02-.26-.37-.44-.54-.23Z"/>
      <path d="M86.53,13.97h-.03c-.36-.17-.76.12-1.03.37-.26.25-.48.53-.74.78-.64.6-1.34,1.15-1.95,1.78-.38.39.2.97.6.6.61-.58,1.29-1.08,1.92-1.65.25-.23.47-.49.71-.73.13-.14.27-.24.37-.33.06-.05.11-.11.17-.16.04-.04.08-.08.11-.13,0-.02.07-.14.04-.11.11-.16,0-.37-.17-.42Z"/>
      <path d="M87.89,15.23c-.18-.12-.42-.04-.6.03-.2.08-.35.22-.49.38-.14.15-.26.32-.39.48-.05.07-.1.14-.15.2,0,.01-.03.04-.04.05-.02.03-.05.06-.07.09-.17.2-.37.36-.57.53-.25.21-.5.43-.72.67-.25.27-.5.62-.47,1.01.04.49.72.49.76,0-.01.12,0,0,.01-.02,0-.01.01-.02.02-.04.04-.06.08-.13.12-.19.01-.02.02-.02.02-.03,0-.01.02-.02.03-.03.03-.04.07-.08.1-.11.06-.07.13-.13.19-.2.27-.26.56-.48.85-.72.27-.23.47-.52.69-.79.13-.17.28-.33.43-.48.06-.06.12-.13.18-.19,0,0,0,0,.01-.01.01,0,.03-.02.04-.03.07-.05.12-.09.16-.17.09-.16.03-.35-.12-.45Z"/>
      <path d="M90.25,15.87s-.03,0-.05,0c0,0,0,0,0,0-.22-.03-.42.08-.62.2-.22.14-.43.28-.61.45-.36.34-.61.77-.92,1.15-.64.79-1.43,1.45-2.14,2.16-.42.42.23,1.08.66.66.71-.7,1.49-1.35,2.14-2.12.31-.36.56-.78.9-1.11.16-.15.34-.28.51-.41.1-.08.2-.16.28-.26.12-.14.13-.31.13-.44,0-.17-.12-.26-.28-.28Z"/>
      <path d="M53.59,102.21c-.05-.08-.07-.1-.13-.18,0-.01,0-.01-.01-.02,0-.01-.02-.05-.02-.06-.04-.14-.06-.29-.08-.44-.05-.41-.13-.77-.3-1.14-.29-.62-.79-1.27-.75-1.99.03-.47-.76-.59-.84-.11-.07.49,0,.95.2,1.41.17.4.4.77.58,1.17.16.35.18.74.27,1.11.1.4.38.89.88.75.2-.06.32-.31.2-.5Z"/>
      <path d="M56.22,101.35c-.09-.36,0-.73-.01-1.1,0-.42-.14-.75-.25-1.15-.12-.43-.08-.9-.11-1.34-.04-.5-.74-.5-.78,0-.04.44-.11.89-.07,1.33.04.38.21.73.2,1.12-.01.42-.09.82-.02,1.24.03.18.09.36.14.53.06.18.07.35.12.54.09.37.65.45.83.11.21-.41.06-.86-.05-1.28Z"/>
      <path d="M58.62,97.55c-.03-.54-.81-.54-.83,0-.05.96-.11,1.92-.12,2.88,0,.46,0,.93.02,1.39.01.37,0,1.08.52,1.08s.51-.71.52-1.08c.02-.46.02-.93.02-1.39-.01-.96-.07-1.92-.12-2.88Z"/>
      <path d="M61.26,98.51c-.02-.19-.04-.38-.11-.57-.06-.18-.13-.34-.16-.53-.1-.53-1.01-.41-.95.13.04.36.19.69.19,1.05,0,.39-.02.78-.02,1.16,0,.4,0,.8,0,1.19,0,.4-.08,1.02.23,1.31.16.16.42.16.58,0,.31-.3.22-.92.23-1.31,0-.41,0-.82,0-1.23,0-.4.03-.8,0-1.2Z"/>
      <path d="M64.11,97.12c0-.55-.85-.55-.85,0-.01,1.38-.08,2.76-.02,4.13.02.57.86.57.89,0,.06-1.37,0-2.76-.02-4.13Z"/>
      <path d="M98.21,71.64c-.11-.44-.65-.44-1-.35-.16.04-.26.08-.39.09-.17.02-.34,0-.51,0-.64-.04-1.25.11-1.88.19-.16.02-.31.13-.34.3-.01.06-.02.12-.03.17-.05.29.34.55.55.31.53.07,1.09-.09,1.61-.06.35.02.69.04,1.04-.04.15-.04.26-.06.38-.09.14-.03.3-.04.45-.15.13-.09.16-.23.13-.37Z"/>
      <path d="M97.42,74.14c-.17-.15-.35-.17-.57-.21-.23-.04-.45-.08-.68-.09-.41-.02-.81-.04-1.22-.03-.61.01-1.34.17-1.9-.12-.58-.29-1.1.57-.52.88.71.38,1.5.31,2.28.3.42,0,.85,0,1.27-.03.24,0,.49-.05.73-.09.23-.04.43-.06.61-.22.11-.1.11-.31,0-.41Z"/>
      <path d="M95.53,76.5c.06.04.03.02-.08-.07-.06-.03-.12-.06-.19-.07-.08-.02-.16-.03-.24-.06-.14-.04-.28-.1-.42-.14-.39-.1-.74-.02-1.13-.02-.36,0-.72-.09-1.07-.13-.36-.05-.72-.08-1.08-.09-.67,0-.67,1.02,0,1.04.34,0,.68.04,1.01.09.39.06.79.16,1.18.15.18,0,.36-.03.55-.04.15,0,.26.02.41.08.39.14.84.29,1.16-.08.19-.22.15-.52-.09-.68Z"/>
      <path d="M93.76,79.42c-.12-.21-.3-.22-.51-.25-.05,0-.23-.04-.33-.06-.15-.02-.3-.06-.44-.1-.26-.07-.52-.14-.78-.21-.56-.15-1.11-.41-1.52-.79-.19-.18-.5-.19-.69,0-.18.18-.19.51,0,.69.43.42.96.71,1.52.92.24.09.5.16.75.23.28.08.56.16.84.22.15.03.3.06.46.05.17,0,.39-.01.54-.1.2-.12.29-.39.17-.6Z"/>
      <path d="M92.56,82.17c-.16-.1-.34-.12-.51-.19-.01,0-.03-.01-.04-.02-.03-.02-.06-.03-.1-.05-.07-.04-.14-.08-.21-.12-.28-.17-.54-.38-.82-.54-.6-.35-1.3-.44-1.83-.89-.19-.16-.46-.18-.64,0-.17.17-.18.48,0,.64.3.27.63.48,1,.65.33.15.68.28.99.48.29.18.55.39.83.57.35.22.79.45,1.21.34.39-.11.45-.65.11-.86Z"/>
      <path d="M100.1,65.41c-.18.03-.34.12-.51.19-.01,0-.03,0-.04.01-.03,0-.07.02-.1.03-.08.02-.16.03-.24.04-.32.05-.65.06-.97.12-.68.12-1.27.51-1.97.51-.25,0-.47.16-.49.42-.02.24.17.48.42.49.4.02.79-.05,1.18-.16.35-.1.7-.23,1.06-.28.33-.05.67-.06,1.01-.11.4-.06.89-.17,1.13-.53.23-.34-.08-.79-.47-.72Z"/>
      <path d="M90.67,90.36s-.03.04,0,.04.03-.04,0-.04Z"/>
      <path d="M67,99.37c-.03-.06-.07-.12-.11-.17,0,0-.01-.02-.02-.02l-.04-.09s-.01-.03-.02-.03c0-.02-.02-.06-.02-.06,0-.03-.02-.06-.03-.09,0-.04-.02-.08-.03-.11,0,0,0-.03,0-.05,0-.02,0-.08,0-.08,0-.04,0-.08,0-.12,0-.07-.01-.15-.02-.22,0-.15-.01-.3-.02-.45,0-.16-.01-.32-.04-.48-.03-.18-.11-.34-.17-.5-.14-.35-.12-.72-.18-1.09-.05-.29-.51-.28-.57,0-.04.21-.1.41-.12.63-.02.22,0,.44.06.66.04.16.1.32.11.49,0,.15,0,.31,0,.46-.01.35,0,.7.07,1.04.09.38.31.8.71.9.36.09.62-.28.46-.6Z"/>
      <path d="M69.7,97.83c-.03-.13-.08-.26-.11-.39-.07-.27-.15-.54-.26-.8-.2-.51-.44-1.01-.57-1.54-.05-.22-.28-.35-.49-.32-.2.03-.42.22-.39.44.08.59.27,1.13.47,1.69.09.27.17.55.26.83.05.16.09.33.17.48.08.15.2.27.31.39.21.23.72.07.68-.28-.02-.17,0-.34-.05-.5Z"/>
      <path d="M72.07,96.41c-.15-.37-.29-.74-.46-1.09-.27-.56-.68-1.14-.73-1.79-.04-.58-.87-.58-.91,0-.05.77.36,1.48.7,2.14.35.69.64,1.45,1.22,1.99.15.14.47.05.45-.19-.03-.37-.14-.73-.27-1.06Z"/>
      <path d="M74.76,95.1c-.16-.33-.38-.61-.57-.91-.36-.57-.45-1.28-.96-1.77-.36-.35-.91.2-.55.55.42.42.49,1.09.8,1.61.16.28.36.53.51.81.07.14.13.29.19.43.04.1.07.19.13.28.02.04.05.08.08.11.03.03.07.06.11.07.05.02.06.02.01.01.1.06.25.04.32-.04.31-.33.1-.8-.07-1.16Z"/>
      <path d="M76.99,93.68c-.17-.24-.35-.47-.55-.69-.12-.14-.25-.27-.37-.41-.02-.02-.04-.05-.06-.07,0-.01-.03-.04-.04-.06-.04-.07-.08-.14-.12-.21,0-.02-.03-.07-.03-.07-.01-.04-.02-.08-.03-.12-.02-.07-.02-.15-.04-.22-.06-.26-.22-.46-.45-.59-.47-.26-.91.34-.56.73-.02-.03-.02-.03,0,0,0,0,0,.01,0,.02,0,.02,0,.03,0,.05,0,.04,0,.07,0,.11.01.25.08.47.19.69.17.34.44.61.69.89.17.19.34.37.52.55.19.2.38.42.6.59.2.14.52,0,.57-.23.07-.35-.14-.69-.33-.96Z"/>
      <path d="M79.88,93.3c0-.11-.02-.21-.1-.31-.05-.06-.11-.12-.16-.17-.11-.11-.2-.22-.3-.33-.2-.23-.45-.41-.66-.62-.05-.05-.1-.1-.14-.16-.02-.03-.05-.06-.07-.09,0,0,0,0,0,0,0,0,0,0-.02-.02-.11-.15-.22-.29-.32-.45-.21-.31-.4-.64-.56-.97-.2-.42-.92-.13-.76.32.25.7.57,1.42,1.07,1.98.2.23.43.41.64.62.25.24.42.57.78.67.16.05.37,0,.48-.13,0-.01.02-.02.03-.03.09-.08.12-.2.11-.31Z"/>
      <path d="M82.74,91.23c-.04-.07-.1-.17-.18-.21,0,0,0,0,0,0-.02-.03-.09-.08-.14-.1-.02-.02-.04-.03-.06-.05-.05-.04-.09-.09-.14-.13-.17-.17-.31-.37-.48-.55-.22-.23-.45-.44-.68-.67-.26-.25-.52-.51-.78-.76-.19-.18-.52-.2-.71,0-.19.2-.2.51,0,.71.27.27.53.55.8.82.23.23.46.46.68.71.36.42,1.05,1.24,1.64.72.12-.11.15-.34.06-.48Z"/>
      <path d="M84.71,89.3c-.06-.08-.11-.16-.2-.21-.03-.02-.06-.03-.08-.04-.03-.02-.05-.03-.08-.05-.02-.01-.04-.02-.05-.04,0,0,0,0,0,0-.01-.01-.03-.02-.04-.04-.03-.02-.05-.04-.07-.07-.06-.05-.11-.11-.17-.17-.2-.19-.38-.4-.57-.59-.15-.15-.29-.31-.44-.46-.08-.08-.16-.16-.23-.25,0,0,0,0,0,0-.01-.02-.02-.04-.04-.06,0,0,0-.02-.01-.03-.07-.24-.34-.41-.59-.33-.12.04-.23.11-.29.22-.06.12-.07.23-.05.37.04.24.2.47.35.66.17.22.36.41.55.61.2.21.39.44.61.64.14.12.29.24.46.33.08.05.16.08.24.12.15.06.28.09.45.05.26-.06.44-.43.27-.66Z"/>
      <path d="M86.94,87.92c-.07-.09-.17-.16-.27-.23-.13-.1-.27-.19-.42-.27-.3-.16-.6-.32-.87-.52,0,0,0,0-.01,0,0,0,0,0-.02-.01-.04-.03-.07-.06-.11-.09-.07-.05-.13-.11-.2-.16-.15-.12-.31-.24-.47-.35-.25-.19-.52-.41-.76-.64-.17-.17-.46-.17-.63,0-.18.18-.16.45,0,.63.47.52,1.02.99,1.57,1.42.28.22.58.4.89.57.15.09.31.16.47.24.08.04.15.08.23.12.15.07.27.07.43.03.15-.04.3-.21.28-.37-.01-.13-.03-.24-.11-.35Z"/>
      <g>
        <path d="M88.54,85.99s-.09-.04-.14-.06c-.04-.01-.09-.01-.14-.02,0,0,0,0,0,0-.01,0-.03,0-.03,0,0,0,0,0,0,0h-.01s-.03-.01-.03-.01c-.03-.02-.06-.04-.08-.06,0,0,0,0,0,0-.02-.02-.04-.03-.06-.05-.1-.08-.19-.17-.29-.26-.19-.18-.4-.37-.64-.49-.11-.05-.23-.1-.34-.14-.03-.01-.06-.02-.09-.04-.02,0-.02,0-.03-.01,0,0-.01,0-.02-.01-.04-.02-.07-.03-.1-.05,0,0-.06-.04-.08-.05-.02-.01-.05-.04-.05-.04-.03-.02-.05-.05-.08-.08-.08-.08-.14-.17-.22-.24-.13-.12-.28-.22-.44-.31-.23-.12-.54-.06-.67.17-.12.23-.06.53.17.67.06.03.11.07.17.11,0,0,.06.05.08.07.07.07.13.15.19.23.22.24.49.39.78.52.12.05.24.11.35.18.01,0,.02,0,.02.01.02.02.03.03.04.04.05.04.09.09.14.13.19.19.39.39.63.52.31.16.74.27,1.03.03.24-.2.24-.58-.05-.74Z"/>
        <path d="M88.26,85.91s0,0,0,0c0,0-.06-.03-.05-.02h.02s.02.01.02.02Z"/>
      </g>
      <path d="M91.27,84.48s-.02-.06-.03-.09c-.04-.07-.1-.12-.16-.17-.07-.06-.15-.09-.23-.13-.14-.07-.27-.14-.4-.21-.12-.07-.25-.13-.37-.19-.08-.04-.17-.09-.25-.14-.04-.02-.07-.05-.11-.07-.01,0-.03-.02-.04-.03-.32-.27-.63-.55-.99-.78-.34-.21-.75-.41-1.04-.65-.2-.17-.49-.2-.69,0-.18.18-.19.51,0,.69.35.34.77.59,1.16.88.26.19.57.52.87.76.3.23.62.4.95.58.17.09.35.18.54.24.14.04.29.06.43.02.1-.03.22-.1.28-.19,0,0,0,0,0,0,.15-.12.16-.35.07-.51Z"/>
      <path d="M16.11,81.02c-.08-.3-.5-.28-.59,0-.03.09-.14.13-.24.23-.12.11-.25.2-.37.31-.31.27-.5.65-.75.97-.26.33-.56.64-.84.96-.31.34-.65.65-.93,1.01-.22.29.14.67.45.59.04-.01.08-.02.12-.03.1-.03.18-.1.22-.18.3-.23.55-.54.8-.81.33-.35.67-.7.96-1.08.24-.32.45-.64.75-.91.14-.13.29-.27.37-.44.08-.19.09-.41.03-.61Z"/>
      <path d="M14.02,79.04c-.41.15-.71.57-.97.9-.23.3-.44.61-.68.89-.5.58-1.06,1.11-1.25,1.88-.07.28.36.5.5.21.29-.63.87-1.09,1.35-1.58.26-.27.49-.56.73-.84.12-.15.24-.29.37-.43.14-.14.3-.29.4-.47.15-.28-.1-.69-.44-.57Z"/>
      <path d="M12.31,77.27c-.73-.18-1.14.79-1.59,1.2-.3.27-.65.51-.92.82-.07.08-.13.16-.19.24-.02.03-.04.05-.06.08,0,0,0,.01-.01.02-.01.01-.09.09-.12.13-.24.04-.45.24-.44.5.01.29.22.49.51.51.47.03.77-.33,1.03-.67.01-.01.09-.13.04-.05-.05.08.02-.02.03-.04.07-.08.15-.15.23-.22.16-.14.34-.28.5-.42.25-.21.45-.45.66-.7.1-.12.2-.24.31-.35.04-.04.12-.1.15-.15-.07.05-.09.06-.05.04.04-.03.08-.06.11-.09.05-.05.07-.1.11-.15.18-.25-.01-.63-.28-.7Z"/>
      <path d="M10.96,74.73c-.43.04-.79.41-1.1.68-.29.25-.52.46-.84.65-.63.36-1.29.77-1.74,1.35-.15.19-.18.44,0,.63.16.16.48.19.63,0,.44-.53,1.03-.85,1.64-1.18.34-.19.63-.44.92-.69.12-.11.27-.24.37-.31.19-.14.39-.24.53-.43.2-.27-.07-.73-.4-.7Z"/>
      <path d="M10.07,72.44c-.1-.18-.3-.24-.49-.2-.2.04-.39.15-.57.24-.17.08-.34.17-.51.25-.34.17-.68.34-1,.54-.48.3-.92.82-1.5.9-.2.03-.32.27-.29.45.03.19.2.37.4.35.69-.05,1.23-.5,1.79-.86.32-.21.66-.37,1-.54.36-.18.8-.32,1.1-.6.14-.13.16-.37.07-.53Z"/>
      <path d="M6.97,67.57c-.61.03-1.16.32-1.75.44-.34.07-.69.05-1.03.04-.38-.01-.74.01-1.11.06-.33.04-.33.61,0,.66.65.1,1.29.2,1.95.15.61-.05,1.17-.28,1.76-.43.28-.07.71-.05.81-.4.1-.36-.33-.54-.62-.53Z"/>
      <path d="M8.35,68.86c-.41-.19-.79,0-1.17.16-.36.15-.7.35-1.06.51-.69.31-1.33.8-2.11.84-.5.03-.5.8,0,.78.85-.03,1.56-.46,2.3-.82.35-.17.71-.31,1.06-.5.18-.09.34-.2.53-.28.2-.09.35-.16.51-.3.11-.1.09-.32-.05-.39Z"/>
      <path d="M9.36,70.23c-.95-.24-1.82.52-2.55,1.02-.37.25-.75.5-1.16.69-.38.18-.73.38-.85.81-.17.59.72.83.91.25-.01.03,0,.02,0,0,0,0,.04-.04.01-.02,0,0,.11-.07.16-.09,0,0,.03-.01.04-.02.03-.01.07-.03.1-.04.09-.04.18-.07.27-.12.39-.18.75-.43,1.1-.67.32-.22.64-.45.98-.64.35-.2.7-.38,1.05-.57.25-.14.19-.54-.08-.61Z"/>
      <path d="M28.54,91.44c-.2.36-.25.83-.35,1.23-.1.42-.2.84-.28,1.26-.17.85-.3,1.7-.19,2.56.05.41.58.41.64,0,.11-.81.21-1.62.38-2.42.08-.39.18-.78.28-1.17.1-.39.28-.85.26-1.26-.02-.38-.54-.56-.74-.2Z"/>
      <path d="M27.18,90.18c-.07-.09-.24-.11-.33-.04-.34.22-.43.78-.61,1.12-.24.48-.49.94-.69,1.44-.2.5-.39,1-.5,1.53-.12.54-.12,1.09-.09,1.63.03.44.63.43.67,0,.12-1.05.43-2.06.86-3.03.2-.46.47-.89.66-1.36.15-.37.31-.96.02-1.3Z"/>
      <path d="M25.09,89.83c-.08-.12-.27-.17-.38-.05-.05.06-.11.1-.16.16-.08.1-.1.2-.15.31-.08.18-.19.35-.31.51-.23.31-.49.61-.71.93-.12.18-.23.36-.3.56-.04.11-.05.23-.06.34,0,0,0,0-.01,0-.18.11-.26.38-.36.56-.1.19-.2.38-.35.53-.34.34.18.86.53.53.29-.27.46-.62.64-.96.11-.05.2-.13.26-.24.09-.17.05-.36.12-.53.11-.28.36-.53.55-.75.22-.26.44-.53.6-.84.08-.16.17-.34.21-.51.05-.21,0-.38-.12-.56Z"/>
      <path d="M23.42,87.86s-.09-.02-.14-.01c-.01,0-.06,0-.09,0-.02,0-.04,0-.07,0-.05,0-.1,0-.14.03-.06.03-.11.07-.16.11-.17.14-.3.29-.44.46.04-.06-.08.09-.06.07-.04.05-.08.09-.12.14-.08.1-.17.2-.25.31-.17.22-.33.45-.48.68-.26.41-.51.79-.82,1.16-.3.36-.7.78-.55,1.29.07.23.33.34.54.22.11-.06.17-.19.18-.32,0,0,0,0,0,0,.01-.11.16-.24.23-.32.13-.15.26-.3.39-.45.29-.33.53-.69.77-1.06.23-.36.49-.71.75-1.04.19-.23.4-.53.48-.83.02-.03.03-.05.06-.08.09-.11.08-.32-.09-.36Z"/>
      <path d="M21.04,86.48c-.03-.06-.11-.11-.17-.1-.44.06-.62.5-.82.84-.22.36-.46.69-.73,1-.55.63-1.03,1.28-1.34,2.05-.16.39.52.68.68.29.31-.73.8-1.31,1.33-1.89.28-.31.52-.65.74-1.02.2-.34.51-.78.31-1.18Z"/>
      <path d="M19.44,84.31c-.27-.04-.47.11-.67.28-.19.17-.27.41-.47.58-.19.17-.41.3-.59.47-.12.11-.24.23-.35.35-.31.3-.6.62-.86.96-.24.32-.46.7-.47,1.11-.01.53.8.53.82,0,0-.01,0-.02,0-.02,0,0,0,0,0,0,.01-.04.02-.08.03-.12,0-.01,0-.03.01-.04,0,0,0,0,0,0,.02-.04.04-.07.06-.11.09-.16.2-.31.29-.42.24-.29.51-.56.79-.82.12-.12.24-.24.37-.35.18-.14.38-.26.56-.42.34-.32.57-.81.6-1.28,0-.07-.05-.15-.12-.16Z"/>
      <path d="M17.97,82.5c-.02-.09-.1-.17-.19-.19-.24-.06-.4.1-.58.23-.18.13-.32.27-.47.43-.28.32-.54.64-.8.97-.52.66-1.02,1.34-1.51,2.02-.25.35.32.79.6.46.52-.63,1.02-1.27,1.53-1.91.25-.31.51-.61.77-.91.15-.17.29-.33.42-.53.12-.18.28-.35.22-.59Z"/>
    </g>
  </g>
</svg>