<?xml version="1.0" encoding="UTF-8"?>
<svg id="Layer_2" data-name="Layer 2" xmlns="http://www.w3.org/2000/svg" viewBox="0 0 95.44 95.44">
  <defs>
    <style>
      .cls-1 {
        fill: #201522;
      }
    </style>
  </defs>
  <g id="Objects">
    <g>
      <path class="cls-1" d="M34.86,36.47l-6.63-5.39-6.66-5.36-.06.07,6.43,5.62,6.46,5.59c.94.82,1.88,1.64,2.82,2.45.17-.22.35-.43.53-.64-.97-.78-1.94-1.56-2.9-2.35Z"/>
      <path class="cls-1" d="M32.13,36.25l-7.99-5.46-8.02-5.41-.06.08,7.79,5.74,7.82,5.7c1.62,1.18,3.22,2.37,4.85,3.54.18-.28.37-.55.57-.81-1.65-1.14-3.31-2.24-4.96-3.37Z"/>
      <path class="cls-1" d="M36.47,60.58l-5.39,6.63-5.36,6.66.07.06,5.62-6.43,5.59-6.46c.82-.94,1.64-1.88,2.45-2.82-.22-.17-.43-.35-.64-.53-.78.97-1.56,1.94-2.35,2.9Z"/>
      <path class="cls-1" d="M27.3,35.37l-10.42-5.81-10.45-5.75-.06.11,10.21,6.18,10.24,6.12c3.01,1.79,5.99,3.65,9.04,5.37.19-.37.4-.72.62-1.07-3.02-1.78-6.11-3.43-9.17-5.15Z"/>
      <path class="cls-1" d="M30.35,39.19l-8.83-3.96-8.85-3.91-.04.09,8.69,4.27,8.71,4.22c1.8.87,3.59,1.76,5.39,2.63.13-.31.27-.6.42-.9-1.82-.82-3.66-1.62-5.48-2.44Z"/>
      <path class="cls-1" d="M36.94,31.64l-5.67-7.84-5.71-7.81-.08.06,5.39,8.04,5.43,8.01c1.12,1.65,2.23,3.32,3.36,4.98.26-.2.54-.39.81-.57-1.17-1.63-2.36-3.23-3.53-4.86Z"/>
      <path class="cls-1" d="M39.96,29.99l-4.19-8.72-4.24-8.7-.09.04,3.88,8.86,3.93,8.84c.81,1.83,1.61,3.66,2.43,5.49.29-.15.59-.29.9-.42-.86-1.81-1.75-3.6-2.61-5.4Z"/>
      <path class="cls-1" d="M44.75,28.6l-1.82-9.5-1.87-9.49-.1.02,1.48,9.56,1.53,9.55c.32,1.97.61,3.95.94,5.93.32-.07.65-.13.98-.17-.37-1.97-.77-3.93-1.14-5.89Z"/>
      <path class="cls-1" d="M36.21,26.81l-6.12-10.24-6.18-10.21-.1.06,5.75,10.45,5.81,10.42c1.71,3.06,3.36,6.15,5.15,9.17.35-.22.7-.43,1.07-.62-1.73-3.05-3.58-6.03-5.37-9.04Z"/>
      <path class="cls-1" d="M42.6,26.92l-2.93-10.3-2.98-10.29-.11.03,2.56,10.4,2.61,10.39c.66,2.61,1.28,5.23,1.97,7.83.35-.11.71-.2,1.08-.28-.7-2.6-1.47-5.18-2.21-7.77Z"/>
      <path class="cls-1" d="M29.67,40.73l-9.14-3.17-9.16-3.13-.03.09,9.02,3.5,9.04,3.45c1.87.71,3.73,1.45,5.6,2.15.1-.32.22-.63.34-.94-1.89-.66-3.78-1.3-5.67-1.96Z"/>
      <path class="cls-1" d="M42.2,31.55l-3.04-7.98-3.09-7.97-.08.03,2.76,8.09,2.8,8.07c.41,1.18.81,2.35,1.21,3.53.26-.1.52-.2.78-.28-.45-1.16-.9-2.32-1.34-3.48Z"/>
      <path class="cls-1" d="M31.55,53.24l-7.98,3.04-7.97,3.09.03.08,8.09-2.76,8.07-2.8c1.18-.41,2.35-.81,3.53-1.21-.1-.26-.2-.52-.28-.78-1.16.45-2.32.9-3.48,1.34Z"/>
      <path class="cls-1" d="M29.99,55.48l-8.72,4.19-8.7,4.24.04.09,8.86-3.88,8.84-3.93c1.83-.81,3.66-1.61,5.49-2.43-.15-.29-.29-.59-.42-.9-1.81.86-3.6,1.75-5.4,2.61Z"/>
      <path class="cls-1" d="M26.81,59.23l-10.24,6.12-10.21,6.18.06.11,10.45-5.75,10.42-5.81c3.06-1.71,6.15-3.37,9.17-5.15-.22-.35-.43-.7-.62-1.07-3.05,1.73-6.03,3.58-9.04,5.37Z"/>
      <path class="cls-1" d="M46.43,28.41l-.99-9.63-1.04-9.62h-.1s.65,9.66.65,9.66l.7,9.65c.15,2,.27,3.99.42,5.99.33-.04.66-.07.99-.09-.2-1.99-.42-3.98-.63-5.97Z"/>
      <path class="cls-1" d="M31.64,58.5l-7.84,5.67-7.81,5.71.06.08,8.04-5.39,8.01-5.43c1.65-1.12,3.32-2.23,4.98-3.36-.2-.26-.39-.54-.57-.81-1.63,1.17-3.23,2.36-4.86,3.53Z"/>
      <path class="cls-1" d="M32.64,59.85l-7.32,6.33-7.29,6.37.06.08,7.54-6.07,7.51-6.1c1.55-1.26,3.12-2.51,4.66-3.78-.22-.25-.43-.5-.64-.76-1.52,1.3-3.02,2.63-4.53,3.94Z"/>
      <path class="cls-1" d="M27.14,41.76l-10.39-2.61-10.4-2.56-.03.11,10.29,2.98,10.3,2.93c2.59.73,5.17,1.51,7.77,2.21.08-.36.17-.72.28-1.08-2.6-.69-5.22-1.31-7.83-1.97Z"/>
      <path class="cls-1" d="M28.49,45.58l-9.65-.73-9.65-.68v.1s9.61,1.07,9.61,1.07l9.62,1.02c1.99.21,3.98.44,5.97.64.02-.33.05-.66.09-.99-1.99-.16-3.99-.29-5.99-.44Z"/>
      <path class="cls-1" d="M30.95,44.41l-8.44-1.36-8.44-1.31-.02.09,8.38,1.65,8.39,1.61c1.22.24,2.44.48,3.67.72.04-.28.09-.55.14-.82-1.23-.19-2.46-.39-3.69-.58Z"/>
      <path class="cls-1" d="M28.41,49.01l-9.63.99-9.62,1.04v.1s9.66-.65,9.66-.65l9.65-.7c2-.15,3.99-.27,5.99-.42-.04-.33-.07-.66-.09-.99-1.99.2-3.98.42-5.97.63Z"/>
      <path class="cls-1" d="M26.92,52.84l-10.3,2.93-10.29,2.98.03.11,10.4-2.56,10.39-2.61c2.61-.66,5.23-1.28,7.83-1.97-.11-.35-.2-.71-.28-1.08-2.6.7-5.18,1.47-7.77,2.21Z"/>
      <path class="cls-1" d="M66.95,49.86l9.65.73,9.65.68v-.1s-9.61-1.07-9.61-1.07l-9.62-1.02c-1.99-.21-3.98-.44-5.97-.64-.02.33-.05.66-.09.99,1.99.16,3.99.29,5.99.44Z"/>
      <path class="cls-1" d="M35.59,32.64l-6.33-7.32-6.37-7.29-.08.06,6.07,7.54,6.1,7.51c1.26,1.55,2.51,3.12,3.78,4.66.25-.22.5-.43.76-.64-1.3-1.52-2.63-3.02-3.94-4.53Z"/>
      <path class="cls-1" d="M63.89,42.2l7.98-3.04,7.97-3.09-.03-.08-8.09,2.76-8.07,2.8c-1.18.41-2.35.81-3.53,1.21.1.26.2.52.28.78,1.16-.45,2.32-.9,3.48-1.34Z"/>
      <path class="cls-1" d="M67.03,46.43l9.62-.99,9.62-1.04v-.1s-9.66.65-9.66.65l-9.65.7c-2,.15-3.99.27-5.99.42.04.33.07.66.09.99,1.99-.2,3.98-.42,5.97-.62Z"/>
      <path class="cls-1" d="M57.55,38.68c1.9-1.91,3.75-3.87,5.63-5.79l7.46-7.69,7.42-7.73-.08-.08-7.73,7.42-7.69,7.46c-1.93,1.88-3.89,3.72-5.8,5.62.27.25.54.51.79.79Z"/>
      <path class="cls-1" d="M66.85,44.75l9.5-1.82,9.49-1.87-.02-.1-9.56,1.48-9.55,1.53c-1.97.32-3.95.61-5.93.94.07.32.13.65.17.98,1.97-.37,3.93-.77,5.89-1.14Z"/>
      <path class="cls-1" d="M68.52,42.6l10.3-2.93,10.29-2.98-.03-.11-10.4,2.56-10.39,2.61c-2.61.66-5.23,1.28-7.83,1.97.11.35.2.71.28,1.08,2.6-.7,5.18-1.47,7.77-2.21Z"/>
      <path class="cls-1" d="M48.34,34.38c.03-3.51-.09-7.01-.13-10.52l-.18-11.93-.24-11.93h-.12l-.24,11.93-.18,11.93c-.05,3.51-.17,7.01-.14,10.52.21,0,.41-.02.62-.02s.41,0,.62.02Z"/>
      <path class="cls-1" d="M61.06,48.34c3.51.03,7.01-.09,10.52-.13l11.93-.18,11.93-.24v-.12l-11.93-.24-11.93-.18c-3.51-.05-7.01-.17-10.52-.14,0,.21.02.41.02.62s0,.41-.02.62Z"/>
      <path class="cls-1" d="M38.68,37.89c-1.91-1.9-3.87-3.75-5.79-5.63l-7.69-7.46-7.73-7.42-.08.08,7.42,7.73,7.46,7.69c1.88,1.93,3.72,3.89,5.62,5.8.25-.27.51-.54.79-.79Z"/>
      <path class="cls-1" d="M56.76,57.55c1.91,1.9,3.87,3.75,5.79,5.63l7.69,7.46,7.73,7.42.08-.08-7.42-7.73-7.46-7.69c-1.88-1.93-3.72-3.89-5.62-5.8-.25.27-.51.54-.79.79Z"/>
      <path class="cls-1" d="M47.1,61.06c-.03,3.51.09,7.01.13,10.52l.18,11.93.24,11.93h.12l.24-11.93.18-11.93c.05-3.51.17-7.01.14-10.52-.21,0-.41.02-.62.02s-.41,0-.62-.02Z"/>
      <path class="cls-1" d="M34.38,47.1c-3.51-.03-7.01.09-10.52.13l-11.93.18-11.93.24v.12l11.93.24,11.93.18c3.51.05,7.01.17,10.52.14,0-.21-.02-.41-.02-.62s0-.41.02-.62Z"/>
      <path class="cls-1" d="M37.89,56.76c-1.9,1.91-3.75,3.87-5.63,5.79l-7.46,7.69-7.42,7.73.08.08,7.73-7.42,7.69-7.46c1.93-1.88,3.89-3.72,5.8-5.62-.27-.25-.54-.51-.79-.79Z"/>
      <path class="cls-1" d="M68.63,36.21l10.24-6.12,10.21-6.18-.06-.11-10.45,5.75-10.42,5.81c-3.06,1.71-6.15,3.37-9.17,5.15.22.35.43.7.62,1.07,3.05-1.72,6.03-3.58,9.04-5.37Z"/>
      <path class="cls-1" d="M54.71,29.67l3.17-9.14,3.13-9.16-.09-.03-3.5,9.02-3.45,9.04c-.71,1.87-1.45,3.73-2.15,5.6.32.1.63.22.94.34.66-1.89,1.3-3.78,1.96-5.67Z"/>
      <path class="cls-1" d="M65.45,39.96l8.72-4.19,8.7-4.24-.04-.09-8.86,3.88-8.84,3.93c-1.83.81-3.66,1.61-5.49,2.43.15.29.29.59.42.9,1.81-.86,3.6-1.75,5.4-2.61Z"/>
      <path class="cls-1" d="M53.69,27.14l2.61-10.39,2.56-10.4-.11-.03-2.98,10.29-2.93,10.3c-.73,2.59-1.51,5.17-2.21,7.77.36.08.72.17,1.08.28.69-2.6,1.31-5.22,1.97-7.83Z"/>
      <path class="cls-1" d="M51.03,30.95l1.36-8.44,1.31-8.44-.09-.02-1.65,8.38-1.61,8.39c-.24,1.22-.48,2.44-.71,3.66.28.04.55.09.82.14.19-1.23.39-2.46.58-3.69Z"/>
      <path class="cls-1" d="M60.07,27.3l5.81-10.42,5.75-10.45-.11-.06-6.18,10.21-6.12,10.24c-1.79,3.01-3.65,5.99-5.37,9.04.37.19.72.4,1.07.62,1.78-3.02,3.43-6.11,5.15-9.17Z"/>
      <path class="cls-1" d="M56.25,30.35l3.95-8.83,3.91-8.85-.09-.04-4.27,8.69-4.22,8.71c-.87,1.8-1.76,3.59-2.63,5.39.31.13.6.27.9.42.82-1.82,1.62-3.66,2.44-5.48Z"/>
      <path class="cls-1" d="M63.8,36.94l7.84-5.67,7.81-5.71-.06-.08-8.04,5.39-8.01,5.43c-1.65,1.12-3.32,2.23-4.98,3.36.2.26.39.54.57.81,1.63-1.17,3.23-2.36,4.86-3.53Z"/>
      <path class="cls-1" d="M49.86,28.49l.73-9.65.68-9.65h-.1s-1.07,9.61-1.07,9.61l-1.02,9.62c-.21,1.99-.44,3.98-.64,5.97.33.02.66.05.99.09.16-1.99.29-3.99.44-5.99Z"/>
      <path class="cls-1" d="M59.19,32.13l5.46-7.99,5.41-8.02-.08-.06-5.74,7.79-5.7,7.82c-1.18,1.62-2.37,3.22-3.54,4.85.28.18.55.37.81.57,1.14-1.65,2.24-3.31,3.37-4.96Z"/>
      <path class="cls-1" d="M58.97,34.86l5.39-6.63,5.36-6.66-.07-.06-5.62,6.43-5.59,6.46c-.82.94-1.64,1.88-2.45,2.82.22.17.43.35.64.53.78-.97,1.56-1.94,2.35-2.9Z"/>
      <path class="cls-1" d="M62.8,35.59l7.32-6.33,7.29-6.37-.06-.08-7.54,6.07-7.51,6.1c-1.55,1.26-3.12,2.51-4.66,3.78.22.25.43.5.64.76,1.52-1.3,3.02-2.63,4.53-3.94Z"/>
      <path class="cls-1" d="M28.6,50.69l-9.5,1.82-9.49,1.87.02.1,9.56-1.48,9.55-1.53c1.97-.32,3.95-.61,5.93-.94-.07-.32-.13-.65-.17-.98-1.97.37-3.93.77-5.89,1.14Z"/>
      <path class="cls-1" d="M59.85,62.8l6.33,7.32,6.37,7.29.08-.06-6.07-7.54-6.1-7.51c-1.26-1.55-2.51-3.12-3.78-4.66-.25.22-.5.43-.76.64,1.3,1.52,2.63,3.02,3.94,4.53Z"/>
      <path class="cls-1" d="M40.73,65.77l-3.17,9.14-3.13,9.16.09.03,3.5-9.02,3.45-9.04c.71-1.87,1.45-3.73,2.15-5.6-.32-.1-.63-.22-.94-.34-.66,1.89-1.3,3.78-1.96,5.67Z"/>
      <path class="cls-1" d="M58.5,63.8l5.67,7.84,5.71,7.81.08-.06-5.39-8.04-5.43-8.01c-1.12-1.65-2.23-3.32-3.36-4.98-.26.2-.54.39-.81.57,1.17,1.63,2.36,3.23,3.53,4.86Z"/>
      <path class="cls-1" d="M50.69,66.85l1.82,9.5,1.87,9.49.1-.02-1.48-9.56-1.53-9.55c-.32-1.97-.61-3.95-.94-5.93-.32.07-.65.13-.98.17.37,1.97.77,3.93,1.14,5.89Z"/>
      <path class="cls-1" d="M63.31,59.19l7.99,5.46,8.02,5.41.06-.08-7.79-5.74-7.82-5.7c-1.62-1.18-3.22-2.37-4.85-3.54-.18.28-.37.55-.57.81,1.65,1.14,3.31,2.24,4.96,3.37Z"/>
      <path class="cls-1" d="M44.41,64.49l-1.36,8.44-1.31,8.44.09.02,1.65-8.38,1.61-8.39c.24-1.22.48-2.44.71-3.67-.28-.04-.55-.09-.82-.14-.19,1.23-.39,2.46-.58,3.69Z"/>
      <path class="cls-1" d="M49.01,67.03l.99,9.63,1.04,9.62h.1s-.65-9.66-.65-9.66l-.7-9.65c-.15-2-.27-3.99-.42-5.99-.33.04-.66.07-.99.09.2,1.99.42,3.98.63,5.97Z"/>
      <path class="cls-1" d="M41.76,68.3l-2.61,10.39-2.56,10.4.11.03,2.98-10.29,2.93-10.3c.73-2.59,1.51-5.17,2.21-7.77-.36-.08-.72-.17-1.08-.28-.69,2.6-1.31,5.22-1.97,7.83Z"/>
      <path class="cls-1" d="M55.48,65.45l4.19,8.72,4.24,8.7.09-.04-3.88-8.86-3.93-8.84c-.81-1.83-1.61-3.66-2.43-5.49-.29.15-.59.29-.9.42.86,1.81,1.75,3.6,2.61,5.4Z"/>
      <path class="cls-1" d="M59.23,68.63l6.12,10.24,6.18,10.21.11-.06-5.75-10.45-5.81-10.42c-1.71-3.06-3.37-6.15-5.15-9.17-.35.22-.7.43-1.07.62,1.72,3.05,3.58,6.03,5.37,9.04Z"/>
      <path class="cls-1" d="M39.19,65.09l-3.95,8.83-3.91,8.85.09.04,4.27-8.69,4.22-8.71c.87-1.8,1.76-3.59,2.63-5.39-.31-.13-.6-.27-.9-.42-.82,1.82-1.62,3.66-2.44,5.48Z"/>
      <path class="cls-1" d="M60.58,58.97l6.63,5.39,6.66,5.36.06-.07-6.43-5.62-6.46-5.59c-.94-.82-1.88-1.64-2.82-2.45-.17.22-.35.43-.53.64.97.78,1.94,1.56,2.9,2.35Z"/>
      <path class="cls-1" d="M45.58,66.95l-.73,9.65-.68,9.65h.1s1.07-9.61,1.07-9.61l1.02-9.62c.21-1.99.44-3.98.64-5.97-.33-.02-.66-.05-.99-.09-.16,1.99-.29,3.99-.44,5.99Z"/>
      <path class="cls-1" d="M36.25,63.31l-5.46,7.99-5.41,8.02.08.06,5.74-7.79,5.7-7.82c1.18-1.62,2.37-3.22,3.54-4.85-.28-.18-.55-.37-.81-.57-1.14,1.65-2.24,3.31-3.37,4.96Z"/>
      <path class="cls-1" d="M68.14,60.07l10.42,5.81,10.45,5.75.06-.11-10.21-6.18-10.24-6.12c-3.01-1.79-5.99-3.65-9.04-5.37-.19.37-.4.72-.62,1.07,3.02,1.78,6.11,3.43,9.17,5.15Z"/>
      <path class="cls-1" d="M64.49,51.03l8.44,1.36,8.44,1.31.02-.09-8.38-1.65-8.39-1.61c-1.22-.24-2.44-.48-3.67-.71-.04.28-.09.55-.14.82,1.23.19,2.46.39,3.69.58Z"/>
      <path class="cls-1" d="M53.24,63.89l3.04,7.98,3.09,7.97.08-.03-2.76-8.09-2.8-8.07c-.41-1.18-.81-2.35-1.21-3.53-.26.1-.52.2-.78.28.45,1.16.9,2.32,1.34,3.48Z"/>
      <path class="cls-1" d="M52.84,68.52l2.93,10.3,2.98,10.29.11-.03-2.56-10.4-2.61-10.39c-.66-2.61-1.28-5.23-1.97-7.83-.35.11-.71.2-1.08.28.7,2.6,1.47,5.18,2.21,7.77Z"/>
      <path class="cls-1" d="M68.3,53.69l10.39,2.61,10.4,2.56.03-.11-10.29-2.98-10.3-2.93c-2.59-.73-5.17-1.51-7.77-2.21-.08.36-.17.72-.28,1.08,2.6.69,5.22,1.31,7.83,1.97Z"/>
      <path class="cls-1" d="M65.09,56.25l8.83,3.95,8.85,3.91.04-.09-8.69-4.27-8.71-4.22c-1.8-.87-3.59-1.76-5.39-2.63-.13.31-.27.6-.42.9,1.82.82,3.66,1.62,5.48,2.44Z"/>
      <path class="cls-1" d="M65.77,54.71l9.14,3.17,9.16,3.13.03-.09-9.02-3.5-9.04-3.45c-1.87-.71-3.73-1.45-5.6-2.15-.1.32-.22.63-.34.94,1.89.66,3.78,1.3,5.67,1.96Z"/>
      <path class="cls-1" d="M35.37,68.14l-5.81,10.42-5.75,10.45.1.06,6.18-10.21,6.12-10.24c1.79-3.01,3.65-5.99,5.37-9.04-.37-.19-.72-.4-1.07-.62-1.78,3.02-3.43,6.11-5.15,9.17Z"/>
    </g>
  </g>
</svg>