<?xml version="1.0" encoding="UTF-8"?>
<svg id="Layer_2" data-name="Layer 2" xmlns="http://www.w3.org/2000/svg" viewBox="0 0 107.5 108.44">
  <g id="OBJECTS">
    <path d="M3.77,56.55c-1.12,2.66-1.93,5.47-2.15,8.36-.26,3.29.36,6.7,2.03,9.55,1.62,2.85,4.29,5.19,7.48,5.99-3.17-.9-5.72-3.29-7.22-6.13-1.56-2.85-2.05-6.17-1.7-9.36.26-2.72,1.06-5.36,2.14-7.88.2.18.39.37.59.54.17,6.03,1.43,12.03,3.75,17.59,1.08,2.6,2.4,5.09,3.91,7.46.01,1.51.22,3.01.53,4.47.41,1.92,1,3.81,1.9,5.57.86,1.76,2.18,3.39,3.94,4.32.07.04.14.07.21.11.6,1.06,1.31,2.07,2.13,2.98,2.11,2.4,5.02,4,8.08,4.82,2.24.61,4.55.84,6.87.81.22.16.44.33.67.48,1.3.82,2.78,1.37,4.29,1.65,1.51.31,3.12.32,4.63-.08.96-.24,1.87-.59,2.75-1.01,1.37.5,2.77.93,4.22,1.23,2.52.51,5.16.57,7.71.07,2.55-.52,4.97-1.56,7.16-2.94,1.63-1.01,3.13-2.19,4.52-3.48.17-.07.35-.13.52-.2,1.71-.72,3.37-1.55,4.98-2.45.62.05,1.24.09,1.87.12,3.06.12,6.29-.24,9.12-1.72,2.82-1.44,5.08-3.8,6.68-6.47,1.3-2.17,2.22-4.54,2.86-6.97.78-.76,1.53-1.55,2.2-2.41,1.8-2.33,3.1-5.13,3.45-8.11.23-1.95.03-3.9-.42-5.77.31-.44.61-.88.89-1.34.32-.56.68-1.11.94-1.71.3-.58.57-1.17.8-1.78.46-1.22.8-2.48,1.03-3.76.91-5.13.03-10.44-2.02-15.14-.93-2.09-2.07-4.07-3.35-5.94-.09-.32-.2-.65-.32-.96-.76-2.05-1.93-3.88-3.31-5.54-.4-2.75-1.09-5.46-2.16-8.03-1.22-2.96-2.94-5.76-5.24-8.04-2.29-2.29-5.22-3.97-8.37-4.74-2.09-.53-4.22-.68-6.34-.64-.41-.44-.82-.87-1.24-1.3-2.73-2.78-5.78-5.37-9.37-7.06-1.79-.84-3.73-1.43-5.72-1.62-1.99-.21-4.02-.01-5.94.52-.31.09-.62.19-.93.3-2.87-.48-5.84-.29-8.64.48-3.23.88-6.23,2.45-8.91,4.4-2.68,1.96-5.07,4.29-7.14,6.87-.66.84-1.27,1.7-1.86,2.57-.09.04-.19.06-.29.1-2.97,1.16-5.76,2.9-7.96,5.24-.16.17-.3.36-.46.54-.93.44-1.85.91-2.75,1.42-2.42,1.39-4.71,3.11-6.54,5.27-1.83,2.16-3.17,4.72-4,7.41-.69,2.21-1.03,4.51-1.13,6.81-.99,1.04-1.84,2.23-2.42,3.57-.84,1.87-1,4.11-.32,6.08.65,1.95,1.96,3.54,3.35,4.9ZM4.23,42.49c.3-.29.61-.58.93-.84.83-.68,1.74-1.28,2.68-1.84-1.41,3.91-2.32,8.01-2.71,12.16-.6-2.79-.95-5.63-.94-8.48,0-.33.02-.67.04-1ZM19.8,21.3c-.14.14-.29.27-.43.41-1.95,1.94-3.72,4.06-5.32,6.3.87-2,1.98-3.89,3.35-5.57.79-.4,1.59-.77,2.4-1.13ZM29.35,15.14c1.3-.34,2.62-.61,3.96-.81-1.08.58-2.17,1.12-3.3,1.61-1.26.56-2.55,1.08-3.84,1.59.1-.16.21-.32.32-.48.94-.66,1.89-1.31,2.87-1.9ZM53.91,2.16c3.1.72,6.02,2.16,8.68,3.98,1.2.81,2.35,1.7,3.47,2.62-1.84-.79-3.71-1.53-5.64-2.12-2.64-.8-5.4-1.33-8.2-1.22-2.8.13-5.53,1.03-7.99,2.31-.14.07-.28.15-.42.23.18-.18.35-.37.53-.55,2.43-2.31,5.21-4.31,8.33-5.49.41.07.82.15,1.23.24ZM76.39,11.16c1.37,1.46,2.71,2.97,4.14,4.38-2.45-1.61-5.05-3.01-7.75-4.15.05,0,.1-.01.15-.02,1.15-.12,2.31-.2,3.46-.21ZM72.59,11.72c3.2,1.31,6.26,2.97,9.12,4.93.3.27.61.54.92.8,2.61,2.29,5.36,4.43,7.81,6.91.13.15.26.3.38.44-.5-.38-.99-.75-1.5-1.12.6.48,1.19.97,1.79,1.46.95,1.12,1.84,2.28,2.68,3.48-3.23-.3-6.18-1.84-8.8-3.66-2.67-1.86-5.07-4.07-7.41-6.34-2.32-2.28-4.62-4.61-6.99-6.85-.03-.03-.06-.06-.09-.09.49-.07.99-.13,1.48-.19.2.08.41.15.61.23ZM97.06,32.3c.02.2.06.4.08.6.04.37.06.75.09,1.12-1.52-2.93-3.32-5.71-5.4-8.28,1.49,1.26,2.94,2.57,4.28,3.99.24.25.47.51.69.77.1.57.18,1.15.25,1.72-.23-.24-.46-.49-.69-.72.24.27.47.54.7.81ZM100.95,37.39c.85,2.49.86,5.16.38,7.75-.59-2.5-1.36-4.95-2.34-7.32-.14-.34-.3-.67-.44-1.01-.02-.95-.06-1.91-.13-2.86.89,1.12,1.75,2.26,2.54,3.44ZM100.87,69.27c-.46.52-.94,1.03-1.42,1.52-.05-3.8-.22-7.58-.02-11.32.78,1.88,1.6,3.73,2.26,5.62.03.09.06.19.09.28-.25,1.31-.55,2.6-.91,3.89ZM101.81,65.47c.22.65.41,1.3.58,1.96-.45.6-.93,1.18-1.43,1.75.33-1.23.62-2.46.85-3.71ZM97.55,82.06c-.1.46-.23.92-.35,1.38-.83.77-1.72,1.48-2.65,2.13.92-1.74,1.58-3.62,2.01-5.52.6-1.09,1.17-2.2,1.68-3.33-.11,1.8-.31,3.58-.7,5.33ZM70.36,101.97c-5.22,1.83-10.76,2.75-16.28,2.73-.59,0-1.18-.03-1.77-.06.56-.37,1.11-.75,1.65-1.12,2.49-1.72,4.97-3.48,7.76-4.46,2.78-.97,5.81-1.01,8.79-.78,1.09.08,2.18.2,3.27.33-1.08,1.18-2.21,2.31-3.41,3.35ZM17.32,91.67c-.24-1.09-.4-2.2-.5-3.31.82.95,1.66,1.88,2.55,2.77,1.04,1.03,2.13,2.01,3.26,2.94.83,1.99,2.21,3.73,3.9,5.1-.69-.03-1.38-.1-2.06-.24-1.82-.37-3.56-1.08-5.14-2.03-.94-1.62-1.62-3.39-2.01-5.24ZM10.48,46.52c.07,3.42.31,6.84.46,10.24.08,1.64.13,3.28.14,4.93-1.34-1.39-2.84-2.59-4.28-3.81-.24-.7-.47-1.4-.68-2.1.01-.8.04-1.6.09-2.41,1.14-2.05,2.42-4.02,3.71-6,.19-.28.37-.57.56-.85ZM11.42,37.87c1.44-.75,2.86-1.53,4.27-2.37-.5,1.01-1.01,2.02-1.55,3.01-.99,1.86-2.07,3.67-3.19,5.47.05-2.02.18-4.03.46-6.03,0-.02,0-.05.01-.07ZM15.06,39c.82-1.5,1.58-3.01,2.33-4.54.92-.58,1.84-1.18,2.73-1.81,3.21-2.27,6.23-4.79,9.03-7.54,2.8-2.75,5.34-5.77,7.7-8.87.61-.8,1.23-1.59,1.84-2.38,5.13-.19,10.3.2,15.51.03,5.24-.05,10.32-1.26,15.39-2.07.17.16.34.31.52.47,2.42,2.19,4.71,4.5,7.12,6.72,2.4,2.21,4.89,4.37,7.63,6.17,2.69,1.76,5.71,3.23,8.95,3.44,1.27,1.81,2.42,3.71,3.44,5.68.34,4.73-.04,9.5-.48,14.29-1.17-5.6-1.28-11.36-1.48-17.09-.08,5.74-.11,11.54.89,17.25.12.65.26,1.3.4,1.95-.03.31-.06.61-.08.92-.27,3.14-.5,6.3-.47,9.47.02,3.17.25,6.31.29,9.44.02,1.09,0,2.18-.05,3.27-2.97,2.61-6.13,5.06-8.97,7.93-2.89,2.95-5.29,6.27-7.69,9.55-3.6.74-7.27,1.31-10.9,2.1-2.83.61-5.64,1.41-8.35,2.42-2.72.99-5.36,2.14-8.03,3.19-2.66,1.06-5.36,2.01-8.14,2.64-1.55.36-3.13.6-4.71.71-.04-.01-.07-.02-.11-.04-.19-.1-.38-.19-.58-.29.14.08.28.15.41.23-1.2-.4-2.39-.83-3.56-1.32-5.81-2.44-11.12-6.05-15.56-10.51-.48-.48-.94-.98-1.4-1.48-1.04-4.49-2.7-8.82-4.44-13.09.02-.08.03-.16.05-.24.38-1.91.73-3.88.63-5.89-.07-2.01-.75-4.03-1.91-5.68-.53-.76-1.12-1.45-1.73-2.11.02-1.73,0-3.45-.06-5.17-.1-3.64-.31-7.28-.3-10.91,1.46-2.22,2.88-4.48,4.13-6.84ZM35.82,14.04c.49-.04.97-.08,1.46-.11-.43.55-.86,1.1-1.29,1.65-2.37,3.08-4.87,6.03-7.64,8.72-2.77,2.69-5.75,5.17-8.92,7.38-.34.24-.68.46-1.02.69.34-.71.69-1.43,1.03-2.14,1.81-3.79,3.65-7.59,5.79-11.17,1.74-.69,3.48-1.39,5.2-2.16,1.26-.57,2.51-1.18,3.73-1.86.56-.32,1.12-.65,1.66-1ZM37.46,12.97c.07-.05.15-.1.22-.14.34-.23.69-.46,1.03-.7-.22.27-.44.54-.65.81-.2.01-.4.02-.6.03ZM95.53,79.77c-.27,1.22-.64,2.42-1.11,3.58-.98,1.46-2.05,2.87-3.18,4.22-1.82.92-3.73,1.64-5.71,2.23-1.41.43-2.84.79-4.28,1.11,2.17-2.92,4.36-5.8,6.9-8.35,2.5-2.55,5.3-4.82,8.04-7.21-.12,1.49-.32,2.97-.65,4.42ZM97.32,74.33c.35-.32.7-.64,1.05-.96-.02,1.03-.05,2.06-.11,3.09-.5,1.1-1.05,2.19-1.63,3.25.39-1.78.6-3.58.7-5.38ZM76.59,95.28c-.47.08-.94.17-1.41.25-3.09.5-6.22.85-9.34,1.45-3.12.58-6.16,1.53-9.13,2.59-3.96,1.41-7.86,3.03-11.87,4.17-1.22-.24-2.43-.55-3.62-.88,1.05-.12,2.09-.29,3.12-.51,2.85-.59,5.61-1.51,8.31-2.53,2.7-1.01,5.37-2.1,8.05-3.07,2.69-.98,5.43-1.74,8.23-2.33,3.19-.68,6.43-1.18,9.66-1.79-.27.37-.54.73-.82,1.1-.39.52-.78,1.04-1.18,1.55ZM11.06,63.07c-.02,1.6-.09,3.2-.24,4.79-1.16-2.68-2.3-5.36-3.34-8.09,1.27,1.05,2.5,2.11,3.57,3.29ZM11.25,63.27c.36.41.7.82,1.02,1.27,1.09,1.53,1.73,3.33,1.83,5.22.1,1.59-.11,3.21-.38,4.82-.91-2.17-1.86-4.33-2.8-6.48.18-1.6.28-3.2.33-4.81ZM16.59,82.77c-.02,1.24-.02,2.48.02,3.73-1.21-1.51-2.32-3.1-3.34-4.74,0-.15,0-.29.02-.44.14-1.55.45-3.08.77-4.62.89,2,1.74,4.03,2.52,6.07ZM16.6,82.79c.76,1.99,1.44,4,2.01,6.05-.66-.73-1.3-1.48-1.92-2.25-.07-1.27-.09-2.54-.09-3.8ZM22.7,94.13c2.17,1.78,4.49,3.37,6.93,4.76-.86.21-1.73.31-2.61.3-1.81-1.31-3.35-3.03-4.32-5.06ZM29.65,98.9c.62.35,1.24.69,1.87,1.01.37.64.75,1.28,1.16,1.91-1.76-.45-3.44-1.16-4.98-2.14-.19-.13-.38-.26-.57-.4.85-.03,1.69-.15,2.51-.38ZM31.58,99.94c1.23.63,2.47,1.21,3.75,1.73.62.25,1.25.49,1.88.71-.5-.01-.99-.02-1.49-.06-.96-.08-1.9-.23-2.84-.46-.46-.62-.89-1.27-1.3-1.92ZM35.66,102.9c1.15.13,2.3.16,3.45.12,1.03.32,2.06.62,3.11.88.23.12.46.24.69.36-1.36.33-2.73.59-4.13.76-.91.1-1.83.16-2.75.18-1-.77-1.87-1.7-2.66-2.7.76.18,1.53.32,2.3.41ZM43.02,104.07c.12.03.24.05.36.08-.04.01-.09.02-.13.03-.08-.04-.15-.07-.23-.11ZM44.78,104.44c1.79.33,3.59.56,5.4.7-.63.39-1.28.75-1.94,1.08-1.38-.47-2.73-1.02-4.07-1.61.2-.05.4-.11.6-.16ZM46.32,104.01c3.61-1.09,7.13-2.49,10.66-3.71.2-.07.4-.13.61-.2-1.41.87-2.75,1.85-4.08,2.79-.8.57-1.61,1.14-2.43,1.69-1.59-.11-3.18-.3-4.75-.56ZM70.58,97.25c-.24-.02-.47-.03-.71-.04,1.81-.25,3.64-.48,5.46-.76.12-.02.25-.04.37-.06-.35.43-.7.84-1.06,1.26-1.34-.14-2.7-.29-4.06-.39ZM77.29,96.12c2.44-.44,4.87-1.04,7.2-1.97-1.77,1.41-3.63,2.7-5.58,3.85-.99-.05-1.99-.12-2.99-.22.46-.55.92-1.1,1.37-1.65ZM84.19,93.18c-1.92.79-3.94,1.35-5.99,1.78.15-.19.3-.38.45-.58.53-.69,1.04-1.38,1.56-2.07,1.9-.39,3.8-.82,5.67-1.38,1.16-.33,2.3-.74,3.42-1.2-.31.33-.61.66-.93.97-.27.27-.56.53-.84.8-1.06.65-2.18,1.21-3.33,1.68ZM88.49,90.83c.4-.4.79-.82,1.18-1.24.3-.13.59-.26.88-.4-.69.66-1.44,1.27-2.24,1.81.06-.06.12-.12.18-.18ZM91.6,87.38c.91-1.11,1.77-2.27,2.58-3.46-.45,1.02-.99,2-1.63,2.92-.32.18-.63.37-.96.54ZM99.46,72.34s0,0,0,0c.24-.23.46-.48.7-.71-.22.66-.45,1.32-.7,1.98,0-.15,0-.31,0-.46,0-.27,0-.53,0-.8ZM98.38,71.86c-.33.31-.65.62-.98.92.02-.76.02-1.52.01-2.27-.04-3.17-.25-6.31-.26-9.43-.01-2.36.12-4.72.3-7.08.31,1.05.65,2.09,1.04,3.11.04.12.09.23.14.35-.53,4.81-.25,9.64-.24,14.4ZM98.98,54.9c-.06.31-.09.62-.14.93-.47-1.25-.88-2.51-1.23-3.8,0-.11.02-.21.03-.32.43-4.84.99-9.74.92-14.66.12.27.24.53.36.8,1,2.4,1.8,4.88,2.4,7.42-.05.26-.1.52-.16.78-.62,2.93-1.65,5.81-2.17,8.85ZM84.04,18.34c1.51,1.18,2.97,2.43,4.33,3.79.58.58,1.14,1.17,1.69,1.77-1.9-1.96-3.98-3.75-6.02-5.56ZM69.51,10.75c-.08-.08-.17-.16-.25-.23.19.06.38.12.56.18-.1.02-.21.03-.31.05ZM68.57,10.9c-4.82.82-9.55,1.9-14.4,1.96-4.86.17-9.77-.15-14.69.02.77-.97,1.56-1.91,2.37-2.84.21-.14.43-.28.64-.41,3.78-.96,7.68-1.46,11.58-1.49,4.53-.02,9.07.61,13.44,1.84.35.3.7.61,1.05.92ZM54.08,7.54c-3.2-.01-6.4.29-9.54.89.02,0,.03-.02.05-.03,2.38-1.29,4.97-2.21,7.67-2.39,2.7-.2,5.43.23,8.07.94,2.03.56,4.01,1.26,5.99,2.01.14.11.27.23.41.34-4.11-1.13-8.38-1.73-12.65-1.76ZM37.17,12.05c-.58.38-1.17.74-1.76,1.1-.04,0-.09,0-.13.01-1.09.12-2.18.29-3.27.49,1.19-.62,2.4-1.21,3.63-1.72,1.3-.55,2.63-1.03,3.98-1.46-.82.53-1.64,1.06-2.45,1.59ZM20.09,22.43c.8-.8,1.64-1.57,2.49-2.32.07-.03.14-.06.21-.09.23-.09.46-.19.69-.28-1.84,3.26-3.44,6.65-5.03,10-.6,1.26-1.19,2.52-1.79,3.77-1.63,1.03-3.3,2-5.01,2.92.23-1.39.53-2.78.9-4.13,2.08-3.6,4.61-6.94,7.55-9.89ZM10.99,36.8c-.31.17-.63.33-.94.5.42-.97.87-1.93,1.35-2.87-.16.79-.29,1.58-.41,2.37ZM10,38.61c.27-.13.53-.28.8-.42-.25,2.2-.35,4.39-.35,6.59-.44.7-.88,1.39-1.32,2.09-.95,1.5-1.89,3.01-2.77,4.56.44-4.27,1.45-8.47,3.01-12.48.21-.11.42-.23.63-.34ZM4.91,56.2s-.08-.07-.11-.1c.04-.09.08-.18.12-.27,0,.12,0,.25-.01.37ZM6.15,58.76c.12.32.24.63.36.95,1.29,3.23,2.72,6.39,4.16,9.53-.22,1.81-.55,3.61-1.03,5.39-2.06-5.04-3.23-10.43-3.49-15.86ZM9.65,74.65c.49-1.72.85-3.47,1.1-5.24.83,1.8,1.65,3.59,2.46,5.39.11.25.22.5.34.75-.32,1.73-.68,3.47-.85,5.26-1.13-1.93-2.14-3.93-2.99-6-.02-.05-.04-.1-.06-.15ZM15.4,92.53c-.83-1.73-1.37-3.6-1.73-5.49-.2-1.1-.34-2.21-.4-3.32,1.06,1.57,2.21,3.07,3.44,4.51.09,1.16.23,2.32.46,3.47.33,1.72.93,3.4,1.75,4.96-1.59-.96-2.73-2.46-3.51-4.13ZM29.5,104.5c-3.01-.75-5.87-2.27-7.97-4.59-.72-.78-1.36-1.63-1.92-2.53,1.51.8,3.14,1.4,4.82,1.69.72.13,1.46.18,2.2.19.29.23.59.45.89.66,1.68,1.16,3.58,1.98,5.56,2.49.72,1.02,1.53,1.96,2.47,2.78-2.04.01-4.08-.19-6.06-.7ZM45.69,107.2c-1.43.39-2.92.44-4.39.19-1.48-.22-2.91-.7-4.2-1.45-.1-.06-.19-.13-.29-.19.68-.02,1.35-.06,2.03-.13,1.68-.18,3.32-.5,4.95-.91,1.29.64,2.6,1.23,3.94,1.76-.66.29-1.34.54-2.04.73ZM67.2,104.38c-2.08,1.38-4.39,2.43-6.82,2.98-2.44.53-4.98.53-7.45.09-1.28-.22-2.54-.53-3.77-.92.77-.39,1.52-.84,2.25-1.3.89.04,1.78.07,2.67.07,5.24-.04,10.46-.93,15.41-2.61-.74.6-1.5,1.17-2.29,1.7ZM72.94,100.97c.73-.71,1.44-1.45,2.12-2.21.69.08,1.39.15,2.09.21-1.37.73-2.78,1.4-4.22,2ZM94.37,90.33c-1.52,2.52-3.6,4.72-6.19,6.06-2.58,1.37-5.58,1.74-8.55,1.64-.07,0-.14,0-.21-.01,2.02-1.25,3.95-2.64,5.77-4.17,2.74-1.18,5.32-2.86,7.28-5.18.23-.27.44-.54.65-.82,1.22-.71,2.39-1.51,3.48-2.4-.58,1.7-1.3,3.35-2.23,4.88ZM102.86,73.34c-.34,2.76-1.56,5.36-3.28,7.56-.26.34-.56.65-.84.97.53-2.66.68-5.37.71-8.04.29-.77.57-1.54.82-2.32.84-.87,1.65-1.78,2.4-2.74.28,1.52.37,3.06.18,4.58ZM104.58,44.18c1.9,4.65,2.63,9.84,1.65,14.74-.48,2.45-1.44,4.77-2.74,6.88-.12.19-.25.37-.37.55-.16-.53-.34-1.06-.53-1.57-.14-.39-.3-.77-.46-1.16.35-2.39.53-4.8.53-7.21,0,2.39-.2,4.78-.55,7.15-.81-2-1.71-3.94-2.53-5.9.08-.88.18-1.75.31-2.62.41-2.68,1.23-5.31,1.82-8.03.62,3.09.93,6.24.95,9.4,0-3.19-.31-6.38-.92-9.5.05-.24.11-.48.16-.72.48-2.31.62-4.77.14-7.11.98,1.63,1.85,3.33,2.55,5.1ZM100.57,36.35c-.69-.91-1.42-1.8-2.17-2.66-.02-.31-.04-.62-.07-.92-.02-.15-.05-.31-.07-.46.93,1.26,1.72,2.61,2.31,4.04ZM82.11,11.78c2.97.74,5.68,2.3,7.84,4.47,2.17,2.16,3.8,4.83,4.97,7.68.78,1.91,1.35,3.9,1.75,5.92-.11-.12-.22-.23-.34-.35-1.52-1.54-3.18-2.92-4.89-4.24-.94-1.13-1.92-2.22-2.95-3.26-1.96-1.97-4.09-3.76-6.36-5.38-1.83-1.69-3.44-3.6-5.1-5.47,1.72.02,3.42.2,5.08.62ZM59.63.9c1.89.16,3.75.69,5.49,1.48,3.5,1.58,6.52,4.09,9.3,6.78.32.3.63.62.95.93-.85.04-1.71.1-2.55.2-.71.08-1.42.18-2.12.28-.72-.27-1.45-.51-2.19-.74-1.72-1.56-3.5-3.07-5.41-4.41-2.54-1.78-5.35-3.29-8.4-4.1,1.61-.39,3.28-.55,4.94-.4ZM29.08,13.39c1.99-2.52,4.3-4.8,6.88-6.7,2.58-1.9,5.45-3.42,8.52-4.27,2.03-.57,4.15-.81,6.25-.7-2.64,1.22-5.02,2.96-7.1,4.94-.86.82-1.67,1.68-2.46,2.56-1.99.53-3.94,1.17-5.85,1.95-2.23.91-4.39,1.98-6.46,3.21-.22.06-.43.11-.65.17.28-.39.56-.78.86-1.15ZM25.45,16.47c-.06.09-.12.17-.17.26-1.02.73-2.01,1.51-2.98,2.32-.92.37-1.84.75-2.76,1.15,1.74-1.57,3.75-2.8,5.9-3.72ZM9.2,28.55c1.74-2.02,3.88-3.7,6.21-5.05.16-.09.32-.17.47-.26-1.16,1.68-2.12,3.5-2.85,5.39-.23.6-.43,1.21-.62,1.82-1.43,2.28-2.68,4.67-3.72,7.16-.07.17-.13.34-.2.51-1.4.77-2.78,1.62-4.05,2.66-.04.03-.08.08-.12.11.42-4.51,1.92-8.94,4.87-12.35ZM1.74,46c.35-.81.83-1.57,1.38-2.28.03,3.66.62,7.28,1.61,10.77-.15.31-.31.61-.46.92-.02.04-.03.07-.05.11-1.22-1.24-2.27-2.63-2.79-4.22-.58-1.73-.44-3.64.31-5.32Z"/>
  </g>
</svg>