<?xml version="1.0" encoding="UTF-8"?>
<svg id="Layer_2" data-name="Layer 2" xmlns="http://www.w3.org/2000/svg" viewBox="0 0 207.93 207.24">
  <defs>
    <style>
      .cls-1 {
        fill: #201522;
      }
    </style>
  </defs>
  <g id="Objects">
    <path class="cls-1" d="M197.42,120.97l-.25-.56c-.95-2.13-1.94-4.34-2.98-6.14-1.24-2.15-2.14-3.02-2.81-3.31.2-2.42.31-4.87.31-7.34,0-6.55-.73-12.94-2.1-19.08,1.55,1.7,3.11,3.26,4.93,4.82,2.29,1.95,5.65,4.36,7.39,4.98l6.01,2.15-5.13-3.78c-1.48-1.09-3.31-2.92-5.07-4.74l-.44-.46c-1.62-1.67-3.29-3.4-4.88-4.74-1.9-1.6-3.04-2.1-3.77-2.15-2.36-8.69-6.02-16.84-10.77-24.24,2.06,1.08,4.07,2.02,6.34,2.87,2.8,1.04,6.76,2.15,8.62,2.15h.03l6.37-.04-6.12-1.8c-1.77-.52-4.22-1.67-6.39-2.72l-.53-.26c-2.11-1.02-4.29-2.08-6.25-2.8-2.37-.87-3.62-.94-4.31-.72-5.14-7.26-11.35-13.71-18.41-19.11,2.32.31,4.54.51,6.97.53.1,0,.21,0,.32,0,2.97,0,6.87-.32,8.54-.94l5.97-2.22-6.36.4c-1.84.12-4.42-.11-6.93-.37l-.62-.06c-2.32-.24-4.72-.49-6.8-.49,0,0-.01,0-.02,0-2.51,0-3.71.36-4.28.8-7.2-5.02-15.19-8.99-23.74-11.68,2.25-.5,4.38-1.06,6.64-1.86,2.83-1.01,6.6-2.72,8-3.91l4.86-4.13-5.84,2.55c-1.69.74-4.19,1.41-6.64,2.03l-.61.15c-2.26.57-4.6,1.15-6.55,1.86-2.33.85-3.34,1.58-3.74,2.19-7.16-1.89-14.67-2.91-22.41-2.91-1.32,0-2.63.03-3.93.09,1.95-1.24,3.77-2.5,5.62-4.03,2.32-1.91,5.27-4.81,6.18-6.41l3.15-5.54-4.61,4.4c-1.33,1.27-3.45,2.75-5.55,4.17l-.52.35c-1.93,1.31-3.93,2.66-5.52,3.99-1.91,1.6-2.6,2.64-2.77,3.34-9.03.82-17.68,3-25.72,6.36,1.41-1.83,2.68-3.64,3.9-5.71,1.52-2.59,3.31-6.32,3.62-8.14l1.07-6.29-2.83,5.71c-.81,1.64-2.3,3.77-3.78,5.82l-.36.5c-1.37,1.89-2.79,3.85-3.83,5.65-1.25,2.16-1.55,3.38-1.46,4.1-8.09,3.82-15.51,8.85-22.02,14.84.71-2.23,1.29-4.39,1.74-6.78.54-2.95.95-7.07.61-8.89l-1.15-6.27-.71,6.34c-.2,1.82-.87,4.33-1.56,6.76l-.17.6c-.64,2.24-1.3,4.56-1.66,6.61-.44,2.5-.3,3.74.04,4.38-6.23,6.27-11.51,13.48-15.63,21.39-.1-2.32-.28-4.53-.68-6.9-.5-2.96-1.53-6.97-2.46-8.56l-3.22-5.5,1.5,6.2c.43,1.79.66,4.37.84,6.89l.04.62c.17,2.33.34,4.73.7,6.78.43,2.46.98,3.58,1.51,4.08-3.67,7.91-6.2,16.46-7.36,25.43-.88-2.13-1.81-4.13-2.99-6.22-1.48-2.61-3.82-6.03-5.24-7.2l-4.91-4.07,3.53,5.31c1.02,1.53,2.11,3.88,3.15,6.19l.24.54c.96,2.14,1.94,4.35,2.99,6.16,1.24,2.15,2.14,3.02,2.81,3.31-.2,2.42-.31,4.87-.31,7.34,0,6.55.73,12.94,2.1,19.08-1.55-1.7-3.11-3.26-4.93-4.82-2.29-1.95-5.65-4.36-7.39-4.98l-6.01-2.15,5.13,3.78c1.48,1.09,3.31,2.92,5.07,4.74l.42.43c1.63,1.68,3.31,3.42,4.91,4.76,1.9,1.6,3.04,2.1,3.77,2.15,2.36,8.69,6.02,16.84,10.77,24.24-2.06-1.08-4.07-2.02-6.34-2.87-2.8-1.04-6.76-2.15-8.62-2.15h-.03l-6.37.04,6.12,1.8c1.76.52,4.11,1.61,6.39,2.72l.55.27c2.1,1.02,4.28,2.08,6.23,2.79,1.67.61,2.78.83,3.53.83.32,0,.57-.04.77-.11,5.14,7.26,11.35,13.71,18.41,19.11-2.32-.31-4.54-.51-6.97-.53-3-.02-7.13.3-8.86.94l-5.99,2.22,6.37-.4c1.83-.11,4.41.11,6.93.37l.61.06c2.32.24,4.72.49,6.8.49h.02c2.51,0,3.7-.36,4.28-.8,7.2,5.02,15.19,8.99,23.74,11.68-2.25.5-4.38,1.06-6.64,1.86-2.83,1-6.6,2.72-8,3.91l-4.86,4.13,5.84-2.55c1.68-.74,4.19-1.41,6.64-2.03l.61-.15c2.26-.57,4.59-1.15,6.55-1.86,2.33-.85,3.34-1.58,3.74-2.19,7.16,1.89,14.67,2.91,22.41,2.91,1.32,0,2.63-.03,3.93-.09-1.95,1.24-3.76,2.5-5.62,4.03-2.32,1.91-5.27,4.81-6.18,6.41l-3.15,5.54,4.61-4.4c1.34-1.27,3.55-2.83,5.55-4.17l.51-.35c1.93-1.31,3.93-2.66,5.52-4,1.91-1.6,2.6-2.63,2.77-3.34,9.03-.82,17.68-3,25.72-6.36-1.41,1.83-2.68,3.64-3.9,5.71-1.52,2.59-3.31,6.32-3.62,8.14l-1.07,6.29,2.83-5.72c.81-1.64,2.3-3.77,3.78-5.82l.37-.51c1.37-1.89,2.78-3.84,3.82-5.64,1.25-2.16,1.55-3.38,1.46-4.1,8.09-3.82,15.51-8.85,22.02-14.84-.71,2.23-1.29,4.39-1.74,6.78-.54,2.96-.95,7.07-.61,8.89l1.15,6.27.71-6.33c.2-1.83.87-4.33,1.57-6.76l.17-.61c.64-2.24,1.3-4.55,1.66-6.6.44-2.5.3-3.74-.04-4.38,6.23-6.27,11.51-13.48,15.63-21.39.1,2.32.28,4.52.68,6.9.5,2.96,1.53,6.97,2.46,8.56l3.22,5.51-1.5-6.2c-.43-1.79-.66-4.37-.84-6.89l-.05-.62c-.17-2.33-.34-4.73-.7-6.78-.43-2.46-.98-3.58-1.52-4.07,3.67-7.91,6.2-16.46,7.37-25.43.88,2.13,1.81,4.13,2.99,6.22,1.48,2.61,3.82,6.03,5.24,7.2l4.91,4.07-3.53-5.31c-1.02-1.53-2.11-3.88-3.15-6.19ZM81.9,186.96c-.08-.75-.47-1.86-1.46-3.56-1.04-1.8-2.46-3.75-3.83-5.64l-.36-.5c-1.48-2.05-2.97-4.17-3.78-5.82l-2.83-5.71,1.07,6.29c.31,1.82,2.09,5.55,3.62,8.14,1.23,2.1,2.52,3.92,3.95,5.78-8.48-2.65-16.4-6.6-23.54-11.59.17-.74.17-1.91-.16-3.8-.36-2.05-1.03-4.38-1.67-6.63l-.17-.58c-.69-2.43-1.36-4.94-1.56-6.76l-.71-6.34-1.15,6.28c-.33,1.81.07,5.93.61,8.89.44,2.36,1.01,4.49,1.71,6.69-6.95-5.33-13.06-11.69-18.12-18.85.41-.63.81-1.73,1.14-3.62.36-2.05.53-4.45.7-6.78l.04-.62c.18-2.52.41-5.11.84-6.89l1.5-6.2-3.22,5.5c-.93,1.59-1.96,5.6-2.46,8.56-.4,2.37-.58,4.57-.68,6.87-4.68-7.29-8.3-15.32-10.62-23.89.61-.45,1.37-1.34,2.35-3.04,1.04-1.81,2.03-4.01,2.98-6.15l.25-.55c1.03-2.31,2.13-4.66,3.15-6.19l3.53-5.31-4.91,4.07c-1.42,1.18-3.76,4.59-5.24,7.2-1.19,2.11-2.13,4.12-3.01,6.28-1.36-6.08-2.11-12.39-2.11-18.87,0-2.45.13-4.87.33-7.26.72-.22,1.75-.8,3.24-2.05,1.6-1.34,3.28-3.08,4.91-4.77l.41-.42c1.76-1.82,3.6-3.65,5.08-4.74l5.13-3.78-6,2.14c-1.74.62-5.1,3.03-7.39,4.97-1.84,1.57-3.4,3.14-4.97,4.86,1.14-8.88,3.63-17.33,7.27-25.16.07,0,.13.01.2.01.75,0,1.87-.22,3.54-.83,1.95-.71,4.12-1.76,6.21-2.78l.57-.28c2.16-1.05,4.61-2.19,6.39-2.72l6.12-1.8-6.38-.04c-1.84,0-5.83,1.1-8.65,2.15-2.26.84-4.26,1.78-6.32,2.86,4.06-7.82,9.27-14.94,15.43-21.14.69.29,1.84.5,3.75.5h.02c2.08,0,4.47-.25,6.79-.49l.63-.06c2.52-.26,5.1-.48,6.93-.37l6.36.4-5.98-2.22c-1.73-.64-5.83-.96-8.86-.94-2.4.02-4.6.22-6.88.52,6.41-5.9,13.71-10.84,21.68-14.6.55.52,1.56,1.11,3.39,1.78,1.95.71,4.29,1.3,6.55,1.86l.61.15c2.45.62,4.96,1.29,6.64,2.03l5.85,2.56-4.86-4.13c-1.41-1.19-5.17-2.91-8-3.91-2.28-.81-4.44-1.38-6.72-1.88,7.95-3.33,16.5-5.49,25.44-6.29.34.68,1.08,1.58,2.58,2.84,1.59,1.34,3.59,2.69,5.52,3.99l.52.35c2.1,1.42,4.22,2.91,5.55,4.17l4.61,4.4-3.15-5.54c-.91-1.6-3.87-4.5-6.18-6.41-1.87-1.54-3.7-2.82-5.67-4.06,1.32-.06,2.65-.1,3.98-.1,7.63,0,15.02,1.01,22.07,2.87.08.75.47,1.86,1.46,3.56,1.04,1.8,2.45,3.75,3.82,5.64l.37.51c1.48,2.05,2.97,4.17,3.78,5.82l2.83,5.71-1.07-6.28c-.31-1.82-2.09-5.55-3.62-8.14-1.23-2.1-2.52-3.92-3.95-5.78,8.48,2.65,16.4,6.6,23.54,11.59-.17.74-.17,1.91.16,3.8.36,2.05,1.03,4.38,1.67,6.63l.16.58c.69,2.43,1.36,4.94,1.56,6.76l.71,6.34,1.15-6.28c.33-1.81-.07-5.93-.61-8.89-.44-2.36-1.01-4.49-1.71-6.69,6.95,5.33,13.06,11.69,18.12,18.85-.41.63-.81,1.73-1.14,3.62-.36,2.05-.53,4.45-.7,6.78l-.04.62c-.18,2.52-.41,5.1-.84,6.89l-1.5,6.2,3.22-5.5c.93-1.59,1.96-5.6,2.46-8.56.4-2.37.58-4.57.68-6.87,4.68,7.29,8.3,15.32,10.62,23.89-.61.45-1.37,1.34-2.35,3.04-1.04,1.81-2.03,4.01-2.98,6.15l-.25.55c-1.03,2.31-2.13,4.66-3.15,6.19l-3.53,5.31,4.91-4.07c1.42-1.18,3.76-4.59,5.24-7.2,1.19-2.11,2.13-4.12,3.01-6.28,1.36,6.08,2.11,12.39,2.11,18.87,0,2.45-.13,4.87-.33,7.26-.72.21-1.74.79-3.24,2.05-1.6,1.34-3.28,3.08-4.91,4.77l-.41.42c-1.76,1.82-3.6,3.65-5.08,4.74l-5.13,3.78,6-2.14c1.74-.62,5.1-3.03,7.39-4.97,1.84-1.57,3.4-3.14,4.97-4.86-1.14,8.88-3.63,17.33-7.26,25.16-.75-.04-1.91.15-3.74.82-1.95.71-4.12,1.76-6.21,2.78l-.57.28c-2.28,1.1-4.63,2.2-6.39,2.72l-6.13,1.8,6.39.04h.03c1.86,0,5.82-1.1,8.62-2.15,2.26-.84,4.26-1.78,6.32-2.86-4.06,7.82-9.27,14.94-15.43,21.14-.69-.29-1.84-.5-3.75-.5h-.02c-2.08,0-4.48.25-6.81.49l-.61.06c-2.52.26-5.11.48-6.93.37l-6.36-.4,5.98,2.22c1.67.62,5.57.94,8.54.94.11,0,.21,0,.32,0,2.4-.02,4.6-.22,6.88-.52-6.41,5.9-13.71,10.84-21.68,14.6-.55-.52-1.56-1.11-3.39-1.78-1.95-.71-4.29-1.3-6.55-1.86l-.61-.15c-2.46-.62-4.96-1.29-6.64-2.03l-5.84-2.55,4.86,4.13c1.4,1.19,5.17,2.91,8,3.91,2.29.81,4.44,1.38,6.72,1.88-7.95,3.33-16.5,5.49-25.44,6.29-.34-.68-1.08-1.58-2.58-2.84-1.59-1.34-3.59-2.69-5.52-4l-.51-.35c-2.1-1.42-4.22-2.91-5.55-4.17l-4.61-4.4,3.15,5.54c.91,1.6,3.87,4.5,6.18,6.42,1.87,1.54,3.7,2.81,5.67,4.06-1.32.06-2.65.1-3.99.1-7.63,0-15.02-1.01-22.07-2.87Z"/>
  </g>
</svg>