<?xml version="1.0" encoding="UTF-8"?>
<svg id="Layer_2" data-name="Layer 2" xmlns="http://www.w3.org/2000/svg" viewBox="0 0 102.36 103.78">
  <g id="OBJECTS">
    <g>
      <path d="M5.8,64.95c-.28-.17-.52-.4-.73-.66-.25-.31-.48-.72-.83-.99-.27-.21-.8-.2-.87.23,0,.06-.02.12-.04.18,0,.01,0,.02,0,.02,0,0,0,.01-.01.02-.04.07-.09.13-.13.2-.09.13-.19.27-.23.43-.04.16-.04.34-.07.51-.04.26-.1.53-.17.78-.07.25-.17.49-.25.74-.07.22-.11.46-.13.69-.02.24-.03.47-.08.7-.05.27-.1.54-.08.81.03.49.72.49.76,0,.02-.24.12-.46.19-.69.08-.23.1-.46.15-.69.08-.48.31-.91.44-1.37.07-.24.12-.49.16-.74.02-.13.04-.26.06-.39,0-.02,0-.03,0-.05,0-.01.01-.02.02-.03.09.14.17.27.27.39.23.29.51.54.81.76.24.18.5.31.76.47.27.17.43.25.55.5.21.45.98.23.94-.26-.07-.82-.88-1.17-1.49-1.56Z"/>
      <path d="M6.08,60.88c-.49-.54-.98-1.1-1.55-1.55-.58-.45-1.08-1-1.67-1.43-.26-.19-.67,0-.74.3-.11.43-.36.82-.45,1.26-.05.23-.05.46-.05.69,0,.22-.05.4-.14.61-.19.47-.42.92-.58,1.4-.15.43-.31.84-.23,1.3.09.49.89.38.86-.12-.02-.35.21-.76.34-1.08.2-.46.43-.91.61-1.37.15-.4.07-.8.16-1.21.04-.18.11-.34.18-.51.09.09.17.17.26.26.25.24.52.45.79.67.56.44.98,1.01,1.5,1.49.48.44,1.14-.23.71-.71Z"/>
      <path d="M46.87,3.53c-.36-.27-.81-.36-1.24-.43-.55-.09-1.05-.33-1.57-.52-1.07-.4-2.19-.56-3.32-.55-.75,0-.75,1.15,0,1.16,1.02.01,1.99.18,2.95.55.49.19.96.43,1.48.52,0,0,0,0,0,0-.02.02-.04.04-.06.05-.41.39-.87.73-1.31,1.08-.43.34-.93.59-1.36.93-.09.07-.18.15-.27.22,0,0-.02.01-.03.02-.02.01-.04.03-.06.04-.02,0-.15.04-.14.04-.13.02-.29.06-.43.14-.35.21-.35.72,0,.92.42.25.98.14,1.37-.13.21-.14.4-.32.6-.46.24-.17.49-.32.73-.49.48-.33.93-.73,1.38-1.11.22-.18.41-.37.61-.57.16-.16.29-.3.51-.36.53-.14.52-.78.14-1.07Z"/>
      <path d="M52.56,3.83c.02-.13,0-.26-.07-.38-.09-.16-.26-.22-.43-.2-.16-.07-.33-.12-.5-.18-.02,0-.03-.01-.05-.02,0,0-.09-.05-.08-.05-.1-.06-.19-.13-.28-.19-.2-.14-.4-.28-.62-.38-.42-.19-.91-.26-1.3-.51-.37-.24-.64-.52-1.11-.56-.22-.02-.41.2-.41.41,0,.24.19.39.41.41.12.01.24.11.34.18.14.11.27.23.42.32.37.22.8.3,1.19.47.35.15.62.43.95.61-.12.18-.12.43-.03.61-.15.1-.3.2-.46.29-.27.16-.54.31-.79.5,0,0,0,0,0,0,0,0,0,0,0,0-.01,0-.01.01-.02.01-.03.02-.05.04-.08.06-.09.07-.17.13-.26.2-.15.12-.3.24-.43.37-.28.29-.67.74-.42,1.15.1.16.31.15.41,0,0,0-.01.01-.02.02-.04.03.06-.05.05-.04.04-.03.06-.07.09-.11.05-.08.05-.09.12-.16.06-.06.12-.12.18-.17.07-.06.16-.13.2-.16.25-.19.52-.36.79-.53.58-.37,1.21-.66,1.72-1.14.17-.16.35-.39.44-.63.03-.06.05-.12.05-.19Z"/>
      <path d="M87,18.61c-.18-.42-.27-.84-.36-1.29-.11-.51-.06-1.01-.09-1.52-.03-.44-.18-.85-.25-1.29-.08-.49-.95-.38-.88.12.05.39.18.77.18,1.17,0,.52-.06,1.01.01,1.53.06.44.15.9.31,1.31.03.07.08.16.12.26-.19-.05-.39-.07-.59-.12-.49-.11-.98-.25-1.48-.33-.97-.16-2.09-.19-3.04.09-.31.09-.31.54,0,.62.5.14,1.01.12,1.53.12.49,0,.98.03,1.46.12.49.1.97.26,1.46.35.21.04.41.07.6.17.23.13.43.22.7.25.23.02.42-.17.48-.37.14-.41,0-.82-.16-1.2Z"/>
      <path d="M89.18,20.54c-.07-.29-.06-.58-.08-.87-.02-.34-.1-.68-.17-1.01-.07-.32-.24-.6-.3-.93-.05-.24-.43-.24-.48,0-.06.33-.25.65-.26.99-.01.32.07.64.1.95.03.34.02.68.1,1.01.01.06.03.12.05.18-.02,0-.03,0-.05,0-.16.02-.32.03-.46,0-.23-.05-.45-.1-.69-.12-.22-.02-.44,0-.66,0-.24,0-.48,0-.73.03-.43.06-.8.31-1.22.39-.2.04-.21.38,0,.42.19.03.37.04.56.02.18-.02.36-.08.55-.1.2-.02.41,0,.61.03.22.03.45.03.67.06.38.05.71.24,1.09.26.16,0,.31,0,.47,0,.03,0,.06,0,.09,0,0,0,.03,0,.04,0,.01,0,.02,0,.02,0,0,0,0,.01.02.03.29.37.93.06.92-.38-.01-.34-.11-.65-.2-.98Z"/>
      <path d="M101.56,43.65c-.07-.27-.44-.31-.58-.08-.23.38-.34.82-.52,1.23-.19.42-.37.84-.53,1.27-.13.34-.26.68-.5.93-.11.12-.2.25-.26.39-.23-.2-.45-.43-.64-.65-.01-.02-.12-.15-.06-.07-.05-.07-.1-.13-.15-.2-.07-.09-.16-.18-.24-.27-.09-.1-.19-.2-.28-.3-.05-.06-.06-.07-.09-.11-.02-.03-.08-.17-.04-.06-.18-.53-.98-.32-.85.23.06.28.26.52.43.74.1.14.21.27.31.41,0,0,0,0,0,.01.01.02.03.04.04.06.06.08.12.16.18.23.42.51.94.98,1.49,1.34.35.24.71-.09.76-.43.02-.17-.01-.39.05-.53,0-.02.04-.06.09-.11.07-.07.13-.15.19-.23.26-.36.4-.81.55-1.22.15-.41.31-.8.45-1.21.15-.44.31-.9.18-1.36Z"/>
      <path d="M102.35,48.24c-.03-.21-.27-.35-.47-.35-.22,0-.39.15-.47.35-.13.36-.44.61-.65.92-.27.4-.49.85-.7,1.28-.19.41-.33.83-.61,1.19-.01.02-.03.04-.04.05-.09-.11-.17-.21-.26-.32-.3-.33-.63-.63-.91-.98-.5-.65-.89-1.35-1.64-1.76-.47-.26-.89.45-.42.72.66.38.97,1.06,1.42,1.64.51.67,1.16,1.21,1.57,1.97.25.47,1,.15.86-.36-.04-.14.05-.22.13-.33.13-.17.26-.33.37-.51.23-.4.39-.84.61-1.25.2-.38.41-.76.69-1.09.31-.35.58-.69.51-1.19Z"/>
      <path d="M86.79,87.98c-.45.15-.9.25-1.33.45-.42.2-.85.39-1.31.47-.24.04-.47.08-.69.19-.15.07-.27.21-.42.28-.06.03-.13.03-.21.04.04-.08.08-.15.11-.23.2-.4.35-.84.58-1.21.22-.35.51-.65.69-1.03.21-.46.4-.94.62-1.39.13-.25.07-.56-.19-.71-.23-.14-.58-.07-.71.19-.23.45-.41.93-.63,1.39-.19.41-.51.72-.73,1.1-.23.4-.4.85-.61,1.26-.19.39-.48.76-.6,1.19-.12.42.27.71.65.65.21-.03.39-.15.59-.15.25,0,.5.02.74-.07.21-.08.36-.22.55-.32.18-.1.41-.1.61-.14.49-.1.96-.32,1.41-.52.19-.09.39-.15.59-.22.29-.09.5-.22.74-.4.38-.3-.03-.93-.46-.79Z"/>
      <path d="M84.49,91.88c-.08-.3-.38-.44-.67-.38-.63.13-1.23.37-1.86.52-.47.11-.9.12-1.38.08-.37-.03-.79-.06-1.19-.03.16-.33.25-.7.36-1.05.13-.4.25-.79.36-1.19.04-.15.1-.31.14-.46.05-.23,0-.35-.06-.56-.08-.28-.45-.2-.48.06,0,0,0,0,0,.01-.07.11-.13.23-.21.34-.13.18-.25.34-.34.55-.17.4-.3.81-.43,1.22-.12.37-.24.68-.47.99-.25.33-.39.71-.25,1.13.15.45.67.47.93.12-.02.03,0,0,.06-.03,0,0,.08-.04.16-.05.15-.04.33-.05.52-.04.4,0,.81.06,1.21.09,1.13.09,2.14-.41,3.22-.63.29-.06.45-.4.38-.67Z"/>
      <path d="M42.98,97.77c-.08-.27-.42-.52-.71-.4-.69.28-1.49.32-2.12.75-.23.16-.42.45-.65.55-.3.13-.71.03-1.03,0-.57-.04-.66.83-.13.97.12.03.11.03.21.13.11.1.16.17.24.29.15.23.28.48.4.73.28.55.77,1.05.91,1.66.11.48.88.38.86-.12-.04-.79-.64-1.42-.97-2.1-.09-.19-.19-.39-.31-.58,0,0,.01,0,.02,0,.37-.09.62-.33.89-.58.21-.2.52-.27.82-.34.39-.08.78-.14,1.16-.26.3-.1.49-.4.4-.71Z"/>
      <path d="M39.57,96.24c0-.26-.24-.55-.52-.52-.46.05-.78.29-1.09.62-.28.31-.57.52-.95.71-.38.19-.77.35-1.16.52-.3.14-.71.34-1.05.29-.26-.04-.52.06-.59.34-.07.25.09.52.34.59.46.13.89.72,1.18,1.11.22.3.41.61.63.91.11.15.22.29.33.43.1.12.15.26.24.4.1.15.27.16.4.05.45-.36.13-.8-.13-1.15-.26-.36-.48-.74-.73-1.1-.18-.26-.38-.52-.6-.77.4-.15.8-.36,1.2-.52.47-.19.93-.41,1.31-.75.14-.12.26-.27.39-.4.06-.06.12-.12.18-.17.02-.02.15-.07.09-.06.28-.03.52-.22.52-.52Z"/>
      <path d="M13.11,22.1s-.09.04-.13.06c0,0,0,0,0,0,0,0,0,0-.01,0-.08.04-.15.09-.21.14-.84.56-1.52,1.32-2.36,1.86-.47.3-.93.6-1.38.94-.45.35-.88.71-1.38.98-.45.25-.05.9.4.68.5-.24.94-.56,1.39-.88.47-.33.95-.62,1.44-.91.43-.26.83-.57,1.22-.88-.06.25-.13.49-.19.74-.14.62-.25,1.25-.4,1.88-.13.54-.29,1.09-.38,1.64-.33.28-.23.94.3.9.06,0,.12,0,.18-.01.24-.02.43-.15.51-.39.35-1.07.55-2.22.76-3.33.11-.56.26-1.1.39-1.65.04-.16.06-.32.09-.48.02-.09.05-.18.07-.27.03-.02.07-.04.1-.06.52-.29.17-1.18-.41-.98Z"/>
      <path d="M16.72,18.36c-.09-.27-.45-.5-.73-.3-.87.64-1.8,1.21-2.71,1.79-.43.28-.87.55-1.29.85-.18.13-.29.24-.42.41-.13.17-.22.21-.42.27-.15.04-.23.26-.1.37.37.29.68.03,1-.2.43-.3.91-.53,1.37-.78.8-.45,1.6-.9,2.37-1.39-.02.18-.03.35-.03.52.01.54.05,1.08-.02,1.62-.07.54-.12,1.07-.14,1.61-.02.48-.08,1.04.02,1.52-.03.39.67.74.84.16.16-.54.08-1.18.12-1.74.04-.56.11-1.11.18-1.66.07-.54.02-1.08.02-1.63,0-.47.09-.96-.06-1.42Z"/>
      <path d="M96.7,31.59c-.03-.42-.19-.82-.22-1.24-.04-.48.08-1.02-.09-1.49-.15-.41-.68-.41-.83,0-.16.42-.13.95-.11,1.4.02.43.17.82.23,1.25.05.36.06.74.07,1.1,0,.13,0,.26,0,.39-.13-.08-.25-.17-.38-.26-.34-.24-.74-.36-1.12-.54-.36-.17-.64-.45-.98-.67-.38-.25-.8-.26-1.22-.4-.42-.13-.67.48-.3.7.36.21.78.28,1.12.52.33.23.61.5.97.68.36.17.74.3,1.07.55.31.24.62.43.98.58.28.12.62.04.71-.29.21-.73.12-1.54.07-2.28Z"/>
      <path d="M98.93,32.47c-.15-.1-.34-.08-.48.03-.17.13-.2.36-.27.54-.14.39-.27.74-.32,1.15-.05.38-.15.7-.27,1.06-.13.4-.21.82-.28,1.23-.02.15-.03.31-.03.47-.08-.07-.17-.14-.26-.2-.33-.22-.63-.45-.93-.72-.32-.29-.65-.45-1.06-.6-.37-.14-.69-.37-1.08-.44-.32-.06-.52.35-.23.54.16.11.26.27.43.38.17.11.36.19.55.27.17.07.34.13.5.22.18.11.32.26.48.4.29.27.6.47.91.71.28.21.48.52.81.67.28.13.56.02.66-.27.12-.34.11-.71.14-1.07.03-.35.13-.71.22-1.05.09-.37.25-.72.31-1.1.05-.38.08-.73.21-1.1.12-.34.4-.89,0-1.14Z"/>
      <path d="M91.49,22.49c-.02-.26-.03-.51-.03-.77-.01-.51.04-1.13-.17-1.61-.12-.28-.62-.28-.74,0-.18.41-.15.92-.16,1.36,0,.26-.02.52,0,.78.03.47.08.93.09,1.4,0,.11,0,.22,0,.32-.01,0-.03,0-.04-.01-.06-.02-.11-.04-.17-.06-.02,0-.04-.02-.06-.02,0,0-.04-.02-.05-.02-.21-.09-.41-.19-.62-.28-.32-.14-.62-.17-.97-.21-.21-.02-.41-.08-.61-.11-.26-.03-.53.04-.76.18-.11.07-.22.25-.16.39.03.07.06.13.1.2.06.1.21.16.31.08,0,0,.01-.01.02-.02.38.04.74.16,1.12.22.13.02.26.05.39.08t0,0s.01,0,.02.01c.05.03.1.05.15.08.47.24.96.56,1.5.62,1.24.12.89-1.9.83-2.61Z"/>
      <path d="M94.1,28.47c0-.07-.02-.14-.04-.2-.02-.09-.05-.17-.07-.26-.04-.18-.02-.37-.03-.56-.01-.41-.09-.81-.16-1.2-.13-.76.13-1.8-.53-2.37-.22-.19-.58-.07-.58.24,0,.38.02.76,0,1.14-.02.44,0,.87.09,1.31.07.37.14.72.15,1.09,0,.01,0,.02,0,.04-.13-.02-.25-.04-.39-.1-.19-.09-.39-.19-.58-.28-.74-.33-1.49-.6-2.31-.54-.38.03-.37.54,0,.58.74.09,1.41.36,2.06.71.33.18.63.36,1,.44.14.03.2.08.29.19.13.14.24.27.4.39.14.11.38.07.5-.04.14-.12.19-.27.16-.45,0-.02,0-.06.02-.13Z"/>
      <path d="M100.12,37.48c-.07-.06-.15-.07-.23-.03-.13.06-.17.2-.24.31-.08.12-.18.22-.26.34-.16.27-.21.57-.26.87-.05.3-.21.55-.32.83-.11.29-.16.59-.24.89-.04.16-.09.31-.13.46-.02.06-.03.12-.06.17,0,0,0,0,0,.01,0,0-.01,0-.02-.01-.04-.03-.01,0-.07-.06-.32-.29-.61-.62-.91-.92-.35-.36-.79-.84-1.3-.94-.42-.08-.61.54-.18.65.17.04.35.21.49.35.19.19.37.39.54.59.3.35.59.75.96,1.03.22.17.48.26.75.19.33-.09.5-.42.61-.72.13-.36.21-.73.31-1.09.08-.29.21-.55.3-.83.11-.35.03-.73.15-1.08.09-.27.4-.76.12-1.01Z"/>
      <path d="M101.27,40.35c-.16-.14-.37-.11-.49.06-.09.13-.14.33-.19.47-.06.17-.13.32-.21.48-.18.33-.4.64-.55.98-.3.64-.68,1.27-.93,1.94-.07-.09-.15-.17-.22-.26-.17-.21-.34-.41-.53-.61-.24-.25-.47-.52-.75-.73-.25-.18-.54-.38-.86-.3-.29.07-.32.56,0,.61.05,0,.12.06.19.12.12.11.24.24.35.36.21.21.4.43.6.65.2.21.36.46.55.68.2.23.45.54.76.59.23.04.42-.06.5-.29.16-.43.34-.85.55-1.25.21-.41.4-.83.62-1.23.19-.35.43-.67.59-1.03.16-.35.36-.93,0-1.23Z"/>
      <path d="M98.72,70.19c-.11,0-.21,0-.33.03-.16.05-.29.13-.42.23-.19.16-.39.32-.58.47-.38.32-.75.65-1.14.97-.34.27-.67.56-.95.89-.06.07-.11.13-.16.2,0-.36.04-.73.04-1.09.01-.88-.04-1.77-.09-2.65-.03-.5-.75-.5-.78,0-.05.9-.03,1.81-.11,2.71-.06.72-.22,1.5,0,2.21.09.27.39.48.67.38.44-.15.75-.4,1.04-.76.3-.37.65-.68,1.03-.98.4-.32.78-.65,1.16-.99.38-.35.98-.78.9-1.35v.2s0-.05.01-.07c.04-.19-.09-.42-.31-.4Z"/>
      <g>
        <path d="M99.08,65.74s0,0,0,0c.01-.03.01-.04,0,0Z"/>
        <path d="M100.06,65.74c-.04-.22-.28-.37-.49-.37-.23,0-.4.16-.48.36-.01.03-.03.08-.04.11,0,0-.03.04-.04.06,0,.01-.04.05-.04.06-.03.04-.07.08-.1.11-.13.13-.26.26-.38.4-.32.37-.63.74-1.01,1.04-.26.21-.48.44-.69.7-.01-.03-.03-.07-.04-.1-.05-.09-.1-.17-.12-.24-.16-.49-.05-1.07-.07-1.58-.02-.45-.66-.44-.69,0-.04.59-.2,1.17-.1,1.76.02.14.08.27.13.4,0,.01,0,.02.01.02.01.03.02.05.03.08.02.06.01.03.02.11.01.39-.08.74.02,1.12.07.29.36.41.63.36.26-.05.48-.24.59-.47.06-.11.1-.23.15-.34-.05.11,0-.01.02-.03.03-.06.06-.11.09-.16.21-.35.53-.65.86-.91.41-.32.72-.73,1.08-1.11.36-.38.8-.82.69-1.4Z"/>
      </g>
      <path d="M94.01,80.84c0-.28-.26-.59-.56-.56-.47.05-.89.26-1.31.46-.48.23-.96.45-1.41.74-.6.38-1.15.91-1.78,1.26,0,0,0,0,0,0,.07-.31.18-.62.28-.93.12-.36.2-.71.25-1.09.03-.25.02-.5,0-.75,0-.12-.01-.24-.02-.36,0-.08-.01-.15-.04-.22,0-.02-.11-.21-.07-.11-.12-.33-.55-.33-.67,0,.04-.11-.06.08-.07.11-.03.07-.03.14-.04.22-.01.14-.02.27-.03.41-.02.25-.05.5-.1.75-.06.35-.19.69-.3,1.03-.22.65-.54,1.52-.06,2.11.12.15.35.18.52.14.96-.24,1.69-.94,2.49-1.48.44-.29.91-.53,1.39-.74.18-.08.36-.17.54-.25.07-.03.15-.06.23-.09.04-.02.08-.03.13-.04,0,0,.19-.04.08-.03.3-.04.56-.23.56-.56Z"/>
      <path d="M89.87,84.76c-.83.1-1.67.41-2.42.77-.35.17-.68.36-1.03.51-.11.05-.23.09-.34.13.02-.05.04-.11.06-.16.17-.36.27-.72.35-1.1.16-.74.5-1.42.57-2.17.04-.41-.58-.46-.69-.09-.21.69-.6,1.31-.77,2.02-.08.33-.16.64-.31.95-.17.35-.24.72-.39,1.08-.13.29-.04.62.29.72.47.14.84-.15,1.25-.31.43-.16.85-.34,1.26-.55.73-.38,1.52-.56,2.31-.78.24-.07.4-.31.37-.56-.03-.23-.25-.47-.5-.44Z"/>
      <path d="M95,77.42c-.2-.04-.39-.02-.57.1-.14.09-.25.21-.4.27-.4.17-.82.28-1.2.51-.4.25-.76.55-1.12.86.04-.19.08-.38.08-.58,0-.28,0-.54.07-.8.09-.29.14-.54.06-.84-.1-.42-.72-.32-.74.1,0,.24-.13.46-.18.68-.08.32-.05.64-.07.97-.01.23-.11.45-.17.67-.08.3-.09.59,0,.89.08.26.38.39.61.25.67-.39,1.19-.99,1.85-1.41.35-.22.72-.37,1.09-.55.18-.09.33-.19.47-.32.12-.11.21-.25.34-.36.14-.13.07-.4-.12-.45Z"/>
      <path d="M97.11,75.1c-.21-.07-.35-.02-.55.04-.19.06-.37.13-.55.2-.36.13-.73.22-1.1.33-.35.11-.72.22-1.04.4-.16.09-.3.2-.45.31,0-.02-.01-.04-.01-.06,0,0,0,0,0,0,0,0,0,0,0,0,0-.04,0-.07-.01-.11,0-.07-.01-.14-.01-.21,0-.15,0-.31,0-.46,0-.15.01-.29.02-.44,0-.07.01-.14.02-.21t0,0s0-.07.01-.11c0-.03,0-.05,0-.08,0,0,.02-.1.02-.13,0-.05.02-.1.03-.15,0-.02.02-.05.02-.07,0,0,0,0,0,0,0,0,0,0,0-.01.14-.14.13-.38,0-.52-.16-.16-.37-.13-.53,0-.28.22-.34.72-.38,1.04-.06.45-.08.9-.04,1.35.03.37.07.88.42,1.1.33.21.7-.09.96-.28.29-.21.58-.35.93-.46.42-.14.85-.23,1.26-.38.23-.08.46-.17.67-.28.1-.05.2-.11.29-.17.12-.08.15-.18.19-.31.05-.14-.06-.28-.19-.33Z"/>
      <path d="M101.78,56.3c-.09-.31-.55-.32-.63,0-.03.1-.03.2-.05.3,0,.02-.04.09-.02.06-.11.14-.24.26-.35.4-.29.39-.44.87-.65,1.31-.24.5-.54.96-.81,1.45-.04.08-.08.16-.12.23-.02-.08-.04-.16-.06-.25-.05-.36-.13-.66-.35-.97-.18-.26-.41-.49-.58-.77-.16-.25-.16-.74-.57-.67,0,0-.01,0-.02,0-.12.02-.2.13-.24.24-.23.66.34,1.18.67,1.67.17.25.19.5.24.79.06.36.24.67.31,1.02.05.22.32.38.53.3.43-.16.65-.61.87-.98.3-.52.63-1.01.9-1.54.24-.48.35-1.02.62-1.48.08-.13.18-.25.25-.39.11-.23.12-.5.05-.74Z"/>
      <path d="M101.25,61.34c-.51.01-.67.53-.97.85-.32.35-.66.66-.99.99-.32.32-.64.63-.95.95-.05.05-.1.11-.15.17-.05-.32-.08-.64-.14-.95-.05-.27-.07-.56-.16-.82-.07-.21-.25-.43-.24-.66.01-.45-.66-.53-.78-.11-.09.33-.01.59.11.89.11.26.13.56.17.84.11.62.17,1.26.35,1.86.08.3.4.38.66.27.32-.14.5-.49.73-.74.32-.34.68-.66,1.01-1,.33-.33.68-.65,1-.99.17-.17.31-.36.44-.57.13-.2.26-.42.24-.68-.01-.17-.13-.32-.32-.32Z"/>
      <path d="M101.54,51.75c-.22.34-.25.74-.45,1.09-.21.37-.44.73-.65,1.1-.24.41-.47.83-.68,1.26-.07.16-.14.34-.21.51-.25-.29-.51-.58-.7-.91-.15-.25-.28-.51-.5-.7-.09-.07-.19-.15-.29-.2,0,0,0,0,0,0-.01-.04-.02-.07-.03-.11-.04-.18-.22-.29-.39-.3h-.17c-.35-.03-.52.51-.21.67.04.18.13.33.31.46.22.16.31.26.45.52.33.6.82,1.07,1.21,1.63.17.24.53.34.75.1.29-.32.43-.7.6-1.09.2-.45.44-.89.69-1.32.21-.37.46-.73.65-1.11.1-.2.19-.41.23-.62.05-.22.06-.45.14-.67.15-.44-.49-.67-.73-.31Z"/>
      <path d="M75.78,10.02c-.3-.82-.57-1.66-.87-2.48-.15-.41-.32-.82-.49-1.23-.16-.37-.36-1-.75-1.17-.26-.12-.64-.05-.71.29-.09.44.21.9.38,1.29.17.38.32.78.47,1.17.22.6.44,1.2.68,1.79-.18,0-.36,0-.53.03-.39.08-.79.13-1.17.23-.32.08-.61.25-.93.35-.38.13-.78.08-1.18.13-.51.06-.51.73,0,.8.43.05.83.11,1.26.02.35-.07.67-.25,1.02-.33.4-.09.82-.14,1.22-.18.41-.05.8.05,1.22-.04.27-.06.48-.41.38-.68Z"/>
      <path d="M64.25,5.39c-.53-.54-.65-1.26-.9-1.95-.3-.83-.8-1.57-1.04-2.42-.07-.26-.29-.38-.53-.41-.11-.01-.2,0-.31.02-.43.08-.45.62-.18.88.2.85.71,1.59,1,2.42.2.56.37,1.17.7,1.68-.51.24-1.05.41-1.58.63-.36.14-.75.29-1.08.5-.16.1-.32.22-.46.35-.14.13-.2.28-.31.42-.16.19.05.52.28.36.13-.09.29-.12.43-.19.17-.08.34-.17.52-.25.34-.16.68-.3,1.04-.43.72-.25,1.47-.43,2.19-.69.39-.14.55-.61.24-.92Z"/>
      <path d="M56.42,3.09c-.15-.17-.17-.17-.27-.34-.12-.21-.23-.43-.33-.65-.1-.21-.2-.41-.33-.59-.12-.17-.28-.33-.29-.54-.02-.31-.23-.61-.49-.78-.09-.18-.31-.25-.47-.1-.14.15-.27.31-.24.53.02.13.07.22.11.32-.06.38.08.69.3,1.03.19.29.34.59.5.9.15.29.3.58.52.83.03.04.06.07.1.1-.42.19-.79.43-1.17.73-.5.4-.99.85-1.59,1.11-.43.19-.12.84.31.74.67-.16,1.17-.56,1.7-.98.43-.34.97-.82,1.55-.82.22,0,.45-.16.5-.38.11-.46-.11-.77-.4-1.1Z"/>
      <path d="M60.49,4.27c-.23-.3-.45-.61-.62-.95-.16-.33-.28-.67-.46-.99-.18-.33-.39-.63-.57-.96-.18-.33-.32-.73-.64-.95-.12-.08-.33-.06-.43.06-.59.72.24,1.73.62,2.36.2.34.34.7.53,1.05.07.13.15.26.23.38-.34.15-.67.34-.99.52-.3.17-.62.31-.93.47-.32.17-.56.44-.87.62-.39.23-.12.77.29.69.35-.07.55-.32.85-.49.3-.17.63-.29.94-.45.5-.25,1.03-.68,1.62-.61.36.05.65-.47.43-.75Z"/>
      <path d="M68.01,6.54c-.27-.27-.62-.52-.82-.86-.17-.3-.23-.66-.33-.98-.11-.34-.25-.68-.43-.99-.17-.29-.41-.63-.75-.72-.23-.06-.4.18-.3.39.07.14.17.27.24.41.06.15.1.31.14.47.08.34.14.69.21,1.03.07.38.18.74.4,1.06.1.15.22.29.35.41-.32.09-.65.15-.94.28-.53.24-.97.75-1.56.84-.49.07-.38.91.12.87.73-.05,1.21-.55,1.84-.84.55-.25,1.21-.23,1.72-.59.26-.18.34-.54.1-.78Z"/>
      <path d="M71.2,7.33c-.28-.43-.58-.83-.73-1.31-.18-.56-.35-1.22-.96-1.45-.32-.12-.56.28-.42.54.09.16.18.42.25.66.08.27.12.54.2.81.13.46.42.83.69,1.22-.07,0-.15.02-.22.03-.33.07-.59.26-.89.41-.26.13-.64.25-.88.26-.38.01-.67.09-.88.44-.24.41.31.83.65.5,0,0,.03-.03.04-.04.01,0,.03,0,.03,0,0,0,.02,0,.02,0,.12,0,.24,0,.37,0,.32-.04.62-.1.92-.22.26-.1.52-.27.74-.33.2-.06.39,0,.6,0,.32,0,.61-.17.75-.46.18-.37-.09-.74-.29-1.05Z"/>
      <path d="M79.39,12.78c-.06-.2-.15-.36-.28-.53-.1-.12-.2-.23-.26-.33-.17-.28-.28-.58-.38-.88-.11-.34-.1-.7-.2-1.05-.05-.18-.11-.35-.17-.52-.03-.08-.04-.16-.07-.25-.04-.12-.1-.2-.18-.29-.13-.17-.38-.08-.48.06-.24.32-.16.76-.12,1.13.05.4.05.81.18,1.19.12.35.27.7.43,1.03.03.06.06.1.09.15-.34-.03-.68-.09-1-.07-.17.01-.34.03-.49.09-.14.05-.26.15-.39.21-.22.09-.54.02-.77.03-.5.03-.5.74,0,.78.33.03.64.12.97.04.15-.04.27-.12.41-.18.1-.04.22-.05.34-.06.32,0,.64.05.96.08.35.04.69.02,1.04-.04.27-.04.42-.38.35-.62Z"/>
      <path d="M83.02,14.97c-.21-.35-.2-.83-.28-1.23-.08-.41-.23-.81-.27-1.22-.03-.21-.06-.43-.09-.64-.04-.29-.09-.55-.33-.73-.1-.07-.28-.07-.37,0-.38.28-.37.9-.33,1.34.04.48.16.94.27,1.4.11.44.12.9.3,1.33.02.04.04.08.06.12-.22-.05-.45-.12-.67-.14-.72-.08-1.46-.21-2.18-.15-.57.05-.55.81,0,.87.64.08,1.28.2,1.93.27.29.03.57.13.86.19.17.04.34.07.51.06.05,0,.1,0,.16-.01h0c.32.32.89.04.89-.4,0-.44-.24-.71-.45-1.06Z"/>
      <path d="M30.55,8.02s-.08.02-.13.02c0,0,0,0,0,0,0,0-.02,0-.02.01-.45.08-.84.31-1.28.44-.54.15-1.09.21-1.62.4-.99.36-1.94.69-3,.79-.4.04-.41.61,0,.64,1.06.06,2.02-.17,3.01-.53.52-.19,1.05-.28,1.59-.37.05,0,.11-.02.16-.04-.19.32-.39.63-.56.95-.26.49-.51.99-.71,1.5-.08.22-.11.68-.3.82-.06.03-.12.08-.17.15,0,.01-.02.03-.03.04-.21.34.15.88.55.72.45-.18.66-.5.78-.96.12-.43.28-.83.47-1.24.24-.49.5-.96.78-1.43.12-.21.25-.42.35-.64.06-.13.11-.28.25-.34.22-.09.38-.27.34-.52-.03-.22-.23-.43-.47-.41Z"/>
      <path d="M20.47,14.75c-.23.02-.38.1-.59.18-.15.06-.32.04-.48.06-.4.05-.72.24-1.09.39-.33.14-.69.18-1.03.28-.32.09-.67.31-1.01.33-.36.02-.46.55-.09.64.39.1.71-.01,1.08-.11.37-.1.76-.12,1.14-.21.34-.08.65-.28,1-.33.07,0,.13-.01.2-.01-.02.11-.04.21-.08.28-.08.15-.28.34-.36.54-.08.21-.07.44-.14.66-.06.18-.16.34-.23.51-.1.24-.18.47-.24.72-.05.24-.13.47-.18.71-.04.16-.07.32-.04.48.02.12.06.23.1.35.11.35.68.4.76,0,.02-.11.07-.18.12-.29.05-.12.07-.25.1-.38.07-.23.13-.47.2-.7.12-.44.43-.8.52-1.25.03-.16.03-.38.11-.49.13-.18.29-.36.36-.6.05-.16.05-.4.12-.5.17-.24.33-.42.3-.73-.02-.27-.23-.56-.54-.54Z"/>
      <g>
        <path d="M22.99,16.96s.03-.01.03-.02c0,0-.02,0-.03.02Z"/>
        <path d="M24.66,11.45c-.25-.14-.54-.1-.8,0-.27.1-.49.14-.78.15-.85.03-1.65.4-2.49.52-.2.03-.33.27-.3.46.03.22.2.34.41.36.46.04.87-.02,1.32-.14.18-.05.36-.1.54-.14.22-.05.42-.06.65-.06.18,0,.35-.03.51-.06-.11.29-.12.62-.21.92-.12.39-.32.75-.43,1.15-.1.36-.14.74-.31,1.08-.1.19-.21.38-.28.58-.09.25-.03.4.07.62.07.16.3.17.43.07-.03.02-.08.04,0,0,.04-.03.09-.05.13-.08.08-.07.13-.14.17-.23.08-.16.17-.31.26-.46.18-.32.29-.66.38-1.01.09-.36.21-.7.35-1.04.14-.34.23-.66.29-1.03.02-.11.04-.2.09-.27.12-.15.25-.27.31-.47.1-.33,0-.74-.31-.92Z"/>
      </g>
      <path d="M35.43,6.4c-.12-.23-.36-.36-.61-.41-.52-.12-1.07-.06-1.59-.03-.71.04-1.43.1-2.14.07-.14-.28-.57-.12-.58.17v.17c0,.12.07.24.17.3.63.37,1.48.19,2.18.17.45-.01.91-.05,1.36-.04.06,0,.12,0,.18.01.01,0,.08,0,.09,0,0,0,0,0,0,0-.02.02-.03.05-.05.07-.17.23-.36.44-.53.67-.22.31-.41.64-.62.96-.26.4-.5.82-.73,1.25-.2.38-.47.76-.6,1.18-.04.13,0,.26.09.36.06.17.24.21.37.12.1-.02.2-.1.25-.18.21-.35.51-.64.71-1,.24-.42.46-.85.72-1.26.21-.33.4-.69.63-1,.16-.22.39-.48.56-.73.17-.26.29-.58.14-.87Z"/>
      <path d="M40.07,4.71c-.62-.29-1.28-.29-1.95-.23-.57.05-1.05-.24-1.61-.3-.37-.04-.44.56-.09.64.52.13.93.48,1.48.54.31.03.64.01.95.03-.5.59-.88,1.28-1.24,1.97-.21.41-.42.84-.72,1.2-.33.4-.6.81-.44,1.35.16.53.95.43.97-.13,0-.28.28-.49.45-.7.31-.39.52-.86.75-1.3.41-.8.88-1.66,1.54-2.28.22-.2.19-.65-.1-.78Z"/>
      <path d="M5.48,44.79c-.04-.25-.11-.5-.15-.75-.08-.55.05-1.13.02-1.69-.03-.56-.12-1.12-.17-1.68-.05-.48-.29-.96-.12-1.44.16-.46-.51-.85-.82-.48-.28.32-.38.73-.61,1.08-.26.41-.58.8-.89,1.18-.65.81-1.2,1.7-1.89,2.47-.29.33.16.8.49.49.75-.71,1.37-1.54,2.05-2.32.27-.31.53-.63.78-.95.02.22.04.44.07.66.05.28.11.55.16.83.09.56.04,1.13.08,1.69.04.55.19,1.09.37,1.6.07.21.36.26.48.06.15-.26.2-.46.16-.76Z"/>
      <path d="M4.72,53.45c-.01-.19-.06-.37-.16-.54-.05-.09-.19-.25-.2-.29-.07-.17-.01-.37-.03-.55-.02-.21-.08-.42-.15-.62-.13-.38-.31-.71-.51-1.06-.21-.35-.37-.72-.65-1.03-.12-.14-.34-.19-.52-.14,0,0-.02,0-.03,0-.18.05-.28.18-.32.34,0,0,0,0-.01,0-.02.08-.03.15-.02.21-.15.71-.55,1.32-.92,1.94-.43.72-.68,1.54-1.14,2.24-.13.19.18.43.32.25.54-.68.9-1.48,1.42-2.18.24-.33.49-.65.71-.99.05-.08.09-.17.14-.26.17.32.35.62.49.95.06.14.13.29.15.44.03.2,0,.41.05.61.05.21.17.38.3.55.03.04.11.13.11.14.01.02.03.07.04.11.03.12.13.23.24.29.12.1.28.11.41,0-.03.01-.06.03-.09.04.18-.07.35-.23.34-.44Z"/>
      <path d="M8.38,33.91c-.06-.46-.17-.92-.2-1.39-.03-.51-.03-1.04,0-1.55.02-.29-.26-.54-.54-.54-.31,0-.51.25-.54.54-.03.3-.48.67-.71.88-.4.37-.77.77-1.15,1.17-.34.36-.65.71-.94,1.11-.22.31-.46.78-.81.96-.21.1-.11.46.12.45.48-.04.88-.36,1.19-.72.36-.42.73-.8,1.13-1.18.38-.36.76-.71,1.15-1.06.03.46.12.92.18,1.38.07.49.08.98.07,1.47,0,.49-.02,1.05.22,1.5.11.2.42.2.53,0,.24-.43.27-.97.3-1.45.04-.52.04-1.05-.03-1.57Z"/>
      <path d="M4.99,57.08c-.11-.7-.65-1.15-1.13-1.61-.21-.2-.48-.41-.64-.66-.07-.11-.1-.22-.15-.35-.08-.19-.16-.34-.29-.5-.21-.26-.66-.16-.81.1-.23.41-.29.89-.53,1.29-.21.36-.41.72-.63,1.07-.3.48-.98,1.22-.64,1.82.13.24.59.22.63-.08.03-.25.15-.42.3-.64.17-.25.37-.48.53-.73.23-.34.45-.68.67-1.02.06-.09.1-.18.15-.27.19.25.43.46.66.67.23.21.48.4.69.63.21.23.35.56.65.69.31.14.61-.09.55-.42Z"/>
      <path d="M4.91,48.73c-.02-.29-.08-.59-.17-.85-.12-.34-.35-.59-.53-.9-.17-.29-.17-.66-.27-.98-.11-.36-.25-.7-.33-1.07-.06-.28-.46-.46-.7-.28-.73.55-1.25,1.28-1.71,2.06-.21.34-.41.69-.59,1.05-.1.19-.21.38-.31.57-.1.19-.16.38-.27.56-.12.2.13.49.34.34.15-.11.3-.22.43-.34.16-.15.29-.34.42-.52.24-.33.45-.67.66-1.01.31-.5.63-1.01,1.04-1.44.04.12.08.24.11.35.11.36.14.73.29,1.07.13.29.38.51.5.81.13.35.09.73.33,1.05.13.16.26.22.46.19.02,0,.04,0,.06,0,.37.01.46-.43.24-.64Z"/>
      <path d="M6.96,38.93c-.03-.23-.12-.43-.17-.65-.05-.26-.07-.53-.1-.79-.03-.25-.07-.5-.16-.74-.08-.22-.19-.42-.27-.63-.08-.21-.04-.33-.1-.56-.07-.26-.25-.41-.5-.5-.15-.05-.34,0-.44.12-.52.56-1.05,1.13-1.62,1.65-.42.38-.97.79-.96,1.42,0,.38.6.49.68.09.04-.21.24-.38.39-.53.18-.17.38-.32.57-.49.36-.33.72-.67,1.08-1.01.05.15.11.3.18.44.17.38.26.8.34,1.21.04.21.07.43.14.64.07.18.16.35.2.54.08.35-.03.73.09,1.08.09.26.43.25.52,0,.14-.38.18-.89.13-1.29Z"/>
      <path d="M10.32,31.56c-.14-.62-.29-1.22-.45-1.84-.1-.38-.1-.77-.15-1.15-.05-.38-.08-.83-.36-1.12-.1-.11-.3-.18-.45-.12-1.31.53-2.15,1.7-3.37,2.36-.46.25-.06.9.4.69,1.04-.49,1.81-1.44,2.82-1.97.02.16.04.31.05.47.03.43.06.84.17,1.26.3,1.12.67,2.21.86,3.36.07.41.64.26.67-.09.06-.62-.05-1.24-.18-1.84Z"/>
      <path d="M21.54,87.05c-.13.02-.25-.09-.39-.17-.22-.12-.47-.18-.72-.23-.49-.09-.97-.16-1.45-.28-.83-.2-1.71-.38-2.42-.87-.39-.27-.95.18-.8.62.26.78.37,1.6.54,2.41.17.81.39,1.61.43,2.44.02.49.76.5.77,0,.02-.87-.15-1.73-.28-2.59-.07-.46-.12-.92-.18-1.38.53.21,1.08.35,1.64.49.51.13,1.03.19,1.54.3.49.1.93.45,1.47.32.26-.06.42-.34.39-.59-.04-.24-.26-.5-.53-.47Z"/>
      <path d="M13.03,76.56c-.33-.13-.62-.29-.93-.47-.38-.21-.78-.39-1.17-.57-.88-.41-1.81-.7-2.67-1.15-.42-.22-.95.24-.68.68.4.63.28,1.58.23,2.29-.03.48-.15.95-.21,1.44-.03.29-.02.58-.01.88,0,.28.01.6.09.87.1.35.61.35.71,0,.16-.57.03-1.19.13-1.77.09-.52.2-1.02.24-1.55.04-.46.07-.97.02-1.46.59.27,1.19.51,1.78.79.41.2.82.38,1.2.61.4.23.78.46,1.25.4.22-.03.37-.29.37-.49,0-.24-.16-.41-.37-.49Z"/>
      <g>
        <path d="M26.86,94.52s0,0,0,0c0,0,0,0,0,0Z"/>
        <path d="M30.67,93.45c-.17-.02-.34.05-.44.18-.09,0-.18,0-.26,0-.23-.01-.45.01-.67.07-.09.02-.18.05-.26.07-.04,0-.07.02-.11.02,0,0-.04,0-.05,0-.14.02-.29.02-.43,0-.53-.03-1.05-.11-1.58-.07-.29.02-.6.06-.82.27-.28.26-.24.66-.09.97.12.25.3.47.47.69,0,0,.02.02.02.03.02.04.05.08.07.12.09.17.15.34.24.51.19.37.51.65.75.98.15.2.27.41.43.6.13.15.31.27.41.44.25.37.88.15.74-.31-.11-.39-.39-.65-.6-.99-.21-.34-.48-.61-.72-.93-.2-.26-.27-.59-.43-.87-.1-.16-.23-.31-.34-.46.07,0,.13,0,.2,0,.52.02,1.04.11,1.56.08.38-.02.78-.2,1.13-.19.23,0,.47.04.69-.04.15-.05.32-.15.41-.29.08-.13.06-.28.08-.42.03-.23-.2-.44-.41-.46Z"/>
      </g>
      <path d="M16.18,81.87c-.44-.13-.91-.19-1.36-.3-.42-.1-.83-.21-1.25-.28-.33-.06-.71-.09-.99-.29-.32-.23-.59-.48-1.04-.39-.16.03-.29.18-.33.33-.12.44,0,.8.13,1.21.12.37.12.76.19,1.14.07.39.14.74.14,1.13,0,.42-.03.84,0,1.26.04.47.68.47.73,0,.08-.79.16-1.59,0-2.38-.08-.39-.07-.8-.15-1.19,0-.04-.02-.07-.03-.11,0,0,0,0,0,0,.37.17.78.22,1.18.29.42.07.83.18,1.25.26.44.09.93.22,1.38.21.52,0,.63-.76.12-.91Z"/>
      <path d="M9,69.69c-.13-.06-.28-.08-.41-.13-.17-.07-.34-.16-.49-.26-.32-.19-.62-.4-.92-.61-.16-.11-.31-.25-.46-.37-.09-.08-.19-.16-.29-.23-.09-.06-.19-.07-.29-.11-.18-.07-.23-.16-.35-.3-.15-.17-.33-.27-.54-.35-.18-.07-.44.04-.52.21-.32.66-.51,1.39-.64,2.12-.15.84-.26,1.7-.19,2.55.03.45.65.44.69,0,.08-.77.24-1.55.38-2.31.08-.45.19-.92.34-1.36.16.14.35.24.56.32.18.06.3.21.45.33.16.14.34.26.51.38.3.21.61.41.93.58.32.17.76.41,1.13.36.48-.06.56-.63.11-.82Z"/>
      <path d="M10.63,73.52c-.17-.4-.62-.5-1.01-.57-.19-.03-.38-.07-.57-.13-.18-.06-.34-.16-.51-.24-.35-.15-.73-.24-1.08-.4-.3-.13-.52-.39-.82-.52-.31-.14-.61-.03-.73.3-.16.42-.2.86-.23,1.31-.03.39-.13.76-.18,1.15-.06.42-.07.91-.03,1.33.02.23.07.44.17.65.08.15.2.28.19.45-.03.35.5.4.6.08.12-.36-.11-.65-.1-1.01.02-.42.02-.87.09-1.29.07-.42.17-.82.22-1.24.02-.17.04-.33.06-.48.08.06.16.11.25.16.35.18.75.27,1.11.43.39.18.74.35,1.17.41.38.06.83.18,1.21.07.21-.06.26-.27.18-.45Z"/>
      <path d="M13.97,78.72c-.25-.3-.75-.2-1.1-.19-.33,0-.67.02-.99-.03-.69-.11-1.33-.36-2.04-.16-.2.06-.31.23-.33.43-.08,1.26-.41,2.49-.4,3.76,0,.52.8.52.81,0,.02-1.14.33-2.25.45-3.38.51-.03,1.03.18,1.53.24.33.04.67.03,1.01.02.33-.01.83.06,1.06-.23.12-.15.12-.31,0-.46Z"/>
      <path d="M18.34,83.14c-.36-.01-.59.16-.9.3-.3.13-.67.04-.99.09-.3.05-.55.19-.86.18-.38-.01-.74-.06-1.12.03-.27.07-.46.42-.34.68-.05.61,0,1.2.05,1.82.03.35.02.7.04,1.05.02.38.06.76.1,1.14.03.35.51.35.54,0,.06-.72.13-1.43.12-2.15,0-.51-.08-1.08,0-1.6.08,0,.18.02.23.02.17,0,.35.03.52.03.18,0,.35-.03.52-.08.15-.04.29-.11.44-.13.34-.05.68.02,1.02-.09.22-.07.41-.22.61-.32.11.02.22,0,.29-.09.05-.06.1-.12.13-.19.17-.32-.04-.69-.4-.7Z"/>
      <path d="M24.85,89.03s-.02-.04-.03-.06c-.07-.16-.29-.22-.46-.17-.14,0-.29,0-.43-.01-.21-.02-.41-.04-.62-.02-.34.04-.66.22-1,.23-.36.01-.79.07-1.14-.01-.2-.05-.37-.15-.58-.17-.22-.02-.43.05-.65.04-.2,0-.4.14-.48.32-.08.21-.03.4.11.57.02.03.02.17.02.25,0,.16-.01.32,0,.48.03.38.15.72.23,1.09.15.69.48,1.33.61,2.02.03.15.19.23.33.21.16-.02.24-.14.26-.29.05-.41.01-.77-.08-1.17-.09-.37-.14-.73-.21-1.1-.07-.36-.16-.67-.13-1.04,0-.11.01-.22.01-.34.06.02.11.05.17.07.11.04.22.05.34.07.42.05.86.03,1.28,0,.2-.02.39-.05.57-.11.15-.05.31-.12.47-.13.47-.05.98.2,1.36-.19.15-.15.15-.35.07-.53Z"/>
      <path d="M26.83,91.59s-.03-.03-.05-.04c0,0,0,0,0,.01-.25-.31-.75-.31-1.12-.23-.35.08-.62.28-.9.48-.25.18-.44.37-.76.35-.21-.02-.43-.07-.62.04-.18.1-.33.28-.39.48-.09.34.11.57.18.87.05.2.02.41.04.61.02.23.08.42.18.63.16.3.33.57.46.88.15.35.27.71.35,1.07.07.34.63.27.61-.08-.05-.69-.2-1.43-.5-2.05-.06-.13-.13-.25-.16-.39-.04-.2,0-.42,0-.62,0-.15-.03-.29-.08-.43.16,0,.33,0,.49-.05.27-.08.51-.27.73-.43.2-.14.41-.32.66-.36.14-.02.29-.01.44-.04.09-.02.2-.04.28-.08.08-.04.11-.12.17-.17.12-.1.12-.35,0-.45Z"/>
      <path d="M34.86,94.94c-.57.16-1.05.51-1.59.73-.4.17-.8.38-1.21.51-.34.11-.71.13-1.01.34-.16.12-.31.34-.23.55.26.66.67,1.24,1.04,1.84.36.58.7,1.14,1.21,1.6.14.13.35.16.51.03.14-.11.22-.34.1-.5-.37-.49-.68-1.03-.98-1.57-.24-.42-.53-.82-.75-1.25.12-.03.25-.05.37-.08.37-.11.73-.3,1.08-.45.3-.12.59-.25.87-.39.25-.13.49-.27.76-.35.3-.09.73-.15.74-.56.01-.5-.57-.55-.92-.45Z"/>
      <path d="M66.31,100.39c-.18-.06-.38-.09-.57-.15-.19-.06-.38-.1-.57-.13-.08,0-.15-.02-.23-.03.14.02-.05-.01-.08-.02-.16-.04-.31-.1-.46-.15-.42-.14-.87-.19-1.3-.28.02-.03.05-.05.07-.08.25-.32.58-.54.86-.83.29-.29.46-.64.6-1.02.12-.32.21-.67.45-.93.37-.42-.23-1.04-.62-.62-.27.28-.43.62-.58.98-.12.28-.22.59-.43.82-.25.28-.58.48-.85.75-.2.21-.38.55-.66.65-.39.14-.54.72-.12.93.72.38,1.53.4,2.29.67.3.11.56.18.87.23.43.07.87.32,1.32.21h0c.1-.04.2-.09.27-.18.23-.29.07-.7-.27-.81Z"/>
      <path d="M54.4,103.12c-.22-.12-.34-.41-.54-.61-.3-.28-.69-.47-1.04-.68-.38-.22-.74-.27-1.16-.38-.1-.02-.19-.07-.28-.12.44-.29.9-.54,1.32-.86.3-.23.59-.47.84-.76.19-.23.32-.5.5-.72.13-.17.12-.47-.14-.52-.2-.04-.36-.03-.53.09-.15.1-.28.23-.39.37-.22.28-.5.51-.78.72-.66.49-1.4.84-2.05,1.35-.27.22-.14.64.1.8.14.1.27.23.4.34.19.15.39.26.62.34.19.06.39.08.59.12.21.05.37.15.55.26.35.2.63.38.89.6.33.28.69.43,1.1.25.23-.1.21-.47,0-.57Z"/>
      <path d="M45.79,103.3c-.32-.03-.52-.27-.71-.5-.19-.23-.36-.48-.56-.7-.4-.43-.92-.77-1.33-1.2.32-.17.62-.39.91-.6.54-.39.98-.88,1.4-1.4.43-.54-.34-1.15-.76-.58-.32.43-.67.86-1.1,1.19-.19.15-.39.29-.59.43-.16.11-.38.3-.58.33-.29.04-.58.35-.37.65.27.39.61.7.97,1,.33.27.71.5,1.03.78.27.24.54.48.86.65.27.14.59.33.89.16.1-.06.05-.2-.06-.21Z"/>
      <path d="M49.64,102.91c-.54-.09-.88-.62-1.31-.92-.36-.25-.74-.49-1.03-.81.12-.06.23-.13.34-.22.21-.19.37-.44.54-.66.37-.47.64-1.01,1.07-1.43.39-.39-.21-.98-.6-.6-.46.43-.75.99-1.15,1.47-.16.2-.31.45-.52.6-.11.08-.24.11-.35.18-.14.09-.25.2-.34.33-.09.13-.07.31,0,.45.36.65.96,1.03,1.59,1.38.5.28.89.79,1.47.88.01.01.02.03.03.04.13.16.41.06.45-.12.02-.08.03-.16.04-.24.02-.13-.12-.31-.25-.33Z"/>
      <path d="M59.38,102.76c-.2-.24-.51-.45-.8-.55-.18-.06-.36-.08-.55-.12-.19-.04-.36-.13-.54-.22-.32-.16-.65-.32-.92-.56-.11-.1-.21-.18-.32-.26.32-.4.68-.76.97-1.19.14-.21.28-.42.44-.62.12-.15.27-.36.44-.4.29-.07.29-.52,0-.59-.65-.15-1.15.58-1.48,1.03-.04.05-.08.11-.12.16-.01.01-.05.07-.06.08-.13.16-.27.31-.41.46-.31.33-.62.66-.87,1.03-.21.31.08.66.4.69.24.02.45.32.65.47.32.23.69.39,1.05.55.19.08.38.16.59.19.18.03.38.03.55.09.15.06.29.15.44.2.08.03.18.05.27.05.01,0,.27-.05.18-.04.28-.02.32-.35.09-.47Z"/>
      <path d="M62.44,101.32c-.28-.2-.61-.33-.93-.46-.29-.12-.58-.24-.87-.37-.13-.05-.26-.11-.39-.16.03-.05.05-.09.08-.15.13-.28.24-.56.42-.81.2-.27.3-.58.44-.86.16-.33.44-.61.4-1.01-.02-.2-.14-.37-.35-.4-.19-.02-.4.09-.44.29-.06.26-.28.49-.39.73-.13.27-.22.53-.4.77-.17.23-.28.47-.4.73-.09.19-.2.48-.37.55-.38.18-.21.69.11.81.65.24,1.26.55,1.91.79.28.11.55.21.81.38.25.16.64.45.85.07.19-.36-.2-.72-.47-.9Z"/>
      <path d="M71.11,99.6c-.07-.07-.15-.12-.25-.13,0,0,0,0,0,0-.08-.12-.14-.24-.25-.35-.33-.32-.72-.31-1.14-.36-.38-.05-.75-.25-1.11-.38-.23-.08-.46-.14-.69-.2.05-.05.1-.11.15-.16.26-.27.54-.51.79-.79.27-.31.42-.67.59-1.05.1-.22.15-.45.26-.67.03-.05.06-.09.07-.14,0-.02.04-.17.02-.09.03-.11.07-.19.07-.3.01-.19-.27-.26-.36-.1-.03.06-.03.07-.02.07,0,0,0,0-.02.01-.04.03-.12.03-.17.05-.11.05-.22.12-.31.2-.2.16-.36.37-.46.6-.09.2-.17.4-.28.58,0,0,0,.01-.01.02,0,0,0,0,0,0-.03.03-.05.06-.08.09-.06.07-.12.13-.19.2-.49.49-1.31,1.05-1.31,1.82,0,.21.16.45.37.49.48.09.96.17,1.42.34.43.15.84.34,1.3.37.14.01.3-.01.43.05.12.06.2.19.29.28.29.28.87.32,1.01-.14.03-.11,0-.23-.08-.31Z"/>
      <path d="M75.61,97.42c-.16-.15-.35-.17-.55-.23-.17-.05-.35-.12-.53-.16-.18-.04-.36-.04-.53-.1-.17-.05-.32-.12-.47-.2-.3-.16-.58-.38-.91-.49-.09-.03-.19-.05-.29-.06.01-.02.03-.04.04-.06.17-.26.25-.57.4-.84.14-.27.39-.46.55-.71.18-.27.28-.59.47-.86.26-.39-.35-.87-.65-.51-.22.27-.38.56-.56.85-.16.27-.42.46-.58.73-.16.28-.25.6-.43.87-.17.26-.41.48-.59.74-.18.26,0,.62.29.7.21.06.43.07.66.06.14,0,.35,0,.41.02.15.06.28.17.41.25.16.11.34.2.51.29.18.09.36.17.55.22.19.05.38.06.56.11.43.12,1.01.36,1.32-.12.1-.15.06-.38-.07-.51Z"/>
      <path d="M79.67,94.59c-.17-.23-.44-.25-.67-.12-.02,0-.03.01-.05.01-.03,0-.06,0-.09,0-.07,0-.13,0-.2,0-.04,0-.09,0-.13-.01,0,0-.04,0-.06,0-.02,0-.06,0-.07,0-.04,0-.09-.01-.13-.02-.07-.01-.14-.03-.22-.04-.14-.03-.27-.05-.41-.08-.15-.02-.29-.03-.44-.05-.22-.02-.43-.08-.64-.13-.2-.04-.39-.07-.58-.06,0-.01.02-.02.03-.03.2-.23.37-.46.48-.74.2-.49.4-1.02.77-1.42.28-.3-.09-.84-.46-.6-.3.2-.55.43-.73.74-.16.28-.28.59-.41.88-.1.24-.26.42-.44.61-.23.25-.42.51-.53.84-.05.16,0,.35.12.46.21.2.47.27.75.25.21-.01.42-.06.6-.03.27.05.52.15.79.19.07.01.21,0,.31.02,0,0,.02.01.04.02.03,0,.07.01.1.02.34.07.68.15,1.03.2.33.04.77.1,1.06-.12.25-.19.35-.49.15-.76Z"/>
    </g>
  </g>
</svg>