<?xml version="1.0" encoding="UTF-8"?>
<svg id="Layer_2" data-name="Layer 2" xmlns="http://www.w3.org/2000/svg" viewBox="0 0 105.43 103.95">
  <g id="OBJECTS">
    <g>
      <path d="M100.52,69.37l-.04-.17c-.02-.08-.07-.16-.13-.22-.06-.06-.13-.1-.22-.13-.01,0-.02,0-.04,0-.07-.02-.13-.02-.2,0-.02,0-.05,0-.07,0-.02,0-.04.02-.06.03-.02,0-.04.01-.06.03,0,0,0,0-.01,0-.02.01-.03.02-.05.03-.05.03-.09.06-.12.11-.04.04-.06.09-.08.14,0,.04,0,.07-.01.11,0,.08.02.15.06.21l.03.05s0,0,0,.01h0s.02.02.03.04c0,0,0,.02,0,.03.02.06.04.12.09.17.03.05.08.1.14.13.06.04.12.06.18.06.07.01.13.01.2,0,.04-.02.08-.03.12-.05.07-.04.13-.1.18-.18.02-.04.03-.08.05-.12.02-.09.02-.17,0-.26Z"/>
      <path d="M102.36,63.08c-.39,0-.39.6,0,.6s.39-.6,0-.6Z"/>
      <path d="M100.01,58.58s0,0,0-.01c0,0,0-.01,0-.02,0-.02,0-.04,0-.06,0-.05-.02-.1-.05-.15-.02-.03-.04-.05-.06-.08-.05-.05-.11-.08-.18-.1-.01,0-.02,0-.03,0,0,0,0,0,0,0,0,0,0,0-.01,0,0,0-.01,0-.02,0-.04,0-.08-.01-.12-.02,0,0-.01,0-.02,0,0,0-.02,0-.03,0-.04,0-.09,0-.14.02-.02,0-.09.03-.12.05,0,0,0,0,0,0-.01,0-.08.06-.09.07,0,0,0,0,0,0,0,0,0,0,0,0-.02.02-.06.07-.08.11,0,0,0,0,0,0-.01.03-.03.08-.05.11,0,0,0,0,0,0,0,0,0,0,0,.01,0,0,0,0,0,0,0,.04-.01.08-.02.13,0,0,0,.01,0,.02,0,.08.02.16.06.23.03.05.07.1.12.13.04.04.1.07.16.08.08.02.16.02.24,0,.04-.02.09-.03.12-.05.02,0,.04-.02.05-.04.02-.01.03-.03.05-.04,0,0,.01,0,.02-.01l.03-.03s.05-.03.07-.05c.04-.04.07-.09.09-.14.02-.04.03-.09.03-.13,0,0,0-.01,0-.02,0,0,0,0,0,0Z"/>
      <path d="M103.46,54.03c-.17-.35-.48-.59-.83-.72,0,0-.02-.01-.03-.02-.05-.04-.1-.06-.15-.09-.25-.12-.51-.21-.79-.19-.26.01-.52.07-.74.22-.28.18-.52.47-.59.8-.01.07-.02.13-.03.2-.02.04-.04.08-.06.12-.07.16-.14.32-.18.49-.04.18-.07.37-.08.55-.02.36.06.71.22,1.04.07.15.19.29.31.4.2.18.44.34.71.39.26.05.51.06.77-.02.12-.04.23-.08.32-.14.25-.09.48-.23.67-.42.25-.24.38-.5.5-.82.1-.26.14-.54.16-.81.03-.34-.04-.68-.19-.99Z"/>
      <path d="M99.99,51.63c0-.05-.01-.11-.02-.16-.02-.08-.05-.15-.11-.2-.05-.07-.08-.11-.17-.16,0,0,0,0,0,0h-.03s0-.02-.01-.02c-.07-.04-.15-.07-.23-.07-.05-.01-.11-.01-.16,0-.05,0-.09.02-.13.04-.06.01-.11.03-.16.06l-.11.09c-.05.05-.09.11-.11.18-.03.04-.04.09-.04.14-.02.07-.01.15,0,.22.02.05.04.09.06.14.01.02.02.03.04.05,0,0,0,0,0,0,.03.04.06.07.09.11.02.04.05.08.09.12.07.07.16.12.25.15.1.03.2.03.3,0,.1-.03.18-.08.25-.15,0,0,0,0,0,0,.02-.02.05-.06.05-.06,0-.01.03-.04.05-.06,0,0,0,0,0-.01.02-.05.05-.1.06-.15,0,0,0-.01,0-.02,0-.06.02-.12.02-.18,0,0,0-.02,0-.02,0,0,0,0,0,0Z"/>
      <path d="M100.26,31.4c-.03-.1-.08-.19-.16-.27-.1-.08-.2-.16-.31-.22-.08-.04-.16-.08-.24-.1-.03-.01-.07-.02-.11-.02,0,0,.01,0,.02,0,0,0-.01,0-.02,0-.05,0-.1-.01-.15-.02h.05c-.11,0-.2,0-.32.03-.03,0-.07.03-.1.04-.03.01-.07.03-.1.04,0,0,0,0,0,0-.04.03-.09.07-.13.1-.03.03-.09.11-.11.14,0,0-.01.02-.01.03-.03.06-.06.12-.08.18,0,0,0,.02,0,.03-.01.06-.02.13-.03.2,0,0,0,.01,0,.02,0,0,0,0,0,.01,0,.06.02.11.02.17.03.12.1.23.19.31.04.03.08.07.12.09.13.07.28.1.43.06,0,0,.02,0,.02-.01,0,0,0,0,0,0,.03-.01.05-.02.08-.03,0,0,0,0,0,0,.01,0,.02-.01.04-.02-.01,0-.02.01-.04.02.03-.01.06-.03.09-.05.06.03.12.05.19.06.08.02.16.01.24-.01.05-.02.1-.04.15-.06.07-.04.13-.09.17-.16.04-.04.06-.08.08-.14.04-.07.06-.15.05-.24,0-.05-.01-.11-.02-.16Z"/>
      <path d="M103.13,40.91c-.04-.19-.12-.36-.24-.52-.16-.21-.34-.4-.53-.58-.18-.17-.37-.29-.61-.38-.22-.07-.46-.1-.68-.1-.51-.02-.98.15-1.33.53-.25.26-.47.57-.67.87-.24.37-.45.79-.45,1.24,0,.5.27.96.54,1.36.25.37.54.73.93.96.47.27,1.01.32,1.54.2.49-.12.94-.39,1.32-.72.39-.33.66-.8.73-1.3.08-.58-.13-1.14-.54-1.55Z"/>
      <path d="M103.31,38.12c-.03-.11-.08-.2-.16-.28-.04-.03-.08-.07-.13-.1-.1-.06-.2-.09-.32-.09-.02,0-.04,0-.05,0-.09,0-.17.01-.24.05-.08.03-.15.07-.2.13-.06.06-.11.13-.13.2-.04.08-.06.16-.05.24,0,.06.01.11.02.17.03.11.08.2.16.28.04.03.09.07.13.1.1.06.2.09.32.09.02,0,.04,0,.05,0,.09,0,.17-.01.24-.05.08-.03.14-.07.2-.13.06-.06.1-.12.13-.2.04-.07.06-.15.05-.24,0-.06-.01-.11-.02-.17Z"/>
      <g>
        <path d="M32.57,9.07c-.05-.53-.23-1.01-.5-1.47-.11-.18-.23-.34-.37-.49-.09-.12-.19-.24-.3-.33-.4-.36-.94-.65-1.5-.61-.54.04-1.01.3-1.38.68-.33.34-.57.73-.75,1.16-.06.15-.12.3-.16.46-.14.39-.18.81-.08,1.23,0,0,0,0,0,0,0,.01,0,.02,0,.03,0,.03.02.06.03.08.23.81.9,1.43,1.74,1.63.47.12.97.12,1.44,0,.48-.12.97-.41,1.28-.79.37-.45.61-1.01.55-1.61Z"/>
        <path d="M35.98,6.38s0-.04-.02-.07c-.06-.19-.16-.37-.31-.5-.05-.04-.11-.08-.17-.12-.04-.04-.08-.08-.12-.11-.05-.05-.12-.09-.19-.11-.1-.05-.21-.08-.33-.07-.06,0-.12,0-.18,0-.24.03-.36.05-.58.16-.09.05-.16.12-.24.18-.02.02-.04.04-.06.06-.08.09-.17.2-.23.31-.12.23-.2.49-.2.76,0,.23.06.39.16.59.01.03.03.05.04.07.06.08.11.17.18.23.06.04.11.09.17.13.1.06.2.09.31.1.07.02.15.02.22,0,.1,0,.2-.04.28-.09.25-.02.48-.11.67-.29.04-.04.08-.08.11-.13.22-.15.39-.37.45-.62.02-.09.04-.18.03-.27,0-.07-.02-.15-.03-.22Z"/>
        <path d="M39.82,7.09s0,0,0,0c0-.04,0-.07,0-.11-.02-.18-.03-.28-.13-.44-.04-.08-.1-.16-.17-.22-.12-.11-.25-.2-.41-.24-.05-.01-.1-.02-.15-.02-.05,0-.1-.02-.15-.02-.1,0-.21.02-.31.04-.02,0-.03,0-.05.01-.08.03-.16.06-.23.1-.09.04-.17.11-.24.17-.06.05-.12.15-.16.19-.01.01-.02.03-.03.05-.02.03-.03.08-.04.1-.01.02-.03.07-.04.1,0,0,0,.02,0,.03,0,0,0,0,0,.01-.03.1-.04.21-.01.31,0,.1.04.2.09.29.04.06-.15-.09.12.16.04.03.12.1.16.13.12.07.24.1.38.1,0,0,.01,0,.02.01,0,0,.02.01.03.02.03.02.07.03.09.04.01,0,.06.03.09.04.03,0,.1.01.1.01.03,0,.07.01.11.01.01,0,.02,0,.03,0,.06,0,.13-.02.19-.03,0,0,.01,0,.02,0,.01,0,.02,0,.03,0,.06-.02.12-.05.17-.07,0,0,.01,0,.02,0,.07-.04.14-.09.19-.15.06-.06.11-.13.15-.2.03-.06.05-.12.08-.18,0,0,0-.01,0-.02,0,0,0-.01,0-.02,0-.01,0-.02,0-.04,0-.05.02-.11.02-.16,0,0,0,0,0,0Z"/>
        <path d="M39.1,3.11c-.03-.11-.09-.21-.17-.29-.04-.03-.09-.07-.13-.1-.1-.06-.21-.09-.33-.09-.06,0-.12.02-.18.02-.09.02-.16.06-.22.12-.06.04-.11.09-.15.15,0,0-.01,0-.02.01-.05.05-.08.1-.1.16-.03.06-.05.12-.04.19,0,.04.01.09.02.13.02.08.07.16.13.22,0,0,.02.01.03.02.02.03.05.06.07.09.06.06.13.11.21.14.08.04.16.06.25.06.09,0,.18-.02.25-.06.08-.03.15-.07.21-.14.06-.06.11-.13.14-.21.04-.08.06-.16.06-.25,0-.06-.02-.12-.02-.18Z"/>
        <path d="M43.39,4.1s0-.04-.01-.06c-.03-.09-.07-.17-.1-.25-.01-.02-.02-.04-.03-.06-.05-.08-.11-.15-.17-.22-.08-.09-.19-.16-.28-.23-.04-.03-.09-.06-.13-.08-.11-.05-.22-.11-.34-.14-.11-.03-.23-.04-.35-.05-.14-.02-.3.01-.43.04-.03,0-.05.01-.08.03-.09.04-.2.07-.29.13-.04.03-.08.06-.12.09-.04.03-.09.06-.12.1-.06.07-.11.14-.17.21,0,.01-.02.02-.02.03-.07.11-.12.23-.15.36-.02.1-.03.21-.04.32,0,.03,0,.05,0,.08,0,.11.02.22.04.32,0,.03.01.05.02.08.03.1.08.2.12.29.01.02.02.05.04.07.05.09.12.17.19.25.02.02.04.04.06.06,0,0,.02.02.03.03.07.06.14.12.22.17.02.02.05.03.07.04.08.04.17.08.26.11.01,0,.03,0,.04.01.05.01.11.02.16.03.06,0,.11.02.17.02.01,0,.03,0,.04,0,.1-.01.19-.02.29-.04.03,0,.07-.02.1-.03.11-.04.21-.08.31-.13.02,0,.03-.02.05-.03,0,0,.01,0,.02-.01.03-.02.06-.05.09-.07.07-.04.12-.09.16-.16,0,0,.05-.06.07-.1.03-.07.06-.14.09-.21,0,0,0-.02,0-.03.03-.04.06-.07.08-.1.05-.07.08-.16.11-.24,0-.02.02-.05.02-.07.02-.08.03-.17.03-.26,0-.09-.02-.18-.03-.27Z"/>
        <path d="M51.01,2.37c-.05-.22-.12-.46-.23-.65-.16-.28-.39-.42-.65-.6.07.05.14.11.21.16-.32-.25-.57-.43-.95-.57-.24-.09-.51-.13-.77-.12-.61.02-1.13.27-1.59.66-.32.27-.58.64-.75,1.02-.1.23-.2.45-.24.7-.06.36-.06.62,0,.98.08.51.44,1,.89,1.25.35.19.75.27,1.14.25.02,0,.04.01.06.02.44.09.87.08,1.31-.03.42-.1.82-.32,1.13-.62.38-.36.51-.8.55-1.31.03-.37-.02-.77-.1-1.14Z"/>
        <path d="M25.28,10.43c-.22-.45-.74-.76-1.25-.73-.28.02-.52.08-.76.21-.17.09-.33.22-.48.35-.08.07-.16.15-.23.24-.11.14-.24.28-.32.44-.15.29-.21.55-.24.88-.01.16.01.34.05.5.05.25.19.44.35.63.15.18.39.32.62.38.08.02.2.03.29.04.02,0,.04,0,.06,0,.11,0,.23-.02.34-.05.35-.12.66-.32.86-.64.02-.02.03-.04.04-.06.03-.02.07-.03.1-.05.13-.07.25-.16.35-.27.17-.19.26-.34.34-.58.15-.42.06-.88-.12-1.27Z"/>
        <path d="M26.8,14.72c0-.09-.03-.17-.08-.24-.05-.07-.11-.16-.18-.22-.05-.05-.11-.09-.17-.14-.04-.02-.08-.04-.12-.05-.11-.05-.2-.08-.33-.07-.09,0-.15.01-.21.03-.16.03-.32.12-.43.24-.06.07-.12.15-.18.23-.02.03-.05.07-.07.1-.06.09-.09.2-.13.3,0,.06-.02.13-.03.19,0,.1.02.19.06.28.02.06.05.12.09.16.05.08.12.14.21.19.06.02.12.05.17.07.06,0,.13.02.19.03.1,0,.19-.02.28-.06.05-.02.09-.04.13-.06.06,0,.11,0,.17-.02.05-.02.1-.04.15-.06.09-.05.16-.13.22-.22.03-.06.07-.12.11-.18.02-.03.04-.05.06-.08.05-.07.07-.16.08-.24.02-.06.02-.12,0-.17Z"/>
        <path d="M21.58,15.59c-.08-.19-.16-.37-.3-.53,0-.01,0-.03,0-.04-.03-.26-.26-.47-.52-.46-.11,0-.22.02-.33.03-.15-.03-.3-.05-.46-.04-.32.03-.56.09-.86.23-.14.07-.26.17-.37.26-.06.05-.11.11-.16.17-.24.3-.45.64-.45,1.04,0,.11.02.23.04.33,0,.02.01.04.02.07.09.25.21.45.45.59.07.04.15.07.23.09.16.31.46.53.79.64.36.12.73.05,1.06-.11.29-.13.53-.4.69-.68.09-.16.17-.35.21-.53.03-.13.05-.26.06-.39,0-.06,0-.11,0-.17,0-.18-.03-.36-.1-.52Z"/>
        <path d="M23.8,17.69c-.03-.09-.07-.17-.14-.23-.05-.05-.1-.09-.17-.11-.06-.03-.13-.05-.2-.05-.1,0-.18.02-.27.07-.08.05-.14.11-.19.19l-.06.09-.03.05s0,.01-.01.02c-.02.04-.04.06-.05.12v.06s-.02.09,0,.13c0,.02,0,.04,0,.06l.05.12s0,0,0,0c0,0,0,0,0,.01.02.03-.03,0,.07.09,0,0,.08.07.09.07,0,0,0,0,0,0h0s.04.02.06.03c.02,0,.04.02.06.02.04,0,.09.01.13.02.04,0,.09-.01.13-.02l.12-.05s0,0,.01,0c.02-.01.03-.02.05-.03.04-.02.07-.05.11-.07.08-.05.14-.11.19-.19.05-.08.07-.17.07-.27l-.02-.14Z"/>
        <path d="M14.3,18.89c-.02-.07-.06-.13-.12-.18-.04-.03-.08-.06-.11-.09-.06-.04-.13-.06-.21-.07-.07-.02-.15-.01-.22.01-.04.02-.09.04-.13.06-.07.04-.12.08-.16.14-.05.05-.08.12-.1.19,0,0,0,.02,0,.03-.02.03-.04.06-.06.09-.02.04-.03.07-.05.11-.02.06-.02.12,0,.18,0,.04.01.08.03.12.02.06.05.11.1.15.03.02.06.05.09.07.04.02.07.03.11.05.06.02.12.02.18,0,.06,0,.12-.02.17-.06l.09-.06s.02,0,.03,0c.04-.02.09-.04.13-.06.07-.04.12-.08.16-.14.05-.05.08-.12.1-.19l.02-.15c0-.08-.01-.15-.05-.22Z"/>
        <path d="M36.67,9.21c-.04-.07-.09-.12-.16-.16-.04-.02-.07-.05-.11-.07-.08-.04-.16-.07-.25-.07-.09,0-.17.02-.25.07-.03.03-.07.05-.1.08-.06.06-.1.13-.13.22-.02.06-.02.13,0,.19,0,.06.02.13.06.18.03.06.08.1.14.14.01.02.02.04.04.06,0,.01.02.02.04.03.05.04.06.05.13.07.07.02.14.02.21,0,0,0,.01,0,.02,0,.05-.01.09-.03.13-.06l.08-.06c.07-.04.12-.09.16-.16.04-.07.06-.15.06-.23,0-.08-.02-.16-.06-.23Z"/>
        <path d="M56.6,7.06c-.01-.06-.04-.12-.07-.17-.03-.05-.07-.1-.11-.14-.04-.04-.09-.08-.14-.11-.09-.05-.2-.09-.3-.09-.07,0-.13.01-.19.02-.03,0-.05.01-.07.02-.01,0-.02,0-.04.01-.04.01-.08.03-.12.05-.07.04-.13.1-.17.17,0,0,0,0,0,.01-.01.02-.01.04-.02.07,0,.02-.01.03-.02.05,0,0,0,.02,0,.03,0,0,0,.02,0,.02-.01.06-.01.12,0,.18.02.04.03.07.05.11.04.07.09.12.16.16,0,0,.01,0,.02,0,.01,0,.03.01.04.02.13.09.28.16.43.21.08.02.17.02.25,0,.06-.01.11-.04.16-.08.05-.03.09-.08.12-.13.04-.07.06-.15.06-.24,0-.06,0-.13-.03-.19Z"/>
        <path d="M57.83,2.68c-.02-.13-.08-.26-.14-.38-.06-.13-.16-.24-.25-.35-.14-.16-.32-.31-.5-.42-.12-.07-.25-.12-.37-.17-.06-.02-.11-.04-.18-.05-.28-.05-.53-.05-.81.02-.18.05-.37.13-.53.23-.16.11-.32.23-.44.38-.08.1-.17.21-.23.32-.07.12-.12.26-.17.39-.07.19-.1.4-.11.6,0,.21.02.44.09.64.1.29.25.57.48.77.11.1.23.2.36.26.13.07.28.13.42.16.26.05.45.05.71,0,.04,0,.08-.02.12-.03.1-.04.2-.07.29-.13.22-.13.39-.33.49-.56.11-.07.22-.15.3-.25.12-.15.25-.31.33-.48.05-.1.1-.21.13-.32.05-.23.04-.42,0-.65Z"/>
        <path d="M62.1.79c-.02-.09-.06-.18-.11-.27-.08-.15-.23-.3-.38-.39-.17-.09-.27-.11-.46-.13-.03,0-.05,0-.08,0-.08,0-.19.02-.28.04-.09.03-.18.07-.26.11-.02.01-.05.03-.07.04-.08.05-.15.11-.22.18-.02.02-.04.04-.05.06-.06.07-.12.14-.17.22-.1.17-.14.33-.15.52,0,.09,0,.18.04.27.06.18.11.26.23.4.06.07.14.13.22.17.07.04.15.08.23.09.08.01.16.02.23.03,0,0,.02,0,.03,0,0,0,.02,0,.03,0,0,0,.01,0,.02,0,0,0,0,0,.01,0,.07,0,.14-.02.21-.03.18-.04.34-.17.44-.32.09-.01.18-.04.25-.08.11-.06.19-.15.26-.26.07-.11.1-.23.1-.36-.01-.1-.02-.21-.05-.31Z"/>
        <path d="M65.08,2.24c-.02-.06-.06-.12-.1-.16-.06-.06-.14-.11-.22-.13-.09-.02-.18-.02-.27,0-.03,0-.06,0-.1.01-.02,0-.03,0-.05,0,0,0-.01,0-.02,0,0,0,0,0-.01,0-.07.01-.17.08-.22.13-.05.04-.08.09-.1.15-.03.06-.04.12-.04.18,0,.04.01.08.02.13.02.08.06.15.12.21.03.03.06.06.1.08.04.02.08.03.11.05,0,0,0,0,.01,0,0,0,.02,0,.02,0,.02,0,.03,0,.05,0h.1c.09.04.18.04.27.01.09-.02.16-.07.22-.13.03-.03.05-.07.08-.1.05-.08.07-.16.07-.26,0-.07-.01-.13-.04-.19Z"/>
        <path d="M63.95,4.76c-.01-.1-.02-.21-.05-.3-.03-.1-.07-.19-.11-.28-.12-.25-.33-.44-.56-.6-.12-.08-.26-.13-.39-.18-.08-.03-.16-.05-.25-.07-.12-.02-.25-.05-.38-.03-.13.01-.26.03-.38.07-.23.08-.41.18-.6.32-.19.14-.34.3-.46.5-.01.02-.03.04-.04.07-.04.09-.09.18-.12.28,0,.02-.01.05-.01.07-.01.08-.03.18-.03.26,0,.08.02.18.04.26.02.09.07.18.11.27.01.02.02.04.04.06.04.06.09.11.13.17.08.08.17.14.27.18.04.02.07.04.11.04.07.1.14.19.24.27.17.15.31.23.53.31.1.03.21.04.31.05.07,0,.14,0,.21-.02.08-.01.15-.02.22-.04.1-.04.21-.08.3-.14.14-.1.28-.21.4-.34.19-.22.36-.46.43-.75.03-.1.04-.21.04-.31,0-.04,0-.07,0-.11Z"/>
        <path d="M69.91,5.14c-.03-.24-.11-.47-.25-.67-.33-.46-.8-.84-1.39-.84-.49,0-.91.26-1.27.58-.1.09-.2.18-.29.27-.05.05-.09.09-.13.14-.09.11-.19.22-.25.35-.1.22-.16.39-.16.64,0,.13.02.27.06.4.04.13.1.27.18.39.07.12.16.24.26.33.1.09.22.19.35.24.09.04.19.09.29.12.18.05.35.04.53,0,.18-.04.36-.14.49-.28.13,0,.26,0,.41-.04.19-.04.38-.12.53-.23.2-.14.39-.31.51-.54.14-.27.18-.55.14-.85Z"/>
        <path d="M68.83,1.47c-.71,0-.71,1.1,0,1.1s.71-1.1,0-1.1Z"/>
        <g>
          <path d="M17.47,19.86c-.09-.2-.26-.35-.44-.47-.2-.13-.39-.16-.61-.19-.03,0-.05,0-.08,0-.1,0-.2.02-.3.04-.04,0-.07.01-.11.03-.11.04-.22.08-.32.14-.04.02-.07.04-.1.06-.13.09-.26.19-.36.31-.07.09-.15.18-.21.29-.04.07-.08.17-.1.25,0,0,0,.02,0,.03,0,.02,0,.04-.01.06-.01.08-.03.18-.03.26,0,0,0,.01,0,.02,0,.04.01.1.02.13,0,.08.02.16.06.23.04.11.1.21.19.3.05.04.14.12.19.15.02.01.03.02.04.02,0,0,0,0,0,.01.11.16.21.26.37.36.1.06.22.11.34.14.11.03.23.05.35.04.22-.02.32-.04.51-.14.2-.1.36-.29.48-.48.09-.14.15-.3.19-.45.04-.16.07-.32.09-.49.02-.23-.06-.44-.15-.64Z"/>
          <path d="M16.39,19.2s.02,0,.03,0h0s-.02,0-.03,0Z"/>
          <path d="M16.42,19.2c.07,0,.14.02.21.03-.07-.01-.14-.02-.21-.03Z"/>
        </g>
        <path d="M14.06,23.28c-.15-.3-.38-.57-.65-.77-.37-.28-.8-.38-1.25-.27-.16.04-.32.12-.47.2-.1.05-.21.11-.31.17-.29.19-.51.4-.7.68-.14.21-.24.46-.3.71-.07.26-.12.55-.1.82.03.36.11.73.33,1.03.26.36.6.64,1.04.75.42.11.89.08,1.27-.15.21-.13.33-.29.46-.49.06-.1.1-.2.13-.31.08-.06.15-.12.22-.19.24-.25.44-.59.5-.93.08-.43.03-.83-.16-1.23Z"/>
        <path d="M73.71,7.47c-.01-.08-.06-.17-.09-.23,0-.02-.02-.03-.03-.05-.11-.16-.15-.2-.31-.31-.07-.05-.16-.08-.24-.1-.08-.02-.16-.03-.23-.03-.01,0-.03,0-.04,0,0,0-.01,0-.02,0-.07,0-.15.02-.22.03-.02,0-.04,0-.05.01-.13.04-.24.1-.33.2-.09.09-.16.21-.2.33-.02.1-.03.19-.03.29,0,.03,0,.07,0,.11-.06.14-.08.29-.04.44,0,.01,0,.02.01.03,0,0,0,.01,0,.02.02.05.05.11.07.16.02.04.07.1.11.14.01.01.02.02.04.03.06.05.13.11.2.15,0,0,0,0,.01,0,.06.03.12.05.17.07.01,0,.02,0,.03.01.08.02.16.03.24.03.16,0,.31-.04.45-.13.15-.1.22-.18.33-.32.01-.02.02-.04.03-.05.04-.07.07-.15.09-.22.01-.04.03-.08.04-.12.02-.08.03-.17.03-.25,0-.08-.02-.17-.03-.25Z"/>
        <path d="M79.57,6.23c-.07-.27-.21-.52-.4-.72-.2-.22-.46-.34-.73-.44-.21-.08-.43-.1-.65-.12-.22-.01-.45.02-.66.07-.29.07-.52.21-.74.4-.23.19-.42.51-.48.81-.05.29-.05.44,0,.74.03.15.1.3.17.44.14.28.39.51.65.68.13.09.29.15.44.2.11.04.26.05.38.05.05,0,.09,0,.14-.01,0,0,.02,0,.03,0,.17.01.34-.02.51-.05.08-.01.17-.04.25-.07.15-.06.31-.12.44-.21.22-.16.35-.28.5-.51.14-.23.18-.45.21-.71.02-.18-.01-.36-.06-.53Z"/>
        <path d="M77.9,12.04s0-.02,0-.04c0,0,0-.01,0-.02,0-.09-.02-.17-.06-.25-.01-.03-.02-.06-.03-.08-.06-.1-.13-.17-.23-.23-.07-.05-.15-.07-.24-.08-.02,0-.04-.02-.06-.03,0,0,0,0-.01,0,0,0-.02,0-.02,0-.05,0-.12-.02-.17-.02,0,0,0,0-.01,0,0,0-.02,0-.03,0-.07,0-.15.01-.22.03-.08.02-.15.06-.22.09-.04.03-.09.07-.13.1-.06.06-.11.13-.13.21-.03.05-.04.11-.04.16-.02.09-.02.17.01.26.02.06.05.12.08.18,0,0,0,.02.01.02,0,0,0,.01.01.02.03.05.08.1.12.15.01.01.02.02.03.03.05.04.11.09.17.13.03.02.07.03.1.04.03.01.07.03.1.04,0,0,.02,0,.02,0,.06.01.13.02.2.03.02,0,.03,0,.05,0,.07,0,.16-.02.2-.03.07-.01.13-.04.18-.08.21-.11.34-.35.33-.58,0-.03,0-.05,0-.08Z"/>
        <path d="M83.51,11.62c-.03-.19-.12-.37-.21-.54-.1-.19-.23-.36-.37-.53-.26-.33-.64-.59-1.05-.7-.28-.08-.6-.08-.88,0-.28.09-.55.24-.75.46-.13.14-.22.29-.3.45-.08.09-.15.19-.2.31-.16.33-.25.68-.23,1.06.03.41.14.79.38,1.13.13.18.26.36.44.5.25.2.45.33.75.44.28.1.58.09.86.04.1-.02.18-.06.27-.1.1-.04.19-.08.27-.14.34-.24.63-.55.8-.93.08-.19.17-.38.21-.59.06-.33.06-.54,0-.86Z"/>
        <path d="M13.75,29.51s0-.02,0-.02c-.05-.21-.24-.4-.45-.45-.04-.01-.09-.01-.13-.02-.04,0-.09-.01-.13-.01-.01,0-.03,0-.04,0-.07,0-.14.02-.22.03-.03,0-.06.02-.09.03-.08.03-.17.07-.25.11-.03.02-.06.03-.08.05-.01,0-.03.02-.04.03-.06.04-.12.08-.17.14-.08.1-.15.19-.22.3-.05.08-.08.17-.08.26-.02.09-.02.19.01.28.02.06.05.11.07.17.04.08.11.15.18.2.04.04.1.07.16.09.08.04.18.06.27.06.06,0,.13-.02.19-.03.09-.02.17-.07.24-.12.01,0,.03.01.04.02.05,0,.1.01.15.02.1,0,.2-.03.29-.08.12-.08.23-.2.27-.35.01-.05.02-.1.02-.15,0-.05.01-.1.02-.15,0-.03,0-.07,0-.1.02-.11.03-.21,0-.32Z"/>
        <path d="M5.25,35.26c-.04-.05-.08-.11-.12-.15-.01-.01-.03-.02-.05-.04-.03-.04-.06-.06-.12-.11-.01,0-.02-.02-.03-.02-.05-.03-.1-.04-.15-.06-.01,0-.02,0-.04-.01-.05-.01-.11-.02-.17-.02-.06,0-.12.01-.17.02-.07.01-.13.04-.19.07-.02.01-.04.02-.07.04-.04.03-.09.07-.13.11-.04.04-.08.09-.11.14,0,.01-.01.02-.02.04-.02.05-.05.11-.07.16,0,.01,0,.03-.01.04-.02.11-.03.21,0,.32.03.09.07.17.14.23.06.06.13.1.2.12.02,0,.04.02.06.03.04.01.08,0,.12,0,0,0,0,0,0,0,0,0,0,0,.01,0,.02,0,.03,0,.05,0,.04,0,.07,0,.11-.03,0,0,0,0,.02,0,0,0,.02,0,.03,0,.03,0,.05-.02.07-.03.02,0,.03.01.05.01.04,0,.07,0,.11,0,.05,0,.1-.02.15-.05.02,0,.04-.02.07-.04.05-.03.1-.07.14-.11.06-.06.12-.13.15-.21.04-.07.06-.14.06-.22,0-.08-.02-.15-.06-.22Z"/>
        <g>
          <path d="M9.32,29.79c-.1-.27-.22-.5-.44-.7-.22-.2-.47-.36-.76-.44-.27-.08-.6-.08-.86.01-.27.09-.52.23-.72.44-.22.23-.34.46-.45.75-.02.06-.04.13-.05.19-.03.15-.06.31-.06.47,0,.14.03.28.05.42,0,.05.02.1.04.15.05.12.09.25.16.36.05.09.12.18.19.26.05.11.11.2.2.29.15.15.3.22.49.29.17.06.34.08.52.07.17,0,.35-.03.51-.08.42-.12.75-.38.99-.75.11-.17.18-.36.23-.55.05-.2.08-.41.06-.61-.01-.2-.03-.4-.1-.59Z"/>
          <path d="M7.14,32.31s-.03-.01-.04-.02h0l.04.02Z"/>
          <path d="M7.1,32.29c-.06-.02-.11-.05-.17-.07.06.03.11.05.17.07Z"/>
        </g>
        <path d="M83.79,16.19s0,0,0,0c-.01-.04-.02-.08-.05-.12-.03-.04-.05-.07-.08-.11-.03-.03-.07-.06-.1-.08,0,0,0,0,0,0,0,0,0,0,0,0-.04-.02-.08-.04-.12-.05-.05-.01-.1-.02-.15-.02-.04,0-.09,0-.13.02,0,0,0,0,0,0-.04.02-.08.03-.12.05-.02.01-.04.03-.05.04-.01,0-.03.01-.04.02l-.11.09c-.07.07-.12.15-.15.25,0,.02,0,.03-.01.05,0,.06-.02.13-.02.19,0,.05.01.1.02.15.02.07.05.13.1.19.02.04.06.07.1.1.05.05.12.08.19.1.05,0,.1.01.15.02.05,0,.1-.01.15-.02.07-.02.13-.05.19-.1.06-.04.11-.09.14-.15.01-.03.03-.06.05-.08.02-.05.04-.09.06-.14,0-.02,0-.04.01-.07,0-.01,0-.03.01-.04,0,0,0,0,0,0,.01-.05.02-.09.02-.14,0-.05,0-.09-.02-.14Z"/>
        <path d="M90.8,16.97s-.04-.09-.05-.13c-.03-.05-.06-.08-.1-.12-.03-.02-.06-.04-.08-.06,0,0,0,0-.02-.01-.05-.03-.1-.07-.15-.1-.06-.04-.12-.06-.19-.06,0,0-.01,0-.02,0,0,0-.01,0-.02,0-.1-.03-.23-.03-.33,0-.05.02-.11.04-.16.07-.08.05-.14.11-.18.19-.04.06-.06.12-.06.19-.02.07-.01.14,0,.21.02.09.07.16.13.23.01.01.03.03.04.04.08.08.1.08.19.12.04.02.05.02.08.03.01,0,.02,0,.04,0,.04.01.08.02.12.04.03.01.06.03.1.04.07.02.14.03.22,0,.07,0,.14-.02.2-.06.04-.03.07-.06.11-.09.05-.05.09-.11.11-.18.02-.04.04-.09.04-.14.02-.07.01-.14,0-.22Z"/>
        <path d="M87.16,13.71c-.05-.08-.11-.16-.18-.23-.01-.01-.03-.03-.04-.04-.06-.05-.13-.1-.2-.15-.03-.02-.06-.04-.09-.05-.03-.01-.07-.03-.1-.04,0,0,0,0-.01,0-.07-.03-.13-.06-.2-.08-.08-.02-.15-.03-.23-.03-.05,0-.1.01-.14.02-.06,0-.12,0-.17.03-.07.03-.18.06-.25.11-.05.04-.13.09-.18.14,0,0,0,0,0,0-.06.06-.11.13-.15.19-.11.17-.14.35-.15.55,0,.02,0,.03,0,.05,0,.04,0,.08.02.12,0,.04,0,.08.02.12.04.14.11.27.22.37l.17.13s.01,0,.02,0c.06.03.14.07.2.08.11.03.21.04.32.01.05,0,.09-.01.14-.02.16.04.34.03.49-.06.02-.01.04-.03.05-.04.04-.01.09-.03.13-.06.1-.06.11-.07.15-.12.04-.06.09-.11.13-.17.02-.03.03-.05.05-.08.07-.11.1-.24.1-.37,0-.13-.03-.26-.1-.37Z"/>
        <path d="M16.8,25.5c0-.05-.01-.1-.02-.15,0,0,0,0,0,0-.02-.04-.03-.08-.05-.12-.03-.03-.05-.07-.08-.1-.06-.07-.15-.1-.23-.13-.03-.01-.06-.02-.09-.03-.01,0-.03-.01-.04-.02-.08-.03-.2-.02-.28,0,0,0-.01,0-.02,0-.16.05-.29.18-.34.34-.02.09-.02.17,0,.26,0,.01.01.02.01.03,0,.04,0,.07,0,.11,0,.06.02.12.05.17.02.03.05.06.07.09.06.06.13.1.2.12.06.01.12.02.18.03.02,0,.03,0,.05,0,.05,0,.1-.01.15-.02,0,0,.01,0,.02,0,0,0,0,0,0,0,.03-.01.09-.04.12-.05,0,0,0,0,0,0,.04-.02.08-.06.11-.08,0,0,0,0,.01-.01.03-.03.06-.07.08-.11.02-.04.04-.09.05-.13,0,0,0-.01,0-.02,0-.05.02-.1.02-.15,0,0,0-.02,0-.02Z"/>
        <path d="M49.72,97.84c0-.05,0-.1-.02-.15-.01-.05-.03-.1-.06-.13-.03-.06-.08-.11-.14-.15-.05-.05-.11-.08-.18-.1l-.14-.02c-.1,0-.19.02-.27.07-.06.04-.11.08-.16.13,0,0-.02.02-.02.03-.04.04-.07.09-.1.13-.01.02-.02.04-.03.06-.03.06-.06.12-.07.19,0,0,0,.01,0,.02-.03.03-.06.07-.08.12-.02.03-.03.07-.03.1-.01.05,0,.11,0,.16.01.03.03.06.04.1.04.06.08.11.14.14.07.03.14.06.22.08.07.01.15.03.22.02.05,0,.11-.01.16-.02.05-.01.11-.04.15-.06.02,0,.03-.01.04-.02.04-.03.09-.06.12-.1-.03.02-.06.05-.09.07.04-.03.08-.06.11-.09,0,0,.01-.01.02-.02.03-.03.06-.07.08-.11,0,0,0,0,0-.01.02-.03.04-.08.05-.12,0,0,0,0,0,0,0,0,0-.01,0-.02,0,0,0-.01,0-.02,0-.05.01-.1.02-.14,0-.01,0-.03,0-.04,0-.03,0-.06-.01-.08Z"/>
        <path d="M48.54,100.4s0-.04-.02-.06c-.03-.09-.08-.19-.12-.28-.01-.02-.02-.05-.04-.07-.16-.25-.31-.38-.54-.55-.06-.04-.12-.07-.19-.11-.08-.08-.17-.15-.26-.21-.12-.09-.27-.14-.41-.2-.14-.06-.31-.08-.45-.09-.15,0-.31.02-.46.06-.11.03-.22.08-.33.13-.03.02-.07.03-.1.06-.13.09-.28.2-.38.32-.1.12-.21.25-.28.4-.04.1-.1.22-.13.33-.03.12-.04.25-.06.37-.02.15.02.32.04.46.06.3.23.56.43.79.1.12.23.21.36.3.06.04.11.08.18.11.3.15.58.23.92.25.33.02.63-.08.93-.22.15-.07.28-.18.4-.28.04-.03.07-.07.11-.11.09-.1.19-.22.25-.34.12-.23.21-.49.2-.76,0-.1-.02-.22-.04-.32Z"/>
        <path d="M53.61,100.72s-.01-.05-.02-.07c-.03-.09-.07-.19-.12-.28-.05-.1-.13-.2-.21-.28-.05-.05-.13-.1-.19-.14,0,0-.02-.01-.02-.01-.08-.04-.16-.08-.25-.1-.07-.02-.17-.03-.24-.03,0,0-.02,0-.03,0-.09,0-.18.02-.27.03-.02,0-.04,0-.06.02-.09.03-.17.07-.25.11-.1.05-.19.13-.28.2-.04.03-.08.06-.11.1-.13.13-.24.28-.35.42-.03.04-.05.07-.08.11-.01.01-.02.03-.03.05,0,0,0,.01-.01.02-.04.07-.03-.05-.09.21,0,.03-.03.21-.03.24,0,.16.04.3.12.44.08.13.18.24.31.31.14.08.28.12.44.12.06,0,.12-.01.18-.02,0,0,.01,0,.02,0,.09.02.18.03.27.04.02,0,.05,0,.07,0,.11,0,.23-.02.34-.05.11-.03.21-.08.31-.13.1-.05.19-.13.27-.19.08-.07.15-.16.21-.25.03-.04.05-.1.07-.15.02-.05.05-.1.06-.15.04-.21.04-.35,0-.56Z"/>
        <path d="M54.88,103.14c-.02-.07-.05-.13-.1-.18-.05-.05-.11-.08-.18-.1-.07-.02-.14-.02-.22,0,0,0,0,0,0,0-.07.02-.13.05-.18.1-.03.03-.06.07-.08.11-.03.04-.06.08-.09.12-.04.03-.06.07-.08.12-.02.04-.03.09-.03.14,0,.05,0,.1.03.14.01.05.04.08.08.12.02.02.05.04.07.06.06.03.12.05.18.05.03,0,.06,0,.1-.01.06-.02.12-.05.16-.09.04-.03.08-.06.12-.09.04-.02.08-.04.11-.08.05-.05.09-.11.1-.18h0c.02-.08.02-.15,0-.22Z"/>
        <path d="M60.78,98.67c-.15-.23-.35-.41-.59-.55-.27-.16-.54-.24-.85-.27-.33-.03-.66.08-.94.25-.19.05-.38.12-.55.21-.46.24-.87.71-.97,1.23-.03.15-.06.32-.05.48.02.3.08.51.21.78.17.36.48.65.8.87.32.22.75.33,1.13.32.47-.02.86-.18,1.21-.48.21-.18.38-.42.49-.67.13-.28.24-.57.29-.87.07-.45.08-.9-.19-1.29Z"/>
        <path d="M55,98.35s0,0,0,0c-.02-.07-.05-.12-.09-.17-.04-.06-.08-.1-.14-.13-.04-.02-.08-.03-.12-.05-.07-.02-.14-.02-.2,0-.02,0-.04.01-.07.02-.01,0-.02,0-.03-.01-.05-.01-.11,0-.16,0-.03.01-.07.03-.1.04-.06.04-.11.09-.15.15-.01.03-.03.07-.04.1-.02.07-.02.15,0,.22,0,.06.02.13.03.19.02.07.06.14.11.19.03.03.06.05.09.07.04.03.09.06.14.07.05,0,.1.02.14.02,0,0,.01,0,.02,0,.03,0,.05,0,.08,0h0s0,0,0,0c.02,0,.04,0,.06,0,0,0,0,0,0,0,.02,0,.04,0,.05,0,.08-.02.15-.06.21-.12.02-.03.05-.06.07-.1h0s.03-.03.04-.05c.02-.04.03-.08.05-.12.02-.09.02-.18,0-.27Z"/>
        <path d="M65.24,100.34s0-.02,0-.02c0-.08-.02-.17-.03-.25,0-.02,0-.03-.01-.05-.03-.08-.06-.15-.1-.23,0,0,0-.02-.01-.02,0-.01-.02-.03-.03-.04-.05-.06-.1-.13-.15-.19,0,0-.01-.01-.02-.02-.07-.06-.14-.12-.21-.16,0,0-.01,0-.02-.01,0,0,0,0-.01,0-.07-.03-.15-.07-.22-.09,0,0-.01,0-.02,0,0,0,0,0-.01,0-.08-.02-.17-.02-.25-.03-.02,0-.04,0-.05,0-.1,0-.2.02-.29.04-.01,0-.02,0-.03,0-.08.03-.16.07-.24.1-.02.01-.05.02-.07.04-.09.06-.17.12-.24.19-.07.07-.14.16-.19.23-.01.02-.03.04-.04.06,0,0,0,0,0,0-.03.06-.07.16-.09.22,0,0,0,.01,0,.02,0,.01,0,.02,0,.03-.02.09-.03.18-.04.27,0,.01,0,.02,0,.04,0,.02,0,.05,0,.07.01.09.02.18.04.27,0,.01,0,.02,0,.03,0,.02.01.05.02.07.03.08.06.16.1.24,0,.01.01.02.02.03.01.02.02.04.04.06.05.06.12.16.18.23,0,0,.02.02.02.02.07.06.14.11.21.16.02.01.04.02.06.03,0,0,0,0,.01,0,.07.03.15.07.23.1,0,0,.02,0,.03,0,.1.03.2.04.3.04,0,0,.02,0,.03,0,0,0,0,0,.01,0,.08,0,.17-.02.25-.03,0,0,.02,0,.03,0,0,0,0,0,.01,0,.04-.01.09-.04.11-.05.03-.01.08-.03.12-.05.04-.02.07-.05.1-.08.11-.08.16-.11.24-.26,0,0,.09-.21.09-.22,0,0,0,0,0,0,0,0,0,0,0-.01.01-.05.01-.1.02-.14,0-.04.02-.1.02-.14,0,0,0,0,0,0,0-.02.02-.04.03-.06,0,0,0-.02,0-.02,0-.02,0-.03.01-.05.01-.08.02-.17.03-.25,0,0,0-.02,0-.03,0-.02,0-.04,0-.05Z"/>
        <path d="M67.82,97.28c-.05-.21-.16-.37-.3-.53-.14-.17-.34-.25-.54-.33-.13-.05-.29-.06-.43-.08-.07,0-.14,0-.2,0-.14.02-.3.03-.43.08-.1.04-.21.08-.31.13-.09.05-.19.14-.26.19-.11.09-.21.21-.27.34-.1.2-.13.33-.15.56,0,.12.02.24.04.36.03.12.09.23.17.32.07.1.16.18.27.24.08.03.15.06.23.1.13.04.25.05.38.02.09,0,.16-.02.24-.06,0,0,0,0,.02,0,.08.05.19.1.27.12.09.02.18.03.27.03.02,0,.04,0,.06,0,.08,0,.17-.01.26-.04.07-.02.15-.06.21-.09,0,0,.01,0,.02-.01.06-.04.13-.09.18-.14,0,0,.01-.01.02-.02,0,0,0-.01.01-.02.01-.01.02-.02.03-.03.11-.11.19-.25.23-.4.03-.1.04-.2.05-.31,0-.03,0-.06,0-.09,0-.12-.02-.24-.05-.35Z"/>
        <path d="M62.72,96.78c-.71,0-.71,1.11,0,1.11s.71-1.11,0-1.11Z"/>
        <path d="M67.57,100.34c-.74,0-.74,1.15,0,1.15s.74-1.15,0-1.15Z"/>
        <path d="M64.9,103.55s0-.02,0-.03c0-.08-.03-.15-.09-.2-.02-.02-.04-.03-.06-.05,0,0-.02-.01-.02-.02-.04-.02-.07-.03-.12-.03-.04,0-.08.01-.12.03,0,0-.02.01-.02.02-.02.01-.04.03-.06.05-.02.02-.03.04-.05.06-.03.04-.04.09-.04.14,0,0,0,.02,0,.03,0,.04,0,.08,0,.11,0,.04,0,.08.02.11.01.04.03.07.06.09.03.03.06.05.09.06.03.02.07.03.11.02.03,0,.05,0,.08-.01.05-.01.09-.04.13-.07.02-.02.03-.04.05-.06.03-.05.04-.09.04-.15,0-.04,0-.08,0-.11Z"/>
        <path d="M66.99,103.13s-.03-.07-.06-.09c-.02-.02-.04-.03-.06-.05-.02,0-.05-.02-.07-.03-.04-.01-.08-.01-.12,0-.04,0-.07.01-.11.03-.08.05-.16.11-.24.16-.05.03-.09.07-.12.12-.03.05-.05.11-.05.18,0,.03,0,.06.01.09.02.06.05.11.09.15.03.03.07.06.11.07.04.02.09.03.13.03.06,0,.12-.02.17-.05.05-.03.09-.07.12-.12.05-.08.11-.16.16-.24l.03-.07s.01-.08,0-.12c0-.03,0-.05-.02-.07Z"/>
        <g>
          <path d="M74.19,96.14c-.02-.16-.03-.31-.09-.46-.08-.21-.17-.39-.34-.55-.27-.25-.61-.39-.98-.39-.28,0-.6.08-.83.25-.2.14-.32.25-.46.46-.08.12-.14.26-.16.41-.02.11-.04.23-.04.35,0,.12.02.25.05.37.03.15.09.29.17.42.12.18.26.33.45.43.19.1.39.16.61.16.14,0,.26-.02.37-.06.08,0,.16-.02.24-.03.04,0,.08-.02.12-.04,0,0,0,0,0,0h0s0,0,0,0c.03-.01.05-.02.08-.03.08-.03.17-.07.24-.12.18-.13.26-.21.39-.39.07-.1.12-.23.15-.35.04-.14.06-.28.04-.42Z"/>
          <polygon points="73.28 97.45 73.29 97.45 73.29 97.45 73.28 97.45"/>
        </g>
        <path d="M72.79,99.5c-.02-.05-.05-.1-.09-.13-.03-.02-.06-.04-.08-.07-.06-.04-.14-.06-.21-.06-.04,0-.07.01-.11.02-.07.02-.13.06-.18.11-.07.06-.14.13-.21.19-.04.04-.07.08-.09.14-.03.05-.04.11-.04.16,0,.06,0,.11.04.16.02.05.05.1.09.14.03.02.06.04.09.07.07.04.14.06.22.06.04,0,.08-.01.11-.02.07-.02.13-.06.19-.11.06-.07.13-.14.19-.21.04-.04.07-.08.09-.13.03-.05.04-.1.04-.16,0-.06,0-.11-.04-.16Z"/>
        <path d="M75.76,92.25s-.05-.06-.07-.09c-.04-.04-.1-.07-.15-.1-.01-.02-.01-.04-.03-.05-.03-.05-.07-.09-.12-.11-.05-.03-.11-.05-.16-.05-.06-.01-.12-.01-.18,0-.03.01-.07.03-.11.04-.07.04-.12.09-.16.16-.01.03-.03.07-.04.11-.02.08-.02.16,0,.23.01.06.02.12.03.17.02.08.06.14.12.2.06.06.12.09.2.12l.16.05c.06.02.12.02.18,0,.06,0,.12-.02.17-.05.05-.03.1-.07.13-.12.04-.04.07-.1.08-.16l.02-.12c0-.08-.02-.16-.06-.23Z"/>
        <path d="M78.32,93.9c-.04-.1-.07-.21-.14-.31-.12-.18-.21-.26-.39-.39-.18-.13-.46-.19-.68-.19-.26,0-.45.07-.68.19-.05.02-.09.05-.14.09-.09.06-.22.15-.29.24-.08.1-.16.19-.22.3-.01.02-.03.05-.04.07-.03.07-.08.18-.1.23-.06.2-.03.28,0,.48.04.15.11.27.22.38.03.03.06.05.08.07.04.1.1.19.17.27.18.15.38.28.61.33.24.04.49.06.72-.03.21-.08.31-.13.49-.29.09-.08.16-.18.22-.27.06-.09.11-.22.14-.31.02-.05.03-.09.04-.14.04-.24.06-.48-.02-.72Z"/>
        <path d="M76.87,97.54c0-.06-.01-.11-.03-.17-.02-.08-.06-.16-.1-.24-.01-.02-.02-.05-.04-.07-.04-.05-.08-.11-.12-.16,0,0,0-.01-.01-.02,0,0-.02-.02-.03-.03,0,0-.02-.02-.03-.03-.05-.04-.11-.09-.16-.12,0,0,0,0,0,0,0,0,0,0,0,0-.06-.03-.12-.05-.18-.08-.03,0-.07,0-.1-.01-.07-.02-.13-.02-.2,0-.04,0-.07,0-.11.02,0,0-.02,0-.03,0-.08.03-.15.06-.23.09-.06.03-.11.07-.16.11-.05.04-.11.08-.15.13-.05.06-.1.13-.15.19-.01.02-.02.03-.03.05-.04.07-.07.15-.09.22,0,.02-.01.04-.02.06,0,.02,0,.04-.01.06-.01.07-.03.15-.03.23,0,0,0,0,0,.01,0,.04.02.17.03.21,0,.04.02.08.03.12.02.06.05.11.07.17.05.08.11.15.19.2.04.04.1.08.16.09.09.05.18.07.28.06l.19-.03s.01,0,.02,0c.05,0,.09.02.14.02.01,0,.02,0,.04,0,.07,0,.15-.01.22-.03.01,0,.02,0,.03,0,.06-.02.12-.05.18-.07,0,0,.01,0,.02,0,.03-.02.07-.05.09-.07.03-.02.07-.05.09-.07,0,0,0,0,.01-.01.04-.04.08-.1.12-.15,0,0,.01-.02.02-.03,0,0,0,0,0-.01.03-.05.06-.12.08-.18,0-.01,0-.02,0-.03.02-.08.03-.17.03-.25,0-.06,0-.11-.02-.17Z"/>
        <path d="M83.24,90.54c-.26-.44-.7-.78-1.19-.91-.27-.07-.57-.07-.84,0-.3.09-.51.23-.75.42-.36.29-.59.69-.76,1.11-.16.39-.21.88-.07,1.29.04.13.11.25.18.37,0,.02,0,.04,0,.06.03.12.08.22.16.3.12.15.27.27.47.32.37.1.71.31,1.1.29.31-.02.61-.14.88-.3.19-.12.38-.25.53-.4.66-.66.76-1.76.29-2.56Z"/>
        <path d="M85.37,87.19c-.03-.14-.09-.29-.17-.4-.05-.08-.11-.16-.19-.22-.06-.05-.12-.1-.19-.14-.13-.08-.26-.11-.41-.12-.2,0-.44.04-.62.14-.04.02-.07.04-.1.07,0,0-.02,0-.03,0-.01,0-.02,0-.03,0-.07,0-.14.02-.21.03-.05,0-.1.03-.14.05-.04.02-.09.03-.13.06-.06.04-.12.09-.17.13,0,0-.02.01-.02.02-.03.03-.05.06-.07.09-.05.02-.1.06-.14.1l-.1.12c-.04.07-.07.15-.07.23-.01.05-.01.11,0,.16,0,.04,0,.07.02.11,0,.05-.01.11,0,.16.01.19.04.32.13.48.05.09.11.17.18.24.05.04.11.09.17.13,0,0,.02.01.03.02.06.03.13.07.19.08.04,0-.03,0,.1.02.03,0,.06,0,.09,0,0,0,0,0,0,0,.22.1.44.2.7.2.44-.01.8-.29,1.01-.67.08-.14.14-.29.18-.44.02-.1.04-.21.04-.31,0-.11-.02-.22-.04-.32Z"/>
        <path d="M87.76,88.5s0-.02,0-.03c-.02-.07-.06-.14-.09-.21,0-.01-.02-.03-.02-.04-.04-.07-.1-.13-.15-.19,0-.01-.02-.02-.03-.03,0,0-.01-.01-.02-.02-.05-.04-.11-.09-.17-.13-.01,0-.02-.02-.03-.02-.07-.04-.15-.07-.22-.09-.01,0-.03,0-.04-.01-.01,0-.02,0-.04,0-.08-.01-.16-.03-.25-.03-.01,0-.02,0-.04,0-.08,0-.17.02-.25.03-.03,0-.05.01-.08.02-.07.03-.15.06-.22.09-.01,0-.03.01-.04.02-.07.05-.13.1-.19.15-.01,0-.02.02-.03.03-.06.06-.1.13-.15.19,0,0,0,.01-.01.02,0,0,0,0,0,0l-.08.19s0,0,0,0c-.03.09-.04.21-.05.3,0,.02,0,.03,0,.05,0,0,0,.02,0,.03,0,.07.02.15.03.23.02.1.07.19.14.26.05.08.13.15.22.2.06.03.12.05.18.08.03,0,.06.01.09.02.04.03.08.06.12.09.06.04.14.06.2.09,0,0,.01,0,.02,0,.07.02.14.02.21.03.02,0,.03,0,.05,0,0,0,.01,0,.02,0,.07,0,.14-.02.21-.03.05,0,.08-.03.13-.05.04-.02.09-.03.13-.06.06-.04.12-.09.18-.14.04-.03.06-.07.09-.11.03-.03.06-.07.08-.11,0,0,0-.01.01-.02.03-.06.06-.14.09-.2,0-.01,0-.03.01-.05.01-.07.02-.15.03-.22,0,0,0-.02,0-.03,0-.1-.01-.21-.04-.31Z"/>
        <path d="M89.73,85.14s0-.02,0-.03c0,0,0-.02,0-.02-.02-.07-.06-.17-.1-.23-.04-.08-.11-.15-.16-.22-.01-.01-.02-.02-.03-.03-.07-.06-.14-.12-.22-.17-.22-.13-.43-.17-.68-.19-.18-.02-.36.01-.53.04-.06,0-.12.02-.17.04-.13.04-.27.09-.38.17-.09.06-.17.13-.25.19-.15.12-.2.27-.27.44-.02.05-.03.1-.04.15-.04.14-.04.28,0,.41.03.12.1.23.18.32.02.1.04.2.1.28.05.07.1.15.17.21.05.05.12.1.19.14.01,0,.02.01.04.02.19.09.35.13.57.14.13,0,.27-.02.41-.04.07-.01.14-.03.2-.06.12-.05.25-.09.35-.16.08-.05.16-.11.23-.17.02-.02.05-.04.07-.07.07-.08.13-.16.19-.24.02-.02.03-.04.04-.07.05-.1.11-.21.13-.33.02-.09.04-.19.03-.28,0-.08-.02-.18-.03-.26Z"/>
        <path d="M85.49,84.65c-.58,0-.58.9,0,.9s.58-.9,0-.9Z"/>
        <path d="M84.44,90.5c-.66,0-.66,1.02,0,1.02s.66-1.02,0-1.02Z"/>
        <path d="M91.87,82.3c0-.09-.02-.18-.04-.27-.02-.08-.08-.21-.1-.25,0-.01-.01-.02-.02-.03-.1-.16-.13-.17-.26-.27-.06-.05-.12-.1-.2-.13-.08-.04-.17-.08-.26-.11-.09-.03-.19-.03-.28-.04-.01,0-.03,0-.04,0,0,0,0,0-.01,0-.06,0-.18.02-.24.03,0,0-.02,0-.02,0-.1.03-.2.06-.28.12-.06.05-.13.1-.19.15,0,0,0,0-.01.01-.06.06-.12.14-.16.21,0,.01-.02.02-.02.04-.04.08-.07.17-.11.25,0,.02-.01.03-.02.05,0,0,0,.01,0,.02-.01.04-.03.2-.03.24,0,0,0,.01,0,.02,0,.03,0,.07,0,.1.01.1.02.23.05.34.05.15.11.29.23.4.02.02.16.12.18.14.07.03.14.06.2.09,0,0,0,0,0,0,0,0,.02,0,.03,0,0,0,0,0,0,0,.05.03.1.06.15.08.03.02.06.03.1.04.02,0,.03,0,.05,0,.02,0,.04,0,.06,0,.02.01.05.02.05.02,0,0,0,0,0,0,.01,0,.21.03.22.03.04,0,.08,0,.11-.01.11,0,.21-.04.31-.1.07-.04.13-.09.19-.15,0,0,0,0,0,0,.02-.02.12-.15.13-.17,0,0,0-.01.01-.02,0,0,0-.01,0-.02.03-.07.06-.14.09-.21,0-.02.01-.03.02-.05.01-.04.02-.07.02-.11.02-.11.04-.23.04-.34,0-.04,0-.08,0-.12Z"/>
        <path d="M91.7,79.06c-.02-.07-.05-.13-.1-.18-.04-.06-.09-.1-.15-.14-.03-.02-.05-.02-.08-.03,0,0,0-.01,0-.02-.04-.05-.08-.1-.14-.13-.04-.02-.08-.03-.12-.05-.07-.02-.13-.02-.2,0-.04,0-.09.01-.13.03-.06.02-.11.05-.16.1l-.08.1c-.04.08-.07.16-.07.25,0,.06.01.11.02.17,0,.05.01.09.02.14.02.07.05.13.09.18.02.04.05.07.09.09.05.05.11.08.18.09.06.02.11.04.17.06.09.03.19.03.28,0,.04-.02.08-.04.13-.05.08-.05.14-.11.19-.19.04-.06.06-.13.06-.2.02-.07.01-.14,0-.21Z"/>
        <path d="M96.17,79.08c-.07-.35-.35-.66-.66-.81-.08-.03-.16-.07-.24-.1-.04-.01-.09-.02-.13-.02-.05-.04-.11-.08-.16-.11-.36-.2-.8-.25-1.17-.01-.23.15-.35.28-.51.5-.05.07-.1.15-.13.23-.07.15-.14.31-.17.47-.03.17-.06.34-.06.51,0,.12.02.24.04.36,0,.04.01.07.03.11.08.23.18.42.35.6.16.16.38.29.6.34.25.05.49.06.75-.02.15-.04.3-.12.44-.21.17-.11.33-.24.48-.37.15-.13.27-.27.38-.43.07-.1.12-.21.15-.33.03-.11.04-.24.05-.35,0-.02,0-.03,0-.05,0-.1-.02-.21-.04-.3Z"/>
        <path d="M96.23,75.21c-.04-.15-.12-.28-.23-.39-.07-.06-.14-.11-.21-.16-.01,0-.03-.02-.04-.03,0,0-.01,0-.02,0-.07-.03-.15-.07-.23-.1-.02,0-.03-.01-.05-.02,0,0-.01,0-.02,0-.04,0-.21-.03-.25-.03,0,0,0,0-.01,0-.02,0-.03,0-.05,0-.09,0-.19.02-.28.04-.02,0-.03,0-.05.01-.01,0-.03,0-.04.01-.09.03-.17.07-.26.11-.01,0-.03.02-.04.02-.08.05-.15.11-.22.17-.02.02-.04.04-.06.06-.06.07-.12.14-.17.22,0,.01-.02.03-.02.04-.02.04-.04.09-.06.13-.02.04-.04.09-.06.14,0,.02-.01.03-.01.05,0,0,0,.02,0,.03-.01.09-.03.18-.04.27,0,.02,0,.04,0,.06,0,.13.02.25.08.36.04.12.1.22.19.3.08.09.19.16.3.19.11.06.23.09.36.08.08-.01.17-.02.25-.03.12-.03.23-.1.33-.17.01,0,.03,0,.04,0,0,0,.01,0,.02,0,.07-.03.17-.06.24-.11.09-.05.18-.12.25-.19.08-.08.14-.16.2-.26,0-.02.02-.03.03-.05.04-.08.08-.17.11-.26.04-.16.04-.31,0-.47Z"/>
        <path d="M11.56,73.16c-.01-.06-.03-.12-.05-.17-.05-.12-.1-.26-.17-.37-.15-.22-.33-.42-.57-.55-.23-.13-.49-.2-.76-.21-.07,0-.13.01-.2.02-.06,0-.13.01-.19.03-.13.03-.26.09-.38.16-.21.13-.34.27-.48.46-.12.09-.24.18-.34.29-.17.21-.26.36-.36.61-.06.16-.08.33-.09.49,0,.14.02.28.04.41.03.14.09.26.15.39.08.19.22.37.37.51.19.18.38.3.62.4.47.2,1,.19,1.45-.07.11-.06.2-.14.3-.22.04-.03.08-.07.11-.11.12-.14.23-.29.31-.45.17-.36.26-.69.29-1.08.01-.18-.01-.36-.04-.53Z"/>
        <path d="M7.17,70.54c-.1-.2-.29-.38-.48-.5-.1-.06-.2-.1-.31-.13-.21-.05-.36-.05-.57,0-.11.02-.21.07-.31.12-.16.07-.31.17-.39.33,0,0,0,0,0,0-.07.08-.13.16-.17.25-.08.15-.16.32-.2.49,0,.02-.01.04-.01.07,0,.01,0,.02,0,.03-.03.21-.05.28,0,.5.02.11.08.22.12.32l.14.17c.06.05.12.09.17.14.07.03.14.06.21.09.02,0,.03,0,.05,0,0,0,0,0,0,0,.08.09.17.15.28.18.07.04.14.06.22.06.12.03.23.02.35-.02.22-.05.43-.19.59-.35.11-.11.22-.25.28-.39.05-.1.1-.22.13-.33.03-.12.05-.24.05-.37.02-.24-.06-.47-.16-.68Z"/>
        <path d="M10.79,69.52c0-.11-.03-.22-.09-.32,0,0,0,0,0,0,0,0-.02-.02-.03-.04,0-.01-.01-.02-.02-.03-.04-.05-.08-.1-.12-.15-.07-.07-.15-.13-.24-.16-.09-.05-.19-.07-.29-.06-.1,0-.2.02-.29.06-.09.03-.17.08-.24.16-.07.07-.13.15-.16.24-.05.09-.07.19-.06.29,0,.07.02.13.03.2.04.13.1.24.19.33.05.04.1.08.15.12.12.07.24.1.38.1l.2-.03c.1-.02.18-.07.26-.13.06-.04.1-.08.14-.14.04-.04.08-.07.1-.11.06-.1.09-.21.09-.32Z"/>
        <path d="M8.53,66.77c-.01-.14-.03-.27-.07-.4-.04-.13-.1-.26-.16-.39-.02-.03-.04-.06-.06-.09-.01-.03-.02-.05-.04-.08-.05-.07-.11-.16-.17-.22-.08-.07-.17-.14-.26-.2-.09-.05-.2-.09-.29-.13-.1-.04-.25-.05-.34-.05-.15-.01-.3.01-.44.05-.03,0-.07.02-.1.03-.11.04-.22.08-.32.15-.25.18-.47.39-.63.67-.14.26-.25.58-.22.88,0,.11.02.25.06.36.03.09.07.19.12.28.11.22.36.43.6.47.11.02.22.05.33.04.09,0,.19-.02.28-.04.02,0,.03,0,.05-.01.1-.03.2-.08.29-.12.05-.03.1-.06.15-.1.08.03.17.04.25.04.08,0,.17-.01.25-.03.09-.02.18-.06.26-.11.14-.09.26-.2.34-.35.04-.07.07-.16.1-.24.02-.05.02-.11.03-.16.01-.09.02-.16.01-.25Z"/>
        <path d="M3.88,63.96c-.61,0-.61.95,0,.95s.61-.95,0-.95Z"/>
        <path d="M4.82,67.73s-.01-.09-.04-.13c0-.02-.02-.03-.03-.05,0-.02-.01-.05-.02-.07-.01-.03-.03-.07-.04-.11-.03-.05-.07-.09-.11-.12-.03-.03-.06-.05-.1-.06-.05-.03-.11-.04-.17-.04-.04,0-.08.01-.12.02-.04.01-.07.03-.11.04-.05.03-.09.07-.12.11-.04.04-.07.09-.08.15,0,.01,0,.03-.01.04,0,0,0,.01-.01.02-.02.04-.03.08-.05.12-.02.07-.02.14,0,.21,0,.05.01.09.04.13.01.04.03.08.07.11.02.04.05.07.09.09.03.03.07.05.11.07.06.03.13.05.2.04.05,0,.09-.01.14-.02.04-.02.08-.03.12-.05l.1-.08.08-.1s.03-.08.05-.12c.02-.07.02-.14,0-.21Z"/>
        <path d="M7.94,62.05c-.1-.17-.28-.27-.47-.27s-.38.1-.47.27c-.05.09-.07.18-.07.28,0,.1.03.19.07.28l.02.05s0,.02,0,.02c.02.04.03.06.08.11.09.09.22.15.36.15s.26-.05.36-.15c.05-.05.06-.07.08-.11,0,0,0-.02,0-.02l.02-.05c.05-.09.07-.18.07-.28,0-.1-.03-.19-.07-.28Z"/>
        <path d="M6,59.62c-.07-.19-.15-.38-.3-.53,0,0,0,0,0,0-.06-.1-.13-.2-.21-.29-.09-.1-.2-.18-.31-.25-.12-.07-.25-.13-.38-.15-.2-.03-.39-.06-.6.01-.2.07-.33.14-.49.29-.12.11-.23.26-.3.41-.17.36-.27.75-.25,1.16,0,.13.03.26.05.39,0,.06.02.12.04.18.08.23.19.45.37.62.25.22.56.35.9.36.24,0,.52-.07.72-.21.23-.15.41-.34.56-.58.11-.17.19-.37.23-.57.05-.28.08-.56-.02-.83Z"/>
        <path d="M6.2,56.08c-.71,0-.71,1.11,0,1.11s.71-1.11,0-1.11Z"/>
        <path d="M7.26,57.77c-.71,0-.71,1.1,0,1.1s.71-1.1,0-1.1Z"/>
        <path d="M2.39,56.98s0-.04,0-.05c0-.04,0-.07-.01-.11-.01-.03-.03-.07-.04-.1-.02-.03-.04-.06-.06-.08,0,0-.02,0-.03-.02,0,0,0-.01-.02-.02-.01-.01-.03-.01-.05-.02-.02,0-.03-.02-.04-.03,0,0-.01,0-.02,0-.01,0-.02-.01-.03-.02-.04,0-.07,0-.11-.01-.04,0-.07,0-.11.01-.03.01-.07.03-.1.04-.03.02-.06.04-.08.06,0,0,0,.02-.02.03,0,0-.01,0-.02.02-.01.01-.02.03-.02.05,0,.02-.02.03-.03.04,0,0,0,.01,0,.02,0,.01-.01.02-.02.03,0,.04,0,.07-.01.11,0,.04,0,.07.01.11,0,.03.02.07.04.1,0,0,0,0,0,0,.02.02.03.04.05.06,0,0,0,.02.01.03.03.05.07.09.12.12.05.03.11.05.17.05.06,0,.12-.02.17-.05.05-.03.09-.07.12-.12,0-.01.01-.02.02-.04,0,0,0,0,.01-.01.01-.01.02-.03.02-.05,0-.02.02-.03.03-.04,0,0,0-.01,0-.02,0-.01.01-.02.02-.03,0-.02,0-.04,0-.05,0,0,0,0,0,0h0Z"/>
        <path d="M5.89,52.42c-.05-.18-.12-.37-.23-.52-.17-.23-.36-.46-.63-.59-.25-.12-.53-.22-.81-.2-.33.02-.55.09-.84.23-.18.09-.35.22-.5.36-.05.04-.09.09-.13.14-.09.11-.19.23-.27.36-.21.34-.29.7-.31,1.09,0,.13,0,.25,0,.38.01.14.02.28.06.42.06.2.17.4.32.54.15.14.22.18.39.25.07.03.13.06.21.07.24.04.48.07.71-.01.1-.04.21-.08.31-.13.03,0,.07,0,.1.01.28.02.56-.07.81-.2.4-.2.65-.61.79-1.02.02-.05.03-.1.04-.15.02-.14.05-.28.05-.42,0-.2-.02-.4-.07-.59Z"/>
        <path d="M2.92,47.88c0-.06-.01-.11-.02-.17,0-.06-.01-.12-.03-.17-.02-.06-.04-.12-.06-.18h0s0-.02,0-.03c-.02-.08-.06-.16-.1-.23-.01-.02-.02-.04-.04-.06-.06-.09-.13-.19-.21-.27-.04-.04-.09-.07-.13-.1-.04-.03-.08-.07-.13-.1-.09-.05-.2-.1-.3-.13-.11-.03-.22-.05-.33-.04-.1,0-.19.02-.29.04-.02,0-.03,0-.05.01-.02,0-.03.01-.05.02-.09.03-.18.07-.27.11-.1.05-.19.13-.27.21-.12.11-.21.24-.3.37-.05.07-.09.14-.12.22-.06.15-.14.3-.17.45-.02.12-.04.24-.05.36,0,.04,0,.07,0,.11.01.23.06.48.2.67.16.23.34.41.62.49.15.04.3.04.44.02.08.05.17.08.26.08.11.01.16.01.27,0,.16-.02.28-.05.43-.13.1-.05.19-.13.27-.21.06-.06.11-.14.16-.21.02-.02.03-.05.05-.07.06-.1.11-.22.14-.34.02-.06.03-.12.04-.18.02-.12.04-.25.04-.37,0-.05,0-.1,0-.15Z"/>
        <path d="M6.88,47.87s0-.05,0-.08c0-.06-.02-.13-.03-.19-.02-.09-.06-.17-.13-.24-.03-.05-.07-.1-.13-.13-.07-.06-.15-.11-.24-.13-.06-.02-.12-.03-.19-.04-.05,0-.09-.02-.14-.02,0,0-.02,0-.02,0l-.2.03s0,0-.01,0c-.02,0-.03,0-.05.01-.08.03-.15.06-.22.09-.03.01-.06.03-.09.05-.08.05-.16.12-.23.18-.03.02-.05.04-.08.07-.09.09-.17.2-.23.32-.06.09-.09.19-.09.29-.02.1-.02.21.01.31.03.06.05.13.08.19.05.09.12.17.2.22.05.05.11.08.17.1.07.04.15.05.23.06.04.02.08.04.12.05.04.01.08.02.12.03.08.01.17.03.26.03.07,0,.14-.01.21-.03.01,0,.03,0,.04-.01.06-.02.13-.05.18-.08.04-.02.07-.05.1-.07.03-.02.06-.05.09-.07.05-.05.09-.1.12-.16.02-.02.03-.04.04-.07.03-.07.07-.15.09-.23,0-.01,0-.03,0-.04.01-.07.02-.14.03-.22,0-.08,0-.16-.01-.24Z"/>
        <path d="M3.77,44.26l-.04-.12s0,0,0,0c0-.04-.02-.08-.05-.11,0-.01-.02-.02-.03-.03,0,0,0-.01,0-.02-.01-.02-.03-.03-.05-.04-.02-.01-.02-.03-.04-.05,0,0-.01,0-.02,0-.01,0-.02-.02-.03-.03-.03-.02-.07-.04-.11-.05,0,0,0,0,0,0-.02,0-.04,0-.07,0h0s-.04,0-.07,0c0,0,0,0-.01,0-.04,0-.07,0-.11.01,0,0,0,0,0,0,0,0,0,0,0,0-.04.02-.08.03-.12.05-.04.02-.07.05-.1.08-.03.03-.06.06-.08.1,0,0,0,0,0,0-.02.04-.04.08-.05.12-.01.04-.03.08-.04.12-.03.1-.03.19,0,.29.03.09.07.17.14.24.04.03.07.06.11.08.08.05.17.07.27.07.07,0,.14-.01.21-.05.07-.02.12-.06.17-.11.07-.07.11-.15.14-.24.03-.1.03-.19,0-.29Z"/>
        <path d="M6.1,44.83c-.04-.06-.09-.11-.15-.15-.02,0-.03-.02-.05-.02-.02-.01-.03-.02-.05-.02,0,0,0,0,0,0,0,0-.01,0-.02,0-.01,0-.03,0-.04,0-.03,0-.06,0-.09-.01-.08-.02-.16-.02-.24,0-.08.02-.14.06-.2.11-.02.03-.05.06-.07.09-.04.07-.06.14-.06.22,0,.06.01.12.04.17.02.06.05.1.09.14.06.06.12.09.2.11.08.02.16.02.24,0,.03,0,.06,0,.09-.01.01,0,.03,0,.04,0h.02s.08-.03.12-.05c.06-.04.11-.09.15-.15.04-.06.06-.13.06-.21,0-.07-.02-.14-.06-.21Z"/>
        <path d="M7.05,42.45c-.61,0-.62.96,0,.96s.62-.96,0-.96Z"/>
        <path d="M6.97,39.36c-.04-.2-.12-.42-.23-.59-.18-.27-.44-.53-.73-.67-.4-.19-.81-.25-1.24-.15-.34.08-.62.28-.88.5-.39.34-.69.86-.82,1.36-.17.63-.11,1.31.19,1.89.38.74,1.34,1.2,2.15.97.42-.12.77-.41,1-.78.09-.15.15-.31.19-.47.15-.19.25-.4.33-.64.15-.46.14-.95.05-1.42Z"/>
        <path d="M9.37,35.4c-.01-.1-.02-.21-.04-.31-.02-.12-.08-.25-.14-.36,0,0,0-.01-.01-.02-.05-.07-.12-.16-.17-.22-.04-.05-.09-.08-.14-.12-.14-.11-.24-.17-.43-.22-.12-.03-.25-.05-.37-.04-.12,0-.26.02-.38.06-.27.09-.46.2-.68.4-.1.1-.19.23-.27.33-.04.05-.07.1-.09.16-.05.11-.1.22-.14.33-.02.06-.02.14-.03.18,0,.06-.02.12-.02.18-.02.21.03.41.13.59.01.11.03.19.07.28,0-.02-.02-.04-.03-.06.03.07.05.14.09.2,0,0,0,0,0,.01h0s0,0,.01.01c.03.05.11.14.15.19,0,.01.02.02.03.03.06.05.13.11.19.15,0,0,.02.01.02.02.08.05.17.08.26.11.11.04.23.05.34.06.03,0,.06,0,.09,0,.1-.01.23-.02.33-.05.1-.04.21-.08.3-.13.13-.07.24-.16.34-.27.1-.11.19-.23.28-.35.04-.05.07-.11.1-.17.06-.13.12-.26.15-.4.03-.15.06-.31.07-.46,0-.03,0-.05,0-.08,0-.01,0-.03,0-.04Z"/>
        <path d="M4.94,31.39c-.73,0-.73,1.13,0,1.13s.73-1.13,0-1.13Z"/>
        <path d="M10.84,33.37c-.63,0-.63.97,0,.97s.63-.97,0-.97Z"/>
        <path d="M43.51,98s0-.03-.01-.04c-.03-.06-.05-.13-.08-.19,0,0,0,0,0-.01,0,0,0-.01-.01-.02-.05-.07-.1-.13-.16-.2-.01-.02-.03-.03-.04-.04-.07-.06-.14-.12-.22-.17-.02-.01-.05-.03-.07-.04-.09-.04-.18-.08-.27-.11-.02,0-.04-.01-.07-.02-.09-.02-.19-.04-.28-.04-.2,0-.35.05-.53.14-.14.07-.3.24-.37.37-.02.04-.04.09-.05.12-.02.04-.04.08-.05.13,0,.01,0,.03,0,.05-.01.1-.04.22-.03.33.01.11.02.23.05.34.03.11.08.21.13.31.02.03.03.06.05.09.05.07.11.15.17.22.01.01.02.02.03.03.17.14.24.2.46.27.17.05.37.05.54,0,.09-.02.17-.06.25-.1,0,0,0,0,0,0,0,0,0,0,0,0,.03-.02.15-.12.18-.14,0,0,.01-.01.02-.02.06-.07.12-.14.17-.22.01-.02.02-.04.03-.06.04-.08.08-.18.11-.28,0-.01,0-.03.01-.04,0-.03,0-.05.01-.08,0-.02.02-.03.02-.05,0,0,0-.01,0-.02.02-.08.03-.16.03-.25,0-.08-.02-.18-.03-.25Z"/>
        <path d="M39.97,98.83c0-.13-.02-.27-.05-.4-.03-.13-.09-.26-.15-.37-.04-.08-.1-.15-.16-.22-.06-.08-.12-.16-.19-.22-.14-.13-.3-.26-.48-.34-.26-.12-.49-.2-.78-.2-.29,0-.52.08-.77.2-.15.07-.29.18-.41.29-.09.09-.16.19-.23.29-.03.03-.05.07-.07.11-.18.33-.27.7-.28,1.07,0,0,0,0,0,.01,0,0,0,0,0,0,0,.24.03.49.1.73.02.07.04.14.07.22.02.1.08.2.12.29.12.26.44.41.72.41.09,0,.18-.02.27-.05.02.01.03.03.05.04.07.04.17.09.25.11.13.03.26.03.39.02.06,0,.12-.01.17-.02.04,0,.08-.02.11-.04.24-.1.39-.18.59-.35.12-.1.21-.23.3-.35.05-.06.09-.13.12-.21.05-.12.11-.24.14-.37.04-.08.07-.16.1-.24.05-.13.06-.29.07-.41Z"/>
        <path d="M42.55,101.42s0-.01,0-.02c0-.04,0-.08,0-.13,0-.04-.01-.09-.03-.13-.02-.06-.05-.11-.1-.16l-.1-.08c-.08-.04-.16-.07-.25-.07-.02,0-.04,0-.06,0,0,0-.02,0-.03,0-.05,0-.11.01-.16.02,0,0-.02,0-.02,0,0,0,0,0-.01,0-.02,0-.07.03-.07.03-.03.01-.05.02-.07.03-.04.03-.08.06-.12.09,0,0-.01.01-.02.02,0,0,0,0,0,0-.03.04-.06.08-.09.11,0,0,0,.01-.01.02,0,0,0,0,0,0-.02.04-.04.09-.06.13,0,0,0,.01,0,.02,0,0,0,.01,0,.02,0,.05-.02.1-.02.15,0,0,0,0,0,.01,0,0,0,.01,0,.02,0,.05.01.11.02.16,0,.02,0,.04.02.06.02.05.04.1.06.15,0,.01.01.02.02.04.03.06.08.11.14.15.05.05.11.08.18.09l.14.02c.1,0,.18-.02.27-.07.03-.02.06-.04.09-.07.01-.01.03-.02.04-.03.05-.04.1-.07.14-.11.05-.05.09-.1.11-.17.03-.06.05-.13.05-.2,0-.05-.01-.09-.02-.14Z"/>
        <path d="M44.16,102.38c-.57,0-.57.88,0,.88s.57-.88,0-.88Z"/>
        <path d="M43.53,99.61c-.6,0-.6.93,0,.93s.6-.93,0-.93Z"/>
        <g>
          <path d="M35.29,95.8s-.04-.1-.06-.14c-.02-.05-.04-.1-.06-.15,0-.01-.01-.02-.02-.03-.05-.06-.1-.14-.15-.2,0,0-.01-.01-.02-.02-.06-.06-.14-.12-.21-.17-.01,0-.03-.02-.04-.03-.05-.02-.1-.04-.15-.06-.04-.02-.1-.05-.15-.06-.01,0-.03,0-.04,0-.09-.02-.19-.03-.28-.04-.03,0-.05,0-.08,0-.14.01-.28.03-.42.08-.1.04-.21.08-.3.14-.09.06-.19.14-.27.2-.05.04-.11.09-.15.15-.09.11-.19.23-.26.36-.05.1-.1.21-.14.32,0,.03-.02.05-.02.08-.02.11-.04.22-.04.34,0,.07.07.35.05.32.02.07.06.16.09.21,0,.01.01.02.02.04.09.15.21.27.35.35.07.05.15.07.23.09,0,0,0,.01,0,.02.03.06.09.12.13.17,0,0,.01.01.02.02.02.01.03.02.05.04.05.04.1.08.14.11,0,0,0,0,0,0,0,0,0,0,0,0,.06.03.11.06.2.08,0,0,0,0-.01,0,.02,0,.03.01.05.02.08.02.17.03.25.04.1,0,.21,0,.31-.04.22-.07.38-.17.55-.33.08-.08.15-.17.21-.27.03-.04.05-.08.07-.13.05-.11.1-.23.13-.35.03-.13.04-.26.05-.39.01-.12.02-.23.02-.35-.01-.14-.02-.28-.06-.41Z"/>
          <path d="M32.47,96.88s-.01-.03-.01-.04c0,.03.01.04.01.04Z"/>
        </g>
        <path d="M37.46,94.69c-.04-.09-.15-.19-.23-.23,0,0,0,0-.01,0,0,0-.02,0-.03-.01,0,0,0,0,0,0-.02-.02-.04-.04-.07-.05-.06-.03-.11-.05-.17-.07-.06,0-.13-.02-.19-.03-.06,0-.13.02-.19.03h0s-.02,0-.03,0c0,0-.01,0-.02,0-.03.01-.06.03-.09.04-.02,0-.06.02-.09.04-.01,0-.02.01-.03.02,0,0,0,0,0,0l-.14.11s-.08.1-.11.15c0,0,0,0,0,.01,0,0-.01.02-.01.03-.02.04-.06.13-.08.2,0,0,0,.01,0,.02,0,0,0,0,0,0,0,.03,0,.06-.01.1,0,.03-.01.06-.01.09,0,.06.02.12.02.18.02.05.05.11.07.16.04.05.07.09.11.14.06.07.14.11.22.14.05.03.11.05.17.05.06.02.12.02.18,0,.06,0,.12-.02.17-.05.08-.03.15-.07.2-.13.02,0,.04-.01.05-.02h.02s.05-.04.08-.05h.02s.09-.07.13-.11c.08-.08.13-.17.16-.28,0-.06.01-.11.02-.17,0-.11-.03-.22-.09-.32Z"/>
        <path d="M31.39,94.33c0-.09-.02-.18-.03-.27-.03-.17-.13-.32-.25-.45,0,0-.01-.01-.02-.02-.05-.04-.12-.1-.18-.14,0,0-.02-.01-.03-.02-.03-.02-.16-.07-.2-.08,0,0-.01,0-.02,0-.2-.05-.34-.04-.55,0-.05,0-.1.03-.15.04-.12.05-.23.09-.34.16-.16.1-.32.22-.45.35-.02.02-.05.05-.07.08-.06.07-.13.15-.18.24-.05.09-.08.18-.12.28,0,.01,0,.03-.01.04,0,.03-.03.21-.03.23,0,0,0,.01,0,.02,0,.07.02.15.03.22.03.07.06.13.08.2.04.06.09.11.13.17.08.08.16.14.27.17.07.04.14.06.21.06.07.02.15.02.22,0,.05,0,.1-.01.14-.03.05.02.09.04.14.04.15.02.29.04.44,0,.18-.05.33-.17.46-.29.12-.1.21-.23.3-.36.02-.03.04-.07.06-.1.02-.05.07-.14.08-.21.02-.08.02-.17.03-.25,0,0,0,0,0,0,0-.03,0-.06,0-.09Z"/>
        <path d="M30.76,96.71s-.02-.09-.04-.14l-.05-.13c-.03-.06-.08-.11-.14-.15-.03-.03-.07-.06-.12-.07-.06-.03-.13-.05-.21-.05-.03,0-.06,0-.09,0-.07,0-.14.01-.21.03-.14.04-.24.1-.35.2-.02.01-.03.03-.05.05-.04.05-.09.1-.12.16-.03.06-.06.13-.08.19,0,.01,0,.03,0,.04l-.02.14s0,.05,0,.08c0,.07.02.14.06.2.03.04.06.08.09.11l.11.08c.06.04.13.06.2.06.02,0,.04,0,.06,0,.02.03.03.07.06.09l.1.08c.06.04.12.06.19.06.05.01.09.01.14,0,.07,0,.13-.02.19-.06.11-.07.2-.17.24-.31.04-.14.06-.28.06-.42,0-.09-.02-.19-.03-.28Z"/>
        <path d="M29.1,90.72s-.01-.1-.04-.14c-.02-.07-.06-.13-.11-.18-.04-.03-.07-.06-.11-.09-.09-.05-.18-.07-.28-.07-.05,0-.11.01-.16.02-.03,0-.06,0-.09.01-.05,0-.1.01-.14.04-.07.02-.13.06-.18.12-.03.04-.06.08-.09.11,0,0,0,0,0,0,0,0,0,.01,0,.02,0,.01-.01.02-.02.03-.01.03-.02.05-.04.08-.05.11-.04.07-.05.23,0,.09,0,.19.02.28,0,.02,0,.05.02.07.01.05.03.09.05.13.03.04.06.07.08.11.03.03.07.06.11.09,0,0,.02.01.02.01.06.04.12.06.18.06.07.01.13.01.2,0,.04-.02.08-.03.12-.05.07-.04.13-.1.18-.18,0,0,0-.01.01-.02-.03.03-.05.07-.08.1.06-.08.12-.14.15-.25,0,0,0,0,0-.01.02-.01.03-.02.05-.03.06-.04.11-.09.14-.15.02-.04.04-.09.06-.13.02-.07.03-.15,0-.22Z"/>
        <path d="M28.35,92.02c-.59,0-.59.92,0,.92s.59-.92,0-.92Z"/>
        <path d="M32.56,91.36c-.63,0-.63.98,0,.98s.63-.98,0-.98Z"/>
        <path d="M26.62,91.5c-.03-.23-.06-.49-.14-.72-.1-.29-.24-.58-.47-.79-.47-.43-1.18-.62-1.8-.42-.5.15-.94.52-1.18.98-.24.47-.35,1.01-.2,1.52.17.6.66,1.08,1.27,1.24.24.06.49.07.74.03.16.04.33.07.49.07.42,0,.79-.22,1.01-.57.11-.18.19-.41.23-.62.04-.23.07-.47.05-.71Z"/>
        <path d="M21.11,90.4c0-.05-.01-.11-.02-.16-.01-.05-.03-.1-.06-.14-.03-.06-.07-.12-.11-.17-.05-.04-.1-.08-.15-.12,0,0-.02-.01-.03-.02,0,0-.01,0-.01,0-.02-.02-.04-.03-.06-.04-.06-.02-.11-.05-.17-.07-.12-.03-.25-.03-.37,0-.07.03-.16.06-.23.1-.04.03-.12.08-.17.13-.03.03-.06.07-.08.1-.03.04-.06.07-.08.11-.04.07-.06.14-.08.21,0,.03-.02.06-.02.09-.03.09-.03.18-.01.28,0,.09.03.18.08.26.04.08.1.15.18.19.07.06.15.1.24.12h.1s0,.02,0,.02c.07.04.14.05.22.05.07,0,.15-.01.22-.03.07-.02.13-.05.19-.08.13-.08.21-.17.3-.29.04-.06.07-.14.09-.19,0-.02.02-.05.02-.07.01-.07.03-.15.03-.23,0-.01,0-.03,0-.04Z"/>
        <path d="M21.96,85.94c0-.06-.01-.12-.02-.18,0-.02,0-.04-.01-.06-.02-.07-.05-.13-.08-.19-.04-.07-.09-.12-.15-.16-.06-.05-.12-.09-.2-.1-.05,0-.1-.01-.15-.02-.11,0-.2.03-.29.08-.01,0-.03.01-.04.02,0,0-.01,0-.02.01-.04.03-.08.06-.12.09,0,0,0,0,0,0,0,0,0,0,0,0-.04.05-.08.1-.11.15,0,.01-.01.02-.02.03-.03.05-.05.11-.07.17,0,.01,0,.02-.01.04,0,0,0,.01,0,.02,0,.06-.02.11-.02.17,0,0,0,0,0,0,0,.05.01.1.02.15.02.05.04.09.06.14.03.04.06.08.09.11.02.02.04.03.06.05,0,0,.02,0,.02.01.09.07.2.12.31.12.04,0,.08-.01.12-.02,0,0,.02,0,.03,0,0,0,0,0,0,0,.05.01.1.01.15,0,.07,0,.14-.03.21-.07.04-.03.08-.06.11-.09.07-.07.12-.15.14-.25.01-.07.02-.14.03-.21,0,0,0-.02,0-.03Z"/>
        <path d="M23.31,87.42c0-.06-.01-.12-.04-.17-.02-.06-.05-.1-.09-.14-.02-.03-.05-.04-.08-.05,0,0,0-.01-.02-.02-.05-.05-.11-.1-.17-.14,0,0-.02-.01-.03-.02-.04-.02-.07-.04-.11-.05-.06-.02-.12-.02-.18,0-.02,0-.04,0-.06,0-.02,0-.03.01-.05.01h.11s-.1,0-.15,0c0,0-.01,0-.02,0,0,0,0,0-.01,0-.02,0-.07.03-.09.04-.05.03-.1.08-.13.13-.03.04-.04.09-.04.14-.01.05,0,.1,0,.14.02.06.05.12.09.16.01.01.03.02.05.04.03.04.06.07.1.1.01,0,.02.02.04.02,0,0,.01.01.02.02.01.02.03.04.04.07,0,0,0,0,0,0,.02.04.03.08.06.11.03.05.07.09.12.11.04.01.07.03.11.04.06.02.12.02.18,0,.04,0,.08-.01.11-.03.06-.02.1-.05.14-.09.02-.03.05-.06.07-.09.04-.07.06-.14.06-.22,0-.04-.01-.09-.02-.13Z"/>
        <path d="M18.66,87.07s0-.05-.01-.08c0-.03,0-.06,0-.08-.02-.08-.06-.15-.12-.21,0,0,0,0,0,0-.1-.08-.11-.09-.23-.13,0,0-.02,0-.03,0-.04,0-.11-.02-.16-.02,0,0-.01,0-.02,0-.05,0-.09,0-.14.02-.12.03-.23.11-.29.22-.04.08-.07.16-.07.25,0,0,0,0,0,0,0,0,0,.01,0,.02,0,.01,0,.02,0,.03,0,.04-.01.09-.02.13,0,.04.01.08.02.12.01.06.04.11.08.16.02.03.05.06.08.08.04.04.1.07.16.08.04,0,.08.01.12.02.04,0,.08-.01.12-.02.02,0,.04-.02.06-.03.03,0,.06,0,.08,0,.05,0,.11-.02.15-.05l.08-.06c.05-.05.09-.11.11-.18,0-.02.01-.03.02-.05.01-.05.02-.11.02-.16,0-.01,0-.02,0-.04,0,0,0,0,0,0Z"/>
        <path d="M17.42,83.75c-.02-.14-.03-.28-.07-.41-.08-.25-.19-.45-.36-.64-.03-.04-.07-.08-.11-.11-.09-.08-.18-.15-.29-.22-.1-.06-.21-.1-.31-.14-.04-.01-.08-.02-.12-.03,0,0,.02,0,.02,0,0,0-.02,0-.02,0-.07-.01-.15-.02-.22-.03.03,0,.05,0,.08.01-.14-.01-.25,0-.42.03-.02,0-.03,0-.05.01-.09.03-.18.07-.27.11-.1.05-.19.13-.28.2-.03.03-.06.05-.08.08-.1.12-.21.25-.28.4-.07.15-.14.31-.18.47-.04.16-.06.34-.08.51-.01.16.01.32.04.48,0,.03.01.07.02.1.03.09.07.18.11.27,0,.01.01.03.02.04.05.08.11.16.17.22,0,.01.02.02.03.03.14.13.3.23.48.28,0,0,.01,0,.02,0,.07.02.2.03.27.04,0,0,0,0,0,0,.04.01.07.03.11.04.1.02.2.03.3.04.06,0,.13,0,.19,0,.12-.01.26-.02.38-.06.19-.06.32-.14.46-.27.02-.02.03-.03.05-.05.06-.07.13-.15.18-.24.06-.11.11-.23.15-.36.03-.1.04-.2.05-.3.01-.11.03-.21.03-.32,0-.07,0-.13-.01-.2Z"/>
        <path d="M12.55,82.19s-.03-.08-.07-.12c-.04-.06-.09-.1-.15-.13-.02-.01-.04-.02-.06-.03-.02-.01-.03-.02-.05-.03-.07-.04-.14-.07-.22-.07-.08-.02-.16-.01-.24.01-.1.03-.19.08-.26.15-.03.03-.07.09-.1.13,0,0,0,0,0,0-.03.05-.05.11-.07.15,0,0,0,.01,0,.02,0,0,0,0,0,0,0,.01,0,.03,0,.04-.03.04-.06.08-.07.13,0,.04-.01.08-.02.12,0,.08.02.15.06.22.02.03.05.06.07.09.05.05.11.09.18.11.03.03.07.06.12.07.07.04.14.05.22.05.05,0,.1-.01.15-.02l.14-.06c.07-.04.12-.08.16-.15,0,0,0,0,0,0,.02-.02.04-.04.06-.06.01,0,.02-.01.03-.02.02-.01.03-.03.04-.05.05-.05.08-.11.09-.18,0,0,0,0,0-.01,0,0,0-.02,0-.03,0-.05.01-.09.02-.14,0-.07-.01-.14-.05-.2Z"/>
        <path d="M13.96,75.63c0-.08-.02-.16-.04-.24,0-.02-.01-.03-.02-.05-.02-.06-.05-.12-.08-.18,0,0,0-.01-.01-.02-.03-.04-.13-.15-.09-.12-.02-.01-.04-.03-.06-.04-.04-.03-.08-.06-.12-.07-.09-.04-.09-.04-.22-.05h0s-.01,0-.02,0c-.07,0-.14,0-.2.03-.11.04-.19.08-.28.16-.02.02-.04.05-.05.06,0,.01-.03.04-.05.06,0,0,0,0,0,0-.02.03-.04.1-.06.13,0,0,0,0,0,0-.02.06-.03.13-.03.2,0,0,0,.01,0,.02,0,.05.01.1.02.15,0,0,0,.01,0,.02,0,.02.04.11.05.13.02.04.05.08.09.11,0,0,.01,0,.02.01.01.05.03.11.06.15.04.07.09.12.15.16.06.05.12.09.2.1.05,0,.1.01.15.02.1,0,.2-.03.29-.08.04-.03.08-.06.12-.09.07-.07.12-.16.15-.25.02-.08.03-.17.03-.25,0-.03,0-.07,0-.1Z"/>
        <path d="M9.38,77.26s-.01-.02-.02-.03c0,0,0-.02,0-.02-.01-.04-.03-.07-.06-.1-.02-.03-.05-.06-.08-.08,0,0-.01,0-.02-.01,0,0-.02-.02-.03-.02-.04-.02-.07-.03-.11-.05-.04,0-.08-.01-.12-.02-.04,0-.08.01-.12.02-.04.02-.07.03-.11.05-.03.02-.06.05-.09.07-.02.03-.05.06-.07.09,0,.02-.02.04-.02.05,0,0,0,0,0,0h0s-.02.04-.02.05c0,.04-.01.08-.02.12,0,0,0,0,0,.01,0,.04,0,.07.01.11,0,.01,0,.03.01.04,0,0,0,.01,0,.02h0s.01.04.02.07c.01.04.03.07.05.09.01.02.02.03.03.04.04.04.08.07.14.09.05.03.11.04.16.04.04,0,.08-.01.11-.02.07-.02.13-.06.19-.11,0,0,0,0,0,0,.02-.03.04-.06.07-.09.02-.04.03-.07.04-.11,0,0,0,0,0-.01,0,0,0-.01,0-.02,0-.01,0-.03.01-.04,0-.04.01-.08.02-.12,0-.04-.01-.08-.02-.12Z"/>
        <path d="M10.27,77.95c-.04-.06-.09-.11-.15-.15-.07-.04-.14-.06-.21-.06-.08-.01-.18.03-.25.07-.04.02-.07.05-.1.07,0,0,0,0,0,0,0,0,0,0,0,0-.02.03-.04.05-.06.08-.03.04-.04.08-.05.13,0,.01-.02.02-.02.04-.03.05-.05.1-.05.16-.01.06-.01.11,0,.17.01.06.04.1.08.15.03.05.07.08.12.11.03.01.07.03.1.04.08.02.15.02.23,0,.03-.01.07-.03.1-.04.06-.04.12-.09.15-.15.04-.07.08-.13.11-.2.08-.13.08-.29,0-.42Z"/>
        <path d="M15.25,79.11c-.01-.13-.02-.26-.06-.38-.1-.33-.29-.6-.55-.81-.08-.08-.16-.16-.25-.23-.13-.1-.26-.22-.4-.3-.26-.14-.58-.21-.87-.13-.52.15-.88.63-1.18,1.05-.13.18-.23.38-.3.59-.02.06-.02.13-.03.19-.01.08-.03.17-.03.25,0,.12.02.24.04.35,0,.04.01.08.03.12.09.28.24.55.47.75.23.2.49.36.79.43.32.08.61.08.93.02.31-.05.57-.22.81-.41.25-.21.4-.5.5-.8.06-.18.09-.37.1-.56,0-.04,0-.09,0-.13Z"/>
        <g>
          <path d="M19.7,84.93s-.02,0-.03.01c0,0,0,0,0,0,.01,0,.02,0,.03-.01Z"/>
          <path d="M20.18,84.09c0-.09-.02-.17-.03-.26,0-.01,0-.02,0-.03-.03-.07-.06-.14-.09-.21,0,0,0,0,0,0,0,0,0-.01,0-.02,0-.01-.01-.02-.02-.03-.02-.02-.04-.05-.06-.07,0,0,0,0,0,0-.08-.13-.19-.24-.32-.32-.02-.01-.04-.03-.06-.04-.01,0-.02-.01-.03-.02-.07-.03-.15-.07-.23-.1,0,0-.01,0-.02,0-.02,0-.04-.01-.07-.02-.07-.01-.17-.02-.24-.03,0,0,0,0,0,0,0,0,0,0,0,0,0,0-.01,0-.02,0,0,0-.01,0-.02,0,0,0,0,0,0,0,0,0,0,0,0,0,0,0,0,0,0,0-.04,0-.2.03-.24.03,0,0-.02,0-.03,0,0,0,0,0,0,0-.02,0-.2.08-.22.09,0,0,0,0,0,0,0,0,0,0,0,0,0,0,0,0,0,0,0,0-.18.14-.18.14,0,0,0,0,0,0,0,0-.01.01-.02.02-.03.03-.12.15-.14.18,0,0,0,0,0,0,0,0,0,0,0,0,0,0,0,0,0,.01h0c-.02.05-.07.17-.09.22,0,0,0,0,0,0,0,0,0,.01,0,.02,0,0,0,.01,0,.02,0,0,0,0,0,0-.01.07-.02.16-.03.24,0,0,0,0,0,.01,0,.01,0,.03,0,.04,0,0,0,.02,0,.02.01.08.02.16.03.24,0,0,0,0,0,.01,0,0,0,.02,0,.03,0,0,0,0,0,.01,0,0,0,0,0,0,0,0,.09.21.09.21.02.03.05.06.07.09.04.07.09.12.16.16.12.09.06.05.19.11.06.02.07.04.12.05,0,0,0,0,0,0,.02,0,.04,0,.06,0,.01,0,.02.02.03.02.13.08.27.11.42.11.02,0,.03,0,.05,0,0,0,0,0,.01,0,.08,0,.15-.02.23-.03,0,0,.01,0,.02,0,.01,0,.02,0,.03,0,.07-.02.14-.05.2-.08.08-.04.14-.08.23-.17,0,0,0,0,.01-.01.03-.03.11-.14.14-.18,0,0,0,0,0,0,0,0,0,0,0,0,.02-.03.04-.1.05-.11,0-.02.04-.08.05-.12,0,0,0,0,0,0,0,0,0,0,0,0,0-.03.01-.11.02-.12,0-.02.01-.08.01-.11,0,0,0,0,0-.01Z"/>
          <path d="M19.66,84.94c-.06.02-.12.05-.17.07.07-.03.12-.05.17-.07Z"/>
        </g>
        <path d="M98.6,71.57c-.03-.19-.12-.37-.23-.53-.13-.18-.26-.36-.41-.52-.36-.41-.88-.59-1.42-.45-.39.1-.74.37-.99.68-.28.35-.5.7-.64,1.13-.15.43-.16.94.08,1.34.28.48.81.68,1.35.69.57.18,1.2-.06,1.6-.51.17-.19.33-.4.45-.63.08-.14.15-.3.2-.46.07-.25.07-.48.03-.74Z"/>
        <path d="M97.01,68.26c0-.1-.03-.2-.08-.29-.05-.09-.12-.15-.21-.21-.05-.02-.11-.05-.17-.07-.01,0-.02,0-.03-.01,0,0,0,0-.01,0-.03,0-.05,0-.08-.01-.03,0-.06-.01-.08-.01,0,0,0,0,0,0-.06,0-.12.01-.18.02-.02,0-.04,0-.06.01-.06.02-.13.05-.19.08-.03.02-.06.04-.08.06-.03.02-.06.04-.08.06,0,0-.01.01-.02.02-.04.04-.07.09-.11.14-.03.04-.04.08-.06.13-.02.04-.04.08-.05.13-.02.07-.03.15-.03.22,0,.03,0,.05,0,.08,0,.08.01.15.05.22.02.07.06.13.12.19.05.06.11.1.19.12.07.04.14.05.22.05.05,0,.1-.01.15-.02.06-.02.11-.04.16-.07.04,0,.07,0,.11-.02.12-.03.21-.1.3-.18.05-.04.1-.11.13-.16,0,0,.01-.02.02-.03.03-.05.05-.11.07-.16,0-.01,0-.02,0-.03,0-.06.02-.12.02-.18,0-.03,0-.06,0-.08Z"/>
        <path d="M100.33,66.12c-.03-.09-.07-.18-.11-.27,0-.01-.01-.03-.02-.04-.03-.05-.07-.09-.1-.14-.03-.04-.06-.09-.1-.13,0,0,0,0-.01-.01,0,0,0,0-.01-.01-.06-.05-.13-.1-.19-.15-.03-.02-.21-.09-.24-.1-.05-.01-.21-.03-.26-.04-.03,0-.06,0-.09,0-.04,0-.08.01-.12.02-.06,0-.12.02-.18.04-.12-.01-.19,0-.35.03-.04,0-.07.02-.11.04,0,0,.01,0,.02,0,0,0-.02,0-.03.01-.03.01-.05.02-.08.03-.02,0-.04.02-.05.02-.02,0-.03.02-.05.02,0,0,.02,0,.03-.01-.02.01-.05.02-.07.04-.08.05-.15.11-.23.17-.04.03-.07.06-.1.09-.11.13-.22.26-.29.42-.05.11-.1.23-.14.35,0,.02-.01.04-.02.06,0,.01,0,.02,0,.03-.01.09-.03.19-.04.28,0,.02,0,.04,0,.06,0,.1.02.21.04.31,0,.02.01.04.02.06.03.09.07.19.12.28.05.08.11.16.17.23.01.02.03.03.05.05.07.06.15.13.24.18.01,0,.02.01.03.02.04.02.1.04.12.05.15.06.09.05.25.07.04,0,.08.01.13.02.08-.01.17-.02.25-.03.06-.02.18-.07.23-.1,0,0,.02,0,.03-.01.03-.01.05-.03.08-.04.06-.03.12-.06.17-.09.12-.07.24-.14.36-.23.21-.16.43-.32.55-.56.1-.2.17-.42.16-.65,0-.11-.02-.23-.05-.34Z"/>
        <path d="M101.13,61.72c-.03-.14-.1-.28-.16-.41-.05-.12-.11-.24-.18-.35-.11-.19-.26-.35-.44-.46-.2-.12-.41-.15-.64-.17-.12,0-.23-.02-.35-.01-.24.01-.45.05-.66.14-.08.03-.15.06-.22.11-.1.07-.2.14-.28.23-.17.19-.28.37-.36.62-.02.08-.03.16-.04.25-.01.09-.03.18-.03.28,0,.19.03.39.07.57.02.08.04.16.06.23.05.13.1.27.17.38.11.18.23.31.41.42.17.11.36.15.56.16.12,0,.24-.01.35-.05.02,0,.04-.02.06-.02.17-.02.33-.04.48-.1.16-.06.32-.13.46-.22.35-.22.64-.54.72-.96.05-.24.04-.41,0-.65Z"/>
        <path d="M88.6,17.3c-.03-.11-.08-.22-.13-.32-.01-.03-.02-.05-.04-.07-.01-.02-.02-.03-.04-.05-.01-.03-.03-.06-.04-.09-.06-.1-.14-.19-.2-.27-.02-.03-.04-.05-.07-.07-.09-.07-.18-.15-.28-.21-.1-.06-.21-.1-.32-.14-.04-.01-.07-.03-.11-.04-.12-.03-.24-.04-.36-.05-.04,0-.09,0-.13,0-.12,0-.23.03-.35.04-.03,0-.06.01-.09.02-.1.03-.21.08-.3.13-.03.01-.05.03-.08.04-.09.06-.17.13-.25.19-.02.02-.04.04-.06.06-.07.08-.14.17-.2.25-.02.02-.03.04-.04.07-.14.26-.2.49-.22.78,0,.1.01.19.02.29.01.1.02.19.05.28.04.12.09.26.16.37.06.09.12.17.19.25.02.02.04.04.06.06.09.09.2.18.31.24.09.05.2.09.3.13.03.01.06.02.09.03.31.07.61.06.92-.02.15-.04.3-.1.44-.17.03-.02.06-.04.1-.06.1-.07.2-.14.29-.23.18-.19.27-.36.36-.6.06-.15.08-.33.07-.49,0-.12-.02-.24-.05-.36Z"/>
        <path d="M88.98,20.67c-.02-.08-.05-.14-.1-.2-.03-.04-.06-.08-.1-.1-.06-.05-.12-.09-.2-.1-.03-.01-.07-.02-.1-.03-.06-.02-.1-.03-.18-.03-.05,0-.1.01-.16.02,0,0,0,0-.01,0-.02,0-.03,0-.05.01-.04.02-.09.04-.13.06-.04.03-.08.06-.11.09-.03.04-.06.08-.09.11-.04.06-.06.13-.07.21,0,.02,0,.04,0,.06-.01.02-.03.04-.04.06-.03.05-.04.1-.03.16-.01.02-.02.04-.03.06-.02.07-.02.13,0,.2,0,.07.02.13.06.19.03.03.05.07.08.1.06.06.14.1.22.13.03.01.05.02.08.02.07.01.14.03.21.02.06,0,.12,0,.18-.03.05-.02.11-.04.16-.07.06-.03.12-.08.17-.12.05-.04.1-.11.13-.16.02-.02.03-.04.04-.07.03-.06.07-.14.08-.21.01-.08.03-.16.03-.23,0-.05-.01-.1-.02-.15Z"/>
        <path d="M94.2,20.73c-.04-.23-.13-.46-.24-.66-.16-.27-.4-.52-.68-.68-.63-.35-1.39-.3-2.02,0-.46.22-.85.68-1.11,1.11-.15.24-.28.52-.33.8-.05.28-.08.52,0,.81.05.18.13.32.22.45,0,0,0,0,0,0,.04.19.12.39.24.55.18.26.41.5.7.63.2.09.35.14.57.17.23.03.38.02.63-.02.25-.04.49-.15.71-.28.44-.26.85-.68,1.07-1.14.14-.29.22-.55.26-.86.02-.13.04-.25.04-.38,0-.18-.03-.35-.05-.52Z"/>
        <path d="M90.58,18.76s0-.04-.01-.06c0-.01,0-.02,0-.03,0,0,0-.01,0-.02,0,0,0,0,0,0,0,0,0,0,0-.01-.01-.03-.02-.06-.04-.09,0-.01-.02-.02-.03-.03,0,0,0-.01,0-.02,0-.02-.03-.02-.04-.04-.01-.01-.02-.03-.04-.04,0,0-.01,0-.02,0-.01,0-.02-.02-.03-.02-.03-.01-.07-.03-.1-.04-.03-.01-.07-.01-.1-.01-.02,0-.05,0-.07,0h0s-.04,0-.06,0c-.03.01-.07.03-.1.04-.03.02-.06.04-.09.07-.03.03-.05.06-.07.09,0,0,0,0,0,0,0,0,0,0,0,0-.02.03-.03.07-.04.1,0,0,0,0,0,0,0,0,0,.02,0,.02,0,.01,0,.02,0,.03v.06c-.03.08-.03.16-.01.24.02.08.06.15.12.2.03.02.06.05.09.07.07.04.15.06.23.06.06,0,.12-.01.18-.04.06-.02.11-.05.15-.1.06-.06.1-.12.12-.2.02-.08.02-.16,0-.24Z"/>
        <path d="M92.03,26.12c-.02-.07-.05-.14-.09-.2-.03-.04-.07-.1-.11-.14-.05-.05-.1-.08-.15-.12-.09-.05-.18-.07-.28-.08-.1,0-.19.03-.28.08-.07.04-.13.1-.17.17,0,0,0,0,0,0-.08.05-.14.11-.18.18-.03.07-.07.14-.08.22-.01.07-.03.15-.02.23,0,.07.01.15.04.22.03.07.05.14.1.21.03.04.05.07.08.11.05.05.1.09.17.11.04.02.09.04.13.04.07.02.14.01.21,0,.07-.03.14-.05.21-.09.06-.04.12-.09.18-.13.03-.02.05-.04.07-.06.05-.05.09-.11.13-.17.03-.06.07-.13.08-.2.02-.13.03-.22,0-.36Z"/>
        <g>
          <path d="M96.37,25.32c-.11-.42-.37-.82-.75-1.03-.36-.2-.82-.25-1.21-.11-.36.12-.64.31-.92.56-.08.07-.15.15-.22.23-.12.15-.24.3-.33.46-.02.03-.03.07-.05.1-.11.14-.17.24-.24.41-.05.14-.08.28-.08.45,0,.15.04.29.09.42.03.17.09.34.19.49.16.24.38.44.64.55.18.13.38.24.61.3.3.08.66.09.95-.02.29-.11.57-.26.77-.5.23-.27.36-.51.49-.83.17-.45.19-.99.07-1.46Z"/>
          <path d="M92.61,25.98s.01-.03.02-.05c0,0,0,0,0,0,0,.02-.02.04-.02.05Z"/>
          <path d="M92.64,25.93c.02-.05.05-.11.07-.16-.03.06-.05.11-.07.16Z"/>
        </g>
        <path d="M98.72,28.41s0-.01,0-.02c-.01-.06-.05-.14-.07-.17-.03-.07-.09-.13-.13-.19-.04-.03-.08-.06-.12-.09-.07-.04-.14-.07-.22-.07-.05-.01-.1-.01-.16,0-.06,0-.12.02-.17.05-.06-.02-.13-.02-.19,0-.06,0-.12.02-.18.06-.03.02-.06.05-.1.07-.06.06-.1.13-.12.21,0,.04-.01.08-.02.13,0,.09.02.16.06.24.03.05.07.1.11.14,0,.02,0,.04,0,.06,0,0,0,.02,0,.03,0,0,0,0,0,.01,0,.02.02.04.03.06.02.06.06.12.1.16,0,.01.02.02.03.03.04.05.09.08.15.1.06.03.11.04.18.04.02,0,.05,0,.07,0,.01,0,.03,0,.04,0,.05.01.09.01.14,0,.07,0,.14-.02.2-.06.01,0,.02-.02.03-.02,0,0,.02,0,.02-.01.03-.01.04-.04.06-.06.01,0,.02-.02.03-.03,0,0,0,0-.01,0,.03-.02.06-.04.08-.07.02-.02.03-.04.05-.06,0,0,0-.01,0-.02.02-.05.04-.1.06-.15.01-.03.01-.07.02-.1,0-.03.01-.07.01-.11,0-.05-.01-.11-.02-.16Z"/>
        <path d="M97.55,30.53c-.03-.13-.09-.26-.15-.37-.07-.16-.19-.32-.32-.44-.1-.09-.2-.17-.31-.24-.06-.03-.12-.05-.18-.08-.06-.03-.12-.06-.19-.07-.07-.02-.14-.02-.21-.03-.07,0-.14-.02-.2-.02-.14,0-.29.02-.43.05-.31.06-.61.27-.82.5-.18.2-.36.43-.47.68-.19.4-.34.85-.2,1.3.12.39.39.71.79.82.05.01.1.02.16.03.02.01.03.02.05.04.36.23.85.29,1.26.17.44-.12.82-.43,1.04-.83.09-.16.17-.34.2-.53.03-.18.07-.39.05-.57-.01-.13-.03-.28-.06-.41Z"/>
        <path d="M96.81,34.8c.01-.11,0-.23-.03-.34-.02-.08-.06-.16-.09-.23-.01-.02-.02-.04-.04-.06-.09-.13-.12-.17-.23-.25-.09-.07-.12-.09-.23-.13-.05-.02-.1-.05-.16-.06-.06-.01-.15-.03-.22-.03-.03,0-.15.02-.11.01.02,0-.08,0-.11.02-.08.02-.15.06-.22.09-.02,0-.04.02-.05.03-.1.06-.19.13-.28.2-.05.04-.09.07-.13.11-.13.12-.24.26-.35.41-.02.03-.04.07-.06.1-.09.18-.12.3-.13.5,0,.03,0,.05,0,.07,0,.09.01.19.04.28.07.2.13.31.27.47.07.08.17.15.26.21.02.01.04.02.06.03.08.04.17.08.26.11.03,0,.05.01.08.02,0,0,0,0,.01,0,.23.04.17.04.34.02.05,0,.1-.01.15-.02.05-.01.11-.03.16-.05.11-.04.22-.09.33-.15.02-.01.04-.03.07-.05.11-.08.2-.15.27-.27.02-.03.07-.14.07-.18,0-.06.02-.13.03-.19,0-.02,0-.03,0-.05,0-.08-.01-.16-.04-.23.02-.04.04-.08.06-.13.02-.09.03-.18.04-.27Z"/>
        <g>
          <path d="M100.3,33.83c.07.03.13.06.2.08-.07-.03-.13-.06-.2-.08Z"/>
          <path d="M100.27,33.82s.02,0,.02.01c0,0,0,0,0,0-.01,0-.02,0-.03-.01Z"/>
          <path d="M101.64,35.38c-.01-.08-.04-.15-.07-.23-.11-.28-.24-.54-.48-.74-.04-.03-.08-.06-.12-.09-.18-.22-.41-.39-.69-.49-.15-.06-.3-.1-.48-.09-.28.02-.47.08-.72.2-.32.15-.6.44-.79.75-.03.03-.06.07-.08.11.02-.02.04-.05.06-.07,0,0,0,0,0,0-.1.12-.18.25-.23.41-.03.1-.05.21-.06.31,0,.03-.02.06-.02.09,0,.02-.02.04-.02.06,0,0,0-.02.01-.03-.05.13-.09.25-.09.4,0,.13.03.24.07.35.01.12.03.24.06.36.04.15.1.29.17.43.03.07.07.14.11.2.08.11.17.24.28.33.17.14.25.2.44.28.19.08.3.1.53.12.1,0,.19,0,.28-.02.1-.01.2-.02.29-.06.4-.15.76-.38,1.02-.71.13-.17.26-.33.35-.52.13-.3.21-.56.22-.9,0-.15-.02-.31-.05-.46Z"/>
        </g>
        <path d="M98.1,38.92c0-.08-.03-.15-.07-.21-.03-.04-.06-.08-.09-.12-.05-.06-.11-.09-.18-.12-.04-.03-.09-.04-.14-.04-.08-.02-.15-.01-.23.01-.05.02-.09.04-.14.06-.04.03-.08.05-.11.09-.01.01-.02.02-.03.03,0,0-.01.01-.02.02,0,0,0,0-.01.01,0,0,0,0,0,0-.02,0-.03,0-.05,0-.06,0-.12.02-.17.06-.05.03-.1.07-.13.12-.04.05-.07.1-.08.16,0,.04-.01.08-.02.12,0,.08.02.16.06.24.02.03.05.06.07.09.02.02.05.04.07.06,0,.02.02.05.03.07.03.06.08.11.14.15.03.03.07.06.12.07.04.02.09.04.14.04.05.01.09.01.14,0,.07,0,.14-.02.2-.06.09-.05.18-.14.25-.22.02-.02.04-.05.06-.07.06-.07.07-.08.1-.13.02-.05.04-.1.06-.15,0-.02.01-.03.02-.05.02-.08.03-.15.01-.23Z"/>
        <path d="M99.33,46.77s-.02-.04-.03-.06c0,0,0-.02,0-.02,0,0,0,0,0,0-.02-.04-.04-.08-.05-.13,0,0,0-.01,0-.02,0-.01-.01-.02-.02-.03-.03-.03-.05-.07-.08-.1-.03-.03-.07-.05-.1-.08-.04-.02-.08-.03-.12-.05-.07-.02-.13-.02-.2,0-.05,0-.09.01-.13.03-.01,0-.02.01-.03.02-.03-.01-.06-.02-.08-.04-.06-.02-.12-.02-.18,0-.04,0-.08.01-.12.03-.06.02-.11.05-.15.1-.02.03-.05.06-.07.09-.04.07-.06.15-.06.23,0,.04,0,.07.01.11,0,.04,0,.08.02.11,0,.03.02.07.03.1.03.07.05.14.09.2.03.05.07.1.11.14,0,0,.01.02.02.03.01.02.02.03.04.05,0,0,.01.01.02.02,0,0,0,0,0,0,.02.02.04.03.06.05.02.02.04.03.06.05.03.01.06.03.09.04.03.01.06.03.09.04.02,0,.04.01.06.01l.15.02c.08,0,.15-.01.22-.05.05-.01.09-.04.12-.07.06-.04.11-.09.15-.16.01-.02.02-.04.03-.06.03-.06.06-.13.07-.19,0-.07.02-.14.03-.2,0-.01,0-.02,0-.03,0-.05-.01-.1-.02-.15Z"/>
      </g>
      <path d="M104.89,53.97c-.72,0-.72,1.11,0,1.11s.72-1.11,0-1.11Z"/>
      <path d="M103.21,58.48c-.61,0-.62.96,0,.96s.62-.96,0-.96Z"/>
      <path d="M104.07,47.1c-.04-.13-.09-.26-.17-.39-.17-.26-.35-.43-.61-.61-.37-.25-.87-.35-1.31-.35-.44,0-.91.12-1.3.34-.67.39-1.13,1.15-1.08,1.94.02.41.12.75.3,1.12.07.14.16.26.25.38.09.12.18.24.29.34.59.53,1.38.8,2.17.59.41-.11.78-.35,1.08-.64.42-.42.8-1.01.76-1.62-.02-.39-.18-.76-.39-1.09Z"/>
    </g>
  </g>
</svg>