<?xml version="1.0" encoding="UTF-8"?>
<svg id="Layer_2" data-name="Layer 2" xmlns="http://www.w3.org/2000/svg" viewBox="0 0 86.01 104.03">
  <defs>
    <style>
      .cls-1 {
        fill: #201522;
      }
    </style>
  </defs>
  <g id="Objects">
    <path class="cls-1" d="M78.33,64.23c-1.86-2.38-3.9-4.62-6.05-6.74-1.96-1.93-4.02-3.75-6.16-5.48,1.02-.81,2.02-1.66,3-2.52,2.61-2.33,5.11-4.8,7.39-7.46,2.28-2.65,4.35-5.51,6.02-8.59,1.67-3.07,2.96-6.38,3.49-9.83-.76,3.4-2.18,6.61-3.96,9.56-1.8,2.95-3.93,5.68-6.24,8.25-2.32,2.56-4.85,4.93-7.49,7.16-1.31,1.11-2.66,2.18-4.04,3.2l-4.2,3.01c-1.36.73-2.79,1.31-4.27,1.65-1.48.35-3.02.42-4.49.17-1.48-.24-2.87-.86-4.08-1.73-.86-.62-1.61-1.37-2.29-2.21,1.2-.12,2.39-.37,3.54-.8,1.6-.61,3.08-1.58,4.24-2.85,1.17-1.26,2.04-2.76,2.61-4.34.58-1.58.9-3.23,1.04-4.87v-.04s0-.03,0-.03c-.03-3.08-.22-6.14-.6-9.18,4.59-2.4,9.39-4.44,14.4-5.8,2.57-.71,5.19-1.24,7.84-1.48,2.66-.23,5.35-.17,7.99.31-2.61-.66-5.32-.86-8.02-.74-2.7.12-5.38.52-8.01,1.14-5.17,1.25-10.14,3.21-14.9,5.54,0-.07-.01-.14-.02-.2-.39-3.46-.99-6.9-1.8-10.29-.83-3.39-1.94-6.72-3.43-9.91-1.5-3.17-3.46-6.17-5.95-8.73l-.4-.41-.44.41c-2.02,1.87-3.69,4.09-5.08,6.44-1.4,2.35-2.5,4.86-3.42,7.42-1.75,4.93-2.78,10.06-3.35,15.21h0c-3.09-1.63-6.29-3.07-9.59-4.27-3.29-1.21-6.72-2.11-10.22-2.62-3.5-.49-7.12-.46-10.64.25L0,22.99l.14.75c.57,3.05,1.7,5.95,3.14,8.65,1.46,2.69,3.21,5.2,5.15,7.52,3.77,4.5,8.12,8.43,12.75,11.96-1.14.86-2.27,1.75-3.36,2.67-2.68,2.25-5.24,4.66-7.56,7.3-2.33,2.63-4.48,5.45-6.25,8.51-1.77,3.06-3.18,6.38-3.86,9.92l-.14.74.74.16c5.45,1.14,11.03.49,16.27-.86,2.63-.68,5.2-1.56,7.71-2.56,2.2-.87,4.33-1.89,6.43-2.97.62,5.07,1.72,10.1,3.43,14.95.92,2.56,2.03,5.06,3.4,7.42,1.38,2.36,3.02,4.59,5.04,6.47l.44.41.42-.41c3.91-3.91,6.41-8.91,8.13-14,.85-2.57,1.49-5.19,2-7.83.47-2.43.8-4.88,1.03-7.33,3.33,1.65,6.78,3.07,10.3,4.25,3.32,1.1,6.76,1.9,10.24,2.27,3.48.37,7.03.26,10.42-.55-3.43.58-6.93.54-10.35.02-3.41-.55-6.76-1.45-10.01-2.61-3.25-1.17-6.42-2.57-9.48-4.17-3.05-1.59-6.05-3.31-8.9-5.21-2.4-1.94-4.39-4.47-5.06-7.4-.33-1.46-.32-2.98.04-4.44.26-1.12.72-2.19,1.29-3.2.81,1.02,1.74,1.95,2.82,2.72,1.4.99,3.02,1.68,4.72,1.95,1.69.27,3.43.16,5.06-.24,1.64-.39,3.18-1.05,4.63-1.84l.04-.02h.02s4.25-3.12,4.25-3.12c4.58,3.54,8.9,7.46,12.6,11.92,1.89,2.3,3.66,4.71,5.1,7.32,1.45,2.61,2.6,5.39,3.24,8.33-.44-2.97-1.47-5.85-2.82-8.55-1.35-2.7-3-5.26-4.86-7.63ZM35.99,14.78c1.68-4.78,4.02-9.4,7.48-13.06,2.26,2.25,4.14,4.91,5.63,7.78,1.58,3.06,2.81,6.32,3.75,9.65.95,3.34,1.64,6.75,2.1,10.2.01.08.02.16.03.24-.05.02-.1.05-.15.07l-.38.18.04.44c.3,3.14.52,6.29.51,9.43-.29,3.07-1.27,6.14-3.35,8.31-1.02,1.09-2.3,1.91-3.71,2.44-1.2.45-2.49.66-3.79.72.65-1.1,1.19-2.28,1.5-3.54.41-1.59.45-3.29.1-4.91-.35-1.62-1.07-3.16-2-4.52-.95-1.36-2.1-2.56-3.36-3.61h-.01s-.03-.03-.03-.03c-2.51-1.73-5.11-3.31-7.8-4.74.69-5.12,1.74-10.2,3.43-15.05ZM9.4,39.13c-1.81-2.35-3.48-4.81-4.82-7.43-1.23-2.38-2.19-4.89-2.75-7.48,3.06-.55,6.23-.56,9.36-.18,3.39.42,6.75,1.22,10.04,2.27,3.28,1.06,6.5,2.36,9.62,3.86.08.04.17.08.25.12l-.04.34.42.21c2.82,1.42,5.6,2.94,8.26,4.63,2.46,1.9,4.55,4.41,5.32,7.43.38,1.51.41,3.1.07,4.63-.27,1.29-.79,2.52-1.44,3.68-.07,0-.13,0-.2,0h-.32s-.17.17-.17.17c-.78-1.12-1.7-2.16-2.8-2.99-1.3-.97-2.83-1.67-4.44-1.97-1.62-.3-3.29-.25-4.9.1-1.61.34-3.15.97-4.59,1.72h-.02s-.02.02-.02.02l-4.29,3.02c-.09.07-.18.14-.28.21-4.5-3.71-8.71-7.79-12.26-12.38ZM24.24,76.51c-2.48.96-5,1.8-7.57,2.44-4.86,1.21-9.97,1.75-14.84.84.66-3.04,1.88-5.97,3.44-8.71,1.69-2.97,3.75-5.74,6.01-8.33,2.27-2.59,4.74-5.01,7.31-7.31,1.29-1.15,2.61-2.27,3.98-3.32l4.14-3.1c1.36-.77,2.81-1.38,4.32-1.78,1.51-.4,3.1-.53,4.65-.31,1.55.21,3.05.81,4.36,1.7,1.11.76,2.09,1.72,2.94,2.79l-.02.02s-.01.02-.02.03h-.05s.02,0,.02,0c-1.48.03-2.98.25-4.41.77-1.6.58-3.08,1.53-4.25,2.78-1.18,1.24-2.06,2.73-2.65,4.31-.6,1.58-.93,3.23-1.09,4.87v.03s0,.04,0,.04c0,3.11.18,6.2.51,9.28-2.22,1.08-4.49,2.06-6.78,2.97ZM51.28,89.35c-1.77,4.77-4.23,9.38-7.81,12.93-3.48-3.64-5.87-8.24-7.53-13.03-1.74-4.99-2.72-10.23-3.38-15.49h0s0-.04,0-.04c-.37-3.12-.6-6.27-.62-9.41.26-3.07,1.22-6.15,3.29-8.36,1.02-1.11,2.31-1.94,3.72-2.5,1.03-.4,2.12-.64,3.23-.75-.62,1.12-1.11,2.31-1.39,3.57-.39,1.67-.39,3.44,0,5.11.4,1.67,1.17,3.22,2.16,4.59.99,1.36,2.19,2.54,3.48,3.57l.03.02.02.02c2.75,1.8,5.6,3.42,8.53,4.87-.8,5.09-1.92,10.13-3.73,14.92Z"/>
  </g>
</svg>