<?xml version="1.0" encoding="UTF-8"?>
<svg id="Layer_2" data-name="Layer 2" xmlns="http://www.w3.org/2000/svg" viewBox="0 0 85.61 86.55">
  <defs>
    <style>
      .cls-1 {
        fill: #201522;
      }
    </style>
  </defs>
  <g id="Objects">
    <g>
      <path class="cls-1" d="M84.61,43.49c-.15-.08-.31-.14-.47-.2l-.24-.09s-.02,0-.04,0c.01,0,.02,0,.04,0l.24-.09c.16-.06.32-.12.47-.2.31-.15.62-.33.84-.62.26-.29.18-.79-.09-1.04-.25-.26-.56-.43-.87-.59-1.27-.54-2.61-.8-3.95-1.01-2.16-.33-4.34-.5-6.51-.61,2.07-.68,4.13-1.41,6.12-2.3,1.23-.56,2.46-1.16,3.54-2.01.26-.23.51-.47.68-.79.19-.31.14-.81-.19-1.02-.29-.22-.64-.31-.98-.38-.17-.03-.34-.05-.51-.07l-.25-.02s-.02,0-.04,0c.01,0,.02,0,.03-.01l.21-.15c.14-.1.27-.2.4-.32.26-.23.51-.48.65-.82.17-.35-.04-.81-.36-.98-.31-.19-.65-.27-.99-.34-1.36-.19-2.73-.08-4.07.06-1.72.2-3.43.5-5.13.85,1.47-.96,2.91-1.95,4.3-3.04,1.07-.85,2.12-1.73,3-2.88.21-.31.41-.63.52-1.06.16-.41-.13-1.18-.63-1.33-.42-.15-.79-.18-1.14-.16.19-.3.36-.63.44-1.07.03-.23-.01-.56-.2-.78-.09-.1-.2-.23-.3-.29-.11-.05-.22-.11-.33-.15-.43-.12-.81-.11-1.18-.08-1.44.18-2.73.65-4.01,1.14-1.62.64-3.19,1.37-4.73,2.15,1.14-1.29,2.26-2.61,3.29-4,.8-1.11,1.59-2.23,2.14-3.57.12-.35.23-.71.22-1.16.05-.44-.43-1.11-.95-1.11-.44-.03-.81.04-1.14.15.11-.34.18-.71.14-1.15-.03-.23-.16-.54-.4-.7-.12-.08-.25-.17-.37-.2-.12-.02-.24-.04-.36-.06-.45,0-.81.11-1.17.23-1.34.55-2.47,1.34-3.57,2.15-1.06.8-2.08,1.63-3.08,2.5.58-1.2,1.13-2.41,1.63-3.65.5-1.28.98-2.57,1.17-4.05l.02-.59c-.02-.21-.04-.43-.11-.66-.05-.13-.11-.25-.17-.37-.07-.12-.21-.25-.33-.35-.26-.22-.64-.27-.9-.24-.36.05-.63.16-.86.29,0-.27-.04-.56-.17-.9-.1-.24-.33-.55-.66-.67-.15-.05-.34-.12-.48-.12-.14,0-.28.02-.41.04-.24.06-.44.15-.63.24l-.5.31c-1.19.9-2.07,1.95-2.94,3.02-.89,1.12-1.72,2.27-2.51,3.45.27-1.38.5-2.78.66-4.19.14-1.37.27-2.74.06-4.21l-.13-.57c-.07-.2-.15-.4-.28-.61-.08-.11-.17-.22-.26-.32-.1-.1-.27-.18-.41-.25-.31-.15-.69-.09-.93,0-.33.14-.56.32-.75.51-.07-.26-.18-.54-.4-.83-.16-.21-.47-.45-.81-.47-.16-.01-.35-.02-.49.01-.13.04-.26.09-.39.15-.22.12-.38.26-.55.4l-.4.43c-.91,1.18-1.49,2.43-2.04,3.69-.45,1.05-.85,2.12-1.23,3.19-.09-1.13-.21-2.26-.38-3.4-.22-1.36-.45-2.72-1.03-4.09l-.28-.52c-.13-.18-.25-.36-.43-.53-.11-.09-.22-.17-.34-.24-.12-.07-.31-.11-.48-.14-.34-.06-.7.09-.92.25-.28.22-.45.45-.59.67-.14-.23-.31-.45-.59-.67-.21-.16-.57-.31-.91-.25-.16.03-.35.07-.47.14-.12.07-.23.16-.34.24-.18.17-.3.35-.43.53l-.28.52c-.57,1.38-.8,2.73-1.01,4.09-.2,1.4-.33,2.8-.42,4.21-.47-1.33-.97-2.65-1.54-3.95-.57-1.26-1.15-2.5-2.07-3.68l-.41-.43c-.17-.14-.33-.28-.55-.39-.13-.05-.26-.1-.39-.15-.14-.04-.33-.02-.5-.01-.35.03-.66.27-.82.48-.21.28-.32.55-.39.8-.19-.18-.42-.36-.74-.49-.25-.1-.63-.15-.94,0-.15.07-.32.16-.42.26-.09.1-.18.21-.26.32-.13.21-.2.42-.27.62l-.13.58c-.19,1.48-.05,2.85.1,4.21.17,1.36.4,2.7.67,4.03-.76-1.11-1.55-2.2-2.39-3.26-.86-1.06-1.75-2.11-2.9-2.98-.31-.2-.63-.41-1.05-.51-.41-.16-1.15.13-1.29.61-.16.44-.18.84-.15,1.21-.31-.21-.66-.39-1.12-.47-.49-.12-1.09.38-1.16.8-.12.42-.1.79-.08,1.16.18,1.42.66,2.71,1.15,3.98.67,1.68,1.45,3.3,2.27,4.9-1.35-1.19-2.74-2.35-4.2-3.43-1.11-.8-2.24-1.58-3.58-2.11-.35-.12-.71-.23-1.15-.22-.44-.04-1.08.42-1.08.93-.03.47.05.86.18,1.21-.35-.12-.74-.2-1.2-.16-.5.01-.95.65-.91,1.08,0,.43.11.79.23,1.14.55,1.33,1.35,2.44,2.16,3.54,1.05,1.39,2.19,2.71,3.35,4-1.54-.78-3.1-1.51-4.71-2.16-1.27-.49-2.55-.96-3.95-1.14-.36-.02-.72-.04-1.11.07-.39.07-.81.58-.71,1.02.1.54.35.94.64,1.31-.46-.07-.93-.09-1.45.1-.44.13-.67.76-.54,1.14.1.39.29.7.49,1,.85,1.13,1.9,2.01,2.96,2.87,1.59,1.26,3.26,2.41,4.95,3.51-1.97-.42-3.95-.78-5.96-1.02-1.35-.14-2.71-.26-4.11-.06-.35.07-.7.15-1.05.36-.36.17-.63.77-.42,1.17.24.5.59.82.96,1.09-.46.06-.92.16-1.38.48-.39.24-.45.91-.22,1.24.2.35.47.6.74.84,1.12.86,2.36,1.44,3.6,1.99,1.51.65,3.06,1.21,4.61,1.72-1.65.1-3.29.23-4.93.47-1.35.21-2.7.44-4.03,1-.33.16-.67.34-.98.65-.34.28-.48,1.07-.12,1.44.29.34.61.56.93.72-.32.16-.64.37-.94.72-.36.37-.23,1.18.12,1.46.31.32.65.5.98.66,1.33.57,2.69.81,4.04,1.02,1.74.26,3.48.41,5.21.52-1.65.55-3.28,1.14-4.89,1.83-1.25.56-2.49,1.14-3.63,2.02-.28.24-.56.5-.77.89-.26.36-.18,1.16.26,1.42.37.25.73.38,1.08.45-.27.24-.52.53-.72.94-.25.46.09,1.2.5,1.38.38.23.76.31,1.12.38,1.44.19,2.8.07,4.16-.07,1.31-.16,2.6-.37,3.89-.61-1.1.74-2.17,1.51-3.22,2.33-1.07.86-2.13,1.74-3.04,2.92l-.31.5c-.09.2-.18.39-.24.63-.02.14-.04.28-.04.41,0,.14.06.33.11.48.12.33.43.56.67.67.32.13.6.17.86.18-.13.23-.24.49-.28.84-.03.27.01.66.24.93.11.13.24.27.36.35.12.06.25.12.38.17.24.07.46.09.68.11l.59-.02c1.49-.18,2.78-.66,4.07-1.15,1.29-.51,2.54-1.07,3.77-1.66-.89,1.03-1.76,2.09-2.58,3.19-.81,1.11-1.6,2.24-2.16,3.62l-.17.57c-.04.21-.07.43-.07.68.02.14.04.28.07.41.04.14.15.3.24.43.2.29.56.43.83.47.34.04.62,0,.87-.05-.06.26-.1.54-.05.89.04.27.19.63.48.83.14.09.3.2.44.24.14.03.28.05.42.07.25,0,.47-.03.68-.07l.57-.17c1.39-.57,2.51-1.36,3.62-2.18.83-.62,1.63-1.27,2.41-1.93-.44.94-.86,1.88-1.25,2.85-.5,1.29-.98,2.58-1.17,4.09l-.02.61c.02.23.04.45.12.71.05.14.12.28.19.41.08.13.24.28.38.4.29.25.73.3,1.01.27.28-.04.5-.11.7-.2.02.22.07.45.18.71.11.27.37.61.74.75.17.06.38.13.53.13.15,0,.3-.02.45-.04.26-.06.47-.16.67-.25l.52-.32c1.21-.92,2.1-1.98,2.97-3.06.74-.93,1.43-1.89,2.1-2.86-.21,1.15-.4,2.32-.53,3.49-.14,1.38-.27,2.75-.06,4.26l.14.59c.08.21.16.43.3.65.09.12.19.24.29.35.11.11.3.21.47.28.35.16.78.1,1.04,0,.26-.11.46-.24.62-.38.08.2.18.42.36.64.18.23.52.49.91.53.18.01.4.03.55-.02.14-.05.29-.1.42-.16.23-.13.41-.27.58-.42l.42-.45c.93-1.21,1.5-2.46,2.06-3.73.36-.85.69-1.71,1.01-2.57.08.91.18,1.83.32,2.75.22,1.37.45,2.73,1.04,4.14l.29.54c.13.19.26.37.46.56.12.1.24.18.37.27.13.08.35.12.53.16.39.07.79-.1,1.02-.28.22-.17.37-.34.5-.51.12.17.28.34.5.51.23.18.64.35,1.02.28.18-.03.4-.08.53-.16.13-.08.25-.17.37-.27.19-.18.33-.37.46-.56l.29-.54c.59-1.41.82-2.77,1.04-4.14.17-1.15.28-2.29.37-3.44.39,1.08.81,2.16,1.27,3.22.57,1.26,1.15,2.51,2.09,3.72l.42.45c.18.15.35.29.59.42.14.06.28.11.43.16.15.04.37.03.55.01.39-.04.74-.31.91-.54.17-.22.27-.43.35-.63.17.13.36.26.61.36.27.11.71.17,1.06,0,.17-.08.36-.18.47-.29.1-.11.2-.23.29-.35.14-.23.22-.44.29-.66l.14-.6c.2-1.51.06-2.89-.09-4.26-.12-.99-.28-1.97-.46-2.95.57.8,1.15,1.6,1.77,2.38.87,1.07,1.76,2.13,2.96,3.03l.51.31c.2.09.4.18.65.24.14.02.29.04.43.04.15,0,.34-.06.5-.12.34-.12.58-.45.69-.7.13-.31.17-.58.18-.84.22.11.47.21.8.26.27.03.67-.02.94-.25.13-.11.28-.24.35-.37.06-.12.12-.26.17-.39.07-.24.09-.46.11-.68l-.02-.59c-.19-1.48-.67-2.77-1.17-4.06-.5-1.24-1.05-2.44-1.63-3.63,1.01.86,2.05,1.7,3.13,2.49,1.12.8,2.25,1.59,3.65,2.15l.57.17c.22.04.44.07.69.06.14-.02.28-.04.42-.07.14-.04.31-.15.45-.25.3-.21.45-.58.48-.85.04-.34,0-.61-.05-.85.24.05.51.08.84.04.27-.04.64-.19.84-.48.09-.14.2-.3.24-.44.03-.14.05-.28.07-.42,0-.25-.03-.47-.07-.68l-.18-.57c-.58-1.38-1.38-2.5-2.2-3.61-.78-1.03-1.61-2.03-2.46-3,1.15.55,2.31,1.07,3.51,1.54,1.28.49,2.57.96,4.01,1.13.37.02.75.04,1.19-.09.11-.05.23-.1.34-.15.11-.06.21-.19.31-.29.19-.22.23-.55.2-.78-.08-.44-.25-.78-.44-1.07.35.02.72-.01,1.14-.16.5-.15.79-.91.63-1.33-.11-.43-.32-.75-.52-1.06-.88-1.15-1.93-2.03-3-2.88-1.36-1.07-2.78-2.04-4.21-2.98,1.69.34,3.4.63,5.12.82,1.36.14,2.73.25,4.17.04.36-.08.74-.16,1.12-.39.1-.07.19-.15.28-.23.09-.09.16-.24.22-.36.13-.27.08-.59-.01-.81-.2-.4-.44-.68-.71-.92.34-.08.69-.2,1.06-.45.44-.27.52-1.09.26-1.44-.22-.39-.5-.64-.78-.88-1.15-.88-2.4-1.45-3.65-1.99-1.64-.69-3.3-1.27-4.98-1.81,1.74-.11,3.48-.27,5.21-.53,1.34-.22,2.68-.47,3.94-1.01.31-.15.62-.32.87-.59.27-.25.35-.75.09-1.04-.23-.29-.54-.47-.84-.62ZM78.33,30.17c1.33-.16,2.69-.29,4.01-.12.32.06.65.14.92.29.27.15.42.45.29.74-.11.29-.35.54-.59.76-.12.11-.25.21-.39.31l-.2.15c-.09.05-.18.16-.24.23.08.03.22.07.32.07l.25.02c.17.02.33.04.49.07.32.06.65.16.89.35.26.19.28.52.13.79-.15.27-.39.5-.64.72-1.05.81-2.28,1.39-3.51,1.93-2.3.98-4.68,1.77-7.07,2.49-.17,0-.35-.02-.52-.02-4.85-.15-9.71-.1-14.55.24,4.4-2.06,8.67-4.4,12.82-6.92.54-.33,1.07-.67,1.61-1.01,1.98-.46,3.98-.85,5.99-1.11ZM56.69,43.44c5.15.9,10.25,2.15,15.27,3.61-5.23.08-10.47-.07-15.66-.59l-1.74-.17,1.59.75c4.15,1.95,8.18,4.15,12.12,6.5-4.45-1.14-8.86-2.45-13.15-4.04l-2.05-.76c.82-1.75,1.22-3.66,1.23-5.55,0-2.88-.93-5.84-2.89-8.16l1.6-1.14c3.73-2.66,7.65-5.09,11.65-7.35-3.19,3.31-6.51,6.5-10,9.48l-1.4,1.19,1.71-.66c4.85-1.86,9.85-3.38,14.89-4.67-4.45,2.71-9.02,5.25-13.73,7.46l-1.67.78,1.83-.18c5.12-.51,10.28-.66,15.44-.6-4.95,1.42-9.97,2.64-15.05,3.49l-1.73.29,1.73.3ZM43.84,56.82l-.3-1.74c.69-.01,1.38-.09,2.06-.25l.16,1.73c.34,3.68.49,7.4.5,11.11-.95-3.59-1.79-7.21-2.42-10.85ZM29.27,42.92c-5.02-.82-9.99-2-14.89-3.38,5.09-.11,10.2-.01,15.27.45l1.94.18c-.23,1-.33,2.03-.28,3.04.04.96.21,1.9.48,2.82l-2.15.21c-4.58.44-9.19.59-13.8.55,4.43-1.27,8.91-2.37,13.45-3.18l1.99-.35-2-.33ZM30.92,36.64l1.62.6-1.33-1.1c-4.01-3.32-7.79-6.94-11.4-10.7,4.56,2.52,9.02,5.24,13.26,8.27l1.4,1-.99-1.41c-2.7-3.84-5.15-7.86-7.43-11.96,3.37,3.28,6.61,6.69,9.6,10.3l1.08,1.3c-.81.51-1.57,1.1-2.23,1.79-1.46,1.49-2.46,3.39-2.92,5.4l-1.77-.81c-4.51-2.06-8.89-4.44-13.16-6.99,4.82,1.2,9.6,2.59,14.26,4.31ZM39.45,17.31c1.11,4.04,2.07,8.13,2.78,12.24l.28,1.59c-.83.03-1.65.15-2.45.35l-.15-1.64c-.37-4.16-.5-8.36-.46-12.55ZM46.38,16.93c.02,4.31-.13,8.63-.53,12.91l-.16,1.65c-.77-.2-1.57-.31-2.37-.34l.27-1.6c.72-4.24,1.67-8.45,2.78-12.62ZM54.14,43.2c.02,1.92-.6,3.78-1.61,5.35l-.51-.19.4.33c-.51.77-1.12,1.47-1.8,2.06l-.28-.2.19.28c-.63.54-1.31,1-2.02,1.39l-.95-1.14.51,1.38c-.69.35-1.41.64-2.16.85l-.6-1.3.13,1.41c-.71.18-1.43.29-2.16.33l-.29-1.68-.29,1.71c-.74.02-1.48-.04-2.22-.18l.17-1.83-.79,1.71c-.72-.17-1.43-.42-2.1-.74l.5-1.38-.94,1.15c-.7-.38-1.36-.83-1.95-1.38l.91-1.29-1.29.92c-.59-.59-1.09-1.26-1.5-1.98l.34-.28-.41.16c-.45-.81-.79-1.68-1-2.58l.34-.16-.37.04c-.21-.91-.3-1.84-.25-2.76.14-2.84,1.4-5.52,3.38-7.44,1.95-1.88,4.59-2.92,7.26-2.97l.13.73.12-.73c.84,0,1.68.1,2.5.29l-.07.77.33-.71c1.72.44,3.35,1.29,4.75,2.47l-.08.11.12-.08c2.12,1.82,3.57,4.63,3.55,7.57ZM51.15,34.74c-.6-.68-1.3-1.27-2.07-1.77l1.13-1.39c2.94-3.59,6.12-7,9.42-10.27-2.27,4.06-4.69,8.04-7.37,11.84l-1.12,1.59ZM49.31,31.06l-.6,1.66c-.7-.42-1.46-.77-2.24-1.03l.7-1.51c1.75-3.77,3.7-7.47,5.79-11.08-1.04,4.04-2.23,8.04-3.65,11.96ZM38.95,30.11l.68,1.5c-.88.27-1.73.64-2.53,1.1l-.58-1.58c-1.63-4.4-2.97-8.92-4.12-13.48,2.39,4.05,4.62,8.19,6.56,12.46ZM29.9,47.25l1.97-.91c.28.87.65,1.71,1.1,2.5l-2.08.79c-4.32,1.64-8.76,3-13.24,4.18,3.98-2.38,8.06-4.61,12.25-6.55ZM31.43,50.54l1.71-1.44c.43.7.92,1.36,1.47,1.96l-1.79,1.27c-3.35,2.38-6.85,4.58-10.42,6.64,2.89-2.94,5.89-5.78,9.03-8.43ZM33.84,53.35l1.26-1.79c.56.55,1.16,1.05,1.81,1.49l-1.33,1.63c-2.64,3.22-5.48,6.3-8.43,9.27,2.07-3.63,4.29-7.19,6.69-10.6ZM36.83,55.4l.7-1.94c.32.19.64.36.97.52.32.15.64.28.97.4l-.81,1.76c-1.57,3.4-3.32,6.74-5.18,10.01.97-3.64,2.06-7.24,3.35-10.76ZM39.7,68.46c0-3.97.16-7.95.53-11.89l.18-1.89c.69.19,1.4.31,2.11.37l-.3,1.78c-.65,3.9-1.52,7.79-2.52,11.63ZM47.25,56.17l-.73-1.58c.71-.23,1.39-.52,2.03-.88l.62,1.66c1.43,3.81,2.65,7.72,3.71,11.66-2.04-3.54-3.94-7.16-5.64-10.86ZM50.51,54.59l-1.16-1.39c.65-.45,1.25-.97,1.77-1.55l1.13,1.61c2.32,3.3,4.46,6.73,6.47,10.24-2.86-2.86-5.62-5.82-8.21-8.91ZM53.03,52.47l-1.62-1.16c.59-.69,1.08-1.44,1.48-2.24l1.67,1.39c3.52,2.92,6.86,6.07,10.07,9.34-3.98-2.26-7.88-4.68-11.6-7.34ZM73.97,21.89c1.23-.49,2.51-.94,3.76-1.1l.45-.02c.13.01.27.03.38.06.04.02.08.04.13.05.04.02.03.05.06.06.04.03.05.07.04.17-.06.42-.5,1-.91,1.46l-.92,1.02,1.34-.29c.61-.13,1.32-.23,1.73-.07.09.04.13.07.13.12,0,.03.02.04.02.08-.01.05-.02.09-.02.14-.03.11-.09.24-.14.36l-.24.38c-.76,1.01-1.79,1.89-2.82,2.73-1.9,1.51-3.94,2.87-6.01,4.17-.21.05-.42.09-.63.14-4.72,1.13-9.39,2.46-13.98,4.06,3.71-3.15,7.21-6.52,10.55-10.05.04-.05.09-.1.13-.14,2.27-1.22,4.57-2.38,6.94-3.34ZM67.27,14.5c1.06-.79,2.18-1.57,3.34-2.05l.43-.13c.13-.02.27-.05.38-.05.05.01.09.02.14.02.04,0,.04.04.07.04.05.01.06.06.08.15.06.42-.22,1.1-.5,1.65l-.62,1.23,1.22-.64c.55-.29,1.22-.57,1.65-.52.1.02.14.03.16.08,0,.03.03.03.04.08,0,.05,0,.1.02.14,0,.11-.02.25-.04.38l-.13.43c-.47,1.17-1.23,2.3-2,3.37-1.42,1.92-2.99,3.74-4.62,5.52-.21.11-.42.22-.63.33-3.94,2.13-7.79,4.42-11.52,6.91,2.51-3.72,4.82-7.56,6.98-11.49.24-.44.47-.89.71-1.34,1.56-1.45,3.16-2.85,4.84-4.12ZM59.31,9.37c.82-1.03,1.7-2.06,2.67-2.79l.36-.22c.11-.05.23-.1.31-.12.03,0,.06,0,.09-.01.03,0,0,.02.01,0,0-.02,0-.03.03.03.13.29.06,1.02-.07,1.61l-.45,1.98,1.48-1.38c.44-.41,1.03-.84,1.35-.88.07,0,.06,0,.05,0,0,.02,0-.01.01.01,0,.03.02.06.04.09.02.08.04.21.05.33v.42c-.16,1.21-.6,2.49-1.08,3.72-.84,2.14-1.87,4.22-2.94,6.28-.23.21-.45.42-.68.63-3.24,3.09-6.35,6.31-9.3,9.7,1.45-4.25,2.67-8.56,3.72-12.92.01-.05.02-.11.04-.16,1.35-2.18,2.75-4.32,4.32-6.32ZM49.84,6.26c.52-1.21,1.1-2.43,1.84-3.4l.29-.31c.09-.07.19-.16.26-.2.03,0,.06-.02.08-.04.02,0,0,.02.01,0,0-.02-.01-.03.03.02.2.25.33.97.35,1.57l.09,2.02,1.06-1.72c.32-.51.77-1.08,1.08-1.2.07-.02.06-.02.05,0,0,.02,0-.01.02,0,.02.03.03.06.06.08.04.08.09.2.14.31l.1.41c.18,1.21.09,2.56-.05,3.87-.26,2.35-.71,4.7-1.23,7.04-.12.19-.24.38-.36.57-2.21,3.59-4.28,7.25-6.16,11.02.25-4.2.29-8.41.18-12.62-.01-.39-.03-.79-.05-1.18.65-2.12,1.35-4.22,2.21-6.25ZM40.17,5.73c.2-1.3.46-2.63.94-3.75l.2-.37c.07-.09.15-.2.21-.26.03-.01.05-.03.07-.06.02-.01.01.02,0,0,0-.02-.02-.02.03.01.25.18.55.85.73,1.42l.61,2,.62-2c.18-.57.48-1.24.73-1.42.06-.03.04-.03.03-.01,0,.02-.01-.01,0,0,.02.03.04.04.07.06.06.06.13.16.2.26l.2.37c.47,1.12.72,2.45.92,3.75.31,2.17.46,4.37.55,6.58-.12.38-.24.76-.35,1.15-1.19,4.04-2.22,8.12-3.04,12.25-.86-4.12-1.93-8.19-3.14-12.22-.06-.21-.13-.42-.2-.63.1-2.39.26-4.79.61-7.13ZM30.42,7.78c-.15-1.31-.24-2.66-.08-3.86l.1-.41c.04-.11.09-.23.13-.3.02-.02.04-.04.05-.07.02-.02.01.01,0,0-.01-.01-.03-.01.03,0,.29.11.76.67,1.08,1.18l1.11,1.77.07-2.09c.02-.6.14-1.32.33-1.56.04-.05.03-.04.02-.02,0,.02-.02-.01,0,0,.03.02.05.03.08.04.07.04.17.12.26.19l.29.31c.75.96,1.34,2.17,1.87,3.38,1.01,2.32,1.82,4.75,2.57,7.19,0,.06,0,.12,0,.18-.09,4.53,0,9.06.34,13.57-2-4.06-4.22-8.01-6.59-11.86-.14-.23-.29-.45-.43-.68-.52-2.31-.99-4.62-1.26-6.95ZM21.58,12.24c-.48-1.24-.93-2.52-1.08-3.78-.02-.31-.02-.62.05-.85.02-.05.04-.09.06-.14.02-.04.06-.04.07-.07.04-.05.1-.06.21-.05.45.07,1.02.52,1.48.94l.91.82-.25-1.2c-.13-.61-.23-1.33-.06-1.75.05-.09.08-.14.14-.15.04,0,.05-.03.1-.02.05.01.1.02.15.02.23.06.5.21.75.38,1.01.77,1.89,1.8,2.71,2.84,1.28,1.63,2.45,3.36,3.57,5.12.12.54.25,1.07.38,1.6,1.1,4.39,2.38,8.74,3.89,13.01-3-3.39-6.17-6.62-9.47-9.71-.18-.17-.37-.33-.55-.5-1.12-2.13-2.18-4.28-3.05-6.5ZM14.2,18.95c-.79-1.07-1.56-2.19-2.04-3.37-.1-.29-.18-.59-.18-.83.01-.05.02-.1.02-.15.01-.05.04-.05.05-.09.02-.06.08-.08.19-.1.46-.05,1.12.23,1.68.51l1.09.56-.56-1.09c-.29-.56-.57-1.22-.51-1.67.02-.1.04-.16.1-.18.04,0,.04-.04.09-.05.05,0,.1,0,.15-.02.24,0,.53.08.82.17,1.17.48,2.29,1.24,3.36,2.03,2.06,1.54,4,3.26,5.89,5.02.03.05.05.1.08.15,2.36,4.29,4.9,8.48,7.69,12.5-4.04-2.76-8.24-5.28-12.54-7.6-.27-.15-.55-.29-.82-.43-1.6-1.72-3.15-3.49-4.55-5.36ZM8.92,27.15c-1.04-.83-2.08-1.71-2.86-2.74-.38-.51-.63-1.17-.18-1.33.49-.19,1.21-.08,1.83.05l.79.16-.53-.6c-.42-.48-.88-1.03-.97-1.56-.09-.49.63-.61,1.26-.53,1.29.16,2.57.61,3.82,1.09,1.98.78,3.9,1.71,5.8,2.7.36.39.72.77,1.08,1.15,3.4,3.52,6.95,6.89,10.7,10.04-4.63-1.6-9.34-2.92-14.1-4.04-.1-.02-.2-.04-.3-.07-2.18-1.35-4.32-2.76-6.33-4.33ZM5.9,36.67c-1.22-.53-2.45-1.1-3.48-1.89-.5-.39-.92-.96-.52-1.24.42-.32,1.14-.39,1.78-.43l.8-.05-.67-.44c-.54-.35-1.12-.76-1.34-1.25-.21-.45.44-.75,1.07-.84,1.29-.19,2.64-.09,3.97.05,2.42.27,4.82.74,7.2,1.28.19.12.37.24.56.36,4.09,2.51,8.29,4.85,12.62,6.94-4.79-.38-9.6-.48-14.41-.37-.5.01-1,.03-1.5.05-2.06-.63-4.1-1.33-6.08-2.16ZM5.48,46.16c-1.31-.2-2.64-.44-3.81-.93l-.4-.21c-.11-.08-.22-.16-.3-.24-.03-.04-.05-.08-.09-.11-.02-.04,0-.06-.02-.08-.03-.05,0-.09.05-.17.26-.34.94-.62,1.53-.81l1.26-.41-1.26-.4c-.59-.19-1.26-.46-1.54-.81-.06-.08-.08-.13-.06-.18.02-.03,0-.05.02-.09.03-.04.06-.08.09-.12.16-.17.43-.32.7-.46,1.16-.49,2.5-.75,3.81-.95,2.28-.34,4.6-.5,6.93-.59.32.1.63.2.95.29,4.61,1.35,9.28,2.5,14,3.38-4.73.89-9.39,2.06-14,3.43-.06.02-.12.04-.17.05-2.58-.08-5.16-.22-7.7-.58ZM7.58,55.92c-1.32.16-2.67.27-3.92.11l-.44-.1c-.12-.05-.26-.1-.35-.15-.04-.03-.07-.06-.11-.09-.03-.03-.02-.06-.05-.07-.04-.04-.03-.09,0-.18.16-.4.74-.85,1.26-1.19l1.11-.73-1.32-.06c-.62-.03-1.34-.11-1.7-.38-.08-.07-.11-.11-.1-.16.01-.03-.01-.05,0-.09.02-.04.04-.09.05-.14.11-.21.33-.42.56-.63.99-.78,2.21-1.38,3.42-1.92,2.19-.96,4.46-1.74,6.75-2.46.24,0,.48.02.73.03,4.47.13,8.93.07,13.4-.21-4.03,1.95-7.94,4.12-11.76,6.44-.45.28-.9.56-1.34.84-2.05.47-4.11.88-6.19,1.14ZM11.9,64.3c-1.22.48-2.5.93-3.7,1.09l-.42.02c-.12-.01-.24-.02-.32-.05-.02-.02-.05-.03-.08-.03,0,0,0,0,0,0,0,.02,0,.03,0,0,0,0,0,0,0,0,0,0,0,0,0-.01.03-.3.45-.9.86-1.34l1.45-1.56-2.07.49c-.58.14-1.31.21-1.59.09-.06-.03-.05-.02-.03-.02.02,0,0,.02,0,0,.01-.03.02-.06.01-.09.02-.08.07-.2.12-.31l.22-.36c.73-.97,1.75-1.86,2.78-2.69,1.81-1.44,3.76-2.75,5.74-4.01.28-.06.56-.12.83-.19,4.34-1.05,8.64-2.28,12.87-3.73-3.37,2.94-6.58,6.06-9.66,9.3-.03.03-.05.06-.08.08-2.27,1.21-4.57,2.38-6.93,3.33ZM18.54,71.73c-1.05.79-2.16,1.56-3.28,2.02l-.4.13c-.11.02-.24.04-.32.04-.03,0-.05-.01-.08,0,0,0,0,0,0,0,0,.02,0,.03,0,0,0,0,0,0,0,0,0,0,0,0,0-.01-.05-.3.2-.99.47-1.52l.99-1.89-1.87,1.01c-.53.29-1.21.55-1.52.5-.06-.01-.05,0-.03,0,.01-.01,0,.02,0,0,0-.03,0-.06-.01-.09,0-.08.02-.21.03-.33l.12-.4c.45-1.13,1.2-2.25,1.97-3.32,1.39-1.89,2.94-3.69,4.54-5.44.21-.11.43-.22.64-.34,3.64-1.98,7.2-4.07,10.66-6.35-2.29,3.45-4.4,7.01-6.38,10.65-.21.4-.42.8-.63,1.19-1.58,1.47-3.2,2.89-4.89,4.18ZM20.94,78.7s0,.02,0,.02c0,0,0-.01,0-.02ZM23.23,80.03s0,0,.02,0c0,0-.01,0-.02,0ZM26.53,76.94c-.81,1.02-1.7,2.05-2.64,2.76l-.34.21c-.09.04-.18.08-.25.1-.03-.12-.05-.33-.03-.55.02-.28.07-.58.13-.89l.52-2.4-1.81,1.65c-.23.21-.47.4-.7.56-.18.13-.38.22-.5.26-.02-.07-.03-.17-.04-.27v-.4c.16-1.18.6-2.45,1.07-3.67.82-2.08,1.82-4.11,2.87-6.12.25-.23.5-.46.74-.69,2.99-2.86,5.88-5.82,8.62-8.93-1.3,3.93-2.4,7.92-3.36,11.95-.02.08-.04.16-.06.25-1.33,2.13-2.71,4.23-4.24,6.18ZM31.05,83.25s.01.02,0,.01c0,0,0,0,0-.01ZM33.61,83.93s0,0,.01,0c0,0,0,0-.01,0ZM35.98,80.07c-.52,1.2-1.1,2.42-1.82,3.36l-.27.3c-.08.06-.15.12-.21.16-.06-.11-.13-.31-.17-.52-.06-.27-.09-.58-.1-.89l-.13-2.45-1.31,2.07c-.17.26-.34.51-.53.73-.15.18-.32.32-.42.37-.03-.06-.07-.16-.11-.25l-.09-.39c-.17-1.17-.08-2.52.06-3.82.27-2.37.73-4.74,1.25-7.1.1-.15.2-.31.29-.46,2.09-3.41,4.06-6.88,5.86-10.45-.22,3.99-.25,7.98-.15,11.98.01.39.03.78.05,1.18-.65,2.1-1.35,4.19-2.2,6.19ZM45.6,80.64c-.2,1.29-.45,2.62-.91,3.71l-.19.35c-.05.07-.11.15-.15.2-.08-.09-.2-.26-.28-.45-.12-.25-.23-.54-.32-.83l-.76-2.39-.76,2.39c-.1.3-.2.58-.33.83-.08.18-.2.35-.28.45-.04-.05-.1-.12-.15-.2l-.19-.35c-.46-1.09-.71-2.41-.91-3.71-.31-2.16-.46-4.36-.56-6.56.11-.37.23-.74.34-1.11,1.12-3.84,2.11-7.71,2.91-11.62.84,3.91,1.85,7.77,3,11.6.04.14.09.29.14.43-.09,2.44-.24,4.88-.59,7.26ZM55.35,78.63c.15,1.3.25,2.65.09,3.82l-.09.39c-.03.08-.06.16-.09.22-.1-.06-.25-.18-.4-.35-.18-.21-.36-.46-.53-.72l-1.36-2.1-.11,2.51c-.01.31-.04.61-.1.89-.03.2-.1.4-.15.5-.06-.04-.13-.09-.2-.15l-.27-.29c-.73-.93-1.32-2.14-1.85-3.34-.97-2.24-1.77-4.59-2.5-6.96,0-.11,0-.23.01-.34.1-4.06.06-8.11-.18-12.16,1.83,3.62,3.84,7.14,5.97,10.59.18.29.36.57.54.86.5,2.2.95,4.42,1.22,6.64ZM62.73,80.13s0,0,0,0c0,0,.02,0,0,0ZM65.1,78.77s0,0,0,0c0,0,0,0,0,0,0,.02-.01-.02,0,0ZM64.1,74.26c.48,1.23.92,2.51,1.06,3.71v.42c0,.11-.02.24-.04.32-.02.02-.02.04-.03.07,0,0,0,0-.02,0-.29-.03-.89-.45-1.32-.86l-1.58-1.49.46,2.14c.07.31.12.61.13.9.02.28,0,.56-.06.67-.02,0-.04-.01-.06-.01-.08-.02-.19-.07-.29-.12l-.35-.22c-.96-.73-1.84-1.75-2.65-2.78-1.31-1.68-2.51-3.46-3.66-5.28-.1-.44-.2-.87-.3-1.31-.97-3.94-2.07-7.84-3.37-11.69,2.72,3.01,5.58,5.88,8.54,8.65.18.17.37.33.55.5,1.1,2.09,2.13,4.22,2.99,6.39ZM71.74,73.63s0,0,0,0c0,0,.02,0,0,0ZM73.67,71.71s0,0,0,0c0,0,0,0,0,0,0,.02-.02-.01,0,0ZM71.53,67.61c.78,1.06,1.54,2.18,2,3.3l.12.4c.02.11.04.24.04.32,0,.03-.01.05,0,.08,0,0,0,0-.02,0-.29.05-.97-.21-1.5-.49l-1.92-1.02,1,1.94c.14.28.27.56.37.83.1.26.14.55.12.66-.02,0-.04,0-.07,0-.08,0-.2-.02-.31-.04l-.4-.12c-1.11-.45-2.23-1.21-3.29-1.99-2.05-1.52-3.98-3.24-5.87-5.01-.01-.02-.02-.05-.04-.07-2.14-3.89-4.42-7.68-6.9-11.36,3.69,2.45,7.5,4.71,11.4,6.81.25.13.49.26.74.39,1.6,1.72,3.15,3.49,4.53,5.34ZM76.95,59.34c1.03.83,2.06,1.72,2.82,2.73l.24.38c.05.12.11.25.14.36,0,.05,0,.09.02.14,0,.04-.03.05-.02.08,0,.05-.04.08-.13.12-.4.16-1.12.06-1.72-.07l-1.35-.3.93,1.03c.42.46.86,1.04.91,1.46,0,.1,0,.14-.04.16-.03,0-.02.04-.06.06-.05.01-.09.03-.13.05-.1.03-.24.04-.38.06l-.45-.02c-1.24-.16-2.52-.61-3.75-1.1-1.93-.78-3.81-1.69-5.67-2.67-.36-.39-.73-.78-1.09-1.16-3.08-3.19-6.28-6.25-9.65-9.14,4.21,1.4,8.48,2.57,12.79,3.58.25.06.51.11.76.17,2.01,1.28,3.99,2.6,5.84,4.08ZM80,49.84c1.22.53,2.44,1.12,3.44,1.89l.33.31c.08.1.17.21.23.31.01.05.03.09.05.13.01.04-.01.06,0,.09.01.05-.02.09-.1.15-.34.26-1.06.35-1.68.38l-1.38.07,1.17.75c.52.34,1.1.78,1.26,1.17.03.09.04.13,0,.17-.03.02,0,.04-.04.07-.04.02-.08.05-.11.08-.09.05-.23.1-.35.15l-.43.1c-1.24.17-2.59.07-3.91-.08-2.56-.3-5.12-.83-7.65-1.42-.03-.02-.07-.04-.1-.06-4.18-2.53-8.47-4.88-12.89-6.95,4.87.35,9.75.41,14.63.26.22,0,.44-.02.65-.03,2.34.72,4.65,1.49,6.88,2.45ZM85.22,45.02c-.22.22-.51.38-.81.53-1.23.51-2.57.74-3.9.94-2.01.28-4.05.42-6.08.5-.6-.19-1.21-.37-1.81-.54-4.7-1.35-9.45-2.48-14.27-3.32,4.79-.94,9.52-2.17,14.18-3.6.15-.05.3-.1.46-.15,2.52.07,5.03.2,7.52.55,1.33.19,2.67.43,3.9.94.3.14.59.3.81.53.22.22.28.55.09.8-.18.25-.48.43-.77.58-.15.08-.3.14-.46.2l-.23.09c-.1.03-.22.1-.29.16.07.05.19.13.29.16l.23.09c.15.06.31.13.46.2.29.15.58.33.77.58.2.25.14.58-.09.8Z"/>
      <path class="cls-1" d="M7.39,65.32h0s0,0,0,0h0s0,0,0,0Z"/>
      <path class="cls-1" d="M14.46,73.9h0s0,0,0,0h0s0,0,0,0Z"/>
    </g>
  </g>
</svg>