<?xml version="1.0" encoding="UTF-8"?>
<svg id="Layer_2" data-name="Layer 2" xmlns="http://www.w3.org/2000/svg" viewBox="0 0 121.01 126.58">
  <defs>
    <style>
      .cls-1 {
        fill: #201522;
      }
    </style>
  </defs>
  <g id="Objects">
    <path class="cls-1" d="M120.92,44c-2.33-1.62-5.13-2.4-7.91-2.49-1.09-.04-2.17.03-3.24.15-.01,0-.03,0-.04,0-.53.06-1.06.13-1.58.22-.34.06-.68.12-1.02.19-.22.05-.44.09-.66.14-.19.04-.38.1-.57.14,2.33-.56,4.72-.9,7.12-.74,2.72.15,5.41,1.02,7.56,2.65,0,0,0,0,0,.01-4.38,2.29-8.78,4.5-13.19,6.68-4.43,2.16-8.88,4.26-13.41,6.15-1.23.53-2.46,1.03-3.71,1.51-.57-.84-1.27-1.6-2.04-2.28,1.01-.85,1.98-1.76,2.89-2.72,2.19-2.3,4.12-4.85,5.74-7.58,2.49-1.46,5.17-2.62,7.95-3.42-2.72.76-5.34,1.85-7.82,3.21.69-1.18,1.33-2.4,1.9-3.64,1.91-4.22,3.12-8.74,3.41-13.36.13-2.31-.02-4.65-.59-6.9-.56-2.25-1.61-4.38-3.08-6.16h0c-.04-.06-.11-.09-.18-.08-3.23.41-6.22,1.89-8.66,3.95-.92.77-1.75,1.63-2.55,2.52-.08.09-.16.17-.24.26-.18.2-.37.39-.54.6.1-3.21-.11-6.43-.66-9.59-.44-2.53-1.17-5.03-2.29-7.36-1.13-2.31-2.71-4.45-4.76-6.02h0c-.06-.05-.14-.06-.21-.03-3.21,1.61-5.68,4.36-7.44,7.4-.65,1.11-1.2,2.26-1.7,3.44-.04.1-.08.19-.12.29-.26.62-.51,1.24-.74,1.88-.15.42-.3.83-.44,1.25-.09.27-.17.53-.25.8-.07.23-.13.46-.2.69.87-2.89,1.97-5.72,3.55-8.29.92-1.49,1.99-2.9,3.24-4.13,1.23-1.18,2.63-2.16,4.16-2.88,1.88,1.59,3.29,3.67,4.28,5.9.99,2.29,1.61,4.74,1.95,7.22.35,2.48.45,5,.39,7.51-.03,1.29-.1,2.58-.22,3.86-.47.65-.91,1.32-1.34,2,1.73-2.67,3.71-5.23,6.21-7.22,2.44-1.97,5.41-3.33,8.51-3.6,1.31,1.77,2.22,3.82,2.65,5.97.46,2.18.51,4.44.29,6.66-.48,4.44-1.82,8.79-3.74,12.82-1.91,4.04-4.49,7.74-7.53,11.02-.93.99-1.91,1.94-2.94,2.84-.82-.61-1.7-1.14-2.6-1.61.66-.59,1.29-1.22,1.89-1.87,1.16-1.25,2.21-2.61,3.08-4.08.86-1.47,1.54-3.06,1.82-4.72-.52,1.6-1.31,3.08-2.27,4.43-.98,1.34-2.1,2.56-3.3,3.71-1.21,1.13-2.48,2.2-3.85,3.14-.68.48-1.33.98-2.02,1.44l-2.07,1.29c-1.31.59-2.73.89-4.02.59-.41-.09-.79-.25-1.15-.45.46,0,.92-.04,1.37-.16,1.51-.41,2.68-1.44,3.51-2.57l.03-.04h0c.46-.86.95-1.69,1.39-2.55.42-.86.83-1.74,1.17-2.64.66-1.7,1.2-3.46,1.5-5.27,1.51-.47,3.06-.84,4.63-1.05,1.67-.21,3.38-.2,5.06.14-.56-.2-1.13-.33-1.71-.44,1.41-3.36,2.72-6.77,3.91-10.21.92-2.69,1.81-5.39,2.65-8.11.79-2.73,1.59-5.46,2.23-8.23-.98,2.67-1.92,5.34-2.95,7.99-.98,2.66-1.99,5.31-3.05,7.94-1.4,3.5-2.83,6.98-4.33,10.43-.62-.05-1.23-.07-1.85-.05-1.66.04-3.32.31-4.93.71.28-1.72.34-3.49-.02-5.22l-.02-.09-.09.02c-.81.15-1.58.4-2.35.71.81-3.34,2.05-6.57,3.69-9.59-1.69,3.05-3.01,6.31-3.92,9.68-.85.35-1.66.79-2.44,1.28.04-.29.09-.57.14-.86.93-6.39,1.58-12.81,1.94-19.25.18-3.22.32-6.44.41-9.66.04-3.22.09-6.44-.02-9.66-.24,3.21-.44,6.42-.74,9.62-.24,3.21-.52,6.41-.84,9.6-.58,5.72-1.2,11.43-2.01,17.11-.17-.59-.36-1.17-.58-1.74-.62-1.6-1.44-3.15-2.6-4.5l-.36-.42-.48.38c-1.42,1.12-2.51,2.57-3.42,4.09-.56.98-1.03,2-1.45,3.04-.04-.26-.09-.51-.12-.77-.88-6.56-.46-13.3,1.21-19.72,0,0,0,0,0,0-1.7,6.42-2.2,13.13-1.58,19.76.05.52.12,1.04.18,1.56-.01.04-.03.08-.04.12-.11-.1-.21-.22-.32-.32-1.09-.99-2.34-1.85-3.76-2.4l-.62-.24-.28.64c-.44,1.01-.7,2.09-.83,3.17-.09.7-.11,1.4-.11,2.1-1.43-.57-2.9-1.06-4.44-1.35-1.71-.32-3.5-.44-5.27-.17l-.75.11.1.75c.24,1.81.86,3.52,1.67,5.1.63,1.24,1.4,2.39,2.23,3.48-.14.04-.28.07-.42.11-1.42.42-2.83,1.04-4.07,1.94l-.61.45.43.62c.92,1.32,2.11,2.4,3.38,3.29.98.69,2.03,1.26,3.11,1.76-.6.51-1.18,1.03-1.74,1.59-1.08,1.07-2.09,2.22-2.98,3.48l-.07.02c-1.15.31-2.18.88-3.09,1.56-.02.02-.04.04-.07.06-.25-1.01-.58-2.01-.99-2.98-.57-1.24-1.3-2.45-2.3-3.42l-.44-.43-.39.38c-1.98,1.92-3.02,4.43-3.71,6.9-1.15-.93-2.45-1.7-3.85-2.11l-.09-.03-.03.08c-.39,1.25-.5,2.55-.44,3.84-1.19-.42-2.41-.75-3.66-.9-1.32-.17-2.67-.17-3.94.15h0c1.31-.08,2.6.07,3.84.39,1.14.3,2.25.72,3.32,1.2.06,1.39.31,2.75.66,4.09.36,1.44.91,2.8,1.49,4.17h0s.03.06.03.06c.54.95,1.36,1.87,2.53,2.32.11.05.24.06.35.09-.07.01-.13.04-.19.05-.95.11-1.96-.21-2.89-.75l-1.45-1.13c-.48-.4-.94-.84-1.41-1.25-.96-.82-1.83-1.72-2.66-2.67-.82-.96-1.57-1.96-2.22-3.05-.63-1.09-1.12-2.27-1.4-3.52h0c.04.99.26,1.96.59,2.9-2.56-.98-5.22-1.67-7.94-2.01,2.75.37,5.44,1.11,8,2.18.09.23.17.47.27.7.51,1.2,1.18,2.34,1.95,3.39.37.51.76,1.01,1.17,1.49-.83.34-1.64.72-2.39,1.22-.67.44-1.3.94-1.85,1.51-2.81-.8-5.61-1.66-8.4-2.54-4.34-1.4-8.67-2.82-13-4.31,0,0,0,0,0-.01,1.74-1.79,4.09-2.94,6.56-3.45,1.26-.27,2.54-.39,3.82-.4,0,0,.02,0,.02,0,1.28-.01,2.57.08,3.84.23-.77-.1-1.55-.17-2.32-.21-.1,0-.2,0-.3-.01-1.7-.08-3.4-.02-5.08.28-2.54.45-5.01,1.55-6.94,3.34-.05.05-.07.12-.06.19h0c.35,1.85,1.13,3.61,2.24,5.12,1.1,1.53,2.48,2.83,3.99,3.95,3.02,2.22,6.47,3.81,10.09,4.8.5.13.99.25,1.5.36-4.17.83-8.2,2.28-11.89,4.36,0,0,0,0,0,0,3.88-2.15,8.14-3.58,12.52-4.23.94.19,1.89.33,2.85.44-.19.53-.33,1.07-.42,1.62.42-1.24,1.06-2.37,1.83-3.4.72-.94,1.53-1.8,2.39-2.61,1.3.48,2.66.76,4.02.96.73.11,1.47.17,2.2.17l2.22.05h0s.06,0,.06,0c1.09-.13,2.25-.55,3.12-1.44.09-.09.15-.2.22-.29-.01.07-.01.14-.03.2-.26.91-.94,1.73-1.8,2.38-1.1.57-2.17,1.2-3.29,1.74-1.16.46-2.31.98-3.5,1.42-2.38.76-4.91,1.29-7.46.83,1.21.45,2.53.6,3.83.59,1.27,0,2.55-.19,3.79-.48-.07,1.16,0,2.33.31,3.44-1.19.52-2.38,1.01-3.59,1.49-2.44,1.02-4.92,1.95-7.41,2.86-2.48.93-4.99,1.78-7.5,2.65-5.03,1.69-10.08,3.35-15.17,4.91,5.24-.98,10.42-2.25,15.54-3.76,5.12-1.49,10.18-3.22,15.13-5.22,2.44-1,4.87-2.07,7.25-3.24.12.74.3,1.47.52,2.19-1.22,1.4-2.56,2.71-3.98,3.91-3.21,2.68-6.79,4.92-10.65,6.52-3.85,1.61-7.98,2.66-12.15,2.91-2.09.11-4.19-.04-6.21-.57-1.98-.5-3.86-1.44-5.45-2.75.39-2.89,1.8-5.6,3.76-7.79,1.97-2.25,4.46-3.99,7.05-5.48h0s0,0,0,0c-.55.31-1.09.63-1.62.97-.19.12-.38.24-.57.36-.36.23-.71.48-1.06.73-.41.29-.8.59-1.19.9-.05.04-.11.09-.16.13-.89.72-1.75,1.47-2.53,2.31-2.05,2.18-3.58,4.92-4.12,7.92-.01.07,0,.14.06.19h0c1.6,1.46,3.54,2.56,5.63,3.19,2.08.65,4.27.9,6.44.89,4.34-.04,8.64-.96,12.68-2.55,4.04-1.6,7.79-3.9,11.08-6.74.76-.65,1.5-1.34,2.2-2.06-.46,1.58-.83,3.18-1.11,4.81-.78,4.76-.79,9.64.17,14.36.49,2.36,1.27,4.67,2.45,6.78,1.17,2.11,2.8,3.97,4.75,5.37h0c.06.04.13.06.2.03,3.14-1.28,5.75-3.58,7.65-6.31.71-1.01,1.31-2.08,1.87-3.18.07-.14.14-.27.21-.41.2-.4.39-.8.57-1.2.23-.52.44-1.04.65-1.57.08-.21.16-.42.24-.63.07-.21.14-.41.21-.62-.94,2.67-2.14,5.26-3.82,7.54-.98,1.34-2.12,2.56-3.42,3.59-1.26,1-2.68,1.79-4.18,2.34-1.8-1.43-3.27-3.24-4.29-5.29-1.06-2.07-1.72-4.33-2.1-6.63-.72-4.61-.55-9.35.29-13.92.35-1.91.83-3.79,1.43-5.63.33.6.71,1.18,1.17,1.72l.29.34.38-.3c1.64-1.31,2.77-3.11,3.6-4.97.15-.36.3-.72.44-1.08.42.36.87.68,1.34.98-.95,5.63-1.63,11.29-2.03,16.97-.21,2.96-.37,5.92-.48,8.88-.06,2.96-.13,5.92-.04,8.89.25-2.95.48-5.9.8-8.84.27-2.94.56-5.88.91-8.81.65-5.47,1.35-10.92,2.29-16.33.2.09.39.18.6.26l.72.25.25-.72c.41-1.17.57-2.36.56-3.53.67.25,1.36.47,2.06.65.42.16.84.3,1.26.42.42.12.84.22,1.26.3-.29.56-.55,1.14-.73,1.74-.27.85-.4,1.76-.31,2.63.29-1.62,1.1-3,2.04-4.27.56.08,1.12.15,1.68.23.66.09,1.33.08,2,.11h0s.05,0,.05,0c.97-.1,2.06-.41,2.87-1.22.07-.06.11-.15.17-.21-.13.28-.31.56-.53.82l-1.79,1.53c-.63.49-1.3.95-1.98,1.37-1.37.81-2.85,1.52-4.52,1.64.67.13,1.36.13,2.04.05.24.79.52,1.57.83,2.34.04.1.09.19.13.29.18.92.49,1.81.98,2.59-.6-1.8-.54-3.67-.28-5.47.99-.33,1.93-.8,2.82-1.32.99-.56,1.84-1.31,2.75-1.98h0s.04-.05.04-.05c.48-.49.9-1.14,1.09-1.89.07.47.04.98-.09,1.49-.37.85-.69,1.73-1.08,2.58-.45.83-.88,1.69-1.35,2.51-1.02,1.59-2.22,3.12-3.92,4.12,0,0,0,0,.01,0-.01,4.02-.6,8.04-1.77,11.89,1.2-3.87,1.83-7.9,1.93-11.95.02,0,.04-.02.06-.02,1.07,1.96,2.35,3.79,3.88,5.42,1.13,1.18,2.41,2.24,3.85,3.02,1.43.8,3.04,1.28,4.67,1.39h.01c.07,0,.13-.02.17-.08,1.34-1.86,2.02-4.11,2.14-6.35.08-1.5-.05-2.99-.3-4.47,0-.06-.02-.12-.03-.17-.12-.68-.26-1.35-.43-2.01.52,2.17.86,4.42.65,6.64-.18,2.18-.94,4.31-2.29,5.99,0,0,0,0-.01,0-1.7-3.58-3.35-7.18-5-10.76-.08-.18-.16-.36-.24-.54.49-.65.84-1.39,1.11-2.17.62.61,1.29,1.19,2.04,1.66.86.55,1.82.98,2.86,1.19l.43.09.11-.48c.17-.72.21-1.44.18-2.17.05.18.11.36.16.54-.05-.19-.1-.37-.16-.56-.03-.86-.17-1.72-.39-2.54-.06-.21-.13-.41-.19-.62.37,0,.74-.02,1.11-.07.64.88,1.31,1.74,2.04,2.56,2.64,2.96,5.76,5.49,9.28,7.31,1.76.9,3.65,1.6,5.61,1.93,1.96.35,3.99.26,5.9-.27h.01c.06-.02.12-.07.14-.14.8-2.67.68-5.53-.08-8.15-.3-1.03-.69-2.02-1.14-3,0,0,0,0,0,0-.22-.49-.46-.97-.71-1.45-.16-.29-.31-.59-.47-.87-.11-.19-.22-.39-.34-.58-.1-.17-.21-.33-.31-.5,1.23,2.01,2.28,4.14,2.86,6.43.68,2.58.7,5.36-.18,7.86,0,0,0,0-.01,0-3.47-3.39-6.87-6.83-10.25-10.28-2.32-2.41-4.63-4.83-6.87-7.31l.37-.39-.56-.52c-.54-.5-1.12-.91-1.73-1.25-.34-.39-.69-.78-1.03-1.18-.88-1-1.73-2.01-2.57-3.04.13-.51.23-1.04.26-1.59l.04-.76-.76-.04c-.18,0-.35,0-.53,0,.09-.17.19-.33.27-.5.35-.69.65-1.39.92-2.11.12.03.23.07.34.1.29.27.58.53.88.79,3.54,3.05,7.58,5.54,11.92,7.27.68.27,1.37.51,2.06.74.95.96,1.85,1.99,2.68,3.06-.79-1.04-1.63-2.06-2.53-3.01,3.69,1.22,7.55,1.94,11.44,1.99,2.33.02,4.69-.25,6.93-.94,2.24-.67,4.34-1.84,6.07-3.41h0c.05-.05.08-.12.06-.19-.57-3.24-2.22-6.19-4.42-8.55-.82-.89-1.72-1.68-2.66-2.44-.1-.08-.2-.16-.3-.24-.36-.28-.72-.57-1.09-.84-.43-.31-.86-.61-1.29-.89-.19-.12-.38-.24-.57-.36-.58-.37-1.17-.72-1.77-1.06,2.79,1.61,5.47,3.48,7.6,5.91,2.11,2.36,3.63,5.29,4.06,8.41-1.72,1.41-3.74,2.43-5.89,2.97-2.18.58-4.45.74-6.71.62-4.51-.27-8.97-1.4-13.12-3.14-4.17-1.73-8.04-4.15-11.5-7.05-.55-.47-1.09-.96-1.63-1.46.06-.22.12-.43.18-.65,1.44,1.23,3.06,2.29,4.87,2.78-2-.93-3.67-2.36-5.06-4.01-1.41-1.63-2.61-3.44-3.66-5.31h0c-.55-1.16-1.13-2.28-1.69-3.41-.34-1.08-.44-2.2-.15-3.18-.02.44,0,.88.08,1.31.32,1.78,1.43,3.21,2.66,4.28l.03.03h.02c1.31.96,2.68,1.78,4.08,2.55,1.34.73,2.73,1.36,4.15,1.91.22,1.94.14,3.92-.44,5.83.58-1.16.89-2.43,1.05-3.73,5.24,2.11,10.58,3.95,15.99,5.52,2.76.8,5.53,1.56,8.32,2.27,2.8.66,5.59,1.34,8.42,1.85-2.74-.85-5.49-1.67-8.21-2.58-2.73-.86-5.46-1.74-8.16-2.68-5.41-1.87-10.8-3.78-16.08-5.95-.05-.02-.1-.04-.15-.06,0-.02,0-.05,0-.07,0,0,0,0,.01,0,1.6.59,3.26,1.05,4.95,1.27,1.68.23,3.42.26,5.06-.12-3.38.3-6.64-.71-9.65-2.03-3-1.35-5.85-3.1-8.46-5.07-1.05-.98-1.87-2.19-2.09-3.49-.07-.4-.06-.81,0-1.21.17.42.39.82.66,1.18.96,1.24,2.36,1.93,3.72,2.26h.05s.01.01.01.01l2.88.27c.96.11,1.92.14,2.88.12,1.82-.05,3.65-.21,5.44-.64,1.01,1.22,1.95,2.5,2.74,3.88.83,1.47,1.48,3.05,1.81,4.73-.09-1.72-.61-3.4-1.32-4.98-.61-1.38-1.4-2.67-2.27-3.9,4.39.54,8.69,1.82,12.67,3.77-.95-.47-1.9-.91-2.88-1.31,3.38-.42,6.71-1.3,9.84-2.66,3.7-1.61,7.13-3.84,10.01-6.66,1.43-1.42,2.7-3.02,3.64-4.82.95-1.78,1.51-3.78,1.6-5.79h0c0-.08-.03-.15-.09-.19ZM81.04,38.09c.49,1.81.42,3.74.1,5.59-.37,1.85-.96,3.66-1.75,5.37-.75,1.72-1.76,3.31-2.78,4.87-.81.96-1.84,1.75-2.99,1.98-.21.05-.42.05-.62.06.66-.27,1.28-.65,1.8-1.14.65-.61,1.15-1.36,1.48-2.15.34-.79.54-1.61.65-2.43v-.04s0-.02,0-.02c.09-3.15-.26-6.28-.94-9.33,1.48-1.21,3.15-2.26,5.03-2.74ZM68.83,35.4c.67-1.28,1.52-2.45,2.5-3.48,2,2.24,3.2,5.21,3.95,8.22.02.1.04.19.06.29l-.13.09.03.24c.21,1.55.32,3.11.34,4.67,0,1.54,0,3.09-.13,4.61-.22,1.42-.78,2.75-1.71,3.67-.54.53-1.24.88-1.99,1.09,0,0,.02-.01.03-.02.51-.47.92-1.06,1.17-1.72.52-1.33.38-2.82-.02-4.13v-.02s-.02-.02-.02-.02l-1.23-2.6c-.39-.88-.86-1.72-1.38-2.53-.93-1.49-2.01-2.91-3.26-4.19.49-1.44,1.05-2.85,1.78-4.16ZM37.62,75.27c-.65-1.25-1.31-2.53-1.74-3.89-.47-1.36-.77-2.77-.89-4.21,0,0,0,0,0,0h0c-.08-1.42.04-2.88.56-4.2,1.35.53,2.49,1.47,3.47,2.5l-.99,3.31c-.25,1.2-.4,2.42-.6,3.64h0s0,.07,0,.07c.04,1.27.32,2.68,1.27,3.76.16.19.35.34.54.5-.63-.31-1.19-.85-1.63-1.49ZM38.94,72.47l.14-1.72.12-1.77.6-3.51.04-.25-.1-.09s.03-.1.05-.15c.83-2.14,1.98-4.22,3.61-5.7,1.24,1.71,1.95,3.78,2.43,5.9-1.02.86-1.95,1.81-2.75,2.85-.46.58-.88,1.18-1.25,1.82l-1.14,1.89v.02s-.02.02-.02.02c-.41.98-.63,2.12-.33,3.19.1.39.3.74.52,1.06-.37-.2-.7-.45-.96-.77-.59-.73-.9-1.74-.95-2.81ZM27.58,83.1c-.11.2-.22.4-.32.61-1.77-.16-3.52-.44-5.24-.88-3.47-.86-6.86-2.24-9.88-4.19-2.94-1.93-5.48-4.71-6.35-8.2,4.1,2.04,8.31,3.85,12.6,5.45,2.93,1.1,5.9,2.1,8.91,3,.56.47,1.18.87,1.83,1.2.15.08.32.14.48.21-.76.87-1.46,1.8-2.03,2.8ZM40.96,79.49c-.52.56-1.33.91-2.21,1.06l-3.14.06c-1.06-.03-2.12-.13-3.17-.28-2.09-.34-4.2-.89-5.95-2.21.84-.78,1.79-1.38,2.81-1.85.93-.41,1.89-.73,2.86-1,.52.56,1.06,1.1,1.6,1.66.6.63,1.29,1.16,1.95,1.74h0s.04.03.04.03c1.06.68,2.38,1.23,3.8,1.08.52-.05,1.03-.2,1.5-.42-.04.04-.06.1-.1.14ZM41.3,76.25s0,0,0,0c0,0,0,0,0,0h0ZM41.35,76.27c-.1-.11-.18-.23-.26-.35-.34-.52-.52-1.15-.53-1.78,0,0,0,0,0,0h0c.01-.75.24-1.47.56-2.13.63-.88,1.25-1.77,1.93-2.62.71-.81,1.47-1.59,2.28-2.29,1.4-1.23,2.99-2.25,4.66-2.76.15,1.06.11,2.16-.04,3.27-.99.38-1.98.78-2.95,1.19-.55.27-1.07.61-1.61.91l-1.58.93h-.03s-.01.02-.01.02c-.97.78-1.81,1.82-2.1,3.06-.14.62-.14,1.26,0,1.85.07.3.17.58.29.86-.21-.04-.41-.1-.61-.18ZM42.2,76.19l-.07.12c-.03-.08-.05-.16-.07-.25-.03-.11-.05-.23-.07-.34,0-.06-.02-.12-.03-.18-.06-.57,0-1.14.19-1.66.38-1.04,1.2-1.84,2.13-2.43l3.25-1.42c1.12-.36,2.23-.74,3.33-1.15l.45-.17v-.03c2.12-.53,4.33-.83,6.38-.45-.63,1.89-1.88,3.61-3.3,5.16-.57-.17-1.15-.3-1.73-.4-1.1-.21-2.22-.31-3.33-.34-1.11,0-2.22.06-3.32.11h-.02s-.02,0-.02,0c-1.04.19-2.09.67-2.79,1.51-.35.42-.59.91-.71,1.42-.05.21-.06.42-.07.62l-.21-.13ZM52.72,78.96c-.53-.48-1.06-.96-1.6-1.43-.65-.57-1.37-1.07-2.06-1.59l-.02-.02h-.01c-1.08-.61-2.39-1.02-3.66-.78-.63.11-1.22.37-1.71.74-.25.18-.47.39-.67.62l-.44-.03c.15-.72.48-1.39,1.01-1.84.69-.61,1.61-.88,2.53-.97l3.18.18c1.06.12,2.1.28,3.13.52.61.15,1.2.33,1.79.53-.03,1.14.17,2.22.5,3.26-.63.31-1.3.58-1.97.83ZM55.2,79.52c.07.16.14.33.21.49-.28,0-.55.03-.83.06-.04-.08-.07-.16-.11-.24.24-.1.49-.2.73-.31ZM43.24,76.53c.66-.48,1.41-.8,2.19-.82,1.09-.03,2.13.41,3.03,1.03.61.57,1.27,1.08,1.85,1.68.58.6,1.17,1.2,1.76,1.78l.3.3h.01s.04.04.06.06c-.08.03-.17.05-.25.09l-.09.04.03.08c.37.89.9,1.68,1.52,2.39-.89.33-1.75.73-2.55,1.24-.29.18-.57.39-.83.61-.23-1.09-.55-2.14-.95-3.17-.38-1.04-.88-2.04-1.38-3.02v-.03s-.02,0-.02,0c-.58-.89-1.42-1.68-2.47-2-.52-.16-1.06-.19-1.58-.11-.2.03-.39.1-.58.16l-.07-.04v-.27ZM52.35,80.82c1.03-.31,2.11-.29,3.15-.13.31.8.61,1.62.94,2.43.42.84.91,1.65,1.37,2.47h0s.04.05.04.05c.47.54,1.06,1.08,1.78,1.41-.06-.01-.12-.02-.18-.04-.99-.4-1.99-.83-2.9-1.42-.94-.57-1.79-1.26-2.55-2.04-.72-.79-1.34-1.71-1.64-2.73ZM58.99,84.68c-.5-.71-1-1.43-1.52-2.14l-1.37-2.32-.13-.23h-.13s-.01-.02-.01-.04c-.5-1.61-.75-3.32-.52-4.89,1.42.43,2.72,1.25,3.94,2.2-.18.98-.25,1.96-.22,2.93,0,.57.05,1.13.15,1.69l.25,1.67v.03s0,.01,0,.01c.25.79.69,1.58,1.41,2.08.11.08.23.12.34.18-.13,0-.25,0-.38-.04-.64-.15-1.28-.55-1.8-1.14ZM57.97,74.62c-.3-.14-.61-.27-.92-.39-.09-.46-.18-.92-.26-1.39.32-.39.63-.79.91-1.22.03-.05.06-.1.09-.14.04.71.13,1.43.3,2.14l.18.74.74-.16c.61-.13,1.2-.33,1.77-.55-.45.68-.75,1.41-.94,2.16-.59-.43-1.2-.83-1.85-1.18ZM42.42,77.23s0,0,0,0h0s0,0,0,0c0,0,0,0,0,0,0,0,0,0,0,0h0ZM42.43,77.24h0s0,0,0,0h-.01s0,0,.01,0ZM34.32,90.98c-.23-1.49-.11-2.97.24-4.39,1.09-.34,2.19-.68,3.28-1.05,1.12-.5,2.23-1.02,3.34-1.56h0s.04-.03.04-.03c.78-.53,1.53-1.23,2.03-2.12-.04.1-.07.2-.11.3-.51.8-1.04,1.6-1.54,2.42h0c-.94,1.34-1.98,2.62-3.17,3.74-1.17,1.15-2.54,2.11-4.12,2.68h0ZM45.53,85.35h0s-.63,2.82-.63,2.82c-.02.12-.05.23-.08.35l-.09.35-.11.44h0c-.16.55-.36,1.08-.56,1.61-.63,1.62-1.49,3.17-2.67,4.41-.71-.8-1.31-1.71-1.81-2.7-.52-1.04-.91-2.16-1.26-3.29.21-.14.43-.29.63-.43,1.38-1.03,2.58-2.27,3.66-3.59l.11-.13v-.02c.57-.77,1.12-1.56,1.67-2.34h0s.02-.06.02-.06c.49-.97.82-2.16.55-3.39-.02-.11-.06-.22-.09-.33.04.04.09.08.13.12.61.73.88,1.76.91,2.81-.14,1.12-.25,2.25-.38,3.37ZM59.83,88.78l-1.37.03-1.42-.05c-.95-.01-1.9-.12-2.84-.27-1.86-.33-3.74-.85-5.31-2.04.06.08.14.15.21.22.13,1.34.11,2.67-.21,3.91-.95-.42-1.83-1.04-2.65-1.76l.68-3.22v-.04s0-.04,0-.04h0s0,.07,0,.07l.28-3.57v-.03s0-.02,0-.02c-.1-1.24-.48-2.54-1.39-3.47-.44-.46-.99-.8-1.56-1.01-.33-.12-.68-.19-1.02-.22,0,0,0,0,0,0v-.23c.73-.13,1.45-.07,2.07.23.84.4,1.43,1.15,1.86,1.96.37,1,.76,1.98,1.05,3,.29,1.02.54,2.05.72,3.08.05.31.09.62.13.94-.05.07-.11.13-.16.2,1.43-1.25,3.19-1.91,4.96-2.36.69.79,1.47,1.48,2.29,2.11.9.69,1.89,1.24,2.89,1.78h0s.05.03.05.03c.64.25,1.39.39,2.16.29-.41.24-.89.41-1.41.49ZM61.8,85.8s-.01,0-.02,0c-.45-.14-.86-.42-1.17-.79,0,0,0,0,0,0,0,0,0,0,0,0-.35-.45-.56-.98-.68-1.53-.04-.82-.09-1.65-.09-2.47.04-.82.13-1.64.29-2.43.27-1.31.72-2.57,1.4-3.6.49.49.91,1.07,1.29,1.69-.38.67-.76,1.35-1.11,2.03-.19.43-.33.88-.5,1.32l-.47,1.32v.03s-.01,0-.01,0c-.18.94-.16,1.99.3,2.87.29.6.78,1.04,1.32,1.35-.18.08-.37.15-.55.19ZM62.3,73.71c-.15-.12-.3-.25-.47-.36l-.16-.11c.78-.37,1.52-.81,2.22-1.29.03.11.06.22.09.34-.51.52-1.07,1-1.68,1.43ZM64.05,72.58c.1.39.2.78.31,1.16.06.21.14.41.21.62-.28.31-.54.63-.78.97-.4-.58-.88-1.12-1.45-1.58.6-.34,1.17-.73,1.71-1.17ZM62.31,85.28h0c-.09-.08-.18-.16-.26-.24-.25-.29-.45-.61-.56-.97-.15-.46-.16-.95-.1-1.43.05-.32.13-.64.24-.95.44-.79.86-1.58,1.28-2.36.5-.74.97-1.49,1.43-2.25l.25-.41v-.02c.92-1.21,1.98-2.33,3.23-3.05.45,1.3.53,2.77.46,4.23-.39.17-.77.36-1.13.56-.76.41-1.47.89-2.14,1.42-.66.54-1.28,1.12-1.9,1.69l-.02.02h0c-.52.64-.92,1.45-.92,2.31,0,.53.18,1.01.45,1.42l-.3.04ZM62.85,85.24c-.18-.46-.26-.93-.16-1.38.12-.67.54-1.23,1.03-1.71l1.98-1.38c.68-.42,1.38-.82,2.09-1.16,1.16-.54,2.37-.97,3.56-1.06-.19,1.13-.71,2.25-1.33,3.31-.51-.03-1.02-.05-1.53-.07-.66-.02-1.33.04-1.99.07h-.04s-.01,0-.01,0c-.94.18-1.93.58-2.57,1.36-.44.51-.65,1.14-.7,1.77l-.33.23ZM63.2,85.94s0,0,0,0h0s0,0,0,0h0s0,0,0,0h0s0,0,0,0c0,0,0,0,0,0h0s0,0,0,0ZM70.73,108.64c-3.08-.4-5.72-2.3-7.67-4.63-1.34-1.62-2.46-3.43-3.39-5.32,1.19-.69,2.22-1.69,3.09-2.76.4.53.86,1.03,1.37,1.44.18.35.35.69.53,1.04,1.83,3.52,3.85,6.94,6.07,10.23ZM66.05,94.37c-.13,1.23-.43,2.45-1.06,3.57-.81-.78-1.4-1.71-1.86-2.69.49-.71.98-1.41,1.45-2.14.43-.83.86-1.67,1.26-2.52h0s.01-.06.01-.06c.05-.17.09-.35.13-.52.03.22.05.44.08.65h0c.09,1.24.11,2.48-.03,3.71ZM66.63,95.1c.07-.19.13-.39.19-.58.34-1.27.49-2.59.5-3.9v-.16s0-.02,0-.02c-.02-.72-.07-1.44-.11-2.17h0s-.01-.06-.01-.06c-.14-.66-.42-1.36-.92-1.94.4.21.78.53,1.11.91.45.72.92,1.43,1.38,2.15l.02.04-.02-.04c.32.65.63,1.3.97,1.95.12.21.21.43.3.64l.12.26h0c.15.36.28.73.4,1.1.4,1.21.63,2.47.57,3.71-1.56-.26-3.08-1.01-4.5-1.9ZM71.1,90.79l-1.11-2.13-.02-.04-.02-.03h0s.04.06.04.06c-.53-.75-1.05-1.51-1.58-2.24l-.02-.03h0c-.67-.69-1.55-1.29-2.56-1.39-.72-.09-1.42.12-1.99.47,0,0,0,0,0,0l-.1-.14c.35-.33.76-.58,1.2-.67.67-.14,1.35.02,1.97.3.68.43,1.38.82,2.03,1.3.65.47,1.28.96,1.87,1.48.94.86,1.8,1.82,2.33,2.89-.64.15-1.33.18-2.03.16ZM84.28,93.93c3.54,3.33,7.23,6.49,11.09,9.42-1.83.39-3.72.37-5.53-.04-1.85-.41-3.62-1.16-5.27-2.11-3.28-1.93-6.19-4.5-8.65-7.39-.54-.63-1.04-1.29-1.54-1.96.02,0,.05-.01.07-.02l.72-.26-.26-.72c-.3-.83-.74-1.56-1.25-2.22,1.23-.42,2.43-1.01,3.48-1.85,2.29,2.46,4.67,4.84,7.12,7.14ZM76.34,85.45c-1.03.9-2.33,1.55-3.7,2.04-.31-.29-.62-.57-.95-.82-.67-.54-1.39-1.01-2.13-1.43-.73-.43-1.51-.77-2.29-1.1h-.03s0-.02,0-.02c-.78-.24-1.69-.29-2.48.04-.47.2-.84.53-1.12.92h-.09s-.11-.14-.11-.14c.19-.51.47-.96.86-1.28.62-.51,1.42-.73,2.23-.77.63.06,1.26.05,1.89.14.63.09,1.25.16,1.88.23l.41.04h0c.48.07.96.17,1.44.29,1.52.4,2.99.98,4.17,1.87ZM72.11,81.04c.38.46.76.92,1.15,1.37-.26-.07-.52-.12-.79-.18-.31-.06-.62-.1-.94-.15.21-.34.4-.69.57-1.05ZM68.64,65.94v.02s.09.15.09.15c1.19,1.89,2.56,3.68,4.17,5.23.24.22.48.44.73.65-.6,1.47-1.27,2.91-2.1,4.24-.18.28-.37.55-.56.82-.42.05-.84.14-1.24.25.11-1.7-.05-3.46-.81-5.13l-.32-.7-.69.32c-.85.39-1.59.9-2.26,1.49-.2-.74-.36-1.5-.5-2.26h.02s-.09-.44-.09-.44c-.07-.36-.12-.72-.18-1.08-.17-1.2-.28-2.42-.35-3.63v-.02c-.08-1.49-.08-3-.01-4.48.2-1.41.72-2.77,1.67-3.68.3-.29.66-.52,1.03-.71-.27.38-.49.8-.64,1.24-.51,1.48-.27,3.03.21,4.34l.02.05h0c.61,1.12,1.21,2.24,1.83,3.34ZM69.21,55.64s-.01.01-.01.02c-.53-.01-1.06.03-1.59.17-.77.2-1.52.57-2.14,1.11-.62.54-1.13,1.21-1.48,1.95-.36.74-.59,1.53-.74,2.32h0s0,.05,0,.05c-.14,1.53-.16,3.07-.12,4.6v.02s0,.05,0,.05c.05,1.48.21,2.96.43,4.44-1.28.92-2.66,1.66-4.12,2.09-.38-2.35.03-4.85.71-7.23.39-1.33.88-2.64,1.43-3.93.54-1.29,1.22-2.51,1.86-3.76.71-1,1.63-1.9,2.81-2.29.94-.32,2-.23,2.97.13l-.02.26ZM69.26,54.9l-.02.29-.07.03c-.32-.17-.65-.31-1-.4-.66-.17-1.36-.2-2.04-.05-1.38.28-2.56,1.19-3.42,2.25h0s-.01.03-.01.03c-.77,1.22-1.56,2.44-2.19,3.74-.65,1.29-1.22,2.63-1.68,4.02-.21.64-.4,1.3-.56,1.97-1.15-.23-2.32-.28-3.45-.19-1.11.08-2.2.3-3.25.59.11-1.03.07-2.09-.15-3.13.88-1.34,1.9-2.6,3.02-3.77.67-.69,1.37-1.35,2.09-1.98h0s.34-.26.34-.26c.87-.68,1.73-1.36,2.58-2.06.85-.7,1.8-1.26,2.69-1.91,1.3-.67,2.75-1.08,4.2-.85,1.14.17,2.17.82,2.99,1.7h-.05ZM69.49,54.91c-.27-.4-.56-.79-.93-1.11-.59-.53-1.32-.95-2.11-1.16-.79-.22-1.63-.27-2.44-.15-.81.11-1.6.36-2.35.67h-.02s-.02.02-.02.02l-1.46.87c-.48.3-.98.57-1.43.92-.8.57-1.59,1.14-2.38,1.72-1.2-.57-2.35-1.22-3.41-1.97-.94-.67-1.79-1.45-2.49-2.32,2.02-1.26,4.5-1.83,6.97-2.13,1.38-.15,2.78-.2,4.18-.19,1.39.07,2.78.2,4.19.28,1.2.27,2.38.78,3.19,1.72.67.76.97,1.79,1.01,2.84l-.49-.02ZM69.98,55.71h0s0,0,.01,0h-.01ZM69.99,55.71s0,0,0,0h0s0,0,0,0c0,0,0,0,.01,0h0s0,0,0,.01h0ZM70.31,54.7l-.2.09c.03-.36.04-.73-.02-1.1-.09-.67-.34-1.33-.73-1.91-.79-1.16-2.08-1.91-3.39-2.29h-.02s-.02,0-.02,0c-1.42-.21-2.86-.44-4.3-.58-1.44-.11-2.9-.12-4.36,0-.81.06-1.62.16-2.42.31-.91-1.21-1.73-2.49-2.4-3.82-.62-1.23-1.08-2.52-1.33-3.84,1.31-.12,2.65-.04,3.97.2,1.59.29,3.16.76,4.69,1.35.03.01.06.03.08.04v.07s.43.18.43.18c1.42.6,2.82,1.28,4.19,2.02,1.37.74,2.72,1.52,4.01,2.39.7.57,1.33,1.25,1.78,2.02,0,0,0,.01.01.02.28.47.49.98.61,1.53.16.72.15,1.48-.03,2.22-.01.05-.03.1-.05.16-.05.19-.12.38-.19.57-.08.19-.16.37-.26.55l-.08-.16ZM71.17,53.66c.26-.75.35-1.58.24-2.38-.21-1.63-1.16-3.08-2.31-4.2h0s-.03-.03-.03-.03c-2.36-1.92-4.92-3.59-7.71-4.85-.05-1.59.08-3.18.51-4.66,2.23.93,4.23,2.59,5.91,4.49.94,1.05,1.79,2.18,2.59,3.36.74,1.21,1.41,2.46,2.1,3.71.32.91.51,1.89.41,2.86,0,0,0-.02,0-.03,0,0,0,.02,0,.03,0,0,0,0,0,0,0,0,0,0,0,0-.1.82-.42,1.61-.94,2.25-.23.28-.49.52-.78.74-.21.03-.42.04-.63.05.25-.42.48-.85.64-1.32ZM82.56,61.34c-1.4.07-2.8.05-4.2-.05l-4.12-.51c-1.15-.33-2.21-.91-2.86-1.78-.25-.32-.41-.7-.52-1.09.05.05.1.1.15.15.69.55,1.52.96,2.39,1.14,1.76.39,3.51-.09,4.97-.81l.04-.02h0c.94-.65,1.92-1.24,2.8-1.95l2.4-1.95c1.27.51,2.5,1.1,3.67,1.82,1.25.78,2.39,1.73,3.34,2.89h0c-2.44,1.52-5.28,1.99-8.06,2.16ZM118.78,49.63c-.98,1.67-2.27,3.14-3.71,4.44-2.91,2.57-6.31,4.57-9.89,6.04-3.58,1.48-7.4,2.35-11.26,2.7-.46.04-.91.07-1.37.09-1.91-.6-3.87-1.06-5.85-1.41,2.67-.86,5.28-1.87,7.86-2.94,4.57-1.94,9.03-4.12,13.36-6.51,4.34-2.37,8.57-4.94,12.64-7.75-.2,1.89-.81,3.72-1.78,5.35Z"/>
  </g>
</svg>