<?xml version="1.0" encoding="UTF-8"?>
<svg id="Layer_2" data-name="Layer 2" xmlns="http://www.w3.org/2000/svg" viewBox="0 0 85.89 88.09">
  <defs>
    <style>
      .cls-1 {
        fill: #201522;
      }
    </style>
  </defs>
  <g id="Objects">
    <g>
      <path class="cls-1" d="M83.8,47.03c-.82-1.11-1.82-2.08-2.9-2.93.85-.65,1.65-1.38,2.36-2.19,1.32-1.5,2.34-3.28,2.63-5.3-.42-.8-.94-1.42-1.54-2.04-.6-.6-1.29-1.12-2-1.58-1.32-.87-2.79-1.49-4.3-1.93.81-1.13,1.55-2.31,2.17-3.58.73-1.52,1.28-3.21,1.2-5.02v-.31s-.31-.22-.31-.22c-1.44-1.09-3.16-1.68-4.87-1.96-1.58-.27-3.18-.24-4.75-.05.37-1.32.66-2.68.81-4.07.16-1.67.1-3.46-.6-5.13l-.12-.29-.35-.11c-1.73-.53-3.55-.5-5.24-.18-1.44.27-2.81.77-4.11,1.4,0-.39,0-.78-.03-1.18-.12-1.33-.42-2.67-.95-3.93-.51-1.27-1.25-2.49-2.26-3.5l-.27-.27-.38.03c-1.82.17-3.47.91-4.93,1.81-.73.46-1.42.97-2.06,1.54-.46.41-.89.84-1.3,1.29-.16-.43-.32-.87-.51-1.29-.57-1.21-1.3-2.37-2.24-3.37-.92-1.02-2.02-1.91-3.33-2.51l-.35-.16-.34.16c-1.65.78-2.95,2.04-4.02,3.38-.53.68-1.01,1.4-1.41,2.15-.23.42-.44.86-.63,1.29-.8-.79-1.67-1.5-2.62-2.11-1.69-1.06-3.61-1.91-5.7-2.02l-.32-.02-.19.2c-1.23,1.3-1.94,2.93-2.42,4.54-.37,1.31-.6,2.65-.72,3.99-1.12-.54-2.3-.97-3.52-1.24-1.95-.42-4.05-.56-6.04.05l-.31.09-.11.26c-.71,1.65-.83,3.41-.72,5.09.1,1.36.35,2.69.69,3.99-1.23-.12-2.46-.13-3.69.03-1.99.27-4.03.85-5.7,2.12l-.25.19-.02.28c-.1,1.79.4,3.49,1.07,5.03.56,1.24,1.24,2.41,2,3.52-1.19.3-2.36.72-3.46,1.3-1.78.93-3.49,2.18-4.63,3.95l-.17.27.08.26c.51,1.72,1.57,3.14,2.72,4.36.99,1.01,2.07,1.9,3.21,2.71-1,.74-1.92,1.57-2.73,2.51-1.29,1.51-2.32,3.27-2.81,5.2l-.03.11.07.09c1,1.37,2.32,2.45,3.73,3.37.71.46,1.45.86,2.23,1.21.48.21.98.41,1.48.58-.59.94-1.1,1.93-1.49,2.96-.7,1.86-1.06,3.87-.86,5.85v.12s.1.06.1.06c1.42.95,3.02,1.51,4.66,1.89.82.19,1.66.32,2.51.38.53.04,1.06.05,1.6.04-.23,1.08-.37,2.18-.38,3.29-.02,1.99.32,4,1.18,5.79l.05.11.11.03c1.65.41,3.35.39,5.03.2.84-.1,1.67-.27,2.49-.5.64-.18,1.26-.4,1.88-.66.15,1.11.37,2.21.67,3.29.54,1.87,1.25,3.76,2.62,5.32l.14.16h.28c1.77-.04,3.47-.65,4.94-1.55.74-.45,1.42-.97,2.04-1.55.5-.47.96-.98,1.4-1.51.45,1.11.97,2.2,1.63,3.23,1.05,1.68,2.52,3.22,4.45,4.07l.3.13.27-.13c1.62-.78,2.91-2.02,3.91-3.39.51-.69.94-1.42,1.31-2.18.3-.67.58-1.29.79-2.01.86.98,1.79,1.92,2.85,2.73,1.56,1.23,3.47,2.16,5.57,2.3l.32.02.21-.22c1.25-1.29,2.04-2.89,2.51-4.52.24-.82.4-1.65.48-2.49.05-.59.07-1.15.06-1.73,1.15.53,2.36.94,3.6,1.19,1.96.39,4.01.39,5.91-.37.49-.76.76-1.53.99-2.35.22-.82.32-1.67.37-2.52.08-1.38-.06-2.76-.34-4.11,1.08.05,2.15,0,3.22-.16,1.97-.3,3.9-1.01,5.42-2.37.2-.88.19-1.69.13-2.55-.07-.85-.27-1.68-.51-2.5-.4-1.32-1-2.57-1.73-3.75,1.03-.32,2.02-.73,2.96-1.25,1.75-.96,3.32-2.28,4.28-4.08-.12-.9-.4-1.66-.75-2.44-.36-.77-.83-1.49-1.34-2.17ZM61.84,59.23h-.08s-.27.06-.27.06l-.14.18c-.52.66-1.08,1.3-1.66,1.92-1.31,1.18-2.74,2.2-4.26,3.08l-.19-.05-.3.16c-.59.31-1.17.63-1.78.91-.6.28-1.22.54-1.84.79-1.18.46-2.41.82-3.65,1.09l-.11-.07-.33.05c-.66.09-1.32.19-1.98.24-.66.05-1.33.09-2,.11-1.33.03-2.67-.05-4-.24l-.29-.04-.12.08c-1.25-.34-2.47-.75-3.66-1.2-1.24-.49-2.44-1.06-3.61-1.71l-.29-.16-.28.06c-.12.03-.24.07-.36.1-.45-.26-.89-.54-1.33-.84-.5-.42-.98-.85-1.45-1.3-.97-.95-1.87-1.95-2.69-3.01l-.15-.19-.3-.05c-.12-.02-.24-.03-.37-.04-.22-.27-.43-.55-.64-.83-.09-.14-.18-.29-.26-.44-.33-.6-.66-1.19-.96-1.8-.59-1.22-1.09-2.48-1.5-3.75l-.07-.23-.26-.15c-.08-.04-.16-.08-.24-.12-.2-.61-.38-1.23-.53-1.86-.09-.57-.18-1.13-.24-1.7-.13-1.35-.17-2.7-.12-4.04v-.24s-.03-.04-.03-.04c-.03-1.15.03-2.3.13-3.45.26-1.48.66-2.94,1.18-4.34l.07-.04.07-.22c.12-.36.26-.71.4-1.06,1.22-2.74,2.93-5.25,5.06-7.35,4.38-4.39,10.51-6.9,16.68-6.92,6.07-.09,12.08,2.25,16.63,6.35.09.1.2.2.29.3.45.5.86,1.04,1.28,1.56l.15.18.28.04s.04,0,.06,0c.59.68,1.13,1.39,1.64,2.13.19.33.39.65.55.99.6,1.22,1.08,2.48,1.49,3.76l.07.22.03.02c.93,2.35,1.64,4.85,1.75,7.43l-.08.09-.15.17-.16.18v.23c.08,2.53-.1,5.13-.88,7.6l-.12.07-.18.1-.21.12-.07.22c-.58,1.76-1.33,3.5-2.29,5.12-.44.61-.89,1.2-1.38,1.76ZM83.93,35.06c.66.44,1.28,1.03,1.8,1.58-.73,1.72-1.94,3.23-3.28,4.5-.83.79-1.74,1.49-2.69,2.12h-.02s-.44.25-.44.25c-.9.53-1.83,1.02-2.79,1.39-.96.36-1.94.66-2.9.72-1.95.18-3.94-.57-5.39-1.94l-.34-.32c0-2.17-.19-4.38-.74-6.52,1.85.63,3.96.59,5.8-.17,1.12-.49,2.09-1.18,2.93-1.96.72-.68,1.36-1.42,1.94-2.2,1.39.31,2.76.76,4.06,1.36.72.34,1.41.75,2.07,1.21ZM75.97,21.6c1.43.24,2.8.67,4.01,1.37.13,1.38,0,2.84-.4,4.27-.36,1.33-.96,2.6-1.72,3.76-.06-.02-.12-.04-.18-.06l-.44-.12-.33.39c-.67.81-1.37,1.58-2.15,2.26-.78.67-1.59,1.29-2.48,1.67-1.45.69-3.14.79-4.71.37-.32-.1-.64-.21-.96-.34-.52-1.2-1.17-2.35-1.89-3.43-.22-.33-.46-.64-.69-.96-.34-.58-.72-1.13-1.11-1.68.81,0,1.63-.12,2.4-.39,1.14-.38,2.16-1.08,2.96-1.94.03-.02.06-.04.08-.06.9-.75,1.59-1.69,2.16-2.68.49-.83.86-1.71,1.18-2.62,1.43-.1,2.87-.03,4.26.19ZM66.29,11.77c1.42-.27,2.86-.33,4.24-.08.59,1.25.97,2.67,1.09,4.15.11,1.36-.01,2.75-.33,4.1-.07,0-.13.01-.2.02l-.5.07-.13.46c-.28,1.01-.65,1.99-1.09,2.94-.46.94-.99,1.83-1.68,2.58-.04.04-.08.07-.12.11-.82.6-1.72,1.03-2.66,1.31-.91.26-1.84.34-2.78.29-.41-.44-.85-.85-1.3-1.25-.08-.07-.16-.12-.24-.19-1.18-1.22-2.5-2.33-3.92-3.28.21-.11.42-.21.63-.33.36-.22.68-.47.99-.74,1.05-.7,1.95-1.62,2.6-2.74.59-1.01.92-2.14,1.12-3.26.17-.95.24-1.91.23-2.87,1.31-.58,2.68-1.01,4.06-1.28ZM51.8,7.05c.64-.47,1.3-.91,1.98-1.3,1.24-.7,2.59-1.18,3.93-1.35.69.78,1.27,1.67,1.72,2.66.51,1.11.91,2.29,1.22,3.5.12.47.23.94.32,1.43l-.27.14.04.47c.08,1.04.07,2.09-.02,3.13-.11,1.03-.31,2.06-.69,3-.4.94-1.01,1.81-1.8,2.5-.09.08-.19.15-.29.22-.32.19-.65.36-.99.5-.42.17-.88.29-1.31.37-.93-.55-1.89-1.05-2.88-1.47-1.29-.55-2.64-.98-4.01-1.29.12-.14.25-.27.37-.42.06-.08.11-.17.17-.25.96-1.25,1.57-2.75,1.77-4.28.23-2.12-.18-4.22-.84-6.22.52-.47,1.04-.93,1.6-1.35ZM38.61,6.37c.44-.66.91-1.3,1.42-1.9.93-1.09,2.03-1.99,3.23-2.62.91.49,1.77,1.14,2.53,1.91.85.87,1.63,1.84,2.34,2.88.32.46.62.94.9,1.44l-.08.09.14.28c.48.95.88,1.94,1.16,2.97.28,1.02.44,2.1.32,3.15-.11,1.05-.48,2.08-1.07,2.94-.18.27-.39.52-.62.76-.12.12-.23.24-.35.35-.29.27-.63.5-.96.71-1.47-.26-2.96-.4-4.45-.4-1.04,0-2.08.08-3.12.21.4-.94.63-1.94.68-2.94.09-.55.13-1.1.12-1.67-.07-2.06-1.02-3.98-2.21-5.56-.28-.37-.57-.72-.88-1.07.28-.52.57-1.04.89-1.53ZM26.34,7.85c.57-1.37,1.37-2.63,2.37-3.63,1.65.28,3.23,1,4.63,2,1.49,1.05,2.85,2.3,4.02,3.71,1.14,1.42,2.22,2.93,2.63,4.7.13.53.18,1.08.17,1.63-.03.24-.07.48-.13.71-.22.85-.61,1.63-1.11,2.33-1.86.32-3.68.85-5.41,1.6-.53.23-1.05.48-1.57.75.09-.69.09-1.39-.02-2.08-.18-1.18-.68-2.3-1.38-3.23-.09-.12-.2-.23-.29-.35-.84-1.36-2.08-2.46-3.38-3.31-.49-.32-.99-.6-1.51-.87.15-1.36.47-2.7,1-3.95ZM14.95,15.83c.07-1.48.39-2.94.99-4.22,1.64-.3,3.38-.16,5.04.29,1.75.47,3.46,1.19,5.04,2.11,1.24.76,2.45,1.58,3.4,2.65.06.09.13.19.18.28.49.89.8,1.85.94,2.83.12.89.09,1.8-.07,2.69-1.84,1.11-3.55,2.46-5.05,4-.16.16-.31.33-.47.5-.15-.71-.4-1.4-.75-2.04-.49-.91-1.21-1.67-2.02-2.28-1.41-1.3-3.23-2.01-5-2.45-.59-.14-1.19-.24-1.8-.32-.33-1.33-.48-2.7-.42-4.06ZM6.98,27.22c-.45-1.42-.63-2.9-.52-4.31,1.46-.85,3.15-1.32,4.88-1.45,1.82-.15,3.69-.05,5.5.28,1.68.33,3.33.86,4.65,1.86.6.59,1.1,1.26,1.49,1.99.43.82.72,1.71.87,2.64-1.49,1.86-2.7,3.93-3.59,6.13-.4-.65-.89-1.25-1.47-1.75-.79-.7-1.75-1.19-2.76-1.48-1.75-.72-3.68-.76-5.47-.56-.6.07-1.2.18-1.79.32-.77-1.14-1.39-2.37-1.79-3.67ZM3.38,40.65c-.91-1.18-1.59-2.51-1.96-3.87,1.08-1.29,2.51-2.31,4.09-3.03,1.66-.76,3.45-1.31,5.26-1.61,1.61-.25,3.26-.34,4.78.07.85.36,1.63.85,2.31,1.45.73.67,1.36,1.46,1.78,2.36h0c-.51,1.58-.86,3.2-1.05,4.84-.12.63-.21,1.27-.26,1.91-1.28-1.03-2.84-1.66-4.49-1.78-2.19-.15-4.19.67-5.92,1.62-.52.29-1.02.61-1.5.95-1.15-.82-2.19-1.79-3.04-2.91ZM6.83,55.39c-.77-.24-1.52-.52-2.25-.86-1.41-.67-2.71-1.65-3.6-2.94.54-1.76,1.72-3.26,3.06-4.49,1.37-1.27,2.92-2.33,4.57-3.17,1.66-.81,3.43-1.39,5.12-1.28,1.65.07,3.3.8,4.5,1.92.08,1.31.27,2.6.58,3.87.13.54.29,1.07.46,1.6.13.5.27.99.43,1.47-1.62-.64-3.47-.76-5.18-.27-2.11.61-3.7,2.06-5.01,3.55-.3.34-.57.7-.84,1.06-.62-.13-1.25-.27-1.86-.46ZM12.88,67.17c-.8.04-1.61.03-2.41-.05-1.56-.15-3.12-.63-4.39-1.53-.09-1.84.51-3.65,1.34-5.26.86-1.66,1.95-3.19,3.21-4.54,1.28-1.32,2.74-2.48,4.38-2.95,1.58-.49,3.32-.39,4.89.27.52,1.2,1.14,2.35,1.87,3.43.39.58.8,1.15,1.26,1.68.1.12.21.24.31.35.13.18.27.36.4.54-1.76-.06-3.58.46-5.02,1.52-.86.63-1.61,1.45-2.15,2.32-.55.87-.99,1.79-1.35,2.73-.16.42-.3.85-.43,1.29-.63.09-1.27.17-1.91.2ZM20.31,76.94c-1.51.4-3.14.49-4.65.08-.72-1.69-.79-3.6-.55-5.41.24-1.85.75-3.67,1.48-5.37.75-1.69,1.73-3.27,3.11-4.27,1.32-1,2.99-1.5,4.68-1.4.9.95,1.87,1.82,2.92,2.58.59.44,1.2.83,1.84,1.2.24.17.47.35.72.52-1.63.65-3,1.79-3.92,3.25-.38.61-.65,1.24-.85,1.89-.3.76-.49,1.55-.61,2.33-.15.98-.18,1.98-.12,2.96-1.28.68-2.62,1.28-4.04,1.64ZM34.75,81.24c-.65.46-1.32.89-2,1.28-.68.4-1.38.73-2.1,1.03-.65.25-1.32.47-2,.59-1.25-1.18-2.21-2.77-2.71-4.5-.33-1.1-.5-2.25-.55-3.39l.31-.15v-.45c-.02-1.05,0-2.1.13-3.14.08-.64.2-1.27.38-1.87.24-.63.52-1.24.9-1.76.93-1.37,2.43-2.32,3.97-2.71,1.14.64,2.33,1.19,3.57,1.6.96.34,1.95.58,2.96.75-1.12,1.13-1.89,2.59-2.15,4.12-.38,2.03.1,4.01.65,5.86,0,.01,0,.02.01.03.11.45.23.89.37,1.34-.56.49-1.14.94-1.74,1.36ZM48.18,82.04c-.47.66-.98,1.28-1.52,1.87-1,1.08-2.13,2.01-3.39,2.64-1.46-.8-2.76-1.96-3.91-3.29-.79-.94-1.49-1.99-2.05-3.11l.07-.09-.11-.19c-.27-.5-.52-1.02-.74-1.55-.58-1.78-.81-3.74-.27-5.46.52-1.65,1.63-3.06,3.02-3.96,1.3.24,2.63.38,3.95.41.71.02,1.42,0,2.13-.06.23-.02.45-.04.68-.07-.27.61-.47,1.25-.58,1.9-.21,1.18-.13,2.4.2,3.53.34,1.14.92,2.13,1.57,3.04.35.47.74.93,1.15,1.36.32.41.65.81.99,1.2-.38.59-.78,1.26-1.22,1.84ZM60.85,78.08c-.22.78-.49,1.54-.79,2.28-.57,1.36-1.31,2.62-2.28,3.64-1.65-.25-3.26-.9-4.8-1.76-1.59-.92-3.08-2.11-4.24-3.57-.3-.47-.58-.93-.84-1.43-.5-.94-.89-1.93-1.06-2.91-.36-1.98.16-4.04,1.33-5.6h0c1.25-.23,2.49-.53,3.69-.94.68-.22,1.34-.49,1.98-.79.2-.1.4-.2.61-.29-.05.66-.02,1.33.1,1.98.21,1.18.7,2.3,1.39,3.25.22.29.45.56.7.81.82,1.09,1.87,1.99,2.99,2.7.53.33,1.08.62,1.64.89-.13.58-.25,1.18-.43,1.74ZM71.45,74.82c-.05.79-.25,1.62-.46,2.35-1.85.23-3.77-.07-5.54-.59-1.78-.53-3.49-1.33-5.06-2.3-1.04-.67-2.08-1.38-2.93-2.25-.18-.24-.35-.49-.5-.75-1.02-1.74-1.24-3.85-.67-5.72l.03-.11c1.5-.95,2.88-2.07,4.11-3.33.37-.32.73-.65,1.08-1,.37,1.94,1.46,3.75,3.06,4.98.98.73,2.06,1.22,3.17,1.55.95.28,1.91.47,2.88.58.43,1.36.72,2.77.85,4.2.07.8.06,1.6-.01,2.4ZM80.24,63.33c.22.76.32,1.61.37,2.37-1.66.85-3.56,1.23-5.41,1.34-1.14.07-2.29.02-3.43-.1v-.02s-.51-.08-.51-.08c-1.03-.17-2.06-.39-3.03-.73-.97-.34-1.91-.74-2.69-1.31-1.61-1.11-2.65-2.97-2.88-4.95l-.03-.27c.46-.62.9-1.26,1.3-1.92.87-1.19,1.64-2.44,2.29-3.78,1.01,1.69,2.66,3.02,4.57,3.62,1.17.35,2.36.44,3.51.38.99-.06,1.95-.21,2.9-.44.87,1.13,1.62,2.36,2.23,3.66.34.72.6,1.48.81,2.26ZM81.11,54.72c-1.05.45-2.14.8-3.25,1.07v-.02s-.52.09-.52.09c-1.03.19-2.07.34-3.1.35-1.03.01-2.05-.04-2.97-.32-1.89-.49-3.51-1.88-4.4-3.67l-.21-.42c.74-2.05,1.32-4.19,1.53-6.39,1.53,1.23,3.52,1.91,5.51,1.83,1.22-.07,2.37-.39,3.42-.85.91-.39,1.76-.87,2.57-1.41,1.2.77,2.33,1.66,3.35,2.67.56.57,1.07,1.19,1.53,1.84.47.64.85,1.4,1.16,2.1-1.27,1.36-2.93,2.37-4.62,3.11Z"/>
      <path class="cls-1" d="M51.35,24.59c-2.54-1.11-5.32-1.66-8.09-1.69-2.77,0-5.56.54-8.12,1.63-2.56,1.09-4.89,2.68-6.82,4.65-3.9,3.93-6.06,9.48-5.88,14.94.12,5.46,2.42,10.76,6.22,14.6,1.89,1.93,4.14,3.52,6.63,4.64,2.49,1.11,5.22,1.73,7.97,1.8,5.52.12,11.07-2.23,14.77-6.28,3.76-4.01,5.7-9.42,5.71-14.77.01-5.35-1.94-10.76-5.69-14.78-1.86-2.01-4.15-3.66-6.69-4.75ZM61.91,51.85c-1.1,2.41-2.67,4.58-4.58,6.35-3.84,3.54-8.9,5.58-14.08,5.67-5.16.14-10.47-1.79-14.24-5.51-3.79-3.69-5.88-9.01-5.73-14.24.14-5.24,2.38-10.3,6.06-13.91,3.68-3.62,8.78-5.66,13.91-5.66,5.14-.04,10.22,1.98,14.06,5.51,3.84,3.51,6.28,8.71,6.26,14.06-.01,2.66-.56,5.32-1.66,7.73Z"/>
    </g>
  </g>
</svg>