<?xml version="1.0" encoding="UTF-8"?>
<svg id="Layer_2" data-name="Layer 2" xmlns="http://www.w3.org/2000/svg" viewBox="0 0 86.23 81.96">
  <defs>
    <style>
      .cls-1 {
        fill: #201522;
      }
    </style>
  </defs>
  <g id="Objects">
    <g>
      <g>
        <path class="cls-1" d="M27.36,11.63c-.1.47.16.64.37.56.2-.09.24-.37-.15-.49l-.23-.3c.02-.15.09-.3.19-.44l-.87.64c-.22.09-.13.36.09.47.23.1.51-.02.6-.44ZM27.39,11.47c.09-.39.37-.48.6-.36.22.13.3.44.08.55l-.87.64c.09-.14.14-.29.15-.44.01-.12-.06-.23-.17-.27l-.06-.02c-.38-.15-.34-.46-.13-.58.22-.11.48.04.4.48Z"/>
        <path class="cls-1" d="M36.63,9.89s-.02-.02-.02-.02l-.03.03c.22-.66.59-1.29,1.12-1.79.52-.51,1.23-.87,1.99-.98.76-.12,1.55.01,2.25.31.71.3,1.32.76,1.84,1.31h-.92c.48-.57,1.07-1.08,1.78-1.43.7-.35,1.51-.53,2.33-.46.82.08,1.61.42,2.22.93.61.52,1.06,1.18,1.34,1.89l-.21-.25.07.05-.91.2c.6-1.02,1.44-1.89,2.47-2.45,1.02-.56,2.23-.78,3.36-.57l-.29.33c-.2-.73-.53-1.43-1.01-2.01-.48-.58-1.1-1.04-1.8-1.25-.7-.22-1.45-.16-2.1.12-.65.28-1.2.78-1.6,1.37-.04.06-.1.11-.17.14l-.04.02-.04.02c-.25.11-.53,0-.64-.25l-.02-.04v-.05c-.33-1-.89-1.92-1.65-2.57-.76-.65-1.7-1.03-2.65-1-.95.02-1.85.44-2.54,1.12-.68.68-1.19,1.56-1.42,2.53-.11.44-.55.72-.99.61l-.08-.02h-.04s-.05-.03-.05-.03c-.14-.05-.25-.13-.33-.24l-.02-.02c-.4-.52-.91-.95-1.49-1.18-.57-.22-1.2-.26-1.8-.08-.61.17-1.17.56-1.63,1.08-.46.51-.79,1.16-1.05,1.83l-.61-.69c1.22-.13,2.43.25,3.37.91.47.34.88.74,1.22,1.19.33.43.66.96.77,1.4ZM36.59,10.04c-.39-.51-.67-.89-1.07-1.26-.38-.36-.81-.66-1.26-.88-.89-.48-1.91-.64-2.83-.43-.28.06-.56-.11-.62-.39-.02-.08-.02-.15,0-.23l.02-.07c.19-.83.56-1.63,1.1-2.35.53-.71,1.27-1.32,2.16-1.65.88-.34,1.93-.36,2.83-.02.91.33,1.67.93,2.24,1.64l-.35-.26.05.02-1.12.58c.31-1.24.94-2.44,1.93-3.32C40.63.53,41.96-.03,43.31,0c1.35.01,2.64.62,3.53,1.53.91.9,1.49,2.08,1.72,3.28l-.67-.34h.04s-.21.14-.21.14c.57-.65,1.29-1.18,2.12-1.46.83-.28,1.74-.23,2.54.06.8.3,1.48.83,1.99,1.47.52.64.89,1.38,1.14,2.17.04.14-.03.28-.17.32-.04.01-.07.01-.11,0h-.01c-1.01-.13-2.04.19-2.85.77-.82.58-1.44,1.39-1.84,2.28l-.91.2h0s-.08,0-.1-.04l-.11-.21c-.56-1.06-1.5-1.85-2.59-1.94-1.09-.13-2.22.44-3.06,1.32l-.03.03c-.23.24-.61.25-.84.02-.02-.02-.03-.03-.05-.05-.77-.93-1.88-1.61-3.08-1.58-.59.02-1.19.21-1.72.56-.53.35-.96.86-1.32,1.43h0s-.01.03-.02.03c-.03.02-.07.03-.1.03Z"/>
        <path class="cls-1" d="M59.21,11.59c-.38-.28-.58-.21-.64-.11-.04.1.06.26.45.15l.46-.1c.29-.01.42,0,.53,0,.05,0,.1.01.05.03-.04.01-.13.03-.25.04l-.7-.51c-.09.13-.08.35.09.49ZM59.33,11.68c.16.14.16.37.06.5l-.7-.51h-.26s0,0,.05-.01l.52-.08.46-.1c.4-.08.51.1.48.23-.05.12-.25.23-.62-.03Z"/>
        <path class="cls-1" d="M31.27,14.31c.26-.38.87-.69,1.41-.81.57-.13,1.18-.1,1.75.04,1.15.29,2.15,1.01,2.9,1.92l-1.15.28c.21-1.33.81-2.63,1.87-3.55.53-.45,1.17-.8,1.88-.93.69-.15,1.44-.08,2.08.2l-.53.28c.37-1.02.94-1.94,1.65-2.74v.32c-.42-.5-.95-.9-1.54-1.15-.58-.26-1.23-.33-1.83-.23-1.22.2-2.08,1.19-2.51,2.28l-.24.28h0s-1-.22-1-.22c-.5-.85-1.18-1.58-2-2.03-.82-.46-1.74-.62-2.61-.47-.87.15-1.68.61-2.29,1.32-.61.7-1.01,1.65-1.17,2.59l-.48-.6c.9.23,1.68.69,2.34,1.26.33.28.61.61.87.95.24.33.52.72.6,1.04ZM31.25,14.46c-.37-.36-.6-.61-.92-.87-.3-.26-.63-.47-.96-.67-.66-.4-1.39-.65-2.1-.71-.28-.02-.49-.26-.48-.54v-.07c.04-1.24.4-2.43,1.15-3.46.74-1.02,1.9-1.8,3.2-2.02,1.29-.24,2.64.1,3.69.79,1.06.68,1.88,1.65,2.39,2.75l-1-.22.08-.05-.23.28c.35-.68.84-1.31,1.48-1.75.63-.45,1.4-.71,2.15-.74.76-.03,1.49.19,2.13.51.64.33,1.19.79,1.67,1.31.08.09.08.23,0,.31h0c-.65.74-1.05,1.69-1.21,2.64-.04.2-.23.34-.43.3h-.02s-.08-.02-.08-.02c-.51-.12-1.04-.08-1.51.1-.47.18-.89.49-1.26.85-.74.73-1.28,1.72-1.51,2.78v.05c-.09.34-.42.56-.77.49-.16-.04-.3-.13-.39-.26-.54-.78-1.28-1.45-2.15-1.83-.44-.2-.91-.3-1.39-.31-.51,0-.92.09-1.51.37Z"/>
        <path class="cls-1" d="M68.35,23.68s0,0,0,0v.03c-.36,1.06-.66,2.14-.81,3.25-.18,1.1-.14,2.22-.22,3.36-.16,2.26-.56,4.52-1.2,6.72-.66,2.19-1.57,4.31-2.75,6.29-1.17,1.98-2.62,3.8-4.31,5.36h-.02c-.11.12-.26.16-.4.15-2.95-.29-5.91-.63-8.87-.84h-.01c-.13-.01-.24-.13-.23-.26,0-.05.02-.1.05-.13.59-.74,1.09-1.54,1.51-2.4.02-.04.04-.07.07-.09h0c2.27-1.62,3.93-3.96,5.13-6.45,1.18-2.51,2-5.19,2.47-7.92.51-2.72.66-5.5.46-8.25-.04-.69-.14-1.36-.24-2.05l-.3-2.11c-.18-1.47-.15-2.95,0-4.41l.08-.28c-.05.09-.08.2-.07.31v-.08c.04-.34.05-.68.02-1.02-.02-.35-.1-.66-.19-.99l-.02-.07c-.1-.41.14-.82.55-.92h.07c.4-.08.81-.1,1.23-.05l-.38.07c.9-.4,1.97-.53,2.94-.22.97.29,1.78.94,2.31,1.73,1.06,1.6,1.14,3.53.73,5.21l-.25-.35c.62.11,1.19.41,1.63.82l-.14-.05s.11.02.15.06c.04.03.04.05.04.05,0,0,0-.01-.02-.02h-.01c.74.71,1.16,1.67,1.28,2.64.07.49.08.98.03,1.47-.05.49-.15.95-.32,1.44ZM68.22,23.59c.27-.87.37-1.87.2-2.79-.18-.92-.61-1.82-1.34-2.37h0s-.01-.01-.01-.01c-.02-.02-.04-.05-.04-.05,0,0,0,.01.04.04.03.03.1.05.13.05l-.14-.05c-.42-.33-.92-.52-1.43-.56-.15-.01-.27-.15-.26-.3v-.02s0-.03,0-.03c.24-1.59-.08-3.29-1.04-4.43-.47-.56-1.1-.95-1.76-1.09-.66-.14-1.35-.03-1.97.28-.11.05-.22.08-.33.07h-.05c-.27-.02-.54,0-.82.06l.6-1.01c.14.43.25.88.29,1.32.05.44.05.89.01,1.33v-.08c0,.14-.03.29-.09.41l.08-.28c-.12,1.36-.1,2.72.05,4.05l.29,2.08c.11.72.19,1.44.21,2.17.13,2.89-.1,5.8-.72,8.62-.61,2.82-1.61,5.56-3.04,8.06-1.43,2.49-3.26,4.79-5.63,6.45l.08-.09c-.46.86-.97,1.69-1.56,2.47l-.19-.4c2.98.17,5.96.21,8.96.3l-.42.15c1.49-1.62,2.73-3.44,3.85-5.33,1.09-1.91,2.06-3.89,2.85-5.96.82-2.05,1.43-4.2,1.8-6.4.2-1.09.25-2.23.48-3.34.23-1.11.5-2.2.89-3.27v.03s.01-.06.03-.08Z"/>
        <path class="cls-1" d="M53.65,32.23c-.11-2.01-.41-4.01-.95-5.95-.54-1.95-1.29-3.76-2.18-5.61-.41-.95-.76-1.93-1-2.94-.12-.5-.23-1.03-.31-1.52-.09-.46-.2-.89-.38-1.3-.35-.82-.91-1.55-1.6-2.04-.69-.47-1.53-.65-2.27-.41h-.02c-.34.12-.71-.07-.83-.41v-.04c-.24-.9-.65-1.76-1.23-2.48h.86c-.64.67-1.12,1.52-1.41,2.43v.04c-.09.23-.33.36-.57.29h-.04c-.66-.29-1.44-.23-2.13.09-.69.32-1.3.88-1.73,1.55-.43.67-.74,1.45-.84,2.25-.12.86-.3,1.69-.52,2.52-.39,1.68-1.19,3.21-1.68,4.79-.49,1.6-.85,3.24-1.07,4.89-.42,3.31-.41,6.67.13,9.92.54,3.24,1.64,6.43,3.61,8.95l-.68-.32c2.17,0,4.33-.01,6.5.02,2.17.02,4.33.05,6.49.13l-.56.26c1.66-2,2.82-4.47,3.53-7.07.73-2.6.99-5.34.88-8.05ZM53.8,32.22c.08,1.36.07,2.73,0,4.1-.08,1.37-.2,2.74-.45,4.09-.51,2.7-1.36,5.43-3.04,7.76-.12.16-.3.25-.48.26h-.08c-2.15.08-4.3.11-6.45.13-2.15.03-4.29.03-6.44.02h-.04c-.26,0-.49-.13-.64-.32-2.17-2.88-3.21-6.34-3.7-9.75-.46-3.44-.29-6.92.39-10.28.34-1.68.79-3.33,1.39-4.93.55-1.63,1.37-3.11,1.78-4.73.22-.8.37-1.63.48-2.45.11-.88.38-1.73.83-2.5.46-.76,1.07-1.46,1.89-1.91.81-.45,1.84-.62,2.78-.31l-.61.32c.25-1.06.73-2.08,1.45-2.95.2-.24.55-.27.78-.07l.05.04.03.03c.77.82,1.33,1.82,1.64,2.89l-.86-.45c1.18-.46,2.53-.16,3.49.51.98.66,1.66,1.64,2.07,2.68.21.52.34,1.08.4,1.62.05.51.12.98.2,1.46.17.96.39,1.92.7,2.86.7,1.86,1.33,3.86,1.69,5.85.38,2,.64,4.01.73,6.03Z"/>
        <path class="cls-1" d="M50.02,10.04s-.07-.01-.1-.03h-.02s-.02-.04-.02-.04c-.39-.55-.83-1.04-1.36-1.37-.52-.34-1.11-.51-1.68-.52-1.16-.01-2.24.62-3.02,1.53v-.92c.77.85,1.28,1.89,1.5,2.98l-.79-.41c.71-.2,1.47-.16,2.12.08.66.23,1.21.64,1.66,1.11.9.94,1.47,2.11,1.73,3.35l-.45-.11c.65-.89,1.49-1.7,2.59-2.15.54-.23,1.16-.35,1.78-.32.62.04,1.27.24,1.8.63l-.96.16c.93-1.51,2.41-2.78,4.31-3.19l-.67.85c-.1-.89-.44-1.84-.98-2.57-.55-.73-1.32-1.28-2.23-1.49-.89-.22-1.9-.1-2.8.34-.45.22-.88.52-1.28.85-.42.35-.71.72-1.13,1.23ZM49.99,9.89c.08-.46.42-1,.74-1.46.33-.47.76-.88,1.24-1.23.96-.71,2.22-1.1,3.5-.93,1.26.16,2.47.85,3.26,1.85.82,1,1.24,2.19,1.34,3.48.04.42-.27.79-.67.85-1.34.19-2.62,1.12-3.48,2.31l-.04.06c-.2.28-.59.34-.87.14l-.05-.04c-.61-.54-1.56-.74-2.49-.51-.93.23-1.82.81-2.46,1.61h0c-.09.12-.25.14-.35.05-.05-.04-.08-.1-.09-.16-.18-1.15-.75-2.27-1.65-2.98-.9-.71-2.08-.93-2.96-.5-.27.13-.59.02-.73-.25l-.02-.05-.04-.12c-.32-.88-.77-1.7-1.36-2.39l-.02-.03c-.22-.26-.21-.65.02-.89.52-.55,1.13-1.05,1.85-1.35.72-.31,1.52-.45,2.3-.32.78.11,1.5.5,2.03,1.02.53.53.89,1.18,1.07,1.85l-.03-.04s-.02,0-.02.02Z"/>
        <path class="cls-1" d="M55.37,14.46c-.56-.31-.98-.43-1.5-.46-.5-.02-.99.08-1.45.27-.91.39-1.69,1.05-2.25,1.86l.09-.37c.22,1.28.53,2.43.93,3.6.2.58.43,1.14.69,1.7.26.59.5,1.2.72,1.8.89,2.43,1.42,4.99,1.54,7.57.16,2.57-.03,5.15-.42,7.67-.39,2.52-1.04,5.01-2.11,7.36l-.5-.44c2.36-1.79,4.01-4.35,5.25-7,1.24-2.67,2.06-5.55,2.49-8.47.45-2.92.58-5.89.27-8.83l-.25-2.26c-.07-.78-.1-1.56-.08-2.34,0-.77.11-1.57.22-2.31.09-.69.05-1.41-.12-2.08l.38.27s.05,0,.08,0h-.03c-.74.11-1.48.38-2.14.8-.33.21-.65.45-.94.73-.31.28-.53.54-.87.92ZM55.34,14.31c.1-.3.4-.69.65-1,.27-.32.57-.62.89-.89.65-.54,1.43-.98,2.3-1.17h-.03s.07,0,.11,0c.17,0,.31.1.37.25v.03c.29.77.41,1.58.38,2.4-.05.77-.04,1.48-.02,2.22.02.73.09,1.46.2,2.19l.38,2.24c.5,3.07.41,6.21-.09,9.27-.54,3.05-1.47,6.05-2.91,8.8-1.43,2.75-3.46,5.25-6.07,6.96h-.02c-.16.11-.37.07-.47-.09-.07-.11-.07-.24-.01-.35,1.21-2.18,1.92-4.64,2.22-7.12.31-2.49.15-5.02-.19-7.49-.39-2.46-.93-4.88-1.71-7.23-.2-.59-.41-1.17-.65-1.74-.24-.59-.47-1.22-.65-1.85-.38-1.24-.59-2.58-.7-3.81v-.07c-.02-.11.02-.22.09-.3.73-.87,1.68-1.61,2.8-1.89.55-.15,1.14-.19,1.7-.08.53.09,1.14.37,1.43.72Z"/>
        <path class="cls-1" d="M71.84,20.17l-.22.19s-.12.04-.16,0h0s-.05-.07-.05-.07c-.52-.68-1.18-1.06-1.88-1.25-.71-.2-1.45-.17-2.22-.12h-.14c-.16.02-.3-.04-.4-.15-.32-.33-.68-.63-1.16-.8l-.15-.05c-.17-.06-.26-.24-.2-.41v-.02c.47-1.1.39-2.42-.2-3.44-.08-.14-.04-.33.1-.42l.09-.06c.86-.56,1.94-.93,3.06-.82,1.11.08,2.24.56,3.03,1.41.79.84,1.21,1.95,1.27,3.02.07,1.09-.2,2.1-.77,3ZM71.73,20.06c0-.93-.07-1.88-.34-2.69-.25-.82-.69-1.53-1.24-2.07-.54-.55-1.23-.97-2.02-1.14-.79-.15-1.67-.16-2.55.08l.19-.48c.29,1.3.32,2.55.29,3.87l-.34-.48c.65-.02,1.36.18,1.91.59l-.54-.15c.94-.25,1.98-.15,2.89.29.91.43,1.64,1.31,1.73,2.27l-.21-.08.24-.02Z"/>
        <path class="cls-1" d="M21.02,17.6c-.24.09-.3.08-.45.15-.13.05-.25.11-.37.17-.24.13-.46.29-.65.48h-.02c-.91.89-1.21,2.3-1.1,3.54.05.65.22,1.22.48,1.86.25.66.46,1.33.64,2.01.38,1.34.48,2.83.62,4.12.16,1.33.4,2.65.73,3.94.65,2.6,1.57,5.13,2.71,7.57,1.18,2.41,2.62,4.74,4.5,6.7l-.21-.08c1.49-.08,2.98-.15,4.47-.27,1.49-.12,2.98-.2,4.46-.35l-.24.51c-.63-.76-1.17-1.58-1.64-2.45l.13.15c-2.64-1.72-4.61-4.27-6.04-7.02-1.43-2.76-2.35-5.76-2.89-8.81-.52-3.05-.63-6.2-.17-9.27.1-.78.23-1.55.35-2.24.11-.72.17-1.45.19-2.17.02-.74,0-1.44-.06-2.21-.05-.84.06-1.68.33-2.48l.46.76c-.29-.06-.59-.09-.88-.08h-.05s0,0,0,0h-.05c-.07,0-.13-.02-.19-.05-.65-.34-1.4-.47-2.11-.32-.71.15-1.37.58-1.86,1.18-.49.6-.83,1.34-1.01,2.13-.18.82-.18,1.57-.1,2.51ZM20.89,17.51c-.25-.7-.32-1.66-.22-2.5.1-.86.37-1.73.88-2.49.51-.75,1.28-1.37,2.2-1.64.92-.28,1.94-.18,2.81.19l-.23-.05h0s-.05,0-.05,0c.39-.05.79-.04,1.17.02.32.05.54.35.49.67v.07s-.02.03-.02.03c-.18.65-.24,1.34-.16,2.01.09.74.16,1.55.18,2.32.02.78-.02,1.57-.09,2.35l-.28,2.25c-.35,2.92-.24,5.9.19,8.82.43,2.92,1.25,5.8,2.51,8.46,1.25,2.65,2.95,5.16,5.28,6.95l.03.02s.08.08.11.13c.4.85.87,1.67,1.42,2.43h0c.1.15.07.35-.07.45-.05.04-.12.06-.18.06-1.48.04-2.97.14-4.45.21-1.49.07-2.97.18-4.45.29-.08,0-.16-.02-.21-.08-3.96-3.85-6.9-8.86-8.19-14.3-.32-1.36-.55-2.74-.68-4.14l-.14-2.04c-.06-.66-.16-1.32-.28-1.97-.12-.65-.28-1.3-.47-1.94-.21-.64-.39-1.41-.38-2.13-.02-1.45.5-2.96,1.7-3.89h-.02c.24-.17.5-.32.79-.42.14-.05.28-.09.43-.12.12-.02.34-.08.38-.03Z"/>
        <path class="cls-1" d="M27.19,13.95c.15,1.41.18,2.84.08,4.26-.1,1.44-.27,2.81-.28,4.22.01,2.8.33,5.57.84,8.29.52,2.72,1.23,5.43,2.42,7.96,1.16,2.52,2.89,4.86,5.2,6.42l-.38.33c-1.2-2.27-2.01-4.75-2.47-7.29-.45-2.54-.54-5.15-.32-7.72.23-2.58.7-5.15,1.58-7.6.22-.61.44-1.22.71-1.82.26-.57.48-1.12.67-1.7.39-1.17.65-2.3.87-3.59l.13.56c-.53-.77-1.27-1.42-2.12-1.78-.85-.36-1.86-.37-2.64.17l-.03.02c-.15.1-.36.06-.47-.09v-.02c-.4-.67-.91-1.29-1.52-1.79-.6-.51-1.34-.87-2.11-1.04h0s0,0,0,0h0s.11-.08.11-.08c-.25.73-.33,1.51-.27,2.29ZM27.03,13.97c-.04-.39-.05-.8-.01-1.19.03-.4.12-.79.22-1.18h0c.01-.05.06-.08.11-.08h.04s0,0,0,0c.83.12,1.61.47,2.32.92.71.46,1.33,1.06,1.85,1.74l-.51-.09c.91-.81,2.28-.99,3.43-.66,1.17.31,2.17,1.05,2.92,1.97.11.13.16.3.14.46v.1c-.12,1.22-.37,2.58-.77,3.82-.19.63-.43,1.26-.67,1.85-.23.57-.46,1.14-.66,1.72-.8,2.32-1.39,4.74-1.68,7.2-.28,2.46-.33,4.95-.09,7.43.24,2.47.79,4.94,1.87,7.2h0c.06.14,0,.3-.12.36-.09.04-.19.03-.26-.02-2.34-1.71-4.11-4.03-5.58-6.5-1.43-2.49-2.53-5.21-3.1-8.04-.6-2.83-.68-5.76-.31-8.61.17-1.42.51-2.84.77-4.2.22-1.39.24-2.81.1-4.21Z"/>
        <path class="cls-1" d="M16.07,18.8c.48-.34,1.01-.61,1.59-.83.58-.22,1.22-.36,1.87-.33l-.5.13c.45-.51,1.14-.85,1.84-.9l-.58.82c-.2-1.37.25-2.69.7-3.87l.12.3c-.83-.41-1.82-.43-2.64-.16-.82.27-1.53.69-2.04,1.31-.51.6-.83,1.34-1.02,2.14-.17.8-.31,1.67-.26,2.61l-.19-.2.22.16-.38.15c.34-.55.79-.98,1.27-1.31ZM16.16,18.93c-.46.33-.77.85-.85,1.39-.02.11-.12.19-.23.18h0s-.13-.03-.13-.03l-.23-.04c-.05,0-.09-.04-.12-.08l-.07-.12c-.51-.89-.86-1.98-.69-3.08.12-1.1.65-2.18,1.49-2.95.82-.77,1.93-1.26,3.01-1.24,1.09,0,2.06.35,2.97.75.11.05.17.18.12.29h0c-.21.56-.25,1.17-.18,1.76.07.59.23,1.14.38,1.68.09.34-.11.7-.45.79h-.03s-.09.03-.09.03c-.43.09-.81.25-1.23.48l-.2.11c-.1.05-.21.06-.3.03-.49-.17-1.01-.33-1.57-.36-.55-.03-1.13.11-1.59.44Z"/>
        <path class="cls-1" d="M82.75,42.03c.36.39.6,1.15.58,1.78,0,.67-.19,1.32-.49,1.91-.62,1.19-1.68,2.1-2.92,2.64l-.16.03h-.05s.16-.02.16-.02c-1.41.6-2.74,1.37-3.96,2.27-.59.44-1.26.96-1.91,1.4-.66.45-1.34.88-2.03,1.27-.32.18-.72.07-.9-.25-.11-.19-.11-.42-.02-.6v-.02s.18-.37.18-.37l-.06.28c.03-.18-.28-.53-.72-.8-.43-.27-.95-.48-1.48-.67-1.06-.38-2.2-.66-3.34-.9-2.29-.48-4.62-.88-6.96-1.18h-.03c-.26-.04-.44-.28-.41-.54.01-.11.07-.21.14-.28,1.6-1.51,3.02-3.25,4.18-5.15,1.17-1.9,2.1-3.95,2.79-6.07.71-2.11,1.16-4.31,1.35-6.52.11-1.09.08-2.24.25-3.39.16-1.14.41-2.28.78-3.37l-.03.2c0-.15.08-.35.19-.46l-.14.23c.26-.83.32-1.72.16-2.55-.15-.83-.55-1.6-1.12-2.08l-.02-.02-.02-.02c-.06-.06-.11-.15-.11-.14,0,0,.02.05.13.15.11.11.35.18.45.17l-.12-1.41c.95-.18,1.98-.15,2.95.22.97.36,1.86,1.14,2.25,2.18l-1.07-.42c.96-.47,1.97-.73,3.03-.78,1.05-.04,2.17.17,3.14.75.96.57,1.76,1.55,2.02,2.7.29,1.14.05,2.3-.4,3.27l.07-.34v.04s-1-.79-1-.79c1.25-.28,2.59-.23,3.83.22,1.23.45,2.33,1.39,2.9,2.59.59,1.2.64,2.61.25,3.83-.38,1.22-1.14,2.29-2.1,3.07l-.11-.92c.07.04.13.08.18.14l-.29-.15c1,.23,1.98.75,2.65,1.58.68.82.94,1.93.81,2.93-.13,1.01-.6,1.93-1.23,2.66-.6.73-1.45,1.38-2.22,1.69ZM82.6,41.99c.43-.32.79-.58,1.13-.9.34-.31.63-.66.89-1.03.52-.74.84-1.6.88-2.45.05-.85-.23-1.69-.79-2.28-.55-.6-1.34-.96-2.16-1.09l-.29-.15s.06.06.1.07l-.11-.92c.76-.71,1.35-1.6,1.6-2.58.26-.97.17-1.99-.3-2.83-.91-1.72-3.16-2.37-5.09-1.88-.43.11-.86-.15-.97-.57-.02-.06-.02-.13-.03-.19v-.03s0-.04,0-.04c0-.11.02-.22.06-.32v-.02c.33-.72.44-1.51.27-2.2-.15-.69-.63-1.28-1.26-1.67-1.28-.78-3.15-.69-4.62,0l-.04.02c-.38.18-.82.01-1-.36l-.03-.07c-.21-.6-.71-1.09-1.35-1.35-.64-.26-1.41-.32-2.16-.19l-.12-1.41c.11-.01.35.06.47.18.12.11.13.15.14.16.01.02-.04-.06-.09-.11l-.04-.04c.89.79,1.34,1.88,1.5,2.94.16,1.07.03,2.15-.33,3.15l-.14.23c.1-.08.17-.25.15-.38l-.03.2c-.38,1.02-.7,2.07-.92,3.14-.23,1.06-.28,2.17-.45,3.31-.33,2.26-.9,4.46-1.64,6.6-.76,2.13-1.7,4.2-2.81,6.18-1.12,1.97-2.4,3.87-3.97,5.55l-.3-.82c2.38.16,4.77.35,7.14.8,1.19.23,2.37.51,3.54.93.58.22,1.17.46,1.74.83.28.18.57.41.83.7.26.29.5.74.49,1.24v.03c0,.09-.02.18-.06.25l-.2.4-.91-.88c.67-.37,1.34-.75,1.99-1.16.66-.41,1.25-.84,1.93-1.31,1.35-.89,2.81-1.59,4.31-2.13h.03s.13-.03.13-.03h.05s-.16.02-.16.02c1.09-.4,2.08-1.13,2.74-2.11.32-.49.55-1.05.6-1.64.06-.62-.02-1.14-.34-1.8Z"/>
        <path class="cls-1" d="M27.85,48.29c-.5-.32-1-.87-1.46-1.36-.47-.51-.92-1.03-1.35-1.57-.87-1.08-1.62-2.25-2.31-3.45-1.38-2.41-2.44-5.01-3.14-7.71-.34-1.35-.6-2.73-.75-4.12-.09-.7-.1-1.4-.18-2.04-.07-.66-.19-1.3-.31-1.95-.13-.65-.3-1.29-.5-1.92-.22-.63-.4-1.45-.4-2.18,0-1.49.42-3.04,1.73-4.1l.17.8c-.78-.17-1.61-.16-2.35.1-.74.25-1.38.8-1.68,1.53h0c-.06.15-.22.22-.36.16h-.02c-.8-.41-1.69-.65-2.59-.68-.89-.03-1.81.15-2.56.62-.75.46-1.32,1.19-1.5,2.03-.2.84-.03,1.75.36,2.53.03.05.04.11.03.16v.03s0,.02,0,.02c-.02.18-.18.31-.36.29h-.03s0,0,0,0c-1.06-.22-2.18-.15-3.15.24-.98.39-1.79,1.11-2.21,2.02-.42.91-.45,1.96-.15,2.92.3.96.92,1.82,1.7,2.47v1.04s0,0,0,0l-.36.19c-.79.18-1.52.55-1.99,1.13-.48.56-.67,1.32-.6,2.07.08.75.42,1.51.93,2.14.5.64,1.16,1.17,1.89,1.56h0c.39.22.54.72.32,1.11l-.04.06c-.57.85-.38,2.09.33,3.03.35.48.8.9,1.3,1.24.5.34,1.1.54,1.8.85,1.34.6,2.62,1.36,3.78,2.26,1.1.86,2.23,1.63,3.43,2.33l-.88.84-.18-.4-.02-.04c-.03-.07-.05-.15-.04-.23.03-.48.24-.92.5-1.19.26-.3.55-.49.83-.68.57-.34,1.16-.56,1.75-.75,1.17-.38,2.36-.61,3.54-.82,1.18-.21,2.37-.34,3.56-.44l1.78-.14c.61-.06,1.08-.02,1.72-.04ZM27.99,48.35c-.54.1-1.25.26-1.82.34l-1.75.31c-1.16.22-2.32.45-3.47.73-1.14.28-2.28.59-3.34,1.02-.53.21-1.03.47-1.48.74-.44.29-.73.66-.71.87l-.06-.26.18.36c.16.31.03.69-.28.85-.19.1-.4.09-.58,0h-.02c-1.27-.68-2.52-1.45-3.68-2.29-1.11-.78-2.31-1.43-3.56-1.97-.59-.26-1.35-.49-2.04-.93-.67-.43-1.3-.97-1.77-1.64-.48-.66-.84-1.46-.95-2.33-.11-.87.07-1.81.58-2.58l.3,1.17c-.91-.52-1.72-1.2-2.35-2.05-.64-.84-1.09-1.86-1.18-2.98-.09-1.1.24-2.29,1-3.15.75-.86,1.79-1.35,2.83-1.54l-.36.19.07-.06v1.04c-.93-.84-1.66-1.94-1.99-3.17-.34-1.23-.23-2.61.4-3.74.61-1.14,1.69-1.96,2.86-2.33,1.17-.39,2.43-.39,3.59-.09l-.4.28v-.07s.04.19.04.19c-.38-.91-.56-1.95-.31-2.93.23-.99.93-1.83,1.78-2.33.86-.5,1.85-.7,2.82-.69.97.03,1.93.25,2.82.65l-.38.15c.32-.9,1.07-1.61,1.94-1.98.87-.37,1.84-.45,2.76-.32.23.03.39.25.36.48-.01.09-.05.17-.11.23l-.08.09c-.14.14-.38.42-.52.66-.15.26-.27.54-.37.83-.17.59-.24,1.21-.18,1.83.05.64.21,1.17.46,1.82.24.67.44,1.34.61,2.03.35,1.35.44,2.86.55,4.14.13,1.33.35,2.65.66,3.96.6,2.61,1.5,5.17,2.67,7.6.59,1.21,1.27,2.38,2,3.53.36.57.76,1.13,1.17,1.67.41.56.84,1.02,1.3,1.67Z"/>
        <path class="cls-1" d="M71.89,52.37c-1.39,3.21-3.11,6.21-5.08,9.09-1.95,2.87-4.11,5.62-6.49,8.16-2.4,2.52-5,4.88-7.79,6.97-2.8,2.1-5.86,3.81-9,5.32h-.02c-.14.08-.3.07-.43,0-3.07-1.66-6-3.54-8.75-5.66-2.73-2.14-5.34-4.42-7.78-6.89-2.4-2.5-4.69-5.11-6.77-7.89-2.1-2.78-3.99-5.68-5.59-8.84-.04-.09-.06-.19-.06-.28.02-.51.24-.98.52-1.27.27-.33.57-.52.86-.72.59-.38,1.2-.61,1.81-.85,1.22-.44,2.45-.73,3.68-.98,2.46-.49,4.94-.83,7.41-1.05l7.44-.5c1.24-.12,2.48-.02,3.72-.04l3.72.03,3.72.05c1.24.05,2.48-.02,3.72.12l7.42.61c2.47.26,4.93.64,7.36,1.17,1.21.28,2.42.61,3.59,1.06.58.23,1.16.49,1.7.84.5.36,1.09.82,1.07,1.56ZM71.74,52.33c-.04-.56-.58-.98-1.09-1.26-.53-.29-1.1-.5-1.68-.68-1.16-.36-2.37-.59-3.58-.79-2.42-.39-4.87-.65-7.33-.77l-7.38-.34c-2.46-.09-4.92.06-7.38.05-2.46.04-4.92-.02-7.38.1l-7.36.45c-2.45.17-4.89.47-7.28.9-1.19.22-2.38.48-3.49.86-.55.2-1.1.4-1.56.68-.47.26-.78.62-.79.82l-.06-.28c1.45,3.05,3.22,6.02,5.13,8.86,1.94,2.82,4.05,5.56,6.42,8.05,2.37,2.5,4.94,4.8,7.71,6.83,2.77,2.04,5.8,3.69,8.87,5.18h-.45c3-1.64,5.89-3.46,8.62-5.52,2.7-2.08,5.29-4.31,7.69-6.75,2.39-2.45,4.63-5.05,6.7-7.78,2.05-2.74,3.99-5.62,5.65-8.61Z"/>
      </g>
      <path class="cls-1" d="M58.77,48.34c-.62,3.01-1.66,5.91-2.8,8.75-1.15,2.83-2.37,5.64-3.82,8.33-1.44,2.69-3,5.32-4.41,8.03-1.42,2.7-2.71,5.46-4.02,8.22-.11.24-.4.34-.63.22-.2-.09-.3-.31-.26-.52v-.05c.56-2.81,1.16-5.61,1.77-8.4.59-2.8,1.17-5.6,1.8-8.38.61-2.79,1.29-5.57,1.86-8.36.58-2.79,1.21-5.58,1.45-8.42h0s.04-.08.08-.08c.04,0,.07.03.07.07.26,2.89-.09,5.78-.42,8.63-.4,2.85-.86,5.69-1.43,8.5-.56,2.82-1.25,5.6-1.95,8.38-.7,2.78-1.44,5.55-2.28,8.3l-.88-.34c1.56-2.61,3.08-5.26,4.43-7.99,1.36-2.72,2.51-5.56,3.71-8.35,1.21-2.79,2.54-5.52,3.83-8.27,1.28-2.75,2.6-5.49,3.76-8.31.02-.04.06-.06.1-.04.04.01.05.05.05.09Z"/>
      <path class="cls-1" d="M27.72,48.24c1.17,2.82,2.48,5.55,3.76,8.31,1.29,2.75,2.62,5.48,3.83,8.27,1.21,2.79,2.35,5.63,3.71,8.35,1.34,2.73,2.87,5.38,4.43,7.99l-.88.34c-.85-2.75-1.58-5.51-2.28-8.3-.7-2.78-1.39-5.57-1.95-8.38-.57-2.81-1.03-5.65-1.43-8.5-.33-2.85-.69-5.74-.42-8.63,0-.04.04-.07.08-.07.04,0,.07.03.07.07h0c.24,2.85.87,5.64,1.45,8.43.57,2.8,1.25,5.57,1.86,8.36.63,2.79,1.2,5.59,1.8,8.38.6,2.8,1.21,5.59,1.76,8.4v.05c.06.26-.11.51-.36.56-.22.04-.43-.07-.52-.26-1.31-2.76-2.6-5.53-4.02-8.22-1.41-2.71-2.97-5.33-4.41-8.03-1.44-2.69-2.67-5.5-3.82-8.33-1.14-2.84-2.17-5.74-2.8-8.75,0-.04.02-.08.06-.09.04,0,.07.01.09.05Z"/>
    </g>
  </g>
</svg>