<?xml version="1.0" encoding="UTF-8"?>
<svg id="Layer_2" data-name="Layer 2" xmlns="http://www.w3.org/2000/svg" viewBox="0 0 85.88 67.22">
  <defs>
    <style>
      .cls-1 {
        fill: #201522;
      }
    </style>
  </defs>
  <g id="Objects">
    <g>
      <path class="cls-1" d="M30.64,8.64s0-.04.01-.05c0,0,0-.01,0-.02v.07Z"/>
      <path class="cls-1" d="M85.16,29.28c-.61-1.11-1.59-2.02-2.76-2.54-1.1-.5-2.37-.66-3.58-.43-.19-.89-.62-1.74-1.24-2.42-.66-.72-1.52-1.23-2.47-1.49.06-.14.11-.29.18-.43-.06.14-.12.28-.18.43-.02,0-.03-.01-.05-.02l-.27-.07-.11.27c-.49,1.16-.84,2.38-1.05,3.63-.18,1.28-.25,2.44-.52,3.64-.49,2.37-1.33,4.65-2.45,6.78-2.09,4.02-5.15,7.55-8.92,9.99-.56-.75-1.31-1.2-2.04-1.6-.82-.43-1.67-.75-2.53-1.03-.37-.12-.73-.22-1.1-.33,1.12-.68,2.19-1.46,3.16-2.37,1.15-1.13,2.21-2.37,3.03-3.78.85-1.39,1.5-2.89,2.01-4.44.48-1.55.8-3.15,1.01-4.76.36-3.22.2-6.46-.35-9.62-.53-3.04-1.41-6.01-2.68-8.8l.08-.09c.83-.84,1.96-1.41,3.15-1.58,1.19-.17,2.44.05,3.51.65,1.07.59,1.94,1.54,2.43,2.68.49,1.13.61,2.43.31,3.63v.05s.04,0,.04,0c1.42.27,2.69,1.23,3.35,2.52.68,1.29.74,2.87.16,4.21.59-1.33.54-2.93-.13-4.23-.65-1.3-1.91-2.26-3.33-2.58.32-1.21.23-2.52-.24-3.69-.47-1.18-1.35-2.2-2.44-2.87-1.1-.67-2.42-.98-3.72-.84-1.2.12-2.35.62-3.29,1.4-.84-.88-1.99-1.48-3.22-1.61-1.2-.14-2.43.17-3.46.83-.11-.6-.31-1.16-.62-1.68-.38-.65-.92-1.22-1.55-1.65-1.19-.81-2.73-1.08-4.14-.72-.36-1.17-1.08-2.23-2.05-2.99C46.07.5,44.74.03,43.4,0c-1.35-.03-2.71.39-3.81,1.2-.95.68-1.68,1.65-2.13,2.74-1.4-.34-2.95-.12-4.2.66-1.39.85-2.37,2.35-2.6,3.99-.01.06-.02.13-.02.19v-.07c-.02.14-.04.28-.07.43-.92-.41-1.94-.58-2.94-.47-1.13.12-2.19.6-3.05,1.34-.93-.72-2.04-1.19-3.2-1.33-1.4-.18-2.87.12-4.08.83-1.22.71-2.19,1.83-2.72,3.13-.46,1.1-.58,2.33-.39,3.5-1.55.54-2.84,1.78-3.38,3.31-.32.85-.4,1.78-.27,2.68,0,0,0,0,0,0-1.44.61-2.61,1.85-3.12,3.34-1.16-.16-2.36-.02-3.44.44-1.31.55-2.42,1.56-3.12,2.79-.7,1.23-.99,2.69-.8,4.09.15,1.17.64,2.27,1.37,3.2-.94,1.09-1.44,2.53-1.36,3.96.08,1.66.94,3.26,2.28,4.24l.04.03c.98.69,1.98,1.6,2.8,2.55.43.49.78.98,1.19,1.55.4.55.83,1.09,1.28,1.61,1.79,2.07,3.9,3.83,6.21,5.26,4.36,2.68,9.5,4.15,14.56,3.84.43.64.89,1.26,1.39,1.85,1.64,1.93,3.65,3.59,5.97,4.69,2.3,1.11,4.86,1.68,7.4,1.67,2.55-.01,5.08-.65,7.33-1.78,2.27-1.13,4.23-2.79,5.82-4.71.27-.33.52-.67.77-1.02,5.52.28,10.92-1.5,15.41-4.46,2.25-1.49,4.29-3.3,5.98-5.4.88-1.02,1.54-2.2,2.39-3.22.85-1.02,1.82-1.95,2.91-2.72h0c.87-.64,1.52-1.58,1.81-2.61.3-1.03.25-2.16-.14-3.16.39,1,.42,2.13.12,3.15-.3,1.03-.95,1.95-1.82,2.57h0c-1.1.77-2.11,1.66-2.99,2.67-.89,1.02-1.57,2.17-2.48,3.15-1.76,1.99-3.84,3.68-6.11,5.04-4.18,2.51-9.05,3.91-13.85,3.72.93-1.43,1.71-2.95,2.32-4.54.37-.98.69-1.98.94-3,.24-.9.4-1.81.56-2.72,4.24-2.62,7.56-6.54,9.68-10.97,1.08-2.28,1.84-4.7,2.24-7.19.22-1.23.25-2.53.36-3.7.13-1.09.39-2.17.76-3.22.75.21,1.45.6,2,1.15.63.62,1.08,1.44,1.28,2.32l.05.21.2-.05c1.17-.31,2.45-.24,3.58.23,1.13.47,2.11,1.32,2.73,2.39.62,1.07.9,2.35.73,3.59-.16,1.24-.73,2.42-1.6,3.31h0s0,.02,0,.02c.57.51,1.01,1.15,1.29,1.87-.27-.71-.71-1.36-1.27-1.88.88-.89,1.47-2.07,1.64-3.31.17-1.25-.06-2.55-.67-3.66ZM58.86,8.32c1.13.07,2.25.6,3.04,1.46l.23.24.09-.09c.72,2.96,1.21,5.94,1.53,8.92.29,3.1.38,6.22,0,9.27-.34,3.06-1.15,6.05-2.54,8.78-1.29,2.52-3.11,4.77-5.3,6.69-.85-.23-1.71-.43-2.58-.6,2-1.89,3.56-4.21,4.67-6.71,1.3-2.93,1.99-6.11,2.14-9.29.17-3.18-.25-6.39-1.19-9.43-.46-1.51-1.17-3.01-1.84-4.35-.58-1.28-.97-2.65-1.18-4.05.84-.6,1.89-.92,2.93-.85ZM53.06,5.41c.59.37,1.11.88,1.49,1.47.33.5.53,1.08.64,1.66-.02.02-.05.02-.07.04l-.2.15.02.27c.14,1.59.51,3.17,1.11,4.66.66,1.47,1.21,2.8,1.61,4.28.84,2.91,1.12,5.96.95,8.97-.19,3.01-.85,5.99-2.03,8.76-1.2,2.74-2.92,5.29-5.19,7.22l-.15.13c-1.7-.24-3.42-.44-5.13-.57,1.15-.84,1.96-2.13,2.58-3.41.7-1.54,1.15-3.17,1.48-4.8.68-3.28.86-6.61.9-9.92,0-3.31-.17-6.62-.53-9.9-.33-3.17-.83-6.33-1.53-9.44h.03c1.3-.47,2.81-.31,4,.44ZM38.35,4.8c.29-1.09.95-2.09,1.85-2.79.9-.71,2.04-1.11,3.2-1.13,1.16-.02,2.33.35,3.27,1.04.95.69,1.67,1.7,2.02,2.84l.09.3.2-.07.38,9.51c.11,3.28.21,6.55.18,9.81,0,1.63-.04,3.26-.13,4.88-.06,1.63-.21,3.24-.42,4.85-.22,1.6-.5,3.2-1,4.73-.42,1.35-1.06,2.65-2.08,3.67-.88-.06-1.76-.11-2.64-.13-.85-.01-1.69-.01-2.54,0-.95-1-1.56-2.25-1.96-3.54-.5-1.53-.78-3.13-1-4.73-.2-1.6-.35-3.22-.42-4.85-.09-1.62-.13-3.25-.13-4.88-.04-3.26.07-6.53.18-9.81l.37-9.26.43.14.15-.57ZM33.95,5.71c1.05-.7,2.43-.91,3.66-.52l.06.02c-.67,3.04-1.16,6.11-1.48,9.2-.36,3.28-.53,6.59-.53,9.9.04,3.31.23,6.64.9,9.92.33,1.64.79,3.26,1.48,4.8.59,1.21,1.34,2.44,2.4,3.27-1.91.04-3.83.16-5.73.39-2.14-1.95-3.75-4.44-4.85-7.11-1.17-2.8-1.74-5.81-1.88-8.83-.13-3.02.26-6.07,1.13-8.95.22-.72.47-1.43.76-2.13.28-.7.63-1.34.96-2.12.23-.52.4-1.05.56-1.58.17-.51.32-1.03.42-1.56l.1-.48-.04-.03c.06-.35.11-.71.15-1.07v-.03s0-.02,0-.02c.13-1.24.85-2.41,1.91-3.1ZM27.8,10.18c.84-.1,1.7.08,2.45.47-.04.16-.07.32-.11.47-.05.19-.11.37-.17.56-.03.09-.06.19-.09.28-.12.34-.25.68-.4,1.02-.28.65-.68,1.38-.98,2.12-.32.74-.59,1.49-.83,2.26-.97,3.06-1.33,6.29-1.17,9.48.15,3.19.88,6.36,2.16,9.29,1.13,2.52,2.71,4.86,4.73,6.75-1.33.21-2.66.48-3.98.85-1.89-1.96-3.46-4.14-4.53-6.56-1.18-2.66-1.84-5.52-2.1-8.43-.27-2.91-.15-5.86.17-8.79.32-2.69.81-5.36,1.46-8.03l.22.22.54-.61c.67-.74,1.62-1.25,2.62-1.36ZM11.8,19.82c.54-1.36,1.82-2.37,3.23-2.62l.64-.11-.15-.67c-.24-1.09-.14-2.25.31-3.25.45-1.01,1.22-1.86,2.18-2.39.96-.54,2.07-.76,3.16-.61,1.08.14,2.11.64,2.88,1.41l.24.24c-1.18,2.52-2,5.21-2.54,7.96-.58,2.98-.78,6.06-.53,9.12.16,1.53.42,3.05.82,4.54.43,1.48,1,2.93,1.73,4.28,1.3,2.43,3.18,4.53,5.38,6.09-.12.04-.24.07-.37.1-.79.25-1.57.54-2.34.92-.76.39-1.55.85-2.15,1.75l-.14.2.03.27c.05.43.12.85.19,1.27-1.75-1.23-3.35-2.67-4.73-4.3-1.67-1.96-3.03-4.17-4.07-6.51-1.02-2.35-1.77-4.81-2.08-7.34-.08-.64-.12-1.23-.17-1.93-.06-.68-.16-1.36-.3-2.03-.15-.67-.33-1.33-.56-1.97-.11-.32-.24-.64-.37-.96-.14-.3-.19-.54-.3-.82l-.28-.73-.07.02c-.04-.66.06-1.34.32-1.94ZM21.44,57.85c-2.53-.79-4.91-1.98-7.11-3.42-2.19-1.45-4.17-3.22-5.81-5.25-.41-.51-.8-1.03-1.16-1.57-.35-.53-.76-1.15-1.2-1.67-.88-1.1-1.87-2.02-3.06-2.88l.04.03c-1-.75-1.64-1.97-1.69-3.22-.06-1.25.48-2.51,1.42-3.33l.56-.49-.53-.55c-.76-.79-1.26-1.83-1.38-2.92-.13-1.09.1-2.21.65-3.15,1.08-1.91,3.47-2.94,5.6-2.39l.77.2.15-.78c.22-1.17.99-2.22,2.03-2.81.03.07.05.15.08.21.13.29.24.58.35.87.21.59.39,1.19.53,1.8.14.61.24,1.23.3,1.85.05.61.1,1.33.2,1.98.36,2.67,1.16,5.27,2.33,7.67,2.24,4.57,5.67,8.62,10.05,11.21.64,3.43,1.86,6.78,3.83,9.7-2.36-.03-4.7-.4-6.94-1.09ZM50.04,64.43c-2.15,1-4.5,1.46-6.85,1.44-4.72-.03-9.22-2.37-12.21-6-2.97-3.54-4.63-8.08-5.24-12.7.32-.39.84-.75,1.4-1.04.65-.34,1.37-.63,2.1-.87,1.47-.48,3.01-.82,4.56-1.09,3.11-.54,6.28-.78,9.45-.84,2.42-.04,4.83.13,7.23.34l-.24.21,1.48.2c1.72.24,3.45.52,5.11.99.83.23,1.65.51,2.41.86.65.31,1.29.7,1.71,1.18l-.21.13-.06.37c-.16.98-.32,1.97-.56,2.93-.24.97-.53,1.92-.87,2.85-.67,1.87-1.56,3.65-2.68,5.28l-.68.99h.21c-.14.18-.27.36-.42.52-1.59,1.79-3.5,3.28-5.65,4.26Z"/>
    </g>
  </g>
</svg>