<?xml version="1.0" encoding="UTF-8"?>
<svg id="Layer_2" data-name="Layer 2" xmlns="http://www.w3.org/2000/svg" viewBox="0 0 85.34 96.24">
  <defs>
    <style>
      .cls-1 {
        fill: #201522;
      }
    </style>
  </defs>
  <g id="Objects">
    <g>
      <path class="cls-1" d="M57.5,30.33c-.25-.18-.51-.35-.79-.5.27.15.54.31.79.5Z"/>
      <path class="cls-1" d="M85.12,12.67c-.3-2.31-.94-4.57-1.92-6.67-.97-2.1-2.27-4.06-3.94-5.64,3.01,3.49,4.53,7.96,4.95,12.42.2,2.24.1,4.5-.31,6.69-.42,2.19-1.13,4.32-2.2,6.24l-.02.03h0c-.79,1.71-1.94,3.25-3.31,4.5-.25.22-.51.43-.78.63,0-.19-.03-.37-.07-.55.09.39.09.79,0,1.17h0s0,.01,0,.01c1.28.22,2.33,1.37,2.41,2.66.12,1.29-.71,2.56-1.9,2.97l-.12.04.05.13c.49,1.15-.1,2.55-1.18,3.02-.27.13-.53.17-.87.23-.33.07-.65.15-.97.26-.63.2-1.27.52-1.81.83-2.21,1.17-4.75,1.63-7.19,1.46-1.22-.08-2.43-.32-3.57-.75-1.09-.39-2.11-.95-2.97-1.67,1.06-1.65,1.43-3.67,1.07-5.53-.09-.47-.22-.94-.39-1.38.57-.37,1.1-.79,1.57-1.27,1.32-1.34,2.21-3.01,2.75-4.75l1.17-.24c.44-.1.89-.19,1.35-.22.91-.08,1.83-.07,2.74.03.91.11,1.81.33,2.68.64.89.3,1.82.44,2.75.44h0c1.11,0,2.16.82,2.42,1.91-.24-1.09-1.29-1.95-2.42-1.96h0c-.92,0-1.85-.18-2.7-.52-.86-.35-1.77-.6-2.69-.77-.92-.17-1.86-.25-2.8-.23-.45,0-.89.05-1.33.11l.18-.34,2.73-5.17,3.66-7.14L79.26.36l-8.09,13.93-3.94,6.8-2.35,4.19c.13-1.11.14-2.23.04-3.33-.11-1.21-.4-2.39-.82-3.53-.49-1.1-.9-2.25-.95-3.46.03,1.21.43,2.38.91,3.48.41,1.13.62,2.33.69,3.52.11,1.77-.16,3.56-.74,5.21h-.06s-.07.2-.07.2c-.63,1.68-1.61,3.22-2.91,4.37-.42.37-.88.69-1.36.96-.53-.93-1.24-1.75-2.1-2.38,1.54,1.16,2.58,2.96,2.78,4.85.2,1.9-.42,3.81-1.59,5.21-1.17,1.42-2.88,2.29-4.62,2.45-1.74.19-3.52-.3-4.9-1.34-1.39-1.02-2.36-2.59-2.68-4.31-.33-1.72,0-3.61,1.03-5.13,1.01-1.52,2.67-2.66,4.54-3.01,1.57-.3,3.24,0,4.66.78-1.21-.69-2.6-1.07-4-1.04-.12-.74-.32-1.46-.59-2.15-.69-1.77-1.8-3.31-3.15-4.59.09-.91.24-1.82.49-2.7.15-.49.32-.97.52-1.44.2-.45.48-.96.67-1.5.19-.53.33-1.09.41-1.64.04-.3.06-.51.13-.72.07-.21.18-.42.31-.61.54-.76,1.6-1.11,2.53-.78l.26.09.07-.24c.32-1.16,1.48-2.05,2.75-2.01,1.26,0,2.46.95,2.76,2.21v.03s.04,0,.04,0c.71-.21,1.52-.08,2.14.35.62.42,1.03,1.14,1.09,1.89-.05-.75-.45-1.48-1.07-1.91-.61-.44-1.41-.59-2.14-.39-.23-1.09-1.12-1.99-2.2-2.28.82-1.14,1.75-2.21,2.77-3.19,1.64-1.56,3.5-2.89,5.51-3.96,4.01-2.12,8.61-3.37,13.25-2.86-2.27-.48-4.65-.45-6.96-.08-2.32.36-4.58,1.09-6.7,2.13-2.12,1.03-4.11,2.33-5.9,3.89-1.37,1.19-2.61,2.56-3.64,4.08-.31.08-.6.21-.87.38-.51.32-.92.8-1.18,1.36-.65-.51-1.31-1-2.01-1.43-1.66-1.04-3.46-1.84-5.35-2.33-1.88-.5-3.83-.72-5.75-.52,1.92.04,3.81.4,5.59,1.03,1.78.64,3.46,1.52,5,2.58.3.21.58.43.87.65-.54.15-1.04.45-1.41.9-.2.23-.36.5-.48.78-.12.29-.18.61-.23.84-.11.5-.27.98-.47,1.44-.19.46-.47.87-.74,1.39-.26.5-.49,1.01-.68,1.53-.34.9-.56,1.85-.7,2.81-.22-.19-.45-.38-.68-.56.23.19.45.38.67.57-.02.15-.06.29-.08.44l-.03.31.25.25c1.26,1.27,2.28,2.76,2.91,4.39.21.58.38,1.18.48,1.78-1.64.36-3.18,1.27-4.28,2.61-.6.73-1.07,1.59-1.37,2.5-.55-.11-1.11-.19-1.67-.22-1.81-.09-3.62.21-5.33.81-.41-.28-.83-.54-1.22-.84-.47-.37-.92-.77-1.34-1.2-.84-.85-1.58-1.8-2.14-2.84-.29-.56-.68-1.19-1.13-1.7-.22-.26-.46-.51-.71-.74-.14-.13-.23-.21-.3-.28-.08-.09-.15-.17-.21-.27-.51-.78-.33-1.96.47-2.56l.5-.38-.38-.44c-.69-.8-.78-2.1-.13-3.02.61-.94,1.91-1.39,3.03-1l.3.11.08-.29c.26-.97,1.26-1.71,2.32-1.66.54,0,1,.26,1.52.53.51.25,1.05.45,1.6.58,1.12.21,2.21.42,3.25.88,1.04.43,2.02.99,2.93,1.66-.28-.22-.59-.4-.89-.59l-.4-.99-4.78-11.81,3.98,12.11c-.27-.14-.54-.29-.82-.42-1.03-.46-2.14-.74-3.23-.99-.54-.16-1.05-.37-1.54-.64-.46-.27-.99-.63-1.6-.67-1.11-.14-2.27.5-2.78,1.55-.03,0-.05-.02-.08-.03.09-.45.19-.89.31-1.33.5-1.81,1.21-3.56,2.15-5.2.96-1.63,2.17-3.12,3.61-4.39-1.59,1.09-2.94,2.51-4.05,4.11-1.12,1.59-1.99,3.36-2.58,5.23-.15.48-.29.96-.41,1.45h0c-1.21-.37-2.43-.68-3.67-.91-2.77-.51-5.62-.61-8.41-.28-2.79.32-5.53,1.07-8.01,2.33,2.58-1.05,5.31-1.63,8.06-1.8,2.75-.16,5.51.08,8.18.65.7.15,1.39.33,2.08.53-.32.2-.61.45-.84.76-.84,1.02-.98,2.54-.38,3.75-.44.41-.76.94-.91,1.54-.2.77-.07,1.61.32,2.31.1.18.21.34.34.5.14.16.28.3.37.39.2.21.4.42.57.65.36.47.64.92.92,1.48.62,1.19,1.43,2.28,2.37,3.23.47.47.98.91,1.51,1.31.27.2.55.38.82.56-.36.16-.72.33-1.07.52-.91.51-1.77,1.12-2.54,1.84-.44.43-.94.79-1.45,1.09l-5.24-5.52-13.12-13.77,12.17,14.03,5.1,5.84c-.77.43-1.35,1.16-1.57,2.02-.18.71-.11,1.47.19,2.14-.14.14-.27.3-.39.47-.05-.1-.12-.21-.16-.31l-.02-.04h0c-.32-.74-.98-1.32-1.76-1.53-.55-.16-1.16-.12-1.7.08-.81-.78-2.05-1.11-3.14-.74-1.1.35-1.91,1.34-2.11,2.45-.53.15-1.01.44-1.36.85-.5.59-.74,1.39-.62,2.15.03.21.07.32.09.45l.07.38c.04.26.06.52.07.78,0,.27,0,.5-.04.8-.03.3-.04.61-.04.91,0,.5.05.99.11,1.47-.43-.43-.84-.88-1.21-1.36h0s-.03-.04-.03-.04c-1.81-1.99-3.21-4.34-4.28-6.83-1.06-2.5-1.74-5.18-2.07-7.89-.31-2.72-.29-5.49.13-8.21.42-2.72,1.27-5.39,2.55-7.86-1.49,2.35-2.49,5.02-3.07,7.76-.59,2.74-.76,5.59-.51,8.4.19,2.2.61,4.39,1.27,6.51-1.06.39-2.1.87-3.08,1.43-1.84,1.04-3.53,2.36-4.88,3.97,1.51-1.45,3.25-2.62,5.12-3.5,1-.47,2.03-.85,3.09-1.17.11.34.22.68.34,1.01,1,2.65,2.46,5.15,4.37,7.29.84,1.08,1.81,2.05,2.88,2.9.05.15.11.3.17.44l-2.8-1.23-13.16-5.75,12.38,6.35,4.31,2.19s-.06,0-.09,0c-.95.04-1.89.22-2.8.53-.91.3-1.78.71-2.59,1.24-.43.29-.7.49-1.06.68-.35.18-.71.33-1.1.44l-.05.02c-.29.08-.75.31-1.03.58-.31.28-.55.62-.71,1-.23.55-.27,1.17-.13,1.74-.35.28-.64.62-.84,1.02-.08.16-.14.32-.19.49-1.27-1.32-2.38-2.8-3.28-4.4-1-1.79-1.79-3.7-2.3-5.7-.5-2-.7-4.09-.54-6.18-.39,2.06-.34,4.2.02,6.29.35,2.09,1.04,4.13,2.01,6.02.92,1.82,2.08,3.52,3.47,5.04-1.9,1.44-3.5,3.21-4.78,5.17-1.35,2.06-2.38,4.32-3.1,6.66C.38,79.36,0,81.8,0,84.23c0,2.43.35,4.87,1.19,7.13-.61-2.33-.82-4.74-.66-7.12.17-2.38.67-4.71,1.44-6.95.78-2.23,1.86-4.35,3.23-6.26,1.29-1.79,2.82-3.41,4.58-4.7.37.78,1.07,1.39,1.89,1.63.07.61.35,1.2.8,1.62.3.28.65.5,1.04.61.36.13.86.13,1.14.09.57-.04,1.16,0,1.72.12.46.12.99.21,1.5.27.59.14,1.2.25,1.81.3,1.59.13,3.24-.06,4.76-.67-.05.35-.08.71-.09,1.06-.02.87.08,1.73.25,2.57l-3.74,2.72-6.46,4.82-13.21,9.89,13.35-8.92,6.82-4.58,3.62-2.5c.25.75.56,1.49.97,2.16.29.45.51.83.7,1.3.09.23.17.46.23.69.05.22.12.54.27.79.51,1.01,1.8,1.45,2.77,1.03.15.33.37.63.65.86.62,1.34,1.38,2.61,2.28,3.77.03.04.07.08.1.12-.21.41-.44.82-.7,1.2-1.09,1.62-2.54,3.02-4.21,4.05h-.01s-.03.03-.03.03c-1.88,1.35-4.04,2.31-6.29,2.97-2.25.65-4.62.96-6.98.96-2.36-.02-4.74-.32-7.03-.95-2.29-.64-4.5-1.64-6.49-2.99,1.86,1.54,4.04,2.69,6.33,3.49,2.3.81,4.72,1.26,7.17,1.36,2.45.1,4.91-.12,7.31-.71,2.39-.58,4.71-1.56,6.77-2.98,1.86-1.1,3.49-2.59,4.71-4.39.18-.26.34-.53.5-.81,1.1,1.21,2.31,2.3,3.63,3.25,1.78,1.31,3.75,2.35,5.83,3.06,2.07.72,4.26,1.13,6.43,1.07-2.16-.18-4.27-.73-6.24-1.57-1.97-.85-3.8-1.98-5.47-3.3-1.66-1.33-3.14-2.88-4.36-4.6-.55-.79-1.05-1.62-1.49-2.48.03,0,.06,0,.08,0,.52-.06,1.02-.26,1.41-.61.39-.34.65-.81.75-1.32.3.07.62.07.93,0-.31.07-.63.06-.93-.02h0s0,0,0,0c-.2,1.01-1.13,1.82-2.15,1.86-1.02.06-2-.62-2.3-1.56l-.04-.12-.13.05c-.92.35-1.99-.15-2.32-.99-.16-.38-.16-.96-.34-1.47-.14-.51-.39-1.04-.62-1.47-.87-1.76-1.16-3.77-.97-5.69.18-1.85.84-3.67,2-5.02,1.29.8,2.84,1.09,4.27.83.34-.06.66-.15.98-.26.29.48.64.91,1.02,1.29,1.06,1.07,2.37,1.79,3.74,2.24.12.65.3,1.29.34,1.95.05.72.04,1.45-.05,2.17-.1.72-.28,1.43-.54,2.12-.25.7-.37,1.44-.39,2.18h0c-.02.88-.68,1.7-1.55,1.89.87-.17,1.57-.99,1.6-1.89h0c.02-.73.18-1.46.46-2.13.3-.68.52-1.39.67-2.12.16-.73.24-1.48.25-2.23.02-.61-.07-1.21-.14-1.82,1.31.34,2.67.44,3.99.35l.8,2.63,2.2,6.91,4.55,14.18-3.59-13.99-1.87-7.17-.75-2.75c.51-.11,1.01-.24,1.49-.41.31-.13.62-.25.94-.35-.14.64.17,1.33.72,1.62-.27.62-.14,1.37.33,1.81.48.49,1.27.61,1.85.29.09.18.22.34.38.46-.16-.13-.28-.29-.37-.47h0s0,0,0,0c-.59.31-1.37.17-1.79-.33-.43-.49-.48-1.24-.13-1.75l.07-.1-.12-.07c-.52-.32-.68-1.02-.4-1.48.11-.2.42-.45.61-.74.21-.28.39-.63.52-.91.56-1.1,1.44-2.02,2.45-2.66.95-.61,2.06-.97,3.11-.96.26,1.06.9,1.92,1.74,2.48-.12.36-.22.73-.25,1.1-.08.99.12,1.94.47,2.8-.24.31-.47.64-.76.92-.33.32-.69.62-1.08.87-.39.25-.82.45-1.26.61-.45.17-.87.41-1.24.71h0c-.44.35-1.12.35-1.57,0,.44.37,1.13.39,1.6.04h0c.37-.29.8-.5,1.25-.62.46-.12.91-.3,1.34-.51.44-.21.85-.47,1.24-.76.29-.21.54-.47.8-.72.38.75.87,1.43,1.44,2.02.37.38.8.7,1.25,1,.14,1.15.18,2.32.13,3.49-.11,2.1-.54,4.2-1.23,6.21-.71,2-1.66,3.93-2.87,5.7-1.22,1.76-2.71,3.35-4.44,4.66,1.87-1.11,3.5-2.63,4.87-4.34,1.38-1.71,2.49-3.64,3.3-5.7.55-1.38.96-2.81,1.25-4.28,2.77.19,5.55-.01,8.25-.58,2.76-.57,5.44-1.54,7.9-2.89,2.46-1.34,4.73-3.06,6.56-5.16-2,1.94-4.31,3.5-6.8,4.69-2.49,1.17-5.14,1.99-7.83,2.46-2.61.45-5.27.56-7.88.29.05-.33.1-.66.13-.99.09-.87.1-1.74.07-2.62.1.09.21.17.3.27-.09-.11-.2-.19-.3-.29h0c-.09-.09-.17-.18-.27-.25-.28-.22-.57-.42-.88-.59-.52-.33-.97-.76-1.36-1.22-.55-.66-.97-1.43-1.22-2.23l.04-.04-.06-.21c-.23-.87-.28-1.77-.08-2.59.06-.26.15-.51.26-.74.43.14.87.21,1.32.19-.99.01-1.97-.4-2.61-1.12-.65-.71-.94-1.68-.85-2.56.18-1.81,1.75-3.06,3.31-3.05,1.55-.06,3.17,1.11,3.43,2.91.13.88-.12,1.86-.73,2.6-.61.74-1.56,1.22-2.55,1.23.75-.02,1.49-.24,2.14-.65.31.29.64.56.99.76.84.5,1.77.77,2.71.86.21.33.41.66.56,1.02.22.47.28.89.49,1.53.1.29.24.56.4.82.09.14.14.21.17.29.04.09.06.18.07.28.04.4-.2.84-.63,1.01l-.25.1.1.21c.24.51.09,1.21-.4,1.59-.48.39-1.24.41-1.76.01l-.03-.02-.02.03c-.22.31-.58.51-.96.53-.38.03-.77-.13-1.03-.41.25.29.64.46,1.03.44.38-.01.75-.2.99-.5.51.44,1.32.5,1.91.11.55-.34.85-1.03.75-1.71.55-.21.99-.74,1.03-1.37.01-.17,0-.35-.04-.53-.04-.18-.13-.35-.17-.45-.1-.23-.17-.46-.22-.7-.07-.42-.11-1.1-.29-1.65-.12-.43-.3-.84-.5-1.24.02,0,.05,0,.07,0-.02,0-.05,0-.07,0-.07-.13-.13-.27-.2-.4l-.15-.25-.36-.06c-.86-.13-1.68-.41-2.39-.84-.24-.15-.45-.32-.66-.51.45-.61.74-1.35.8-2.15.03-.42-.02-.84-.12-1.26.21-.11.42-.23.62-.36.75-.5,1.38-1.15,1.9-1.89.48-.03.96-.05,1.43.03.57.07,1.13.21,1.65.43.29.14.7.28,1.06.34.19.04.38.06.56.07h.18s.07.02.11.03c.3.08.54.42.47.79l-.13.65.53.08c.41.06.8.42.86.9.07.47-.22,1.02-.73,1.22l-.31.12.12.24c.21.41.07.98-.33,1.28-.2.17-.44.22-.75.28-.29.07-.57.16-.83.29-.52.28-1.01.55-1.57.69-.55.16-1.12.24-1.7.26.58,0,1.15-.08,1.71-.22.56-.14,1.11-.36,1.62-.59.26-.1.54-.17.82-.21.26-.03.61-.04.89-.22.25-.14.44-.37.57-.64l11.86,5.37-11.69-5.96c0-.08-.02-.16-.03-.25.67-.25,1.2-.91,1.22-1.69.04-.68-.33-1.37-.93-1.76.06-.78-.39-1.6-1.16-1.91-.11-.05-.23-.09-.35-.12-.13-.03-.25-.04-.3-.05-.13-.02-.27-.05-.39-.09-.27-.08-.48-.16-.77-.3-.56-.26-1.15-.42-1.75-.53,1.39-.24,2.76-.61,4.05-1.15,2.07-.84,3.99-1.98,5.73-3.35.47-.37.92-.75,1.35-1.15.53.78,1.03,1.57,1.48,2.4,1.3,2.4,2.32,4.98,2.95,7.66.62,2.68.84,5.47.57,8.24.5-2.74.43-5.58-.05-8.35-.48-2.77-1.39-5.46-2.67-7.98-.47-.93-1-1.82-1.55-2.69.89-.9,1.72-1.87,2.43-2.91,1.25-1.8,2.23-3.8,2.77-5.9-.76,2.04-1.85,3.92-3.19,5.59-1.35,1.66-2.93,3.13-4.65,4.38-1.73,1.24-3.62,2.25-5.6,2.95-1.52.53-3.09.9-4.67,1.05.05-.18.11-.36.14-.55.07-.45.26-.89.44-1.2h0s.02-.05.02-.05c.28-.52.3-1.16.07-1.71-.12-.28-.3-.53-.53-.73.09-.48.16-.97.18-1.45.12-1.63-.11-3.27-.56-4.81-.28-.96-.67-1.87-1.15-2.74l5.06-.18,14.44-.55-12.31-.26c1.03-.34,2.02-.79,2.93-1.36.55-.37,1.05-.67,1.64-.9.29-.12.58-.22.88-.3.28-.07.67-.16.97-.34,1.25-.65,1.77-2.26,1.22-3.48.09-.04.18-.08.26-.13.39.4.76.81,1.12,1.24,1.37,1.65,2.5,3.51,3.28,5.54-.57-2.1-1.58-4.08-2.86-5.86-.32-.45-.66-.89-1.01-1.31.72-.67,1.12-1.66.99-2.63-.08-.65-.35-1.28-.8-1.76-.16-.17-.35-.32-.55-.45.24-.2.48-.4.71-.61,1.52-1.39,2.71-3.11,3.55-4.98,1.11-2.1,1.81-4.39,2.14-6.71.34-2.32.34-4.68.04-6.99ZM31.05,44.58l.65-.45-.48-.62c-.33-.42-.47-.99-.36-1.52.11-.53.47-1.02.96-1.27l-.05.02c1.05-.5,1.88-1.18,2.6-1.96.66-.7,1.41-1.32,2.22-1.86,1.63-1.07,3.51-1.79,5.47-2.09,1.07-.17,2.18-.19,3.27-.06-.2.85-.27,1.73-.17,2.62.22,2.1,1.37,4.09,3.08,5.36.11.08.23.16.35.23-.64,1.19-1.05,2.49-1.25,3.81-.13.89-.19,1.78-.14,2.68-.23.14-.47.26-.72.38.04-.12.08-.25.09-.38.14-.87-.33-1.81-1.14-2.26.35-1.02.03-2.26-.84-2.97-.79-.69-1.99-.85-2.98-.43-.77-.82-2.12-1.1-3.16-.51-.15.08-.29.17-.42.28-.14.11-.25.23-.32.29-.16.15-.34.3-.52.43-.37.27-.72.47-1.17.69-.97.48-1.86,1.11-2.64,1.85-.39.37-.75.77-1.08,1.19-.12.16-.23.34-.35.51-.1-.22-.19-.45-.3-.67-.38-.74-.85-1.44-1.41-2.08,0,0-.01-.02-.02-.03.14-.46.43-.88.83-1.16ZM42.86,57.17c-.15-.03-.29-.07-.44-.09l-.31-.04-.26.24c-1.02.96-2.21,1.73-3.49,2.18-.46.16-.92.26-1.39.33-.27-1.26-.92-2.45-1.93-3.33-.54-.48-1.18-.86-1.87-1.13.09-.42.16-.84.19-1.26.11-1.42-.08-2.85-.51-4.21.21-.3.41-.6.64-.89.3-.36.62-.71.96-1.02.68-.64,1.43-1.21,2.25-1.63.45-.22.98-.53,1.39-.89.22-.18.42-.37.61-.57.11-.12.17-.18.22-.23.06-.05.13-.11.2-.15.57-.36,1.42-.23,1.86.36l.38.51.43-.37c.6-.51,1.58-.57,2.27-.08.71.47,1.05,1.47.74,2.33l-.11.31.28.08c.74.21,1.31.98,1.26,1.81,0,.42-.2.78-.43,1.19-.21.41-.37.83-.49,1.27-.18.89-.36,1.75-.74,2.57-.36.82-.82,1.59-1.36,2.3.56-.7,1.03-1.47,1.41-2.28.04-.09.07-.19.11-.28.49.26.99.5,1.51.7-.38.44-.53,1.02-.49,1.58-.41.36-.81.74-1.19,1.14-.55-.2-1.11-.35-1.69-.45.12-.14.23-.27.35-.41-.12.14-.24.27-.36.4ZM45.15,53.09c.02-.08.04-.15.07-.23l1.66,1.49s.03.01.04.02c0,0,0,0-.01,0-.03.02-.06.03-.09.05l-1.66-1.33ZM45.49,51.89c.03-.1.08-.2.12-.3.12-.29.24-.58.4-.85,0,0,.01-.02.02-.03.42-.22.83-.46,1.23-.72.01.11.02.23.04.34.03.51.11,1.01.2,1.51-.03.29-.05.58-.07.87,0,.11,0,.21-.01.32-.65-.37-1.29-.74-1.92-1.14ZM19.6,50.53c.02-.27.06-.54.11-.81.05-.26.1-.61.12-.91.02-.31.02-.63,0-.94,0-.16-.03-.31-.05-.47l-.06-.4c-.09-.79.62-1.49,1.36-1.44l.78.05-.03-.83c-.03-.71.47-1.4,1.14-1.59.66-.23,1.46.03,1.86.62l.44.65.63-.47c.3-.23.7-.32,1.08-.24.38.08.73.34.91.7l-.02-.05c.4.87.94,1.54,1.56,2.13.54.52,1.03,1.12,1.44,1.76.83,1.29,1.38,2.78,1.6,4.33.12.81.13,1.64.03,2.46-.67-.18-1.37-.25-2.08-.2-1.7.13-3.35,1.03-4.42,2.39-.05.06-.09.13-.14.2-.91-.5-1.9-.85-2.91-1.02-.72-.12-1.44-.19-2.17-.16-.93-1.8-1.35-3.84-1.19-5.79ZM25.56,68.66c-1.11.6-2.3,1.01-3.52,1.22-1.22.21-2.46.2-3.65.02-.61-.09-1.15-.24-1.77-.45-.65-.2-1.34-.28-2.02-.27-1.06.12-1.79-.79-1.62-1.65l.13-.67-.72-.08c-.75-.09-1.37-.71-1.47-1.43-.12-.72.3-1.46.94-1.76l.71-.33-.37-.7c-.18-.33-.19-.75-.04-1.09.08-.17.19-.33.33-.45.16-.13.25-.19.54-.28l-.05.02c.48-.14.95-.31,1.39-.55.44-.22.89-.56,1.19-.77.68-.46,1.43-.83,2.22-1.1.79-.28,1.61-.44,2.44-.51.83-.14,1.67-.11,2.5,0,.86.13,1.72.37,2.51.74-.51,1.13-.7,2.4-.49,3.6.25,1.46,1.03,2.79,2.12,3.71-.62.84-1.06,1.79-1.32,2.77ZM49.43,64.63c-1.12.9-1.98,2.1-2.42,3.44-.1.34-.18.59-.33.87-.12.28-.34.48-.52.87-.03.07-.05.14-.06.21-.33.1-.65.21-.97.34-.9.31-1.86.45-2.81.48-1.39.05-2.78-.2-4.05-.7v-.05s-.2-.08-.2-.08c-1.31-.54-2.5-1.35-3.37-2.39-.28-.34-.51-.7-.7-1.08.46-.27.88-.6,1.26-.97-.91.86-2.11,1.42-3.35,1.51-1.51.11-2.99-.43-4.06-1.39-1.08-.95-1.7-2.31-1.78-3.66-.1-1.35.31-2.71,1.14-3.75.81-1.06,2.02-1.78,3.36-2.02,1.33-.25,2.8.02,3.99.83,1.19.8,2.08,2.11,2.34,3.59.22,1.22-.03,2.52-.64,3.62.52-.88.81-1.89.85-2.93.61-.08,1.21-.23,1.78-.45,1.42-.52,2.66-1.38,3.69-2.42.69.08,1.38.2,2.05.4.37.11.73.25,1.08.41.11.16.23.31.31.38.25.25.46.54.63.85.17.34.4.76.65,1.1.79,1.08,1.87,1.92,3.07,2.39-.33.18-.64.39-.94.62ZM54.16,61.11c-.65.76-.96,1.73-.96,2.67-.63.07-1.24.26-1.78.53-1.48-.68-2.67-1.82-3.4-3.15-.19-.34-.32-.66-.46-1.06-.17-.42-.4-.82-.7-1.18-.41-.44-.23-.96.14-1.15l.59-.3-.38-.63c-.2-.33-.14-.76.11-1.02.25-.26.65-.32.95-.17l.69.34.32-.73c.06-.15.2-.27.36-.31.08-.02.16-.02.24,0,.1.03.1.02.26.12l-.05-.03c.28.2.57.37.89.5.3.13.7.23.9.29.48.14.95.36,1.39.63.44.27.84.6,1.21.97.4.34.72.75.99,1.19.24.39.43.82.58,1.25-.73.24-1.4.66-1.88,1.24ZM64.25,55.49c-.29.61-.4,1.17-.43,1.74-.03.47-.11.94-.25,1.4-.27.92-.75,1.82-1.41,2.57-.3.34-.65.65-1.02.92-.18-.41-.41-.8-.72-1.13-.78-.85-1.96-1.36-3.14-1.33-.13-.6-.34-1.17-.64-1.7-.23-.42-.52-.82-.83-1.18.55-1.09,1.37-2.02,2.35-2.64.14-.09.29-.18.44-.26.15-.08.36-.2.53-.31.17-.12.34-.25.5-.39l.23-.22c.07-.08.15-.17.17-.18.28-.25.72-.17.89.1l.42.65.65-.55c.26-.22.66-.24.93-.04.28.17.43.54.34.87l-.23.81.76.14c.33.06.58.45.43.81l.02-.05ZM64.13,47.53c.31,1.51.36,3.06.18,4.56-.15-.19-.33-.36-.54-.49-.66-.43-1.53-.46-2.22-.13-.3-.17-.63-.27-.97-.28-.57-.01-1.13.23-1.51.65l-.34.42c-.1.12-.21.23-.33.34-.21.2-.56.4-.87.67-.97.84-1.66,1.91-2.09,3.06-.4-.44-.86-.83-1.37-1.15-.54-.34-1.12-.62-1.73-.82-.35-.11-.51-.14-.74-.25-.21-.09-.42-.2-.62-.34l-.05-.03c-.16-.11-.52-.28-.81-.31-.2-.03-.4-.02-.59,0-.02-.06-.05-.11-.08-.17-.38-1-.61-2.05-.71-3.11-.19-1.05-.18-2.14-.05-3.19.15-1.17.47-2.33.97-3.4,1.44.65,3.06.87,4.6.59,1.81-.33,3.45-1.33,4.59-2.7,1.08.8,2.31,1.37,3.58,1.69.81,1.36,1.37,2.85,1.69,4.38Z"/>
      <path class="cls-1" d="M55.91,32.51c.98.74,1.63,1.89,1.73,3.09.11,1.2-.32,2.39-1.08,3.23-1.54,1.72-4.16,1.82-5.78.56-1.67-1.19-2.31-3.73-1.1-5.69.58-.97,1.6-1.72,2.78-1.96,1.18-.25,2.47.04,3.46.77-.97-.75-2.24-1.1-3.49-.99-1.25.1-2.49.7-3.37,1.71-.89.99-1.37,2.4-1.23,3.8.12,1.4.89,2.75,2.03,3.6,1.15.85,2.66,1.2,4.03.92,1.38-.27,2.59-1.13,3.29-2.26.71-1.13.93-2.49.68-3.72-.25-1.23-.95-2.34-1.94-3.06Z"/>
      <path class="cls-1" d="M33.35,58.5c.75.57,1.24,1.45,1.3,2.37.07.92-.29,1.81-.88,2.41-1.2,1.24-3.09,1.24-4.24.34-1.18-.85-1.73-2.65-.88-4.15.41-.74,1.16-1.33,2.06-1.53.89-.2,1.89,0,2.64.56-1.48-1.15-3.88-1.09-5.32.5-.71.76-1.12,1.87-1.02,2.99.09,1.11.68,2.2,1.6,2.88.92.68,2.12.95,3.22.71,1.09-.23,2.04-.93,2.57-1.83,1.1-1.83.49-4.15-1.04-5.24Z"/>
      <path class="cls-1" d="M58.41,62.75c.38.28.6.74.59,1.18,0,.45-.23.85-.54,1.07-.65.45-1.32.27-1.71-.03-.39-.29-.76-.88-.51-1.63.13-.36.44-.69.87-.82.42-.14.93-.05,1.3.23-.72-.55-1.91-.66-2.8.13-.43.39-.71,1-.69,1.65.02.64.36,1.3.9,1.69.53.4,1.26.54,1.88.37.62-.16,1.13-.61,1.38-1.13.51-1.07.06-2.18-.67-2.72Z"/>
    </g>
  </g>
</svg>