<?xml version="1.0" encoding="UTF-8"?>
<svg id="Layer_2" data-name="Layer 2" xmlns="http://www.w3.org/2000/svg" viewBox="0 0 74.23 74.41">
  <g id="Layer_1-2" data-name="Layer 1">
    <path d="M.27,5.13c.1.16.21.34.33.54.28.39.68.81,1.23,1.2.08.06.18.11.27.16-.26.54-.47,1.16-.58,1.87-.22,1.37.08,2.97.97,4.44.42.75,1.02,1.41,1.7,2.05.37.28.7.61,1.13.86l.63.39.62.31c1.8.86,3.89,1.2,6.01,1.17.53,0,1.07-.04,1.62-.08.27-.02.52-.06.78-.09.25-.03.56-.07.81-.12.53-.1,1.07-.2,1.61-.3.53-.13,1.06-.26,1.6-.39,2.12-.58,4.21-1.34,6.25-2.13,2.03-.79,4.06-1.64,6.02-2.35,1.97-.72,3.92-1.31,5.81-1.71.47-.09.94-.17,1.4-.26.46-.05.92-.1,1.37-.15.46-.07.86-.04,1.28-.06l.62-.02c.22,0,.47.03.7.04.23.01.46.03.69.04l.34.02h.17c-.18,0-.04,0-.07,0h.02s.04,0,.04,0h.07c.39.07.78.12,1.15.22.75.16,1.46.39,2.12.65,1.31.53,2.41,1.22,3.25,1.93.84.71,1.43,1.44,1.82,2.07.2.3.35.62.47.84.04.11.08.19.12.27-.74.9-1.39,2.03-1.82,3.34l-.13.02-.09.02s.19,0,.09,0h-.01s-.03,0-.03,0h-.06s-.48.03-.48.03c-.31.02-.68.05-.89.02-.26-.02-.5,0-.78-.04-.29-.04-.59-.08-.89-.12-.61-.12-1.23-.25-1.87-.45-1.28-.38-2.6-.92-3.95-1.53-.69-.31-1.38-.63-2.08-.95-.72-.31-1.43-.62-2.15-.93-.75-.27-1.51-.54-2.26-.81-.77-.24-1.58-.38-2.35-.56-.21-.04-.34-.1-.63-.12l-.56-.05-.56-.05h-.62c-.83-.01-1.6.1-2.36.24-1.51.29-2.92.94-4.01,1.86-.14.11-.28.22-.41.34l-.35.39-.34.39-.18.21-.12.2c-.17.24-.32.56-.46.87-.12.31-.23.6-.29.9-.29,1.19-.21,2.33.06,3.26.26.94.72,1.67,1.19,2.17.46.51.95.77,1.27.93.34.13.52.2.52.2,0,0-.17-.09-.49-.24-.3-.19-.75-.48-1.14-1.01-.4-.52-.76-1.25-.91-2.14-.17-.88-.13-1.93.23-2.95.08-.26.21-.51.32-.75.13-.22.26-.45.47-.7l.14-.19s.1-.09.14-.13l.32-.3.32-.31c.12-.09.25-.17.38-.25.99-.69,2.24-1.13,3.58-1.25.66-.06,1.36-.09,2.01-.01l.49.04.55.1.55.1c.09,0,.32.1.47.15.68.24,1.36.42,2.03.7.66.31,1.33.63,1.99.94.66.37,1.32.73,1.97,1.09.66.38,1.32.76,1.97,1.14,1.34.76,2.71,1.49,4.14,2.08.71.3,1.45.54,2.19.76.38.09.75.18,1.12.27.38.08.81.12,1.21.18.44.07.73.06,1.05.08h.14c.01.32.01.6.08,1.02.05.4.1.83.18,1.21.09.37.18.74.27,1.12.22.73.46,1.48.76,2.19.59,1.43,1.31,2.81,2.08,4.14.38.65.76,1.31,1.14,1.98.36.66.73,1.31,1.09,1.97.31.66.63,1.33.94,1.99.28.67.46,1.35.7,2.03.05.15.14.38.15.47l.1.55.1.55.04.49c.08.64.05,1.35-.01,2.01-.12,1.33-.56,2.58-1.25,3.58-.08.13-.16.26-.25.38l-.31.32-.3.32s-.12.12-.13.14l-.19.14c-.25.21-.48.34-.7.47-.24.12-.49.25-.75.32-1.02.35-2.07.4-2.95.23-.89-.16-1.62-.51-2.14-.91-.53-.39-.83-.84-1.01-1.14-.16-.32-.25-.49-.25-.49,0,0,.07.18.2.52.16.32.41.81.93,1.27.5.47,1.23.92,2.17,1.19.93.27,2.06.35,3.26.06.3-.06.59-.18.9-.29.31-.14.62-.29.87-.46l.2-.12.21-.18.39-.34.39-.35c.12-.13.22-.27.34-.41.92-1.08,1.57-2.5,1.86-4.01.14-.76.26-1.52.24-2.36v-.62s-.05-.56-.05-.56l-.05-.56c-.02-.28-.08-.41-.12-.63-.18-.77-.32-1.58-.56-2.35-.27-.75-.54-1.5-.81-2.26-.31-.72-.62-1.44-.93-2.15-.32-.7-.63-1.39-.95-2.08-.61-1.35-1.15-2.67-1.53-3.95-.2-.64-.33-1.26-.45-1.87-.04-.3-.08-.6-.12-.89-.03-.29-.02-.53-.04-.78-.03-.22,0-.58.02-.89l.03-.48v-.06s0-.03,0-.03h0s0-.01,0-.02h0s0,.11,0,.09l.02-.09h0c1.14-.4,2.14-.95,2.96-1.59.24.08.34.15.58.24.22.11.54.27.84.47.63.39,1.35.98,2.07,1.82.71.84,1.39,1.94,1.93,3.25.27.66.5,1.36.66,2.12.09.37.15.76.2,1.15v.07s.02.04.02.04v.02s0,.1,0-.07v.17s.03.34.03.34c.01.23.03.46.04.69.01.23.03.48.04.7l-.02.62c-.03.42,0,.82-.06,1.28-.05.45-.1.91-.15,1.37-.09.46-.17.93-.26,1.4-.4,1.89-.99,3.84-1.71,5.81-.71,1.96-1.57,3.99-2.35,6.02-.8,2.04-1.56,4.13-2.13,6.25-.13.53-.26,1.07-.39,1.6-.1.54-.2,1.07-.3,1.61-.05.25-.1.55-.12.81-.03.26-.07.51-.09.78-.04.55-.09,1.09-.08,1.62-.03,2.12.31,4.21,1.17,6.01l.31.62.39.63c.25.43.58.76.86,1.13.63.67,1.3,1.27,2.05,1.7,1.47.89,3.07,1.19,4.44.97.3-.04.57-.11.84-.19.38.54.8.94,1.18,1.21.2.12.39.23.54.33.17.07.32.11.43.15.24.08.36.12.36.12,0,0-.12-.06-.34-.17-.11-.06-.25-.12-.41-.21-.14-.11-.29-.24-.47-.38-.3-.28-.62-.69-.88-1.19.77-.28,1.42-.67,1.92-1.06.72-.65,1.15-1.29,1.35-1.76.19-.47.29-.73.29-.73,0,0-.12.24-.34.7-.23.45-.7,1.04-1.43,1.62-.52.36-1.19.69-1.95.9-.09-.22-.18-.46-.27-.7-.06-.34-.19-.68-.2-1.06-.11-.75,0-1.53.2-2.4.19-.79.56-1.66,1.02-2.48.45-.83,1.01-1.66,1.6-2.49.61-.84,1.23-1.71,1.85-2.62.3-.47.58-.96.87-1.45.29-.49.49-1.05.74-1.57l.18-.4.14-.44c.08-.25.16-.47.22-.81.15-.64.2-1.24.24-1.83.03-1.2-.17-2.43-.68-3.56-.24-.58-.62-1.08-.99-1.57l-.31-.32c-.04-.05-.22-.21-.37-.32-.33-.27-.58-.4-.85-.56-1.32-.68-2.67-.79-3.84-.57.09-.4.2-.83.33-1.31.11-.38.2-.78.33-1.19.15-.41.31-.84.47-1.29.3-.9.76-1.85,1.19-2.87.45-.98.98-2.04,1.52-3.11.54-1.08,1.12-2.2,1.66-3.37.28-.58.55-1.17.8-1.78.27-.6.52-1.22.74-1.85.24-.62.46-1.26.64-1.94l.29-1.01c.09-.33.13-.63.2-.95l.19-.93c.08-.44.09-.71.14-1.08.06-.68.09-1.37.07-2.03-.07-2.68-.77-5.19-1.87-7.18-.53-1.01-1.21-1.85-1.85-2.57-.69-.7-1.33-1.23-1.97-1.64-.34-.21-.65-.39-.92-.54-.21-.1-.38-.18-.52-.25-.27-.13-.42-.2-.42-.2-.08-.04-.17-.07-.26-.1-.33-.11-.67-.14-1-.11.25-.6.27-1.3-.03-1.94,0,0-.07-.15-.2-.44-.08-.16-.13-.29-.27-.55-.16-.28-.34-.61-.56-.96-.22-.33-.47-.63-.74-.99-.3-.33-.62-.68-.98-1.02-.74-.68-1.65-1.32-2.69-1.88-2.09-1.07-4.7-1.77-7.49-1.75-.7,0-1.4.05-2.11.14h-.13s-.14.03-.14.03h-.06s-.24.06-.24.06l-.48.1-.97.19c-.67.16-1.39.38-2.08.57-.67.22-1.31.47-1.97.71-.63.27-1.27.54-1.9.8-.61.29-1.23.57-1.83.86-1.19.59-2.35,1.17-3.48,1.73-1.13.55-2.2,1.07-3.26,1.53-1.04.44-2.05.83-2.99,1.13-.94.31-1.83.54-2.62.71-.4.08-.77.15-1.12.21-.13.02-.24.03-.36.04.88-1.38,1.26-3.59.16-5.73-.16-.27-.29-.52-.56-.85-.12-.15-.27-.33-.32-.37l-.32-.31c-.49-.37-1-.75-1.57-.99C22.96.17,21.73-.03,20.53,0c-.59.04-1.19.09-1.83.24-.34.06-.56.14-.81.22l-.44.14-.4.18c-.52.25-1.09.45-1.57.74-.48.29-.98.57-1.45.87-.91.62-1.78,1.24-2.62,1.85-.83.6-1.66,1.15-2.49,1.6-.82.45-1.69.82-2.48,1.02-.87.21-1.65.31-2.4.2-.38,0-.72-.14-1.06-.2-.13-.05-.26-.09-.38-.14.15-.32.32-.61.49-.87.58-.73,1.17-1.2,1.62-1.43.46-.22.7-.34.7-.34,0,0-.25.1-.73.29-.47.2-1.11.63-1.76,1.35-.2.26-.4.56-.59.89-.09-.04-.19-.07-.28-.12-.55-.28-.99-.62-1.3-.95-.14-.17-.27-.33-.38-.47-.09-.15-.15-.3-.21-.41-.11-.22-.17-.34-.17-.34,0,0,.04.13.12.36.04.12.08.27.15.43ZM65.83,14.63c.11.06.24.12.4.18.34.16.79.45,1.26.82.45.41.97.89,1.43,1.56.94,1.3,1.74,3.17,2.05,5.33.08.54.12,1.09.14,1.65,0,.26.01.61,0,.8l-.08.95c-.03.31-.04.65-.09.94l-.15.87c-.08.58-.22,1.18-.37,1.79-.13.61-.31,1.21-.49,1.81-.17.6-.37,1.2-.57,1.8-.39,1.19-.83,2.36-1.24,3.5-.42,1.14-.81,2.24-1.17,3.33-.32,1.07-.66,2.05-.87,3.03-.11.48-.22.94-.33,1.37-.09.44-.14.86-.2,1.25-.08.54-.15,1.02-.19,1.46-.66.16-1.25.42-1.73.75-.7.45-1.13,1.01-1.39,1.38-.24.39-.35.6-.35.6-.48.93-.28,2.1.54,2.82.97.84,2.43.73,3.27-.24l.54-.63s.01-.01,0-.06c.01-.04,0-.1.07-.18.06-.08.2-.21.46-.29.26-.09.63-.09.98,0,.07.03.19.07.19.06.02,0,.01-.04.12.06l.12.1.06.05.03.02h0c.15.16.33.31.45.53.32.48.58,1.16.67,1.95.03.4.05.81.03,1.18.01.17-.04.45-.08.7l-.03.19-.02.1v.05s-.01.02-.01.02l-.08.29c-.14.44-.22.9-.41,1.35-.19.45-.37.91-.58,1.37-.45.92-.93,1.85-1.43,2.78-.49.94-.96,1.91-1.32,2.88-.37.98-.64,1.94-.74,2.95-.09.92-.08,1.89.16,2.69.07.41.26.78.38,1.13.11.21.22.41.33.61-.22.04-.43.09-.66.1-1.26.12-2.74-.27-4-1.16-.65-.43-1.22-1.02-1.74-1.66-.23-.35-.51-.68-.69-1.05l-.3-.55-.27-.64c-.64-1.62-.84-3.55-.67-5.49.03-.49.1-.97.17-1.45.03-.24.09-.51.14-.76.05-.26.09-.48.16-.74.13-.49.25-.99.38-1.48.16-.49.31-.98.47-1.48.68-1.97,1.55-3.92,2.47-5.87.92-1.97,1.89-3.88,2.78-5.9.88-2,1.67-4.03,2.26-6.1.13-.52.27-1.04.4-1.55.1-.53.19-1.05.29-1.57.11-.5.13-1.08.19-1.61.02-.27.05-.54.07-.81.01-.25,0-.48.01-.71,0-.23,0-.47,0-.7v-.34s0-.17,0-.17l-.02-.28c-.04-.51-.08-1.01-.16-1.5-.14-.98-.37-1.91-.66-2.79-.58-1.76-1.38-3.29-2.29-4.55-.91-1.25-1.93-2.22-2.86-2.9,2.1-.35,3.75-2,4.1-4.11.04.01.08.03.12.04.13.05.34.11.51.18ZM2.77,7.41c.36.12.72.31,1.13.38.8.24,1.77.25,2.69.16,1.01-.1,1.97-.37,2.95-.74.98-.37,1.94-.83,2.88-1.32.93-.5,1.86-.98,2.78-1.43.46-.21.92-.39,1.37-.58.45-.19.91-.27,1.35-.41l.29-.08h.02s.05-.01.05-.01l.1-.02.19-.03c.25-.04.53-.1.7-.08.36-.03.78,0,1.18.03.79.09,1.47.35,1.95.67.23.13.38.3.53.45h0s.02.03.02.03l.05.06.1.12c.1.11.06.1.06.12,0,0,.03.12.06.19.09.35.09.72,0,.98-.08.26-.21.4-.29.46-.08.07-.14.06-.18.07-.05,0-.06,0-.06,0l-.63.54c-.79.68-1.05,1.85-.54,2.82.59,1.14,1.99,1.58,3.12.99,0,0,.22-.11.6-.35.34-.24.84-.64,1.27-1.24.19,0,.36,0,.57,0,.36-.03.74-.06,1.15-.09.82-.08,1.75-.21,2.75-.42,1-.2,2.07-.48,3.2-.82,1.1-.34,2.27-.75,3.46-1.17,1.18-.43,2.4-.87,3.64-1.33.62-.21,1.24-.42,1.86-.63.62-.19,1.25-.37,1.88-.56.63-.15,1.26-.31,1.88-.45.61-.09,1.19-.21,1.81-.29l.98-.08.49-.04.24-.02h.06c.07-.01-.08,0-.06,0h.01s.03,0,.03,0h.11c.58,0,1.15.02,1.71.08,2.25.23,4.22,1.05,5.6,1.97.68.48,1.23.98,1.65,1.46.2.24.37.48.53.69.12.23.27.44.35.61.06.16.13.3.19.42,0,.02.02.04.02.06-.13,0-.25-.04-.37-.04-2.34,0-4.29,1.61-4.84,3.77-.65-.8-1.48-1.62-2.52-2.38-1.25-.92-2.79-1.72-4.55-2.29-.88-.29-1.81-.52-2.79-.66-.49-.08-.99-.12-1.5-.16l-.28-.02h-.17s-.34,0-.34,0c-.23,0-.46,0-.7,0-.24,0-.46,0-.71.01-.27.02-.54.05-.81.07-.53.06-1.11.08-1.61.19-.52.09-1.04.19-1.57.29-.51.13-1.03.27-1.55.4-2.07.58-4.1,1.37-6.1,2.26-2.01.89-3.93,1.86-5.9,2.78-1.95.92-3.9,1.79-5.87,2.47-.5.16-.99.32-1.48.47-.5.13-.99.25-1.48.38-.26.07-.47.12-.74.16-.25.05-.52.11-.76.14-.48.07-.96.14-1.45.17-1.94.17-3.86-.03-5.49-.67l-.64-.27-.55-.3c-.38-.18-.71-.46-1.05-.69-.64-.53-1.23-1.1-1.66-1.74-.89-1.26-1.28-2.74-1.16-4,.05-.64.2-1.23.41-1.75.13.07.26.14.4.21Z"/>
  </g>
</svg>