<?xml version="1.0" encoding="UTF-8"?>
<svg id="Layer_2" data-name="Layer 2" xmlns="http://www.w3.org/2000/svg" viewBox="0 0 71.76 70.78">
  <g id="Layer_1-2" data-name="Layer 1">
    <g>
      <path d="M71.24,69.59c-.33.07-.82.09-1.41.05-.59-.06-1.28-.22-2-.52-.72-.31-1.46-.8-2.14-1.44-.33-.32-.67-.66-.96-1.06-.3-.38-.56-.83-.74-1.19-.48-1-.7-2.02-.86-3.15-.14-1.13-.07-2.35.04-3.6.09-.63.18-1.27.31-1.89.08-.57.3-1.39.44-1.97.36-1.37.72-2.73,1.08-4.08.37-1.33.67-2.89.92-4.32.09-.7.12-1.34.17-1.99,0-.11.01-.22.02-.33.29.3.56.59.82.85l.76-40.81H25.61c.46.44,1,.94,1.59,1.48-.28.02-.56.03-.85.05-.65.04-1.3.08-1.99.17-1.43.26-2.99.55-4.32.92-1.34.36-2.71.72-4.08,1.08-.59.13-1.41.35-1.98.44-.62.13-1.25.21-1.89.31-1.25.11-2.48.19-3.6.04-1.13-.16-2.16-.38-3.15-.86-.36-.18-.81-.43-1.19-.74-.4-.28-.74-.62-1.06-.96-.63-.68-1.12-1.42-1.44-2.14-.3-.72-.47-1.41-.52-2-.04-.59-.01-1.08.05-1.41.06-.34.09-.52.09-.52,0,0-.11.15-.33.42-.2.29-.48.74-.68,1.4C.08,2.48-.07,3.34.03,4.32c.09.98.39,2.09.98,3.18.3.54.65,1.09,1.1,1.61.43.53.94,1,1.61,1.51,1.11.81,2.59,1.44,4.08,1.81.38.08.76.15,1.15.23.39.06.77.08,1.17.12.79.1,1.56.04,2.35.02.77-.07,1.55-.12,2.34-.27.85-.13,1.42-.28,2.23-.46,1.42-.41,2.87-.81,4.17-1.24,1.27-.4,2.51-.79,3.71-1.17.62-.17,1.3-.27,1.93-.43.32-.07.63-.14.94-.21h.06s.03-.02.03-.02c-.04,0,.12-.01-.09,0h.01s.1-.01.1-.01l.21-.02.41-.05c.92-.13,1.81-.13,2.66-.1,3.43,2.39,7.68,4.34,11.99,3.34,2.2-.51,4.13-1.72,6.08-2.86,1.95-1.14,4.32-2.04,6.42-1.21,1.84.73,2.89,2.88,2.61,4.81-4.09,2.41-10.64,4.68-17.13.26,0,0,2.72,8,10.72,5.76,0,0-8.32,2.4-8.4,9.84,7.44-.08,9.84-8.4,9.84-8.4-2.24,8,5.76,10.72,5.76,10.72-4.47-6.55-2.11-13.17.33-17.25,1.88-.18,3.91.86,4.61,2.64.83,2.1-.07,4.47-1.21,6.42-1.14,1.95-2.35,3.88-2.86,6.08-.99,4.29.79,8.25,3.02,11.38,0,.62-.02,1.26-.12,1.92l-.05.41-.02.21v.1s-.01.01-.01.01c.02-.21,0-.05,0-.09v.03s-.02.06-.02.06c-.07.31-.14.62-.21.94-.15.63-.26,1.3-.43,1.93-.38,1.2-.77,2.45-1.17,3.71-.44,1.3-.84,2.76-1.24,4.17-.18.81-.32,1.38-.46,2.23-.16.79-.2,1.57-.27,2.34-.02.79-.07,1.56.02,2.35.04.39.05.78.12,1.17.08.39.15.77.23,1.15.37,1.5,1,2.97,1.81,4.08.51.67.97,1.18,1.51,1.61.52.44,1.07.8,1.61,1.1,1.09.59,2.2.89,3.18.98.98.11,1.84-.05,2.5-.24.66-.2,1.11-.48,1.4-.68.28-.21.42-.33.42-.33,0,0-.18.03-.52.09Z"/>
      <path d="M67.12,51s-.09.29-.19.79c-.06.24-.09.57-.2.89-.11.32-.24.66-.34,1.03-.12.36-.32.79-.46,1.22-.16.45-.33.92-.51,1.4-.17.51-.34,1.01-.49,1.58-.15.56-.26,1.16-.35,1.77-.06.62-.09,1.26-.02,1.9.07.65.19,1.24.46,1.89.16.41.58,1.15.96,1.54.37.44.82.77,1.24,1.02.22.11.43.23.64.32.22.07.43.11.62.16.38.11.75.04,1.01.05.27-.04.48-.13.61-.17.13-.05.2-.07.2-.07,0,0-.27-.1-.73-.28-.21-.14-.45-.24-.69-.45-.11-.1-.23-.21-.36-.32-.11-.14-.22-.26-.34-.4-.21-.3-.42-.62-.58-.98-.1-.18-.14-.35-.2-.51-.06-.13-.12-.39-.18-.65-.08-.35-.11-.85-.12-1.29,0-.46.03-.95.09-1.45.06-.5.14-1.01.22-1.53.08-.5.19-1.06.26-1.57.08-.54.16-1.03.18-1.55.02-.52.05-.98.02-1.45-.03-.48-.09-.9-.15-1.26-.05-.36-.21-.63-.28-.87-.19-.48-.32-.75-.32-.75Z"/>
      <path d="M4.57,3.63c.09.2.2.41.32.64.26.42.58.87,1.02,1.24.38.38,1.13.79,1.54.96.65.27,1.24.39,1.89.46.64.07,1.28.04,1.9-.02.61-.09,1.21-.19,1.77-.35.58-.15,1.08-.32,1.58-.49.49-.18.96-.35,1.4-.51.43-.14.86-.34,1.22-.46.36-.1.71-.23,1.03-.34.32-.11.65-.13.89-.2.5-.1.79-.2.79-.2,0,0-.27-.14-.75-.32-.24-.08-.51-.24-.88-.28-.36-.06-.79-.12-1.26-.15-.47-.03-.93,0-1.45.02-.52.02-1.01.1-1.55.18-.51.07-1.07.18-1.57.26-.52.08-1.03.17-1.53.22-.5.06-.98.09-1.45.09-.44-.01-.94-.04-1.29-.12-.26-.06-.53-.13-.65-.18-.16-.05-.33-.1-.51-.2-.37-.16-.69-.37-.98-.58-.13-.11-.26-.23-.4-.34-.11-.13-.22-.24-.32-.36-.21-.23-.31-.48-.45-.69-.18-.47-.28-.73-.28-.73,0,0-.03.07-.07.2-.04.13-.12.34-.17.61,0,.26-.06.63.05,1.01.05.19.09.4.16.62Z"/>
    </g>
  </g>
</svg>