<?xml version="1.0" encoding="UTF-8"?>
<svg id="Layer_2" data-name="Layer 2" xmlns="http://www.w3.org/2000/svg" viewBox="0 0 82.82 81.46">
  <g id="Layer_1-2" data-name="Layer 1">
    <path d="M15.46,6.35c-.01.11-.03.22-.04.32-.01.42.03.76.04,1.14,0,.38.11.74.19,1.1.09.36.16.73.33,1.07.15.35.29.72.46,1.04l.53.87c.85,1.27,1.89,2.22,3.06,3,1.18.76,2.39,1.29,3.75,1.55.35.09.61.1.9.14l.42.05c.25.03.34.01.51.02.31,0,.61.01.9,0,.29-.03.58-.06.87-.09,1.12-.16,2.13-.47,2.98-.85.42-.19.82-.37,1.16-.6.34-.21.66-.39.94-.62.04-.03.07-.05.11-.09.07.61.16,1.22.27,1.84.91,4.95,4.13,9.9,9.03,12.66.62.32,1.26.62,1.89.93.65.28,1.33.48,2,.72.67.24,1.45.33,2.17.5l.55.1.5.04,1,.07c.53.02,1.06.01,1.59-.02,0,.08,0,.16,0,.25l.07,1,.04.5.1.55c.16.73.26,1.5.5,2.17.24.67.44,1.36.72,2,.31.63.61,1.27.93,1.89,2.76,4.9,7.71,8.12,12.66,9.03,1.09.19,2.18.33,3.26.36l.92.87.6-.55.1-.1s.03-.03.05-.05c.02-.02.03-.06.05-.08l.34.03c.4.17.8.18,1.22.44.87.36,1.54,1.05,2.08,1.77.22.4.49.77.59,1.21.06.21.18.42.2.64l.08.66c.26,8.28.47,15.18.62,20.01.07,2.42.17,4.32.22,5.62.06,1.3.08,1.99.08,1.99,0,0,.03-.69.08-1.99.05-1.3.15-3.2.22-5.62.08-2.42.17-5.36.28-8.73.09-3.39.27-7.13.28-11.37l-.07-.89c-.02-.3-.15-.58-.22-.88-.13-.6-.45-1.14-.74-1.69-.68-1.03-1.58-2-2.76-2.58-.53-.36-1.27-.52-1.94-.73l-.85-.11-.43-.05-.52-.03c-1.09-.03-2.18-.22-3.28-.44-4.37-.98-8.43-3.87-10.75-8.1-.25-.54-.51-1.08-.76-1.63-.23-.55-.38-1.14-.58-1.71-.19-.57-.23-1.13-.36-1.69-.03-.14-.06-.28-.08-.43l-.03-.5-.05-1c0-.16,0-.32,0-.48,1.41-.33,2.78-.85,4.08-1.53.33-.18.67-.33.98-.53l.92-.64.92-.65.83-.76.83-.77.76-.92.75-.93c.2-.3.36-.59.54-.89,1.16-1.79,1.84-3.87,2.12-5.99.34-.01.68-.01,1.03,0,2.46.08,4.97.91,6.86,2.28,2.04,1.46,3.42,3.51,4.17,5.84.74,2.31.8,4.84.12,7.07-.1.26-.15.5-.27.79l-.38.84c-.29.5-.56,1.02-.93,1.47-.69.93-1.52,1.76-2.48,2.37-.23.17-.47.32-.72.44-.25.12-.5.28-.74.38l-.71.27c-.22.1-.6.15-.89.23l-.45.1h-.03s-.1,0-.1,0h-.2c-.27.03-.54.07-.8.07-.54-.04-1.08-.03-1.61-.17-.54-.07-1.03-.29-1.54-.45-.24-.11-.47-.24-.71-.36l-.35-.18-.32-.23c-.2-.16-.44-.3-.62-.46-.16-.17-.33-.33-.5-.49-.17-.12-.35-.42-.52-.65l-.26-.36-.07-.09-.02-.03-.07-.15-.32-.67c-.12-.22-.14-.48-.22-.71-.17-.47-.17-.98-.23-1.47.01-.98.13-1.99.55-2.86.16-.48.43-.79.64-1.16l.08-.14.15-.15.29-.29.29-.29.14-.14.06-.04c.71-.54,1.57-.89,2.47-1,1.79-.25,3.66.36,4.76,1.5,1.2,1.18,1.47,2.88,1.11,4.38-.34,1.49-1.3,2.76-2.45,3.36-.15.06-.26.15-.43.2-.17.05-.34.11-.51.16-.26.04-.61.12-.91.1-.62.02-1.21-.12-1.72-.34-.54-.2-.93-.57-1.27-.9-.14-.21-.35-.45-.41-.62-.08-.22-.21-.41-.23-.64-.19-.87.01-1.67.32-2.22.66-1.12,1.51-1.2,1.46-1.24.05.05-.8.03-1.6,1.15-.36.55-.66,1.38-.54,2.37.04.48.3,1.04.59,1.47.39.46.84.9,1.43,1.17.57.3,1.24.5,1.96.52.37.04.71-.01,1.13-.06.34-.08.68-.16,1.08-.34,1.48-.66,2.67-2.08,3.21-3.84.27-.88.37-1.86.21-2.85-.14-.98-.63-2.03-1.3-2.8-1.45-1.69-3.75-2.48-6.08-2.29-1.17.1-2.36.5-3.4,1.21l-.1.07s.04-.04-.12.1l-.04.03-.15.14-.3.27-.3.28c-.1.08-.2.19-.31.34-.41.53-.85,1.1-1.08,1.67-1.14,2.3-1.18,5.16.06,7.66l.11.24.18.27.25.37c.18.25.29.49.57.77l.76.81c.26.25.54.44.82.66l.42.32.45.26c.31.17.61.35.92.5.65.25,1.3.54,2,.67.68.2,1.4.23,2.12.29.36,0,.72-.03,1.09-.05l.27-.02h.14s.07-.01.07-.01l.15-.03.47-.1c.33-.08.59-.09.97-.23l1.1-.38c.36-.14.66-.31.99-.47.33-.15.64-.34.94-.55,1.24-.77,2.32-1.79,3.22-2.95.47-.57.84-1.21,1.22-1.86l.04-.06.06-.12.05-.11.11-.23.21-.45c.14-.32.28-.72.41-1.09.94-2.87.9-5.99,0-8.87-.45-1.44-1.11-2.82-1.99-4.08-.43-.63-.92-1.23-1.47-1.78l-.41-.41-.1-.1-.15-.13-.2-.17c-.27-.22-.5-.44-.86-.68-2.56-1.88-5.54-2.82-8.6-2.97-.05,0-.1,0-.15,0,3.09-1.67,7.72-3,12.3.13,0,0-2.04-6.01-8.06-4.33,0,0,6.25-1.8,6.31-7.39-5.59.06-7.39,6.31-7.39,6.31,1.68-6.01-4.33-8.06-4.33-8.06,3.11,4.56,1.82,9.16.15,12.26-.34-2.56-1.25-5.02-2.84-7.18-.25-.36-.46-.59-.68-.86l-.17-.2-.13-.15-.1-.1-.41-.41c-.55-.54-1.15-1.04-1.78-1.47-1.26-.87-2.64-1.54-4.08-1.99-2.88-.9-5.99-.95-8.87,0-.36.13-.77.27-1.09.41l-.45.21-.23.11-.11.05-.12.06-.06.04c-.64.38-1.29.75-1.86,1.22-1.16.9-2.18,1.98-2.95,3.22-.21.3-.4.61-.55.94-.16.33-.34.64-.47.99l-.38,1.1c-.13.38-.15.64-.23.97l-.1.47-.03.15v.07s-.01.14-.01.14l-.02.27c-.02.36-.06.73-.05,1.09.06.72.09,1.44.29,2.12.13.7.42,1.35.67,2,.15.32.33.62.5.92l.26.45.32.42c.22.28.41.55.66.82l.81.76c.28.28.52.39.77.57l.37.25.27.18.24.11c2.5,1.23,5.36,1.19,7.66.06.58-.23,1.14-.67,1.67-1.08.15-.1.26-.21.34-.31l.28-.3.27-.3.14-.15.03-.04c.14-.17.06-.07.1-.12l.07-.1c.72-1.05,1.12-2.24,1.21-3.4.19-2.33-.6-4.63-2.29-6.08-.77-.68-1.82-1.16-2.8-1.3-1-.16-1.97-.06-2.85.21-1.76.53-3.18,1.73-3.84,3.21-.18.4-.27.75-.34,1.08-.05.43-.1.76-.06,1.13.03.72.22,1.39.52,1.96.27.59.71,1.04,1.17,1.43.43.29.98.55,1.47.59.99.12,1.82-.17,2.37-.54,1.12-.8,1.1-1.65,1.15-1.6-.04-.05-.12.8-1.24,1.46-.55.3-1.35.5-2.22.32-.22-.01-.42-.15-.64-.23-.18-.07-.41-.28-.62-.41-.33-.34-.7-.74-.9-1.27-.23-.51-.36-1.11-.34-1.72-.02-.3.06-.64.1-.91.05-.17.11-.34.16-.51.06-.17.14-.28.2-.43.61-1.15,1.87-2.11,3.36-2.45,1.5-.36,3.2-.09,4.38,1.11,1.14,1.1,1.75,2.97,1.5,4.76-.11.9-.47,1.76-1,2.47l-.04.06h0s-.14.14-.14.14l-.29.29-.29.29-.14.15-.14.08c-.37.21-.68.48-1.16.64-.86.42-1.87.53-2.86.55-.49-.06-1-.05-1.47-.23-.23-.08-.49-.1-.71-.22l-.67-.32-.15-.07-.03-.02-.09-.07-.36-.26c-.23-.17-.53-.35-.65-.52-.16-.17-.32-.34-.49-.5-.16-.18-.3-.42-.46-.62l-.23-.32-.18-.35c-.12-.24-.25-.47-.36-.71-.16-.51-.38-1-.45-1.54-.14-.52-.13-1.07-.17-1.61,0-.27.04-.54.06-.8v-.2s.02-.1.02-.1v-.03s.1-.45.1-.45c.08-.29.12-.67.23-.89l.27-.71c.1-.24.25-.49.38-.74.12-.26.27-.49.44-.72.61-.96,1.44-1.79,2.37-2.48.45-.37.97-.64,1.47-.93l.84-.38c.29-.12.53-.18.79-.27,2.22-.68,4.76-.61,7.07.12,2.33.75,4.38,2.13,5.84,4.17,1.35,1.87,2.18,4.34,2.28,6.77-1.64.36-3.22.97-4.62,1.88-.3.18-.59.34-.89.54l-.93.75-.92.76-.77.83-.76.83-.65.92-.64.92c-.19.32-.35.66-.53.98-.89,1.7-1.5,3.5-1.78,5.38-.53.06-1.07.08-1.59.08l-1-.05-.5-.03c-.15-.02-.28-.06-.43-.08-.56-.13-1.12-.17-1.69-.36-.57-.2-1.16-.35-1.71-.58-.54-.26-1.09-.51-1.63-.76-4.22-2.32-7.12-6.39-8.1-10.75-.22-1.09-.41-2.19-.44-3.28l-.03-.51-.05-.43-.11-.85c-.21-.67-.37-1.41-.73-1.94-.57-1.18-1.55-2.08-2.58-2.76-.55-.29-1.09-.61-1.69-.74-.3-.07-.58-.2-.88-.22l-.89-.07c-.94,0-1.84.01-2.73.03-.01-.44-.12-.89-.27-1.33-.14-.26-.23-.54-.43-.8l-.29-.39c-.1-.12-.21-.2-.32-.31-.95-.88-2.39-1.2-3.75-.97l-.51.11c-.17.06-.35.12-.52.19-.37.15-.57.27-.93.5-.61.4-1.1.96-1.51,1.57-.35.52-.58,1.08-.76,1.69-3.09.1-5.82.18-8.08.26-2.42.07-4.32.17-5.62.22-1.3.06-1.99.08-1.99.08,0,0,.69.03,1.99.08,1.3.05,3.2.15,5.62.22,2.2.07,4.85.15,7.85.24ZM56.18,24.32c.15-.27.28-.55.44-.82l.54-.76.54-.76.63-.68.63-.68.67-.55.66-.56c.27-.18.59-.35.88-.53.87-.56,1.83-.98,2.82-1.27-.27,1.39-.76,2.73-1.53,3.92-.18.29-.35.6-.53.88l-.56.66-.55.67-.68.63-.68.63-.76.54-.76.54c-.26.16-.55.29-.82.44-.71.38-1.46.7-2.23.96.29-1.13.71-2.24,1.27-3.27ZM28.28,6.81c.22.02.43.14.64.2.44.1.81.37,1.21.59.72.54,1.41,1.21,1.77,2.08.27.42.27.82.44,1.22l.03.37c-.06.04-.12.07-.18.13,0,0-.12.13-.33.36-.11.12-.24.26-.4.44-.14.12-.31.27-.5.42-.37.31-.92.71-1.58,1.04-.66.35-1.45.64-2.35.82-.23.04-.46.08-.69.12-.24.02-.48.03-.73.04l-.32.02-.42-.03c-.28-.03-.6-.02-.83-.09-.97-.13-2.12-.53-3.12-1.1-1.01-.57-2-1.41-2.71-2.34l-.57-.84c-.16-.27-.26-.54-.4-.81-.15-.26-.23-.57-.32-.87-.09-.3-.21-.6-.21-.91-.03-.3-.08-.65-.09-.9,0-.13.01-.25.02-.38,2.36.07,4.92.15,7.66.24-.2.4-.48.74-.81.97-.65.48-1.39.62-1.97.63-.59-.04-1.04-.2-1.31-.36-.27-.18-.41-.28-.41-.28,0,0,.14.1.39.3.26.19.71.38,1.32.45.6.03,1.37-.07,2.11-.55.41-.26.76-.66,1-1.15.98.03,1.98.06,3,.09l.66.08ZM17.31,4.08c.31-.52.69-1.02,1.17-1.37.18-.14.54-.38.78-.47l.39-.17.43-.12c1.14-.27,2.39-.06,3.22.63.78.61,1.18,1.52,1.26,2.4-2.78.05-5.32.16-7.7.23.11-.39.25-.78.46-1.13Z"/>
  </g>
</svg>