<?xml version="1.0" encoding="UTF-8"?>
<svg id="Layer_2" data-name="Layer 2" xmlns="http://www.w3.org/2000/svg" viewBox="0 0 79.04 77.21">
  <g id="Layer_1-2" data-name="Layer 1">
    <path d="M74.38,37.19c.37-1.01.84-1.9,1.35-2.64.52-.73,1.06-1.31,1.55-1.76.5-.43.94-.75,1.26-.94.32-.19.49-.3.49-.3,0,0-.2.03-.57.08-.37.07-.93.18-1.6.47-.66.29-1.47.71-2.26,1.39-.8.66-1.61,1.54-2.3,2.63-.12.19-.23.38-.34.58.02-1.33.04-2.67.07-4l.03-1.69-1.85-.13-2.26-.16-2.23-.37c-.73-.17-1.46-.38-2.19-.57-.72-.23-1.41-.52-2.12-.77-.69-.3-1.35-.66-2.03-.98-.65-.37-1.28-.79-1.93-1.17l-1.8-1.35-1.66-1.52-1.52-1.67-1.35-1.8c-.39-.64-.8-1.27-1.17-1.93-.12-.25-.24-.5-.36-.74.49.59,1.03,1.08,1.58,1.47.79.56,1.59.95,2.33,1.16.36.13.72.18,1.04.25.32.03.62.06.89.09.12,0,.21,0,.32,0,.12.58.62,1.02,1.23,1.07,0,.1,0,.19,0,.31.03.27.06.57.1.89.07.32.13.67.27,1.03.22.74.62,1.53,1.19,2.31.57.78,1.34,1.55,2.31,2.15.97.6,2.12,1.07,3.38,1.24.32.03.63.06.95.08.32-.02.65-.04.97-.05l.43-.03c.15-.01.35-.07.53-.11.36-.09.73-.2,1.09-.31,1.28-.57,2.49-1.39,3.32-2.56.81-1.15,1.4-2.52,1.45-3.92l.04-.52v-.13s.01-.06.01-.06v-.03s0-.15,0-.15h0s-.03-.23-.03-.23c-.04-.29-.07-.55-.13-.86-.11-.37-.23-.74-.36-1.1-.13-.36-.33-.62-.5-.92-.73-1.14-1.8-1.98-2.94-2.41-1.13-.4-2.32-.52-3.28-.26-.19.02-.5.15-.74.24-.25.09-.49.19-.68.34-.19.13-.38.26-.55.39-.15.15-.3.31-.44.45-.29.28-.46.63-.64.91-.12.32-.24.61-.32.87-.05.28-.09.52-.11.72-.02.21.01.39.02.53.02.28.04.43.04.43,0,0,.04-.14.12-.41.04-.13.07-.3.15-.47.09-.17.18-.37.29-.59.14-.2.31-.41.48-.63.23-.17.41-.42.69-.58.13-.08.27-.17.41-.25.15-.07.31-.12.47-.18.16-.07.32-.1.47-.12.17-.02.26-.09.51-.07h.34s.17,0,.17,0h.09s.04,0,.04,0h.01c-.17,0-.04,0-.08,0h.02c.19.05.38.09.57.13.19.03.38.09.56.18.18.09.38.13.55.24.72.39,1.29,1.05,1.7,1.77.08.19.21.39.25.56.04.18.08.34.14.51.03.25.04.56.06.84v.12s0,0,0,0v.04s-.02.09-.02.09l-.05.34c-.07.92-.48,1.79-1.01,2.54l-.44.54c-.16.17-.36.3-.53.45l-.26.23-.3.17c-.2.11-.4.24-.59.34-.19.06-.38.12-.56.2-.1.04-.16.09-.3.12l-.42.06-.42.06-.21.03h-.1s-.04.02-.04.02c-.22,0-.43,0-.65,0-.94-.06-1.84-.27-2.65-.63-.8-.37-1.52-.85-2.11-1.39-.57-.55-1.08-1.12-1.42-1.7-.2-.28-.31-.58-.46-.83-.12-.28-.22-.53-.32-.76-.03-.09-.05-.16-.08-.24.58-.16,1.01-.68,1.01-1.31,0-.75-.61-1.36-1.36-1.36-.69,0-1.26.51-1.35,1.18-.07-.02-.14-.04-.21-.06-.23-.09-.49-.2-.76-.31-.26-.15-.56-.26-.84-.45-.59-.33-1.16-.83-1.72-1.4-.55-.58-1.04-1.29-1.42-2.09-.37-.8-.59-1.71-.67-2.65,0-.21,0-.43-.01-.65v-.04s.02-.1.02-.1l.03-.21.05-.42.05-.42c.02-.14.08-.2.11-.3.08-.19.14-.37.19-.57.1-.2.23-.4.33-.6l.16-.3.22-.27c.15-.17.28-.37.44-.53l.54-.44c.74-.54,1.6-.96,2.52-1.04l.34-.05h.09s.04-.02.04-.02h0s.12,0,.12,0c.28.02.59.02.84.05.17.06.34.1.51.14.18.03.38.17.57.24.73.4,1.4.96,1.8,1.68.12.17.16.37.25.55.09.18.16.37.19.56.05.19.09.38.14.57v.02s0,.09,0-.08h0s0,.05,0,.05v.09s0,.17,0,.17v.34c.02.25-.04.35-.06.52-.02.15-.04.31-.11.47-.06.16-.11.32-.17.47-.09.14-.17.28-.25.41-.15.28-.4.46-.57.7-.22.17-.42.35-.63.48-.22.11-.41.21-.58.3-.18.09-.34.11-.47.16-.27.08-.41.13-.41.13,0,0,.15.01.43.03.14,0,.32.03.53,0,.21-.03.45-.07.72-.12.26-.08.55-.21.87-.33.28-.19.62-.37.9-.66.14-.15.29-.3.45-.45.13-.17.25-.36.38-.56.14-.18.24-.42.33-.68.08-.24.21-.55.23-.74.25-.96.11-2.15-.3-3.28-.44-1.13-1.3-2.19-2.45-2.91-.31-.16-.57-.36-.93-.48-.36-.12-.73-.24-1.11-.34-.31-.05-.57-.08-.86-.12l-.21-.02h-.01s-.15,0-.15,0h-.03s-.06,0-.06,0h-.13s-.52.06-.52.06c-1.4.07-2.76.68-3.9,1.51-1.16.84-1.96,2.07-2.51,3.35-.11.36-.21.73-.3,1.09-.04.17-.1.38-.11.53l-.02.43c0,.16-.01.31-.02.47l-.36-2.2-.16-2.26-.13-1.87-1.71.04c-.93.02-1.87.03-2.8.05.62-.5,1.15-1.02,1.59-1.54.67-.79,1.1-1.6,1.39-2.26.29-.67.4-1.23.47-1.6.05-.37.08-.57.08-.57,0,0-.1.17-.3.49-.19.32-.51.75-.94,1.26-.45.5-1.03,1.04-1.76,1.56-.74.51-1.63.98-2.64,1.35-.99.37-2.18.66-3.3.76-1.27.12-2.52.08-3.87-.09-1.34-.16-2.73-.47-4.15-.84-1.43-.39-2.87-.82-4.37-1.3-1.49-.46-3.02-.93-4.57-1.32-1.55-.4-3.13-.68-4.72-.83-.41-.03-.82-.06-1.22-.08-.41-.02-.73,0-1.1,0h-.53s-.13.01-.13.01h-.08s-.02,0-.02,0h-.04s-.07,0-.07,0l-.29.02c-.38.02-.75.08-1.11.13-1.45.21-2.78.6-3.95,1.08-1.17.47-2.17,1.07-3,1.67-.84.58-1.45,1.26-1.91,1.81-.46.56-.74,1.08-.9,1.4-.15.34-.23.53-.23.53,0,0,.14-.14.41-.4.27-.27.68-.59,1.23-.97.56-.37,1.27-.75,2.11-1.08.85-.34,1.84-.6,2.92-.81,1.09-.2,2.28-.32,3.53-.31.31,0,.62.01.94.04h.24s.06.02.06.02h.03s.01,0,.01,0c-.11,0-.02,0-.04,0h.13s.53.08.53.08c.34.05.73.07,1.05.14.32.06.64.12.96.17,1.33.29,2.73.63,4.16,1.09.99.32,2,.64,3.01.96-3.59.14-7.18.29-10.77.49-1.89.09-3.77.21-5.66.33-1.89.11-3.77.25-5.66.4,1.89.15,3.77.29,5.66.4,1.89.12,3.77.24,5.66.33,3.77.21,7.55.37,11.32.51,3.77.17,7.55.24,11.32.36,3.18.11,6.36.14,9.55.2l.03.82c.1.87.22,1.74.35,2.61.18.86.42,1.71.63,2.56.26.84.58,1.66.88,2.49.34.81.74,1.59,1.12,2.39.42.77.9,1.51,1.35,2.27.5.72,1.04,1.42,1.56,2.13.58.66,1.17,1.32,1.77,1.96l1.97,1.76c.71.52,1.41,1.06,2.13,1.56.76.45,1.5.92,2.27,1.35.8.37,1.58.77,2.39,1.12.83.29,1.65.62,2.49.88.85.21,1.7.45,2.56.62.87.12,1.74.25,2.61.34l.84.03c.05,3.12.1,6.25.2,9.37.11,3.71.19,7.42.36,11.13.14,3.71.3,7.42.5,11.13.09,1.85.21,3.71.32,5.56.11,1.85.25,3.71.4,5.56.15-1.85.29-3.71.4-5.56.11-1.85.24-3.71.32-5.56.2-3.71.37-7.42.5-11.13.04-.86.06-1.73.09-2.6.17.58.34,1.15.51,1.71.47,1.48.94,2.95,1.41,4.41.46,1.42.8,2.83,1.09,4.16.06.32.12.64.17.96.07.31.09.7.14,1.05l.06.53v.13s.02.07.02-.04h0s0,.04,0,.04v.06s.02.24.02.24c.03.31.03.63.04.94.01,1.24-.11,2.44-.31,3.52-.21,1.09-.47,2.08-.81,2.92-.34.85-.72,1.55-1.08,2.11-.38.55-.7.96-.97,1.23-.26.27-.4.41-.4.41,0,0,.18-.08.53-.23.33-.16.85-.44,1.4-.9.55-.46,1.22-1.07,1.81-1.91.6-.83,1.19-1.83,1.67-3,.48-1.17.87-2.49,1.08-3.95.05-.36.11-.73.13-1.11l.02-.29v-.07s0-.04,0-.04v-.02s0-.08,0-.08v-.13s.01-.53.01-.53c0-.36.03-.69,0-1.1-.03-.4-.05-.81-.08-1.22-.15-1.59-.43-3.17-.83-4.72-.39-1.55-.85-3.09-1.32-4.57-.48-1.5-.91-2.94-1.3-4.37-.37-1.42-.68-2.81-.84-4.15-.17-1.35-.21-2.61-.09-3.87.1-1.12.39-2.31.76-3.3Z"/>
  </g>
</svg>