<?xml version="1.0" encoding="UTF-8"?>
<svg id="Layer_2" data-name="Layer 2" xmlns="http://www.w3.org/2000/svg" viewBox="0 0 72.03 72.25">
  <g id="Layer_1-2" data-name="Layer 1">
    <path d="M50.65,12.89c-.03-3.58-.07-7.16-.13-10.74l-.04-2.15-2.08.04c-4.03.07-8.07.15-12.1.28-4.03.13-8.07.22-12.1.41l-6.05.26-6.05.33c-2.02.1-4.03.25-6.05.38-2.02.13-4.03.29-6.05.46,2.02.17,4.03.33,6.05.46,2.02.13,4.03.28,6.05.38l6.05.33,6.05.26c4.03.19,8.07.28,12.1.41.92.03,1.84.05,2.76.08.07.03.15.07.27.12.27.09.63.29,1.06.5.43.25.92.58,1.42,1,.51.41.97.97,1.4,1.59.86,1.24,1.41,2.91,1.28,4.62-.02.17-.04.34-.06.51h0s-.01.05-.01.05l-.02.1-.05.2-.1.41-.1.41c-.04.13-.09.15-.13.23-.09.14-.15.28-.21.42l-.35.48-.17.25-.22.21c-.15.13-.28.29-.43.42-.17.11-.34.22-.51.33-.69.4-1.46.7-2.27.69l-.3.02h-.08s-.04.01-.04.01h0s-.06,0-.06,0c-.27-.04-.58-.07-.81-.12-.11-.06-.23-.1-.36-.13-.13-.03-.3-.16-.46-.23-.61-.37-1.15-.89-1.47-1.54-.1-.15-.13-.33-.2-.49-.07-.16-.13-.33-.15-.51-.03-.18-.07-.35-.1-.52v-.02c-.01.05.01-.13-.02.11h0s0-.05,0-.05v-.08s.02-.17.02-.17l.02-.33c0-.26.05-.31.07-.45.02-.13.03-.26.1-.41.06-.14.11-.29.17-.43.08-.13.16-.26.24-.38.15-.27.39-.42.56-.64.21-.16.41-.32.61-.45.21-.1.4-.19.58-.28.18-.08.34-.1.47-.15.27-.08.42-.12.42-.12,0,0-.15-.04-.42-.11-.28-.09-.7-.13-1.28-.1-.28.04-.58.12-.93.2-.31.15-.69.28-1.03.54-.17.13-.35.26-.53.4-.16.16-.32.34-.48.52-.17.17-.31.41-.44.67-.13.24-.3.58-.34.75-.39.96-.4,2.22-.12,3.47.32,1.26,1.1,2.47,2.23,3.39.31.21.56.45.93.63.38.18.78.35,1.18.5.31.09.56.14.84.21l.21.05h.01s.2.03.2.03h.03s.07,0,.07,0h.14s.55.02.55.02c1.49.09,3-.4,4.3-1.15.77-.45,1.41-1.05,1.96-1.72l-.03,6.09v2.31s2.3-.01,2.3-.01l9.38-.04c-.15.06-.29.11-.44.17-1.31.71-2.51,1.69-3.29,3.01-.75,1.3-1.24,2.81-1.15,4.3v.55s.02.14.02.14v.07s0,.03,0,.03l.03.2h0s.05.22.05.22c.07.28.12.53.21.84.15.4.32.8.5,1.18.18.38.42.63.64.93.92,1.13,2.14,1.91,3.39,2.23,1.25.28,2.51.26,3.47-.12.17-.04.51-.22.75-.34.26-.13.51-.27.67-.44.18-.17.37-.32.52-.48.14-.18.27-.36.4-.53.26-.33.39-.71.54-1.03.08-.35.16-.66.2-.93.04-.57,0-.99-.1-1.28-.07-.27-.11-.42-.11-.42,0,0-.04.14-.12.42-.04.13-.06.29-.14.47-.09.17-.19.37-.28.58-.13.2-.3.4-.45.61-.23.17-.38.41-.64.56-.12.08-.25.16-.38.24-.14.06-.29.11-.43.17-.15.07-.28.09-.41.1-.15.02-.19.07-.45.07l-.33.02h-.17s-.08.02-.08.02h-.04s-.01,0-.01,0c.24-.03.06-.01.11-.02h-.02c-.17-.04-.34-.07-.52-.1-.17-.01-.34-.07-.51-.15-.16-.07-.34-.1-.49-.2-.64-.32-1.17-.87-1.54-1.47-.07-.16-.2-.33-.23-.46-.03-.13-.07-.24-.13-.36-.05-.23-.08-.54-.12-.81v-.06s0,0,0,0v-.04s.01-.08.01-.08l.02-.3c0-.81.29-1.58.69-2.27.12-.16.23-.33.33-.51.13-.16.29-.28.42-.43l.21-.22.25-.17.48-.35c.15-.06.29-.12.42-.21.08-.04.11-.1.23-.13l.41-.1.41-.1.2-.05.1-.02h.05s0-.01,0-.01c.17-.02.34-.04.51-.06,1.71-.13,3.38.42,4.62,1.28.61.43,1.18.9,1.59,1.4.11.13.19.25.29.38.03,1.32.06,2.65.11,3.97.13,4.05.22,8.1.41,12.16l.26,6.08.33,6.08c.1,2.03.25,4.05.37,6.08.13,2.03.29,4.05.46,6.08.17-2.03.33-4.05.46-6.08.13-2.03.28-4.05.37-6.08l.33-6.08.26-6.08c.19-4.05.28-8.1.41-12.16.14-4.05.21-8.1.28-12.15l.04-2.08-2.15-.04c-3.58-.06-7.16-.11-10.74-.13l-7.53-.03c4.12-2.72,11.64-6.06,19.08-.99,0,0-2.84-8.37-11.22-6.03,0,0,8.71-2.51,8.79-10.3-7.78.08-10.3,8.79-10.3,8.79,2.34-8.37-6.03-11.22-6.03-11.22,5.23,7.68,1.51,15.44-1.25,19.46l-.04-8.18ZM44.86,5.71c-.78-.63-1.57-1.07-2.31-1.33-.26-.11-.52-.18-.76-.24,1.49.03,2.98.06,4.48.09-.02.97-.02,1.95-.04,2.92-.42-.55-.88-1.04-1.36-1.44ZM67.62,28.38c-.63-.77-1.48-1.51-2.52-2.07-.34-.19-.72-.34-1.1-.49,1.27-.02,2.54-.03,3.81-.05.02.98.04,1.96.06,2.93-.08-.11-.16-.22-.24-.33Z"/>
  </g>
</svg>