<?xml version="1.0" encoding="UTF-8"?>
<svg id="Layer_2" data-name="Layer 2" xmlns="http://www.w3.org/2000/svg" viewBox="0 0 69.71 69.92">
  <g id="Layer_1-2" data-name="Layer 1">
    <g>
      <path d="M69.67,14.73c-.04-.43-.09-.84-.24-1.34l-.21-.7c-.08-.24-.14-.31-.22-.48l-.21-.43-.13-.26-.1-.15-.2-.29c-.55-.73-1.22-1.29-1.92-1.67-1.15-.63-2.39-.86-3.56-.72v-.4s2.92-.97,2.92-.97l1.64-4.92-4.92,1.64-.78,2.34h-.35c.03-1.03-.21-2.11-.76-3.11-.38-.7-.93-1.37-1.67-1.92l-.29-.2-.15-.1-.26-.13-.43-.21c-.16-.07-.24-.14-.48-.22l-.7-.21c-.5-.16-.91-.2-1.34-.24-.43-.06-.85-.04-1.28-.03-.85.03-1.67.18-2.46.42-.79.23-1.55.53-2.28.91l-.14.07-.07.03-.15.09-.22.14-.44.27-.89.54c-.61.42-1.23.89-1.83,1.34-.53.41-1.06.82-1.59,1.22l-.76.53-.37.27-.18.14-.05.03h-.01c.13-.06.03,0,.05-.02l-.03.02-.11.07c-.26.15-.57.36-.79.47-2.2.03-4.4.08-6.6.12-.33-.32-.61-.68-.8-1.06-.32-.63-.45-1.26-.42-1.79.01-.27.08-.5.13-.72.04-.1.08-.2.12-.29,0-.03.06-.11.03-.1.03-.04.06-.06.05-.06.06-.05.2.02.23.07.04.06.02.12.03.12-.01,0,.04-.03.04-.13-.01-.09-.06-.28-.34-.31-.1,0-.15.04-.18.05-.05.04-.09.08-.14.13-.08.07-.17.15-.27.24-.17.19-.37.43-.52.75-.32.62-.54,1.52-.37,2.52.03.21.08.42.13.64-.76.02-1.51.03-2.27.05-2.55.07-5.09.12-7.64.22l-7.64.29-7.64.37c-2.55.13-5.09.3-7.64.48,2.55.18,5.09.35,7.64.48l7.64.37,7.64.29c2.55.1,5.09.14,7.64.22,1.33.04,2.67.06,4,.09.13.11.26.22.42.33.19.14.27.19.4.27l.18.11.32.14c.32.14.66.29,1.01.4.35.09.72.17,1.09.25,1.49.21,3.04,0,4.48-.47.37-.11.75-.27,1.13-.43.36-.15.59-.28.89-.42.46,0,.91.01,1.37.02,2.55.05,5.09.04,7.64.06h1.54s-.1.02-.14.02c-.33.02-.51.02-.51.02,0,0,.16.08.46.22.3.13.78.33,1.43.44.57.1,1.33.15,2.19-.11-3.31,1.95-8.59,3.77-13.84.2,0,0,2.2,6.47,8.67,4.66,0,0-6.73,1.94-6.8,7.96,6.02-.06,7.96-6.8,7.96-6.8-1.81,6.47,4.66,8.67,4.66,8.67-3.63-5.32-1.69-10.69.28-13.98v.04s-.03.06-.04.08c-.38,1-.31,1.86-.2,2.51.07.39.17.71.26.97l.05,8.83c.02.97.03,1.95.05,2.92-.15.36-.31.73-.41,1.09-.47,1.44-.68,2.99-.47,4.48.08.37.16.74.25,1.09.11.35.26.69.4,1.01l.14.32.11.18c.05.07.09.14.14.21.03,1.38.05,2.77.09,4.15l.22,7.72.29,7.72.37,7.72c.14,2.57.3,5.15.49,7.72.19-2.57.35-5.15.49-7.72l.37-7.72.29-7.72.22-7.72c.02-.65.03-1.3.04-1.95.37.13.73.23,1.08.27,1,.16,1.9-.05,2.52-.37.32-.15.56-.35.75-.52.09-.1.17-.19.24-.27.04-.05.09-.1.13-.14.01-.04.04-.08.05-.18-.03-.28-.22-.33-.31-.34-.1,0-.13.05-.13.04,0,0,.05-.02.12.03.06.03.12.17.07.23,0-.02-.01.01-.06.05.01-.04-.07.02-.1.03-.09.04-.18.07-.29.12-.22.05-.45.12-.72.13-.53.04-1.17-.09-1.79-.42-.56-.28-1.09-.76-1.49-1.33.03-1.73.08-3.46.1-5.18.03-.06.05-.13.08-.19.11-.24.25-.44.35-.67.11-.22.33-.55.49-.82l.07-.11.02-.03s.04-.08-.03.05h0s.03-.06.03-.06l.14-.18.27-.37.53-.76c.4-.53.81-1.05,1.22-1.59.44-.6.91-1.22,1.34-1.83l.54-.89.27-.44.14-.22.09-.15.03-.07.07-.14c.38-.72.67-1.49.91-2.28.23-.79.39-1.61.42-2.46.01-.42.04-.84-.03-1.28ZM53.49,6.43c-1.34.01-2.67.01-4.01.02l.27-.19.88-.56.44-.28.19-.12.03-.02.09-.05c.5-.26,1-.52,1.51-.69.51-.18,1.02-.32,1.5-.39.24-.03.49-.08.71-.06.23,0,.48-.02.6,0,.08,0,.16,0,.24,0,.08,0,.28.09.42.12l.45.15.06.02h.03c.12.06-.08-.03-.12-.05l.05.02.12.05c.31.14.61.39.88.68.34.38.58.85.72,1.31l-5.07.03ZM65.62,14.94c.02.22-.03.47-.06.71-.07.48-.21.99-.39,1.5-.17.51-.43,1.01-.69,1.51l-.05.09-.02.03-.12.19-.28.44-.56.88-.65.91.05-9.82c.6.09,1.26.37,1.76.82.29.27.54.56.68.88l.05.12.03.06h0s-.13-.27-.07-.13v.03s.03.06.03.06l.15.45c.04.14.13.34.12.42,0,.08,0,.17,0,.24.03.13.01.37,0,.6Z"/>
      <path d="M5.11,3.17c.27-.02.57-.05.88-.08.31,0,.63.01.97.02.67.04,1.39.1,2.15.24.38.05.75.14,1.13.23.35.08.79.19,1.23.32.78.21,1.66.58,2.52.83.89.31,1.8.62,2.71.93.99.28,2.02.62,2.98.81.47.09.94.16,1.4.23l.69.11.17.03s.18.03.1.02h.01s.02,0,.02,0h.05s.1,0,.1,0h.38c.51.03,1,.05,1.49-.02.49-.04.96-.08,1.41-.2.91-.17,1.75-.48,2.48-.81.36-.2.7-.38,1.01-.56.29-.23.56-.45.82-.65.51-.39.85-.93,1.13-1.26.23-.37.35-.7.46-.91.1-.22.15-.33.15-.33,0,0-.42.29-1.13.79-.18.09-.39.18-.61.28-.22.1-.41.22-.7.29-.26.08-.53.17-.82.26-.31.05-.62.11-.94.17-.66.09-1.36.16-2.11.12-.37,0-.76-.03-1.15-.07-.39-.03-.78-.09-1.18-.17l-.3-.05h-.07s.02,0,.01-.01l-.17-.05-.67-.18c-.45-.12-.91-.24-1.38-.35-.89-.26-1.7-.56-2.57-.81-.94-.29-1.84-.6-2.8-.85-.48-.13-.97-.24-1.44-.35-.24-.05-.47-.11-.71-.16l-.23-.05-.17-.02-.34-.04c-.44-.06-.89-.13-1.41-.14-.49-.03-.97-.05-1.42-.01-.91.03-1.77.18-2.54.37-.39.12-.75.23-1.09.35-.33.16-.64.31-.93.46-.58.27-1,.68-1.36.93-.33.31-.55.6-.71.77-.15.18-.23.28-.23.28,0,0,.46-.16,1.27-.44.42-.07.89-.22,1.45-.27Z"/>
      <path d="M68.89,58.55v-.1s0-.05,0-.05v-.02s0-.01,0-.01c.01.08-.02-.12-.02-.1l-.03-.17-.11-.69c-.07-.46-.14-.93-.23-1.4-.19-.96-.53-1.99-.81-2.98-.31-.91-.62-1.82-.93-2.71-.25-.86-.62-1.74-.83-2.52-.13-.44-.24-.88-.32-1.23-.1-.37-.18-.74-.23-1.13-.15-.76-.21-1.47-.24-2.15,0-.34-.01-.66-.02-.97.03-.31.05-.6.08-.88.05-.56.2-1.02.27-1.45.28-.81.44-1.27.44-1.27,0,0-.1.08-.28.23-.17.16-.46.38-.77.71-.25.36-.66.78-.93,1.36-.14.29-.29.6-.46.93-.12.34-.23.7-.35,1.09-.19.77-.35,1.63-.37,2.54-.04.45-.01.93.01,1.42.01.52.08.96.14,1.41l.04.34.02.17.05.23c.05.24.11.47.16.71.11.48.22.96.35,1.44.25.96.56,1.86.85,2.8.26.87.55,1.68.81,2.57.11.46.23.92.35,1.38l.18.68.05.17s0,0,0-.01v.07s.06.3.06.3c.08.4.14.79.17,1.18.04.39.08.77.07,1.15.03.75-.04,1.46-.12,2.11-.06.32-.13.63-.17.94-.09.29-.18.57-.26.82-.07.28-.2.48-.29.7-.1.22-.2.43-.28.61-.5.7-.79,1.13-.79,1.13,0,0,.12-.05.33-.15.21-.11.53-.23.91-.46.33-.29.87-.62,1.26-1.13.21-.26.42-.53.65-.82.19-.31.37-.65.56-1.01.34-.73.65-1.57.81-2.48.12-.45.15-.93.2-1.41.07-.49.05-.98.03-1.49v-.38ZM65.75,58.81h0s0-.04,0,0Z"/>
    </g>
  </g>
</svg>