<?xml version="1.0" encoding="UTF-8"?>
<svg id="Layer_2" data-name="Layer 2" xmlns="http://www.w3.org/2000/svg" viewBox="0 0 68.1 70.64">
  <g id="Layer_1-2" data-name="Layer 1">
    <path d="M28.41,3.59s0,0,0,0h-.02s-.02-.01-.02,0c-.02,0-.01,0-.01,0,0,0,0,0,0,0h0s0-.01,0-.01h.03s0-.02,0-.02c0,0,0,0,0,0l-.03-.02-.06-.04h.04s.05.03.07.05c0,0,0,0,0,0l.37-.16c.14-.04.18-.02.28-.06.06-.03.29-.04.42-.06,1.45-.07,3.03-.22,4.43-.33,1.43-.11,2.77-.25,4.02-.39,2.48-.26,4.55-.55,6-.76,1.45-.22,2.28-.38,2.28-.38,0,0-.83-.12-2.28-.25-1.45-.14-3.54-.31-6.04-.43-1.25-.07-2.6-.13-4.03-.16-1.45-.04-2.88-.09-4.55-.09-.25.02-.42,0-.74.05-.29.05-.64.12-.88.19l-.56.2-.2.09-.06.04-.12.08-.24.18c-.16.12-.32.25-.43.42-.56.64-.72,1.49-.65,2.26.03.19.07.39.12.58.07.18.15.36.24.54.12.31.68.87.89,1.01l.25.17.03.02h.02s.21.13.21.13l.07.03.14.07.57.27,1.14.53c.78.34,1.58.66,2.37.99.84.29,1.71.57,2.56.84l1.21.28.6.13.3.07.23.05.16.02c1.75.3,3.52.28,5.21.04.93-.13,1.84-.37,2.71-.68-.02.33,0,.63.06.87.04.29.2.5.26.63.08.13.12.19.12.19,0,0,.02-.08.06-.22.04-.14.07-.34.2-.56.08-.23.28-.46.44-.7.11-.1.23-.21.35-.33.13-.09.27-.19.41-.29.16-.06.31-.18.44-.2.14-.02.17-.07.49-.12.32-.07.67-.01,1,.05.35.07.69.25,1.02.43.16.11.33.23.41.31.05.04.11.06.22.2l.15.16.07.08c.51.6.88,1.41,1.09,2.28.04.22.09.34.13.63l.05.4s0,.2.02.29c.03.44.06.88.03,1.29,0,.42-.01.81-.05,1.16-.01.15-.02.29-.03.42-.14-.02-.29-.02-.44,0l-.29.05h0s-.77.34-.77.34c-.25.12-.51.21-.75.35-.48.29-.98.52-1.42.87-.46.31-.88.67-1.28,1.05-.21.17-.38.39-.57.59-.18.2-.37.4-.52.62-.33.42-.61.88-.88,1.34-.24.47-.46.94-.64,1.43-.06.15-.1.31-.15.47-.13-.01-.24-.02-.37-.03-.28,0-.58-.06-.86-.11l-.11-.02h-.05s-.03,0-.03,0h0s0,0,0,0c.2,0,.05,0,.1,0h-.02s-.27-.06-.27-.06c-.18-.05-.39-.06-.55-.11-.21-.14-.38-.17-.62-.32-.24-.09-.39-.27-.59-.37h0s-.03-.03-.03-.03l-.11-.1c-.1-.09-.1-.1-.11-.12-.02-.02-.09-.11-.16-.19-.1-.17-.22-.34-.28-.52-.06-.17-.13-.35-.13-.53.04-.24.03-.22.01-.29-.02-.07.05-.18.06-.29.08-.2.18-.39.31-.56.14-.14.27-.3.42-.38.29-.2.54-.26.54-.28,0,0-.04-.04-.13-.11-.09-.06-.23-.2-.45-.25-.22-.08-.49-.13-.83-.11-.16.02-.34.05-.53.09-.18.06-.37.14-.57.24-.18.13-.37.22-.57.43-.2.2-.41.5-.48.6-.3.46-.45,1.04-.47,1.63,0,.25.01.51.06.76-.02.03-.05.04-.07.08-.21.33-.55.7-.73,1.18-.18.48-.41,1.03-.44,1.64-.03.3-.09.63-.05.95.02.32.07.65.11.99.04.34.18.66.28.99.06.17.11.34.17.5l.25.47c.31.65.79,1.19,1.27,1.74.55.47,1.09.95,1.74,1.26l.47.25c.16.06.33.12.5.17.34.1.65.24.99.28.34.04.67.09.99.11.32.03.64-.03.95-.05.61-.03,1.16-.26,1.64-.44.37-.13.69-.36.97-.56.47.17.97.27,1.46.25.59-.03,1.17-.17,1.63-.47.1-.07.4-.28.6-.48.21-.2.3-.39.43-.57.1-.2.18-.39.24-.57.04-.19.07-.37.09-.53.02-.34-.03-.62-.11-.83-.05-.21-.19-.36-.25-.45-.07-.09-.11-.13-.11-.13-.01,0-.08.25-.28.54-.08.15-.25.28-.38.42-.17.13-.37.23-.56.31-.1.02-.22.08-.29.06-.07-.02-.05-.02-.29.01-.18,0-.36-.07-.53-.13-.18-.06-.35-.18-.52-.28-.08-.07-.17-.14-.19-.16-.02-.01-.03,0-.12-.11l-.1-.11-.03-.03h0c-.11-.2-.28-.34-.37-.59-.15-.23-.18-.41-.32-.62-.05-.16-.06-.37-.11-.55l-.06-.27v-.02s0-.11,0,.1h0s0-.01,0-.01v-.03s0-.05,0-.05l-.02-.11c-.05-.29-.1-.58-.11-.86-.01-.1-.01-.18-.02-.27.2-.06.4-.15.6-.23.23-.1.48-.18.71-.31l.69-.37c.24-.12.44-.28.66-.43.22-.15.44-.3.64-.48.2-.17.42-.33.61-.52l.58-.57c.36-.4.71-.82,1.03-1.27.31-.45.6-.92.86-1.42.13-.25.25-.5.36-.77.12-.28.21-.51.32-.88.05-.18.06-.37.04-.56.14,0,.29-.02.44-.03.35-.03.74-.05,1.16-.05.41-.03.85,0,1.29.03.09.01.27,0,.29.02l.4.05c.29.03.41.08.63.13.87.21,1.68.58,2.28,1.09l.08.07.16.15c.13.12.16.17.2.22.08.08.2.26.31.41.18.33.35.67.43,1.02.06.34.12.69.05,1-.04.19-.07.28-.09.35-.02.03-.03.05-.05.08-.16.28-.3.58-.45.87,0,.01-.02.03-.03.04-.12.12-.23.24-.33.35-.24.17-.47.36-.7.44-.22.12-.42.15-.56.2-.15.04-.22.06-.22.06,0,0,.07.04.19.12.13.06.34.22.63.26.12.03.26.05.4.06-.25.75-.43,1.52-.54,2.32-.24,1.69-.25,3.46.04,5.21l.02.16.05.23.07.3.13.6.28,1.21c.27.85.55,1.72.84,2.56.33.79.65,1.6.99,2.37l.53,1.14.27.57.07.14.03.07.12.21v.02s.03.03.03.03l.17.25c.14.21.69.77,1.01.89.18.09.36.17.54.24.19.05.38.09.58.12.77.08,1.62-.09,2.26-.65.17-.12.3-.27.42-.43l.18-.24.08-.12.04-.06.09-.2.2-.56c.07-.23.14-.59.19-.88.06-.32.04-.49.05-.74,0-1.66-.05-3.09-.09-4.55-.03-1.43-.1-2.78-.16-4.03-.12-2.5-.29-4.58-.43-6.04-.14-1.46-.25-2.28-.25-2.28,0,0-.16.83-.38,2.28-.22,1.45-.51,3.52-.76,6-.14,1.24-.28,2.59-.39,4.02-.12,1.4-.26,2.98-.33,4.43-.02.13-.03.36-.06.42-.04.09-.01.14-.06.28l-.16.37s0,0,0,0c.02.02.03.04.04.07v.04s-.03-.06-.03-.06l-.02-.03s0,0,0,0h0s-.01.03-.01.03h0s0,0,0,0c0,0,0,0,0,0,0,0,.01,0,0-.01.01,0,.01-.01.01-.02v-.02s-.01,0-.01,0c0,0,0,0,0,0l-.07-.11h0s-.06-.15-.06-.15l-.24-.56-.49-1.11c-.32-.74-.6-1.49-.9-2.23-.25-.72-.5-1.44-.75-2.16l-.3-1.2-.15-.6-.08-.3-.02-.07v-.02s-.02-.12-.02-.12c-.29-1.47-.42-2.95-.3-4.36.12-1.41.41-2.73.88-3.86.16-.32.32-.64.47-.95l.03-.06h0s.06-.09.06-.09l.13-.2.25-.4c.31-.53.73-1.02,1.08-1.52.81-1.02,1.46-1.87,2.04-2.83.55-.91.88-1.81,1.04-2.56.17-.74.14-1.37.11-1.75-.07-.39-.11-.59-.11-.59,0,0,0,.04-.01.1,0-.01-1.72-2.26-4.26-2.73-.24-.04-.47-.05-.7-.07.96-.43,1.95-1.03,2.79-1.87,2.73-2.73,2.92-6.97,2.92-6.97,0,0-4.24.19-6.97,2.92-.84.84-1.44,1.83-1.87,2.79-.01-.23-.02-.46-.07-.7-.46-2.54-2.73-4.26-2.73-4.26,0,0-1.51,2.41-1.05,4.95.16.89.55,1.67.98,2.32,0,0,0,0,0,0-.21.17-.38.39-.57.59-.18.2-.37.4-.52.62-.33.42-.61.88-.88,1.34-.14.28-.28.56-.4.84,0-.15,0-.3,0-.43-.01-.67-.12-1.37-.35-2.06-.24-.7-.62-1.37-1.11-1.98h-.01s0-.02,0-.02l-.08-.09-.02-.02-.04-.04-.08-.08-.16-.15c-.08-.09-.26-.24-.44-.38-.36-.31-.71-.47-1.05-.65-.4-.18-.82-.31-1.24-.4.08-.08.16-.17.24-.25.42-.45.83-.88,1.21-1.29.2-.21.39-.41.57-.6.16-.17.36-.34.53-.51.72-.64,1.42-1.13,2.05-1.42.63-.3,1.16-.46,1.55-.52.39-.05.6-.08.6-.08,0,0-.21-.04-.59-.11-.39-.04-1.01-.07-1.75.11-.75.16-1.64.48-2.56,1.04-.96.59-1.81,1.23-2.83,2.04-.49.35-.98.78-1.52,1.08l-.4.25-.2.13-.09.06h0s-.06.03-.06.03c-.31.16-.63.31-.95.47-1.13.47-2.45.76-3.86.88-1.41.12-2.89-.02-4.36-.3l-.12-.02h-.02s-.07-.02-.07-.02l-.3-.08-.6-.15-1.2-.3c-.72-.25-1.44-.5-2.16-.75-.74-.3-1.49-.59-2.23-.9l-1.11-.49-.56-.24-.14-.06h-.01s-.11-.08-.11-.08c0,0,0,0,0,0ZM64.76,39.88s0,0-.02,0c0-.02,0-.02,0-.02,0,0,0,0,0,0,0,0,0,0,0,0,0,0,0,0,.02.02ZM42.73,30.11c-.2-.09-.4-.16-.6-.23-.2-.07-.39-.21-.59-.3-.2-.09-.39-.21-.57-.35-.39-.23-.71-.56-1.06-.86-.3-.35-.62-.67-.86-1.06-.14-.18-.26-.37-.35-.57-.09-.2-.23-.39-.3-.59-.07-.2-.14-.4-.23-.6-.1-.2-.09-.41-.15-.61-.09-.26-.11-.52-.12-.77.01.01.04.04.05.05l.11.11.05.06.03.03h.01s.08.09.08.09h0s.01.01.01.01c.49.34.98.69,1.52.82.5.21,1.13.24,1.67.26.22-.02.39-.05.58-.08l.27-.05h.02s.11,0,.11,0h0s0,0,0,0h.04s.08-.04.08-.04l.15-.05c.21-.07.4-.14.58-.22-.01.17-.03.34-.03.51.06-.2.13-.4.21-.6.11-.06.23-.11.32-.17.04-.02.07-.05.1-.07-.02.04-.05.06-.07.1-.12.18-.22.39-.31.62l-.25.12.22-.04c-.05.12-.1.24-.14.38l-.05.15-.02.08v.04s-.02.01-.02.01h0s0,.11,0,.11v.02s-.06.27-.06.27c-.04.19-.07.36-.08.58.02.54.05,1.17.26,1.67.13.52.46,1,.78,1.46-.26-.02-.53-.04-.8-.12-.2-.06-.41-.06-.61-.15ZM48.44,21.04l-.34.59c-.11.2-.25.37-.38.57-.13.19-.27.37-.42.54-.15.17-.29.37-.46.52l-.51.49c-.17.17-.37.29-.55.45-.09.07-.17.13-.26.2,0-.18-.02-.35-.02-.51,0-.4-.05-.64-.05-.64,0,0-.24-.04-.64-.05-.11,0-.24-.01-.36-.02.03-.05.07-.1.1-.16.28-.39.58-.76.9-1.1.33-.33.67-.65,1.04-.92.17-.15.37-.27.56-.39.19-.12.37-.25.58-.35.4-.21.8-.4,1.22-.54.05-.02.11-.03.16-.05-.01.04-.02.09-.04.13-.15.42-.33.82-.53,1.23ZM67.35,12.2c-.01.1-.03.26-.06.5-.06.39-.22.91-.52,1.55-.3.63-.78,1.33-1.42,2.05-.17.17-.34.37-.51.53-.2.19-.4.38-.6.57-.41.38-.84.79-1.29,1.21-.02.02-.05.05-.07.07-.07-.23-.15-.46-.25-.68-.18-.34-.34-.69-.65-1.05-.14-.18-.29-.36-.38-.44l-.15-.16-.08-.08-.04-.04-.02-.02-.09-.08h0s-.01-.02-.01-.02c-.61-.5-1.29-.87-1.98-1.11-.7-.23-1.4-.34-2.06-.35-.24,0-.53,0-.76.02.15-.06.3-.12.45-.2l.69-.37c.24-.12.44-.28.66-.43.22-.15.44-.3.64-.48.2-.17.42-.33.61-.52l.51-.5c.67.47,1.51.9,2.47,1.07,2.54.46,4.94-1.04,4.95-1.05ZM52.53,16.05c.24-.32.49-.69.7-1.13,0-.01.01-.03.02-.04-.02.23-.04.45-.05.68.29-.95.74-1.83,1.29-2.62.28-.39.58-.76.9-1.1.33-.33.67-.65,1.04-.92.17-.15.37-.27.56-.39.19-.12.37-.25.58-.35.04-.02.08-.04.11-.06.27.25.45.4.45.4,0,0,.03-.04.07-.12,0,.03,0,.05,0,.05,0,0,.02,0,.05,0-.08.04-.12.07-.12.07,0,0,.1.13.28.33-.01.03-.02.06-.04.09l-.34.59c-.11.2-.25.37-.38.57-.13.19-.27.37-.42.54-.15.17-.29.37-.46.52l-.51.49c-.17.17-.37.29-.55.45-.19.14-.37.31-.58.42l-.62.38c-.2.14-.43.22-.65.33l-.67.32.61-.11s-.03.01-.04.02c-.44.2-.82.46-1.13.7-.15.1-.28.2-.4.3,0,0,0,0,0,0,.1-.12.2-.25.3-.4ZM28.43,3.62s0,0,0,0c0,0,0,.01,0,0,0,0,0,0-.02,0,0,0,0-.01,0-.02,0,.02.01.02.02.02Z"/>
    <path d="M28.39,3.58s.01,0,.02.01c0-.01-.01-.02-.02-.03h-.02s.02.02.02.02Z"/>
    <path d="M64.79,39.91v.02s.02-.02.02-.02c0-.01-.02-.02-.03-.02,0,0,.01.01.01.02Z"/>
    <path d="M21.36,6.79c-.62-.34-1.21-.68-1.78-1.02-.59-.34-1.18-.69-1.77-1.03-1.18-.69-2.39-1.35-3.58-1.95-1.2-.6-2.4-1.14-3.58-1.57-1.17-.45-2.35-.75-3.43-.97-.55-.1-1.09-.16-1.59-.22-.51-.03-1-.03-1.45-.04-.91.04-1.68.14-2.31.32-.63.11-1.08.35-1.4.47-.31.13-.47.2-.47.2,0,0,.18,0,.51.02.33.01.81,0,1.4.1.59.05,1.3.23,2.08.41.39.13.8.25,1.22.4.42.19.86.33,1.31.54.9.42,1.86.89,2.85,1.48.99.56,2.02,1.23,3.09,1.91,1.08.71,2.19,1.44,3.32,2.18.58.37,1.15.76,1.77,1.12.62.38,1.23.74,1.83,1.09,1.27.7,2.48,1.36,3.77,1.96,1.27.61,2.55,1.16,3.84,1.62,1.28.47,2.55.84,3.79,1.1,1.23.27,2.43.41,3.54.46.55.03,1.09,0,1.59,0,.5-.04.98-.1,1.42-.15.89-.14,1.64-.32,2.25-.53.62-.17,1.04-.41,1.35-.54.3-.14.46-.22.46-.22,0,0-.18,0-.51,0-.33,0-.83.03-1.43-.02-.59,0-1.32-.11-2.13-.21-.81-.14-1.71-.33-2.66-.6-.96-.28-1.97-.61-3.03-1.05-1.06-.42-2.15-.92-3.28-1.48-1.13-.55-2.28-1.17-3.45-1.81-1.17-.65-2.36-1.32-3.55-1.98Z"/>
    <path d="M66.22,70.64s.08-.16.22-.46c.13-.31.37-.73.54-1.35.21-.61.4-1.37.53-2.25.05-.44.11-.92.15-1.42.01-.5.03-1.04,0-1.59-.05-1.11-.19-2.31-.46-3.54-.26-1.24-.63-2.52-1.1-3.79-.45-1.29-1.01-2.57-1.62-3.84-.6-1.28-1.26-2.5-1.96-3.77-.34-.6-.71-1.21-1.09-1.83-.37-.62-.75-1.19-1.12-1.77-.74-1.13-1.48-2.25-2.18-3.32-.68-1.07-1.35-2.1-1.91-3.09-.59-.99-1.06-1.94-1.48-2.85-.21-.45-.36-.89-.54-1.31-.15-.42-.27-.83-.4-1.22-.18-.78-.36-1.49-.41-2.08-.1-.6-.09-1.07-.1-1.4-.02-.34-.02-.51-.02-.51,0,0-.07.16-.2.47-.11.31-.36.77-.47,1.4-.17.62-.28,1.4-.32,2.31.01.45,0,.93.04,1.45.06.5.11,1.04.22,1.59.22,1.09.52,2.26.97,3.43.43,1.19.97,2.38,1.57,3.58.61,1.19,1.26,2.4,1.95,3.58.34.59.68,1.18,1.03,1.77.34.57.68,1.16,1.02,1.78.66,1.19,1.33,2.38,1.98,3.55.63,1.18,1.26,2.32,1.81,3.45.56,1.12,1.06,2.22,1.48,3.28.44,1.05.77,2.07,1.05,3.03.27.96.46,1.85.6,2.67.09.81.2,1.53.21,2.13.04.6.02,1.1.02,1.43,0,.33,0,.51,0,.51Z"/>
  </g>
</svg>