<?xml version="1.0" encoding="UTF-8"?>
<svg id="Layer_2" data-name="Layer 2" xmlns="http://www.w3.org/2000/svg" viewBox="0 0 77.51 77.07">
  <g id="Layer_1-2" data-name="Layer 1">
    <path d="M32.82,11.42l.14-.18.06-.08h0c.17-.14.32-.28.47-.43.13-.17.36-.25.54-.38.19-.12.38-.25.59-.32.21-.09.38-.19.62-.28l.86-.26.16-.05h.02s.05-.01.05-.01l.1-.02.38-.08c.25-.06.51-.1.77-.13,1.02-.13,2.06-.15,3.07-.03,1,.12,1.99.3,2.88.61.9.29,1.75.64,2.5,1.04.38.19.73.41,1.06.62.35.19.64.42.93.63.56.43,1.06.83,1.41,1.19.38.35.67.67.86.88.2.21.3.32.3.32,0,0-.05-.15-.14-.42-.1-.27-.22-.67-.49-1.16-.24-.51-.58-1.08-1.05-1.7-.47-.62-1.05-1.3-1.8-1.92-.73-.64-1.6-1.26-2.61-1.77-1-.54-2.14-.93-3.36-1.21-1.22-.28-2.54-.38-3.88-.27-.34.02-.67.05-1,.12l-.5.08-.13.02h-.06s-.03.02-.03.02l-.12.03-.22.06-.87.25c-.33.11-.7.28-1.05.42-.36.14-.68.35-.99.55-.31.22-.64.38-.91.67-.28.27-.56.54-.83.82h-.01s-.08.11-.08.11l-.02.02-.03.05-.06.09-.13.18c-.07.09-.19.31-.3.51-.24.42-.35.78-.48,1.16-.08.39-.19.78-.19,1.19-.07.8.08,1.65.44,2.4l.14.28.07.14.04.07.08.12.02.02.26.33c.27.31.63.66.91.84.61.42,1.24.7,1.85.85.31.07.61.14.91.17l.22.02h.11s.03.01.03.01h.1s.01,0,.01,0h.05s.37-.01.37-.01c.45,0,1.06-.09,1.59-.19,1.02-.24,1.86-.63,2.52-1.09.33-.22.64-.43.88-.69.25-.24.48-.44.64-.68.17-.22.33-.41.45-.59.1-.19.19-.35.26-.48.13-.26.2-.39.2-.39,0,0-.12.1-.35.27-.11.09-.24.2-.4.32-.17.11-.37.23-.59.37-.21.15-.47.26-.75.38-.27.13-.57.25-.9.34-.64.22-1.41.31-2.18.34-.37-.03-.7-.02-1.22-.13l-.37-.06h-.05s-.01,0-.01,0c-.08,0,.09,0,.07,0h-.02s-.07-.03-.07-.03l-.15-.04c-.2-.05-.38-.14-.57-.22-.37-.17-.7-.39-.95-.63-.16-.15-.17-.21-.27-.31l-.22-.36v-.02s-.08-.1.04.08h0s0-.03,0-.03l-.02-.05-.04-.11c-.2-.53-.04-1.41.3-1.97.03-.06.04-.11.16-.25Z"/>
    <path d="M9.92,14.16c.56.11,1.16.28,1.81.33.65.06,1.34.15,2.05.18.71-.01,1.46.01,2.21-.04.75-.09,1.51-.15,2.27-.28.75-.18,1.51-.29,2.22-.53.73-.2,1.42-.46,2.09-.74.68-.24,1.28-.6,1.86-.89.57-.33,1.11-.64,1.57-.97.47-.32.89-.64,1.24-.94.36-.29.64-.58.88-.81.46-.47.69-.78.69-.78,0,0-1.27.81-3.27,1.71-.49.24-1.05.43-1.62.68-.59.2-1.2.45-1.85.64-.32.1-.65.2-.98.3-.34.08-.68.16-1.02.26-.68.21-1.39.3-2.09.45-.7.14-1.42.21-2.12.32-.71.04-1.4.12-2.08.17-.68.02-1.34.03-1.96.05-.63.03-1.22-.04-1.77-.04-.55-.03-1.06,0-1.51-.06-.45-.03-.84-.06-1.17-.09-.65-.04-1.03-.05-1.03-.05,0,0,.35.14.96.37.31.11.69.25,1.13.39.43.16.94.26,1.5.38Z"/>
    <path d="M73.42,29.03c-1.17-1.72-2.58-3.1-3.92-4.27-.72-.54-1.36-1.1-2.07-1.51-.34-.21-.68-.42-1-.62-.34-.17-.67-.34-.99-.51-.63-.34-1.24-.6-1.83-.8-.29-.1-.56-.21-.83-.3-.27-.07-.54-.14-.79-.21-.49-.13-.93-.25-1.31-.31-.15-.02-.29-.04-.42-.05l1.39-.35c.26-.02.51-.08.74-.19l.16-.04v-.03c.3-.15.56-.36.77-.64,0,0,.06-.08.18-.23.06-.07.13-.17.21-.27.06-.08.14-.17.22-.27.15-.19.41-.48.69-.75.28-.29.63-.58,1.03-.88.8-.58,1.83-1.14,3.03-1.42.6-.14,1.24-.19,1.89-.16h.22s.28.05.28.05c.12.02.26.04.43.08.32.08.63.19.94.32.61.27,1.2.64,1.62,1.09.21.22.38.46.49.7.16.39.23.61.31.94.13.61.06,1.15-.23,1.63-.29.47-.78.89-1.23,1.11-.97.45-2.02.24-2.62-.02-.32-.13-.54-.28-.7-.39-.15-.12-.22-.18-.22-.18,0,0,.07.08.19.22.13.13.33.33.63.53.59.37,1.62.86,2.96.54.66-.2,1.27-.55,1.84-1.15.57-.6.88-1.55.84-2.43,0-.41-.09-.94-.17-1.28-.12-.49-.32-.95-.58-1.35-.52-.82-1.22-1.44-1.98-1.97-.38-.26-.79-.49-1.21-.69-.21-.1-.44-.19-.7-.28l-.29-.1-.36-.09c-.89-.22-1.81-.32-2.69-.28-1.71.06-3.26.54-4.5,1.12.03-.17.06-.33.09-.5.18-1.39.16-3.07-.33-4.78-.24-.85-.62-1.69-1.11-2.47l-.2-.32-.18-.25c-.16-.22-.33-.41-.48-.58-.32-.34-.67-.66-1.03-.94-.74-.56-1.55-1.02-2.49-1.26-.47-.12-.96-.17-1.47-.13-.35.03-.87.12-1.27.24-.84.23-1.65.83-2.04,1.55-.39.72-.53,1.41-.51,2.1.11,1.37.9,2.21,1.44,2.65.28.23.53.35.7.44.17.07.27.11.27.11,0,0-.08-.05-.24-.16-.15-.12-.36-.28-.59-.54-.43-.49-.96-1.42-.84-2.48.08-.49.32-1.09.67-1.52.36-.43.86-.67,1.48-.73.34-.03.57-.03.99,0,.26.03.54.12.82.25.55.26,1.09.7,1.54,1.2.22.25.43.52.6.8.09.14.16.27.21.38l.13.26.07.2c.24.61.39,1.23.44,1.84.11,1.23-.1,2.38-.4,3.32-.16.47-.33.89-.51,1.25-.17.35-.36.69-.5.89-.07.11-.14.21-.19.3-.08.11-.14.21-.19.29-.11.15-.16.24-.16.24-.08.11-.15.25-.21.37-.02.05-.03.1-.05.15h-.05s-.74,2.96-.74,2.96h-.15c-.01-.13-.04-.35-.08-.69-.03-.26-.08-.59-.13-.97-.06-.38-.19-.82-.31-1.31-.07-.25-.14-.51-.21-.79-.1-.26-.2-.54-.3-.83-.2-.59-.46-1.2-.8-1.83-.16-.32-.33-.65-.51-.99-.2-.32-.41-.66-.62-1-.4-.71-.97-1.35-1.51-2.07-1.17-1.34-2.55-2.75-4.27-3.92-1.71-1.18-3.66-2.27-5.86-2.99C40.55.38,38.14-.04,35.66,0l-.93.04-.47.02h-.12s-.25.04-.25.04l-.21.03-1.65.26-.83.14-.91.24-1.83.49c-1.15.38-2.23.78-3.32,1.19-1.05.42-2.12.88-3.11,1.31-1,.43-1.98.86-2.96,1.28-.48.21-.96.41-1.44.61-.47.18-.94.36-1.4.53-.93.4-1.85.62-2.74.91l-.67.21c-.15.05-.46.11-.68.17-.45.09-.81.17-1.24.23-1.63.22-3.1.12-4.21-.56-.47-.25-1.01-.72-1.32-1.18-.21-.22-.28-.48-.42-.73-.06-.25-.19-.51-.18-.76-.01-.1-.03-.3-.04-.33.02-.15.04-.36.06-.42.01-.16.12-.43.22-.63.21-.42.54-.78.88-1.04.69-.51,1.43-.66,1.93-.6.24.04.44.08.57.14.13.05.2.07.2.07-.01.02-.18-.23-.68-.48-.5-.23-1.41-.41-2.47,0-.52.2-1.07.53-1.57,1.05-.25.28-.47.53-.66.98-.11.24-.14.35-.2.52-.08.29-.08.43-.12.67-.09.43-.03.87,0,1.33.1.43.17.92.38,1.34.37.91.94,1.67,1.8,2.42,1.57,1.41,3.92,1.95,6.09,1.93.53,0,1.14-.04,1.66-.09.27-.03.45-.04.78-.1l.79-.15c1.06-.19,2.16-.4,3.21-.73.53-.15,1.07-.31,1.6-.46.52-.18,1.04-.36,1.56-.55,1.06-.36,2.08-.75,3.11-1.16,1.01-.39,2.03-.78,3.05-1.17,1-.36,2.02-.72,3-1.04l1.4-.4.7-.21.82-.15,1.64-.3.2-.04h0s.05,0,.05,0l.36-.03.72-.06c1.92-.1,3.84.09,5.68.51,1.84.43,3.56,1.14,5.13,1.94,1.6.79,2.96,1.8,4.2,2.78.59.52,1.19,1,1.68,1.54.26.26.51.51.75.76.22.27.44.52.65.77.21.25.42.49.6.74.17.25.34.49.51.73.17.23.33.46.49.67.13.22.26.44.38.64.23.41.47.78.65,1.12.17.35.31.64.42.88.15.29.24.49.3.61H0v2.25h56.92l-.15.6.82-.2v55.95h2.25V20.74c.2.1.42.2.69.33.34.18.7.42,1.12.65.2.12.42.25.64.38.21.16.44.32.67.49.23.17.47.34.73.51.25.18.49.4.74.6.25.21.51.43.77.65.25.24.5.5.76.75.53.49,1.01,1.09,1.54,1.68.98,1.24,1.99,2.6,2.78,4.2.8,1.58,1.51,3.29,1.94,5.13.42,1.84.62,3.76.51,5.68l-.06.72-.03.36v.05s0,0,0,0l-.04.2-.3,1.64-.15.82-.21.7-.4,1.4c-.31.98-.67,2-1.04,3-.39,1.02-.79,2.04-1.17,3.05-.41,1.03-.8,2.05-1.16,3.11-.18.52-.36,1.05-.55,1.56-.16.54-.31,1.07-.46,1.6-.33,1.04-.53,2.14-.73,3.21l-.15.79c-.06.34-.06.52-.1.78-.05.53-.1,1.13-.09,1.66-.01,2.16.53,4.52,1.93,6.09.75.86,1.51,1.43,2.42,1.8.42.21.91.29,1.34.38.47.03.9.09,1.33,0,.23-.04.38-.04.67-.12.16-.06.28-.09.52-.2.44-.19.7-.41.98-.66.52-.49.85-1.05,1.05-1.57.41-1.05.23-1.97,0-2.47-.25-.51-.5-.67-.48-.68,0,0,.02.07.07.2.06.12.1.32.14.57.06.5-.08,1.23-.6,1.93-.26.34-.61.67-1.04.88-.2.1-.47.21-.63.22-.05.02-.26.04-.42.06-.03-.02-.23-.03-.33-.04-.25,0-.51-.12-.76-.18-.24-.14-.5-.22-.73-.43-.46-.31-.93-.85-1.18-1.32-.69-1.11-.78-2.58-.56-4.21.06-.43.13-.79.23-1.24.06-.22.11-.53.17-.68l.21-.67c.29-.9.51-1.81.91-2.74.18-.46.36-.93.53-1.4.2-.48.41-.95.61-1.44.42-.98.85-1.96,1.28-2.96.43-.99.89-2.06,1.31-3.11.41-1.08.82-2.17,1.19-3.32l.49-1.83.24-.91.14-.83.26-1.65.03-.21.03-.25v-.12s.03-.47.03-.47l.04-.93c.04-2.48-.38-4.89-1.1-7.08-.72-2.2-1.81-4.15-2.98-5.86Z"/>
    <path d="M62.63,38.34c.12-.28.23-.54.38-.75.14-.22.26-.42.37-.59.13-.16.24-.29.32-.4.18-.23.27-.35.27-.35,0,0-.14.07-.39.2-.13.07-.29.16-.48.26-.18.12-.37.27-.59.45-.23.16-.44.39-.68.64-.26.24-.46.54-.69.88-.46.66-.85,1.5-1.09,2.52-.1.54-.19,1.15-.19,1.59v.37s-.01.05-.01.05h0s0,.11,0,.11v.03s.01.11.01.11l.02.22c.03.3.1.6.17.91.15.62.43,1.25.85,1.85.18.28.53.64.84.91l.33.26.02.02.12.08.07.04.14.07.28.14c.75.36,1.6.51,2.4.44.41,0,.79-.11,1.19-.19.38-.13.74-.24,1.16-.48.2-.11.42-.23.51-.3l.18-.13.09-.06.05-.03.02-.02.1-.08h.01c.28-.28.56-.56.82-.84.3-.27.46-.6.67-.92.21-.31.41-.63.55-.99.15-.35.31-.72.42-1.05l.25-.87.06-.22.03-.12v-.03s.02-.06.02-.06l.02-.13.08-.5c.06-.33.1-.67.12-1,.11-1.34.01-2.66-.27-3.88-.28-1.22-.68-2.37-1.21-3.36-.52-1.01-1.13-1.88-1.77-2.61-.61-.75-1.3-1.33-1.92-1.8-.62-.47-1.2-.81-1.7-1.05-.49-.27-.89-.39-1.16-.49-.27-.09-.42-.14-.42-.14,0,0,.11.11.32.3.22.19.54.48.88.86.36.36.76.86,1.19,1.41.21.29.44.58.63.93.21.33.43.67.62,1.06.41.74.75,1.6,1.04,2.5.31.9.49,1.88.61,2.88.12,1.01.1,2.05-.03,3.07-.03.26-.06.51-.13.77l-.08.38-.02.1v.05s-.01.02-.01.02l-.05.16-.26.86c-.09.24-.19.41-.28.62-.07.21-.2.4-.32.59-.13.18-.21.42-.38.54-.15.15-.29.3-.42.47h0s-.08.07-.08.07l-.18.14c-.14.12-.19.12-.25.16-.56.34-1.44.5-1.97.3l-.11-.04-.05-.02h-.03s0,0,0,0c.18.12.04.03.08.05h-.02s-.36-.23-.36-.23c-.1-.1-.16-.11-.31-.27-.25-.25-.47-.58-.63-.95-.08-.19-.17-.37-.22-.57l-.04-.15-.02-.07v-.02s0,.15,0,.07h0s0-.06,0-.06l-.06-.37c-.12-.53-.11-.86-.13-1.22.03-.77.12-1.54.34-2.18.1-.33.21-.63.34-.9Z"/>
    <path d="M64.47,61.79c.11-.7.18-1.42.32-2.12.15-.7.24-1.42.45-2.09.1-.34.18-.68.26-1.02.1-.33.2-.66.3-.98.19-.65.44-1.25.64-1.85.25-.57.44-1.13.68-1.62.89-2,1.71-3.27,1.71-3.27,0,0-.3.22-.78.69-.23.24-.52.52-.81.88-.3.35-.63.76-.94,1.24-.34.46-.65,1-.97,1.57-.29.59-.64,1.19-.89,1.86-.28.66-.54,1.36-.74,2.08-.24.72-.36,1.48-.53,2.22-.13.75-.19,1.52-.28,2.27-.05.75-.02,1.49-.04,2.21.03.71.12,1.4.18,2.05.05.65.22,1.25.33,1.81.12.56.22,1.06.38,1.5.14.44.28.82.39,1.13.22.62.37.96.37.96,0,0,0-.38-.05-1.03-.02-.32-.05-.72-.09-1.17-.06-.45-.03-.96-.06-1.51,0-.55-.06-1.14-.04-1.77.01-.62.03-1.28.05-1.96.06-.68.13-1.37.17-2.08Z"/>
    <polygon points="64.62 12.19 68.6 10.62 69.09 6.36 65.1 7.93 64.62 12.19"/>
  </g>
</svg>