<?xml version="1.0" encoding="UTF-8"?>
<svg id="Layer_2" data-name="Layer 2" xmlns="http://www.w3.org/2000/svg" viewBox="0 0 78.14 79.04">
  <g id="Layer_1-2" data-name="Layer 1">
    <g>
      <path d="M67.04,25.63c5.4,2.29,11.1,1,11.1,1,0,0-3.05-4.99-8.44-7.28-2.54-1.08-5.15-1.36-7.2-1.36,3.61-1.35,8.19-1.76,12.73,1.33,0,0-2.54-7.47-10.02-5.38,0,0,7.77-2.24,7.85-9.2-6.95.07-9.2,7.85-9.2,7.85,2.09-7.48-5.38-10.02-5.38-10.02,3.37,4.94,2.59,9.91.96,13.65.05-2.13-.19-5.03-1.4-7.85-2.32-5.38-7.34-8.39-7.34-8.39,0,0-1.24,5.71,1.08,11.09,1.68,3.89,4.75,6.53,6.33,7.7-.51.85-1.03,1.58-1.47,2.16l.21.21c.66-.51,1.52-1.11,2.53-1.69,1.23,1.61,3.85,4.55,7.65,6.15Z"/>
      <path d="M48.31,9.57c-.2-.39-.36-.8-.62-1.14-.26-.34-.51-.71-.81-1.01-.32-.29-.63-.58-.98-.85-.41-.26-.83-.5-1.26-.71-.34-.13-.63-.21-.94-.32l-.12-.04h-.03s-.3-.11-.17-.06h0s-.02,0-.02,0h-.08s-.3-.05-.3-.05l-.6-.08-.6-.07c-.2-.01-.4.02-.6.02-.4.03-.81.04-1.2.11-.78.2-1.56.39-2.25.8-.36.17-.71.35-1.02.61-.31.25-.64.47-.93.74-.24.26-.48.53-.71.8-.28-.34-.59-.66-.92-.96-.7-.61-1.47-1.08-2.28-1.47-1.62-.75-3.34-1.08-5.03-1.16-.85-.03-1.69,0-2.56.09l-.59.08-.15.02c-.09.01-.11.02-.17.03l-.3.07-1.2.28c-.8.19-1.61.35-2.37.61l-2.31.72-2.25.7c-.74.26-1.54.41-2.31.59l-1.17.27-.29.07s-.12.03-.12.03l-.14.02-.58.08c-.78.07-1.56.1-2.34.07-1.56-.09-3.13-.41-4.55-1.1-.7-.35-1.38-.77-1.97-1.3-.58-.54-1.08-1.16-1.47-1.86.35.72.81,1.39,1.37,1.97.57.58,1.23,1.06,1.93,1.47,1.42.8,3.02,1.24,4.64,1.44.81.09,1.63.12,2.45.09l.61-.04h.15c.1-.02.11-.03.17-.04l.3-.05,1.18-.19c.79-.13,1.58-.23,2.37-.44l2.37-.57,2.31-.56c.77-.21,1.54-.31,2.31-.44l1.15-.19.29-.05s.12-.02.12-.02h.15s.6-.06.6-.06c.73-.02,1.49-.01,2.24.07,1.49.17,2.94.56,4.19,1.24.62.35,1.19.75,1.67,1.23.39.4.71.86.98,1.33l-.12,1.41c-.04.5.22,1.01.7,1.25.63.32,1.4.06,1.71-.57l.15-.29c.24-.47.35-1,.69-1.41.25-.46.65-.8,1.01-1.17.2-.16.43-.29.64-.43.2-.16.44-.26.68-.35.45-.24.96-.3,1.45-.41.25-.02.5,0,.75-.01.12,0,.25-.02.37,0l.37.08.37.07.18.03h0s.05.02.05.02c.29.12.63.25.89.37.13.13.26.23.41.32l.46.47c.15.17.24.37.37.55.13.18.17.41.27.6.13.41.22.84.19,1.27.03.21-.04.42-.08.63l-.04.25-.04.1-.09.23-.09.23c-.03.07-.06.17-.09.16-.05.03-.09.07-.12.11-.01.07-.23.21-.32.33-.13.12-.3.19-.43.29-.17.04-.32.15-.49.17-.17.01-.33.09-.5.06-.08,0-.17,0-.25,0-.08,0-.16-.04-.25-.06l-.12-.02h-.03s-.36-.15-.36-.15c-.22-.07-.13-.1-.14-.11,0-.03,0,.02-.04-.05-.18-.16-.27-.4-.34-.61-.06-.23,0-.44.03-.66l.05-.29c.22-1.23-.58-2.42-1.81-2.67-1.25-.26-2.47.55-2.73,1.8-.22,1.06-.2,2.18.16,3.21.37,1,.98,1.93,1.83,2.59.17.17.5.35.76.5.26.15.62.33.72.34l.46.15.27.08h.09s.18.04.18.04l.36.05c.24.03.48.07.72.07l.73-.04c.49,0,.95-.17,1.42-.3.46-.13.88-.39,1.31-.6.39-.28.79-.55,1.12-.89.32-.38.64-.64.93-1.16.14-.24.27-.48.4-.72.08-.14.09-.2.12-.28l.08-.23.21-.65.09-.66c.06-.44.12-.87.07-1.31-.02-.88-.24-1.74-.58-2.54Z"/>
      <path d="M72.48,75.6c-.68-1.42-1.01-2.99-1.1-4.55-.04-.78,0-1.57.06-2.34l.08-.58.02-.14s.02-.08.03-.12l.07-.29.27-1.17c.18-.78.33-1.57.59-2.31l.7-2.25.72-2.31c.27-.76.42-1.57.61-2.37l.28-1.2.07-.3c.01-.06.02-.08.03-.17l.02-.15.08-.59c.09-.87.13-1.71.09-2.55-.08-1.69-.41-3.41-1.16-5.03-.38-.8-.86-1.58-1.47-2.27-.47-.53-1.03-.98-1.62-1.39.4-.29.76-.63,1.13-.96.27-.28.5-.61.74-.93.26-.3.44-.66.61-1.02.41-.69.59-1.48.8-2.26.07-.39.08-.8.11-1.2,0-.2.04-.4.02-.6l-.07-.6-.08-.6-.04-.3v-.08s-.01-.02-.01-.02h0c.04.13-.06-.21-.05-.18v-.03s-.05-.12-.05-.12c-.11-.32-.19-.61-.32-.94-.22-.42-.46-.85-.71-1.26-.27-.35-.56-.66-.85-.98-.31-.3-.67-.54-1.01-.81-.35-.26-.76-.42-1.14-.62-.8-.33-1.66-.56-2.54-.58-.44-.05-.88,0-1.31.07l-.66.09-.65.21-.23.08c-.08.03-.14.04-.28.12-.24.12-.49.26-.72.4-.52.28-.79.6-1.16.93-.34.33-.61.74-.89,1.12-.21.43-.46.84-.6,1.31-.13.46-.29.93-.3,1.42l-.04.73c0,.24.04.48.07.72l.05.36.03.18v.09s.1.27.1.27l.15.46c.01.1.19.45.34.72.15.26.33.59.5.76.66.85,1.58,1.45,2.59,1.83,1.02.36,2.15.38,3.21.16,1.22-.25,2.03-1.43,1.81-2.67-.23-1.26-1.43-2.09-2.68-1.87l-.29.05c-.21.04-.43.09-.66.03-.21-.07-.45-.16-.61-.34-.08-.05-.02-.04-.05-.04-.02-.02-.04.08-.11-.14l-.15-.36v-.03s-.03-.12-.03-.12c-.01-.08-.05-.16-.06-.25,0-.08,0-.17,0-.25-.04-.17.05-.33.06-.5.02-.17.13-.31.17-.49.11-.13.18-.3.29-.43.12-.1.26-.31.33-.32.04-.03.07-.07.11-.12,0-.02.09-.06.16-.09l.23-.09.23-.09.1-.04.25-.04c.21-.04.42-.11.63-.08.43-.03.85.06,1.26.19.19.1.42.14.6.27.17.13.38.23.54.37l.47.46c.09.15.19.28.32.41.12.26.25.59.37.89l.02.05h0s.03.19.03.19l.07.36.08.37c.02.12,0,.25,0,.37-.01.25.01.5-.01.75-.11.49-.17,1-.41,1.45-.09.24-.18.48-.35.68-.15.21-.27.44-.43.64-.37.36-.7.76-1.17,1.01-.4.35-.93.45-1.41.69l-.3.15c-.31.16-.56.44-.65.81-.18.68.22,1.38.9,1.56l2.01.53c.55.29,1.06.66,1.52,1.1.48.48.88,1.05,1.23,1.67.68,1.25,1.08,2.7,1.24,4.19.08.75.09,1.51.07,2.24l-.05.6v.15s-.02.08-.03.12l-.05.29-.19,1.15c-.13.77-.23,1.54-.44,2.31l-.56,2.31-.57,2.37c-.22.79-.31,1.58-.44,2.37l-.19,1.18-.05.3c0,.06-.02.07-.02.17v.15s-.05.61-.05.61c-.03.82,0,1.64.09,2.45.2,1.62.64,3.22,1.44,4.64.41.7.89,1.36,1.47,1.93.59.56,1.26,1.02,1.97,1.37-.7-.4-1.33-.89-1.86-1.47-.53-.59-.95-1.26-1.3-1.97Z"/>
    </g>
  </g>
</svg>