<?xml version="1.0" encoding="UTF-8"?>
<svg id="Layer_2" data-name="Layer 2" xmlns="http://www.w3.org/2000/svg" viewBox="0 0 66.92 66.82">
  <g id="Layer_1-2" data-name="Layer 1">
    <path d="M4.87,3.83c1.05-.75,2.23-1.28,3.46-1.58.62-.14,1.25-.25,1.89-.29.32-.04.64-.03.96-.04.32-.01.64,0,.96.02l.48.03h.21s.24.05.24.05c.32.05.67.08.95.17.58.14,1.18.33,1.74.6.28.13.57.26.83.42.27.15.54.31.79.5.26.17.51.36.75.56.25.19.48.4.71.61.46.42.88.89,1.27,1.38.39.49.74,1.01,1.06,1.54.32.54.59,1.1.84,1.67.24.57.43,1.16.58,1.75.07.27.28.5.57.58.44.12.89-.13,1.01-.57v-.02c.18-.6.37-1.2.59-1.79.23-.58.48-1.15.75-1.7.29-.55.6-1.08.94-1.58.35-.5.73-.97,1.14-1.41.42-.43.86-.83,1.34-1.16.48-.34.98-.63,1.52-.85.26-.12.53-.22.81-.29.27-.09.55-.16.84-.19.28-.06.57-.09.86-.1.3-.02.55-.04.9-.02.33,0,.65.01.94.04.29.02.59.04.88.09.3.04.59.08.87.16.29.06.57.13.84.23.27.09.55.18.8.32.25.13.52.23.76.4.5.28.93.66,1.38,1.03.06.1.45.48.52.64.14.21.28.4.43.68.3.51.56,1.06.79,1.61l.31.84.23.83.12.8c0,.25-.03.46-.02.69v.18c.02.41.25.81.64,1.02.59.31,1.32.09,1.63-.5l.65-1.23c.24-.39.51-.77.76-1.16.27-.38.57-.72.85-1.08.29-.35.63-.67.94-1,.33-.32.69-.6,1.03-.91.36-.29.74-.53,1.11-.8.38-.25.79-.46,1.19-.69.41-.2.83-.38,1.25-.57l1.3-.44,1.33-.3c.45-.05.9-.12,1.36-.17.46,0,.91-.04,1.37-.03.45.04.91.05,1.36.11.45.08.9.14,1.35.24l1.32.37.75.29.32.82c.14.44.25.88.38,1.32.1.45.16.9.25,1.35.06.45.08.91.12,1.36.02.46-.01.91-.01,1.37-.03.45-.1.9-.15,1.36l-.29,1.34-.42,1.3-.55,1.25c-.23.39-.43.8-.67,1.19-.27.37-.51.76-.79,1.12-.3.34-.58.71-.9,1.04-.33.31-.64.65-.99.95-.36.28-.71.59-1.08.85-.39.25-.76.52-1.15.76l-1.22.65c-.37.2-.62.58-.64,1.02-.02.67.5,1.23,1.16,1.25h.18c.23.01.44-.02.69-.01l.8.12.83.23.84.31c.55.23,1.1.49,1.61.79.5.27,1.03.69,1.28.9l.63.75c.22.26.3.46.46.69.16.21.26.49.39.74.14.25.22.53.32.8.11.27.17.55.23.84.08.28.12.57.16.87.09.59.13,1.2.13,1.82v.41s-.02.49-.02.49l-.03.49-.07.4-.07.4-.12.41c-.07.28-.17.55-.29.81-.21.54-.51,1.04-.85,1.52-.33.48-.73.92-1.16,1.34-.43.41-.91.79-1.41,1.14-.51.34-1.04.65-1.58.94-.55.27-1.12.52-1.7.75-.59.22-1.18.41-1.79.58h-.02c-.27.08-.5.3-.57.59-.12.44.15.89.59,1.01.59.16,1.18.34,1.75.58.57.24,1.13.52,1.67.84.54.32,1.06.67,1.54,1.06.49.39.96.81,1.38,1.27.22.22.43.46.61.71.2.24.39.49.56.75.19.25.35.52.5.79.17.26.3.55.42.83.26.56.46,1.16.6,1.76.14.62.21,1.2.24,1.87.03.33.03.65.02.96,0,.31,0,.63-.04.95-.04.64-.15,1.27-.29,1.89-.3,1.24-.83,2.42-1.58,3.46-.74,1.05-1.68,1.96-2.71,2.76-1.03.8-2.16,1.49-3.32,2.11,1.2-.54,2.38-1.15,3.48-1.88.55-.37,1.09-.77,1.58-1.22.5-.44.96-.93,1.38-1.46.84-1.05,1.48-2.28,1.87-3.59.19-.65.33-1.32.42-1.99.06-.33.07-.68.09-1.02.03-.35.04-.68.03-1.01,0-.64-.03-1.38-.15-2.05-.12-.68-.31-1.36-.56-2-.13-.32-.26-.65-.42-.95-.15-.31-.32-.62-.51-.91-.17-.3-.37-.59-.58-.86-.2-.28-.42-.55-.65-.81-.45-.53-.95-1.01-1.47-1.46-.52-.45-1.08-.86-1.66-1.24-.48-.31-.97-.58-1.48-.83.53-.19,1.05-.39,1.56-.63.62-.3,1.23-.63,1.82-1.01.58-.38,1.15-.8,1.68-1.28.52-.48,1.02-1,1.45-1.58.43-.58.82-1.2,1.11-1.87.16-.33.29-.67.39-1.02l.17-.52.11-.56.11-.57.04-.49.04-.49c.01-.28,0-.37.01-.57.01-.68,0-1.39-.1-2.09-.04-.35-.09-.71-.17-1.06-.07-.35-.15-.71-.28-1.05-.11-.35-.22-.7-.39-1.03-.16-.33-.28-.67-.51-1-.2-.31-.42-.7-.62-.94l-.61-.76-.06-.07h-.01s-.03-.04-.03-.04l-.06-.05-.11-.11-.23-.21c-.15-.15-.31-.26-.45-.36-.3-.21-.6-.44-.91-.6-.61-.38-1.24-.68-1.89-.97l-.78-.3c.37-.27.72-.56,1.08-.84.41-.35.78-.74,1.17-1.11.38-.38.71-.81,1.06-1.22.33-.42.63-.88.94-1.32.29-.46.54-.94.8-1.4.23-.49.44-.98.66-1.48l.51-1.54c.12-.53.25-1.05.35-1.58.06-.54.15-1.07.19-1.61,0-.54.04-1.08.03-1.62-.04-.54-.06-1.08-.13-1.61-.1-.53-.17-1.07-.29-1.59-.14-.52-.27-1.04-.43-1.55l-.38-.98c0-.51-.31-.99-.82-1.18l-1.51-.57c-.52-.16-1.04-.29-1.56-.43-.53-.11-1.06-.19-1.6-.28-.54-.06-1.08-.08-1.62-.12-.54,0-1.08.03-1.62.04-.54.05-1.07.14-1.61.21l-1.58.37-1.53.53c-.49.23-.99.44-1.47.68-.47.27-.94.53-1.4.82-.44.32-.89.61-1.31.95-.4.36-.83.69-1.21,1.07-.37.39-.76.77-1.1,1.18-.28.36-.57.72-.83,1.08l-.3-.78c-.29-.65-.6-1.28-.97-1.89-.16-.3-.41-.64-.64-.96-.12-.17-.24-.32-.35-.43l-.17-.18-.08-.09-.04-.05-.02-.02-.09-.09c-.56-.47-1.13-.93-1.78-1.29-.63-.37-1.31-.68-2.01-.89-.35-.13-.7-.21-1.05-.28-.35-.09-.71-.14-1.06-.17-.35-.05-.71-.07-1.07-.08-.37-.02-.7-.02-1.02-.01-.31,0-.72.02-1.06.06-.36.02-.72.07-1.08.16-.36.06-.71.15-1.06.27-.35.1-.69.24-1.02.39-.67.29-1.29.68-1.87,1.11-.58.43-1.1.93-1.58,1.45-.47.53-.89,1.09-1.28,1.68-.38.59-.71,1.2-1.01,1.82-.24.51-.45,1.03-.64,1.56-.25-.51-.52-1.01-.83-1.48-.38-.58-.79-1.14-1.24-1.66-.45-.52-.93-1.02-1.46-1.47-.26-.23-.52-.45-.81-.65-.27-.21-.56-.41-.86-.58-.29-.19-.6-.35-.91-.51-.3-.17-.63-.3-.95-.42-.65-.26-1.31-.44-2.02-.57-.36-.08-.67-.08-1-.12l-.25-.02h-.28s-.51,0-.51,0c-.34-.01-.68,0-1.01.03-.34.02-.68.03-1.01.09-.67.08-1.34.23-1.99.42-1.3.39-2.53,1.02-3.59,1.87-.53.42-1.02.88-1.46,1.38-.45.5-.85,1.03-1.22,1.58-.74,1.1-1.35,2.28-1.88,3.48.62-1.16,1.31-2.28,2.11-3.32.8-1.03,1.71-1.97,2.76-2.71Z"/>
  </g>
</svg>