<?xml version="1.0" encoding="UTF-8"?>
<svg id="Layer_2" data-name="Layer 2" xmlns="http://www.w3.org/2000/svg" viewBox="0 0 73.97 73.17">
  <g id="Layer_1-2" data-name="Layer 1">
    <path d="M12.29,2.45c1.03.12,2.03.19,3.11.39l.8.12.2.03h.05s.01,0,.01,0c-.06,0-.01,0-.02,0h.02s.1.03.1.03l.39.08,1.55.33c1.03.23,2.06.42,3.09.71,1.03.28,2.07.51,3.11.77l3.21.77c1.08.28,2.12.46,3.18.65l1.59.28.4.07.1.02.16.02.21.02.84.09c1.11.15,2.25.16,3.38.21,1.14-.04,2.28,0,3.42-.18,1.14-.1,2.27-.38,3.4-.62,1.11-.36,2.24-.66,3.3-1.2.62-.25,1.2-.58,1.78-.93l.14.23.13.36c.07.25.21.46.24.73l.17.78.07.82c.04.27,0,.56,0,.84,0,.28,0,.57-.04.84l-.08.83-.18.94c-.11.51-.32,1.15-.47,1.73-.15.59-.36,1.19-.56,1.8-.2.61-.39,1.19-.58,1.87-.01.04-.02.09-.04.13-.18-.01-.36-.02-.54-.05-.63-.05-1.25-.1-1.86-.15-.62-.1-1.23-.2-1.82-.29-2.38-.4-4.55-.96-6.47-1.5-1.9-.58-3.57-1.09-4.93-1.57-2.73-.94-4.29-1.48-4.29-1.48,0,0,.36.2,1.04.56.68.36,1.67.93,2.98,1.56,1.29.66,2.89,1.41,4.76,2.19,1.88.76,4.03,1.59,6.49,2.2.61.15,1.24.31,1.88.47.66.11,1.34.23,2.03.34.05,0,.1.01.15.02l-.24,1.41-.09.54-.02.51c0,.34-.03.68-.02,1.02.05.68.06,1.35.2,2.01.01.1.04.2.06.3-.39-.03-.78-.08-1.17-.12-.61-.1-1.22-.22-1.82-.39-.6-.18-1.2-.38-1.77-.63-.6-.21-1.15-.57-1.72-.86.51.4.96.85,1.52,1.19.27.18.54.38.83.54l.88.45c.59.29,1.21.52,1.84.74.56.17,1.14.31,1.72.41.03.11.06.22.09.33.21.63.45,1.25.74,1.84l.45.88c.16.29.36.55.54.83.34.56.79,1.01,1.19,1.52-.29-.57-.65-1.12-.86-1.72-.26-.57-.45-1.17-.63-1.77-.17-.57-.28-1.16-.38-1.74.37.03.73.05,1.1.08.34,0,.68-.02,1.02-.02l.51-.02.54-.09,1.1-.19c-.01.16-.03.33-.04.49,0,.35,0,.69-.01,1.04,0,.68,0,1.35-.01,2.01.04.66.08,1.3.11,1.93.14,2.52.53,4.79.92,6.78.4,1.99.84,3.7,1.25,5.09.37,1.4.76,2.47,1,3.21.24.73.37,1.13.37,1.13,0,0-.07-.41-.19-1.17-.13-.76-.31-1.89-.51-3.31-.22-1.42-.41-3.15-.61-5.13-.16-1.98-.29-4.22-.24-6.64.02-.6.03-1.22.05-1.85.06-.62.12-1.26.18-1.91.03-.32.06-.65.09-.98.05-.32.1-.65.15-.98.02-.11.03-.22.05-.32.07-.02.13-.04.2-.06.68-.18,1.26-.38,1.87-.58.61-.2,1.21-.41,1.8-.56.57-.15,1.22-.36,1.73-.47l.94-.18.83-.08c.27-.04.55-.03.84-.04.28,0,.57-.03.84,0l.82.07.78.17c.27.03.49.17.73.24l.36.13.23.14c-.35.57-.68,1.16-.93,1.78-.54,1.06-.84,2.19-1.2,3.3-.24,1.13-.52,2.26-.62,3.4-.18,1.14-.14,2.28-.18,3.42.05,1.13.07,2.26.21,3.38l.09.84.02.21.02.16.02.1.07.4.28,1.59c.19,1.06.37,2.11.65,3.18l.77,3.21c.26,1.04.49,2.08.77,3.11.29,1.04.48,2.06.71,3.09l.33,1.55.08.39.02.1v.02s.01.04,0-.02h0s0,.06,0,.06l.03.2.12.8c.2,1.08.27,2.07.39,3.11.03,1.04.11,2.09.06,3.12.02,1.05-.14,2.08-.25,3.13-.22,1.01-.36,2.08-.74,3.07-.27,1.03-.76,1.98-1.2,2.97.61-.88,1.33-1.73,1.79-2.73.56-.96.9-2,1.29-3.05.27-1.07.59-2.14.73-3.24.23-1.1.24-2.2.33-3.31,0-1.11.03-2.27-.05-3.32l-.05-.81v-.2s-.03-.13-.03-.13v-.1s-.07-.41-.07-.41l-.22-1.63c-.15-1.08-.27-2.19-.48-3.24-.18-1.07-.4-2.13-.6-3.19l-.59-3.1c-.22-1.01-.33-2.1-.51-3.16l-.25-1.59-.06-.4v-.09s-.02-.05-.02-.05l-.02-.19-.07-.77c-.12-1.02-.11-2.04-.15-3.06.05-1.01.06-2.03.19-3.02.06-1.01.3-1.97.48-2.94.3-.93.52-1.9.96-2.76.25-.68.62-1.27.98-1.88.24-.1.46-.24.64-.45.56-.69.46-1.7-.23-2.26-.63-.51-1.25-1.04-1.98-1.35l-.53-.27-.55-.18c-.37-.1-.73-.27-1.1-.3l-1.11-.18-1.09-.04c-.37-.03-.72.02-1.08.04-.36.02-.71.05-1.07.12-.36.07-.73.13-1.07.2l-.93.25c-.73.21-1.28.45-1.93.68-.64.22-1.23.47-1.82.72l-.76.32c.24-1.05.51-2.05.87-3.1.1-.28.2-.56.3-.85,1.18-.24,2.36-.56,3.53-.99,3.08-1.1,6.14-2.83,8.61-5.41.59-.66,1.19-1.32,1.7-2.07.27-.36.52-.73.76-1.16.22-.4.52-.85.67-1.21l.52-1.12.17-.43.12-.37c.08-.26.15-.54.19-.85.04-.31.07-.64.04-1.01.02-.28-.23-1.1-.27-1.12-.32-.78-.94-1.43-1.69-1.78-.74-.34-1.44-.39-2.03-.36-.6.03-1.14.16-1.65.32-.25.08-.5.17-.74.28-.21.09-.57.27-.7.35-.44.26-.76.48-1.15.73-1.47.99-2.82,2.11-4.03,3.36-2.42,2.49-4.2,5.42-5.51,8.38-.28.64-.53,1.29-.77,1.93-1.18.22-2.34.38-3.44.43-.37,0-.75,0-1.12,0l.51-1.22c.25-.59.5-1.18.72-1.82.23-.65.47-1.2.68-1.93l.25-.93c.08-.34.14-.71.2-1.07.08-.36.1-.72.12-1.07.02-.36.07-.71.04-1.08l-.04-1.09-.18-1.11c-.04-.37-.2-.74-.3-1.1l-.18-.55-.27-.53c-.32-.73-.84-1.36-1.35-1.98-.41-.5-1.11-.73-1.76-.51-.46.16-.8.5-.96.92-.6.36-1.19.73-1.86.98-.86.44-1.83.66-2.76.96-.98.18-1.94.42-2.94.48-.99.13-2.01.14-3.02.19-1.02-.04-2.04-.03-3.06-.15l-.77-.07-.19-.02h-.05s0,0,0,0h-.09s-.4-.08-.4-.08l-1.59-.25c-1.06-.17-2.14-.29-3.16-.51l-3.1-.59c-1.06-.2-2.12-.42-3.19-.6-1.05-.21-2.16-.33-3.24-.48l-1.63-.22-.41-.05h-.1s-.13-.03-.13-.03h-.2s-.81-.06-.81-.06c-1.05-.08-2.21-.05-3.32-.05-1.11.09-2.22.1-3.31.33-1.1.14-2.17.46-3.24.73-1.04.39-2.09.73-3.05,1.29-1,.45-1.85,1.17-2.73,1.79,1-.44,1.94-.93,2.97-1.2.99-.38,2.05-.51,3.07-.74,1.05-.11,2.08-.27,3.13-.25,1.04-.05,2.09.02,3.12.06ZM61.21,11.16c.87-1.22,1.83-2.38,2.88-3.46,1.07-1.07,2.25-2.02,3.51-2.85.31-.19.66-.43.94-.58.22-.12.24-.12.4-.19.14-.06.28-.11.42-.15.52-.19,1.08-.16,1.13-.1l.05.11s-.02-.02-.02-.02c-.02-.04-.01-.1-.02-.05,0,.04,0,.12,0,.22-.01.1-.04.22-.08.36l-.07.21-.04.11-.02.06v.03s-.01,0-.01,0l-.48,1.07c-.17.4-.35.62-.51.94-.15.3-.35.6-.57.9-.4.61-.89,1.16-1.37,1.72-2.03,2.12-4.54,3.79-7.24,4.84-.31.12-.63.22-.94.33.6-1.19,1.27-2.37,2.05-3.48ZM51.9,18.68c.49.01.78,0,1.18,0,.38,0,.76-.01,1.14-.05.1,0,.19-.02.29-.02-.35,1.36-.61,2.77-.78,4.01-.02.22-.04.43-.06.65l-1.69.48-.23.07-.12.03-.06.02h-.03s-.41.07-.41.07c-.3.05-.59.11-.89.15-.39.02-.79.05-1.18.06,0-.15-.03-.3-.02-.46-.05-.61.04-1.22.07-1.82.04-.3.1-.6.15-.89l.06-.41v-.03s.02-.06.02-.06l.03-.12.07-.23.45-1.58c.66.04,1.33.09,2.01.13Z"/>
  </g>
</svg>