<?xml version="1.0" encoding="UTF-8"?>
<svg id="Layer_2" data-name="Layer 2" xmlns="http://www.w3.org/2000/svg" viewBox="0 0 67.15 67.22">
  <g id="Layer_1-2" data-name="Layer 1">
    <path d="M1.86,10.25c.44.47.94.99,1.31,1.22l.3.23.08.06.04.03.11.07h.01s.02.02.02.02l.2.11.8.42c1.1.45,2.26.75,3.4.78,1.15.04,2.22-.06,3.29-.36.57-.14.99-.3,1.41-.47.53-.2.89-.45,1.32-.67.4-.24.82-.43,1.16-.7.34-.27.66-.53.98-.78.65-.47,1.12-1.04,1.56-1.5.19-.21.37-.39.52-.58-.24,1.35-.14,2.69.21,3.93.51,1.68,1.64,2.98,3.1,3.66,1.52.73,3.16.45,4.28-.28,1.16-.71,1.82-1.97,1.73-3.09-.08-1.1-.67-1.85-1.21-2.28-.55-.46-1.12-.56-1.47-.57-.36-.01-.54.07-.54.06,0,.01.19,0,.51.11.31.1.74.35,1.09.81.35.45.6,1.16.51,1.85-.1.67-.64,1.33-1.42,1.65-.77.34-1.78.29-2.49-.18-.77-.47-1.4-1.42-1.62-2.37-.26-1.1-.15-2.32.2-3.4.37-1.13,1.08-2.16,1.98-3.03.21-.22.47-.43.69-.6l.33-.26.46-.29c.45-.26,1.02-.53,1.57-.68,1.14-.29,2.37-.36,3.54-.11,1.17.24,2.27.65,3.21,1.26.94.6,1.75,1.35,2.43,2.11,1.33,1.57,2.12,3.19,2.61,4.35.23.59.41,1.05.52,1.38.04.11.06.19.09.27-.02.06-.02.09-.02.09,0,0,.02-.03.04-.05.04.12.07.2.07.2,0,0,0-.1,0-.28.13-.16.37-.48.71-.94.23-.35.57-.73.94-1.17.19-.22.38-.45.59-.7.22-.23.46-.47.7-.72.47-.52,1.05-1.01,1.64-1.54.28-.27.61-.52.95-.76.34-.24.65-.52,1.01-.76.72-.46,1.47-.95,2.23-1.33.39-.2.74-.42,1.2-.6l1.27-.55c.86-.27,1.7-.6,2.58-.77.86-.24,1.73-.35,2.58-.49.42-.05.85-.05,1.26-.1.41-.05.82-.08,1.21-.06.79,0,1.55-.01,2.24.07.35.03.69.05,1.01.08.31.05.61.09.89.13.56.08,1.08.14,1.49.26.59.13.99.21,1.18.24.02.11.1.55.26,1.26.11.41.18.93.26,1.49.04.28.08.58.13.89.02.32.05.66.08,1.01.08.7.06,1.45.07,2.24.02.4-.01.8-.06,1.21-.05.41-.05.83-.1,1.26-.14.85-.25,1.72-.49,2.58-.17.88-.5,1.72-.77,2.58l-.55,1.27c-.18.47-.4.82-.6,1.2-.37.77-.87,1.51-1.33,2.23-.24.35-.52.67-.76,1.01-.24.34-.48.66-.76.95-.53.59-1.02,1.17-1.53,1.64-.25.25-.49.48-.72.7-.25.21-.48.4-.7.59-.44.38-.82.71-1.17.94-.46.34-.78.58-.94.71-.18,0-.28,0-.28,0,0,0,.07.02.2.07-.02.02-.05.04-.05.04,0,0,.03,0,.09-.02.07.02.16.05.27.09.33.1.79.29,1.38.52,1.16.49,2.79,1.28,4.35,2.61.76.68,1.52,1.49,2.11,2.43.61.95,1.02,2.04,1.26,3.21.24,1.17.18,2.4-.11,3.54-.15.56-.42,1.13-.68,1.57l-.29.46-.26.33c-.17.22-.39.47-.6.69-.86.9-1.9,1.6-3.03,1.98-1.07.35-2.29.46-3.4.2-.95-.22-1.91-.85-2.37-1.62-.47-.71-.52-1.72-.18-2.49.32-.78.98-1.32,1.65-1.42.7-.1,1.4.16,1.85.51.47.35.71.78.81,1.09.11.32.1.51.11.51-.02,0,.07-.18.06-.54-.01-.35-.11-.92-.57-1.47-.43-.54-1.18-1.13-2.28-1.21-1.12-.09-2.39.57-3.09,1.73-.73,1.12-1.01,2.76-.28,4.28.68,1.46,1.98,2.6,3.66,3.1,1.24.36,2.58.45,3.93.21-.18.16-.37.34-.58.52-.46.44-1.04.91-1.5,1.56-.25.31-.51.64-.78.98-.27.34-.46.76-.7,1.16-.22.43-.48.79-.67,1.32-.17.42-.34.84-.47,1.41-.3,1.07-.4,2.14-.36,3.29.02,1.14.33,2.3.78,3.4l.42.8.11.2v.02s.02.01.02.01l.07.11.03.04.06.08.23.3c.23.37.75.87,1.22,1.31.95.76,1.96,1.35,3.08,1.61.53.18,1.11.2,1.65.25.27.01.55-.03.82-.05.27-.03.53-.03.78-.12.25-.08.5-.15.74-.23l.18-.06h.04s.02-.02.02-.02l.09-.03h0s.07-.04.07-.04l.27-.15c.32-.16.78-.51,1.14-.81.18-.15.31-.34.45-.5.14-.17.28-.31.37-.51.09-.18.18-.36.27-.54l.06-.13c.05-.11.03-.1.05-.16l.06-.23c.19-.74.1-1.35-.04-1.82-.13-.47-.37-.78-.52-.97-.17-.17-.27-.27-.27-.27,0,0,.04.12.12.35.07.22.12.56.1.97-.02.4-.16.9-.41,1.31-.29.48-.73.84-1.24,1.17-.27.11-.45.24-.91.36l-.3.09-.07.02h0c-.07.03.09-.03.07-.03h-.02s-.03,0-.03,0h-.13c-.17.03-.34.05-.51.07-.34.03-.7-.03-1.06-.06-.35-.12-.72-.13-1.07-.32-.72-.24-1.38-.75-1.96-1.24-.23-.26-.47-.43-.78-.92l-.22-.31-.03-.04h0s-.07-.15-.07-.15l-.28-.55c-.31-.76-.55-1.57-.62-2.42-.05-.42-.05-.85-.05-1.28.03-.42.04-.86.11-1.24.03-.2.03-.37.09-.6.05-.23.11-.45.16-.67.06-.35.27-.76.37-1.13.14-.38.23-.76.4-1.11.17-.35.33-.69.49-1.01.29-.67.66-1.23.96-1.76.15-.26.29-.51.43-.74.15-.23.29-.43.41-.62.05-.07.08-.12.12-.19,1.53-.49,2.9-1.42,4-2.55.3-.3.55-.61.83-.96l.39-.54.29-.46c.47-.8.76-1.58.97-2.42.39-1.65.27-3.32-.13-4.81-.38-1.49-1.12-2.83-2-3.9-.87-1.1-1.9-1.89-2.89-2.51-2.01-1.22-3.89-1.63-5.18-1.82-.65-.09-1.16-.11-1.51-.12-.01,0-.03,0-.04,0,.22-.07.54-.16.94-.3.42-.12.9-.33,1.43-.6.27-.13.56-.27.87-.42.3-.17.59-.37.9-.57.31-.21.65-.41.97-.65.31-.26.63-.53.96-.81.68-.54,1.28-1.23,1.91-1.94.56-.76,1.21-1.5,1.7-2.42.25-.44.55-.9.72-1.33l.61-1.37c.3-.98.66-1.94.8-2.93.24-.98.25-1.97.33-2.91.01-.47,0-.94-.03-1.39-.02-.45-.05-.9-.12-1.32-.07-.43-.13-.84-.19-1.24-.08-.4-.2-.77-.29-1.13-.1-.36-.18-.71-.3-1.03-.13-.32-.26-.62-.37-.9-.22-.57-.45-1.03-.67-1.39-.35-.6-.58-.97-.66-1.09.07.01.11.02.11.02,0,0-.41-.27-1.15-.7-.36-.23-.82-.45-1.39-.67-.28-.12-.59-.24-.9-.37-.32-.11-.67-.19-1.03-.3-.36-.09-.74-.22-1.13-.29-.4-.06-.81-.12-1.24-.19-.43-.08-.87-.11-1.32-.12-.45-.02-.92-.04-1.39-.03-.94.08-1.93.09-2.91.33-.99.14-1.96.5-2.93.8l-1.37.61c-.43.17-.89.46-1.33.72-.93.49-1.66,1.13-2.42,1.7-.7.63-1.39,1.24-1.94,1.91-.28.33-.55.65-.81.96-.25.32-.44.66-.65.97-.2.32-.41.61-.57.9-.15.31-.29.6-.42.87-.28.54-.48,1.02-.6,1.43-.14.41-.23.72-.3.94,0-.01,0-.02,0-.04-.01-.34-.03-.86-.12-1.51-.19-1.28-.6-3.17-1.82-5.18-.62-.99-1.41-2.02-2.51-2.89-1.07-.87-2.41-1.61-3.9-2-1.48-.4-3.15-.52-4.81-.13-.83.21-1.61.49-2.42.97l-.46.29-.54.39c-.35.27-.66.53-.96.83-1.12,1.1-2.06,2.47-2.55,4-.07.04-.12.08-.19.12-.19.12-.39.26-.62.41-.23.13-.48.27-.74.43-.53.3-1.08.66-1.76.96-.33.16-.66.32-1.01.49-.35.17-.73.26-1.11.4-.37.11-.78.31-1.13.37-.22.05-.45.11-.67.16-.23.06-.4.06-.6.09-.38.07-.81.08-1.24.11-.42,0-.85,0-1.28-.05-.85-.07-1.66-.32-2.42-.62l-.55-.28-.14-.07h-.01s-.04-.04-.04-.04l-.31-.22c-.48-.31-.65-.55-.92-.78-.49-.58-1-1.24-1.24-1.96-.19-.35-.2-.72-.32-1.07-.03-.35-.09-.72-.06-1.06.02-.17.04-.34.05-.51v-.13s.01-.03.01-.03v-.02s-.06.14-.03.07h0s.02-.08.02-.08l.09-.3c.11-.45.25-.63.36-.91.33-.51.69-.95,1.17-1.24.41-.25.91-.39,1.31-.41.41-.03.74.03.97.1.23.08.35.12.35.12,0,0-.09-.09-.27-.27-.19-.15-.5-.39-.97-.52-.47-.14-1.08-.24-1.82-.04l-.23.06c-.06.02-.04,0-.16.05l-.13.06c-.17.09-.35.18-.54.27-.2.08-.35.23-.51.37-.16.15-.34.27-.5.45-.3.36-.65.81-.81,1.14l-.15.27-.04.07h0s-.03.1-.03.1v.02s-.02.04-.02.04l-.06.18c-.07.24-.15.49-.23.74-.1.25-.09.52-.12.78-.02.27-.06.54-.05.82.05.54.07,1.12.25,1.65.26,1.12.85,2.13,1.61,3.08Z"/>
  </g>
</svg>