<?xml version="1.0" encoding="UTF-8"?>
<svg id="Layer_2" data-name="Layer 2" xmlns="http://www.w3.org/2000/svg" viewBox="0 0 78.97 79.12">
  <g id="Layer_1-2" data-name="Layer 1">
    <g>
      <path d="M78.95,51.96l-.03-.37c0-.23-.1-.6-.16-.89-.15-.6-.35-1.13-.61-1.66-.53-1.04-1.27-1.95-2.17-2.67l-.08-.07-.04-.03s.07.05-.11-.08h-.02s-.16-.11-.16-.11l-.32-.2-.63-.4c-.46-.26-1.07-.47-1.6-.69-.35-.12-.7-.2-1.04-.27.35-.07.69-.14,1.04-.27.53-.22,1.14-.43,1.6-.69l.63-.4.32-.2.16-.1h.02c.18-.14.06-.06.11-.09l.04-.03.08-.07c.89-.73,1.64-1.64,2.17-2.67.26-.53.46-1.06.61-1.66.06-.29.15-.66.16-.89l.03-.37.02-.19v-.09s0-.03,0-.03v-.06s0-.11,0-.11c-.01-1.2-.34-2.36-.92-3.38-.3-.51-.64-.97-1.07-1.41-.23-.2-.5-.46-.71-.6l-.31-.2-.15-.1-.08-.05s-.14-.09-.09-.05h-.03s-.05-.03-.05-.03c-1.06-.55-2.24-.75-3.36-.62-.48.06-.96.18-1.41.35,0-.14.03-.28.03-.41,0-.32-.03-.63-.08-.94-.05-.28-.12-.56-.2-.83.25.21.51.41.8.53.37.23.85.3,1.3.39.35,0,.32.02.68-.02.29-.02.5-.11.73-.17.44-.17.84-.42,1.15-.75.31-.34.55-.73.65-1.15.02-.1.07-.38.07-.59,0-.22-.04-.38-.07-.55-.05-.16-.11-.31-.17-.45-.08-.12-.16-.24-.23-.35-.17-.2-.35-.34-.51-.42-.14-.1-.3-.11-.38-.13-.09-.01-.13-.02-.13-.02,0,0,.11.18.17.45.04.13.04.3.05.46-.01.17-.05.35-.11.52-.05.08-.07.18-.12.22-.05.04-.04.05-.15.2-.1.12-.25.21-.39.29-.15.08-.33.13-.51.18-.09.01-.2.03-.24.03.03.02-.33,0-.31,0-.19-.05-.4-.04-.6-.14-.23-.05-.37-.16-.57-.21-.23-.16-.44-.31-.65-.45-.19-.15-.38-.29-.55-.46-.19-.17-.36-.33-.51-.48.05-.04.1-.07.14-.13l.15-.2h0c.11-.31.23-.61.32-.92.07-.32.17-.62.2-.95.05-.32.07-.64.07-.96,0-.32-.03-.63-.08-.94-.11-.68-.34-1.31-.66-1.88.05-.04.11-.07.16-.11.13-.1.27-.18.41-.26l.05-.03.02-.02h.01s0-.01,0-.01h0s-.06.06-.05.05h0s.14-.08.14-.08c.09-.05.19-.12.27-.16.13,0,.18-.04.32-.06.11-.04.2-.03.29-.05h.04s.17,0,.17,0c.16,0,.13.02.13.02,0-.03.08,0,.18,0,.05.03.17.03.24.07.09.11.07.08.12.08.04,0,.07.07.11.11.06.09.12.2.15.32.02.1.05.23.03.33,0,.2-.08.35-.07.35,0,0,.04,0,.1,0,.06,0,.19,0,.3-.06.13-.05.28-.14.43-.28.14-.15.28-.34.36-.6.03-.13.07-.25.07-.43,0-.18-.04-.41-.04-.47-.06-.33-.26-.64-.49-.92-.12-.11-.25-.23-.4-.34-.02-.21-.04-.44-.14-.68-.12-.28-.23-.61-.47-.88-.21-.31-.5-.56-.82-.81-.16-.13-.35-.2-.53-.3-.03-.02-.07-.03-.11-.04.55-.5.72-1.23.72-1.23,0,0-.92-.13-1.62.35-.07.05-.13.1-.19.15.13-.32.22-.69.22-1.08,0-1.26-.94-2.29-.94-2.29,0,0-.94,1.02-.94,2.29,0,.39.1.76.22,1.08-.06-.05-.12-.11-.18-.15-.7-.48-1.62-.35-1.62-.35,0,0,.18.78.77,1.28,0,0,0,0-.01,0-.18.1-.37.18-.53.31-.32.25-.61.5-.82.81-.24.27-.35.6-.47.88-.07.15-.1.32-.12.48-.32.14-.54.34-.75.53-.22.29-.42.6-.49.92,0,.06-.04.3-.04.47,0,.18.04.3.07.43.08.25.22.45.36.6.15.15.29.24.43.28.12.06.24.05.3.06.07,0,.1,0,.1,0,0,0-.06-.15-.07-.35-.01-.1.02-.22.03-.33.04-.12.09-.23.15-.32.04-.04.07-.1.11-.11.04,0,.03.03.12-.08.07-.04.19-.04.24-.07.1,0,.18-.03.18,0,0,0-.03-.02.13-.02h.17s.04,0,.04,0c.09.02.18.01.29.05.14.02.19.06.32.06.08.04.18.12.27.16l.14.08h0s-.09-.09-.05-.05h0s0,0,0,0h.01s.02.02.02.02l.05.03c.14.08.28.16.41.26.06.04.11.07.16.11-.03.07-.07.13-.1.21-.26.53-.42,1.12-.5,1.73-.09.61-.08,1.24.01,1.87.05.31.11.63.2.94.05.16.1.31.16.47.06.16.11.3.23.51.05.08.12.15.19.22-.16.16-.34.33-.54.51-.16.17-.36.31-.55.46-.21.14-.43.29-.65.45-.21.06-.34.16-.57.21-.21.1-.41.09-.6.14.02,0-.35.02-.31,0-.04,0-.14-.02-.24-.03-.18-.05-.36-.09-.51-.18-.14-.08-.3-.17-.39-.29-.11-.15-.1-.16-.15-.2-.05-.04-.07-.15-.12-.22-.06-.17-.1-.35-.11-.52.01-.16,0-.33.05-.46.07-.27.18-.44.17-.45,0,0-.05,0-.13.02-.08.02-.24.03-.38.13-.16.08-.34.22-.51.42-.07.11-.15.23-.23.35-.06.13-.12.28-.17.45-.03.17-.07.33-.07.55,0,.22.05.49.07.59.09.42.34.81.65,1.15.32.33.72.58,1.15.75.22.07.43.15.73.17.36.04.33.03.68.02.45-.08.92-.16,1.3-.39.3-.12.59-.34.84-.57-.09.3-.15.6-.2.91-.09.61-.08,1.24.01,1.87.05.31.11.63.2.94.05.16.1.31.16.47.03.07.05.13.08.19-.28.49-.48,1.01-.59,1.53-.21,1.02-.12,2,.3,2.97l.16.36c.06.11.12.17.17.26l.17.24.09.12.07.09.03.03.06.06c.32.34.68.63,1.08.83.79.42,1.61.6,2.48.46.74-.11,1.49-.54,1.93-1.06.47-.52.76-1.1.82-1.75.05-.54-.05-1.15-.32-1.55-.14-.2-.32-.43-.48-.52-.08-.05-.17-.1-.25-.14-.12-.07-.21-.07-.3-.1-.38-.05-.69.07-.89.21-.42.31-.37.63-.39.61.01.02.04-.3.46-.5.19-.1.49-.15.77-.06.06.03.16.06.19.09.07.06.14.12.22.18.09.06.12.14.17.21.04.08.1.13.13.23.16.37.18.77.06,1.27-.1.4-.38.88-.78,1.21-.42.35-.88.57-1.51.6-.5.02-1.14-.15-1.64-.5-.26-.16-.49-.39-.68-.63-.08-.14-.46-.68-.44-.88-.16-.53-.24-1.3-.03-1.96.18-.67.59-1.3,1.1-1.69.41-.33.62-.39.95-.53.34-.13.71-.19,1.08-.23.75-.06,1.54.12,2.18.49h.03s0,.01,0,.01l.04.03.15.1.3.21c.18.14.25.25.38.37.25.27.5.6.69.94.39.7.6,1.52.6,2.31v.08s0,.04,0,.04h0s-.02.16-.02.16l-.04.37c-.02.27-.09.38-.12.58-.1.37-.25.78-.44,1.15-.37.75-.91,1.44-1.56,1.98l-.06.05-.02.02-.11.07-.31.2-.63.41c-.4.22-.75.31-1.12.48-.38.14-.84.2-1.25.31-.42.1-.86.09-1.29.14l-.16.02h-.04s-.01,0-.01,0h-.04s-.36-.03-.36-.03l-.72-.05c-.47-.04-.79-.18-1.2-.25-1.6-.46-3.07-1.35-4.07-2.52-.3-.26-.45-.61-.67-.91-.24-.3-.35-.65-.49-.98l-.21-.5c-.04-.1-.09-.36-.13-.53-.06-.21-.05-.34-.07-.5-.02-.15-.04-.31-.02-.47.01-.16,0-.32.03-.47.04-.15.07-.29.11-.44,0-.06.13-.32.18-.42.07-.1.12-.21.22-.32.34-.45.83-.71,1.3-.77.97-.07,1.81.78,1.86,1.54.08.78-.33,1.42-.66,1.71-.35.3-.61.36-.6.38,0-.02.26-.03.68-.28.39-.25.99-.82,1.03-1.83.05-.96-.77-2.29-2.33-2.39-.75-.01-1.53.31-2.09.9-.15.13-.28.31-.41.5-.12.2-.18.25-.28.54-.07.2-.14.4-.21.61-.06.21-.07.42-.11.64-.04.21-.04.44-.03.67,0,.22,0,.48.04.66.04.21.04.34.1.63.07.21.13.42.2.64.13.43.27.87.52,1.26.24.4.43.84.75,1.19,1.15,1.52,2.83,2.73,4.83,3.37.34.09.71.18,1.06.27-.35.08-.72.18-1.06.27-2,.64-3.67,1.85-4.83,3.37-.33.35-.52.79-.75,1.19-.25.39-.39.83-.52,1.26-.07.21-.13.43-.2.64-.06.29-.07.42-.1.63-.04.18-.03.44-.04.66,0,.23-.01.45.03.67.04.22.05.43.11.64.07.21.14.41.21.61.11.28.17.33.28.54.13.19.27.37.41.5.56.59,1.35.91,2.09.9,1.55-.1,2.38-1.42,2.33-2.39-.04-1-.65-1.57-1.03-1.83-.42-.25-.68-.26-.68-.28,0,.02.25.07.6.38.33.29.74.93.66,1.71-.05.76-.89,1.61-1.86,1.54-.47-.06-.96-.32-1.3-.77-.1-.11-.15-.22-.22-.32-.05-.1-.19-.36-.18-.42-.04-.14-.07-.29-.11-.44-.03-.15-.02-.31-.03-.47-.02-.16,0-.31.02-.47.02-.16.01-.29.07-.5.04-.17.1-.43.13-.53l.21-.5c.14-.33.26-.68.49-.98.22-.3.37-.65.67-.91,1-1.16,2.47-2.06,4.07-2.52.4-.07.73-.2,1.2-.25l.72-.05.36-.03h.04s.01,0,.01,0h.04s.16.02.16.02c.43.05.87.04,1.29.14.41.11.87.17,1.25.31.37.18.72.26,1.12.48l.63.41.31.2.11.07.02.02.06.05c.65.54,1.19,1.22,1.56,1.98.19.37.35.78.44,1.15.03.2.1.31.12.58l.04.37.02.16h0s0,.04,0,.04v.08c0,.8-.21,1.61-.6,2.31-.19.35-.44.67-.69.94-.14.12-.2.23-.38.37l-.3.21-.15.1-.04.03h-.03c-.64.39-1.42.56-2.18.5-.37-.04-.74-.1-1.08-.23-.32-.14-.54-.19-.95-.53-.51-.39-.92-1.02-1.1-1.69-.21-.66-.13-1.43.03-1.96-.01-.2.37-.75.44-.88.19-.24.42-.47.68-.63.5-.35,1.15-.52,1.64-.5.63.03,1.09.25,1.51.6.4.33.67.81.78,1.21.12.5.09.9-.06,1.27-.03.1-.09.15-.13.23-.04.07-.07.15-.17.21-.08.06-.15.12-.22.18-.03.04-.13.06-.19.09-.29.1-.58.04-.77-.06-.42-.2-.44-.52-.46-.5.02-.02-.02.3.39.61.2.14.51.27.89.21.1-.03.18-.02.3-.1.08-.05.16-.09.25-.14.16-.09.35-.32.48-.52.26-.4.37-1.01.32-1.55-.07-.65-.35-1.23-.82-1.75-.45-.51-1.19-.94-1.93-1.06-.87-.14-1.69.05-2.48.46-.39.2-.75.49-1.08.83l-.06.06-.03.03-.07.09-.09.12-.17.24c-.06.09-.12.15-.17.26l-.16.36c-.42.97-.51,1.95-.3,2.97.11.53.31,1.05.59,1.53-.03.06-.05.12-.08.19-.06.16-.11.31-.16.47-.09.31-.16.63-.2.94-.09.63-.1,1.26-.01,1.87.05.31.11.62.2.91-.26-.22-.54-.44-.84-.57-.37-.23-.84-.3-1.3-.39-.35,0-.32-.02-.68.02-.29.02-.5.11-.73.17-.44.17-.84.42-1.15.75-.31.34-.55.73-.65,1.15-.02.1-.07.38-.07.59,0,.22.04.38.07.55.05.16.11.31.17.45.08.12.16.24.23.35.17.2.35.34.51.42.14.1.3.11.38.13.09.01.13.02.13.02,0,0-.11-.18-.17-.45-.04-.13-.04-.3-.05-.46.01-.17.05-.35.11-.52.05-.08.07-.18.12-.22.05-.04.04-.05.15-.2.1-.12.25-.21.39-.29.15-.08.33-.13.51-.18.09-.01.2-.03.24-.03-.03-.02.33,0,.31,0,.19.05.4.04.6.14.23.05.37.16.57.21.23.16.44.31.65.45.19.15.38.29.55.46.21.18.38.35.54.51-.07.07-.14.13-.19.22-.12.21-.16.34-.23.51-.06.16-.11.31-.16.47-.09.31-.16.63-.2.94-.09.63-.1,1.26-.01,1.87.09.61.25,1.2.5,1.73.03.07.07.14.1.21-.05.04-.1.07-.16.11-.13.1-.27.18-.41.26l-.05.03-.02.02h-.01s0,.01,0,.01h0s.06-.06.05-.05h0s-.14.08-.14.08c-.09.05-.19.12-.27.16-.13,0-.18.04-.32.06-.11.04-.2.03-.29.05h-.04s-.17,0-.17,0c-.16,0-.13-.02-.13-.02,0,.03-.08,0-.18,0-.05-.03-.17-.03-.24-.07-.09-.11-.07-.08-.12-.08-.04,0-.07-.07-.11-.11-.06-.09-.12-.2-.15-.32-.02-.1-.05-.23-.03-.33,0-.2.08-.35.07-.36,0,0-.04,0-.1,0-.06,0-.19,0-.3.06-.13.05-.28.14-.43.28-.14.15-.28.34-.36.6-.03.13-.07.25-.07.43,0,.18.04.41.04.47.06.33.26.64.49.92.21.19.43.4.75.53.02.16.05.32.12.48.12.28.23.61.47.88.21.31.49.56.82.81.16.13.35.21.53.31,0,0,0,0,.01,0-.58.5-.77,1.28-.77,1.28,0,0,.92.13,1.62-.35.07-.05.13-.1.18-.15-.13.32-.22.69-.22,1.08,0,1.26.94,2.29.94,2.29,0,0,.94-1.02.94-2.29,0-.39-.1-.76-.22-1.08.06.05.12.11.19.15.7.48,1.62.35,1.62.35,0,0-.17-.74-.72-1.23.04-.02.08-.02.11-.04.18-.1.37-.18.53-.31.32-.25.61-.5.82-.81.24-.28.35-.6.47-.88.1-.23.11-.47.14-.68.15-.11.27-.22.4-.34.22-.29.42-.6.49-.92,0-.06.04-.3.04-.47,0-.18-.04-.3-.07-.43-.08-.25-.22-.45-.36-.6-.15-.15-.29-.24-.43-.28-.12-.06-.24-.05-.3-.06-.07,0-.1,0-.1,0,0,0,.06.15.07.36.01.1-.02.22-.03.33-.03.12-.09.23-.15.32-.04.04-.07.1-.11.11-.04,0-.03-.03-.12.08-.07.04-.19.04-.24.07-.1,0-.18.03-.18,0,0,0,.03.02-.13.02h-.17s-.04,0-.04,0c-.09-.02-.18-.01-.29-.05-.14-.02-.19-.06-.32-.06-.08-.04-.18-.12-.27-.16l-.14-.08h0s.09.09.05.05h0s0,0,0,0h-.01s-.02-.02-.02-.02l-.05-.03c-.14-.08-.28-.16-.41-.26-.06-.04-.11-.07-.16-.11.31-.57.55-1.2.66-1.88.05-.31.08-.62.08-.94,0-.32-.02-.64-.07-.96-.03-.33-.13-.63-.2-.95-.09-.31-.21-.61-.32-.92h0s-.15-.21-.15-.21c-.04-.05-.09-.08-.14-.12.15-.15.32-.31.51-.48.16-.17.36-.31.55-.46.21-.14.43-.29.65-.45.21-.06.34-.16.57-.21.21-.1.41-.09.6-.14-.02,0,.35-.02.31,0,.04,0,.14.02.24.03.18.05.36.09.51.18.14.08.3.17.39.29.11.15.1.16.15.2.05.04.07.15.12.22.06.17.1.35.11.52-.01.16,0,.33-.05.46-.07.27-.18.44-.17.45,0,0,.05,0,.13-.02.08-.02.24-.03.38-.13.16-.08.34-.22.51-.42.07-.11.15-.23.23-.35.06-.13.12-.28.17-.45.03-.17.07-.33.07-.55,0-.22-.05-.49-.07-.59-.09-.42-.34-.81-.65-1.15-.32-.34-.72-.58-1.15-.75-.22-.07-.43-.15-.73-.17-.36-.04-.33-.03-.68-.02-.45.08-.92.16-1.3.39-.29.12-.55.32-.8.53.08-.27.15-.54.2-.83.05-.31.08-.62.08-.94,0-.14-.02-.28-.03-.41.46.17.93.28,1.41.35,1.12.12,2.3-.07,3.36-.62l.05-.02h.03c-.05.02.1-.07.09-.07l.08-.05.15-.1.31-.2c.21-.14.48-.39.71-.6.43-.43.78-.89,1.07-1.41.58-1.02.91-2.18.92-3.38v-.11s0-.06,0-.06v-.03s0-.09,0-.09l-.02-.19ZM69.61,29.15c-.04.25-.11.49-.19.73-.05.14-.11.26-.17.39-.16-.35-.29-.71-.37-1.1-.1-.5-.14-1.02-.08-1.56,0-.22.05-.43.1-.64.1-.21.18-.41.22-.6.03-.1.05-.2.07-.3.08.18.15.36.21.55.02.07.04.14.07.21.23.78.27,1.59.13,2.32ZM69.19,26.04s.02-.08.02-.12c0,.06.03.13.04.19-.02-.02-.04-.05-.06-.08ZM69.61,21.15c-.04.25-.11.49-.19.73-.05.14-.11.26-.17.39-.16-.35-.29-.71-.37-1.1-.1-.5-.14-1.02-.08-1.56,0-.01,0-.03,0-.04.24.18.41.31.42.3,0,.01.18-.12.42-.3.07.54.06,1.07-.03,1.58ZM69.54,17.47l-.08.14h0s-.1.11-.05.06h0s0,0,0,0v.02s-.03.04-.03.04l-.04.09c-.04.09-.07.17-.1.26-.01-.01-.02-.03-.03-.04-.03-.07-.05-.14-.09-.22l-.04-.09-.02-.04v-.02s-.01,0-.01,0h0s-.06-.07-.05-.06h0s-.08-.14-.08-.14c-.06-.1-.11-.17-.19-.28-.23-.23-.52-.49-.82-.62-.15-.09-.32-.15-.51-.2,0,0,0,0,0,0,.18-.12.41-.19.61-.28.23-.05.44-.14.68-.16.23-.05.47-.05.71-.07.24.02.48.02.71.07.24.02.45.11.68.16.18.07.36.14.52.23-.26.05-.53.12-.74.25-.3.13-.58.39-.82.62-.08.1-.13.18-.19.28ZM68.87,59.85c.08-.39.21-.75.37-1.1.06.13.12.26.17.39.08.23.15.48.19.73.14.74.09,1.54-.13,2.32-.03.07-.05.14-.07.21-.06.18-.13.37-.21.55-.02-.1-.04-.2-.07-.3-.05-.19-.13-.4-.22-.6-.04-.21-.09-.43-.1-.64-.06-.53-.02-1.06.08-1.56ZM69.26,62.9c-.01.07-.03.13-.04.19,0-.04-.02-.08-.02-.12.02-.02.04-.05.06-.08ZM68.87,67.84c.08-.39.21-.75.37-1.1.06.13.12.26.17.39.08.23.15.48.19.73.09.5.1,1.04.03,1.58-.24-.18-.41-.31-.42-.3,0-.01-.18.12-.42.3,0-.01,0-.03,0-.04-.06-.53-.02-1.06.08-1.56ZM70.55,72.44c.21.13.47.2.74.25-.16.09-.35.16-.52.23-.22.05-.44.14-.68.16-.23.05-.47.05-.71.07-.24-.02-.48-.01-.71-.07-.24-.02-.45-.11-.68-.16-.21-.09-.43-.15-.61-.28,0,0,0,0,0,0,.18-.05.36-.11.51-.2.3-.13.58-.39.82-.62.08-.1.13-.18.19-.28l.08-.14h0s.1-.11.05-.06h0s0,0,0,0v-.02s.03-.04.03-.04l.04-.09c.03-.07.06-.14.09-.22.01-.01.02-.03.03-.04.03.08.06.17.1.26l.04.09.02.04v.02s.01,0,.01,0h0s.06.07.05.06h0s.08.14.08.14c.06.1.11.17.19.28.23.23.52.49.82.62Z"/>
      <path d="M61.15,14.59c.33-.06.64-.26.92-.49.19-.21.4-.43.53-.75.16-.02.32-.05.48-.12.28-.12.61-.23.88-.47.31-.21.56-.49.81-.82.13-.16.21-.35.31-.53,0,0,0,0,0-.01.5.58,1.28.77,1.28.77,0,0,.13-.92-.35-1.62-.05-.07-.1-.13-.15-.18.32.13.69.22,1.08.22,1.26,0,2.29-.94,2.29-.94,0,0-1.02-.94-2.29-.94-.39,0-.76.1-1.08.22.05-.06.11-.12.15-.19.48-.7.35-1.62.35-1.62,0,0-.74.17-1.23.72-.02-.04-.02-.08-.04-.11-.1-.18-.18-.37-.3-.53-.25-.32-.5-.61-.81-.82-.28-.24-.6-.35-.88-.47-.23-.1-.47-.11-.68-.14-.11-.15-.22-.27-.34-.4-.29-.22-.6-.42-.92-.49-.06,0-.3-.04-.47-.04-.18,0-.3.04-.43.07-.25.08-.45.22-.6.36-.15.15-.23.29-.28.43-.06.12-.05.24-.06.3,0,.07,0,.1,0,.1,0,0,.15-.06.36-.07.1-.01.22.02.33.03.12.04.23.09.32.15.04.04.1.07.11.11,0,.04-.03.03.08.12.04.07.04.19.07.24,0,.1.03.18,0,.18,0,0,.02-.03.02.13v.17s0,.04,0,.04c-.02.09-.01.18-.05.29-.02.14-.06.19-.06.32-.04.08-.12.18-.16.27l-.08.14h0s.1-.09.05-.04h0s0,0,0,0h0s-.02.04-.02.04l-.03.05c-.08.14-.16.28-.26.41-.04.06-.07.11-.11.16-.57-.31-1.2-.55-1.88-.66-.31-.05-.62-.08-.94-.08-.32,0-.64.02-.96.07-.33.03-.63.13-.95.2-.31.09-.61.21-.92.32h0s-.21.16-.21.16c-.05.04-.08.09-.12.14-.15-.15-.31-.32-.48-.51-.17-.16-.31-.36-.46-.55-.14-.21-.29-.43-.45-.65-.06-.21-.16-.34-.21-.57-.1-.21-.09-.41-.14-.6,0,.02-.02-.35,0-.31,0-.04.02-.14.03-.24.05-.18.09-.36.18-.51.08-.14.17-.3.29-.39.15-.11.16-.1.2-.15.04-.05.15-.07.22-.12.17-.06.35-.1.52-.11.16.01.33,0,.46.05.27.07.44.18.45.17,0,0,0-.05-.02-.13-.02-.08-.03-.24-.13-.38-.08-.16-.22-.34-.42-.51-.11-.07-.23-.15-.35-.23-.13-.06-.28-.12-.45-.17-.17-.03-.33-.07-.55-.07-.22,0-.49.05-.59.07-.42.09-.81.34-1.15.65-.33.32-.58.72-.75,1.15-.07.22-.15.43-.17.73-.04.36-.03.33-.02.68.08.45.16.92.39,1.3.12.29.32.55.53.8-.27-.08-.54-.15-.83-.2-.31-.05-.62-.08-.94-.08-.14,0-.28.02-.41.03.17-.46.28-.93.35-1.41.12-1.12-.07-2.3-.62-3.36l-.02-.05v-.03c.02.05-.07-.1-.07-.09l-.05-.08-.1-.15-.2-.31c-.14-.21-.39-.48-.6-.71-.43-.43-.89-.78-1.41-1.07-1.02-.58-2.18-.91-3.38-.92h-.11s-.06,0-.06,0h-.03s-.09,0-.09,0l-.19.02-.37.03c-.23,0-.6.1-.89.16-.6.15-1.13.35-1.66.61-1.04.53-1.95,1.27-2.67,2.17l-.07.08-.03.04s.05-.07-.08.11v.02s-.11.16-.11.16l-.2.32-.4.63c-.26.46-.47,1.07-.69,1.6-.12.35-.2.7-.27,1.04-.07-.35-.14-.69-.27-1.04-.22-.53-.43-1.14-.69-1.6l-.4-.63-.2-.32-.1-.16v-.02c-.14-.18-.06-.06-.09-.11l-.03-.04-.07-.08c-.73-.89-1.64-1.64-2.67-2.17-.53-.26-1.06-.46-1.66-.61-.29-.06-.66-.15-.89-.16l-.37-.03-.19-.02h-.09s-.03,0-.03,0h-.06s-.11,0-.11,0c-1.2.01-2.36.34-3.38.92-.51.3-.97.64-1.41,1.07-.2.23-.46.5-.6.71l-.2.31-.1.15-.05.08s-.09.14-.05.09v.03s-.03.05-.03.05c-.55,1.06-.75,2.24-.62,3.36.06.48.18.96.35,1.41-.14,0-.28-.03-.41-.03-.32,0-.63.03-.94.08-.28.05-.56.12-.83.2.21-.25.41-.51.53-.8.23-.37.3-.84.39-1.3,0-.35.02-.32-.02-.68-.02-.29-.11-.5-.17-.73-.17-.44-.42-.84-.75-1.15-.34-.31-.73-.55-1.15-.65-.1-.02-.38-.07-.59-.07-.22,0-.38.04-.55.07-.16.05-.31.11-.45.17-.12.08-.24.16-.35.23-.2.17-.34.35-.42.51-.1.14-.11.3-.13.38-.01.09-.02.13-.02.13,0,0,.18-.11.45-.17.13-.04.3-.04.46-.05.17.01.35.05.52.11.08.05.18.07.22.12.04.05.05.04.2.15.12.1.21.25.29.39.08.15.13.33.18.51.01.09.03.2.03.24.02-.03,0,.33,0,.31-.05.19-.04.4-.14.6-.05.23-.16.37-.21.57-.16.23-.31.44-.45.65-.15.19-.29.38-.46.55-.17.19-.33.36-.48.51-.04-.05-.07-.1-.13-.14l-.2-.15h0c-.31-.11-.61-.23-.92-.32-.32-.07-.62-.17-.95-.2-.32-.05-.64-.07-.96-.07-.32,0-.63.03-.94.08-.68.11-1.31.34-1.88.66-.04-.05-.07-.11-.11-.16-.1-.13-.18-.27-.26-.41l-.03-.05-.02-.02h0s0-.02,0-.02h0s.06.06.05.05h0s-.08-.15-.08-.15c-.05-.09-.12-.19-.16-.27,0-.13-.04-.18-.06-.32-.04-.11-.03-.2-.05-.29v-.04s0-.17,0-.17c0-.16.02-.13.02-.13-.03,0,0-.08,0-.18.03-.05.03-.17.07-.24.11-.09.08-.07.08-.12,0-.04.07-.07.11-.11.09-.06.2-.12.32-.15.1-.02.23-.05.33-.03.2,0,.35.08.35.07,0,0,0-.04,0-.1,0-.06,0-.19-.06-.3-.05-.13-.14-.28-.28-.43-.15-.14-.34-.28-.6-.36-.13-.03-.25-.07-.43-.07-.18,0-.41.04-.47.04-.33.06-.64.26-.92.49-.11.12-.23.25-.34.4-.21.02-.44.04-.68.14-.28.12-.61.23-.88.47-.31.21-.56.5-.81.82-.13.16-.2.35-.3.53-.02.03-.03.07-.04.11-.5-.55-1.23-.72-1.23-.72,0,0-.13.92.35,1.62.05.07.1.13.15.19-.32-.13-.69-.22-1.08-.22-1.26,0-2.29.94-2.29.94,0,0,1.02.94,2.29.94.39,0,.76-.1,1.08-.22-.05.06-.11.12-.15.18-.48.7-.35,1.62-.35,1.62,0,0,.78-.18,1.28-.77,0,0,0,0,0,.01.1.18.18.37.31.53.25.32.5.61.81.82.27.24.6.35.88.47.15.07.32.1.48.12.14.32.34.54.53.75.29.22.6.42.92.49.06,0,.3.04.47.04.18,0,.3-.04.43-.07.25-.08.45-.22.6-.36.15-.15.24-.29.28-.43.06-.12.05-.24.06-.3,0-.07,0-.1,0-.1,0,0-.15.06-.35.07-.1.01-.22-.02-.33-.03-.12-.04-.23-.09-.32-.15-.04-.04-.1-.07-.11-.11,0-.04.03-.03-.08-.12-.04-.07-.04-.19-.07-.24,0-.1-.03-.18,0-.18,0,0-.02.03-.02-.13v-.17s0-.04,0-.04c.02-.09.01-.18.05-.29.02-.14.06-.19.06-.32.04-.08.12-.18.16-.27l.08-.14h0s-.1.09-.05.04h0s0,0,0,0h0s.02-.04.02-.04l.03-.05c.08-.14.16-.28.26-.41.04-.06.07-.11.11-.16.07.03.13.07.21.1.53.26,1.12.42,1.73.51.61.09,1.24.08,1.87-.01.31-.05.63-.11.94-.2.16-.05.31-.1.47-.16.17-.06.3-.11.51-.23.08-.05.15-.12.22-.19.16.16.33.34.51.54.17.16.31.36.46.55.14.21.29.43.45.65.06.21.16.34.21.57.1.21.09.41.14.6,0-.02.02.35,0,.31,0,.04-.02.14-.03.24-.05.18-.09.36-.18.51-.08.14-.17.3-.29.39-.15.11-.16.1-.2.15-.04.05-.15.07-.22.12-.17.06-.35.1-.52.11-.16-.01-.33,0-.46-.05-.27-.07-.44-.18-.45-.17,0,0,0,.05.02.13.02.08.03.24.13.38.08.16.22.34.42.51.11.07.23.15.35.23.13.06.28.12.45.17.17.03.33.07.55.07.22,0,.49-.05.59-.07.42-.09.81-.34,1.15-.65.34-.32.58-.72.75-1.15.07-.22.15-.43.17-.73.04-.36.03-.33.02-.68-.08-.45-.16-.92-.39-1.3-.12-.3-.34-.59-.57-.84.3.09.6.15.91.2.61.09,1.24.08,1.87-.01.31-.05.63-.11.94-.2.16-.05.31-.1.47-.16.07-.03.13-.05.19-.08.49.28,1.01.48,1.53.59,1.02.21,2,.12,2.97-.3l.36-.16c.11-.06.17-.12.26-.17l.24-.17.12-.09.09-.07.03-.03.06-.06c.34-.32.63-.68.83-1.08.42-.79.6-1.61.46-2.48-.11-.74-.54-1.49-1.06-1.93-.52-.47-1.1-.76-1.75-.82-.54-.05-1.15.05-1.55.32-.2.14-.43.32-.52.48-.05.08-.1.17-.14.25-.07.12-.07.21-.1.3-.05.38.07.69.21.89.31.42.63.37.61.39.02-.02-.3-.04-.5-.46-.1-.2-.15-.49-.06-.77.03-.06.06-.16.09-.19.06-.07.12-.14.18-.22.06-.09.14-.12.21-.17.08-.04.13-.1.23-.13.37-.16.77-.18,1.27-.06.4.1.88.38,1.21.78.35.42.57.88.6,1.51.02.5-.15,1.14-.5,1.64-.16.26-.39.49-.63.68-.14.08-.68.46-.88.45-.53.16-1.3.24-1.96.03-.67-.18-1.3-.59-1.69-1.1-.33-.41-.39-.62-.53-.95-.13-.34-.19-.71-.23-1.08-.06-.75.12-1.54.49-2.18v-.03s.01,0,.01,0l.03-.04.1-.15.21-.3c.14-.18.25-.25.37-.38.27-.25.6-.5.94-.69.7-.39,1.52-.6,2.31-.6h.08s.04,0,.04,0h0s.16.02.16.02l.37.04c.27.02.38.09.58.12.37.1.78.25,1.15.44.75.37,1.44.91,1.98,1.56l.05.06.02.02.07.11.2.31.41.63c.22.4.3.75.48,1.12.14.38.2.84.31,1.25.1.42.09.86.14,1.29l.02.16v.04s0,.01,0,.01v.04s-.03.36-.03.36l-.05.72c-.04.47-.18.79-.25,1.2-.46,1.6-1.35,3.07-2.52,4.07-.26.3-.61.45-.91.67-.3.24-.65.35-.98.49l-.5.21c-.1.04-.36.09-.53.13-.21.06-.34.05-.5.07-.15.02-.31.04-.47.02-.16-.01-.32,0-.47-.03-.15-.04-.29-.07-.44-.11-.06,0-.32-.13-.42-.18-.1-.07-.21-.12-.32-.22-.45-.34-.71-.83-.77-1.3-.07-.97.78-1.81,1.54-1.86.78-.08,1.42.33,1.71.66.3.35.36.61.38.6-.02,0-.02-.26-.28-.68-.25-.39-.82-.99-1.83-1.03-.96-.05-2.29.77-2.39,2.33-.01.75.31,1.53.9,2.09.13.15.31.28.5.41.2.12.25.18.54.28.2.07.4.14.61.21.21.06.42.07.64.11.21.04.44.04.67.03.22,0,.48,0,.66-.04.21-.04.34-.04.63-.1.21-.07.42-.13.64-.2.43-.13.87-.27,1.26-.52.4-.24.84-.43,1.19-.75,1.52-1.15,2.73-2.83,3.37-4.83.09-.34.18-.71.27-1.06.08.35.18.72.27,1.06.64,2,1.85,3.67,3.37,4.83.35.33.79.52,1.19.75.39.25.83.39,1.26.52.21.07.43.13.64.2.29.06.42.07.63.1.18.04.44.03.66.04.23,0,.45.01.67-.03.22-.04.43-.05.64-.11.2-.07.41-.14.61-.21.28-.11.33-.17.54-.28.19-.13.37-.27.5-.41.59-.56.91-1.35.9-2.09-.1-1.55-1.42-2.38-2.39-2.33-1,.04-1.57.65-1.83,1.03-.25.42-.26.68-.28.68.02,0,.07-.25.38-.6.29-.33.93-.74,1.71-.66.76.05,1.61.89,1.54,1.86-.06.47-.32.96-.77,1.3-.11.1-.22.15-.32.22-.1.05-.36.19-.42.18-.14.04-.29.07-.44.11-.15.03-.31.02-.47.03-.16.02-.31,0-.47-.02-.16-.02-.29-.01-.5-.07-.17-.04-.43-.1-.53-.13l-.5-.21c-.33-.14-.68-.26-.98-.49-.3-.22-.65-.37-.91-.67-1.16-1-2.06-2.47-2.52-4.07-.07-.4-.2-.73-.25-1.2l-.05-.72-.03-.36v-.04s0-.01,0-.01v-.04s.02-.16.02-.16c.05-.43.04-.87.14-1.29.11-.41.17-.87.31-1.25.18-.37.26-.72.48-1.12l.41-.63.2-.31.07-.11.02-.02.05-.06c.54-.65,1.22-1.19,1.98-1.56.37-.19.78-.35,1.15-.44.2-.03.31-.1.58-.12l.37-.04.16-.02h0s.04,0,.04,0h.08c.8,0,1.61.21,2.31.6.35.19.67.44.94.69.12.14.23.2.37.38l.21.3.1.15.03.04v.03c.39.64.56,1.42.51,2.18-.04.37-.1.74-.23,1.08-.14.32-.19.54-.53.95-.39.51-1.02.92-1.69,1.1-.66.21-1.43.13-1.96-.03-.2.01-.75-.37-.88-.45-.24-.19-.47-.42-.63-.68-.35-.5-.52-1.15-.5-1.64.03-.63.25-1.09.59-1.51.33-.4.81-.67,1.21-.78.5-.12.9-.09,1.27.06.1.03.15.09.23.13.07.04.15.07.21.17.06.08.12.15.18.22.04.03.06.13.09.19.1.29.04.58-.06.77-.2.42-.52.44-.5.46-.02-.02.3.02.61-.39.14-.2.27-.51.21-.89-.03-.1-.02-.18-.1-.3-.05-.08-.09-.16-.14-.25-.09-.16-.32-.35-.52-.48-.4-.26-1.01-.37-1.55-.32-.65.07-1.23.35-1.75.82-.51.45-.94,1.19-1.06,1.93-.14.87.04,1.69.46,2.48.2.39.49.75.83,1.08l.06.06.03.03.09.07.12.09.24.17c.09.06.15.12.26.17l.36.16c.97.42,1.95.51,2.97.3.53-.11,1.05-.31,1.53-.59.06.03.12.05.19.08.16.06.31.11.47.16.31.09.63.16.94.2.63.09,1.26.1,1.87.01.31-.05.62-.11.91-.2-.22.26-.44.54-.57.84-.23.37-.3.84-.39,1.3,0,.35-.02.32.02.68.02.29.11.5.17.73.17.44.42.84.75,1.15.34.31.73.55,1.15.65.1.02.38.07.59.07.22,0,.38-.04.55-.07.16-.05.31-.11.45-.17.12-.08.24-.16.35-.23.2-.17.34-.35.42-.51.1-.14.11-.3.13-.38.01-.09.02-.13.02-.13,0,0-.18.11-.45.17-.13.04-.3.04-.46.05-.17-.01-.35-.05-.52-.11-.08-.05-.18-.07-.22-.12-.04-.05-.05-.04-.2-.15-.12-.1-.21-.25-.29-.39-.08-.15-.13-.33-.18-.51-.01-.09-.03-.2-.03-.24-.02.03,0-.33,0-.31.05-.19.04-.39.14-.6.05-.23.16-.37.21-.57.16-.23.31-.44.45-.65.15-.19.29-.38.46-.55.18-.21.35-.38.51-.54.07.07.13.14.22.19.21.12.34.16.51.23.16.06.31.11.47.16.31.09.63.16.94.2.63.09,1.26.1,1.87.01.61-.09,1.2-.25,1.73-.51.07-.03.14-.07.21-.1.04.05.07.1.11.16.1.13.18.27.26.41l.03.05.02.02h0s0,.01,0,.01h0s-.06-.06-.05-.05h0s.08.15.08.15c.05.09.12.19.16.27,0,.13.04.18.06.32.04.11.03.2.05.29v.04s0,.17,0,.17c0,.16-.02.13-.02.13.03,0,0,.08,0,.18-.03.05-.03.17-.07.24-.11.09-.08.07-.08.12,0,.04-.07.07-.11.11-.09.06-.2.12-.32.15-.1.02-.23.05-.33.03-.2,0-.35-.08-.36-.07,0,0,0,.03,0,.1,0,.06,0,.19.06.3.05.13.14.28.28.43.15.14.34.28.6.36.13.03.25.07.43.07.18,0,.41-.04.47-.04ZM61.29,9.64l.09-.04.04-.02h.02s0-.01,0-.01h0s.07-.06.06-.05h0s.14-.09.14-.09c.1-.06.17-.11.28-.19.23-.23.49-.52.62-.82.13-.21.2-.47.25-.74.09.16.16.35.23.52.05.23.14.44.16.68.05.23.05.47.07.71-.02.24-.01.48-.07.71-.02.24-.11.45-.16.68-.09.21-.15.43-.28.61,0,0,0,0,0,0-.05-.18-.11-.36-.2-.51-.13-.3-.39-.58-.62-.82-.1-.08-.18-.13-.28-.19l-.14-.08h0s-.1-.1-.06-.06h0s0,0,0,0h-.02s-.04-.03-.04-.03l-.09-.04c-.07-.03-.14-.06-.22-.09-.01-.01-.03-.02-.04-.03.08-.03.17-.06.26-.1ZM8.15,9.78c-.07.03-.14.05-.22.09l-.09.04-.04.02h-.02s0,.01,0,.01h0s-.07.06-.06.05h0s-.14.09-.14.09c-.1.06-.17.11-.28.19-.23.23-.49.52-.62.82-.09.15-.15.32-.2.51,0,0,0,0,0,0-.12-.18-.19-.41-.28-.61-.05-.23-.14-.44-.16-.68-.05-.23-.05-.47-.07-.71.02-.24.02-.48.07-.71.02-.24.11-.45.16-.68.07-.18.14-.36.23-.52.05.26.12.53.25.74.13.3.39.58.62.82.1.08.18.13.28.19l.14.08h0s.1.1.06.06h0s0,0,0,0h.02s.04.03.04.03l.09.04c.09.04.17.07.26.1-.01.01-.03.02-.04.03ZM11.28,10.09c-.5.1-1.02.14-1.56.08-.01,0-.03,0-.04,0,.18-.24.31-.41.3-.42.01,0-.12-.18-.3-.42.54-.07,1.07-.06,1.58.03.25.04.49.11.73.19.14.05.26.11.39.17-.35.16-.71.29-1.1.37ZM16.03,9.75c.06,0,.13-.03.19-.04-.02.02-.05.04-.08.06-.04,0-.08-.02-.12-.02ZM19.27,10.09c-.5.1-1.02.14-1.56.08-.22,0-.43-.05-.64-.1-.21-.1-.41-.18-.6-.22-.1-.03-.2-.05-.3-.07.18-.08.36-.15.55-.21.07-.02.14-.04.21-.07.78-.23,1.59-.27,2.32-.13.25.04.49.11.73.19.14.05.26.11.39.17-.35.16-.71.29-1.1.37ZM52.75,9.85c-.19.05-.4.13-.6.22-.21.04-.43.09-.64.1-.53.06-1.06.02-1.56-.08-.39-.08-.75-.21-1.1-.37.13-.06.26-.12.39-.17.23-.08.48-.15.73-.19.74-.14,1.54-.09,2.32.13.07.03.14.05.21.07.19.06.37.13.55.21-.1.02-.2.04-.3.07ZM53.08,9.77s-.05-.04-.08-.06c.07.01.13.03.19.04-.04,0-.08.02-.12.02ZM59.54,10.17s-.03,0-.04,0c-.53.06-1.06.02-1.56-.08-.39-.08-.75-.21-1.1-.37.13-.06.26-.12.39-.17.23-.08.48-.15.73-.19.5-.09,1.04-.1,1.58-.03-.18.24-.31.41-.3.42-.01,0,.12.18.3.42Z"/>
    </g>
  </g>
</svg>