<?xml version="1.0" encoding="UTF-8"?>
<svg id="Layer_2" data-name="Layer 2" xmlns="http://www.w3.org/2000/svg" viewBox="0 0 64.79 65.18">
  <g id="Layer_1-2" data-name="Layer 1">
    <path d="M64.79.04l-24.99-.04,6.12,6.24c.42-3.18,2.4-5.68,2.4-5.68,0,0,3.26,2.99,3.57,6.97.01.16,0,.31,0,.47.29-.41.62-.81.99-1.18,3.16-3.16,8.13-3.33,8.13-3.33,0,0-.16,4.96-3.33,8.13-.33.33-.69.61-1.06.88.08,0,.16,0,.24,0,3.98.31,6.97,3.57,6.97,3.57,0,0-2.6,2.07-5.87,2.43l6.84,6.97V.04Z"/>
    <polygon points="64.11 30.58 34.01 .64 0 .67 0 3.85 32.7 3.83 60.93 31.9 60.93 65.18 64.11 65.18 64.11 30.58"/>
  </g>
</svg>