<?xml version="1.0" encoding="UTF-8"?>
<svg id="Layer_2" data-name="Layer 2" xmlns="http://www.w3.org/2000/svg" viewBox="0 0 71.36 71.8">
  <g id="Layer_1-2" data-name="Layer 1">
    <g>
      <path d="M71.32,30.5c-.01-.26-.02-.52-.03-.78v-.29s-.04-.21-.04-.21l-.07-.42c-.09-.55-.17-1.09-.33-1.61-.14-.52-.27-1.03-.48-1.5-.34-.96-.82-1.82-1.3-2.57-.27-.36-.5-.71-.76-1.03-.28-.29-.55-.56-.81-.82-.49-.52-1.09-.84-1.47-1.14-.43-.23-.79-.36-1.03-.48-.24-.1-.37-.16-.37-.16,0,0,.34.45.95,1.21.23.43.54.84.81,1.42.13.28.27.58.41.9.11.33.23.67.35,1.03.22.72.42,1.51.54,2.36.08.42.12.85.15,1.3.05.44.06.9.07,1.36v.35s.01.17.01.17c0-.2,0-.05,0-.09h0s0,.04,0,.04v.05s0,.1,0,.1c-.02.26-.03.52-.05.78-.03.52-.06,1.05-.08,1.59-.09,1.03-.25,1.98-.35,2.98-.16,1.06-.31,2.1-.44,3.17-.14,1.08-.26,2.12-.33,3.18-.05.74-.07,1.53-.05,2.29-.49-.49-2.29-2.14-4.71-2.57-1.8-.32-3.52.11-4.54.48-.43-.39-.87-.78-1.29-1.16-2.93-2.63-5.34-5.63-6.44-8.88-.55-1.61-.73-3.27-.47-4.8l.04-.29s.04-.18.06-.27l.08-.32.08-.24c.1-.31.26-.68.43-.99.34-.65.78-1.24,1.29-1.73,1.01-.99,2.3-1.56,3.54-1.57.14,0,.34.02.43.01l.54.08c.31.06.59.13.89.23.59.2,1.12.48,1.6.82,1.93,1.39,2.53,3.71,2.6,5.45.08,1.79-.49,3.2-.98,4.06-.25.44-.5.73-.66.94-.18.19-.27.29-.27.29,0,0,.11-.08.33-.24.2-.17.51-.42.85-.82.68-.78,1.52-2.17,1.75-4.2.1-1-.04-2.15-.43-3.32-.39-1.17-1.11-2.4-2.26-3.34-.57-.47-1.24-.86-1.97-1.15-.35-.14-.77-.26-1.16-.36l-.54-.11-.67-.07c-.22-.01-.44,0-.66,0,4.35-2.08,10.4-3.36,16.39.73,0,0-2.9-8.53-11.44-6.15,0,0,8.88-2.56,8.96-10.5-7.94.09-10.5,8.96-10.5,8.96,2.39-8.54-6.15-11.44-6.15-11.44,4.05,5.94,2.84,11.94.79,16.28,0-.18.01-.36,0-.55l-.07-.67-.11-.54c-.09-.39-.21-.81-.36-1.16-.29-.73-.68-1.4-1.15-1.97-.94-1.15-2.17-1.87-3.34-2.26-1.17-.39-2.32-.53-3.32-.43-2.03.23-3.42,1.07-4.2,1.75-.4.34-.65.65-.82.85-.16.21-.24.32-.24.32,0,0,.1-.09.29-.27.2-.17.5-.42.94-.66.86-.49,2.26-1.05,4.06-.98,1.73.07,4.05.67,5.45,2.6.34.47.62,1.01.82,1.6.11.3.17.58.23.89l.08.54c0,.09,0,.29.01.43,0,1.24-.58,2.53-1.57,3.54-.49.51-1.08.95-1.73,1.29-.31.17-.68.34-.99.43l-.24.08-.32.08c-.08.02-.26.07-.27.06l-.29.04c-1.54.26-3.19.08-4.8-.47-3.25-1.1-6.24-3.51-8.88-6.44-.39-.42-.78-.85-1.16-1.29.36-1.02.8-2.74.48-4.54-.51-2.86-2.72-4.86-2.72-4.86,0,0-1.39,2.64-.88,5.5.04.22.11.43.16.65-.02-.02-.03-.04-.05-.06-.75-.77-1.5-1.55-2.38-2.31-.43-.4-.84-.71-1.26-1.04l-.67-.53-.7-.49c-1.91-1.27-4.05-2.27-6.36-2.81-1.16-.27-2.35-.42-3.56-.42-.59,0-1.31.05-1.8.11-.65.08-1.23.21-1.83.38-2.37.69-4.52,2.04-6.13,3.94-.81.96-1.45,2.01-1.9,3.26C.17,12.29-.06,13.63.01,14.87c.12,2.53,1.21,4.85,2.77,6.63,1.58,1.78,3.64,3.1,5.98,3.6,4.59.95,9.36-1.12,11.5-4.98.5-.89.87-1.97.99-2.99.14-1.03.08-2.06-.12-3.04-.4-1.95-1.46-3.72-2.96-4.85-.33-.28-.85-.57-1.2-.75l-.6-.27c-.21-.07-.41-.15-.63-.21-.84-.25-1.69-.36-2.51-.35-1.65.03-3.18.49-4.41,1.26-1.24.77-2.19,1.85-2.69,3.04-.13.29-.22.59-.3.89-.03.15-.07.32-.09.46-.01.15-.04.24-.05.42-.03.57.01,1.11.09,1.61.39,2.03,1.52,3.29,2.38,3.86.43.3.81.45,1.05.55.25.08.38.12.38.12,0,0-.12-.06-.36-.18-.22-.14-.55-.34-.9-.69-.7-.68-1.54-1.97-1.61-3.76-.01-.88.07-1.87.53-2.76.45-.9,1.26-1.72,2.31-2.28,1.04-.56,2.32-.89,3.64-.84.66.03,1.33.15,1.97.38.16.05.32.12.48.19l.47.25c.2.09.29.19.42.27.13.08.26.18.39.3,2.11,1.77,2.93,5.48,1.21,8.21-1.59,2.66-5.43,4.28-8.81,3.45-3.32-.77-6.24-4.16-6.38-7.69-.04-.89.1-1.71.43-2.6.29-.77.78-1.6,1.37-2.28,1.19-1.4,2.88-2.44,4.68-2.95.44-.12.92-.23,1.35-.29.59-.08.96-.1,1.45-.11.96,0,1.92.1,2.88.32,1.9.43,3.74,1.26,5.39,2.34l.61.42.58.46c.41.33.86.65,1.2.98.72.63,1.46,1.34,2.18,2.06,1.43,1.46,2.81,3,4.26,4.48.72.75,1.46,1.45,2.24,2.19.28.25.58.51.89.76-.56-.12-1.15-.2-1.77-.18-2.9.08-5.21,1.97-5.21,1.97,0,0,2.4,1.77,5.31,1.69,1.94-.05,3.59-.9,4.49-1.47,1.33.8,2.73,1.45,4.2,1.88,1.93.58,4.01.73,5.92.33l.36-.07c.2-.05.24-.07.36-.1l.31-.09.37-.14c.35-.13.65-.27.95-.43l-.03.03s.01-.01.03-.03c.05-.03.1-.05.15-.08,0,.01-.01.03-.02.04-.07.08-.11.12-.11.12l.11-.11c-.18.33-.35.67-.5,1.08l-.14.37-.09.31c-.03.13-.05.16-.1.36l-.07.36c-.4,1.91-.25,3.99.33,5.92.43,1.47,1.08,2.87,1.88,4.2-.57.9-1.42,2.55-1.47,4.49-.08,2.9,1.69,5.31,1.69,5.31,0,0,1.89-2.31,1.97-5.21.02-.62-.06-1.21-.18-1.77.26.31.51.61.76.89.73.78,1.43,1.52,2.19,2.24,1.48,1.45,3.03,2.83,4.48,4.26.71.73,1.43,1.46,2.06,2.18.33.34.65.79.98,1.2l.46.58.42.61c1.09,1.65,1.91,3.49,2.34,5.39.21.95.32,1.92.32,2.88,0,.49-.03.86-.11,1.45-.06.43-.16.91-.29,1.35-.5,1.8-1.55,3.49-2.95,4.68-.68.59-1.51,1.08-2.28,1.37-.89.33-1.71.47-2.6.43-3.53-.14-6.92-3.06-7.69-6.38-.83-3.38.79-7.21,3.45-8.81,2.73-1.72,6.44-.89,8.21,1.21.12.13.22.26.3.39.09.14.18.22.27.42l.25.47c.06.16.14.32.19.48.23.64.35,1.31.38,1.97.05,1.32-.27,2.6-.84,3.64-.56,1.05-1.38,1.86-2.28,2.31-.89.46-1.88.54-2.76.53-1.79-.07-3.08-.91-3.76-1.61-.36-.35-.56-.68-.69-.9-.12-.23-.18-.36-.18-.36,0,0,.04.13.12.38.1.25.24.62.55,1.05.57.86,1.83,1.99,3.86,2.38.5.08,1.04.12,1.61.09.19,0,.28-.03.42-.05.14-.02.31-.06.46-.09.3-.08.6-.17.89-.3,1.19-.5,2.27-1.45,3.04-2.69.78-1.24,1.24-2.77,1.26-4.41,0-.82-.1-1.67-.35-2.51-.06-.21-.14-.42-.21-.63l-.27-.6c-.18-.35-.47-.87-.75-1.2-1.13-1.51-2.9-2.56-4.85-2.96-.98-.21-2.01-.26-3.04-.12-1.02.13-2.1.49-2.99.99-3.85,2.15-5.93,6.91-4.98,11.5.51,2.34,1.82,4.4,3.6,5.98,1.78,1.57,4.1,2.65,6.63,2.77,1.25.08,2.58-.15,3.71-.57,1.25-.45,2.3-1.09,3.26-1.9,1.9-1.61,3.25-3.77,3.94-6.13.17-.6.29-1.18.38-1.83.06-.49.12-1.2.11-1.8,0-1.21-.15-2.41-.42-3.56-.54-2.31-1.54-4.45-2.81-6.36l-.49-.7-.53-.67c-.34-.42-.64-.83-1.04-1.26-.76-.88-1.54-1.63-2.31-2.38-.02-.02-.04-.03-.06-.05.21.06.42.12.65.16,2.47.44,4.77-.54,5.35-.81,0,.18,0,.37,0,.55.04.98.16,1.91.31,2.76.1.42.17.83.27,1.21.12.38.24.73.35,1.07.21.66.53,1.21.73,1.65.25.44.49.75.63.97.15.21.23.33.23.33,0,0-.04-.58-.15-1.51,0-.48-.05-1.04-.04-1.69,0-.32.02-.66.03-1.02.03-.36.06-.73.09-1.12.08-.78.17-1.61.33-2.5.14-.9.31-1.76.51-2.79.19-.96.44-2,.62-3.03.21-1.05.38-2.15.56-3.24.11-1.16.26-2.37.27-3.47,0-.54-.03-1.07-.05-1.59Z"/>
      <path d="M20.86,3.08c.45.2.99.52,1.65.73.33.11.69.23,1.07.35.38.1.78.18,1.21.27.85.16,1.78.28,2.76.31.97.05,2.07.02,3.06-.04,1.07-.07,2.1-.2,3.18-.33,1.07-.13,2.11-.28,3.17-.44,1-.1,1.95-.26,2.98-.35.53-.02,1.07-.05,1.59-.08.26-.02.52-.03.78-.05h.1s.05,0,.05,0h.02s.01,0,.01,0c-.04,0,.11,0-.09,0h.17s.35.01.35.01c.46,0,.92.02,1.36.07.45.03.88.07,1.3.15.85.11,1.63.32,2.36.54.36.12.7.24,1.03.35.32.15.62.28.9.41.57.27.99.58,1.42.81.75.61,1.21.95,1.21.95,0,0-.05-.13-.16-.37-.11-.24-.24-.6-.48-1.03-.29-.39-.62-.98-1.14-1.47-.26-.25-.53-.52-.82-.81-.31-.25-.66-.49-1.03-.76-.75-.48-1.6-.95-2.57-1.3-.47-.21-.98-.34-1.5-.48-.52-.16-1.06-.24-1.61-.33l-.42-.07-.21-.03h-.29c-.26-.02-.52-.03-.78-.04-.52-.02-1.06-.04-1.59-.05-1.1,0-2.31.17-3.47.27-1.09.18-2.19.35-3.24.56-1.03.18-2.07.43-3.03.62-1.03.2-1.89.38-2.79.51-.89.15-1.72.25-2.5.33-.39.03-.77.06-1.12.09-.36.01-.7.02-1.02.03-.65,0-1.21-.04-1.69-.04-.93-.11-1.51-.15-1.51-.15,0,0,.11.08.33.23.22.14.54.38.97.63Z"/>
    </g>
  </g>
</svg>