<?xml version="1.0" encoding="UTF-8"?>
<svg id="Layer_2" data-name="Layer 2" xmlns="http://www.w3.org/2000/svg" viewBox="0 0 184.89 15.85">
  <g id="OBJECTS">
    <g>
      <path d="M184.79,7.75h.11s-4-.05-4-.05c-9.01-1.17-17.84-3.77-26.03-7.69,1.95,2.48,3.89,4.96,5.84,7.44l-20.28-.15-38.34-.12c-.25-.75-.94-1.29-1.77-1.29s-1.52.54-1.77,1.28h-2.6s-.1,0-.1,0c-.28-1.51-1.6-2.66-3.2-2.66s-2.93,1.16-3.2,2.68h-2.68c-.24-.74-.94-1.29-1.77-1.29s-1.54.55-1.78,1.31l-31.75.1-22.24.17-9.49.12c-.6-1.1-1.32-2.08-2.1-3.03-.88-1.03-1.8-2.03-2.91-2.87.63,1.24,1.44,2.33,2.3,3.38.76.9,1.56,1.76,2.48,2.52l-4.17.05c-.6-1.12-1.34-2.12-2.13-3.09-.88-1.03-1.8-2.03-2.91-2.87.63,1.24,1.44,2.33,2.3,3.38.78.92,1.6,1.8,2.55,2.58l-4.2.06c-.61-1.14-1.36-2.16-2.16-3.14-.88-1.03-1.8-2.03-2.91-2.87.63,1.24,1.44,2.33,2.3,3.38.8.94,1.64,1.84,2.62,2.63l-3.8.05,3.92.05s.07.06.1.08c-1.08.83-1.99,1.8-2.84,2.82-.86,1.05-1.67,2.14-2.3,3.38,1.11-.84,2.03-1.84,2.91-2.87.84-1.03,1.64-2.1,2.25-3.31.01.01.03.02.04.03,0-.02-.02-.04-.03-.05,0-.02.02-.03.03-.05-.01.01-.03.02-.04.03-.01-.02-.02-.04-.03-.06l4.41.06s.02.02.03.03c-1.08.83-1.99,1.8-2.84,2.82-.86,1.05-1.67,2.14-2.3,3.38,1.11-.84,2.03-1.84,2.91-2.87.84-1.03,1.64-2.1,2.25-3.31.01.01.03.02.04.03,0-.02-.02-.04-.03-.05,0,0,0-.02.01-.02l4.34.06c-1.06.82-1.96,1.78-2.8,2.79-.86,1.05-1.67,2.14-2.3,3.38,1.11-.84,2.03-1.84,2.91-2.87.84-1.02,1.63-2.09,2.25-3.3h.02s.02.01.02.02c0,0,0-.01-.01-.02l9.3.12,22.24.17,31.75.1c.24.76.94,1.31,1.78,1.31s1.53-.55,1.77-1.3h2.68c.27,1.53,1.6,2.69,3.2,2.69s2.92-1.15,3.2-2.66h.1s2.6,0,2.6,0c.25.74.94,1.28,1.77,1.28s1.52-.54,1.77-1.29l38.34-.12,22.24-.17,12.03-.16,2.07.05-15.95.36c-1.98,2.52-3.96,5.04-5.94,7.57,8.53-4.08,17.73-6.71,27.12-7.81l2.82.06c-.57-.05-1.14-.12-1.71-.18.57-.06,1.13-.13,1.7-.18ZM15.46,7.86s0,0,0,0h0s0,0,0,0ZM181.77,7.79l2.91-.04-2.7.06c-.07,0-.14-.01-.21-.02Z"/>
      <path d="M3.69,4.25c-.91-.05-1.87.27-2.57.92C.42,5.82,0,6.78,0,7.75c0,.97.42,1.93,1.12,2.57.7.65,1.66.97,2.57.92,1.87-.08,3.33-1.76,3.29-3.49,0,.86-.37,1.72-1,2.29-.63.58-1.48.86-2.29.8-1.66-.08-2.93-1.58-2.89-3.09-.03-1.52,1.23-3.01,2.89-3.09.81-.05,1.66.23,2.29.8.63.57,1,1.42,1,2.29.04-1.73-1.42-3.42-3.29-3.49Z"/>
    </g>
  </g>
</svg>