<?xml version="1.0" encoding="UTF-8"?>
<svg id="Layer_2" data-name="Layer 2" xmlns="http://www.w3.org/2000/svg" viewBox="0 0 189.32 23.69">
  <g id="OBJECTS">
    <path d="M178.21,22.2c-.42-.22-.82-.5-1.11-.86-.29-.36-.48-.8-.63-1.26-.12-.36-.21-.74-.3-1.11.59-.38,1.18-.77,1.75-1.19,1.6-1.2,3.1-2.57,4.34-4.15,1.24-1.58,2.25-3.41,2.71-5.4.22-.99.41-2,.25-3.09-.09-.53-.3-1.09-.7-1.52-.4-.43-.93-.7-1.47-.82-1.09-.25-2.24.11-3.08.74-.85.63-1.48,1.45-2.04,2.28-1.11,1.68-1.9,3.56-2.32,5.52-.42,1.96-.49,3.99-.2,5.96.04.28.11.56.16.84-1.04.66-2.12,1.25-3.24,1.73-1.75.73-3.65,1.15-5.47.85-1.82-.27-3.48-1.3-4.68-2.7-.04-.05-.07-.1-.11-.15,1.2-1.21,2.31-2.51,3.3-3.9.58-.82,1.13-1.65,1.63-2.53.5-.88.95-1.84,1.16-2.91.22-1.05.11-2.26-.42-3.26-.49-1-1.51-1.89-2.73-2-1.23-.14-2.34.46-3.13,1.17-.81.72-1.41,1.62-1.84,2.58-.86,1.88-1.24,3.97-1.06,6.03.14,1.65.69,3.27,1.61,4.66-.68.65-1.39,1.28-2.13,1.87-.38.3-.76.61-1.12.81-.36.21-.8.34-1.27.51-1.84.65-3.7,1.21-5.59,1.5-3.79.52-7.73.03-11.43-1.07-3.72-1.12-7.25-2.82-10.57-4.86-3.32-2.05-6.43-4.47-9.68-6.71-3.25-2.23-6.71-4.29-10.53-5.45-3.53-1.07-7.44-1.35-10.98-.16-.48-.47-.99-.91-1.53-1.3-.12-.09-.26-.16-.38-.24,1-.44,2.04-.79,3.1-1.02,3.2-.7,6.57-.6,9.71.25,3.18.84,6.17,2.33,9.03,4.04,1.43.85,2.83,1.79,4.2,2.75l4.15,2.87c-1.23-1.15-2.51-2.24-3.8-3.34-1.31-1.06-2.66-2.09-4.06-3.05-2.79-1.92-5.88-3.51-9.21-4.42-3.35-.88-6.92-.93-10.26,0-1.25.35-2.46.84-3.58,1.48-1.12-.64-2.33-1.13-3.58-1.48-3.33-.93-6.91-.89-10.26,0-3.33.91-6.42,2.5-9.21,4.42-1.4.96-2.75,1.99-4.06,3.05-1.29,1.09-2.57,2.19-3.8,3.34l4.15-2.87c1.38-.96,2.77-1.89,4.2-2.75,2.86-1.71,5.85-3.2,9.03-4.04,3.15-.85,6.52-.95,9.71-.25,1.06.24,2.1.58,3.1,1.02-.13.08-.26.16-.38.24-.54.39-1.05.83-1.53,1.3-3.54-1.2-7.44-.91-10.98.16-3.82,1.16-7.29,3.21-10.53,5.45-3.26,2.24-6.36,4.66-9.68,6.71-3.32,2.04-6.86,3.75-10.57,4.86-3.7,1.1-7.64,1.59-11.43,1.07-1.9-.28-3.75-.85-5.59-1.5-.47-.17-.92-.3-1.27-.51-.36-.2-.74-.51-1.12-.81-.74-.59-1.45-1.21-2.13-1.87.92-1.39,1.47-3.02,1.61-4.66.18-2.07-.21-4.16-1.06-6.03-.42-.96-1.03-1.86-1.84-2.58-.79-.71-1.9-1.3-3.13-1.17-1.22.11-2.24,1-2.73,2-.52,1-.64,2.2-.42,3.26.21,1.07.66,2.02,1.16,2.91.51.88,1.05,1.71,1.63,2.53.99,1.39,2.1,2.69,3.3,3.9-.04.05-.07.1-.11.15-1.2,1.4-2.87,2.43-4.68,2.7-1.82.3-3.72-.12-5.47-.85-1.12-.47-2.2-1.07-3.24-1.73.06-.28.12-.56.16-.84.29-1.97.22-4-.2-5.96-.42-1.96-1.21-3.84-2.32-5.52-.55-.83-1.19-1.65-2.04-2.28-.84-.63-1.99-.99-3.08-.74-.54.11-1.08.38-1.47.82-.4.43-.61.99-.7,1.52-.16,1.09.03,2.09.25,3.09.47,1.99,1.47,3.81,2.71,5.4,1.25,1.59,2.74,2.96,4.34,4.15.57.42,1.15.81,1.75,1.19-.09.37-.18.74-.3,1.11-.15.46-.34.9-.63,1.26-.29.36-.68.64-1.11.86-1.72.9-3.76,1.06-5.68.71-1.93-.34-3.77-1.12-5.43-2.18,1.63,1.1,3.46,1.92,5.4,2.32,1.93.4,4.02.3,5.84-.59.45-.22.89-.51,1.23-.91.34-.4.55-.88.72-1.35.12-.33.21-.67.3-1.01.99.61,2.01,1.17,3.09,1.63,1.86.78,3.95,1.28,6.04.95,2.1-.3,3.99-1.47,5.35-3.04.03-.03.05-.06.07-.09.68.64,1.38,1.26,2.11,1.83.39.3.78.62,1.27.91.5.28,1.01.43,1.46.59,1.87.64,3.8,1.23,5.8,1.52,4.02.53,8.07,0,11.89-1.16,3.83-1.15,7.42-2.95,10.76-5.08,3.35-2.13,6.43-4.61,9.63-6.87,3.19-2.26,6.56-4.31,10.28-5.51,3.37-1.11,7.11-1.49,10.55-.47-.64.66-1.22,1.38-1.67,2.18.61-.78,1.31-1.45,2.06-2.05.16.05.33.09.49.16.6.22,1.18.5,1.75.8-1.02.62-1.97,1.35-2.79,2.21-1.37,1.43-2.35,3.23-2.75,5.16.45-1.92,1.47-3.68,2.86-5.05.86-.86,1.86-1.58,2.92-2.18,1.06.59,2.06,1.31,2.92,2.18,1.39,1.38,2.41,3.13,2.86,5.05-.4-1.93-1.38-3.73-2.75-5.16-.82-.86-1.77-1.59-2.79-2.21.57-.3,1.15-.58,1.75-.8.16-.06.33-.1.49-.16.75.6,1.45,1.28,2.06,2.05-.45-.79-1.02-1.52-1.67-2.18,3.44-1.02,7.17-.64,10.55.47,3.71,1.2,7.09,3.25,10.28,5.51,3.2,2.26,6.28,4.74,9.63,6.87,3.35,2.12,6.94,3.92,10.76,5.08,3.82,1.15,7.87,1.69,11.89,1.16,2-.29,3.93-.87,5.8-1.52.45-.16.96-.3,1.46-.59.49-.28.88-.6,1.27-.91.73-.58,1.43-1.19,2.11-1.83.02.03.05.06.07.09,1.36,1.57,3.25,2.74,5.35,3.04,2.09.33,4.18-.17,6.04-.95,1.08-.46,2.1-1.02,3.09-1.63.09.34.18.68.3,1.01.17.47.38.95.72,1.35.34.4.78.69,1.23.91,1.81.89,3.91.99,5.84.59,1.94-.4,3.77-1.22,5.4-2.32-1.66,1.06-3.5,1.83-5.43,2.18-1.92.35-3.96.19-5.68-.71ZM11.99,16.97c-1.56-1.13-3.01-2.43-4.22-3.92-1.2-1.49-2.16-3.18-2.62-5.03-.22-.91-.4-1.89-.28-2.76.11-.88.69-1.55,1.55-1.73.85-.2,1.75.05,2.49.58.75.53,1.35,1.28,1.9,2.08,1.09,1.59,1.87,3.39,2.31,5.27.45,1.88.57,3.84.34,5.77-.03.22-.08.44-.11.66-.46-.3-.92-.61-1.36-.93ZM24.89,13.29c-1.08-1.58-2.22-3.24-2.57-4.99-.18-.87-.09-1.73.29-2.49.38-.75,1.04-1.3,1.81-1.37.76-.1,1.57.28,2.23.87.66.59,1.19,1.35,1.57,2.19.79,1.7,1.14,3.6.99,5.46-.11,1.4-.55,2.76-1.27,3.95-1.1-1.13-2.13-2.33-3.04-3.62ZM96.54,4.41c-.65.26-1.27.58-1.88.93-.61-.35-1.23-.67-1.88-.93-.1-.04-.21-.07-.31-.11.69-.52,1.42-.97,2.19-1.36.77.38,1.5.84,2.19,1.36-.1.04-.21.06-.31.11ZM161.1,7.5c.38-.84.9-1.6,1.57-2.19.66-.59,1.46-.96,2.23-.87.77.07,1.43.63,1.81,1.37.39.76.47,1.62.29,2.49-.35,1.74-1.49,3.4-2.57,4.99-.91,1.29-1.95,2.48-3.04,3.62-.73-1.19-1.16-2.55-1.27-3.95-.15-1.86.2-3.76.99-5.46ZM175.86,17.24c-.24-1.93-.11-3.89.34-5.77.44-1.88,1.22-3.68,2.31-5.27.54-.79,1.15-1.54,1.9-2.08.74-.53,1.64-.79,2.49-.58.86.18,1.44.85,1.55,1.73.13.87-.05,1.84-.28,2.76-.46,1.84-1.42,3.54-2.62,5.03-1.21,1.49-2.66,2.79-4.22,3.92-.44.32-.9.63-1.36.93-.04-.22-.08-.44-.11-.66Z"/>
  </g>
</svg>