<?xml version="1.0" encoding="UTF-8"?>
<svg id="Layer_2" data-name="Layer 2" xmlns="http://www.w3.org/2000/svg" viewBox="0 0 392.52 33.6">
  <defs>
    <style>
      .cls-1 {
        fill: #201522;
      }
    </style>
  </defs>
  <g id="Objects">
    <g>
      <path class="cls-1" d="M386.84,11.23c-.36,0-.72.03-1.07.1-.17.03-.34.07-.51.12-.19.06-.38.12-.57.2l-14.41,5c1.75-1.41,3.48-2.85,5.19-4.31l2.79-2.44,1.39-1.25c.51-.43.91-1.01,1.2-1.61.57-1.22.6-2.66.1-3.87-.49-1.22-1.5-2.19-2.69-2.64-1.19-.46-2.54-.4-3.67.13-1.13.52-2.03,1.51-2.43,2.68.42-1.16,1.32-2.15,2.46-2.62,1.13-.48,2.45-.46,3.54.06,1.09.51,1.94,1.46,2.29,2.57.36,1.11.24,2.34-.31,3.33-.3.48-.63.93-1.08,1.28l-1.42,1.18-2.82,2.42c-1.61,1.41-3.2,2.84-4.77,4.29l.9-5.76c.17-1.13.37-2.26.56-3.38.22-1.12.37-2.26.66-3.36-.31,1.1-.47,2.24-.72,3.35-.24,1.12-.47,2.24-.73,3.35l-1.44,6.31-.31-.25.18.81-42.87-.38-43.31-.22-86.62-.18-86.62.19-43.31.22-42.85.38-.02-.1.19-.81-.31.25-1.45-6.35c-.26-1.12-.49-2.25-.74-3.37-.25-1.12-.41-2.27-.72-3.38.29,1.11.45,2.26.66,3.38.19,1.13.4,2.27.56,3.41l.9,5.8c-1.58-1.46-3.18-2.91-4.81-4.32l-2.84-2.43-1.43-1.18c-.45-.35-.79-.81-1.09-1.29-.56-.99-.68-2.23-.31-3.35.36-1.12,1.21-2.08,2.31-2.59,1.09-.53,2.42-.54,3.56-.06,1.15.47,2.06,1.46,2.48,2.64-.4-1.18-1.31-2.18-2.45-2.7-1.14-.53-2.5-.59-3.7-.13-1.2.45-2.22,1.43-2.71,2.66-.5,1.22-.48,2.67.1,3.9.3.6.7,1.19,1.21,1.62l1.4,1.26,2.81,2.45c1.72,1.47,3.46,2.92,5.22,4.34l-14.51-5.04c-.19-.08-.38-.14-.57-.2-.17-.05-.34-.09-.51-.12-.35-.07-.71-.1-1.07-.1-3.16,0-5.72,2.56-5.72,5.72s2.56,5.72,5.72,5.72c.37,0,.73-.03,1.07-.1.17-.03.35-.07.51-.12.19-.06.39-.12.57-.2l14.51-5.04c-1.77,1.42-3.51,2.87-5.22,4.34l-2.81,2.45-1.4,1.26c-.52.43-.91,1.02-1.21,1.62-.58,1.23-.6,2.68-.1,3.9.49,1.23,1.51,2.2,2.71,2.66,1.2.46,2.56.41,3.7-.13,1.14-.52,2.05-1.52,2.45-2.7-.42,1.17-1.33,2.17-2.48,2.64-1.14.48-2.47.46-3.56-.06-1.1-.51-1.95-1.47-2.31-2.59-.37-1.12-.24-2.36.31-3.35.3-.48.64-.94,1.09-1.29l1.43-1.18,2.84-2.43c1.62-1.42,3.23-2.86,4.81-4.32l-.9,5.8c-.17,1.14-.38,2.27-.56,3.41-.22,1.13-.37,2.27-.66,3.38.31-1.11.47-2.25.72-3.38.24-1.13.47-2.25.74-3.37l1.45-6.35.31.25-.16-.7,42.84.38,43.31.22,86.62.19,86.62-.18,43.31-.22,42.87-.38-.18.81.31-.25,1.44,6.31c.26,1.11.49,2.24.73,3.35.25,1.12.41,2.25.72,3.35-.29-1.1-.44-2.24-.66-3.36-.19-1.13-.39-2.25-.56-3.38l-.9-5.76c1.57,1.45,3.16,2.88,4.77,4.29l2.82,2.42,1.42,1.18c.45.35.78.8,1.08,1.28.55.98.68,2.22.31,3.33-.35,1.11-1.2,2.07-2.29,2.57-1.08.52-2.41.54-3.54.06-1.14-.47-2.04-1.45-2.46-2.62.4,1.18,1.3,2.16,2.43,2.68,1.13.53,2.48.58,3.67.13,1.19-.45,2.2-1.42,2.69-2.64.5-1.21.47-2.65-.1-3.87-.3-.59-.69-1.18-1.2-1.61l-1.39-1.25-2.79-2.44c-1.71-1.46-3.43-2.9-5.19-4.31l14.41,5c.18.08.37.14.57.2.17.05.34.09.51.12.34.07.7.1,1.07.1,3.14,0,5.68-2.54,5.68-5.68s-2.54-5.68-5.68-5.68Z"/>
      <polygon class="cls-1" points="109.71 14.24 196.33 14.43 282.96 14.24 326.27 14.02 369.58 13.63 369.57 13.63 326.27 13.24 282.96 13.02 196.33 12.84 109.71 13.02 66.4 13.25 23.1 13.63 23.09 13.63 66.4 14.02 109.71 14.24"/>
      <polygon class="cls-1" points="282.96 19.57 196.33 19.39 109.71 19.58 66.4 19.8 23.09 20.18 66.4 20.57 109.71 20.79 196.33 20.98 282.96 20.79 326.27 20.57 369.58 20.18 326.27 19.79 282.96 19.57"/>
    </g>
  </g>
</svg>