<?xml version="1.0" encoding="UTF-8"?>
<svg id="Layer_2" data-name="Layer 2" xmlns="http://www.w3.org/2000/svg" viewBox="0 0 186.27 24.36">
  <g id="OBJECTS">
    <path d="M185.55,12h-.28c-.09-.04-.17-.07-.26-.1h.1s-.11,0-.11,0c-11.17-3.97-22.34-7.93-33.51-11.9,7.4,2.61,12.53,6.96,13.83,11.64l-2.86-.04-22.65-.17-35.99-.11-2.09-2.54c-.13-.15-.37-.15-.49,0l-2.08,2.53h-3.76s-2.07-2.53-2.07-2.53c-.13-.15-.36-.15-.49,0l-2.08,2.53h-3.74s-2.09-2.53-2.09-2.53c-.13-.15-.36-.15-.49,0l-2.1,2.55-33.12.1-22.65.17-7.6.1s0,0,0,0c.03-.07.06-.13.09-.2-.04.05-.07.11-.11.17-.49-1.05-.99-2.09-1.52-3.11-.57-1.1-1.13-2.21-1.73-3.3l-.1-.18h-.21c-2.45-.05-4.9-.05-7.35,0h0s-.05,0-.05,0c-2.45-.05-4.9-.05-7.35,0h-.62s.31.54.31.54c.62,1.07,1.3,2.12,1.95,3.17.61.99,1.25,1.96,1.91,2.92-.04.07-.09.13-.13.2h-.12s.11,0,.11,0c-.61.9-1.21,1.8-1.77,2.72-.65,1.06-1.32,2.1-1.95,3.17l-.31.52h.62c2.45.06,4.9.06,7.35.01h.05s0,0,0,0c2.45.05,4.9.05,7.35,0h.21s.1-.18.1-.18c.6-1.08,1.15-2.2,1.73-3.3.47-.91.92-1.83,1.35-2.76l7.79.1,22.65.17,33.12.1,2.1,2.55c.13.15.36.15.49,0l2.09-2.54h3.74s2.08,2.54,2.08,2.54c.13.15.37.15.49,0l2.07-2.52h3.76s2.08,2.52,2.08,2.52c.13.15.36.15.49,0l2.09-2.54,35.99-.11,22.65-.17,2.94-.04c-.34,1.39-.97,2.69-1.8,3.84-.96,1.34-2.16,2.49-3.46,3.51-2.59,2.04-5.6,3.49-8.7,4.6h0s0,0,0,0l.09.26s0,0,0,0l17.05-5.99,17.01-6.1.68-.24-.72-.02ZM11.83,5.83c.34,1.08.83,2.07,1.36,3.03.58,1,1.21,1.96,2.01,2.84-.02.02-.03.04-.05.06l-3.5.05s-.03-.07-.05-.1c.03-.07.06-.13.09-.2-.04.05-.07.11-.11.17,0,0,0-.02-.01-.03.02-.05.04-.09.07-.14-.03.04-.05.08-.08.12-.48-1.03-.97-2.06-1.5-3.06-.48-.92-.95-1.84-1.44-2.75,1.07.02,2.14.03,3.2.03ZM11.64,11.8h-.04s-.01-.03-.02-.04c0,0,0-.02.01-.03.01.02.03.04.04.07ZM11.57,11.79s0,.01.01.02h-.02s0-.01,0-.02ZM11.56,11.72s0-.01,0-.02c0,0,0-.01,0-.02,0,0,0,.01.01.02,0,0,0,.01-.01.02ZM11.54,11.67s-.02-.04-.03-.05c.01.02.02.03.03.05h0ZM11.54,11.74s-.02.03-.03.05c0-.02.02-.04.03-.05h0ZM7.77,5.8c.59,1.01,1.22,1.99,1.84,2.99.61.99,1.25,1.96,1.91,2.92-.02.03-.05.07-.07.1l-3.49.04c-.01-.05-.03-.1-.05-.15.02-.07.05-.13.06-.2-.03.03-.06.07-.09.11-.34-1.12-.84-2.14-1.4-3.14-.54-.92-1.12-1.82-1.84-2.64,1.04,0,2.08-.01,3.13-.03ZM7.92,11.85h-.07s.01-.04.02-.06c.02.02.03.04.05.06ZM2.66,8.55c-.48-.92-.95-1.84-1.44-2.75,1.07.02,2.14.03,3.2.03.34,1.08.83,2.07,1.36,3.03.58,1,1.21,1.96,2.01,2.84-.05.05-.09.1-.13.15l-3.37.04c-.03-.07-.06-.13-.09-.2.03-.07.06-.13.09-.2-.04.05-.07.11-.11.17-.49-1.05-.99-2.09-1.52-3.11ZM4.18,11.74c.04.05.07.11.11.16h-.18c.03-.05.05-.11.08-.16ZM1.22,17.6c.49-.91.96-1.83,1.44-2.75.51-.97.98-1.95,1.44-2.95l3.47.04c-.7.81-1.27,1.69-1.79,2.59-.54.97-1.02,1.96-1.36,3.03-1.07,0-2.14.01-3.2.03ZM7.77,17.61c-1.04-.02-2.08-.03-3.13-.03.72-.82,1.3-1.72,1.84-2.64.53-.95,1.01-1.93,1.35-2.98l3.49.04c-.59.87-1.16,1.73-1.71,2.62-.61.99-1.24,1.98-1.84,2.99ZM8.63,17.6c.49-.91.96-1.83,1.44-2.75.49-.94.95-1.89,1.4-2.85l3.43.04c-.66.78-1.2,1.63-1.71,2.49-.54.97-1.02,1.96-1.36,3.03-1.07,0-2.14.01-3.2.03ZM17.01,14.62c-.61.99-1.24,1.98-1.84,2.99-1.04-.02-2.08-.03-3.13-.03.72-.82,1.3-1.72,1.84-2.64.51-.92.98-1.87,1.32-2.89l3.45.04c-.56.83-1.12,1.67-1.65,2.53ZM18.92,11.71l-3.58.05s-.01-.04-.02-.05c.02-.07.05-.13.06-.2-.03.03-.06.07-.09.11-.34-1.12-.84-2.14-1.4-3.14-.54-.92-1.12-1.82-1.84-2.64,1.04,0,2.08-.01,3.13-.03.59,1.01,1.22,1.99,1.84,2.99.61.99,1.25,1.96,1.91,2.92,0,0,0,0,0,0ZM165.32,12.58c.04-.14.06-.28.09-.42h0c-.03.14-.06.28-.1.42Z"/>
  </g>
</svg>