<?xml version="1.0" encoding="UTF-8"?>
<svg id="Layer_2" data-name="Layer 2" xmlns="http://www.w3.org/2000/svg" viewBox="0 0 392.52 35.64">
  <defs>
    <style>
      .cls-1 {
        fill: #201522;
      }
    </style>
  </defs>
  <g id="Objects">
    <path class="cls-1" d="M392.52,17.96h-.42c0-2-1.62-3.62-3.61-3.62s-3.49,1.52-3.6,3.42l-16.99-.43h-8.92c.44-.3.88-.6,1.31-.91,1.06-.76,2.09-1.56,3.08-2.41.99-.85,1.93-1.75,2.82-2.69.88-.95,1.78-1.9,2.44-3.02-.73,1.07-1.68,1.96-2.62,2.84-.95.87-1.94,1.7-2.97,2.47-1.59,1.2-3.28,2.26-5.01,3.26,0,0,.01-.01.02-.02.42-.46.89-.9,1.37-1.32.97-.84,2.01-1.62,3.06-2.39,1.05-.77,2.11-1.53,3.15-2.32,1.04-.79,2.07-1.6,2.99-2.53-.98.86-2.06,1.59-3.14,2.31-1.09.72-2.19,1.4-3.3,2.1-1.1.7-2.2,1.41-3.26,2.21-.53.4-1.05.82-1.54,1.29-.24.24-.48.48-.7.77-.08.1-.16.22-.23.34h-8.53c.47-.31.94-.61,1.4-.94.05-.03.09-.07.14-.1,1.12-.8,2.22-1.64,3.26-2.54,1.05-.9,2.05-1.86,3.01-2.85.46-.49.92-.99,1.36-1.51.45-.54.88-1.1,1.23-1.71-.77,1.14-1.79,2.08-2.78,3.02-1.01.93-2.06,1.81-3.15,2.63-1.72,1.3-3.54,2.43-5.41,3.51.03-.03.05-.06.08-.09.45-.49.95-.95,1.47-1.4,1.04-.89,2.15-1.71,3.27-2.53,1.12-.82,2.25-1.62,3.36-2.46,1.1-.84,2.2-1.7,3.18-2.69-1.04.91-2.19,1.69-3.34,2.46-1.15.76-2.32,1.48-3.48,2.23-.04.03-.09.05-.13.08-1.13.72-2.24,1.46-3.32,2.27-.06.04-.12.09-.18.13-.5.38-.99.79-1.45,1.24-.06.06-.11.11-.17.17-.2.2-.39.41-.58.65-.05.06-.09.12-.14.19-.05.07-.09.15-.14.23h-8.45c.52-.35,1.04-.7,1.56-1.06.05-.03.1-.07.15-.1,1.19-.84,2.34-1.72,3.44-2.67,1.12-.95,2.18-1.96,3.19-3.02.49-.52.98-1.05,1.44-1.6.48-.57.93-1.16,1.3-1.81-.82,1.2-1.9,2.2-2.95,3.2-1.07.98-2.18,1.92-3.33,2.79-1.85,1.4-3.81,2.62-5.82,3.77.05-.06.1-.11.15-.17.48-.52,1.01-1.01,1.56-1.48,1.1-.94,2.29-1.81,3.47-2.67,1.19-.86,2.39-1.71,3.56-2.6,1.17-.89,2.33-1.8,3.37-2.85-1.11.97-2.32,1.8-3.54,2.61-1.21.8-2.44,1.57-3.67,2.36-.04.03-.09.06-.14.09-1.19.76-2.37,1.55-3.51,2.41-.06.05-.12.09-.18.14-.53.41-1.04.84-1.53,1.31-.06.06-.12.12-.18.18-.21.21-.42.44-.61.69-.05.06-.1.13-.15.2-.06.09-.12.19-.18.29h-8.41c.59-.39,1.17-.78,1.75-1.19.05-.04.1-.07.16-.11,1.25-.88,2.47-1.8,3.63-2.8,1.18-1.01,2.3-2.07,3.38-3.18.52-.55,1.04-1.11,1.53-1.7.5-.6.98-1.22,1.37-1.91-.87,1.27-2,2.33-3.12,3.38-1.13,1.04-2.3,2.03-3.52,2.96-1.98,1.5-4.09,2.81-6.24,4.05.08-.09.15-.18.23-.26.51-.55,1.07-1.06,1.66-1.56,1.17-.99,2.42-1.9,3.67-2.81,1.25-.91,2.52-1.8,3.77-2.74,1.23-.94,2.47-1.9,3.56-3.01-1.17,1.02-2.45,1.9-3.74,2.75-1.27.85-2.57,1.66-3.86,2.49-.05.03-.1.06-.14.09-1.25.8-2.49,1.63-3.69,2.55-.06.05-.13.1-.19.15-.56.43-1.1.88-1.61,1.38-.06.06-.13.12-.19.19-.22.23-.44.46-.64.72-.05.07-.1.14-.15.21-.08.11-.15.23-.22.35h-8.37c.66-.43,1.31-.86,1.95-1.31.05-.04.11-.08.16-.12,1.31-.92,2.6-1.88,3.81-2.93,1.24-1.06,2.43-2.18,3.56-3.35.55-.58,1.1-1.18,1.61-1.79.53-.63,1.03-1.29,1.44-2-.92,1.34-2.11,2.45-3.29,3.56-1.19,1.1-2.42,2.14-3.7,3.12-2,1.51-4.11,2.85-6.27,4.1-.35.23-.54.48-.76.72h-.02c.21-.29.45-.58.71-.86.54-.58,1.13-1.12,1.75-1.64,1.23-1.04,2.56-1.99,3.87-2.95,1.32-.96,2.66-1.9,3.97-2.88,1.3-1,2.6-2,3.75-3.17-1.24,1.07-2.58,2-3.94,2.9-1.33.89-2.7,1.74-4.05,2.61-.05.03-.1.06-.15.1-1.32.85-2.62,1.72-3.88,2.68-.07.05-.14.1-.2.16-.58.45-1.16.93-1.7,1.46-.07.07-.13.13-.2.2-.23.24-.46.49-.68.76-.06.07-.11.14-.16.22-.08.12-.16.24-.24.38,0,.01-.01.02-.02.04h-8.34c.72-.47,1.44-.95,2.15-1.44.06-.04.11-.08.17-.12,1.37-.96,2.72-1.97,3.99-3.06,1.31-1.11,2.55-2.28,3.74-3.51.58-.61,1.15-1.24,1.7-1.89.55-.66,1.09-1.35,1.51-2.1-.97,1.4-2.22,2.57-3.45,3.73-1.25,1.15-2.54,2.25-3.89,3.28-1.98,1.5-4.07,2.84-6.21,4.1-.49.32-.81.67-1.19,1h-.07s0,0,0-.01c.22-.32.49-.63.77-.94.57-.61,1.19-1.17,1.84-1.72,1.3-1.09,2.69-2.09,4.08-3.1,1.39-1,2.8-1.99,4.17-3.02,1.36-1.05,2.73-2.1,3.94-3.33-1.3,1.12-2.71,2.1-4.14,3.04-1.4.93-2.82,1.83-4.24,2.74-.05.03-.1.07-.16.1-1.38.89-2.75,1.81-4.06,2.82-.07.06-.14.11-.21.17-.61.48-1.21.98-1.78,1.53-.07.07-.14.14-.21.21-.25.25-.48.51-.71.8-.06.07-.12.15-.17.23-.09.12-.17.25-.25.4-.01.03-.03.06-.04.08h-8.31c.79-.51,1.58-1.03,2.36-1.57.06-.04.12-.08.18-.12,1.44-1,2.85-2.05,4.18-3.19,1.37-1.16,2.68-2.39,3.93-3.68.61-.64,1.21-1.3,1.78-1.98.58-.69,1.14-1.41,1.58-2.2-1.02,1.47-2.32,2.7-3.62,3.91-1.3,1.21-2.66,2.36-4.07,3.44-1.97,1.49-4.03,2.84-6.15,4.1-.64.42-1.11.86-1.65,1.28h-.08s.02-.04.04-.06c.24-.34.52-.67.82-.98.6-.64,1.26-1.23,1.94-1.8,1.36-1.14,2.83-2.18,4.28-3.24,1.46-1.05,2.94-2.08,4.38-3.16,1.43-1.1,2.87-2.2,4.12-3.49-1.36,1.18-2.84,2.2-4.34,3.19-1.46.98-2.95,1.91-4.43,2.87-.05.04-.11.07-.16.11-1.45.93-2.87,1.9-4.25,2.96-.08.06-.15.12-.22.17-.64.5-1.27,1.03-1.86,1.6-.07.07-.15.14-.22.22-.26.26-.51.53-.74.83-.06.08-.12.16-.18.24-.09.13-.18.26-.26.42-.02.04-.04.09-.06.13h-8.29c.86-.55,1.72-1.11,2.56-1.69.06-.04.12-.09.19-.13,1.5-1.04,2.97-2.13,4.36-3.32,1.43-1.21,2.81-2.5,4.11-3.84.64-.68,1.27-1.36,1.87-2.07.6-.72,1.19-1.47,1.65-2.3-1.06,1.54-2.43,2.82-3.79,4.09-1.36,1.27-2.78,2.48-4.25,3.6-1.95,1.48-3.99,2.83-6.09,4.1-.79.52-1.42,1.06-2.14,1.56h-.07s.05-.08.07-.11c.25-.35.55-.7.86-1.03.63-.66,1.32-1.28,2.03-1.88,1.43-1.19,2.96-2.28,4.48-3.38,1.52-1.1,3.07-2.17,4.58-3.3,1.49-1.15,3-2.3,4.31-3.65-1.43,1.23-2.97,2.3-4.54,3.33-1.52,1.02-3.07,2-4.62,3-.06.04-.11.07-.17.11-1.51.97-3,1.99-4.43,3.1-.08.06-.16.12-.23.18-.67.52-1.32,1.07-1.94,1.68-.08.07-.15.15-.23.23-.27.27-.53.56-.78.87-.06.08-.13.16-.19.25-.1.13-.19.28-.28.43-.03.06-.06.12-.09.18h-8.26c.93-.59,1.86-1.2,2.77-1.82.07-.04.13-.09.2-.14,1.56-1.08,3.1-2.21,4.55-3.45,1.5-1.27,2.93-2.6,4.29-4.01.67-.71,1.33-1.42,1.95-2.17.63-.75,1.24-1.53,1.71-2.4-1.11,1.6-2.54,2.95-3.95,4.27-1.42,1.32-2.9,2.59-4.44,3.77-1.94,1.47-3.95,2.83-6.03,4.1-.94.62-1.74,1.25-2.64,1.84h-.04c.04-.05.07-.11.11-.16.26-.37.57-.73.9-1.07.65-.69,1.38-1.34,2.12-1.96,1.49-1.24,3.1-2.37,4.68-3.52,1.59-1.14,3.21-2.27,4.79-3.45,1.56-1.2,3.13-2.4,4.5-3.82-1.49,1.28-3.11,2.4-4.74,3.48-1.58,1.06-3.2,2.08-4.81,3.13-.06.04-.12.08-.18.12-1.58,1.02-3.12,2.08-4.62,3.24-.08.06-.16.13-.24.19-.69.55-1.38,1.12-2.02,1.75-.08.08-.16.16-.24.24-.28.29-.55.58-.81.9-.07.08-.13.17-.2.26-.1.14-.2.29-.29.45-.04.07-.08.15-.11.23h-8.24c1-.63,2-1.28,2.98-1.95.07-.05.14-.09.2-.14,1.63-1.12,3.22-2.29,4.73-3.58,1.56-1.32,3.06-2.71,4.48-4.17.7-.74,1.38-1.49,2.04-2.26.66-.78,1.29-1.59,1.78-2.49-1.16,1.67-2.65,3.07-4.12,4.45-1.48,1.38-3.02,2.7-4.62,3.93-1.92,1.46-3.91,2.83-5.97,4.1-1.09.72-2.08,1.44-3.15,2.12h0c.04-.07.09-.14.14-.21.27-.39.6-.76.94-1.12.68-.72,1.44-1.39,2.22-2.04,1.56-1.29,3.23-2.46,4.89-3.66,1.66-1.19,3.35-2.36,4.99-3.59,1.62-1.25,3.26-2.5,4.69-3.98-1.56,1.33-3.24,2.5-4.94,3.63-1.65,1.11-3.32,2.17-4.99,3.25-.06.04-.12.08-.19.12-1.64,1.06-3.25,2.17-4.8,3.37-.08.07-.17.13-.25.2-.72.57-1.43,1.17-2.1,1.82-.08.08-.17.16-.25.25-.29.3-.58.6-.84.94-.07.09-.14.18-.21.27-.11.15-.21.3-.3.47-.04.08-.09.17-.14.27,0,0,0,0,0,0h-8.21c1.07-.68,2.14-1.36,3.19-2.08.07-.05.14-.1.21-.15,1.69-1.16,3.35-2.38,4.91-3.71,1.63-1.37,3.18-2.82,4.66-4.34.73-.77,1.44-1.55,2.12-2.36.68-.82,1.34-1.66,1.85-2.59-1.21,1.73-2.75,3.19-4.29,4.63-1.54,1.44-3.14,2.81-4.8,4.09-1.91,1.45-3.87,2.82-5.91,4.1-1.23.81-2.38,1.6-3.61,2.37.05-.08.1-.15.15-.23.29-.4.63-.79.98-1.17.71-.75,1.5-1.45,2.31-2.12,1.62-1.34,3.37-2.56,5.09-3.81,1.73-1.24,3.48-2.45,5.2-3.73,1.69-1.3,3.4-2.6,4.88-4.14-1.62,1.39-3.37,2.6-5.14,3.77-1.71,1.15-3.45,2.26-5.18,3.38-.06.04-.13.08-.19.13-1.7,1.1-3.37,2.26-4.99,3.51-.09.07-.18.14-.26.21-.75.59-1.49,1.22-2.18,1.9-.09.08-.17.17-.26.26-.3.31-.6.63-.88.98-.07.09-.14.19-.21.28-.11.15-.22.31-.31.48-.05.09-.1.18-.14.28,0,.01-.01.03-.02.04h-8.19c1.14-.72,2.28-1.44,3.4-2.2.07-.05.15-.1.22-.15,1.75-1.2,3.48-2.46,5.1-3.84,1.69-1.42,3.31-2.93,4.84-4.5.76-.8,1.5-1.61,2.21-2.45.71-.85,1.4-1.72,1.92-2.69-1.26,1.8-2.86,3.32-4.45,4.81-1.6,1.49-3.26,2.92-4.99,4.25-1.9,1.44-3.83,2.82-5.85,4.1-1.35.89-2.68,1.75-4.05,2.59.05-.07.09-.15.14-.22.3-.42.65-.82,1.02-1.21.74-.78,1.56-1.5,2.41-2.2,1.69-1.39,3.5-2.65,5.29-3.95,1.8-1.29,3.62-2.55,5.4-3.87,1.76-1.35,3.53-2.7,5.07-4.3-1.68,1.44-3.5,2.7-5.34,3.92-1.77,1.2-3.57,2.34-5.37,3.51-.07.04-.13.09-.2.13-1.77,1.14-3.5,2.35-5.17,3.65-.09.07-.18.14-.27.21-.78.62-1.54,1.26-2.26,1.97-.09.09-.18.18-.27.27-.31.32-.62.65-.91,1.01-.08.1-.15.19-.22.29-.11.16-.23.32-.33.5-.05.09-.1.19-.15.29-.01.03-.02.06-.03.08h-8.17c1.21-.76,2.42-1.53,3.6-2.33.08-.05.15-.1.23-.16,1.81-1.24,3.6-2.54,5.28-3.97,1.75-1.47,3.43-3.03,5.03-4.67.79-.83,1.56-1.67,2.29-2.55.73-.88,1.45-1.78,1.99-2.79-1.31,1.87-2.97,3.44-4.62,4.99-1.66,1.55-3.38,3.03-5.17,4.41-1.88,1.43-3.79,2.82-5.78,4.1-1.49.98-2.98,1.91-4.5,2.83.05-.08.1-.15.15-.23.31-.44.68-.85,1.06-1.26.77-.81,1.62-1.56,2.5-2.28,1.76-1.44,3.64-2.75,5.49-4.09,1.86-1.33,3.76-2.64,5.6-4.01,1.82-1.4,3.66-2.8,5.26-4.46-1.75,1.49-3.63,2.8-5.54,4.06-1.83,1.24-3.7,2.43-5.56,3.64-.07.05-.14.09-.21.14-1.83,1.18-3.62,2.44-5.36,3.79-.09.07-.19.15-.28.22-.81.64-1.6,1.31-2.34,2.04-.09.09-.19.18-.28.28-.33.33-.64.68-.94,1.05-.08.1-.16.2-.23.3-.12.16-.23.33-.34.52-.05.1-.11.2-.16.3-.02.04-.03.08-.05.12h-8.07c1.27-.79,2.53-1.59,3.77-2.44,1.96-1.33,3.89-2.72,5.7-4.26,1.82-1.53,3.56-3.14,5.21-4.83.82-.86,1.61-1.73,2.38-2.64.76-.91,1.5-1.84,2.06-2.89-1.35,1.93-3.07,3.56-4.79,5.17-1.72,1.61-3.5,3.14-5.36,4.58-1.87,1.42-3.75,2.81-5.72,4.1-1.62,1.07-3.28,2.08-4.95,3.07.05-.08.1-.16.16-.24.32-.45.71-.89,1.11-1.3.8-.84,1.68-1.61,2.59-2.36,1.82-1.49,3.77-2.84,5.7-4.23,1.93-1.38,3.89-2.73,5.81-4.15,1.89-1.45,3.79-2.9,5.45-4.62-1.81,1.54-3.76,2.9-5.74,4.21-1.97,1.33-3.97,2.6-5.96,3.91-2,1.29-3.95,2.67-5.84,4.16-.94.75-1.86,1.53-2.71,2.4-.43.44-.84.89-1.22,1.4-.19.26-.37.52-.52.84-.02.04-.04.09-.06.14h-8.39c-.32-3.82-3.51-6.83-7.42-6.83s-6.92,2.84-7.39,6.51h-9.87c-.6-.93-1.33-1.76-2.09-2.56-.81-.86-1.66-1.69-2.52-2.5-1.75-1.59-3.58-3.11-5.48-4.52-1.89-1.43-3.9-2.7-5.94-3.92-2.04-1.21-4.12-2.35-6.21-3.45h-.02c-.24-.14-.54-.05-.67.19-.16.3-.15.61-.09.81.05.21.13.39.21.54.17.31.36.57.56.81.41.49.84.92,1.29,1.33.9.82,1.87,1.55,2.85,2.24,1.97,1.37,4,2.64,6.07,3.81,2.07,1.19,4.14,2.34,6.18,3.56,1.95,1.13,3.88,2.32,5.69,3.67h-.1c-.15-.2-.43-.27-.65-.14h-.02c-.07.05-.14.09-.2.14h-9.94c-.58-.89-1.28-1.69-2.01-2.46-.75-.79-1.53-1.56-2.32-2.3-.04-.04-.08-.07-.12-.11-1.61-1.47-3.29-2.87-5.04-4.18-.09-.06-.17-.13-.26-.19-1.71-1.29-3.5-2.45-5.33-3.55-.13-.08-.27-.16-.4-.24-1.79-1.07-3.62-2.08-5.45-3.06-.01,0-.02-.01-.03-.02,0,0-.02-.01-.03-.02-.16-.08-.32-.17-.48-.25,0,0-.02,0-.02,0-.23-.11-.52-.03-.64.21,0,0,0,.01-.01.02-.15.29-.13.58-.08.77.05.21.12.37.2.52.05.09.1.17.15.25.12.19.26.37.4.53.06.08.13.15.19.23.34.38.69.73,1.06,1.06.05.05.11.1.16.14.83.73,1.71,1.39,2.6,2.02,1.9,1.32,3.86,2.54,5.86,3.67,1.99,1.14,4,2.26,5.97,3.43,1.88,1.09,3.73,2.23,5.47,3.53h-.07c-.15-.17-.4-.23-.6-.11,0,0-.01,0-.02,0-.06.03-.12.07-.17.1h-10.06c-.56-.85-1.23-1.61-1.92-2.35-.72-.77-1.47-1.5-2.24-2.22-.04-.04-.08-.07-.11-.11-1.56-1.42-3.18-2.77-4.86-4.04-.08-.06-.16-.12-.25-.19-1.65-1.24-3.38-2.36-5.14-3.43-.13-.08-.26-.16-.39-.23-1.73-1.03-3.49-2.01-5.26-2.96,0,0-.02-.01-.03-.02,0,0-.02-.01-.03-.02-.15-.08-.31-.16-.46-.23,0,0-.01,0-.02,0-.22-.1-.49-.01-.61.21,0,0,0,.01-.01.02-.14.28-.13.56-.08.74.04.2.12.36.2.5.05.09.09.17.14.25.12.19.25.36.38.52.06.07.12.15.19.22.33.37.67.7,1.03,1.02.05.05.1.09.16.14.8.71,1.65,1.35,2.52,1.95,1.84,1.28,3.73,2.44,5.66,3.53,1.92,1.1,3.85,2.17,5.75,3.3,1.75,1.02,3.48,2.08,5.12,3.28-.14-.09-.32-.1-.47-.02,0,0-.01,0-.01,0-.06.03-.12.07-.18.11h-10.13c-.53-.8-1.16-1.54-1.82-2.24-.7-.74-1.42-1.45-2.16-2.14-.04-.03-.07-.07-.11-.1-1.5-1.37-3.06-2.67-4.68-3.89-.08-.06-.16-.12-.24-.18-1.59-1.2-3.26-2.28-4.95-3.31-.12-.08-.25-.15-.37-.23-1.67-1-3.36-1.94-5.07-2.85,0,0-.02-.01-.03-.02,0,0-.02-.01-.03-.01-.15-.08-.3-.15-.45-.21,0,0-.01,0-.01,0-.22-.09-.47,0-.59.21,0,0,0,.01,0,.02-.14.27-.13.54-.08.72.04.2.11.35.19.49.04.08.09.16.14.24.12.18.24.35.37.5.06.07.12.14.18.21.32.36.65.68.99.99.05.05.1.09.15.13.78.69,1.6,1.3,2.43,1.89,1.77,1.23,3.59,2.35,5.45,3.4,1.85,1.06,3.71,2.09,5.54,3.18,1.65.96,3.27,1.96,4.81,3.08-.11-.03-.22-.02-.33.03,0,0-.01,0-.01,0-.07.03-.13.07-.19.11h-10.18c-.51-.76-1.11-1.46-1.73-2.13-.67-.71-1.37-1.39-2.08-2.06-.04-.03-.07-.07-.11-.1-1.44-1.32-2.94-2.57-4.51-3.75-.08-.06-.15-.11-.23-.17-1.53-1.15-3.13-2.2-4.76-3.19-.12-.07-.24-.15-.36-.22-1.6-.96-3.23-1.87-4.87-2.75,0,0-.02-.01-.03-.02,0,0-.02-.01-.03-.01-.14-.08-.29-.14-.44-.19,0,0-.01,0-.01,0-.21-.08-.45.01-.56.22,0,0,0,.01,0,.02-.13.27-.12.52-.08.7.04.19.11.34.18.47.04.08.09.16.13.23.11.18.23.34.35.49.06.07.11.14.17.2.31.35.63.66.96.95.05.04.1.09.15.13.75.66,1.54,1.25,2.35,1.82,1.7,1.18,3.46,2.25,5.24,3.26,1.78,1.02,3.57,2.01,5.33,3.05,1.57.91,3.11,1.86,4.58,2.93-.08-.01-.17,0-.25.03,0,0-.01,0-.01,0-.07.03-.14.07-.21.11h-10.23c-.49-.72-1.05-1.38-1.65-2.02-.64-.68-1.32-1.34-2-1.98-.03-.03-.07-.06-.1-.1-1.38-1.27-2.83-2.47-4.33-3.61-.07-.06-.15-.11-.22-.17-1.47-1.11-3.01-2.11-4.58-3.07-.11-.07-.23-.14-.34-.21-1.54-.93-3.1-1.8-4.68-2.65,0,0-.02-.01-.03-.01,0,0-.02-.01-.03-.01-.14-.07-.28-.13-.42-.18,0,0-.01,0-.01,0-.2-.07-.43.02-.54.22,0,0,0,.01,0,.02-.13.26-.12.51-.08.68.04.18.1.33.17.45.04.08.08.15.12.22.11.17.22.33.34.47.05.07.11.13.17.19.29.33.61.63.92.92.05.04.09.08.14.12.72.64,1.49,1.21,2.27,1.75,1.64,1.13,3.32,2.15,5.04,3.12,1.71.97,3.43,1.92,5.12,2.92,1.49.87,2.96,1.77,4.35,2.78-.06,0-.12,0-.18.03,0,0-.01,0-.01,0-.07.03-.15.07-.22.11h-10.28c-.46-.68-1-1.31-1.56-1.9-.62-.65-1.26-1.28-1.92-1.9-.03-.03-.07-.06-.1-.09-1.33-1.22-2.71-2.37-4.15-3.46-.07-.05-.14-.11-.21-.16-1.41-1.06-2.88-2.03-4.39-2.95-.11-.07-.22-.13-.33-.2-1.47-.89-2.98-1.73-4.49-2.55,0,0-.02-.01-.03-.01,0,0-.02-.01-.02-.01-.13-.07-.27-.12-.41-.16,0,0-.01,0-.01,0-.19-.05-.41.03-.51.23,0,0,0,.01,0,.02-.12.25-.12.49-.09.65.03.18.1.31.16.44.04.07.08.14.12.21.1.17.21.31.33.45.05.06.1.13.16.19.28.32.58.61.89.89.04.04.09.08.13.12.7.61,1.44,1.16,2.19,1.68,1.57,1.08,3.19,2.06,4.83,2.98,1.64.93,3.29,1.84,4.9,2.79,1.42.83,2.82,1.69,4.16,2.65-.05,0-.1-.02-.14,0,0,0-.01,0-.01,0-.08.03-.15.07-.23.11h-10.33c-.44-.64-.94-1.23-1.47-1.79-.59-.63-1.21-1.23-1.84-1.82-.03-.03-.06-.06-.09-.09-1.27-1.17-2.59-2.27-3.97-3.32-.07-.05-.13-.1-.2-.15-1.35-1.02-2.76-1.95-4.2-2.83-.1-.06-.21-.13-.31-.19-1.41-.86-2.85-1.66-4.29-2.45,0,0-.02-.01-.02-.01,0,0-.02-.01-.02-.01-.13-.07-.26-.11-.39-.14,0,0-.01,0-.01,0-.18-.04-.39.05-.49.23,0,0,0,.01,0,.02-.12.25-.12.47-.09.63.03.17.09.3.15.42.04.07.08.14.11.2.1.16.21.3.31.44.05.06.1.12.15.18.27.31.56.59.86.85.04.04.09.08.13.11.67.59,1.38,1.11,2.1,1.61,1.5,1.03,3.05,1.96,4.62,2.85,1.57.89,3.14,1.76,4.69,2.67,1.34.78,2.67,1.59,3.93,2.5-.02,0-.05-.01-.07,0,0,0-.01,0-.01,0-.08.03-.17.07-.25.11h-10.36s-.03-.03-.04-.04c-.41-.58-.87-1.13-1.36-1.65-.57-.6-1.16-1.17-1.76-1.74-.03-.03-.06-.06-.09-.08-1.21-1.11-2.48-2.18-3.79-3.17-.06-.05-.13-.1-.19-.15-1.29-.98-2.64-1.87-4.01-2.71-.1-.06-.2-.12-.3-.19-1.35-.82-2.72-1.6-4.1-2.35,0,0-.02-.01-.02-.01,0,0-.02,0-.02-.01-.12-.06-.25-.11-.38-.13,0,0-.01,0-.01,0-.18-.03-.37.06-.46.23,0,0,0,.01,0,.02-.11.24-.11.45-.09.61.03.16.08.29.14.4.04.07.07.13.1.19.09.16.2.29.3.42.05.06.1.11.15.17.26.3.54.56.82.82.04.04.08.07.12.11.65.56,1.33,1.07,2.02,1.54,1.44.98,2.92,1.86,4.41,2.71,1.5.85,3,1.67,4.48,2.54,1.26.73,2.51,1.5,3.69,2.35,0,0,0,0-.01,0-.09.02-.18.07-.27.11h-10.37s-.07-.07-.12-.09c-.38-.52-.79-1.01-1.23-1.48-.54-.57-1.11-1.12-1.67-1.66-.03-.03-.06-.05-.09-.08-1.16-1.06-2.36-2.08-3.62-3.03-.06-.05-.12-.09-.18-.14-1.23-.93-2.51-1.78-3.82-2.59-.1-.06-.19-.12-.29-.18-1.28-.79-2.59-1.53-3.9-2.25,0,0-.02-.01-.02-.01,0,0-.02,0-.02-.01-.12-.06-.24-.1-.36-.11,0,0,0,0-.01,0-.17-.02-.35.07-.43.24,0,0,0,.01,0,.01-.1.23-.11.43-.09.59.02.16.08.28.13.38.03.07.07.12.1.18.09.15.19.28.29.41.05.06.09.11.14.16.25.29.52.54.79.78.04.04.08.07.12.1.62.54,1.27,1.02,1.94,1.47,1.37.93,2.78,1.77,4.21,2.57,1.43.81,2.86,1.59,4.26,2.41,1.19.69,2.37,1.41,3.49,2.22-.08.02-.17.06-.25.1h-10.38s-.1-.07-.16-.09c-.35-.48-.73-.93-1.14-1.37-.51-.54-1.05-1.06-1.59-1.58l-.08-.08c-1.1-1.01-2.25-1.98-3.44-2.89-.06-.04-.12-.09-.17-.13-1.17-.89-2.39-1.7-3.63-2.47-.09-.06-.18-.11-.27-.17-1.22-.75-2.46-1.46-3.71-2.15,0,0-.02-.01-.02-.01,0,0-.02,0-.02-.01-.11-.06-.23-.09-.35-.09,0,0,0,0-.01,0-.16,0-.33.08-.41.24,0,0,0,.01,0,.01-.1.22-.11.42-.09.56.02.15.07.27.12.37.03.06.06.12.09.17.09.15.18.27.27.39.04.05.09.1.13.15.24.27.49.52.75.75.04.03.08.07.11.1.59.52,1.22.97,1.86,1.41,1.3.88,2.65,1.67,4,2.43,1.35.76,2.71,1.5,4.05,2.29,1.11.65,2.21,1.33,3.26,2.09-.07.02-.14.04-.21.08h-10.38c-.06-.05-.12-.08-.2-.09-.33-.43-.67-.85-1.05-1.25-.49-.52-1-1.01-1.51-1.5-.03-.02-.05-.05-.08-.07-1.04-.96-2.13-1.88-3.26-2.74-.06-.04-.11-.08-.17-.13-1.11-.84-2.26-1.62-3.44-2.35-.09-.05-.17-.11-.26-.16-1.16-.71-2.33-1.39-3.52-2.05,0,0-.02-.01-.02-.01,0,0-.02,0-.02-.01-.11-.06-.22-.08-.33-.08,0,0,0,0-.01,0-.15,0-.3.09-.38.25,0,0,0,.01,0,.01-.09.22-.11.4-.09.54.02.14.07.25.12.35.03.06.06.11.08.16.08.14.17.26.26.37.04.05.08.1.12.15.23.26.47.49.72.71.04.03.07.06.11.09.57.49,1.17.93,1.77,1.34,1.24.83,2.51,1.57,3.79,2.29,1.28.72,2.57,1.42,3.84,2.16,1.04.61,2.06,1.25,3.04,1.95-.05.02-.1.02-.15.05,0,0-.01,0-.02.01h-10.39c-.07-.06-.15-.1-.24-.1-.3-.39-.61-.77-.95-1.12-.46-.49-.95-.95-1.43-1.42-.02-.02-.05-.05-.07-.07-.99-.91-2.01-1.78-3.08-2.6-.05-.04-.1-.08-.16-.12-1.05-.8-2.14-1.53-3.25-2.23-.08-.05-.16-.1-.24-.15-1.09-.68-2.21-1.32-3.32-1.95,0,0-.02-.01-.02-.01,0,0-.02,0-.02,0-.1-.05-.21-.07-.32-.06,0,0,0,0,0,0-.15.02-.28.11-.36.25,0,0,0,.01,0,.01-.09.21-.1.38-.09.52.02.14.06.24.11.33.03.06.06.11.08.15.08.14.16.25.25.36.04.05.08.09.12.14.22.25.45.47.69.68.03.03.07.06.1.09.54.47,1.11.88,1.69,1.27,1.17.78,2.38,1.48,3.59,2.16s2.43,1.34,3.62,2.03c.96.56,1.91,1.16,2.82,1.81-.03.01-.06,0-.08.02,0,0-.02.01-.02.01,0,0-.01,0-.02.01h-10.4c-.08-.07-.18-.1-.28-.1-.66-.85-1.44-1.6-2.21-2.34-.95-.89-1.94-1.73-2.98-2.52-1.03-.79-2.11-1.53-3.21-2.23-1.1-.7-2.23-1.35-3.36-1.99h-.02s-.02-.02-.02-.02c-.24-.12-.53-.02-.65.21h0c-.22.54,0,.78.08.97.11.19.22.34.34.47.24.27.49.51.75.73.51.44,1.06.83,1.61,1.2,1.1.73,2.24,1.38,3.38,2.02,1.14.64,2.29,1.25,3.41,1.91.89.52,1.76,1.06,2.6,1.66,0,0,0,0,0,0h-.02s-.03.03-.04.04h-10.81l-16.99.43c-.1-1.91-1.67-3.42-3.6-3.42s-3.61,1.61-3.61,3.6h-.42s.42.02.42.02c0,1.99,1.62,3.6,3.61,3.6s3.49-1.52,3.6-3.42l16.99.43h8.93c-.44.3-.88.6-1.31.91-1.06.76-2.09,1.56-3.08,2.41-.99.85-1.93,1.75-2.82,2.69-.88.95-1.78,1.9-2.44,3.02.73-1.07,1.68-1.96,2.62-2.84.95-.87,1.94-1.7,2.97-2.47,1.59-1.2,3.28-2.26,5.01-3.26,0,0-.01.01-.02.02-.42.46-.89.9-1.37,1.32-.97.84-2.01,1.62-3.06,2.39-1.05.77-2.11,1.53-3.15,2.32-1.04.79-2.07,1.6-2.99,2.53.98-.86,2.06-1.59,3.14-2.31,1.09-.72,2.19-1.4,3.3-2.1,1.1-.7,2.2-1.41,3.26-2.21.53-.4,1.05-.82,1.54-1.29.24-.24.48-.48.7-.77.08-.1.16-.22.23-.34h8.53c-.47.31-.95.61-1.41.94-.05.03-.09.07-.14.1-1.12.8-2.22,1.64-3.26,2.54-1.05.9-2.05,1.86-3.01,2.85-.46.49-.92.99-1.36,1.51-.45.54-.88,1.1-1.23,1.71.77-1.14,1.79-2.08,2.78-3.02,1.01-.93,2.06-1.81,3.15-2.63,1.72-1.3,3.54-2.43,5.41-3.51-.03.03-.05.06-.08.09-.45.49-.95.95-1.47,1.4-1.04.89-2.15,1.71-3.27,2.53-1.12.82-2.25,1.62-3.36,2.46-1.1.84-2.2,1.7-3.18,2.69,1.04-.91,2.19-1.69,3.34-2.46,1.15-.76,2.32-1.48,3.48-2.23.04-.03.09-.05.13-.08,1.12-.72,2.24-1.46,3.32-2.27.06-.04.12-.09.17-.13.5-.38.99-.79,1.45-1.24.06-.06.11-.11.17-.17.2-.2.39-.41.58-.65.05-.06.09-.12.14-.19.05-.07.09-.15.14-.23h8.45c-.52.35-1.05.7-1.56,1.06-.05.03-.1.07-.15.1-1.19.84-2.34,1.72-3.44,2.67-1.12.95-2.18,1.96-3.19,3.02-.49.52-.98,1.05-1.44,1.6-.48.57-.93,1.16-1.3,1.81.82-1.2,1.9-2.2,2.95-3.2,1.07-.98,2.18-1.92,3.33-2.79,1.85-1.4,3.81-2.62,5.82-3.77-.05.06-.1.11-.15.17-.48.52-1.01,1.01-1.56,1.48-1.1.94-2.29,1.81-3.47,2.67-1.19.86-2.39,1.71-3.56,2.6-1.17.89-2.33,1.8-3.37,2.85,1.11-.97,2.32-1.8,3.54-2.61,1.21-.8,2.44-1.57,3.67-2.36.04-.03.09-.06.14-.09,1.19-.76,2.37-1.55,3.51-2.41.06-.05.12-.09.18-.14.53-.41,1.04-.84,1.53-1.31.06-.06.12-.12.18-.18.21-.21.42-.44.61-.69.05-.06.1-.13.15-.2.06-.09.12-.19.18-.29h8.41c-.59.39-1.18.78-1.76,1.19-.05.04-.1.07-.16.11-1.25.88-2.47,1.8-3.63,2.8-1.18,1.01-2.3,2.07-3.38,3.18-.52.55-1.04,1.11-1.53,1.7-.5.6-.98,1.22-1.37,1.91.87-1.27,2-2.33,3.12-3.38,1.13-1.04,2.3-2.03,3.52-2.96,1.98-1.5,4.09-2.81,6.24-4.05-.08.09-.15.18-.23.26-.51.55-1.07,1.06-1.66,1.56-1.17.99-2.42,1.9-3.67,2.81-1.25.91-2.52,1.8-3.77,2.74-1.23.94-2.47,1.9-3.56,3.01,1.17-1.02,2.45-1.9,3.74-2.75,1.27-.85,2.57-1.66,3.86-2.49.05-.03.1-.06.14-.09,1.25-.8,2.49-1.63,3.69-2.55.06-.05.13-.1.19-.15.55-.43,1.1-.88,1.61-1.38.06-.06.13-.12.19-.19.22-.23.44-.46.64-.72.05-.07.1-.14.15-.21.08-.11.15-.23.22-.36h8.37c-.66.43-1.31.87-1.95,1.32-.06.04-.11.08-.16.11-1.31.92-2.6,1.88-3.81,2.93-1.24,1.06-2.43,2.18-3.56,3.35-.55.58-1.1,1.18-1.61,1.79-.53.63-1.03,1.29-1.44,2,.92-1.34,2.11-2.45,3.29-3.56,1.19-1.1,2.42-2.14,3.7-3.12,2-1.51,4.11-2.85,6.27-4.1.35-.23.54-.48.76-.73h.02c-.21.29-.45.58-.71.86-.54.58-1.13,1.12-1.75,1.64-1.23,1.04-2.56,1.99-3.87,2.95-1.32.96-2.66,1.9-3.97,2.88-1.3,1-2.6,2-3.75,3.17,1.24-1.07,2.58-2,3.94-2.9,1.33-.89,2.7-1.74,4.05-2.61.05-.03.1-.06.15-.1,1.32-.85,2.62-1.72,3.88-2.68.07-.05.14-.1.2-.16.58-.45,1.15-.93,1.69-1.46.07-.07.13-.13.2-.2.23-.24.46-.49.68-.76.06-.07.11-.14.16-.22.08-.12.16-.24.24-.38,0-.01.01-.03.02-.04h8.34c-.73.47-1.45.95-2.16,1.44-.06.04-.12.08-.17.12-1.37.96-2.72,1.97-3.99,3.06-1.31,1.11-2.55,2.28-3.74,3.51-.58.61-1.15,1.24-1.7,1.89-.55.66-1.09,1.35-1.51,2.1.97-1.4,2.22-2.57,3.45-3.73,1.25-1.15,2.54-2.25,3.89-3.28,1.98-1.5,4.07-2.84,6.21-4.1.49-.32.82-.67,1.19-1h.07s0,.01,0,.02c-.22.32-.49.64-.77.94-.57.61-1.19,1.17-1.84,1.72-1.3,1.09-2.69,2.09-4.08,3.1-1.39,1-2.8,1.99-4.17,3.02-1.36,1.05-2.73,2.1-3.94,3.33,1.3-1.12,2.71-2.1,4.14-3.04,1.4-.93,2.82-1.83,4.24-2.74.05-.03.1-.07.16-.1,1.38-.89,2.75-1.81,4.06-2.82.07-.06.14-.11.21-.17.61-.48,1.21-.98,1.78-1.53.07-.07.14-.14.21-.21.25-.25.48-.51.71-.79.06-.07.12-.15.17-.23.09-.12.17-.25.25-.4.01-.03.03-.06.04-.09h8.32c-.79.51-1.58,1.03-2.36,1.57-.06.04-.12.08-.18.13-1.44,1-2.85,2.05-4.18,3.19-1.37,1.16-2.68,2.39-3.93,3.68-.61.64-1.21,1.3-1.78,1.98-.58.69-1.14,1.41-1.58,2.2,1.02-1.47,2.32-2.7,3.62-3.91,1.3-1.21,2.66-2.36,4.07-3.44,1.97-1.49,4.03-2.84,6.15-4.1.64-.42,1.11-.86,1.66-1.28h.08s-.02.04-.04.07c-.24.34-.52.67-.82.98-.6.64-1.26,1.23-1.94,1.8-1.36,1.14-2.83,2.18-4.28,3.24-1.46,1.05-2.94,2.08-4.38,3.16-1.43,1.1-2.87,2.2-4.12,3.49,1.36-1.18,2.84-2.2,4.34-3.19,1.46-.98,2.95-1.91,4.43-2.87.06-.04.11-.07.16-.11,1.45-.93,2.87-1.9,4.25-2.96.07-.06.15-.12.22-.17.64-.5,1.27-1.03,1.86-1.6.07-.07.15-.14.22-.22.26-.26.51-.53.74-.83.06-.08.12-.16.18-.24.09-.13.18-.26.26-.42.02-.04.04-.09.06-.13h8.29c-.86.55-1.72,1.11-2.57,1.7-.06.04-.13.09-.19.13-1.5,1.04-2.97,2.13-4.36,3.32-1.43,1.21-2.81,2.5-4.11,3.84-.64.68-1.27,1.36-1.87,2.07-.6.72-1.19,1.47-1.65,2.3,1.06-1.54,2.43-2.82,3.79-4.09,1.36-1.27,2.78-2.48,4.25-3.6,1.95-1.48,3.99-2.83,6.09-4.1.79-.52,1.42-1.06,2.14-1.56h.07s-.05.08-.08.12c-.25.35-.55.7-.86,1.03-.63.66-1.32,1.28-2.03,1.88-1.43,1.19-2.96,2.28-4.48,3.38-1.52,1.1-3.07,2.17-4.58,3.3-1.49,1.15-3,2.3-4.31,3.65,1.43-1.23,2.97-2.3,4.54-3.34,1.52-1.02,3.07-2,4.62-3,.06-.04.11-.07.17-.11,1.51-.97,3-1.99,4.43-3.1.08-.06.16-.12.23-.18.67-.53,1.32-1.07,1.94-1.68.08-.08.15-.15.23-.23.27-.27.53-.56.78-.87.06-.08.13-.16.19-.25.1-.13.19-.28.28-.43.03-.06.06-.12.09-.18h8.27c-.93.59-1.86,1.2-2.77,1.82-.07.05-.13.09-.2.14-1.56,1.08-3.1,2.21-4.55,3.45-1.5,1.27-2.93,2.6-4.29,4.01-.67.71-1.33,1.42-1.95,2.17-.63.75-1.24,1.53-1.71,2.4,1.11-1.6,2.54-2.95,3.95-4.27,1.42-1.32,2.9-2.59,4.44-3.77,1.94-1.47,3.95-2.83,6.03-4.1.94-.62,1.75-1.25,2.65-1.84h.04c-.04.06-.07.11-.11.17-.26.37-.57.73-.9,1.07-.66.69-1.38,1.34-2.12,1.96-1.49,1.24-3.1,2.37-4.68,3.52-1.59,1.14-3.21,2.27-4.79,3.45-1.56,1.2-3.13,2.4-4.5,3.82,1.49-1.28,3.11-2.4,4.74-3.48,1.58-1.06,3.2-2.08,4.81-3.13.06-.04.12-.08.18-.12,1.57-1.02,3.12-2.08,4.62-3.24.08-.06.16-.13.24-.19.69-.55,1.38-1.12,2.02-1.75.08-.08.16-.16.24-.24.28-.29.55-.58.81-.9.07-.08.13-.17.2-.26.1-.14.2-.29.29-.45.04-.07.08-.15.11-.23h8.24c-1,.64-2,1.28-2.98,1.95-.07.05-.14.09-.2.14-1.63,1.12-3.22,2.29-4.73,3.58-1.56,1.32-3.06,2.71-4.48,4.17-.7.74-1.38,1.49-2.04,2.26-.66.78-1.29,1.59-1.78,2.49,1.16-1.67,2.65-3.07,4.12-4.45,1.48-1.38,3.02-2.7,4.62-3.93,1.92-1.46,3.91-2.83,5.97-4.1,1.1-.72,2.08-1.44,3.16-2.12h0c-.05.07-.09.14-.14.22-.27.39-.6.76-.94,1.12-.68.72-1.44,1.39-2.22,2.04-1.56,1.29-3.23,2.46-4.89,3.66-1.66,1.19-3.35,2.36-4.99,3.59-1.63,1.25-3.26,2.5-4.69,3.98,1.56-1.33,3.24-2.5,4.94-3.63,1.65-1.11,3.32-2.17,4.99-3.25.06-.04.12-.08.19-.12,1.64-1.06,3.25-2.17,4.8-3.37.08-.07.17-.13.25-.2.72-.57,1.43-1.17,2.1-1.82.08-.08.17-.16.25-.25.29-.3.58-.6.84-.94.07-.09.14-.18.21-.27.11-.15.21-.3.3-.47.04-.08.09-.17.14-.27,0,0,0,0,0,0h8.22c-1.07.68-2.14,1.36-3.19,2.08-.07.05-.14.1-.21.15-1.69,1.16-3.35,2.38-4.91,3.71-1.63,1.37-3.18,2.82-4.66,4.34-.73.77-1.44,1.55-2.12,2.36-.68.82-1.34,1.66-1.85,2.59,1.21-1.73,2.75-3.19,4.29-4.63,1.54-1.44,3.14-2.81,4.8-4.09,1.91-1.45,3.87-2.82,5.91-4.1,1.23-.81,2.38-1.6,3.61-2.37-.05.08-.1.15-.15.23-.29.4-.63.79-.98,1.17-.71.75-1.5,1.45-2.31,2.12-1.62,1.34-3.37,2.56-5.09,3.81-1.73,1.24-3.48,2.45-5.2,3.73-1.69,1.3-3.4,2.6-4.88,4.14,1.62-1.39,3.37-2.6,5.14-3.77,1.71-1.15,3.45-2.26,5.18-3.38.06-.04.13-.08.19-.13,1.7-1.1,3.37-2.26,4.99-3.51.09-.07.18-.14.26-.21.75-.59,1.49-1.22,2.18-1.9.09-.08.17-.17.26-.26.3-.31.6-.63.88-.98.07-.09.14-.18.21-.28.11-.15.22-.31.31-.48.05-.09.1-.18.14-.28,0-.01.01-.03.02-.05h8.19c-1.14.72-2.28,1.45-3.4,2.21-.07.05-.15.1-.22.15-1.75,1.2-3.48,2.46-5.1,3.84-1.69,1.42-3.31,2.93-4.84,4.5-.76.8-1.5,1.61-2.21,2.45-.71.85-1.4,1.72-1.92,2.69,1.26-1.8,2.86-3.32,4.45-4.81,1.6-1.49,3.26-2.92,4.99-4.25,1.89-1.44,3.83-2.82,5.84-4.1,1.35-.89,2.68-1.75,4.05-2.59-.05.07-.09.15-.14.22-.3.42-.65.82-1.02,1.21-.74.78-1.56,1.5-2.41,2.2-1.69,1.39-3.5,2.65-5.29,3.95-1.8,1.29-3.62,2.55-5.4,3.87-1.76,1.35-3.53,2.7-5.07,4.3,1.68-1.44,3.5-2.7,5.34-3.92,1.77-1.19,3.57-2.34,5.37-3.51.07-.04.13-.09.2-.13,1.77-1.14,3.5-2.35,5.17-3.65.09-.07.18-.14.27-.21.78-.62,1.54-1.26,2.26-1.97.09-.09.18-.18.27-.27.31-.32.62-.65.91-1.01.08-.1.15-.19.22-.29.11-.16.23-.32.33-.5.05-.09.1-.19.15-.29.01-.03.02-.06.03-.09h8.17c-1.21.76-2.42,1.53-3.61,2.33-.08.05-.15.1-.23.16-1.82,1.24-3.6,2.54-5.28,3.97-1.75,1.47-3.43,3.03-5.03,4.67-.79.83-1.56,1.67-2.29,2.55-.73.88-1.45,1.78-1.99,2.79,1.31-1.87,2.97-3.44,4.62-4.99,1.66-1.55,3.38-3.03,5.17-4.41,1.88-1.43,3.79-2.82,5.78-4.1,1.49-.98,2.98-1.91,4.5-2.83-.05.08-.1.15-.15.23-.31.44-.68.85-1.06,1.26-.77.81-1.62,1.56-2.5,2.28-1.76,1.44-3.64,2.75-5.49,4.09-1.86,1.33-3.76,2.64-5.6,4.01-1.82,1.4-3.66,2.8-5.26,4.46,1.75-1.49,3.63-2.8,5.54-4.06,1.83-1.24,3.7-2.43,5.56-3.64.07-.05.14-.09.21-.14,1.83-1.18,3.62-2.44,5.36-3.79.09-.07.19-.15.28-.22.81-.64,1.6-1.31,2.34-2.04.09-.09.19-.18.28-.28.33-.33.64-.68.94-1.05.08-.1.16-.2.23-.3.12-.16.23-.33.34-.52.05-.1.11-.2.16-.3.02-.04.03-.08.05-.12h8.08c-1.27.79-2.54,1.6-3.78,2.44-1.96,1.33-3.89,2.72-5.7,4.26-1.82,1.53-3.56,3.14-5.21,4.83-.82.86-1.61,1.73-2.38,2.64-.76.91-1.5,1.84-2.06,2.89,1.35-1.93,3.07-3.56,4.79-5.17,1.72-1.61,3.5-3.14,5.36-4.58,1.87-1.42,3.76-2.81,5.72-4.09,1.62-1.07,3.28-2.08,4.95-3.07-.05.08-.1.16-.16.24-.32.45-.71.89-1.11,1.3-.8.84-1.68,1.61-2.59,2.36-1.82,1.49-3.77,2.84-5.7,4.23-1.93,1.38-3.89,2.73-5.81,4.15-1.89,1.45-3.79,2.91-5.45,4.62,1.81-1.54,3.76-2.9,5.74-4.21,1.97-1.33,3.97-2.6,5.96-3.91,2-1.29,3.95-2.67,5.84-4.16.94-.75,1.86-1.53,2.71-2.4.43-.44.84-.89,1.22-1.4.19-.26.37-.52.52-.84.02-.04.04-.09.06-.14h10.03c.16,3.97,3.42,7.14,7.44,7.14s7.1-3.01,7.42-6.83h8.39s.04.09.06.14c.15.32.33.59.52.84.38.51.79.96,1.22,1.4.85.87,1.77,1.65,2.71,2.4,1.89,1.49,3.84,2.86,5.84,4.16,1.99,1.3,4,2.58,5.96,3.91,1.98,1.31,3.93,2.67,5.74,4.21-1.66-1.72-3.56-3.17-5.45-4.62-1.91-1.42-3.88-2.77-5.81-4.15-1.92-1.39-3.88-2.74-5.7-4.23-.91-.75-1.79-1.52-2.59-2.36-.4-.42-.78-.85-1.11-1.3-.06-.08-.11-.16-.16-.24,1.67.99,3.33,2,4.95,3.07,1.97,1.28,3.86,2.67,5.72,4.1,1.86,1.43,3.64,2.97,5.36,4.58,1.71,1.6,3.43,3.24,4.79,5.17-.56-1.04-1.3-1.98-2.06-2.89-.76-.91-1.56-1.78-2.38-2.64-1.65-1.69-3.39-3.31-5.21-4.83-1.81-1.54-3.74-2.92-5.7-4.26-1.24-.84-2.5-1.64-3.77-2.44h8.07s.03.08.05.12c.05.11.1.21.16.31.1.18.22.35.34.51.08.1.15.21.23.3.3.37.62.72.94,1.05.08.09.17.17.26.26.75.74,1.55,1.42,2.37,2.06.07.05.14.11.2.16,1.76,1.37,3.58,2.65,5.45,3.85,1.92,1.26,3.86,2.49,5.76,3.77,1.91,1.26,3.79,2.57,5.54,4.06-1.6-1.66-3.44-3.06-5.26-4.46-1.85-1.37-3.74-2.68-5.6-4.01-1.86-1.34-3.74-2.65-5.49-4.09-.88-.72-1.73-1.47-2.5-2.28-.38-.4-.75-.82-1.06-1.26-.05-.08-.1-.15-.15-.23,1.52.92,3.01,1.85,4.5,2.83,1.99,1.28,3.9,2.66,5.78,4.1,1.79,1.38,3.52,2.86,5.17,4.41,1.65,1.55,3.31,3.12,4.62,4.99-.54-1.01-1.26-1.91-1.99-2.79-.7-.84-1.43-1.64-2.18-2.43-.04-.04-.07-.08-.11-.12-1.52-1.56-3.12-3.05-4.79-4.47-.08-.07-.16-.14-.24-.21-1.63-1.38-3.36-2.65-5.12-3.86-.13-.09-.26-.18-.39-.26-1.18-.8-2.39-1.57-3.6-2.33h8.17s.02.06.03.08c.05.11.1.2.15.3.1.18.21.34.32.49.07.1.15.2.23.29.29.36.59.69.91,1.01.08.08.16.17.25.25.73.71,1.5,1.37,2.29,1.99.07.05.13.1.2.15,1.7,1.33,3.46,2.55,5.26,3.72,1.86,1.21,3.72,2.39,5.55,3.63,1.84,1.22,3.66,2.48,5.34,3.92-1.54-1.6-3.31-2.95-5.07-4.3-1.78-1.32-3.6-2.58-5.4-3.87-1.79-1.3-3.6-2.55-5.29-3.95-.84-.69-1.66-1.42-2.41-2.2-.37-.39-.72-.79-1.02-1.21-.05-.07-.1-.15-.14-.22,1.37.84,2.69,1.69,4.05,2.59,2.01,1.28,3.95,2.65,5.85,4.1,1.73,1.33,3.39,2.76,4.99,4.25,1.59,1.49,3.2,3.01,4.45,4.81-.52-.97-1.21-1.84-1.92-2.69-.68-.81-1.38-1.59-2.11-2.35-.04-.04-.07-.08-.11-.11-1.47-1.51-3.01-2.95-4.62-4.31-.08-.07-.16-.13-.24-.2-1.57-1.34-3.24-2.56-4.94-3.72-.12-.09-.25-.17-.37-.26-1.11-.76-2.24-1.48-3.38-2.19h8.19s.01.03.02.04c.05.1.1.2.15.29.1.17.2.33.31.48.07.1.14.19.22.28.28.35.57.67.88.98.08.08.16.16.24.24.7.69,1.45,1.32,2.21,1.92.06.05.13.1.19.15,1.65,1.28,3.35,2.46,5.08,3.58,1.79,1.16,3.58,2.3,5.35,3.49,1.77,1.17,3.52,2.39,5.14,3.77-1.49-1.53-3.19-2.84-4.88-4.14-1.71-1.27-3.47-2.49-5.2-3.73-1.72-1.25-3.46-2.46-5.09-3.81-.81-.67-1.6-1.37-2.31-2.12-.36-.37-.7-.76-.98-1.17-.05-.08-.1-.15-.15-.23,1.23.76,2.38,1.56,3.61,2.37,2.03,1.27,4,2.64,5.91,4.1,1.67,1.28,3.27,2.65,4.8,4.09,1.53,1.44,3.08,2.9,4.29,4.63-.51-.94-1.17-1.78-1.85-2.59-.65-.78-1.33-1.53-2.03-2.26-.03-.04-.07-.07-.1-.11-1.42-1.45-2.9-2.84-4.45-4.16-.08-.06-.15-.13-.23-.19-1.51-1.29-3.12-2.47-4.75-3.59-.12-.08-.24-.16-.36-.25-1.04-.71-2.1-1.39-3.16-2.06h8.21s0,0,0,0c.04.1.09.19.14.27.09.17.19.32.3.46.07.09.14.18.21.27.27.34.55.64.84.94.08.08.15.15.23.23.68.66,1.4,1.27,2.13,1.85.06.05.12.09.18.14,1.59,1.23,3.23,2.36,4.9,3.44,1.72,1.12,3.45,2.21,5.14,3.35,1.7,1.13,3.38,2.29,4.94,3.63-1.43-1.47-3.07-2.73-4.69-3.98-1.65-1.23-3.33-2.39-4.99-3.59-1.65-1.2-3.33-2.37-4.89-3.66-.78-.64-1.53-1.31-2.22-2.04-.34-.36-.67-.73-.94-1.12-.05-.07-.09-.14-.14-.21h0c1.07.68,2.06,1.4,3.15,2.12,2.06,1.27,4.04,2.64,5.97,4.1,1.6,1.23,3.14,2.55,4.62,3.93,1.47,1.38,2.96,2.78,4.12,4.45-.49-.9-1.13-1.71-1.78-2.49-.63-.75-1.29-1.47-1.96-2.18-.03-.04-.07-.07-.1-.11-1.36-1.4-2.79-2.74-4.28-4-.07-.06-.15-.12-.22-.19-1.46-1.24-3-2.38-4.57-3.46-.11-.08-.23-.16-.34-.24-.97-.66-1.96-1.3-2.95-1.93h8.23c.04.08.08.16.11.23.09.16.19.31.29.45.06.09.13.18.2.26.26.32.53.62.81.91.07.07.15.15.22.22.65.64,1.34,1.22,2.05,1.78.06.05.12.09.18.14,1.53,1.18,3.11,2.27,4.72,3.31,1.65,1.07,3.31,2.12,4.94,3.21,1.63,1.08,3.25,2.2,4.74,3.48-1.37-1.41-2.94-2.62-4.5-3.82-1.58-1.18-3.19-2.3-4.79-3.45-1.59-1.15-3.19-2.28-4.68-3.52-.75-.62-1.47-1.26-2.12-1.96-.33-.35-.64-.7-.9-1.07-.04-.05-.07-.11-.11-.16h.04c.9.59,1.7,1.22,2.64,1.84,2.08,1.27,4.09,2.63,6.03,4.1,1.54,1.18,3.02,2.44,4.44,3.77,1.41,1.33,2.84,2.67,3.95,4.27-.47-.86-1.08-1.64-1.71-2.4-.6-.72-1.24-1.41-1.88-2.09-.03-.03-.06-.07-.1-.1-1.31-1.35-2.68-2.63-4.11-3.85-.07-.06-.14-.12-.21-.18-1.4-1.19-2.88-2.29-4.39-3.33-.11-.08-.22-.15-.33-.23-.9-.62-1.81-1.21-2.73-1.8h8.26c.03.06.06.13.09.18.09.16.18.3.27.43.06.09.13.17.19.25.25.31.51.6.78.87.07.07.14.14.21.21.63.61,1.29,1.17,1.97,1.7.06.04.11.09.17.13,1.47,1.13,2.99,2.17,4.53,3.17,1.58,1.03,3.17,2.03,4.73,3.07,1.57,1.04,3.11,2.11,4.54,3.34-1.32-1.35-2.82-2.51-4.31-3.65-1.51-1.13-3.06-2.21-4.58-3.3-1.52-1.1-3.05-2.19-4.48-3.38-.71-.59-1.41-1.21-2.03-1.88-.31-.33-.61-.68-.86-1.03-.03-.04-.05-.07-.07-.11h.08c.72.51,1.35,1.04,2.13,1.56,2.1,1.26,4.14,2.62,6.09,4.1,1.47,1.13,2.89,2.34,4.25,3.6,1.35,1.27,2.72,2.56,3.79,4.09-.46-.83-1.04-1.58-1.65-2.3-.58-.69-1.19-1.35-1.8-2.01-.03-.03-.06-.06-.09-.1-1.25-1.29-2.57-2.53-3.94-3.7-.07-.06-.13-.11-.2-.17-1.34-1.14-2.76-2.2-4.21-3.2-.11-.07-.21-.15-.32-.22-.83-.57-1.67-1.12-2.52-1.66h8.29s.04.09.06.13c.08.15.17.29.26.41.06.08.12.16.18.24.24.3.49.57.75.84.07.07.13.14.2.2.6.59,1.24,1.12,1.89,1.63.05.04.11.08.16.13,1.41,1.08,2.87,2.08,4.35,3.03,1.51.98,3.04,1.94,4.53,2.93,1.5.99,2.98,2.01,4.34,3.19-1.26-1.29-2.7-2.4-4.12-3.49-1.44-1.08-2.92-2.11-4.38-3.16-1.45-1.06-2.91-2.1-4.28-3.24-.68-.57-1.34-1.16-1.94-1.8-.3-.32-.58-.65-.82-.98-.01-.02-.02-.04-.04-.06h.08c.55.42,1.01.86,1.65,1.28,2.12,1.26,4.19,2.61,6.15,4.1,1.41,1.08,2.77,2.23,4.07,3.44,1.29,1.22,2.6,2.44,3.62,3.91-.44-.79-1-1.51-1.58-2.2-.55-.66-1.14-1.3-1.73-1.92-.03-.03-.06-.06-.09-.09-1.2-1.24-2.46-2.42-3.77-3.54-.06-.05-.13-.11-.19-.16-1.29-1.1-2.64-2.11-4.03-3.07-.1-.07-.2-.14-.3-.21-.76-.52-1.53-1.03-2.31-1.53h8.31s.03.06.04.08c.08.15.16.28.25.4.06.08.11.15.17.23.23.29.47.55.72.8.06.06.13.13.19.19.58.56,1.19,1.07,1.81,1.56.05.04.1.08.16.12,1.35,1.04,2.75,1.98,4.17,2.89,1.44.93,2.9,1.84,4.32,2.8,1.43.95,2.84,1.92,4.14,3.04-1.2-1.23-2.57-2.29-3.94-3.33-1.38-1.03-2.79-2.02-4.17-3.02-1.38-1.01-2.78-2.01-4.08-3.1-.65-.54-1.28-1.11-1.84-1.72-.28-.3-.55-.62-.77-.94,0,0,0,0,0-.01h.07c.38.33.7.68,1.19,1,2.15,1.26,4.23,2.6,6.21,4.1,1.35,1.03,2.64,2.13,3.89,3.28,1.23,1.16,2.48,2.33,3.45,3.73-.42-.76-.95-1.44-1.51-2.1-.53-.63-1.09-1.24-1.65-1.84-.03-.03-.06-.06-.08-.09-1.15-1.18-2.35-2.32-3.6-3.39-.06-.05-.12-.1-.18-.16-1.23-1.05-2.52-2.02-3.85-2.94-.1-.07-.19-.13-.29-.2-.69-.48-1.39-.94-2.09-1.4h8.34s.01.02.02.04c.07.14.15.26.24.38.05.07.11.15.16.22.22.28.45.53.68.77.06.06.12.12.18.18.55.54,1.14,1.02,1.73,1.49.05.04.1.08.15.11,1.29.99,2.63,1.89,3.99,2.76,1.38.89,2.76,1.75,4.12,2.66,1.36.9,2.7,1.83,3.94,2.9-1.15-1.17-2.45-2.17-3.75-3.17-1.31-.98-2.65-1.92-3.97-2.88-1.32-.96-2.64-1.91-3.87-2.95-.62-.52-1.21-1.06-1.75-1.64-.26-.28-.5-.56-.71-.85h.02c.22.24.42.5.76.72,2.17,1.26,4.28,2.59,6.27,4.1,1.28.98,2.52,2.02,3.7,3.12,1.18,1.1,2.37,2.22,3.29,3.56-.4-.72-.91-1.37-1.44-2-.51-.6-1.04-1.18-1.58-1.75-.03-.03-.05-.06-.08-.08-1.09-1.13-2.24-2.21-3.44-3.23-.06-.05-.12-.1-.18-.15-1.17-1-2.4-1.93-3.66-2.81-.09-.06-.18-.13-.28-.19-.62-.43-1.25-.85-1.88-1.27h8.37c.07.13.14.25.22.35.05.07.1.14.15.21.21.26.43.5.65.73.06.06.12.12.18.17.53.51,1.08.97,1.65,1.42.05.04.09.07.14.11,1.23.94,2.51,1.79,3.81,2.62,1.31.84,2.62,1.66,3.91,2.52,1.29.86,2.57,1.73,3.74,2.75-1.09-1.11-2.33-2.06-3.56-3.01-1.24-.94-2.51-1.83-3.77-2.74-1.25-.91-2.5-1.82-3.67-2.81-.58-.49-1.15-1.01-1.66-1.56-.08-.09-.15-.18-.23-.26,2.16,1.24,4.26,2.55,6.25,4.05,1.22.92,2.39,1.91,3.52,2.96,1.12,1.05,2.25,2.11,3.12,3.38-.39-.68-.87-1.31-1.37-1.91-.48-.57-.99-1.12-1.5-1.67-.03-.03-.05-.05-.08-.08-1.04-1.08-2.13-2.11-3.27-3.08-.06-.05-.11-.1-.17-.14-1.11-.95-2.28-1.84-3.48-2.68-.09-.06-.17-.12-.26-.18-.56-.39-1.12-.76-1.68-1.14h8.41c.06.1.11.2.18.29.05.07.1.13.15.2.2.25.41.48.62.69.06.06.11.11.17.17.5.49,1.03.93,1.57,1.34.04.03.09.07.13.1,1.17.89,2.39,1.7,3.62,2.48,1.24.79,2.49,1.57,3.71,2.38,1.22.81,2.43,1.64,3.54,2.61-1.03-1.05-2.2-1.95-3.37-2.85-1.17-.89-2.38-1.74-3.56-2.6-1.18-.87-2.36-1.73-3.47-2.67-.55-.47-1.08-.96-1.56-1.48-.05-.05-.1-.11-.15-.17,2.01,1.15,3.97,2.37,5.82,3.77,1.16.87,2.27,1.81,3.34,2.79,1.06.99,2.13,1.99,2.95,3.2-.37-.65-.82-1.24-1.3-1.81-.46-.54-.94-1.06-1.42-1.58-.02-.03-.05-.05-.07-.08-.98-1.02-2.02-2-3.1-2.93-.05-.05-.1-.09-.16-.14-1.06-.9-2.17-1.75-3.3-2.55-.08-.06-.17-.12-.25-.18-.5-.35-1.01-.67-1.52-1.01h8.49c.04.08.09.16.14.23.04.06.09.12.14.18.19.24.38.45.59.66.05.05.1.1.16.16.48.46.98.88,1.5,1.27.04.03.08.06.13.1,1.12.84,2.28,1.6,3.44,2.35,1.17.75,2.35,1.48,3.5,2.24,1.15.77,2.3,1.55,3.34,2.46-.98-.99-2.08-1.84-3.18-2.69-1.11-.84-2.24-1.64-3.36-2.46-1.12-.82-2.23-1.64-3.27-2.53-.52-.44-1.02-.9-1.47-1.4-.03-.03-.05-.06-.08-.09,1.87,1.07,3.69,2.21,5.41,3.51,1.09.82,2.14,1.7,3.15,2.63,1,.94,2.01,1.88,2.78,3.02-.35-.61-.78-1.17-1.23-1.71-.43-.51-.89-1.01-1.35-1.5-.02-.02-.05-.05-.07-.07-.93-.97-1.91-1.9-2.93-2.77-.05-.04-.1-.09-.15-.13-1-.86-2.05-1.66-3.12-2.42-.08-.06-.16-.11-.23-.17-.43-.3-.88-.58-1.32-.88h8.52c.07.12.15.24.23.34.22.29.46.53.7.77.49.47,1.01.89,1.54,1.29,1.06.8,2.16,1.51,3.26,2.21,1.1.7,2.21,1.38,3.3,2.1,1.08.72,2.16,1.45,3.14,2.31-.92-.93-1.95-1.73-2.99-2.53-1.04-.79-2.1-1.55-3.15-2.32-1.05-.77-2.09-1.55-3.06-2.39-.49-.42-.95-.85-1.37-1.32,0,0,0-.01-.02-.02,1.73.99,3.42,2.05,5.01,3.26,1.03.77,2.02,1.6,2.97,2.47.94.88,1.89,1.77,2.62,2.84-.66-1.12-1.56-2.08-2.44-3.02-.9-.94-1.84-1.84-2.82-2.69-.98-.85-2.02-1.65-3.08-2.41-.43-.31-.87-.61-1.31-.91h8.92l16.99-.43c.1,1.91,1.67,3.42,3.6,3.42s3.61-1.61,3.61-3.6h.42ZM33.03,15.11c-1.08-.73-2.19-1.42-3.28-2.13-1.09-.71-2.18-1.42-3.2-2.21-.51-.39-1-.8-1.45-1.24,0,0-.01-.01-.02-.02,1.79.89,3.53,1.85,5.19,2.96,1.07.71,2.11,1.48,3.11,2.29.81.68,1.62,1.36,2.32,2.14-.05,0-.1.02-.16.04-.81-.66-1.65-1.27-2.52-1.85ZM163.41,13.09c-1.92-1.26-3.89-2.46-5.83-3.68-1.93-1.23-3.89-2.43-5.72-3.77-.92-.67-1.81-1.37-2.63-2.13-.41-.38-.8-.78-1.14-1.19-.06-.07-.11-.15-.17-.22,1.57.83,3.11,1.67,4.66,2.56,2.06,1.16,4.05,2.43,6.01,3.75,1.87,1.28,3.67,2.65,5.42,4.11,1.67,1.39,3.34,2.81,4.72,4.5h-.06c-1.63-1.46-3.45-2.71-5.26-3.94ZM146.93,9.7c-1.86-1.19-3.74-2.34-5.51-3.64-.88-.64-1.74-1.32-2.53-2.05-.39-.37-.77-.75-1.09-1.15-.06-.07-.11-.14-.16-.21,1.42.76,2.79,1.54,4.19,2.35,2.08,1.16,4.1,2.42,6.07,3.75,1.8,1.23,3.54,2.56,5.23,3.96,1.6,1.33,3.2,2.7,4.53,4.32h-.07c-1.57-1.4-3.31-2.59-5.05-3.77-1.85-1.22-3.75-2.37-5.61-3.55ZM157.47,16.97s.05.03.07.05h-.02s-.03-.04-.05-.05ZM136.28,10c-1.79-1.15-3.6-2.26-5.3-3.51-.85-.62-1.68-1.27-2.43-1.98-.38-.35-.74-.72-1.05-1.11-.06-.07-.11-.15-.16-.22,1.27.69,2.47,1.42,3.74,2.15,2.1,1.15,4.14,2.41,6.13,3.75,1.74,1.18,3.41,2.46,5.03,3.8,1.53,1.28,3.06,2.58,4.34,4.13h-.07c-1.5-1.34-3.17-2.48-4.83-3.6-1.78-1.17-3.6-2.28-5.4-3.42ZM130.82,13.59c-1.71-1.13-3.46-2.2-5.19-3.29-1.72-1.1-3.46-2.18-5.09-3.38-.82-.6-1.61-1.22-2.33-1.91-.36-.34-.71-.69-1-1.06-.06-.07-.11-.14-.16-.21,1.12.62,2.14,1.28,3.28,1.94,2.13,1.15,4.19,2.4,6.2,3.75,1.67,1.14,3.28,2.36,4.84,3.65,1.46,1.22,2.93,2.47,4.14,3.94h-.06s-.08-.07-.13-.1c-1.41-1.23-2.95-2.29-4.5-3.34ZM119.95,13.75c-1.64-1.08-3.32-2.11-4.98-3.16-1.65-1.06-3.32-2.09-4.88-3.25-.78-.58-1.54-1.18-2.23-1.83-.35-.33-.68-.67-.96-1.02-.05-.07-.1-.13-.15-.2.96.55,1.82,1.15,2.82,1.73,2.15,1.15,4.24,2.38,6.26,3.74,1.6,1.09,3.15,2.26,4.65,3.5,1.4,1.16,2.79,2.35,3.95,3.76h-.03c-.06-.06-.13-.11-.21-.13-1.33-1.15-2.79-2.15-4.24-3.14ZM109.09,13.92c-1.57-1.04-3.18-2.03-4.77-3.03-1.58-1.01-3.17-2.01-4.67-3.11-.75-.55-1.47-1.13-2.14-1.76-.33-.31-.65-.64-.92-.98-.05-.06-.1-.13-.14-.19.8.49,1.49,1.01,2.36,1.51,2.17,1.14,4.28,2.37,6.32,3.74,1.54,1.04,3.02,2.16,4.45,3.35,1.33,1.11,2.65,2.24,3.76,3.57h-.02c-.06-.06-.13-.1-.21-.12-1.27-1.09-2.65-2.05-4.04-2.99ZM98.22,14.09c-1.5-1-3.04-1.94-4.56-2.9-1.51-.97-3.03-1.92-4.46-2.99-.71-.53-1.41-1.08-2.04-1.68-.31-.3-.62-.61-.87-.93-.05-.06-.09-.12-.13-.18.64.42,1.17.88,1.89,1.29,2.19,1.14,4.33,2.36,6.38,3.74,1.47.99,2.89,2.07,4.26,3.2,1.24,1.03,2.48,2.09,3.52,3.33-.06-.03-.11-.05-.18-.05-1.2-1.03-2.51-1.93-3.82-2.82ZM83.01,11.48c-1.44-.93-2.89-1.84-4.25-2.86-.68-.51-1.34-1.03-1.94-1.61-.3-.29-.59-.58-.83-.89-.04-.05-.06-.09-.09-.14.47.34.83.72,1.4,1.05,2.22,1.13,4.38,2.35,6.44,3.73,1.4.95,2.76,1.97,4.07,3.05,1.15.96,2.31,1.95,3.29,3.1-.05-.02-.1-.01-.15,0-1.14-.97-2.37-1.82-3.6-2.66-1.43-.95-2.9-1.85-4.34-2.77ZM72.36,11.78c-1.37-.88-2.75-1.76-4.04-2.73-.65-.48-1.27-.99-1.84-1.53-.28-.27-.56-.56-.78-.85-.01-.02-.02-.03-.03-.05.27.25.49.53.88.76,2.24,1.13,4.42,2.34,6.5,3.73,1.34.9,2.63,1.87,3.88,2.9,1.09.91,2.18,1.83,3.1,2.91-.05-.01-.11-.03-.16-.02-1.07-.9-2.22-1.7-3.38-2.48-1.36-.91-2.76-1.77-4.13-2.65ZM65.63,14.59c-1.29-.86-2.62-1.68-3.92-2.52-1.3-.84-2.6-1.68-3.83-2.6-.61-.46-1.2-.94-1.74-1.46-.08-.08-.16-.17-.25-.25,2.23,1.11,4.4,2.3,6.47,3.68,1.27.85,2.5,1.77,3.68,2.75,1.02.85,2.04,1.72,2.91,2.72-.04,0-.08-.02-.12-.02,0,0,0,0-.01,0,0,0-.02,0-.03.01-1-.84-2.09-1.59-3.17-2.32ZM54.76,14.76c-1.22-.82-2.47-1.59-3.71-2.39-1.23-.8-2.46-1.59-3.62-2.47-.58-.44-1.14-.89-1.64-1.38-.05-.05-.1-.11-.16-.16,2.07,1.03,4.1,2.14,6.03,3.43,1.2.81,2.37,1.67,3.49,2.6.94.79,1.89,1.6,2.71,2.53-.02,0-.03-.01-.04,0,0,0,0,0-.01,0-.04,0-.07.03-.1.03-.94-.78-1.94-1.49-2.95-2.18ZM43.9,14.94c-1.15-.77-2.33-1.51-3.5-2.26-1.16-.75-2.32-1.51-3.41-2.34-.54-.41-1.07-.84-1.55-1.31-.03-.03-.05-.06-.08-.08,1.93.96,3.81,1.99,5.6,3.19,1.14.76,2.24,1.58,3.3,2.44.87.73,1.75,1.47,2.51,2.33-.05,0-.1.03-.15.04-.88-.72-1.8-1.39-2.74-2.02ZM174.26,12.93c-1.99-1.31-4.03-2.54-6.04-3.81-2-1.28-4.03-2.51-5.93-3.9-.95-.69-1.88-1.41-2.73-2.2-.42-.39-.83-.81-1.18-1.24-.06-.08-.12-.16-.18-.23,1.73.9,3.44,1.81,5.12,2.78,2.04,1.17,4,2.44,5.95,3.76,1.94,1.32,3.81,2.75,5.61,4.26,1.73,1.45,3.47,2.92,4.9,4.68h-.06c-1.7-1.53-3.59-2.81-5.47-4.1Z"/>
  </g>
</svg>