<?xml version="1.0" encoding="UTF-8"?>
<svg id="Layer_2" data-name="Layer 2" xmlns="http://www.w3.org/2000/svg" viewBox="0 0 185.28 21.47">
  <g id="OBJECTS">
    <path d="M185.28,10.73h-.04c-8.94-3.05-17.35-6.65-25.02-10.73,1.9,3.42,3.8,6.85,5.71,10.27l19.08.46h-.53s-21.91-.27-21.91-.27l-4.84-.04c-3.84-1.96-7.26-4.21-10.13-6.68.78,2.21,1.56,4.41,2.33,6.62l-10.02-.07-45.3-.14-45.3.14-22.65.17-4.58.06s0,0,0,0l-3.13-1.66c-.08-.07-.2-.07-.28,0l-3.13,1.66s-.03.06-.04.09l-3.04.04c0-.1-.05-.21-.14-.28l-5.83-3.1c-.15-.13-.37-.13-.52,0L.15,10.37c-.2.17-.2.47,0,.64l5.83,3.1c.15.13.37.13.52,0l5.83-3.1s.08-.09.11-.14l3.21.04,3.03,1.61c.08.07.2.07.28,0l2.88-1.53,4.82.06,22.65.17,45.3.14,45.3-.14,10-.07c-.77,2.19-1.54,4.38-2.31,6.56,2.84-2.45,6.22-4.67,10.01-6.62l4.95-.04,20.19-.26-16.82.41c-1.9,3.42-3.8,6.85-5.71,10.27,7.66-4.07,16.05-7.66,24.98-10.71h.02s-.01,0-.01,0c.02,0,.03-.01.05-.02h.04s-.01,0-.02,0c0,0,.01,0,.02,0Z"/>
  </g>
</svg>