<?xml version="1.0" encoding="UTF-8"?>
<svg id="Layer_2" data-name="Layer 2" xmlns="http://www.w3.org/2000/svg" viewBox="0 0 184.2 15.78">
  <g id="OBJECTS">
    <path d="M184.06,7.85h.14s-.27,0-.27,0c-3.65-2.15-7.3-4.31-10.95-6.46-1.93-1.14-4.65-2.18-6.15-.52-.99,1.09-.78,2.89.07,4.09.85,1.2,2.18,1.96,3.47,2.67l5.05.11-13.87-.18-22.65-.17-33.6-.1c.16-.27.32-.54.47-.8.42-.71.81-1.72.19-2.28-.4-.37-1.07-.29-1.51.02-.45.31-.72.81-.99,1.29l-.1.29-.1-.29c-.26-.48-.54-.97-.99-1.29-.45-.31-1.11-.39-1.51-.02-.61.56-.23,1.56.19,2.28.16.26.31.53.47.79l-4.99-.02c.22-.38.45-.76.67-1.14.61-1.04,1.18-2.51.28-3.32-.59-.53-1.56-.42-2.21.04-.65.46-1.06,1.18-1.44,1.87l-.14.17-.14-.17c-.39-.7-.79-1.42-1.44-1.87-.65-.46-1.62-.57-2.21-.04-.89.81-.33,2.28.28,3.32.22.38.45.76.67,1.14l-4.99.02c.16-.26.31-.53.47-.79.42-.71.81-1.72.19-2.28-.4-.37-1.07-.29-1.51.02-.45.31-.72.81-.99,1.29l-.1.31-.1-.31c-.26-.48-.54-.97-.99-1.29-.45-.31-1.11-.39-1.51-.02-.61.56-.23,1.56.19,2.28l.47.8-33.61.1-22.65.17-13.46.17C7.84,6.23,3.75,4.47,0,2.49c.95,1.71,1.9,3.42,2.85,5.14l6.27.15-6.13.08,6.12.08-6.27.15c-.95,1.71-1.9,3.43-2.85,5.14,3.75-1.99,7.84-3.75,12.19-5.25l13.46.17,22.65.17,34.27.11,1.25,2.12v.05s0-.02.01-.02c0,0,0,.02.01.02v-.05c.42-.71.83-1.41,1.25-2.12l6.36.02c.71,1.2,1.41,2.39,2.12,3.59v.07s.01-.02.02-.04c0,.01.01.02.02.04v-.07c.7-1.2,1.41-2.39,2.12-3.59l6.36-.02,1.25,2.11v.05s0-.02.01-.02c0,0,0,.02.01.02v-.05c.42-.71.83-1.41,1.25-2.12l34.27-.1,22.65-.17,20.35-.26h.41s-11.94.27-11.94.27c-1.29.71-2.62,1.47-3.47,2.67-.85,1.2-1.06,3-.07,4.09,1.5,1.66,4.22.61,6.15-.52,3.65-2.16,7.31-4.31,10.96-6.47h.13s-.04-.02-.07-.04c.02-.01.04-.02.06-.04Z"/>
  </g>
</svg>