<?xml version="1.0" encoding="UTF-8"?>
<svg id="Layer_2" data-name="Layer 2" xmlns="http://www.w3.org/2000/svg" viewBox="0 0 392.52 25.09">
  <defs>
    <style>
      .cls-1 {
        fill: #201522;
      }
    </style>
  </defs>
  <g id="Objects">
    <g>
      <path class="cls-1" d="M177.95,21.44c-2.84-1.37-5.41-3.32-7.48-5.7-2.1-2.32-3.74-5.31-6.34-7.92-1.31-1.27-2.85-2.42-4.7-3.12-.91-.35-1.92-.58-2.94-.62-1.02-.05-2.04.1-3.01.42-.97.33-1.91.85-2.7,1.59-.8.73-1.38,1.7-1.7,2.68-.69,2-.43,3.9-.25,5.56.2,1.68.43,3.27.2,4.69-.18,1.42-.98,2.62-2.29,3.31-1.28.71-2.89.82-4.32.2-1.43-.62-2.66-1.86-3.27-3.43.28,1.67,1.31,3.26,2.85,4.22,1.53,1,3.62,1.15,5.39.45.89-.34,1.72-.92,2.37-1.67.66-.77,1.07-1.69,1.32-2.62.26-.94.32-1.87.32-2.76,0-.9-.05-1.75-.08-2.58-.04-.83-.06-1.63,0-2.37.04-.75.16-1.44.4-2.03.43-1.21,1.42-1.96,2.68-2.34.63-.17,1.29-.26,1.95-.22.65.03,1.3.19,1.95.45,1.29.51,2.5,1.4,3.58,2.48,2.2,2.11,3.88,5.08,6.35,7.69,2.47,2.54,5.4,4.69,8.75,5.95,3.3,1.32,7,1.7,10.44,1.01,3.43-.69,6.67-2.41,8.83-5.02-2.66,2.08-5.84,3.24-9.05,3.46-3.21.27-6.39-.4-9.24-1.75Z"/>
      <path class="cls-1" d="M250.11,22.53c-1.43.63-3.04.51-4.32-.2-1.31-.69-2.1-1.89-2.28-3.31-.23-1.41,0-3,.2-4.69.18-1.67.44-3.56-.25-5.56-.32-.98-.91-1.95-1.71-2.68-.79-.74-1.73-1.26-2.7-1.59-.98-.33-2-.46-3.01-.42-1.03.03-2.04.27-2.94.62-1.85.7-3.4,1.85-4.7,3.12-2.59,2.62-4.23,5.6-6.33,7.92-2.08,2.38-4.64,4.34-7.49,5.7-2.85,1.35-6.03,2.03-9.24,1.75-3.21-.22-6.4-1.38-9.05-3.46,2.17,2.61,5.4,4.34,8.83,5.02,3.44.69,7.14.31,10.44-1.01,3.34-1.26,6.28-3.4,8.74-5.95,2.47-2.61,4.14-5.58,6.35-7.69,1.08-1.07,2.28-1.97,3.58-2.48.66-.26,1.3-.42,1.95-.45.66-.05,1.33.06,1.95.22,1.26.38,2.24,1.13,2.68,2.34.24.59.36,1.27.4,2.02.06.75.03,1.54,0,2.37-.03.83-.09,1.68-.08,2.58,0,.89.06,1.82.32,2.76.25.93.66,1.85,1.32,2.62.65.76,1.48,1.33,2.37,1.68,1.77.7,3.86.55,5.39-.45,1.54-.96,2.57-2.55,2.85-4.22-.61,1.57-1.84,2.82-3.27,3.43Z"/>
      <path class="cls-1" d="M196.18,16.48c2.69,0,4.88-2.18,4.88-4.88,0-.31-.03-.62-.09-.91-.03-.15-.06-.29-.1-.44-.05-.17-.1-.33-.17-.49L196.18.11l-4.52,9.65c-.06.16-.12.32-.17.49-.04.14-.08.29-.1.44-.06.3-.09.6-.09.91,0,2.69,2.18,4.88,4.88,4.88Z"/>
      <path class="cls-1" d="M392.52,0c-6.28,4.71-13.19,8.4-20.48,10.87-3.43-1.34-6.98-2.38-10.6-3.09-2.94-.57-5.93-.95-8.93-1.1-3.03-.12-5.92-.08-8.86-.1-5.86-.04-11.73.02-17.59.03-11.73.05-23.46.2-35.19.43-11.73.26-23.46.57-35.19,1.14,11.73.57,23.46.88,35.19,1.14,11.73.23,23.46.38,35.19.43,5.86,0,11.73.07,17.59.03,2.92,0,5.9-.05,8.73.02,2.86.14,5.72.37,8.55.83,2.36.38,4.7.89,7,1.51-1.71.46-3.44.87-5.19,1.19-2.66.54-5.37.84-8.07,1.02-2.7.23-5.4.16-8.2.17-5.55-.04-11.1,0-16.65.01-5.55,0-11.1.06-16.65.14-5.55.05-11.1.17-16.65.28-11.1.26-22.2.57-33.3,1.15,11.1.58,22.2.9,33.3,1.15,5.55.11,11.1.23,16.65.28,5.55.07,11.1.13,16.65.14,5.55.02,11.1.05,16.65.01,2.75-.02,5.61.01,8.44-.26,2.83-.27,5.64-.7,8.4-1.35,2.97-.68,5.88-1.59,8.71-2.7,7.29,2.47,14.22,6.16,20.49,10.89-4.98-5.07-10.97-9.17-17.53-12.13,6.55-2.97,12.55-7.06,17.53-12.12Z"/>
      <path class="cls-1" d="M40.13,9.78c2.83-.07,5.81-.02,8.73-.02,5.86.04,11.73-.02,17.59-.03,11.73-.04,23.46-.2,35.19-.43,11.73-.26,23.46-.57,35.19-1.14-11.73-.57-23.46-.88-35.19-1.14-11.73-.23-23.46-.38-35.19-.43-5.86,0-11.73-.07-17.59-.03-2.94.02-5.83-.02-8.86.1-3,.15-5.98.54-8.93,1.1-3.62.71-7.17,1.75-10.6,3.09C13.19,8.4,6.28,4.71,0,0c4.98,5.06,10.98,9.16,17.53,12.12-6.55,2.97-12.55,7.07-17.53,12.13,6.27-4.73,13.2-8.42,20.49-10.89,2.83,1.11,5.74,2.02,8.71,2.7,2.76.65,5.57,1.07,8.4,1.35,2.83.27,5.7.24,8.44.26,5.55.04,11.1,0,16.65-.01,5.55,0,11.1-.06,16.65-.14,5.55-.05,11.1-.17,16.65-.28,11.1-.26,22.2-.57,33.3-1.15-11.1-.58-22.2-.9-33.3-1.15-5.55-.11-11.1-.23-16.65-.28-5.55-.07-11.1-.13-16.65-.14-5.55-.02-11.1-.05-16.65-.01-2.8,0-5.5.06-8.2-.17-2.7-.19-5.4-.49-8.07-1.02-1.75-.33-3.48-.73-5.19-1.19,2.31-.63,4.64-1.14,7-1.51,2.83-.46,5.69-.68,8.55-.83Z"/>
    </g>
  </g>
</svg>