<?xml version="1.0" encoding="UTF-8"?>
<svg id="Layer_2" data-name="Layer 2" xmlns="http://www.w3.org/2000/svg" viewBox="0 0 194.54 39.82">
  <g id="OBJECTS">
    <path d="M193.56,37.86c-.54,0-2.53.43-2.57.97l-28.3-.24-30.04-.15c-.8-.1-1.58-.29-2.31-.59-.73-.32-1.41-.75-2.02-1.27-.4-.35-.75-.75-1.08-1.17.3-.75.5-1.55.55-2.36.06-.91-.1-1.81-.33-2.65-.24-.85-.58-1.66-.99-2.43-.15-.31-.5-.99-1.2-1.09-.69-.11-1.27.34-1.51.85-.13.25-.2.54-.2.81-.01.14.02.27.03.4l.07.32c.09.42.17.84.29,1.26.21.84.49,1.66.82,2.46.37.87.84,1.72,1.4,2.5-.65,1.34-1.79,2.48-3.18,2.79-1.47.35-2.99-.38-4.14-1.47-1.17-1.09-2.14-2.48-3.08-3.85-.65-.97-1.25-1.98-1.81-3,0-.08.02-.15.02-.23.07-1.73,0-3.43-.22-5.14-.21-1.7-.57-3.38-1.05-5.02-.24-.82-.53-1.63-.83-2.43-.16-.4-.32-.8-.49-1.19l-.13-.3c-.07-.13-.14-.27-.25-.39-.2-.24-.5-.43-.81-.5-.62-.13-1.28.1-1.66.63-.19.27-.28.6-.27.91v.23s.04.16.04.16l.05.32c.13.84.3,1.68.49,2.51.37,1.67.86,3.31,1.44,4.91.73,2,1.62,3.94,2.65,5.81-.14,1.43-.48,2.82-1.18,4.06-.39.68-.9,1.29-1.53,1.69-.62.41-1.37.59-2.12.54-.76-.03-1.51-.27-2.17-.67-.33-.2-.65-.43-.93-.7l-.89-.87c-1.01-.99-1.95-2.05-2.84-3.14-.37-1.04-.61-2.13-.81-3.21-.29-1.66-.51-3.34-.77-5.01-.06-.4-.11-.81-.17-1.21,2-4.76,3.13-9.89,3.28-15.05.06-1.7-.02-3.41-.18-5.11-.02-.2-.01-.43-.12-.7-.1-.26-.28-.48-.51-.63-.46-.29-1.08-.28-1.53.05-.22.16-.38.4-.47.63l-.22.61c-.15.4-.29.81-.4,1.22-.99,3.29-1.17,6.74-1.04,10.13.1,2.56.41,5.09.79,7.61-.6,1.49-1.3,2.95-2.07,4.36-.69-1.28-1.31-2.6-1.86-3.95.41-2.69.72-5.4.81-8.13.09-3.38-.17-6.81-1.2-10.08l-.43-1.21c-.06-.18-.17-.46-.36-.65-.19-.2-.44-.33-.7-.38-.52-.1-1.11.12-1.4.61-.14.22-.2.54-.2.73l-.05.64c-.07.85-.15,1.69-.14,2.54-.03.85-.03,1.7.02,2.55.2,5.01,1.31,9.99,3.26,14.62-.03.22-.06.45-.09.67-.25,1.67-.48,3.34-.78,4.99-.18.93-.4,1.87-.7,2.77-.87,1.09-1.79,2.14-2.78,3.12-.61.57-1.17,1.22-1.81,1.64-.65.43-1.38.72-2.14.8-.76.09-1.52-.03-2.17-.39-.66-.35-1.2-.93-1.61-1.59-.78-1.26-1.17-2.77-1.32-4.28,1.06-1.92,1.98-3.92,2.72-5.99.58-1.61,1.06-3.26,1.42-4.94.18-.84.34-1.68.47-2.53.02-.12.04-.19.05-.34.02-.15.01-.31-.02-.47-.06-.32-.23-.62-.46-.83-.47-.43-1.16-.55-1.76-.28-.3.13-.54.38-.68.65-.14.27-.19.41-.28.63-.17.39-.33.8-.48,1.2-.3.8-.57,1.62-.82,2.45-.47,1.65-.82,3.34-1.02,5.05-.19,1.7-.27,3.39-.17,5.12-.54.98-1.11,1.94-1.73,2.87-.94,1.37-1.91,2.77-3.07,3.89-1.14,1.11-2.65,1.88-4.13,1.57-1.43-.28-2.61-1.45-3.27-2.82.57-.79,1.04-1.65,1.41-2.53.32-.81.61-1.63.82-2.47.12-.42.2-.84.29-1.26.11-.39.16-1.07-.15-1.55-.26-.49-.87-.93-1.57-.76-.33.08-.59.29-.77.51-.18.25-.26.42-.37.62-.41.77-.75,1.59-.98,2.45-.23.85-.37,1.75-.3,2.67.06.78.25,1.55.54,2.28-.33.41-.68.81-1.07,1.16-.61.52-1.29.95-2.03,1.27-.74.31-1.52.49-2.32.59l-30.04.15-28.03.24c-.13-.52-2.03-.93-2.55-.93s-.98.44-.98.98.44.98.98.98,2.57-.44,2.57-.98c0,0,0-.01,0-.02l28.01.24,30.08.15h.02s.02,0,.02,0c.88-.1,1.75-.3,2.58-.63.82-.35,1.59-.82,2.27-1.39.33-.29.64-.59.93-.92.79,1.39,2.06,2.59,3.73,2.94.93.19,1.92.06,2.77-.3.86-.35,1.6-.91,2.24-1.51,1.28-1.24,2.26-2.64,3.23-4.05.39-.58.76-1.18,1.12-1.78.24,1.19.63,2.35,1.29,3.42.48.76,1.14,1.47,1.98,1.92.84.46,1.83.6,2.74.49.92-.1,1.81-.45,2.56-.96.78-.52,1.32-1.18,1.95-1.76,2.3-2.3,4.29-4.9,5.95-7.7.05.09.09.18.15.27,1.73,2.94,3.84,5.66,6.27,8.05l.91.9c.33.31.7.58,1.09.82.78.47,1.69.77,2.61.81.92.06,1.9-.17,2.69-.68.8-.51,1.4-1.24,1.85-2.01.56-.99.91-2.06,1.12-3.15.39.64.78,1.28,1.2,1.9.98,1.4,1.95,2.8,3.25,4.01.65.59,1.4,1.14,2.27,1.47.86.33,1.84.45,2.77.23,1.62-.38,2.85-1.56,3.61-2.91.29.33.61.64.94.93.68.57,1.45,1.04,2.26,1.38.83.33,1.69.52,2.57.63h.02s.02,0,.02,0l30.08-.15,28.3-.24c.04.54,2.03.97,2.57.97s.98-.44.98-.98-.44-.98-.98-.98ZM67.44,32.67c-.06-.77.06-1.57.26-2.35.21-.78.52-1.53.9-2.26.2-.41.35-.63.53-.66.16-.05.4.07.53.31.07.12.11.26.11.4.02.14-.02.29-.06.51-.08.41-.16.81-.27,1.21-.19.81-.47,1.58-.77,2.35-.27.64-.6,1.26-.96,1.85-.13-.45-.24-.91-.27-1.37ZM81.47,24.55c.2-1.65.54-3.29,1-4.88.24-.8.5-1.59.8-2.36.15-.39.3-.78.47-1.15.08-.17.18-.43.24-.53.06-.11.13-.18.22-.21.17-.08.45-.05.6.1.08.07.12.16.14.25.03.09,0,.21-.04.45-.13.82-.29,1.64-.47,2.46-.37,1.63-.83,3.24-1.38,4.81-.51,1.45-1.11,2.86-1.78,4.24.01-1.06.08-2.12.21-3.17ZM98.67,12.83c-.07-3.36.21-6.76,1.2-9.96.11-.4.26-.79.4-1.19l.22-.59c.07-.16.15-.28.28-.37.24-.18.61-.18.86-.02.27.19.33.41.34.89.14,1.67.2,3.35.12,5.03-.18,4.58-1.16,9.12-2.84,13.39-.31-2.39-.54-4.78-.59-7.18ZM92.17,7.45c-.06-.83-.06-1.67-.04-2.51-.01-.84.05-1.67.11-2.5.05-.4.01-.89.16-1.11.14-.25.47-.39.78-.34.32.07.51.26.63.66l.43,1.17c1.03,3.17,1.38,6.54,1.35,9.9-.04,2.58-.27,5.15-.6,7.72-1.63-4.14-2.59-8.54-2.82-12.99ZM96.51,25.74c-.97,1.64-2.06,3.21-3.25,4.7.3-.87.52-1.76.71-2.66.34-1.65.59-3.32.88-4.98.02-.12.04-.23.05-.35.48,1.12,1.03,2.2,1.61,3.27,0,0,0,0,0,.01ZM97.52,25.72c.66-1.2,1.27-2.44,1.81-3.7.05.3.09.61.14.91.3,1.67.53,3.34.86,5,.22,1.05.47,2.11.84,3.12-1.19-1.47-2.28-3.01-3.25-4.63-.14-.23-.26-.48-.4-.71ZM109.86,19.26c-.19-.81-.35-1.63-.48-2.45l-.05-.31-.03-.15v-.09c0-.11.02-.2.07-.29.11-.16.37-.26.57-.21.1.02.18.08.25.15.04.03.06.09.09.14l.12.28c.17.38.33.76.48,1.15.3.77.58,1.55.81,2.35.48,1.59.83,3.21,1.04,4.86.13,1.13.23,2.28.25,3.43-.65-1.33-1.23-2.69-1.73-4.08-.56-1.57-1.02-3.17-1.4-4.79ZM124.82,30.28c-.11-.4-.19-.8-.27-1.21l-.06-.3c0-.08-.03-.15-.01-.23,0-.15.04-.29.1-.41.12-.25.37-.38.53-.35.18.03.32.19.52.61.38.72.7,1.47.91,2.24.21.77.34,1.57.29,2.34-.03.49-.14.97-.28,1.44-.36-.58-.68-1.18-.95-1.82-.3-.76-.57-1.54-.77-2.34Z"/>
  </g>
</svg>