<?xml version="1.0" encoding="UTF-8"?>
<svg id="Layer_2" data-name="Layer 2" xmlns="http://www.w3.org/2000/svg" viewBox="0 0 182.76 24.37">
  <g id="OBJECTS">
    <g>
      <path d="M78.63,9.49c-1.94-1.29-4.11-2.16-6.37-2.66-2.27-.49-4.54-.63-6.83-.7-4.57-.09-9.11.5-13.56,1.34-8.89,1.72-17.53,4.49-26.48,5.16-2.23.17-4.47.22-6.71.13-2.23-.13-4.46-.39-6.65-.86-2.18-.49-4.32-1.17-6.37-2.1-2.02-.98-3.92-2.19-5.67-3.62,1.66,1.53,3.52,2.84,5.53,3.9,2.03,1.02,4.17,1.8,6.37,2.39,2.21.54,4.47.85,6.74,1.04,2.27.15,4.54.15,6.81.03,4.54-.23,9.03-1.07,13.44-2.04,4.42-.96,8.79-2.03,13.21-2.86,4.4-.86,8.85-1.48,13.32-1.42,2.22.04,4.48.17,6.62.62,2.14.47,4.23,1.26,6.09,2.42,1.82,1.17,3.47,2.78,4.12,4.83.33,1.01.45,2.11.27,3.17-.17,1.06-.62,2.07-1.27,2.94-1.26,1.76-3.39,2.93-5.61,2.83-2.2-.07-4.4-1.17-5.7-3.03,1.18,1.94,3.38,3.2,5.68,3.35,2.32.2,4.67-.94,6.1-2.79.73-.92,1.24-2.01,1.46-3.18.23-1.17.13-2.38-.21-3.51-.67-2.31-2.43-4.09-4.33-5.38Z"/>
      <path d="M85.39,7.75c-1.73-2.17-4.09-3.76-6.6-4.86-2.52-1.1-5.22-1.73-7.95-1.95-5.47-.37-10.84.63-16.08,1.71-2.62.55-5.24,1.08-7.88,1.45-2.64.41-5.3.6-7.99.51,2.66.36,5.37.29,8.05.07,2.68-.25,5.34-.69,7.98-1.13,5.27-.88,10.56-1.87,15.82-1.41,2.61.19,5.21.75,7.61,1.76,2.41,1,4.59,2.51,6.32,4.45,1.71,1.94,2.81,4.43,3.15,7.03.38,2.59-.09,5.35-1.57,7.6,1.71-2.1,2.36-4.95,2.16-7.66-.23-2.73-1.28-5.4-3.03-7.56Z"/>
      <path d="M177.08,9.79c-2.04.93-4.18,1.61-6.37,2.1-2.19.47-4.41.73-6.65.86-2.24.09-4.48.04-6.71-.13-8.95-.67-17.59-3.43-26.48-5.16-4.45-.83-8.99-1.43-13.56-1.34-2.29.06-4.55.21-6.83.7-2.26.5-4.43,1.38-6.37,2.66-1.9,1.29-3.66,3.07-4.33,5.38-.34,1.13-.43,2.35-.21,3.51.22,1.16.73,2.26,1.46,3.18,1.43,1.85,3.78,2.99,6.1,2.79,2.3-.16,4.5-1.42,5.68-3.35-1.29,1.86-3.5,2.96-5.7,3.03-2.22.1-4.35-1.06-5.61-2.83-.65-.87-1.09-1.89-1.27-2.94-.18-1.05-.06-2.16.27-3.17.65-2.06,2.3-3.66,4.12-4.83,1.85-1.16,3.94-1.95,6.09-2.42,2.14-.44,4.4-.58,6.62-.62,4.46-.05,8.91.57,13.32,1.42,4.41.82,8.79,1.9,13.21,2.86,4.41.97,8.9,1.8,13.44,2.04,2.27.11,4.55.11,6.81-.03,2.27-.19,4.52-.5,6.74-1.04,2.2-.58,4.34-1.36,6.37-2.39,2.01-1.06,3.87-2.37,5.53-3.9-1.75,1.43-3.65,2.64-5.67,3.62Z"/>
      <path d="M98.08,8.35c1.73-1.94,3.91-3.45,6.32-4.45,2.41-1.01,5-1.57,7.61-1.76,5.26-.46,10.55.53,15.82,1.41,2.64.44,5.3.87,7.98,1.13,2.68.21,5.39.29,8.05-.07-2.68.09-5.35-.1-7.99-.51-2.64-.37-5.26-.9-7.88-1.45-5.23-1.07-10.61-2.08-16.08-1.71-2.73.23-5.43.85-7.95,1.95-2.51,1.1-4.87,2.69-6.6,4.86-1.74,2.16-2.79,4.83-3.03,7.56-.2,2.72.45,5.56,2.16,7.66-1.48-2.25-1.95-5.01-1.57-7.6.34-2.6,1.44-5.09,3.15-7.03Z"/>
      <path d="M102.15,0c-1.97.73-3.8,1.91-5.32,3.41-1.54,1.49-2.79,3.28-3.72,5.21-.63,1.34-1.1,2.76-1.4,4.21-.3-1.45-.77-2.87-1.4-4.21-.93-1.93-2.18-3.72-3.72-5.21-1.52-1.5-3.35-2.69-5.32-3.41,3.51,2.3,6.22,5.47,7.96,9.14,1.75,3.66,2.5,7.77,2.08,11.94.16-.48.29-.96.41-1.45.11.49.24.98.41,1.45-.43-4.17.32-8.28,2.08-11.94,1.74-3.66,4.45-6.84,7.96-9.14Z"/>
    </g>
  </g>
</svg>