<?xml version="1.0" encoding="UTF-8"?>
<svg id="Layer_2" data-name="Layer 2" xmlns="http://www.w3.org/2000/svg" viewBox="0 0 181.95 33.03">
  <g id="OBJECTS">
    <path d="M170.03,14.13c-.47-1.12-1.38-2.07-2.51-2.56-1.14-.52-2.51-.32-3.55.33-1.06.65-1.83,1.7-2.27,2.85-.43,1.16-.55,2.44-.28,3.66.3,1.22.94,2.32,1.8,3.23,1.72,1.81,4.12,2.86,6.57,3.16,2.45.31,5.03-.1,7.21-1.34,2.18-1.25,3.81-3.41,4.47-5.83.72-2.41.61-5-.1-7.39-.38-1.19-.92-2.33-1.61-3.38-.7-1.05-1.58-1.95-2.53-2.76-3.87-3.22-9.06-4.41-13.97-4.06-4.96.37-9.64,2.15-14.01,4.29-8.65,4.43-17.34,8.67-26.01,13.01l-11.67,5.85c-2.36-1.23-4.74-2.44-7.18-3.52-2.23-.99-4.51-1.88-6.85-2.58-.54-.15-1.08-.3-1.63-.44-1.33-.59-2.82-.82-4.21-.82-.24,0-.48,0-.72.02-.24,0-.48-.02-.72-.02-1.39,0-2.88.23-4.21.82-.55.14-1.09.29-1.63.44-2.35.7-4.63,1.59-6.85,2.58-2.44,1.09-4.82,2.3-7.18,3.52l-11.67-5.85c-8.67-4.34-17.36-8.58-26.01-13.01C28.33,2.21,23.65.43,18.69.06c-4.91-.35-10.09.85-13.97,4.06-.95.81-1.83,1.7-2.53,2.76-.7,1.05-1.23,2.19-1.61,3.38-.7,2.39-.81,4.98-.1,7.39.65,2.42,2.29,4.57,4.47,5.83,2.18,1.24,4.76,1.65,7.21,1.34,2.45-.31,4.85-1.36,6.57-3.16.85-.9,1.5-2.01,1.8-3.23.28-1.22.16-2.5-.28-3.66-.44-1.15-1.21-2.2-2.27-2.85-1.05-.64-2.42-.85-3.55-.33-1.13.48-2.04,1.43-2.51,2.56-.51,1.1-.43,2.5.36,3.44-.78-.96-.82-2.34-.3-3.41.48-1.1,1.4-2.01,2.5-2.46,1.11-.48,2.4-.26,3.39.38,1,.64,1.72,1.66,2.12,2.77.39,1.12.48,2.34.2,3.49-.3,1.14-.93,2.18-1.76,3.02-1.66,1.69-3.99,2.65-6.33,2.9-2.35.24-4.8-.17-6.82-1.35-2.02-1.2-3.5-3.19-4.09-5.46-.65-2.26-.52-4.71.17-6.94.37-1.11.88-2.18,1.54-3.14.65-.96,1.5-1.81,2.4-2.56C8.96,1.81,13.92.73,18.62,1.08c4.75.37,9.31,2.11,13.61,4.23,8.59,4.44,17.31,8.72,25.95,13.09l10.92,5.47c-1.51.79-3.02,1.58-4.54,2.35-1.08.54-2.15,1.09-3.26,1.56-1.11.48-2.23.94-3.33,1.48-2.18,1-4.39,2-6.72,2.58-2.31.61-4.73.93-7.1.63-1.19-.13-2.35-.45-3.43-.96-1.07-.51-2.1-1.2-2.83-2.11v-.02s-.02,0-.02,0c-1.66-1.55-2.58-4.02-1.94-6.27.32-1.11,1.07-2.07,2.03-2.72.95-.65,2.17-.97,3.32-.73-1.15-.26-2.37.04-3.35.67-.98.64-1.77,1.6-2.12,2.74-.36,1.13-.31,2.37.04,3.49.35,1.13.99,2.17,1.84,3l-.02-.02c.77,1,1.8,1.71,2.9,2.26,1.1.55,2.3.9,3.52,1.06,2.44.35,4.92.07,7.29-.51,2.4-.54,4.65-1.52,6.87-2.52,1.08-.52,2.2-.96,3.32-1.43,1.13-.47,2.23-1.01,3.31-1.54,1.7-.84,3.39-1.71,5.08-2.57l1.21.61c4.32,2.17,8.77,4.38,13.69,5.24,2.01.33,4.08.38,6.11.08,2.03.3,4.11.26,6.11-.08,4.91-.86,9.36-3.07,13.69-5.24l1.21-.61c1.69.86,3.38,1.73,5.08,2.57,1.09.53,2.18,1.08,3.31,1.54,1.12.47,2.24.92,3.32,1.43,2.22,1,4.47,1.98,6.87,2.52,2.37.58,4.85.86,7.29.51,1.22-.16,2.41-.51,3.52-1.06,1.1-.55,2.13-1.26,2.9-2.26l-.02.02c.85-.83,1.49-1.87,1.84-3,.35-1.13.4-2.36.04-3.49-.36-1.13-1.14-2.1-2.12-2.74-.98-.64-2.21-.94-3.35-.67,1.15-.24,2.36.08,3.32.73.96.65,1.71,1.61,2.03,2.72.65,2.24-.28,4.72-1.94,6.27h0s-.01.02-.01.02c-.73.92-1.76,1.6-2.83,2.11-1.08.51-2.24.83-3.43.96-2.37.3-4.79-.02-7.1-.63-2.33-.58-4.54-1.57-6.72-2.58-1.1-.54-2.23-1-3.33-1.48-1.11-.47-2.17-1.02-3.26-1.56-1.52-.77-3.03-1.56-4.54-2.35l10.92-5.47c8.65-4.37,17.36-8.65,25.95-13.09,4.3-2.12,8.86-3.86,13.61-4.23,4.69-.35,9.66.73,13.33,3.73.9.75,1.74,1.59,2.4,2.56.66.96,1.17,2.03,1.54,3.14.68,2.24.82,4.69.17,6.94-.59,2.27-2.08,4.27-4.09,5.46-2.03,1.19-4.47,1.6-6.82,1.35-2.34-.25-4.67-1.21-6.33-2.9-.82-.84-1.46-1.88-1.76-3.02-.28-1.14-.19-2.37.2-3.49.4-1.11,1.12-2.13,2.12-2.77.99-.63,2.28-.86,3.39-.38,1.1.44,2.02,1.36,2.5,2.46.53,1.08.48,2.46-.3,3.41.8-.94.88-2.34.36-3.44ZM92.91,28.74l-.86.2c-.36.08-.72.13-1.08.18-.36-.06-.72-.1-1.08-.18l-.86-.2c-.28-.08-.56-.19-.83-.28-.55-.18-1.12-.38-1.65-.63-.53-.24-1.02-.51-1.42-.86-.39-.33-.7-.79-.97-1.29-1.05-1.96-1.23-4.57.03-6.36.58-.81,1.5-1.41,2.47-1.81,1.43-.33,2.87-.57,4.31-.62,1.44.06,2.88.29,4.31.62.97.4,1.88,1.01,2.47,1.81,1.26,1.79,1.08,4.41.03,6.36-.27.5-.58.96-.97,1.29-.4.35-.89.62-1.42.86-.53.25-1.1.45-1.65.63-.28.09-.55.2-.83.28ZM71.7,23.87l-.45-.22c2.2-1.11,4.4-2.19,6.65-3.16,1.9-.82,3.83-1.56,5.8-2.17-.12.13-.25.26-.36.41-.78,1.11-1.11,2.45-1.09,3.75.02,1.3.35,2.58.96,3.73.3.56.68,1.14,1.2,1.6.52.45,1.1.77,1.68,1.03.38.18.76.32,1.15.46-.74-.04-1.48-.11-2.21-.24-4.68-.83-9.04-3-13.34-5.18ZM110.24,23.87c-4.3,2.18-8.66,4.34-13.34,5.18-.73.12-1.47.2-2.21.24.39-.14.77-.28,1.15-.46.57-.26,1.16-.58,1.68-1.03.53-.46.91-1.03,1.2-1.6.61-1.15.94-2.43.96-3.73.02-1.3-.3-2.64-1.09-3.75-.11-.15-.24-.27-.36-.41,1.97.61,3.9,1.35,5.8,2.17,2.25.97,4.46,2.05,6.65,3.16l-.45.22Z"/>
  </g>
</svg>