<?xml version="1.0" encoding="UTF-8"?>
<svg id="Layer_2" data-name="Layer 2" xmlns="http://www.w3.org/2000/svg" viewBox="0 0 328.82 16.23">
  <g id="OBJECTS">
    <path d="M88.65,14.16c-.21-.09-.4-.2-.59-.31.45-.33.88-.69,1.26-1.11.47-.51.89-1.12,1.16-1.79.27-.67.44-1.43.29-2.23-.13-.79-.68-1.56-1.44-1.91-1.48-.7-3.32-.11-4.14,1.27-.79,1.35-.7,2.97-.07,4.27.23.49.55.91.91,1.31-.73.33-1.52.56-2.32.66-2.31.33-4.74-.44-6.28-2.15.85-.96,1.57-2.04,2.15-3.15.62-1.18,1.11-2.42,1.51-3.68.2-.65.35-1.33.36-2.07.01-.71-.16-1.56-.75-2.18-.55-.62-1.5-.9-2.27-.74-.79.13-1.43.52-1.99.97-.55.46-1.03,1.04-1.33,1.69-.34.62-.54,1.29-.7,1.96-.52,2.49.05,5.13,1.52,7.2-.69.67-1.45,1.25-2.3,1.71-2.14,1.14-4.81,1.47-7.06.59-.34-.14-.67-.31-.98-.51.79-.71,1.46-1.55,1.93-2.53.29-.63.51-1.35.45-2.13-.05-.76-.52-1.62-1.29-1.96-.74-.36-1.56-.33-2.27-.1-.71.22-1.38.69-1.79,1.38-.78,1.4-.4,3.04.34,4.21.26.43.6.8.96,1.14-.9.58-1.92.99-2.98,1.17-1.2.22-2.45.14-3.59-.25-1.14-.38-2.17-1.1-2.99-2-.25-.27-.47-.57-.67-.87.4-.38.78-.78,1.14-1.17.44-.49.87-.96,1.3-1.47.43-.52.81-1.08,1.14-1.67.32-.6.59-1.23.75-1.92.15-.68.18-1.45-.13-2.18-.34-.72-.98-1.24-1.74-1.45-.78-.21-1.58.03-2.2.38-1.23.77-2.09,1.98-2.4,3.37-.46,2.06-.04,4.21.98,6.02-1.3,1.17-2.75,2.14-4.41,2.55-1.19.29-2.46.32-3.6-.04-.58-.18-1.11-.46-1.57-.83,1.03-.76,1.92-1.69,2.51-2.89.28-.65.44-1.34.39-2.07-.02-.71-.38-1.56-1.15-1.92-.75-.38-1.61-.19-2.23.16-.63.37-1.14.94-1.44,1.6-.6,1.32-.48,2.84.11,4.1.15.32.34.63.56.92-1.93,1.11-4.3,1.49-6.44.87-1.37-.4-2.59-1.21-3.57-2.25.21-.21.42-.41.62-.63.89-.97,1.74-1.93,2.48-3.06.7-1.13,1.26-2.37,1.39-3.75.06-.68-.02-1.42-.36-2.07-.35-.64-.91-1.16-1.59-1.42-1.38-.51-2.93-.07-3.95.91-1.02.99-1.49,2.37-1.6,3.71-.11,1.35.13,2.72.64,3.96.35.85.84,1.65,1.43,2.37-1.5,1.37-3.22,2.49-5.18,2.96-1.21.3-2.49.37-3.71.12-1.08-.22-2.09-.72-2.9-1.46.75-.67,1.38-1.48,1.84-2.39.27-.6.53-1.23.62-1.9.14-.66.13-1.36-.06-2.03-.18-.66-.68-1.34-1.42-1.53-.75-.2-1.5.13-2.01.58-1.08.93-1.45,2.41-1.34,3.75.12,1.34.73,2.61,1.63,3.6-1.07.84-2.34,1.42-3.69,1.61-1.25.16-2.55,0-3.68-.56-1.13-.55-2.14-1.39-2.87-2.43-.12-.17-.23-.36-.34-.54.76-.66,1.48-1.36,2.12-2.14.8-1.01,1.6-2.08,1.94-3.36.16-.63.23-1.32-.03-1.96-.25-.63-.82-1.12-1.49-1.24-.68-.1-1.36.14-1.89.52-.55.38-1.01.86-1.35,1.43-.7,1.15-.79,2.54-.63,3.83.13,1.08.53,2.11,1.08,3.04-.15.13-.29.27-.44.4-2.02,1.61-4.4,2.77-6.92,3.36,2.52-.56,4.92-1.7,6.96-3.3.15-.12.29-.26.44-.39.11.18.21.35.32.52.75,1.08,1.78,1.96,2.97,2.55,1.19.6,2.56.78,3.87.63,1.44-.19,2.79-.8,3.93-1.69.89.86,2.04,1.44,3.23,1.68,1.32.28,2.69.21,3.98-.11,2.08-.5,3.9-1.67,5.45-3.09,1.06,1.13,2.39,2.02,3.9,2.47,2.42.71,5.06.25,7.2-1.02.06.06.11.13.18.19.55.45,1.18.77,1.84.98,1.33.42,2.74.39,4.06.07,1.81-.44,3.33-1.44,4.67-2.63.21.3.43.59.67.86.91,1.01,2.07,1.83,3.38,2.28,1.31.45,2.72.54,4.07.3,1.29-.22,2.53-.73,3.61-1.47.46.32.95.6,1.46.8,2.6,1.02,5.55.65,7.95-.62.92-.49,1.74-1.11,2.48-1.81,1.81,1.98,4.65,2.87,7.24,2.49,1.09-.13,2.16-.47,3.14-.99.38.27.78.51,1.2.68,2.58,1.09,5.63.74,7.95-.7.66-.39,1.27-.84,1.85-1.32.69.9,1.57,1.67,2.59,2.18,1.24.63,2.66.87,4.03.76,1.7-.15,3.33-.81,4.68-1.85.02.01.03.03.04.05.99.96,2.35,1.56,3.7,1.73,1.36.19,2.74.01,4.02-.4,2.03-.64,3.77-1.89,5.26-3.33.82,1.2,1.93,2.19,3.3,2.81,2.48,1.11,5.4,1.02,7.83-.16.06-.03.12-.07.19-.1.12.07.23.16.36.22,1.24.6,2.65.72,3.97.56,3.07-.46,5.9-1.85,8.23-3.85.35.57.77,1.11,1.27,1.58,1.92,1.87,4.77,2.51,7.34,2.05.99-.18,1.96-.54,2.83-1.05.25.15.51.28.78.4,1.22.48,2.55.56,3.83.44.48-.04.95-.12,1.42-.2.67-.11,1.33-.24,1.98-.43.14-.03.28-.07.41-.1-.1.02-.2.05-.3.07,1.32-.38,2.59-.93,3.73-1.73.26-.18.51-.38.76-.58,0,.01.01.03.02.04.72,1.1,1.67,2.07,2.83,2.71,1.16.64,2.5.97,3.83.85,1.33-.09,2.62-.54,3.72-1.27.21-.14.42-.29.62-.45.8.76,1.8,1.31,2.85,1.58,1.31.35,2.68.34,3.99.07,2.23-.45,4.18-1.67,5.82-3.17.98,1.05,2.19,1.88,3.56,2.35,2.49.85,5.29.45,7.52-.89.51.46,1.08.8,1.71,1.04,1.31.5,2.73.52,4.06.25,1.94-.39,3.58-1.45,5-2.7.15.21.3.43.47.63.87,1.05,2.01,1.89,3.29,2.4,1.29.5,2.7.63,4.06.45,1.39-.19,2.74-.72,3.9-1.52.38.27.79.51,1.21.69,2.57,1.12,5.53.82,7.97-.38,1.01-.51,1.91-1.17,2.71-1.94.81.87,1.81,1.57,2.92,2,1.31.48,2.72.67,4.09.52,1.17-.13,2.31-.47,3.36-1.02.32.23.66.43,1.01.6,2.56,1.16,5.62.89,7.97-.51.73-.41,1.39-.89,2.02-1.42.65.86,1.48,1.59,2.44,2.1,1.23.66,2.64.93,4.01.84,1.76-.12,3.45-.79,4.84-1.85.98.94,2.27,1.57,3.6,1.76,1.36.22,2.75.05,4.03-.34,2.09-.63,3.87-1.9,5.39-3.37.8,1.17,1.88,2.15,3.21,2.76,2.47,1.15,5.4,1.08,7.83-.07.09-.04.17-.1.26-.14.1.06.19.14.29.19,1.24.61,2.64.75,3.97.6,3.1-.44,5.96-1.85,8.3-3.85.35.56.76,1.09,1.24,1.55,1.91,1.88,4.77,2.54,7.34,2.08,1-.18,1.97-.54,2.85-1.05.25.15.51.28.78.39,1.22.48,2.55.56,3.84.44,1.29-.12,2.56-.42,3.81-.73-1.26.3-2.53.59-3.82.69-1.28.1-2.61.01-3.8-.47-.25-.11-.49-.24-.73-.38.23-.14.45-.28.66-.43,1.05-.78,1.94-1.85,2.32-3.13.19-.63.23-1.33,0-1.97-.21-.64-.73-1.18-1.37-1.39-1.3-.43-2.73.14-3.59,1.12-.92,1.02-.8,2.59-.2,3.72.43.81,1.09,1.48,1.86,1.98-.82.46-1.73.77-2.65.92-2.5.42-5.24-.24-7.03-2.05-.47-.46-.87-.99-1.2-1.55,1.53-1.37,2.83-3,3.8-4.8.32-.58.59-1.18.83-1.79.26-.6.45-1.27.52-1.94.07-.67.03-1.41-.37-2.05-.39-.64-1.15-1.01-1.88-.95-1.46.15-2.53,1.22-3.22,2.33-.7,1.14-1.11,2.44-1.24,3.75-.17,1.75.16,3.57.96,5.14-.36.31-.73.63-1.12.91-2.06,1.47-4.45,2.58-6.95,2.87-1.21.13-2.45,0-3.52-.52.84-.53,1.59-1.22,2.2-2.02.4-.55.73-1.19.84-1.92.11-.71-.1-1.54-.64-2.08-1.13-1.04-2.79-1.07-4.04-.36-.64.36-1.09,1.03-1.29,1.71-.21.69-.17,1.43,0,2.1.27.97.84,1.83,1.59,2.47-2.22,1.01-4.9,1.05-7.11,0-1.11-.53-2.08-1.34-2.8-2.35-.07-.09-.12-.19-.18-.29.18-.19.37-.39.55-.58.88-.97,1.69-2,2.49-3.02.79-1.01,1.66-2.07,2.09-3.42.43-1.34.19-3-1-4-.6-.49-1.43-.66-2.16-.5-.74.15-1.36.55-1.88,1.01-2.73,2.75-2.88,7.1-1.1,10.33-1.5,1.46-3.21,2.69-5.18,3.28-2.29.74-4.96.48-6.69-1.17.49-.46.94-.98,1.31-1.55.75-1.16,1.24-2.47,1.22-3.94-.02-.37-.12-.78-.34-1.14-.23-.35-.58-.65-1-.78-.85-.25-1.63.06-2.23.45-.61.41-1.12.98-1.38,1.71-.23.7-.29,1.42-.2,2.12.14,1.11.62,2.14,1.3,3-1.24.92-2.74,1.5-4.27,1.59-1.21.08-2.43-.16-3.48-.74-.85-.45-1.58-1.12-2.16-1.9,1.11-1.04,2.08-2.2,3-3.35.79-1.01,1.66-2.05,2.23-3.33.28-.63.5-1.33.52-2.08,0-.75-.27-1.59-.85-2.13-.55-.58-1.39-.86-2.14-.83-.76,0-1.46.26-2.09.59-.63.34-1.19.79-1.65,1.34-.24.28-.4.58-.6.87-.18.3-.31.62-.47.93-1,2.54-.65,5.43.68,7.73-.61.52-1.26.99-1.95,1.37-2.1,1.25-4.78,1.44-6.96.45-.15-.07-.28-.16-.42-.24.95-.69,1.79-1.56,2.32-2.68.3-.65.5-1.39.42-2.19-.07-.79-.51-1.61-1.24-2.04-1.44-.84-3.3-.38-4.23.94-.9,1.3-.86,2.94-.31,4.27.25.56.6,1.07,1.01,1.52-.8.36-1.66.58-2.52.68-1.2.14-2.42-.03-3.54-.44-.97-.38-1.83-.98-2.54-1.74.79-.9,1.47-1.89,2.03-2.93.63-1.17,1.15-2.4,1.55-3.67.21-.63.38-1.31.43-2.03.04-.71-.04-1.53-.54-2.21-.47-.68-1.36-1.08-2.17-1.01-.81.06-1.5.41-2.07.84-.58.43-1.06.99-1.43,1.63-.32.62-.6,1.27-.75,1.95-.63,2.55-.05,5.3,1.46,7.44-.75.73-1.58,1.35-2.51,1.82-2.18,1.09-4.85,1.34-7.07.38-.27-.12-.53-.25-.78-.4.72-.64,1.35-1.4,1.81-2.27.32-.61.57-1.3.6-2.07.03-.75-.29-1.63-1.01-2.11-.7-.47-1.54-.52-2.26-.35-.73.17-1.43.55-1.91,1.19-.95,1.34-.67,3.02.02,4.23.29.53.68.98,1.11,1.39-.98.62-2.09,1.05-3.24,1.21-1.21.17-2.45.05-3.58-.38-1.12-.44-2.14-1.18-2.92-2.12-.18-.21-.35-.43-.5-.66.32-.31.64-.63.93-.95.45-.48.88-.97,1.31-1.46.44-.5.85-1.05,1.19-1.64.34-.58.63-1.21.82-1.88.18-.67.3-1.41.07-2.16-.22-.76-.81-1.37-1.52-1.68-.74-.3-1.6-.21-2.25.12-1.32.66-2.21,1.85-2.63,3.22-.57,2.15-.16,4.43.91,6.32-1.38,1.24-2.93,2.25-4.71,2.61-1.2.25-2.47.22-3.59-.2-.48-.17-.9-.44-1.28-.75.93-.68,1.75-1.52,2.34-2.55.33-.63.53-1.31.56-2.03.02-.7-.15-1.54-.81-2.07-.65-.53-1.58-.52-2.24-.22-.69.29-1.23.82-1.61,1.44-.74,1.27-.7,2.81-.2,4.11.17.44.43.84.72,1.22-2.02,1.18-4.55,1.53-6.77.78-1.25-.42-2.37-1.18-3.27-2.14.12-.12.25-.24.37-.36.91-.95,1.75-1.93,2.53-3.02.74-1.1,1.34-2.33,1.56-3.68.1-.67.09-1.4-.16-2.08-.24-.69-.76-1.26-1.39-1.62-1.32-.7-2.92-.38-4.03.48-1.12.9-1.67,2.27-1.85,3.6-.16,1.35,0,2.73.47,3.99.36.98.89,1.9,1.55,2.71-1.58,1.45-3.43,2.61-5.52,3.04-1.23.26-2.51.26-3.71-.05-.96-.25-1.84-.72-2.55-1.38.65-.58,1.22-1.26,1.65-2.03.64-1.16,1.06-2.5.85-3.87-.11-.67-.43-1.39-1.1-1.77-.67-.38-1.52-.24-2.09.16-1.21.78-1.72,2.26-1.7,3.6.03,1.37.56,2.69,1.41,3.74.07.09.17.17.25.26-.18.14-.36.28-.55.41-1.05.7-2.28,1.14-3.53,1.24-2.55.26-5.03-1.22-6.39-3.36-.02-.03-.03-.05-.05-.08.67-.58,1.28-1.22,1.82-1.91.4-.51.78-1.04,1.13-1.58.37-.53.69-1.11.9-1.73.21-.62.34-1.29.22-1.95-.1-.67-.57-1.26-1.19-1.53-.63-.29-1.37-.14-1.95.17-.59.31-1.09.77-1.48,1.3-.39.53-.68,1.16-.79,1.81-.15.64-.16,1.31-.13,1.96.12,1.27.53,2.51,1.2,3.59-.25.21-.5.41-.76.59-1.32.96-2.84,1.57-4.42,1.96-.92.2-1.84.38-2.78.45-1.28.1-2.61.01-3.8-.47-.25-.11-.5-.24-.73-.38.23-.14.46-.29.68-.45,1.05-.78,1.93-1.85,2.3-3.13.19-.63.22-1.33,0-1.97-.21-.64-.74-1.17-1.38-1.38-1.3-.41-2.73.15-3.59,1.14-.44.5-.67,1.17-.66,1.83,0,.66.17,1.31.48,1.89.43.81,1.09,1.47,1.85,1.97-.82.45-1.71.76-2.63.92-2.5.42-5.23-.23-7.04-2.03-.48-.47-.89-1-1.22-1.57,1.54-1.38,2.85-3.03,3.83-4.85.31-.58.59-1.18.82-1.79.25-.6.45-1.27.51-1.95.06-.67,0-1.41-.41-2.04-.4-.63-1.18-.98-1.91-.9-1.45.18-2.51,1.25-3.19,2.37-.69,1.14-1.1,2.44-1.23,3.76-.16,1.74.17,3.55.97,5.11-2.28,1.96-5.05,3.34-8,3.76-1.23.14-2.5.02-3.59-.51.87-.55,1.63-1.26,2.25-2.1.39-.56.72-1.21.79-1.94.09-.71-.15-1.55-.73-2.05-.56-.51-1.29-.75-1.99-.77-.71-.02-1.43.13-2.05.52-.63.39-1.06,1.06-1.24,1.75-.18.7-.14,1.43.05,2.1.28.93.84,1.76,1.57,2.39-2.2,1-4.83,1.05-7.03.05-1.12-.52-2.09-1.32-2.83-2.31-.08-.12-.15-.24-.23-.36.21-.22.42-.45.63-.68.88-.98,1.68-2,2.48-3.02.79-1.01,1.66-2.09,2.05-3.45.39-1.35.1-3.01-1.14-3.96-.62-.45-1.46-.59-2.18-.4-.72.18-1.33.59-1.84,1.06-2.64,2.76-2.77,7.05-1.02,10.25-1.47,1.44-3.14,2.64-5.07,3.24-2.32.77-5.06.56-6.81-1.14.53-.5,1.01-1.06,1.41-1.68.72-1.18,1.21-2.48,1.12-3.98-.05-.75-.63-1.65-1.52-1.8-.85-.15-1.59.17-2.18.59-.59.43-1.08,1.03-1.3,1.78-.21.69-.24,1.42-.13,2.12.16,1.05.62,2.02,1.27,2.84-1.2.89-2.63,1.47-4.11,1.59-1.21.1-2.43-.12-3.49-.66-.9-.46-1.67-1.15-2.29-1.97,1.15-1.08,2.16-2.29,3.12-3.49.79-1,1.66-2.07,2.19-3.36.26-.64.47-1.34.43-2.12-.02-.77-.4-1.55-.99-2.07-.6-.54-1.45-.73-2.19-.67-.75.07-1.44.32-2.05.67-.61.36-1.16.83-1.6,1.4-.19.29-.39.58-.57.88-.14.32-.32.62-.43.95-.92,2.49-.56,5.3.74,7.56-.57.48-1.16.91-1.79,1.28-2.08,1.29-4.74,1.54-6.95.61ZM6.53,8.97c-.16-1.24-.08-2.6.56-3.69.32-.54.76-1.02,1.28-1.38.51-.36,1.14-.59,1.75-.5.61.1,1.14.55,1.37,1.12.24.58.19,1.25.04,1.86-.31,1.25-1.09,2.32-1.88,3.33-.62.78-1.33,1.48-2.07,2.14-.53-.88-.91-1.86-1.04-2.88ZM17.12,10.19c-.12-1.2.21-2.52,1.12-3.31.44-.39,1.03-.63,1.56-.49.54.13.93.61,1.09,1.19.35,1.16,0,2.47-.5,3.59-.43.87-1.03,1.65-1.75,2.3-.83-.9-1.41-2.06-1.53-3.28ZM29.38,5.87c.1-1.22.53-2.44,1.38-3.27.82-.81,2.16-1.18,3.22-.77.52.2.97.61,1.24,1.1.27.5.35,1.1.3,1.7-.11,1.21-.63,2.39-1.28,3.45-.68,1.04-1.54,2.03-2.39,2.97-.19.2-.38.39-.57.59-.53-.65-.97-1.37-1.29-2.14-.47-1.15-.69-2.4-.6-3.63ZM41.77,8.82c.23-.52.63-.96,1.11-1.24.48-.28,1.05-.38,1.48-.15.44.2.68.7.71,1.26.04.56-.09,1.16-.32,1.7-.5,1.03-1.36,1.96-2.34,2.65-.21-.25-.39-.52-.52-.82-.51-1.06-.6-2.37-.12-3.41ZM52.45,6.12c.23-1.13,1-2.19,1.96-2.79.49-.28,1.03-.42,1.52-.29.48.13.94.49,1.15.94.41.97,0,2.25-.58,3.31-.57,1.09-1.44,2.01-2.3,2.97-.31.34-.63.67-.96,1-.84-1.57-1.18-3.42-.79-5.15ZM63.85,12.29c-.63-.97-.85-2.24-.34-3.15.48-.86,1.86-1.31,2.73-.89.43.19.68.63.73,1.14.05.51-.11,1.09-.36,1.62-.43.91-1.07,1.69-1.84,2.35-.36-.31-.68-.66-.93-1.07ZM75.53,5.21c.14-.58.31-1.16.6-1.68.24-.53.61-.96,1.04-1.34.86-.75,2.08-1.06,2.71-.33.65.68.5,2.02.15,3.15-.38,1.21-.84,2.38-1.42,3.5-.52,1-1.15,1.95-1.87,2.8-1.18-1.76-1.64-4.02-1.21-6.09ZM86.15,11.86c-.5-1-.52-2.28.03-3.18.49-.89,1.77-1.25,2.64-.82.42.2.71.6.79,1.08.09.48-.02,1.04-.23,1.56-.44,1.04-1.31,1.95-2.31,2.6,0,0,0,0-.01,0-.37-.36-.69-.78-.91-1.25ZM318.38,12.19c-.58-1.11-.67-2.61.21-3.57.83-.93,2.23-1.45,3.42-1.04.59.2,1.06.69,1.24,1.28.2.59.16,1.24-.02,1.85-.37,1.21-1.24,2.24-2.26,2.98-.24.18-.5.34-.76.48-.76-.5-1.42-1.17-1.84-1.98ZM308.13,6.14c.14-1.25.54-2.48,1.21-3.54.35-.52.72-1.02,1.22-1.39.48-.37,1.05-.65,1.62-.69.56-.04,1.12.25,1.41.72.3.48.34,1.11.27,1.71-.07.61-.24,1.2-.5,1.79-.23.59-.51,1.17-.82,1.72-.93,1.69-2.15,3.22-3.58,4.52-.72-1.49-1.01-3.2-.83-4.84ZM294.78,11.74c-.33-1.13,0-2.48.98-3.05.97-.57,2.41-.5,3.2.26.37.38.52.94.44,1.5-.08.56-.36,1.11-.71,1.6-.62.81-1.41,1.5-2.32,2-.76-.58-1.35-1.4-1.59-2.32ZM284.49,4.97c.33-1.18.89-2.34,1.77-3.14.44-.39.96-.71,1.5-.81.53-.11,1.09,0,1.5.35.83.69,1.09,2.04.72,3.13-.36,1.14-1.16,2.14-1.96,3.15-.8,1.01-1.6,2.02-2.46,2.96-.12.13-.24.26-.36.38-.37-.74-.65-1.53-.81-2.34-.22-1.22-.19-2.49.11-3.68ZM271.19,8.74c.17-.49.57-.94,1.03-1.25.46-.3,1.03-.48,1.44-.33.4.13.68.55.69,1.09.01,1.13-.41,2.36-1.08,3.36-.33.5-.73.96-1.17,1.37-.58-.74-.97-1.62-1.08-2.53-.07-.58-.01-1.18.16-1.71ZM260.43,4.92c.47-1.11,1.2-2.08,2.26-2.62,1.01-.55,2.3-.69,2.99.06.37.36.53.85.54,1.38-.02.54-.18,1.11-.43,1.66-.5,1.11-1.3,2.07-2.1,3.09-.86,1.08-1.77,2.14-2.75,3.08-1.09-2.03-1.35-4.54-.49-6.66ZM249.04,8.54c.54-.84,1.88-1.12,2.68-.62.83.48.86,1.72.36,2.74-.46.98-1.32,1.82-2.27,2.44,0,0,0,0,0,0-.41-.41-.73-.89-.96-1.41-.44-1.03-.42-2.31.2-3.16ZM238.36,5c.12-.59.37-1.14.64-1.67.27-.48.66-.93,1.11-1.27.45-.35.97-.59,1.46-.62.48-.04.91.17,1.2.55.56.77.35,2.1-.04,3.24-.38,1.21-.87,2.38-1.46,3.48-.49.92-1.08,1.79-1.75,2.58-1.22-1.82-1.69-4.17-1.16-6.29ZM226.5,12.09c-.58-.99-.7-2.29-.1-3.12.59-.81,2-1.16,2.78-.62.38.25.58.73.57,1.26-.01.53-.2,1.1-.48,1.63-.43.82-1.02,1.54-1.73,2.13-.42-.37-.78-.79-1.05-1.28ZM215.29,5.86c.32-1.1,1.12-2.15,2.13-2.65.5-.25,1.04-.28,1.51-.11.47.21.86.61,1,1.1.29,1.03-.2,2.29-.8,3.34-.31.54-.67,1.03-1.08,1.51-.42.49-.85.97-1.28,1.44-.25.27-.5.53-.76.78-.88-1.66-1.2-3.62-.73-5.41ZM204.67,8.57c.29-.48.72-.9,1.22-1.11.51-.22,1.05-.2,1.44.1.37.29.53.85.51,1.43-.02.58-.19,1.17-.46,1.68-.53.92-1.31,1.73-2.2,2.37-.26-.32-.5-.67-.65-1.07-.44-1.1-.45-2.41.13-3.4ZM192.63,9.18c-.44-1.16-.59-2.43-.44-3.65.16-1.21.67-2.41,1.59-3.15.91-.73,2.26-.97,3.27-.43.48.29.89.73,1.08,1.26.2.54.22,1.15.13,1.75-.19,1.21-.74,2.38-1.44,3.41-.72,1.02-1.57,2.02-2.45,2.94-.11.11-.22.22-.33.33-.6-.74-1.08-1.57-1.4-2.46ZM181.19,13.21c-.79-.95-1.28-2.16-1.31-3.38-.03-1.21.42-2.5,1.43-3.15.49-.33,1.09-.42,1.58-.16.48.26.77.83.87,1.42.21,1.2-.17,2.49-.77,3.58-.4.73-.94,1.38-1.56,1.95-.08-.08-.17-.16-.24-.25ZM169.25,8.57c-.08-1.25.08-2.6.84-3.62.37-.51.85-.95,1.4-1.25.54-.3,1.22-.43,1.78-.18.56.24,1,.78,1.1,1.4.12.62,0,1.27-.2,1.87-.21.61-.51,1.17-.87,1.71-.35.55-.72,1.07-1.11,1.58-.53.69-1.13,1.32-1.78,1.9-.64-1.03-1.05-2.2-1.17-3.41ZM155.62,12.2c-.58-1.1-.68-2.61.2-3.57.82-.93,2.22-1.46,3.41-1.06.59.2,1.06.68,1.25,1.27.2.59.17,1.24-.01,1.84-.36,1.21-1.22,2.24-2.24,2.99-.25.18-.51.35-.77.5-.76-.5-1.42-1.16-1.84-1.97ZM145.35,6.18c.14-1.25.53-2.48,1.19-3.55.64-1.05,1.65-1.98,2.82-2.11.56-.05,1.12.22,1.43.68.31.47.36,1.1.3,1.7-.06.61-.23,1.2-.49,1.79-.23.59-.5,1.17-.81,1.72-.93,1.7-2.16,3.26-3.61,4.57-.72-1.48-1-3.18-.84-4.81ZM132.02,11.81c-.16-.57-.19-1.18-.04-1.73.16-.56.47-1.04.95-1.34.95-.59,2.4-.56,3.2.18.41.36.56.91.5,1.47-.06.56-.33,1.11-.67,1.61-.63.84-1.44,1.55-2.37,2.07-.74-.56-1.31-1.37-1.57-2.25ZM123.42,1.91c.84-.84,2.12-1.26,3-.59.87.64,1.16,1.99.82,3.08-.33,1.15-1.12,2.15-1.91,3.16-.8,1.02-1.6,2.02-2.45,2.97-.14.16-.29.32-.44.47-.36-.71-.63-1.46-.79-2.24-.48-2.4.07-5.14,1.79-6.84ZM108.27,10.58c-.09-.58-.06-1.17.11-1.72.15-.5.51-.96.96-1.29.45-.33,1.01-.52,1.45-.43.43.08.72.48.78,1,.07.53-.09,1.15-.23,1.72-.19.57-.43,1.13-.76,1.64-.35.54-.77,1.04-1.25,1.48-.55-.71-.93-1.53-1.06-2.4ZM97.61,5.07c.1-.28.25-.54.38-.81.15-.26.33-.5.49-.75.35-.45.81-.83,1.31-1.13.99-.59,2.28-.78,3.03-.1.81.67.76,1.89.27,2.98-.46,1.12-1.24,2.09-2.05,3.1-.9,1.13-1.84,2.24-2.87,3.23-1.06-1.98-1.33-4.43-.54-6.51Z"/>
  </g>
</svg>