<?xml version="1.0" encoding="UTF-8"?>
<svg id="Layer_2" data-name="Layer 2" xmlns="http://www.w3.org/2000/svg" viewBox="0 0 185.26 13.74">
  <g id="OBJECTS">
    <path d="M185.03,7.01h-.01s0,0,.01,0c-1.24-.03-2.48-.07-3.73-.11l3.96-.05-8.43-.11c-.17,0-.35-.01-.52-.02l8.72-.18c-2.13-.37-3.97-1.68-5.68-3-1.71-1.32-3.46-2.72-5.54-3.3-2.08-.59-4.63-.13-5.84,1.66-1.04,1.54-.4,4.01,1.18,4.74l-6.53-.08-22.65-.17-45.3-.14-45.3.14-22.65.17-2.41.03c-1.36-.8-2.72-1.61-4.09-2.41-.79-.47-1.91-.9-2.53-.22-.41.45-.32,1.19.03,1.68.32.45.8.74,1.28,1.01l-3.22.04c-1.42-.84-2.85-1.68-4.27-2.52-.79-.47-1.91-.9-2.53-.22-.41.45-.32,1.19.03,1.68.35.49.9.8,1.43,1.1l.76.02-3.94.05c-1.49-.88-2.97-1.75-4.46-2.63-.79-.47-1.91-.9-2.53-.22-.41.45-.32,1.19.03,1.68.35.49.9.8,1.43,1.1l3.96.09-1.63.02,1.62.02-3.96.09c-.53.29-1.08.6-1.43,1.1-.35.49-.43,1.23-.03,1.68.62.68,1.73.25,2.53-.22,1.49-.88,2.97-1.75,4.46-2.63l3.94.05-.76.02c-.53.29-1.08.6-1.43,1.1-.35.49-.43,1.23-.03,1.68.62.68,1.73.25,2.53-.22,1.42-.84,2.85-1.68,4.27-2.52l3.22.04c-.48.27-.96.57-1.28,1.01-.35.49-.43,1.23-.03,1.68.62.68,1.73.25,2.53-.22,1.36-.8,2.72-1.61,4.09-2.41l2.41.03,22.65.17,45.3.14,45.3-.14,22.65-.17,5.95-.08c-.39.3-.71.7-.92,1.14-.38.81-.51,1.75-.27,2.62.23.89.88,1.6,1.61,2.09.75.47,1.62.73,2.49.8,1.76.16,3.49-.49,4.93-1.4,1.46-.91,2.74-2.05,4.11-3.05,1.35-1.01,2.83-1.92,4.51-2.25,0,0,0,0,0,0h0s0,0,0,0c0,0,0,0,0,0Z"/>
  </g>
</svg>