<?xml version="1.0" encoding="UTF-8"?>
<svg id="Layer_2" data-name="Layer 2" xmlns="http://www.w3.org/2000/svg" viewBox="0 0 361.43 51.85">
  <g id="OBJECTS">
    <path d="M28.3,10.87c-2.27-1.6-4.93-2.29-7.48-2.89l-.26-.06-.06.24c-.37,1.56-.39,3.17-.18,4.73.23,1.56.71,3.07,1.48,4.44-.74-1.38-1.21-2.9-1.34-4.46-.13-1.46.05-2.93.46-4.31,2.41.78,4.77,1.74,6.7,3.21,1.98,1.5,3.55,3.69,3.7,6.12.05,1.2-.17,2.47-.83,3.52-.31.49-.76,1.06-1.22,1.24-.51.21-1.16.06-1.75-.16-1.19-.47-2.28-1.25-3.26-2.11-1-.85-1.82-1.9-2.47-3.05.62,1.16,1.46,2.2,2.4,3.13.96.9,1.96,1.78,3.18,2.4.61.28,1.31.55,2.08.34.39-.09.7-.36.95-.58.26-.24.5-.5.71-.78.84-1.13,1.27-2.55,1.27-3.96,0-1.44-.48-2.83-1.22-4.02-.74-1.19-1.75-2.19-2.87-2.99Z"/>
    <path d="M30.21,21.77c-1-2.08-2.29-3.93-3.65-5.73-1.39-1.78-2.85-3.5-4.6-5,1,2.08,2.29,3.93,3.65,5.73,1.39,1.78,2.85,3.5,4.6,5Z"/>
    <path d="M84.34,29.36c-1.66-1.53-3.37-3-5.34-4.2,1.32,1.89,2.89,3.52,4.52,5.08,1.66,1.53,3.37,3,5.34,4.2-1.32-1.89-2.89-3.51-4.52-5.08Z"/>
    <path d="M26.62,24.21s.02-.03.02-.04c-.01,0-.02.02-.03.03-.19-.16-.4-.3-.63-.43-.72-.36-1.55-.37-2.27-.21-1.46.37-2.67,1.24-3.76,2.19-1.06.98-1.97,2.12-2.65,3.4.71-1.25,1.6-2.41,2.72-3.31,1.1-.9,2.39-1.65,3.76-1.88.68-.1,1.38-.02,1.93.32.16.1.31.22.45.35-1.77,1.65-3.32,3.48-4.79,5.36-1.58,2.07-3.1,4.2-4.33,6.55,1.97-1.77,3.66-3.77,5.28-5.82,1.45-1.89,2.83-3.84,3.99-5.95.28.29.53.62.74.97.7,1.16.76,2.55.39,3.81-.37,1.28-1.14,2.43-2.03,3.5-.88,1.06-1.91,2.01-3.05,2.81-2.17,1.55-4.74,2.61-7.45,2.91.18-1.6.35-3.19.69-4.76.35-1.68.9-3.33,1.71-4.85-.84,1.51-1.4,3.15-1.85,4.81-.44,1.67-.79,3.36-1.11,5.06l-.06.31h.33c2.93-.04,5.89-.89,8.38-2.54,1.24-.82,2.38-1.82,3.32-2.98.93-1.15,1.79-2.46,2.14-3.99.39-1.5.12-3.22-.79-4.48-.3-.41-.64-.8-1.04-1.13Z"/>
    <path d="M68.43,16.95c.71,0,.71-1.1,0-1.1s-.71,1.1,0,1.1Z"/>
    <path d="M65.59,11.35c.82,0,.82-1.27,0-1.27s-.82,1.27,0,1.27Z"/>
    <path d="M68.18,13.82s.04-.03.06-.04c.04-.02.07-.05.09-.09.02-.04.03-.08.03-.13,0-.05-.01-.09-.03-.13-.02-.04-.05-.07-.09-.09-.02-.01-.04-.03-.06-.04-.03-.02-.06-.03-.09-.04-.03,0-.05,0-.08-.01,0,0,0,0-.01,0-.01,0-.03,0-.04,0-.05,0-.11,0-.16.01-.04,0-.08,0-.11.03-.04.01-.07.03-.09.06-.03.03-.05.06-.06.1-.02.04-.03.07-.03.11v.08s.05.09.09.13c.02.02.04.03.06.05.05.03.1.04.15.04.05,0,.11,0,.16.01.01,0,.03,0,.04,0,.06,0,.13-.01.18-.05Z"/>
    <path d="M77.29,19.62c-.75,0-.75,1.16,0,1.16s.75-1.16,0-1.16Z"/>
    <path d="M85.83,1.2c.39,0,.39-.6,0-.6s-.39.6,0,.6Z"/>
    <path d="M86.78,4.33c.34,0,.34-.52,0-.52s-.34.52,0,.52Z"/>
    <path d="M84.88,3.1c.38,0,.38-.59,0-.59s-.38.59,0,.59Z"/>
    <path d="M88.99,1.38c-.61,0-.61.95,0,.95s.61-.95,0-.95Z"/>
    <path d="M44.6,44.96s0,0,0,0c-.01-.02-.02-.04-.03-.06-.02-.05-.03-.06-.09-.12-.04-.03-.08-.06-.12-.09-.07-.04-.14-.06-.21-.07-.08-.02-.15-.01-.23.01-.05.02-.09.04-.14.06-.07.04-.12.08-.16.15-.05.06-.08.12-.1.19,0,.05-.01.1-.02.15,0,.08.01.15.05.22.02.07.06.13.12.18.04.03.08.06.12.09.07.04.14.06.21.07.08.02.15.01.23-.01.05-.02.09-.04.14-.06.09-.05.15-.12.2-.21,0-.02.02-.04.03-.06.02-.03.04-.05.05-.08.02-.04.03-.09.03-.14v-.1c-.03-.05-.06-.09-.09-.13Z"/>
    <path d="M48.82,47.04c-.47,0-.47.73,0,.73s.47-.73,0-.73Z"/>
    <path d="M46.98,44.61c-.01-.05-.03-.1-.06-.15-.01-.02-.02-.04-.04-.06-.06-.1-.16-.16-.27-.16s-.21.06-.27.16c-.01.02-.02.04-.04.06-.03.05-.05.1-.06.15-.01.05-.03.1-.04.15-.02.08-.02.15,0,.23.02.07.06.14.11.19.03.02.06.04.09.07.07.04.14.06.22.06.06,0,.11-.01.16-.04.05-.02.1-.05.14-.09.11-.11.15-.27.11-.41-.01-.05-.03-.1-.04-.15Z"/>
    <path d="M50.72,44.66c-.27,0-.27.41,0,.41s.27-.41,0-.41Z"/>
    <path d="M51.04,37.72c-.66,0-.66,1.02,0,1.02s.66-1.02,0-1.02Z"/>
    <path d="M13.39,9.52c.5,0,.5-.78,0-.78s-.5.78,0,.78Z"/>
    <path d="M15.61,10.3c-.53,0-.53.82,0,.82s.53-.82,0-.82Z"/>
    <path d="M16.16,7.55s.03-.08.05-.11c0,0,0-.02,0-.02.01-.03.03-.06.04-.09.02-.06.02-.12,0-.18-.02-.06-.05-.11-.09-.15-.04-.04-.09-.07-.15-.09-.06-.02-.12-.02-.18,0-.03.01-.06.02-.09.04,0,0-.02,0-.02,0h-.02s-.06.03-.1.05c-.02.01-.03.02-.05.04-.01.01-.03.02-.04.03,0,0,0,0-.01,0,0,0-.01.01-.02.02-.06.05-.12.1-.18.14-.04.04-.07.09-.09.14-.03.05-.04.11-.04.17,0,.06.01.12.04.17.02.05.05.1.09.14.03.02.06.05.09.07.07.04.14.06.22.06.04,0,.08-.01.12-.02.07-.02.14-.06.19-.11l.14-.18s.07-.08.1-.12Z"/>
    <path d="M19.06,3.04c-.01-.06-.04-.12-.07-.18-.05-.09-.13-.17-.22-.22-.1-.06-.2-.08-.31-.08-.11,0-.21.03-.31.08-.09.05-.17.13-.22.22-.01.03-.02.05-.03.08-.02.02-.03.05-.03.08,0,0,0,0,0,.01v.03s-.01.04-.02.06c0,.04-.01.09-.02.13-.03.12-.03.23,0,.35.03.11.09.21.17.29.04.03.09.07.13.1.1.06.21.09.33.09.09,0,.18-.02.25-.06.08-.03.15-.07.21-.14.08-.08.14-.18.17-.29.03-.12.03-.23,0-.35,0-.04-.01-.09-.02-.13,0-.02,0-.04-.01-.06,0,0,0-.02,0-.03Z"/>
    <path d="M44.08,8.3c.57,0,.57-.88,0-.88s-.57.88,0,.88Z"/>
    <path d="M98.69,30.11c-.07-.07-.15-.12-.24-.15-.09-.05-.18-.07-.29-.06-.07,0-.13.02-.2.03-.13.04-.24.1-.33.19-.04.05-.08.1-.12.15-.07.12-.1.24-.1.38,0,.07.02.13.03.2.02.1.07.18.13.25.05.08.12.15.21.19.05.03.1.05.15.06.02,0,.03.03.05.03.06.03.11.04.18.04.04,0,.08-.01.12-.02.05-.01.09-.03.13-.06.04-.01.08-.03.12-.06.05-.04.1-.08.15-.12.07-.07.12-.15.15-.24.05-.09.07-.18.06-.29,0-.1-.02-.2-.06-.29-.03-.09-.08-.17-.15-.24Z"/>
    <path d="M98.48,34.82c-.02-.07-.05-.14-.09-.2-.02-.04-.05-.07-.09-.09-.04-.02-.09-.04-.13-.04-.05,0-.09.01-.13.04-.04.02-.07.05-.09.09-.03.07-.07.13-.09.2-.01.05-.03.1-.04.15-.04.12,0,.27.1.36.02.02.05.04.07.06.06.03.12.05.19.05.05,0,.1,0,.14-.03.05-.01.09-.04.12-.08.09-.09.13-.23.1-.36-.01-.05-.03-.1-.04-.15Z"/>
    <path d="M100.38,32.57c-.36,0-.36.56,0,.56s.36-.56,0-.56Z"/>
    <path d="M103.23,33.1c-.49,0-.49.76,0,.76s.49-.76,0-.76Z"/>
    <path d="M102.91,26.68c-.61,0-.62.96,0,.96s.62-.96,0-.96Z"/>
    <path d="M334.87,16.04c-1.36,1.8-2.65,3.65-3.65,5.73,1.75-1.5,3.21-3.22,4.6-5,1.36-1.8,2.65-3.65,3.65-5.73-1.75,1.5-3.21,3.22-4.6,5Z"/>
    <path d="M282.43,25.16c-1.97,1.2-3.69,2.67-5.34,4.2-1.63,1.56-3.2,3.19-4.52,5.08,1.97-1.2,3.68-2.67,5.34-4.2,1.63-1.56,3.2-3.18,4.52-5.08Z"/>
    <path d="M345.98,33.97c-.45-1.66-1.01-3.31-1.85-4.81.81,1.52,1.36,3.17,1.71,4.85.34,1.57.51,3.16.69,4.76-2.71-.3-5.28-1.35-7.45-2.91-1.14-.8-2.16-1.74-3.05-2.81-.88-1.07-1.66-2.21-2.03-3.5-.37-1.27-.31-2.66.39-3.81.21-.34.46-.68.74-.97,1.16,2.11,2.54,4.06,3.99,5.95,1.62,2.05,3.3,4.05,5.28,5.82-1.23-2.35-2.74-4.48-4.33-6.55-1.48-1.88-3.03-3.7-4.79-5.36.14-.13.29-.25.45-.35.55-.34,1.25-.41,1.93-.32,1.37.22,2.66.98,3.76,1.88,1.12.9,2.01,2.06,2.72,3.31-.68-1.27-1.58-2.42-2.65-3.4-1.08-.95-2.29-1.82-3.76-2.19-.72-.16-1.55-.16-2.27.21-.23.12-.44.27-.63.43-.01-.01-.02-.02-.03-.03,0,.01.02.03.02.04-.4.33-.74.72-1.04,1.13-.91,1.26-1.18,2.98-.79,4.48.34,1.53,1.2,2.84,2.14,3.99.94,1.16,2.08,2.16,3.32,2.98,2.48,1.66,5.45,2.5,8.38,2.54h.33s-.06-.3-.06-.3c-.32-1.69-.67-3.39-1.11-5.06Z"/>
    <path d="M360.97,16.88c-2.24-1.23-4.8-1.85-7.37-1.85-2.56.03-5.14.6-7.35,1.97-1.09.7-2.08,1.65-2.59,2.88-.46,1.11-.63,2.32-.43,3.49l-10.65-.1c.54-.01,1.03-.21,1.48-.41,1.22-.61,2.22-1.5,3.18-2.4.94-.92,1.78-1.96,2.4-3.13-.65,1.14-1.47,2.19-2.47,3.05-.99.86-2.07,1.64-3.26,2.11-.58.22-1.24.37-1.75.16-.47-.18-.91-.74-1.22-1.24-.65-1.04-.88-2.31-.83-3.52.15-2.43,1.72-4.62,3.7-6.12,1.94-1.47,4.3-2.43,6.7-3.21.41,1.38.59,2.85.46,4.31-.13,1.55-.59,3.08-1.34,4.46.77-1.37,1.25-2.88,1.48-4.44.22-1.56.2-3.17-.18-4.73l-.06-.24-.26.06c-2.55.6-5.21,1.29-7.48,2.89-1.12.8-2.13,1.79-2.87,2.99-.74,1.19-1.23,2.58-1.22,4.02,0,1.42.43,2.83,1.27,3.96.2.29.45.54.71.78.25.21.56.48.95.58.18.05.35.07.53.07l-22.07-.21c2.16-.72,4.16-2.01,5.72-3.73.47-.51.9-1.06,1.28-1.65,1.48-.07,2.83-.85,3.7-1.93.92-1.16,1.41-2.65,1.22-4.07-.1,2.53-2.08,4.74-4.34,5.05.2-.35.37-.72.51-1.12.25-.73.4-1.56.13-2.43-.14-.43-.38-.83-.75-1.15-.37-.32-.83-.49-1.28-.54-.91-.08-1.78.26-2.4.91-.65.68-.82,1.66-.64,2.48.18.83.65,1.56,1.3,2.07.41.33.89.52,1.37.63-.26.39-.52.77-.82,1.14-1.48,1.83-3.39,3.33-5.6,4.33l-5.56-.05c.97-.47,1.85-1.12,2.55-1.93-.74.83-1.67,1.5-2.7,1.93h-.36s-3.48-.02-3.48-.02c1.43-1.83,2.55-3.83,3.58-5.86,1.01-2.07,1.94-4.17,2.54-6.44-1.45,1.85-2.57,3.86-3.61,5.91-1,2.05-1.93,4.14-2.53,6.4h-.04c-.85-.75-1.45-1.78-1.74-2.86-.31-1.12-.14-2.33.25-3.43.39-1.11.99-2.15,1.68-3.13.68-.98,1.47-1.88,2.35-2.68,1.62-1.52,3.56-2.67,5.65-3.46.44,2.25.84,4.49.79,6.78-.05,2.44-.75,4.97-2.38,6.87,1.65-1.88,2.41-4.38,2.68-6.85.26-2.5-.03-5.02-.31-7.48l-.06-.49-.51.13c-2.48.61-4.79,1.89-6.68,3.62-1.86,1.76-3.38,3.92-4.08,6.43-.33,1.25-.41,2.62.04,3.87.38,1.03,1,1.96,1.82,2.68l-30.9-.17s.04-.02.06-.03c.07-.04.13-.1.2-.14,1.25-.41,2.45-.95,3.61-1.59,1.62-.89,3.12-2,4.48-3.24.58-.54,1.12-1.11,1.65-1.7.07.06.13.14.2.2.52.43,1.2.55,1.82.53.63-.02,1.25-.16,1.83-.35,1.18-.38,2.28-1.02,3.16-1.89-.9.85-2,1.49-3.19,1.82-.59.17-1.2.27-1.81.26-.6,0-1.21-.19-1.62-.59-.03-.03-.05-.07-.08-.1,1.6-1.72,2.88-3.62,4.08-5.57,1.18-1.98,2.28-4,3.07-6.21-1.6,1.72-2.88,3.63-4.09,5.59-.63,1.05-1.23,2.12-1.78,3.21-.06.08-.11.16-.16.24-.54.7-1.11,1.38-1.7,2.04-.48-.7-.8-1.5-.95-2.32-.21-1.15.06-2.34.53-3.4.49-1.07,1.17-2.06,1.93-2.98.76-.92,1.62-1.75,2.57-2.47,1.74-1.38,3.77-2.37,5.92-2.97.25,2.28.47,4.55.22,6.82-.25,2.43-1.16,4.89-2.95,6.65,1.8-1.73,2.77-4.16,3.25-6.6.47-2.47.39-5,.31-7.48v-.49s-.53.08-.53.08c-2.52.4-4.93,1.48-6.96,3.05-2,1.59-3.7,3.62-4.6,6.07-.43,1.22-.63,2.58-.28,3.86.25.91.67,1.76,1.26,2.47-.53.57-1.08,1.14-1.65,1.67-1.31,1.23-2.75,2.32-4.25,3.31-.77.5-1.57.96-2.38,1.39.11-.1.23-.2.33-.31.86-.9,1.52-1.98,1.88-3.17-.39,1.17-1.05,2.26-1.94,3.11-.2.19-.41.37-.62.54-.5.26-1.01.5-1.52.73h-1.15c.58-2.26.8-4.54.94-6.82.1-2.3.11-4.6-.25-6.92-.59,2.27-.81,4.56-.95,6.86-.1,2.28-.11,4.57.24,6.87h-.09c-1.06-.35-2-1.05-2.68-1.9-.73-.91-1.06-2.08-1.15-3.25-.08-1.17.05-2.37.29-3.54.24-1.17.59-2.31,1.09-3.4.87-2.04,2.2-3.87,3.8-5.43,1.3,1.88,2.57,3.78,3.44,5.89.94,2.26,1.3,4.86.56,7.25.76-2.38.46-4.98-.28-7.35-.76-2.39-2.04-4.59-3.28-6.73l-.25-.42-.42.32c-2.03,1.55-3.64,3.65-4.67,5.99-1.01,2.35-1.53,4.94-1.17,7.52.2,1.28.67,2.57,1.59,3.53.61.64,1.33,1.15,2.13,1.5l-2.92-.02-81.62-.18-81.62.19-4.19.02c.8-.35,1.54-.87,2.15-1.51.91-.97,1.38-2.26,1.59-3.53.36-2.58-.16-5.17-1.17-7.52-1.04-2.34-2.65-4.44-4.67-5.99l-.42-.32-.25.42c-1.24,2.14-2.52,4.34-3.28,6.73-.74,2.37-1.04,4.97-.28,7.35-.74-2.39-.37-4.99.56-7.25.86-2.11,2.14-4.01,3.44-5.89,1.6,1.55,2.92,3.39,3.8,5.43.49,1.09.85,2.23,1.09,3.4.24,1.17.37,2.37.29,3.54-.09,1.16-.42,2.34-1.15,3.25-.69.86-1.64,1.56-2.71,1.91h-.06c.35-2.31.34-4.6.24-6.88-.14-2.3-.36-4.59-.95-6.86-.36,2.32-.34,4.62-.25,6.92.13,2.28.36,4.56.94,6.82h-1.13c-.52-.23-1.03-.47-1.54-.73-.22-.17-.43-.35-.62-.54-.89-.85-1.55-1.94-1.94-3.11.36,1.19,1.02,2.27,1.88,3.17.1.11.22.21.33.31-.82-.43-1.61-.89-2.38-1.39-1.51-.99-2.94-2.08-4.25-3.31-.58-.53-1.12-1.09-1.65-1.67.59-.71,1.01-1.56,1.26-2.47.34-1.28.15-2.64-.28-3.86-.91-2.44-2.6-4.47-4.6-6.07-2.03-1.57-4.44-2.65-6.96-3.05l-.52-.08-.02.49c-.08,2.48-.15,5.01.31,7.48.47,2.44,1.44,4.87,3.25,6.6-1.78-1.75-2.7-4.21-2.95-6.64-.24-2.27-.03-4.54.22-6.82,2.15.61,4.18,1.59,5.92,2.97.95.72,1.81,1.56,2.57,2.47.76.92,1.45,1.91,1.93,2.98.47,1.07.74,2.26.53,3.4-.15.81-.47,1.62-.95,2.32-.59-.66-1.16-1.33-1.7-2.04-.06-.08-.11-.16-.16-.24-.55-1.1-1.15-2.16-1.78-3.21-1.21-1.96-2.5-3.87-4.09-5.59.79,2.21,1.89,4.23,3.07,6.21,1.21,1.95,2.49,3.86,4.08,5.57-.03.03-.05.07-.08.1-.42.4-1.02.58-1.62.59-.61,0-1.22-.1-1.81-.26-1.19-.32-2.29-.97-3.19-1.82.88.87,1.98,1.51,3.16,1.89.59.2,1.2.33,1.83.35.62.01,1.3-.1,1.82-.53.07-.06.13-.14.2-.2.52.59,1.07,1.16,1.65,1.7,1.36,1.25,2.86,2.36,4.48,3.24,1.15.64,2.36,1.18,3.61,1.59.07.04.13.1.2.14.03.01.05.03.08.04l-30.93.17c.83-.71,1.45-1.65,1.83-2.68.45-1.25.37-2.62.04-3.87-.7-2.51-2.22-4.67-4.08-6.43-1.89-1.73-4.2-3.01-6.68-3.62l-.51-.13-.06.49c-.28,2.46-.57,4.98-.31,7.48.27,2.47,1.03,4.97,2.68,6.85-1.63-1.9-2.34-4.42-2.38-6.87-.05-2.28.35-4.53.79-6.78,2.09.78,4.03,1.94,5.65,3.46.88.8,1.67,1.7,2.35,2.68.69.98,1.28,2.02,1.68,3.13.38,1.1.55,2.31.25,3.43-.29,1.08-.89,2.11-1.75,2.86h-.03c-.6-2.26-1.53-4.35-2.53-6.41-1.04-2.05-2.16-4.06-3.61-5.91.6,2.27,1.53,4.38,2.54,6.44,1.03,2.04,2.15,4.04,3.59,5.87h-2.23s-1.59.03-1.59.03c-1.04-.43-1.98-1.11-2.73-1.95.71.83,1.6,1.48,2.58,1.95l-5.56.05c-2.22-1-4.14-2.51-5.62-4.35-.29-.37-.56-.75-.82-1.14.49-.11.96-.31,1.37-.63.65-.51,1.12-1.24,1.3-2.07.18-.82,0-1.8-.64-2.48-.63-.65-1.5-.98-2.4-.91-.45.05-.92.23-1.28.54-.36.31-.61.71-.75,1.15-.26.87-.11,1.71.13,2.43.14.4.32.77.51,1.12-2.25-.31-4.24-2.52-4.34-5.05-.19,1.42.3,2.91,1.22,4.07.88,1.09,2.23,1.86,3.7,1.93.38.59.81,1.14,1.28,1.65,1.57,1.74,3.58,3.03,5.76,3.75l-32.84.31c.2-1.17.03-2.39-.43-3.5-.52-1.23-1.51-2.18-2.59-2.88-2.21-1.38-4.8-1.94-7.35-1.97-2.56,0-5.13.63-7.37,1.85l-.46.25.29.4c1.46,2,2.95,4.05,4.83,5.72,1.87,1.64,4.12,2.96,6.61,3.23-2.48-.29-4.71-1.68-6.4-3.44-1.58-1.64-2.8-3.57-4-5.52,2.07-.84,4.28-1.31,6.5-1.28,1.19-.01,2.38.12,3.55.38,1.16.25,2.31.62,3.35,1.17,1.03.55,1.97,1.33,2.51,2.36.52,1,.78,2.18.65,3.32-1.97-1.26-4.08-2.18-6.22-3.02-2.16-.8-4.34-1.52-6.66-1.9,1.98,1.26,4.09,2.18,6.23,3.02,2.15.8,4.33,1.52,6.64,1.9,0,.04,0,.09,0,.13-.08.57-.45,1.09-.92,1.46-.47.38-1.02.67-1.59.9-1.14.47-2.4.64-3.63.52,1.23.15,2.49-.02,3.66-.44.59-.21,1.16-.47,1.67-.84.5-.37.97-.88,1.12-1.54.02-.09.02-.18.04-.27l27.63.26c-1.24.53-2.31,1.35-3.33,2.17-1.14.95-2.18,2.03-3.02,3.26.86-1.2,1.89-2.3,3.09-3.17,1.18-.88,2.45-1.72,3.84-2.08.69-.18,1.42-.19,2.02.07.03.01.05.03.08.05-1.76,1.74-3.26,3.67-4.68,5.65-1.45,2.08-2.82,4.21-3.9,6.54,1.85-1.79,3.4-3.8,4.87-5.85,1.4-2,2.72-4.06,3.77-6.3.53.29.95.76,1.22,1.31.58,1.23.62,2.74.33,4.05-.72,2.67-2.95,4.74-5.32,6.33-2.31,1.56-4.93,2.72-7.71,3.28-.21-1.65-.15-3.35.23-5,.39-1.74,1.13-3.41,2.15-4.89-1.04,1.46-1.8,3.12-2.29,4.85-.49,1.73-.72,3.56-.59,5.38l.02.27.28-.03c2.98-.34,5.95-1.28,8.53-2.91,1.28-.82,2.5-1.76,3.54-2.92,1.03-1.16,1.88-2.55,2.19-4.14.27-1.58.07-3.21-.71-4.62-.29-.5-.7-.95-1.19-1.27l9.66.09,8.84.05c-1.96.81-3.77,2.06-5.23,3.65-.97,1.03-1.91,2.31-2.1,3.94-1.06.85-1.87,1.88-2.52,3.03-.67,1.27-1.04,2.85-.47,4.19-.3-1.4.19-2.78.98-3.89.38-.57.82-1.09,1.31-1.57.25-.24.5-.48.76-.69.08.47.24.92.5,1.34.23.36.53.69.9.94.37.25.84.41,1.28.43.89.04,1.81-.31,2.36-1.12.27-.41.39-.91.34-1.39-.06-.48-.28-.92-.57-1.25-.58-.66-1.39-1.04-2.27-1.06-.47,0-.91.1-1.31.26.28-.89.86-1.75,1.51-2.54,1.42-1.73,3.21-3.17,5.24-4.26l10.66.06c-.18.15-.33.32-.46.47-.07.09-.13.18-.2.27-.28.21-.55.43-.81.65-1.12.94-2.12,2.02-3.01,3.18-.88,1.17-1.66,2.42-2.26,3.75-.09.19-.17.39-.25.59,0,0-.01,0-.02,0,0-.02,0-.03,0-.05,0,.01,0,.03-.01.04-.24-.05-.49-.09-.75-.09-.8,0-1.55.37-2.12.84-1.14.99-1.82,2.31-2.37,3.65-.51,1.35-.8,2.78-.83,4.22.07-1.43.34-2.87.93-4.18.58-1.3,1.39-2.55,2.51-3.37.56-.39,1.22-.64,1.86-.59.19.02.37.06.56.11-.14.35-.26.71-.38,1.07-.63,1.93-1.08,3.89-1.48,5.87-.48,2.57-.87,5.15-.91,7.8.96-2.47,1.57-5.01,2.08-7.57.4-2.11.72-4.23.85-6.39.1-.21.21-.4.32-.61.28.12.55.26.81.42,1.15.72,1.83,1.93,2.07,3.23.25,1.31.08,2.68-.23,4.03-.31,1.35-.8,2.65-1.45,3.88-1.24,2.37-3.05,4.47-5.34,5.96-.56-1.51-1.13-3.01-1.53-4.56-.44-1.66-.7-3.38-.66-5.1-.07,1.72.17,3.44.52,5.13.36,1.69.81,3.36,1.29,5.01l.09.3.29-.15c2.6-1.35,4.86-3.45,6.33-6.05.73-1.29,1.3-2.7,1.62-4.16.31-1.44.49-3,.11-4.52-.33-1.52-1.35-2.93-2.73-3.64-.28-.14-.57-.27-.87-.37.08-.15.16-.31.25-.46.72-1.23,1.49-2.43,2.35-3.55.75-1.01,1.59-1.94,2.46-2.86-.36,1.04-.45,2.17-.27,3.27.22,1.42.92,2.72,1.84,3.77.92,1.06,2.08,1.88,3.31,2.49,2.5,1.21,5.23,1.47,7.85,1.66l.27.02.02-.25c.12-1.6-.12-3.2-.58-4.7-.48-1.5-1.19-2.92-2.17-4.15.95,1.24,1.65,2.68,2.03,4.19.36,1.42.42,2.9.23,4.33-2.5-.39-4.98-.96-7.13-2.11-2.19-1.17-4.09-3.07-4.63-5.45-.25-1.18-.22-2.47.26-3.6.16-.37.38-.77.63-1.07.11-.1.22-.2.33-.3.02-.01.03-.03.05-.04.47-.29,1.14-.24,1.75-.12,1.25.27,2.45.87,3.56,1.56,1.12.68,2.1,1.59,2.92,2.61-.8-1.05-1.79-1.94-2.87-2.7-.9-.6-1.82-1.18-2.84-1.6l17.42.1,81.62.19,81.62-.18,16.14-.09c-1.01.42-1.92.99-2.81,1.59-1.08.76-2.07,1.65-2.87,2.7.82-1.03,1.8-1.93,2.92-2.61,1.11-.69,2.31-1.29,3.56-1.56.61-.12,1.28-.17,1.75.12.02.01.03.03.05.04.11.1.22.2.33.3.26.3.47.71.63,1.07.48,1.13.5,2.42.26,3.6-.54,2.38-2.43,4.28-4.63,5.45-2.15,1.15-4.63,1.72-7.13,2.11-.19-1.43-.13-2.91.23-4.33.37-1.51,1.08-2.95,2.03-4.19-.97,1.23-1.69,2.65-2.17,4.15-.46,1.5-.7,3.1-.58,4.7l.02.25.27-.02c2.62-.19,5.35-.45,7.85-1.66,1.23-.61,2.39-1.43,3.31-2.49.92-1.05,1.62-2.35,1.84-3.77.18-1.09.08-2.23-.27-3.27.87.91,1.71,1.85,2.46,2.86.87,1.12,1.64,2.32,2.35,3.55.09.15.16.31.25.46-.3.11-.59.23-.87.37-1.38.71-2.39,2.13-2.73,3.64-.38,1.52-.21,3.08.11,4.52.31,1.46.89,2.86,1.62,4.16,1.47,2.6,3.74,4.69,6.33,6.05l.29.15.09-.3c.48-1.65.93-3.33,1.29-5.01.35-1.69.59-3.41.52-5.13.04,1.72-.22,3.44-.66,5.1-.4,1.55-.97,3.06-1.53,4.56-2.29-1.49-4.1-3.59-5.34-5.96-.66-1.22-1.14-2.53-1.45-3.88-.31-1.35-.48-2.72-.23-4.03.24-1.3.92-2.51,2.07-3.23.25-.16.53-.3.81-.42.11.2.22.4.32.61.13,2.16.45,4.28.85,6.39.52,2.56,1.12,5.1,2.08,7.57-.03-2.65-.43-5.23-.91-7.8-.4-1.97-.85-3.94-1.48-5.87-.12-.36-.24-.72-.38-1.08.19-.05.37-.1.56-.11.65-.05,1.3.19,1.86.59,1.12.82,1.93,2.07,2.51,3.37.59,1.31.86,2.75.93,4.18-.03-1.44-.32-2.87-.83-4.22-.54-1.33-1.23-2.66-2.37-3.65-.57-.47-1.32-.84-2.12-.84-.26,0-.51.04-.75.1,0-.01,0-.03-.01-.04,0,.02,0,.03,0,.05,0,0-.01,0-.02,0-.08-.2-.16-.39-.25-.59-.61-1.33-1.38-2.58-2.26-3.75-.89-1.16-1.89-2.24-3.01-3.18-.27-.22-.54-.44-.81-.65-.06-.09-.13-.18-.2-.27-.13-.15-.28-.32-.45-.46l10.67-.06c2.02,1.08,3.8,2.52,5.22,4.25.64.79,1.23,1.65,1.51,2.54-.4-.16-.84-.26-1.31-.26-.87.02-1.68.4-2.27,1.06-.29.33-.51.77-.57,1.25-.05.48.07.99.34,1.39.56.81,1.48,1.15,2.36,1.12.44-.02.92-.18,1.28-.43.37-.25.67-.58.9-.94.26-.42.42-.87.5-1.34.26.22.51.45.76.69.49.48.93,1,1.31,1.57.79,1.1,1.27,2.48.98,3.89.57-1.33.2-2.92-.47-4.19-.64-1.15-1.46-2.18-2.52-3.03-.18-1.63-1.13-2.9-2.1-3.94-1.46-1.58-3.26-2.83-5.21-3.64l10.08-.06,8.39-.08c-.49.32-.89.76-1.17,1.25-.78,1.41-.99,3.04-.71,4.62.32,1.59,1.16,2.98,2.19,4.14,1.03,1.17,2.26,2.1,3.54,2.92,2.58,1.63,5.55,2.58,8.53,2.91l.28.03.02-.27c.13-1.83-.1-3.65-.59-5.38-.5-1.73-1.26-3.39-2.29-4.85,1.02,1.48,1.76,3.14,2.15,4.89.38,1.64.43,3.35.23,5-2.78-.56-5.4-1.72-7.71-3.28-2.36-1.6-4.6-3.67-5.32-6.33-.29-1.31-.25-2.81.33-4.05.27-.56.69-1.02,1.22-1.31,1.06,2.24,2.38,4.3,3.77,6.3,1.48,2.05,3.03,4.06,4.87,5.85-1.08-2.34-2.45-4.47-3.9-6.54-1.42-1.98-2.92-3.91-4.68-5.65.03-.01.05-.03.08-.05.61-.26,1.33-.26,2.02-.07,1.4.36,2.67,1.2,3.84,2.08,1.19.88,2.22,1.97,3.08,3.17-.84-1.23-1.88-2.3-3.02-3.26-1.02-.81-2.07-1.62-3.3-2.16l27.6-.27c.01.09.02.17.03.26.15.66.62,1.17,1.12,1.54.51.37,1.08.64,1.67.84,1.17.42,2.43.59,3.66.44-1.23.12-2.49-.04-3.63-.52-.57-.23-1.12-.52-1.59-.9-.47-.38-.84-.89-.92-1.46,0-.04,0-.09,0-.13.13-.02.25-.05.37-.08h.65s-.59-.01-.59-.01c2.15-.39,4.2-1.06,6.21-1.81,2.14-.84,4.25-1.76,6.23-3.02-2.32.38-4.5,1.1-6.66,1.9-2.09.82-4.14,1.72-6.07,2.93h-.15c-.11-1.12.15-2.26.65-3.24.53-1.03,1.48-1.81,2.51-2.36,1.04-.55,2.19-.91,3.35-1.17,1.16-.26,2.36-.39,3.55-.38,2.22-.02,4.43.44,6.5,1.28-1.2,1.95-2.42,3.88-4,5.52-1.69,1.77-3.92,3.15-6.4,3.44,2.49-.27,4.74-1.59,6.61-3.23,1.88-1.66,3.37-3.72,4.83-5.72l.29-.4-.46-.25ZM314.7,14.65c-.1-.55.03-1.11.38-1.46.35-.37.93-.58,1.43-.52.5.04.87.36,1.04.85.17.49.09,1.12-.1,1.72-.14.49-.39.97-.66,1.45-.47-.09-.91-.29-1.24-.57-.44-.37-.76-.92-.85-1.47ZM279.32,15.52c-.06.15-.12.29-.17.44-.03-.03-.06-.07-.09-.11.09-.11.18-.22.27-.33ZM82.28,15.95c-.05-.15-.12-.29-.17-.44.09.11.18.22.27.33-.03.04-.06.08-.09.11ZM43.89,13.52c.17-.49.54-.81,1.04-.85.5-.06,1.08.15,1.43.52.35.35.47.91.38,1.46-.09.55-.41,1.1-.85,1.47-.34.29-.77.48-1.24.57-.27-.48-.52-.96-.66-1.45-.18-.6-.26-1.24-.1-1.72ZM64.43,32.14c.34.41.38.91.13,1.27-.24.37-.81.61-1.32.57-.5-.01-.95-.32-1.26-.8-.27-.4-.39-.91-.41-1.42.47-.23.98-.37,1.44-.36.54.02,1.1.33,1.42.74ZM299.46,33.19c-.31.48-.76.78-1.26.8-.51.04-1.08-.2-1.32-.57-.25-.36-.21-.86.13-1.27.32-.41.89-.71,1.42-.74.46-.02.97.12,1.44.36-.02.51-.14,1.02-.41,1.42ZM343.67,23.39s-.08.04-.11.07c0-.02,0-.04,0-.07h.12Z"/>
    <path d="M293,15.85c-.71,0-.71,1.1,0,1.1s.71-1.1,0-1.1Z"/>
    <path d="M295.85,11.35c.82,0,.82-1.27,0-1.27s-.82,1.27,0,1.27Z"/>
    <path d="M293.78,13.81s.04-.03.06-.05c.04-.04.06-.08.08-.13v-.08s0-.08-.01-.11c-.01-.04-.03-.07-.06-.1-.03-.03-.06-.05-.09-.06-.04-.02-.07-.03-.11-.03-.05,0-.11,0-.16-.01-.01,0-.03,0-.04,0,0,0,0,0-.01,0-.03,0-.05,0-.08.01-.03,0-.06.02-.09.04-.02.01-.04.03-.06.04-.04.02-.07.05-.09.09-.02.04-.03.08-.03.13,0,.05.01.09.03.13.02.04.05.07.09.09.02.01.04.03.06.04.05.03.12.05.18.05.01,0,.03,0,.04,0,.05,0,.11,0,.16-.01.05,0,.1-.01.15-.04Z"/>
    <path d="M284.14,20.78c.75,0,.75-1.16,0-1.16s-.75,1.16,0,1.16Z"/>
    <path d="M275.6.6c-.39,0-.39.6,0,.6s.39-.6,0-.6Z"/>
    <path d="M274.65,4.33c.34,0,.34-.52,0-.52s-.34.52,0,.52Z"/>
    <path d="M276.55,3.1c.38,0,.38-.59,0-.59s-.38.59,0,.59Z"/>
    <path d="M272.44,2.33c.61,0,.61-.95,0-.95s-.61.95,0,.95Z"/>
    <path d="M317.8,44.84c-.04-.06-.09-.11-.16-.15-.05-.02-.09-.04-.14-.06-.08-.02-.15-.03-.23-.01-.08,0-.15.03-.21.07-.04.03-.08.06-.12.09-.07.06-.07.07-.09.12-.01.02-.02.04-.03.06,0,0,0,0,0,0-.03.04-.06.08-.08.13v.1c-.02.05,0,.1.02.14.01.03.03.06.05.08,0,.02.02.04.03.06.05.09.12.15.21.21.05.02.09.04.14.06.08.02.15.03.23.01.08,0,.15-.03.21-.07.04-.03.08-.06.12-.09.06-.05.1-.11.12-.18.04-.07.05-.14.05-.22,0-.05-.01-.1-.02-.15-.02-.07-.05-.14-.1-.19Z"/>
    <path d="M312.61,47.04c-.47,0-.47.73,0,.73s.47-.73,0-.73Z"/>
    <path d="M315.13,44.46s-.02-.04-.04-.06c-.06-.1-.16-.16-.27-.16s-.21.06-.27.16c-.01.02-.02.04-.04.06-.03.05-.05.1-.06.15-.01.05-.03.1-.04.15-.04.15,0,.31.11.41.04.04.08.07.14.09.05.03.11.04.16.04.08,0,.15-.02.22-.06.03-.02.06-.04.09-.07.05-.05.09-.12.11-.19.02-.08.02-.15,0-.23-.01-.05-.03-.1-.04-.15-.01-.05-.03-.1-.06-.15Z"/>
    <path d="M310.71,44.66c-.27,0-.27.41,0,.41s.27-.41,0-.41Z"/>
    <path d="M310.4,37.72c-.66,0-.66,1.02,0,1.02s.66-1.02,0-1.02Z"/>
    <path d="M348.04,9.52c.5,0,.5-.78,0-.78s-.5.78,0,.78Z"/>
    <path d="M345.82,10.3c-.53,0-.53.82,0,.82s.53-.82,0-.82Z"/>
    <path d="M345.71,6.95s-.02,0-.02,0c-.03-.01-.06-.02-.09-.04-.06-.02-.12-.02-.18,0-.06.02-.11.05-.15.09-.04.04-.07.09-.09.15-.02.06-.02.12,0,.18.01.03.03.06.04.09,0,0,0,.02,0,.02.02.04.03.08.05.11.02.04.06.08.1.12l.14.18c.05.05.12.09.19.11.04,0,.08.01.12.02.08,0,.15-.02.22-.06.03-.02.06-.05.09-.07.04-.04.07-.09.09-.14.03-.05.04-.11.04-.17,0-.06-.01-.12-.04-.17-.02-.05-.05-.1-.09-.14-.06-.05-.12-.1-.18-.14,0,0-.01-.01-.02-.02,0,0,0,0-.01,0-.01-.01-.03-.02-.04-.03-.01-.01-.03-.02-.05-.04-.03-.01-.06-.03-.1-.04h-.02Z"/>
    <path d="M343.58,3.04s0,0,0-.01c0-.03-.01-.06-.03-.08,0-.03-.02-.05-.03-.08-.05-.09-.13-.17-.22-.22-.1-.06-.2-.08-.31-.08-.11,0-.21.03-.31.08-.09.05-.17.13-.22.22-.03.06-.06.11-.07.18,0,.01,0,.02,0,.03,0,.02,0,.04-.01.06,0,.04-.01.09-.02.13-.03.12-.03.23,0,.35.03.11.09.21.17.29.06.06.13.11.21.14.08.04.16.06.25.06.12,0,.23-.03.33-.09.04-.03.09-.07.13-.1.08-.08.14-.18.17-.29.03-.12.03-.23,0-.35,0-.04-.01-.09-.02-.13,0-.02,0-.04-.01-.06v-.03Z"/>
    <path d="M317.36,8.3c.57,0,.57-.88,0-.88s-.57.88,0,.88Z"/>
    <path d="M263.79,30.11c-.09-.09-.2-.16-.33-.19-.07,0-.13-.02-.2-.03-.1,0-.2.02-.29.06-.09.03-.17.08-.24.15-.07.07-.12.15-.15.24-.05.09-.07.18-.06.29,0,.1.02.2.06.29.03.09.08.17.15.24.05.04.1.08.15.12.04.03.08.05.12.06.04.03.08.05.13.06.04,0,.08.01.12.02.06,0,.12-.01.18-.04.02,0,.03-.02.05-.03.05-.01.1-.03.15-.06.09-.05.16-.11.21-.19.07-.07.11-.16.13-.25,0-.07.02-.13.03-.2,0-.13-.03-.26-.1-.38-.04-.05-.08-.1-.12-.15Z"/>
    <path d="M263.58,34.82c-.02-.07-.05-.14-.09-.2-.02-.04-.05-.07-.09-.09-.04-.02-.09-.04-.13-.04-.05,0-.09.01-.13.04-.04.02-.07.05-.09.09-.03.07-.07.13-.09.2-.01.05-.03.1-.04.15-.04.13,0,.27.1.36.03.04.07.06.12.08.04.02.09.03.14.03.07,0,.13-.02.19-.05.02-.02.05-.04.07-.06.09-.09.13-.24.1-.36-.01-.05-.03-.1-.04-.15Z"/>
    <path d="M261.05,32.57c-.36,0-.36.56,0,.56s.36-.56,0-.56Z"/>
    <path d="M258.2,33.1c-.49,0-.49.76,0,.76s.49-.76,0-.76Z"/>
    <path d="M258.52,26.68c-.62,0-.61.96,0,.96s.62-.96,0-.96Z"/>
  </g>
</svg>