<?xml version="1.0" encoding="UTF-8"?>
<svg id="Layer_2" data-name="Layer 2" xmlns="http://www.w3.org/2000/svg" viewBox="0 0 390.83 49.28">
  <defs>
    <style>
      .cls-1 {
        fill: #201522;
      }
    </style>
  </defs>
  <g id="Objects">
    <g>
      <path class="cls-1" d="M183.29,24.64l13.87,24.64,13.32-24.64L197.16,0l-13.87,24.64ZM197.12,44.99l-11.46-20.35,11.46-20.35,11,20.35-11,20.35Z"/>
      <path class="cls-1" d="M313.3,26.63l-.52-.83c-.25-.38-.55-.77-.82-1.15-.31-.36-.64-.7-.98-1.04-.38-.29-.72-.63-1.13-.88-1.59-1.06-3.5-1.64-5.41-1.67-1.92,0-3.84.55-5.46,1.59-.42.24-.77.58-1.16.87-.35.33-.69.68-1.01,1.03-.28.38-.6.78-.85,1.15l-.02.02-.02-.04c-.25-.38-.56-.78-.83-1.17-.32-.36-.66-.72-1-1.05-.38-.3-.74-.64-1.15-.89-1.62-1.08-3.56-1.66-5.51-1.7-1.95,0-3.91.56-5.56,1.62-.43.25-.79.59-1.18.88-.36.34-.7.69-1.03,1.05-.24.32-.5.65-.73.98-.23-.33-.48-.67-.72-1-.33-.37-.67-.73-1.02-1.07-.39-.3-.75-.65-1.17-.91-1.65-1.1-3.62-1.69-5.61-1.72-1.98,0-3.97.57-5.66,1.65-.43.25-.8.6-1.2.9-.36.34-.71.7-1.05,1.07-.19.26-.39.52-.58.78-.19-.27-.39-.54-.59-.81-.33-.37-.68-.74-1.04-1.09-.4-.31-.76-.66-1.2-.92-1.68-1.12-3.69-1.72-5.71-1.75-2.02,0-4.04.58-5.76,1.68-.44.26-.81.61-1.22.92-.37.35-.73.71-1.07,1.09-.14.19-.3.39-.44.59-.15-.21-.31-.41-.45-.61-.34-.38-.69-.76-1.06-1.11-.4-.31-.78-.68-1.22-.94-1.71-1.14-3.75-1.75-5.81-1.78-2.05,0-4.11.59-5.85,1.71-.2.12-.38.26-.56.4l-7.49-13.86-9.02,16.03,9.02,16.03,7.21-13.34.21-.33c.23-.36.44-.61.66-.93.25-.27.5-.54.76-.8.3-.22.55-.49.87-.68,1.23-.82,2.7-1.27,4.2-1.3,1.5,0,2.99.42,4.25,1.23.33.18.59.45.9.67.27.26.53.53.79.8.23.32.45.58.69.93l.73,1.11.02.03c.1.16.24.29.41.4.64.4,1.48.21,1.89-.42l.71-1.12c.24-.36.45-.63.67-.95.25-.28.51-.56.78-.82.3-.22.57-.5.89-.69,1.26-.84,2.77-1.3,4.3-1.33,1.53,0,3.06.43,4.34,1.26.33.19.61.46.92.68.28.26.54.54.81.82.23.32.46.59.7.95l.73,1.11v.02c.1.14.22.25.37.35.55.35,1.29.19,1.64-.37l.71-1.12c.24-.36.46-.64.69-.97.26-.29.52-.57.8-.84.31-.23.58-.51.92-.71,1.29-.86,2.83-1.33,4.39-1.36,1.56,0,3.13.44,4.44,1.29.34.19.62.47.94.7.28.27.56.55.83.84.24.33.47.61.72.97l.73,1.11v.02c.09.11.19.22.31.29.47.3,1.1.16,1.39-.31l.71-1.12c.24-.36.47-.65.7-.98.26-.29.54-.58.82-.86.32-.24.59-.52.94-.72,1.32-.88,2.9-1.36,4.49-1.39,1.6,0,3.19.45,4.54,1.32.35.2.64.48.96.72.29.28.57.56.84.86.24.33.48.62.73.99l.73,1.11v.02c.07.09.16.18.26.24.39.25.9.13,1.15-.26l.71-1.12c.24-.37.48-.66.71-1,.27-.3.55-.6.83-.88.32-.24.61-.54.96-.74,1.35-.9,2.96-1.39,4.59-1.42,1.63,0,3.26.46,4.64,1.35.36.2.65.49.98.73.3.28.58.58.86.88.25.34.5.64.74,1l.73,1.11h0c.12.19.32.3.54.3l77.9-.66-77.54-.65ZM227.25,25.33l-.73,1.11s-.01.02-.01.02c-.19.3-.26.65-.23.98l-3.9,7.22-5.65-10.03,5.65-10.03,5.4,9.99c-.19.25-.37.5-.53.72Z"/>
      <path class="cls-1" d="M160.88,22.62c-.17-.13-.34-.26-.53-.37-1.74-1.12-3.8-1.71-5.85-1.71-2.05.03-4.09.65-5.81,1.78-.44.26-.81.63-1.22.94-.37.35-.72.73-1.06,1.11-.15.2-.3.41-.45.62-.15-.2-.3-.4-.44-.59-.34-.37-.7-.74-1.07-1.09-.41-.31-.78-.66-1.22-.92-1.71-1.1-3.74-1.68-5.76-1.68-2.02.03-4.02.64-5.71,1.75-.43.26-.8.62-1.2.92-.36.35-.71.72-1.04,1.09-.19.27-.4.54-.59.81-.19-.26-.39-.52-.58-.78-.34-.37-.69-.73-1.05-1.07-.4-.3-.77-.65-1.2-.9-1.68-1.08-3.67-1.65-5.66-1.65-1.98.03-3.96.63-5.61,1.72-.42.26-.78.61-1.17.91-.35.34-.69.71-1.02,1.07-.24.33-.5.68-.72,1-.23-.32-.48-.65-.73-.98-.33-.36-.67-.72-1.03-1.05-.39-.29-.75-.64-1.18-.88-1.65-1.06-3.61-1.62-5.56-1.62-1.95.03-3.89.62-5.51,1.7-.42.25-.77.6-1.15.89-.35.34-.68.69-1,1.05-.28.39-.59.79-.83,1.17l-.02.04-.02-.02c-.25-.37-.57-.77-.85-1.15-.32-.36-.66-.7-1.01-1.03-.39-.29-.74-.62-1.16-.87-1.63-1.04-3.55-1.59-5.46-1.59-1.92.03-3.82.61-5.41,1.67-.41.25-.75.59-1.13.88-.34.33-.67.68-.98,1.04-.27.38-.58.77-.82,1.15l-.52.83L0,27.46l77.9.66c.21,0,.42-.1.55-.29h0s.73-1.12.73-1.12c.25-.36.5-.67.74-1,.28-.3.57-.59.86-.88.33-.24.63-.53.98-.73,1.38-.88,3.01-1.34,4.64-1.35,1.63.03,3.25.52,4.59,1.42.35.21.64.5.96.74.29.28.56.58.83.88.24.34.48.64.71,1l.71,1.12c.06.1.14.18.25.25.38.25.9.15,1.15-.24h0s.73-1.12.73-1.12c.24-.36.49-.65.73-.99.27-.29.55-.58.84-.86.33-.23.61-.52.96-.72,1.35-.86,2.94-1.31,4.54-1.32,1.6.03,3.18.51,4.49,1.39.34.2.62.49.94.73.28.28.55.57.82.86.23.33.46.62.7.98l.71,1.12c.07.12.18.22.3.3.47.31,1.09.18,1.4-.29h0s.73-1.13.73-1.13c.24-.36.48-.64.72-.97.27-.29.54-.57.83-.84.32-.23.6-.51.94-.7,1.32-.84,2.88-1.29,4.44-1.29,1.56.03,3.11.5,4.39,1.36.33.2.61.48.92.71.27.27.54.56.8.84.23.33.45.6.69.97l.71,1.12c.09.14.21.26.35.36.55.36,1.29.21,1.65-.34v-.02s.74-1.11.74-1.11c.24-.36.47-.63.7-.95.26-.28.53-.56.81-.82.31-.22.58-.5.92-.68,1.29-.82,2.81-1.26,4.34-1.26,1.53.03,3.04.49,4.3,1.33.33.19.59.47.89.69.27.27.53.54.78.82.22.32.44.59.67.95l.71,1.12c.1.16.24.3.4.41.63.41,1.48.24,1.89-.39v-.02s.74-1.11.74-1.11c.24-.35.46-.62.69-.93.26-.27.52-.54.79-.8.31-.22.57-.49.9-.67,1.26-.8,2.75-1.23,4.25-1.23,1.5.03,2.97.48,4.2,1.3.32.19.58.46.87.68.26.26.51.53.76.8.22.32.43.57.66.93l.71,1.12s.01.02.01.02c.08.12.17.22.27.3l6.78,12.04,8.67-16.03-8.67-16.03-7.89,14ZM168.72,34.66l-4.17-7.4c-.03-.23-.1-.45-.24-.65l-.73-1.11c-.04-.05-.08-.11-.12-.16l-.39-.7,5.65-10.03,5.42,10.03-5.42,10.03Z"/>
    </g>
  </g>
</svg>