<?xml version="1.0" encoding="UTF-8"?>
<svg id="Layer_2" data-name="Layer 2" xmlns="http://www.w3.org/2000/svg" viewBox="0 0 329.77 15.76">
  <g id="OBJECTS">
    <g>
      <path d="M8.53,0c-1.35.01-2.69.35-3.87.98-1.18.64-2.19,1.55-2.95,2.63C.21,5.78-.37,8.54.23,11.03c-.31-2.53.41-5.13,1.97-7.04.76-.97,1.72-1.76,2.81-2.29,1.09-.51,2.3-.76,3.5-.71,2.39.07,4.79,1.18,6.09,3.12,1.33,1.91,1.46,4.57.56,6.71-.46,1.07-1.18,2.02-2.13,2.67-.95.66-2.1,1.02-3.25,1.06-1.15.05-2.32-.27-3.23-.96-.91-.68-1.62-1.69-1.91-2.81-.3-1.12-.15-2.34.51-3.31.64-.98,1.67-1.73,2.83-1.96,1.14-.24,2.47.09,3.24,1.03.78.89.63,2.57-.56,3.17,1.26-.45,1.66-2.26.83-3.37-.79-1.13-2.25-1.62-3.61-1.45-1.37.19-2.59,1-3.4,2.12-.84,1.11-1.1,2.63-.8,3.99.29,1.37,1.07,2.61,2.18,3.47,1.11.88,2.54,1.3,3.93,1.27,1.39-.02,2.77-.45,3.93-1.23,1.17-.78,2.05-1.94,2.6-3.2,1.04-2.54.88-5.6-.74-7.9C13.98,1.14,11.21-.07,8.53,0Z"/>
      <path d="M28.75,2.6c-.9,0-1.79.23-2.59.65-.79.43-1.47,1.04-1.97,1.76-1,1.45-1.39,3.29-.98,4.96-.21-1.69.27-3.43,1.32-4.71,1-1.31,2.6-2.09,4.22-2.01,1.6.05,3.21.77,4.09,2.08.89,1.29.97,3.07.36,4.49-.3.72-.78,1.35-1.42,1.79-.63.44-1.41.69-2.18.72-.77.03-1.55-.19-2.16-.65-.61-.46-1.08-1.13-1.27-1.88-.2-.75-.1-1.56.34-2.21.43-.65,1.12-1.16,1.89-1.31.76-.16,1.65.06,2.16.69.52.59.42,1.72-.37,2.12.84-.3,1.11-1.51.55-2.25-.53-.75-1.51-1.09-2.41-.97-.91.13-1.73.67-2.27,1.41-.56.74-.74,1.76-.53,2.66.19.91.72,1.75,1.46,2.32.74.58,1.7.86,2.62.84.93-.02,1.85-.3,2.62-.82.78-.52,1.37-1.29,1.75-2.13.69-1.7.57-3.74-.51-5.27-1.08-1.52-2.93-2.35-4.72-2.29Z"/>
      <path d="M49.07,2.6c-.9,0-1.79.23-2.59.65-.79.43-1.47,1.04-1.97,1.76-1,1.45-1.39,3.29-.98,4.96-.21-1.69.27-3.43,1.32-4.71,1-1.31,2.6-2.09,4.22-2.01,1.6.05,3.21.77,4.09,2.08.89,1.29.97,3.07.36,4.49-.3.72-.78,1.35-1.42,1.79-.63.44-1.41.69-2.18.72-.77.03-1.55-.19-2.16-.65-.61-.46-1.08-1.13-1.27-1.88-.2-.75-.1-1.56.34-2.21.43-.65,1.12-1.16,1.89-1.31.76-.16,1.65.06,2.16.69.52.59.42,1.72-.37,2.12.84-.3,1.11-1.51.55-2.25-.53-.75-1.51-1.09-2.41-.97-.91.13-1.73.67-2.27,1.41-.56.74-.74,1.76-.53,2.66.19.91.72,1.75,1.46,2.32.74.58,1.7.86,2.62.84.93-.02,1.85-.3,2.62-.82.78-.52,1.37-1.29,1.75-2.13.69-1.7.57-3.74-.51-5.27-1.08-1.52-2.93-2.35-4.72-2.29Z"/>
      <path d="M69.39,2.6c-.9,0-1.79.23-2.59.65-.79.43-1.47,1.04-1.97,1.76-1,1.45-1.39,3.29-.98,4.96-.21-1.69.27-3.43,1.32-4.71,1-1.31,2.6-2.09,4.22-2.01,1.6.05,3.21.77,4.09,2.08.89,1.29.97,3.07.36,4.49-.3.72-.78,1.35-1.42,1.79-.63.44-1.41.69-2.18.72-.77.03-1.55-.19-2.16-.65-.61-.46-1.08-1.13-1.27-1.88-.2-.75-.1-1.56.34-2.21.43-.65,1.12-1.16,1.89-1.31.76-.16,1.65.06,2.16.69.52.59.42,1.72-.37,2.12.84-.3,1.11-1.51.55-2.25-.53-.75-1.51-1.09-2.41-.97-.91.13-1.73.67-2.27,1.41-.56.74-.74,1.76-.53,2.66.19.91.72,1.75,1.46,2.32.74.58,1.7.86,2.62.84.93-.02,1.85-.3,2.62-.82.78-.52,1.37-1.29,1.75-2.13.69-1.7.57-3.74-.51-5.27-1.08-1.52-2.93-2.35-4.72-2.29Z"/>
      <path d="M93.43,0c-1.35.01-2.69.35-3.87.98-1.18.64-2.19,1.55-2.95,2.63-1.5,2.16-2.07,4.93-1.47,7.42-.31-2.53.41-5.13,1.97-7.04.76-.97,1.72-1.76,2.81-2.29,1.09-.51,2.3-.76,3.5-.71,2.39.07,4.79,1.18,6.09,3.12,1.33,1.91,1.46,4.57.56,6.71-.46,1.07-1.18,2.02-2.13,2.67-.95.66-2.1,1.02-3.25,1.06-1.15.05-2.32-.27-3.23-.96-.91-.68-1.62-1.69-1.91-2.81-.3-1.12-.15-2.34.51-3.31.64-.98,1.67-1.73,2.83-1.96,1.14-.24,2.47.09,3.24,1.03.78.89.63,2.57-.56,3.17,1.26-.45,1.66-2.26.83-3.37-.79-1.13-2.25-1.62-3.61-1.45-1.37.19-2.59,1-3.4,2.12-.84,1.11-1.1,2.63-.8,3.99.29,1.37,1.07,2.61,2.18,3.47,1.11.88,2.54,1.3,3.93,1.27,1.39-.02,2.77-.45,3.93-1.23,1.17-.78,2.05-1.94,2.6-3.2,1.04-2.54.88-5.6-.74-7.9C98.89,1.14,96.12-.07,93.43,0Z"/>
      <path d="M113.66,2.6c-.9,0-1.79.23-2.59.65-.79.43-1.47,1.04-1.97,1.76-1,1.45-1.39,3.29-.98,4.96-.21-1.69.27-3.43,1.32-4.71,1-1.31,2.6-2.09,4.22-2.01,1.6.05,3.21.77,4.09,2.08.89,1.29.97,3.07.36,4.49-.3.72-.78,1.35-1.42,1.79-.63.44-1.41.69-2.18.72-.77.03-1.55-.19-2.16-.65-.61-.46-1.08-1.13-1.27-1.88-.2-.75-.1-1.56.34-2.21.43-.65,1.12-1.16,1.89-1.31.76-.16,1.65.06,2.16.69.52.59.42,1.72-.37,2.12.84-.3,1.11-1.51.55-2.25-.53-.75-1.51-1.09-2.41-.97-.91.13-1.73.67-2.27,1.41-.56.74-.74,1.76-.53,2.66.19.91.72,1.75,1.46,2.32.74.58,1.7.86,2.62.84.93-.02,1.85-.3,2.62-.82.78-.52,1.37-1.29,1.75-2.13.69-1.7.57-3.74-.51-5.27-1.08-1.52-2.93-2.35-4.72-2.29Z"/>
      <path d="M133.98,2.6c-.9,0-1.79.23-2.59.65-.79.43-1.47,1.04-1.97,1.76-1,1.45-1.39,3.29-.98,4.96-.21-1.69.27-3.43,1.32-4.71,1-1.31,2.6-2.09,4.22-2.01,1.6.05,3.21.77,4.09,2.08.89,1.29.97,3.07.36,4.49-.3.72-.78,1.35-1.42,1.79-.63.44-1.41.69-2.18.72-.77.03-1.55-.19-2.16-.65-.61-.46-1.08-1.13-1.27-1.88-.2-.75-.1-1.56.34-2.21.43-.65,1.12-1.16,1.89-1.31.76-.16,1.65.06,2.16.69.52.59.42,1.72-.37,2.12.84-.3,1.11-1.51.55-2.25-.53-.75-1.51-1.09-2.41-.97-.91.13-1.73.67-2.27,1.41-.56.74-.74,1.76-.53,2.66.19.91.72,1.75,1.46,2.32.74.58,1.7.86,2.62.84.93-.02,1.85-.3,2.62-.82.78-.52,1.37-1.29,1.75-2.13.69-1.7.57-3.74-.51-5.27-1.08-1.52-2.93-2.35-4.72-2.29Z"/>
      <path d="M154.3,2.6c-.9,0-1.79.23-2.59.65-.79.43-1.47,1.04-1.97,1.76-1,1.45-1.39,3.29-.98,4.96-.21-1.69.27-3.43,1.32-4.71,1-1.31,2.6-2.09,4.22-2.01,1.6.05,3.21.77,4.09,2.08.89,1.29.97,3.07.36,4.49-.3.72-.78,1.35-1.42,1.79-.63.44-1.41.69-2.18.72-.77.03-1.55-.19-2.16-.65-.61-.46-1.08-1.13-1.27-1.88-.2-.75-.1-1.56.34-2.21.43-.65,1.12-1.16,1.89-1.31.76-.16,1.65.06,2.16.69.52.59.42,1.72-.37,2.12.84-.3,1.11-1.51.55-2.25-.53-.75-1.51-1.09-2.41-.97-.91.13-1.73.67-2.27,1.41-.56.74-.74,1.76-.53,2.66.19.91.72,1.75,1.46,2.32.74.58,1.7.86,2.62.84.93-.02,1.85-.3,2.62-.82.78-.52,1.37-1.29,1.75-2.13.69-1.7.57-3.74-.51-5.27-1.08-1.52-2.93-2.35-4.72-2.29Z"/>
      <path d="M178.34,0c-1.35.01-2.69.35-3.87.98-1.18.64-2.19,1.55-2.95,2.63-1.5,2.16-2.07,4.93-1.47,7.42-.31-2.53.41-5.13,1.97-7.04.76-.97,1.72-1.76,2.81-2.29,1.09-.51,2.3-.76,3.5-.71,2.39.07,4.79,1.18,6.09,3.12,1.33,1.91,1.46,4.57.56,6.71-.46,1.07-1.18,2.02-2.13,2.67-.95.66-2.1,1.02-3.25,1.06-1.15.05-2.32-.27-3.23-.96-.91-.68-1.62-1.69-1.91-2.81-.3-1.12-.15-2.34.51-3.31.64-.98,1.67-1.73,2.83-1.96,1.14-.24,2.47.09,3.24,1.03.78.89.63,2.57-.56,3.17,1.26-.45,1.66-2.26.83-3.37-.79-1.13-2.25-1.62-3.61-1.45-1.37.19-2.59,1-3.4,2.12-.84,1.11-1.1,2.63-.8,3.99.29,1.37,1.07,2.61,2.18,3.47,1.11.88,2.54,1.3,3.93,1.27,1.39-.02,2.77-.45,3.93-1.23,1.17-.78,2.05-1.94,2.6-3.2,1.04-2.54.88-5.6-.74-7.9-1.63-2.28-4.4-3.49-7.08-3.42Z"/>
      <path d="M198.56,2.6c-.9,0-1.79.23-2.59.65-.79.43-1.47,1.04-1.97,1.76-1,1.45-1.39,3.29-.98,4.96-.21-1.69.27-3.43,1.32-4.71,1-1.31,2.6-2.09,4.22-2.01,1.6.05,3.21.77,4.09,2.08.89,1.29.97,3.07.36,4.49-.3.72-.78,1.35-1.42,1.79-.63.44-1.41.69-2.18.72-.77.03-1.55-.19-2.16-.65-.61-.46-1.08-1.13-1.27-1.88-.2-.75-.1-1.56.34-2.21.43-.65,1.12-1.16,1.89-1.31.76-.16,1.65.06,2.16.69.52.59.42,1.72-.37,2.12.84-.3,1.11-1.51.55-2.25-.53-.75-1.51-1.09-2.41-.97-.91.13-1.73.67-2.27,1.41-.56.74-.74,1.76-.53,2.66.19.91.72,1.75,1.46,2.32.74.58,1.7.86,2.62.84.93-.02,1.85-.3,2.62-.82.78-.52,1.37-1.29,1.75-2.13.69-1.7.57-3.74-.51-5.27-1.08-1.52-2.93-2.35-4.72-2.29Z"/>
      <path d="M218.89,2.6c-.9,0-1.79.23-2.59.65-.79.43-1.47,1.04-1.97,1.76-1,1.45-1.39,3.29-.98,4.96-.21-1.69.27-3.43,1.32-4.71,1-1.31,2.6-2.09,4.22-2.01,1.6.05,3.21.77,4.09,2.08.89,1.29.97,3.07.36,4.49-.3.72-.78,1.35-1.42,1.79-.63.44-1.41.69-2.18.72-.77.03-1.55-.19-2.16-.65-.61-.46-1.08-1.13-1.27-1.88-.2-.75-.1-1.56.34-2.21.43-.65,1.12-1.16,1.89-1.31.76-.16,1.65.06,2.16.69.52.59.42,1.72-.37,2.12.84-.3,1.11-1.51.55-2.25-.53-.75-1.51-1.09-2.41-.97-.91.13-1.73.67-2.27,1.41-.56.74-.74,1.76-.53,2.66.19.91.72,1.75,1.46,2.32.74.58,1.7.86,2.62.84.93-.02,1.85-.3,2.62-.82.78-.52,1.37-1.29,1.75-2.13.69-1.7.57-3.74-.51-5.27-1.08-1.52-2.93-2.35-4.72-2.29Z"/>
      <path d="M239.21,2.6c-.9,0-1.79.23-2.59.65-.79.43-1.47,1.04-1.97,1.76-1,1.45-1.39,3.29-.98,4.96-.21-1.69.27-3.43,1.32-4.71,1-1.31,2.6-2.09,4.22-2.01,1.6.05,3.21.77,4.09,2.08.89,1.29.97,3.07.36,4.49-.3.72-.78,1.35-1.42,1.79-.63.44-1.41.69-2.18.72-.77.03-1.55-.19-2.16-.65-.61-.46-1.08-1.13-1.27-1.88-.2-.75-.1-1.56.34-2.21.43-.65,1.12-1.16,1.89-1.31.76-.16,1.65.06,2.16.69.52.59.42,1.72-.37,2.12.84-.3,1.11-1.51.55-2.25-.53-.75-1.51-1.09-2.41-.97-.91.13-1.73.67-2.27,1.41-.56.74-.74,1.76-.53,2.66.19.91.72,1.75,1.46,2.32.74.58,1.7.86,2.62.84.93-.02,1.85-.3,2.62-.82.78-.52,1.37-1.29,1.75-2.13.69-1.7.57-3.74-.51-5.27-1.08-1.52-2.93-2.35-4.72-2.29Z"/>
      <path d="M263.25,0c-1.35.01-2.69.35-3.87.98-1.18.64-2.19,1.55-2.95,2.63-1.5,2.16-2.07,4.93-1.47,7.42-.31-2.53.41-5.13,1.97-7.04.76-.97,1.72-1.76,2.81-2.29,1.09-.51,2.3-.76,3.5-.71,2.39.07,4.79,1.18,6.09,3.12,1.33,1.91,1.46,4.57.56,6.71-.46,1.07-1.18,2.02-2.13,2.67-.95.66-2.1,1.02-3.25,1.06-1.15.05-2.32-.27-3.23-.96-.91-.68-1.62-1.69-1.91-2.81-.3-1.12-.15-2.34.51-3.31.64-.98,1.67-1.73,2.83-1.96,1.14-.24,2.47.09,3.24,1.03.78.89.63,2.57-.56,3.17,1.26-.45,1.66-2.26.83-3.37-.79-1.13-2.25-1.62-3.61-1.45-1.37.19-2.59,1-3.4,2.12-.84,1.11-1.1,2.63-.8,3.99.29,1.37,1.07,2.61,2.18,3.47,1.11.88,2.54,1.3,3.93,1.27,1.39-.02,2.77-.45,3.93-1.23,1.17-.78,2.05-1.94,2.6-3.2,1.04-2.54.88-5.6-.74-7.9-1.63-2.28-4.4-3.49-7.08-3.42Z"/>
      <path d="M283.47,2.6c-.9,0-1.79.23-2.59.65-.79.43-1.47,1.04-1.97,1.76-1,1.45-1.39,3.29-.98,4.96-.21-1.69.27-3.43,1.32-4.71,1-1.31,2.6-2.09,4.22-2.01,1.6.05,3.21.77,4.09,2.08.89,1.29.97,3.07.36,4.49-.3.72-.78,1.35-1.42,1.79-.63.44-1.41.69-2.18.72-.77.03-1.55-.19-2.16-.65-.61-.46-1.08-1.13-1.27-1.88-.2-.75-.1-1.56.34-2.21.43-.65,1.12-1.16,1.89-1.31.76-.16,1.65.06,2.16.69.52.59.42,1.72-.37,2.12.84-.3,1.11-1.51.55-2.25-.53-.75-1.51-1.09-2.41-.97-.91.13-1.73.67-2.27,1.41-.56.74-.74,1.76-.53,2.66.19.91.72,1.75,1.46,2.32.74.58,1.7.86,2.62.84.93-.02,1.85-.3,2.62-.82.78-.52,1.37-1.29,1.75-2.13.69-1.7.57-3.74-.51-5.27-1.08-1.52-2.93-2.35-4.72-2.29Z"/>
      <path d="M303.79,2.6c-.9,0-1.79.23-2.59.65-.79.43-1.47,1.04-1.97,1.76-1,1.45-1.39,3.29-.98,4.96-.21-1.69.27-3.43,1.32-4.71,1-1.31,2.6-2.09,4.22-2.01,1.6.05,3.21.77,4.09,2.08.89,1.29.97,3.07.36,4.49-.3.72-.78,1.35-1.42,1.79-.63.44-1.41.69-2.18.72-.77.03-1.55-.19-2.16-.65-.61-.46-1.08-1.13-1.27-1.88-.2-.75-.1-1.56.34-2.21.43-.65,1.12-1.16,1.89-1.31.76-.16,1.65.06,2.16.69.52.59.42,1.72-.37,2.12.84-.3,1.11-1.51.55-2.25-.53-.75-1.51-1.09-2.41-.97-.91.13-1.73.67-2.27,1.41-.56.74-.74,1.76-.53,2.66.19.91.72,1.75,1.46,2.32.74.58,1.7.86,2.62.84.93-.02,1.85-.3,2.62-.82.78-.52,1.37-1.29,1.75-2.13.69-1.7.57-3.74-.51-5.27-1.08-1.52-2.93-2.35-4.72-2.29Z"/>
      <path d="M328.83,4.89c-1.08-1.52-2.93-2.35-4.72-2.29-.9,0-1.8.23-2.59.65-.79.43-1.47,1.04-1.97,1.76-1,1.45-1.39,3.29-.98,4.96-.21-1.69.27-3.43,1.32-4.71,1-1.31,2.6-2.09,4.22-2.01,1.6.05,3.21.77,4.09,2.08.89,1.29.97,3.07.36,4.49-.3.72-.78,1.35-1.42,1.79-.63.44-1.41.69-2.18.72-.77.03-1.55-.19-2.16-.65-.61-.46-1.08-1.13-1.27-1.88-.2-.75-.1-1.56.34-2.21.43-.65,1.12-1.16,1.89-1.31.76-.16,1.65.06,2.16.69.52.59.42,1.72-.37,2.12.84-.3,1.11-1.51.55-2.25-.53-.75-1.51-1.09-2.41-.97-.91.13-1.73.67-2.27,1.41-.56.74-.74,1.76-.53,2.66.19.91.72,1.75,1.46,2.32.74.58,1.7.86,2.62.84.93-.02,1.85-.3,2.62-.82.78-.52,1.37-1.29,1.75-2.13.69-1.7.57-3.74-.51-5.27Z"/>
    </g>
  </g>
</svg>