<?xml version="1.0" encoding="UTF-8"?>
<svg id="Layer_2" data-name="Layer 2" xmlns="http://www.w3.org/2000/svg" viewBox="0 0 393.56 37.48">
  <defs>
    <style>
      .cls-1 {
        fill: #201522;
      }
    </style>
  </defs>
  <g id="Objects">
    <g>
      <path class="cls-1" d="M180.73,11.92c-2.07.5-4.18.98-6.32,1.43.36-1.09.56-2.2.67-3.28,2.23-.45,3.81-2.51,3.59-4.82-.22-2.28-2.42-5.49-5.02-5.24-2.6.25-4.16,3.82-3.94,6.1.22,2.27,2.1,3.98,4.32,4.06-.12,1.14-.37,2.31-.81,3.43-4.73.98-9.62,1.86-14.61,2.64.48-1.26.75-2.56.87-3.81,1.01-.2,1.92-.72,2.58-1.53.77-.93,1.12-2.1,1.01-3.29-.22-2.28-2.43-5.47-5.02-5.24-2.6.25-4.15,3.82-3.94,6.1.12,1.2.69,2.28,1.62,3.04.77.64,1.72.98,2.7,1.02-.13,1.25-.41,2.53-.93,3.75-.02.05-.02.1-.03.15-4.64.71-9.37,1.33-14.16,1.89.25-.89.4-1.79.48-2.66,2.23-.45,3.81-2.51,3.59-4.82-.12-1.2-.72-2.54-1.61-3.57-1.02-1.19-2.24-1.77-3.41-1.66-1.18.11-2.26.92-3.04,2.28-.68,1.19-1.02,2.62-.9,3.82.11,1.2.69,2.28,1.62,3.04.77.64,1.72.98,2.7,1.02-.09.89-.27,1.8-.55,2.69-4.89.55-9.83,1.03-14.78,1.43.43-1.18.67-2.4.78-3.57,1.01-.2,1.92-.72,2.58-1.53.77-.93,1.12-2.1,1.01-3.29-.12-1.2-.72-2.54-1.61-3.57-1.02-1.19-2.23-1.77-3.41-1.66-1.18.11-2.26.92-3.03,2.28-.68,1.19-1.02,2.61-.9,3.82.12,1.2.69,2.28,1.62,3.04.77.64,1.72.98,2.7,1.02-.12,1.19-.39,2.41-.87,3.57-4.8.38-9.61.7-14.39.97.33-1.04.53-2.1.62-3.13,1.01-.2,1.92-.72,2.58-1.53.76-.93,1.12-2.1,1.01-3.29-.22-2.28-2.43-5.49-5.02-5.24-2.6.25-4.15,3.82-3.94,6.1.22,2.27,2.1,3.98,4.32,4.06-.11,1.03-.32,2.08-.68,3.09-4.93.26-9.83.47-14.66.62.34-1.05.53-2.13.63-3.16,2.23-.45,3.81-2.51,3.59-4.82-.22-2.28-2.43-5.5-5.02-5.24-2.6.25-4.15,3.82-3.94,6.1.22,2.27,2.1,3.98,4.32,4.06-.11,1.03-.32,2.08-.69,3.1-4.95.15-9.82.25-14.57.31.28-.96.45-1.92.54-2.86,1.01-.2,1.92-.72,2.58-1.53.77-.93,1.12-2.1,1.01-3.29-.12-1.2-.72-2.54-1.61-3.57-1.02-1.19-2.23-1.78-3.41-1.66-2.6.25-4.15,3.82-3.94,6.1.11,1.2.69,2.28,1.62,3.04.77.64,1.72.98,2.7,1.02-.1.92-.27,1.86-.57,2.77-4.69.05-9.27.06-13.69.04.2-.79.32-1.57.39-2.34,2.23-.45,3.81-2.51,3.59-4.82-.22-2.28-2.43-5.48-5.02-5.24-1.18.11-2.26.92-3.03,2.28-.68,1.19-1.02,2.61-.9,3.82.11,1.2.69,2.28,1.62,3.04.77.64,1.72.98,2.7,1.02-.08.74-.21,1.49-.42,2.24-5.17-.03-10.11-.1-14.77-.21.2-.78.32-1.56.39-2.33,1.01-.2,1.92-.72,2.58-1.53.76-.93,1.12-2.1,1.01-3.29-.22-2.28-2.43-5.48-5.02-5.24-2.6.25-4.15,3.82-3.94,6.1.22,2.27,2.1,3.98,4.32,4.06-.08.73-.21,1.47-.41,2.21-5.46-.13-10.5-.29-15.03-.46.29-.97.46-1.94.55-2.89,1.01-.2,1.92-.72,2.58-1.53.77-.93,1.12-2.1,1.01-3.29-.12-1.2-.72-2.54-1.61-3.58-1.02-1.19-2.23-1.78-3.41-1.66-2.6.25-4.15,3.82-3.94,6.1.11,1.2.69,2.28,1.62,3.04.77.64,1.72.98,2.7,1.02-.1.91-.27,1.84-.57,2.75-5.63-.23-10.42-.47-14.14-.68.37-1.1.57-2.22.67-3.31,2.23-.45,3.81-2.51,3.59-4.82-.12-1.2-.72-2.54-1.61-3.57-1.02-1.19-2.24-1.77-3.41-1.66-1.18.11-2.26.92-3.03,2.28-.68,1.19-1.02,2.61-.9,3.82.11,1.2.69,2.28,1.62,3.04.77.64,1.72.98,2.7,1.02-.11,1.04-.33,2.11-.71,3.15-4.03-.24-6.6-.42-7.39-.48.2-2.03-.99-4.01-3-4.7-2.17-.75-6-.07-6.85,2.4-.85,2.47,1.75,5.36,3.92,6.11.48.17.98.25,1.46.25,1.52,0,2.96-.79,3.79-2.09.08.03.16.07.26.07.24.02,5.85.44,15.14.9.41,1.08.65,2.21.76,3.3-2.23.07-4.1,1.78-4.32,4.05-.22,2.28,1.34,5.85,3.94,6.1.1,0,.19.01.29.01,2.47,0,4.53-3.06,4.74-5.25.11-1.2-.24-2.37-1.01-3.29-.66-.8-1.57-1.32-2.58-1.53-.1-1.09-.31-2.23-.69-3.34,4.48.21,9.76.43,15.66.61.41,1.08.65,2.2.76,3.3-.98.03-1.93.37-2.7,1.01-.93.76-1.5,1.85-1.62,3.04-.22,2.28,1.34,5.85,3.94,6.1.1,0,.19.01.29.01,1.09,0,2.19-.59,3.13-1.68.89-1.04,1.5-2.37,1.61-3.57.11-1.2-.24-2.37-1.01-3.29-.66-.8-1.57-1.32-2.58-1.53-.1-1.1-.31-2.24-.69-3.36,1.82.05,3.7.1,5.63.15.05.07.11.13.2.16.07.03.14.04.21.04.15,0,.27-.08.37-.19,2.74.06,5.59.11,8.53.15.29.91.47,1.84.56,2.74-2.23.07-4.1,1.78-4.32,4.05-.22,2.28,1.34,5.85,3.94,6.1.1,0,.19.01.29.01,2.47,0,4.53-3.06,4.74-5.25.22-2.31-1.36-4.36-3.59-4.82-.09-.93-.26-1.88-.53-2.82,1.8.02,3.63.04,5.49.05.05.05.11.1.18.13.07.03.14.04.2.04.14,0,.25-.07.35-.17,1.66,0,3.33.02,5.03.02.79,0,1.61,0,2.4,0,.39,1.06.62,2.16.74,3.24-.98.03-1.93.37-2.7,1.01-.93.77-1.5,1.85-1.62,3.04-.22,2.28,1.34,5.85,3.94,6.1.1,0,.19.01.29.01,2.47,0,4.53-3.06,4.74-5.25.11-1.2-.24-2.37-1.01-3.29-.66-.8-1.57-1.32-2.58-1.53-.1-1.09-.31-2.22-.68-3.33,4.49-.02,9.11-.07,13.82-.17.39,1.05.61,2.14.73,3.21-.98.03-1.93.37-2.7,1.01-.93.76-1.5,1.85-1.62,3.04-.12,1.2.22,2.63.9,3.82.78,1.36,1.86,2.17,3.03,2.28.1,0,.19.01.29.01,1.09,0,2.19-.59,3.13-1.68.89-1.04,1.5-2.37,1.61-3.57.22-2.31-1.36-4.36-3.59-4.82-.1-1.09-.31-2.22-.68-3.32,4.88-.11,9.84-.26,14.86-.47.27.87.44,1.77.53,2.64-.99.03-1.93.37-2.7,1.01-.93.76-1.5,1.85-1.62,3.04-.22,2.28,1.34,5.85,3.94,6.1.1,0,.19.01.29.01,2.47,0,4.53-3.05,4.74-5.25.22-2.31-1.36-4.36-3.59-4.82-.09-.91-.25-1.85-.52-2.77,4.49-.2,9.03-.44,13.57-.74.39,1.05.62,2.14.73,3.21-.98.03-1.93.37-2.7,1.01-.93.76-1.5,1.85-1.62,3.04-.12,1.2.22,2.63.9,3.82.78,1.36,1.86,2.17,3.03,2.28.1,0,.19.01.29.01,2.47,0,4.53-3.05,4.74-5.25.11-1.2-.24-2.37-1.01-3.29-.66-.8-1.57-1.32-2.58-1.53-.1-1.1-.32-2.25-.7-3.37,5.2-.35,10.41-.77,15.58-1.26.27.87.43,1.75.52,2.61-.99.03-1.93.37-2.7,1.01-.93.76-1.5,1.85-1.62,3.04-.12,1.2.22,2.63.9,3.82.78,1.36,1.86,2.17,3.03,2.28.1,0,.19.01.29.01,1.09,0,2.19-.59,3.13-1.68.89-1.04,1.49-2.37,1.61-3.57.22-2.31-1.36-4.36-3.59-4.82-.09-.92-.25-1.87-.53-2.81,5.22-.51,10.4-1.11,15.5-1.79.26.86.43,1.73.52,2.59-.98.03-1.93.37-2.7,1.01-.93.76-1.5,1.85-1.62,3.04-.11,1.2.22,2.63.9,3.82.78,1.36,1.86,2.17,3.03,2.28.1,0,.19.01.29.01,1.09,0,2.19-.59,3.13-1.68.89-1.04,1.49-2.37,1.61-3.57.22-2.31-1.36-4.36-3.59-4.82-.09-.92-.25-1.88-.53-2.82,4.62-.63,9.16-1.34,13.61-2.13.33.97.52,1.96.62,2.93-.98.03-1.93.37-2.7,1.01-.93.77-1.5,1.85-1.62,3.04-.22,2.28,1.34,5.85,3.94,6.1.1,0,.19.01.29.01,2.47,0,4.53-3.05,4.74-5.25.22-2.31-1.36-4.36-3.59-4.82-.1-1.05-.3-2.14-.64-3.2,4.98-.9,9.83-1.9,14.49-3.03.55-.13.9-.69.76-1.25-.13-.56-.7-.9-1.25-.76ZM170.73,6.02c-.19-2.03,1.23-4.8,3.01-4.97.06,0,.12,0,.18,0,1.73,0,3.53,2.36,3.72,4.32.16,1.69-.92,3.2-2.49,3.66.11-3.19-.59-5.81-.64-5.98-.08-.28-.36-.44-.64-.36-.27.08-.44.36-.36.64.01.04.72,2.68.58,5.82-1.72-.04-3.2-1.36-3.37-3.12ZM156.37,10.71c-.71-.59-1.16-1.42-1.24-2.34-.19-2.03,1.23-4.8,3.01-4.97,1.78-.17,3.7,2.28,3.9,4.31.09.92-.19,1.82-.78,2.54-.45.55-1.05.93-1.71,1.12.11-3.19-.59-5.81-.64-5.98-.08-.28-.36-.44-.64-.36-.28.08-.44.36-.36.64.01.04.72,2.68.58,5.82-.77-.02-1.52-.28-2.12-.78ZM140.68,13.93c-.71-.59-1.16-1.42-1.24-2.34-.09-.98.2-2.21.77-3.2.6-1.04,1.41-1.69,2.24-1.77.06,0,.12,0,.18,0,.78,0,1.62.47,2.35,1.32.75.87,1.27,2.02,1.36,3,.16,1.68-.92,3.2-2.49,3.66.11-3.19-.59-5.81-.64-5.98-.08-.27-.36-.44-.64-.36-.27.08-.44.36-.36.64.01.04.72,2.68.58,5.82-.77-.02-1.51-.28-2.12-.78ZM125.08,14.58c-.71-.59-1.16-1.42-1.24-2.34-.09-.98.2-2.21.77-3.2.6-1.04,1.41-1.69,2.24-1.77.82-.08,1.75.4,2.53,1.31.75.87,1.27,2.02,1.36,3,.09.92-.19,1.82-.78,2.54-.45.55-1.05.93-1.71,1.12.11-3.19-.59-5.81-.64-5.98-.08-.28-.36-.44-.64-.36-.28.08-.44.36-.36.64.01.04.72,2.68.58,5.82-.77-.02-1.51-.28-2.12-.78ZM108.15,13.74c-.19-2.03,1.23-4.8,3.01-4.97,1.79-.16,3.7,2.29,3.9,4.31.09.92-.19,1.82-.78,2.54-.45.55-1.05.93-1.71,1.12.11-3.19-.59-5.81-.64-5.98-.08-.28-.36-.44-.64-.36-.28.08-.44.36-.36.64.01.04.72,2.68.58,5.82-1.73-.04-3.19-1.36-3.36-3.12ZM92.38,14.39c-.19-2.03,1.23-4.8,3-4.97.06,0,.12,0,.18,0,1.73,0,3.53,2.36,3.72,4.32.16,1.69-.92,3.2-2.49,3.66.11-3.19-.59-5.81-.64-5.98-.08-.28-.36-.44-.64-.36-.27.08-.44.36-.36.64.01.04.72,2.68.59,5.82-1.72-.04-3.2-1.36-3.37-3.12ZM77.85,17.39c-.71-.59-1.16-1.42-1.24-2.34-.19-2.03,1.23-4.8,3.01-4.97.06,0,.12,0,.18,0,.78,0,1.62.47,2.35,1.32.75.87,1.27,2.02,1.36,3,.09.92-.19,1.82-.78,2.54-.45.55-1.05.93-1.71,1.12.11-3.19-.59-5.81-.64-5.98-.08-.28-.36-.44-.64-.36-.27.08-.44.36-.36.64.01.04.72,2.68.59,5.82-.77-.02-1.52-.28-2.12-.78ZM62.94,17.96c-.71-.59-1.16-1.42-1.24-2.34-.09-.98.2-2.21.77-3.2.6-1.04,1.41-1.69,2.24-1.77.06,0,.12,0,.18,0,1.73,0,3.53,2.36,3.72,4.32.16,1.68-.92,3.2-2.49,3.66.11-3.19-.59-5.81-.64-5.97-.08-.28-.36-.44-.64-.36-.27.08-.44.36-.36.64.01.04.72,2.68.58,5.82-.77-.02-1.52-.28-2.12-.78ZM45.84,15.41c-.19-2.03,1.23-4.8,3-4.97,1.78-.18,3.7,2.28,3.9,4.31.09.92-.19,1.82-.78,2.54-.45.55-1.05.93-1.71,1.12.11-3.19-.59-5.81-.64-5.98-.08-.28-.36-.44-.64-.36-.28.08-.44.36-.36.64.01.04.72,2.68.58,5.82-1.73-.04-3.2-1.36-3.36-3.12ZM31.15,16.7c-.71-.59-1.16-1.42-1.24-2.34-.19-2.03,1.23-4.8,3.01-4.97.06,0,.12,0,.18,0,.78,0,1.62.47,2.35,1.32.75.87,1.27,2.02,1.36,3,.09.92-.19,1.82-.78,2.54-.45.55-1.05.93-1.71,1.12.11-3.19-.59-5.81-.64-5.98-.08-.28-.36-.44-.64-.36-.27.08-.44.36-.36.64.01.04.72,2.68.59,5.82-.77-.02-1.52-.28-2.12-.78ZM16.07,15.57c-.71-.59-1.16-1.42-1.24-2.34-.09-.98.2-2.21.77-3.2.6-1.04,1.41-1.69,2.24-1.77.06,0,.12,0,.18,0,.78,0,1.62.47,2.35,1.32.75.87,1.27,2.02,1.36,3,.16,1.68-.92,3.2-2.49,3.66.11-3.19-.59-5.81-.64-5.97-.08-.28-.36-.44-.64-.36-.27.08-.44.36-.36.64.01.04.72,2.68.59,5.82-.77-.02-1.52-.27-2.12-.78ZM28.32,28.56c.59.71.86,1.61.78,2.54-.19,2.03-2.13,4.49-3.9,4.31-1.78-.17-3.2-2.95-3.01-4.97.17-1.76,1.64-3.08,3.36-3.12.14,3.14-.57,5.78-.58,5.82-.08.28.08.56.36.64.05.01.09.02.14.02.23,0,.43-.15.5-.38.05-.17.75-2.78.64-5.98.67.19,1.26.58,1.71,1.12ZM45.11,29.22c.59.71.86,1.62.78,2.54-.09.98-.62,2.13-1.36,3-.79.91-1.72,1.39-2.53,1.31-1.78-.17-3.2-2.94-3.01-4.97.09-.92.53-1.75,1.24-2.34.61-.5,1.35-.76,2.12-.78.14,3.14-.57,5.78-.58,5.82-.08.28.08.56.36.64.05.01.09.02.14.02.23,0,.43-.15.5-.38.05-.17.75-2.78.63-5.98.67.19,1.26.57,1.71,1.12ZM61.74,31.56c-.19,2.03-2.12,4.5-3.9,4.31-1.78-.17-3.2-2.95-3.01-4.97.17-1.76,1.64-3.09,3.36-3.12.14,3.15-.57,5.79-.58,5.82-.08.27.08.56.36.64.05.01.09.02.14.02.23,0,.43-.15.5-.38.05-.17.75-2.78.64-5.98,1.57.45,2.65,1.97,2.49,3.66ZM4.42,22.88c-1.92-.66-3.86-3.11-3.28-4.8.44-1.27,2.27-2,3.96-2,.56,0,1.1.08,1.57.24,1.67.58,2.61,2.31,2.24,4-3.09-.6-5.49-1.91-5.52-1.93-.25-.14-.56-.05-.7.2-.14.25-.05.56.2.7.15.08,2.53,1.38,5.66,2.02-.81,1.42-2.54,2.11-4.13,1.56ZM75.88,29.59c.59.71.86,1.61.78,2.54-.19,2.03-2.13,4.5-3.9,4.31-1.78-.17-3.2-2.95-3.01-4.97.09-.92.53-1.75,1.24-2.34.61-.5,1.35-.76,2.12-.78.14,3.15-.57,5.78-.58,5.82-.08.28.08.56.36.64.05.01.09.02.14.02.23,0,.43-.15.5-.38.05-.17.75-2.78.64-5.98.67.19,1.26.58,1.71,1.12ZM91.57,31.92c-.09.98-.62,2.13-1.36,3-.79.91-1.7,1.39-2.53,1.31-.82-.08-1.64-.72-2.24-1.77-.57-.99-.86-2.22-.77-3.2.09-.92.53-1.75,1.24-2.34.61-.5,1.35-.77,2.12-.79.14,3.15-.57,5.79-.58,5.83-.08.28.08.56.36.64.05.01.09.02.14.02.23,0,.43-.15.5-.38.05-.17.75-2.78.64-5.98,1.57.45,2.65,1.97,2.49,3.66ZM107.34,30.86c-.19,2.03-2.13,4.48-3.9,4.31-1.78-.17-3.2-2.94-3.01-4.97.09-.92.53-1.75,1.25-2.34.6-.5,1.35-.76,2.12-.78.14,3.14-.57,5.78-.58,5.82-.08.28.08.56.36.64.05.01.09.02.14.02.23,0,.43-.15.5-.38.05-.17.75-2.78.64-5.97,1.57.45,2.65,1.97,2.49,3.66ZM121.39,28.12c.59.71.87,1.62.78,2.54-.19,2.03-2.12,4.48-3.9,4.31-.82-.08-1.64-.72-2.24-1.77-.57-.99-.86-2.22-.77-3.2.09-.92.53-1.75,1.24-2.34.61-.5,1.35-.77,2.12-.79.14,3.15-.57,5.79-.58,5.83-.08.27.08.56.36.64.05.01.09.02.14.02.23,0,.43-.15.5-.38.05-.17.75-2.78.64-5.98.67.19,1.26.57,1.71,1.12ZM138.63,28.73c-.09.98-.62,2.13-1.36,3-.79.91-1.7,1.39-2.53,1.31-.82-.08-1.64-.72-2.24-1.77-.57-.99-.86-2.22-.77-3.2.09-.92.53-1.75,1.24-2.34.61-.5,1.35-.77,2.12-.79.14,3.15-.57,5.79-.58,5.83-.08.28.08.56.36.64.05.01.09.02.14.02.23,0,.43-.15.5-.38.05-.17.75-2.78.64-5.98,1.57.45,2.65,1.97,2.49,3.66ZM155.18,26.81c-.09.98-.62,2.13-1.36,3-.79.91-1.7,1.4-2.53,1.31-.82-.08-1.64-.72-2.24-1.77-.57-.99-.86-2.22-.77-3.2.09-.92.53-1.75,1.24-2.34.61-.5,1.35-.76,2.12-.78.14,3.15-.57,5.79-.58,5.82-.08.28.08.56.36.64.05.01.09.02.14.02.23,0,.43-.15.5-.38.05-.17.75-2.78.64-5.98,1.57.45,2.65,1.97,2.49,3.66ZM169.93,24.88c-.19,2.03-2.13,4.48-3.9,4.31-1.78-.17-3.2-2.95-3.01-4.97.09-.92.53-1.75,1.24-2.34.61-.5,1.35-.77,2.12-.79.14,3.15-.57,5.79-.58,5.83-.08.28.08.56.36.64.05.01.09.02.14.02.23,0,.43-.15.5-.38.05-.17.75-2.78.64-5.98,1.57.45,2.65,1.97,2.49,3.66Z"/>
      <path class="cls-1" d="M393.39,17.75c-.85-2.47-4.68-3.15-6.85-2.4-2.01.69-3.2,2.67-3,4.7-.79.06-3.36.24-7.39.48-.37-1.03-.6-2.1-.7-3.15.99-.03,1.93-.38,2.7-1.02.93-.76,1.5-1.85,1.62-3.04.11-1.2-.22-2.63-.9-3.82-.78-1.36-1.86-2.17-3.03-2.28-1.19-.11-2.39.48-3.41,1.66-.89,1.04-1.49,2.37-1.61,3.57-.11,1.2.24,2.37,1.01,3.29.66.8,1.57,1.32,2.58,1.53.1,1.08.31,2.21.67,3.31-3.71.21-8.5.45-14.14.68-.29-.91-.47-1.84-.56-2.75.99-.03,1.93-.38,2.7-1.02.93-.76,1.5-1.85,1.62-3.04.22-2.28-1.34-5.85-3.94-6.1-1.18-.11-2.39.48-3.41,1.66-.89,1.04-1.49,2.37-1.61,3.58-.11,1.2.24,2.37,1.01,3.29.66.8,1.57,1.32,2.58,1.53.09.95.26,1.93.55,2.89-4.53.18-9.57.34-15.03.46-.2-.74-.33-1.48-.41-2.21,2.22-.08,4.1-1.78,4.32-4.06.22-2.28-1.34-5.85-3.94-6.1-2.6-.25-4.8,2.96-5.02,5.24-.11,1.2.24,2.37,1.01,3.29.66.8,1.57,1.32,2.58,1.53.07.76.19,1.55.39,2.33-4.66.1-9.6.18-14.77.21-.2-.74-.34-1.5-.42-2.24.99-.03,1.93-.38,2.7-1.02.93-.76,1.5-1.85,1.62-3.04.12-1.2-.22-2.63-.9-3.82-.78-1.36-1.85-2.17-3.03-2.28-2.6-.24-4.8,2.96-5.02,5.24-.22,2.31,1.36,4.36,3.59,4.82.07.77.19,1.56.39,2.34-4.42.02-8.99.01-13.68-.04-.3-.92-.47-1.85-.57-2.77.99-.03,1.93-.38,2.7-1.02.93-.76,1.5-1.85,1.62-3.04.22-2.28-1.34-5.85-3.94-6.1-1.18-.11-2.39.48-3.41,1.66-.89,1.04-1.49,2.37-1.61,3.57-.11,1.2.24,2.37,1.01,3.29.66.8,1.57,1.32,2.58,1.53.09.94.26,1.9.54,2.86-4.75-.06-9.63-.16-14.57-.31-.36-1.02-.58-2.07-.69-3.1,2.22-.08,4.1-1.79,4.32-4.06.22-2.28-1.34-5.85-3.94-6.1-2.6-.25-4.8,2.96-5.02,5.24-.22,2.31,1.36,4.36,3.59,4.82.1,1.04.29,2.11.63,3.16-4.83-.16-9.73-.36-14.66-.62-.36-1.02-.58-2.07-.68-3.09.99-.03,1.93-.38,2.7-1.02.93-.77,1.5-1.85,1.62-3.04.22-2.28-1.34-5.85-3.94-6.1-2.6-.26-4.8,2.96-5.02,5.24-.22,2.31,1.36,4.36,3.59,4.82.1,1.03.29,2.09.62,3.13-4.78-.26-9.59-.58-14.39-.97-.48-1.16-.74-2.38-.87-3.57.99-.03,1.93-.38,2.7-1.02.93-.76,1.5-1.85,1.62-3.04.12-1.2-.22-2.63-.9-3.82-.78-1.36-1.86-2.17-3.03-2.28-1.18-.11-2.39.48-3.41,1.66-.89,1.04-1.5,2.37-1.61,3.57-.22,2.31,1.36,4.36,3.59,4.82.11,1.17.35,2.39.78,3.58-4.95-.41-9.89-.88-14.78-1.43-.28-.89-.45-1.8-.55-2.69.99-.03,1.93-.38,2.7-1.02.93-.76,1.5-1.85,1.62-3.04.12-1.2-.22-2.63-.9-3.82-.78-1.36-1.86-2.17-3.03-2.28-1.17-.11-2.39.48-3.41,1.66-.89,1.04-1.5,2.37-1.61,3.57-.22,2.31,1.36,4.36,3.59,4.82.08.87.24,1.77.48,2.66-4.78-.55-9.51-1.18-14.16-1.89,0-.05-.01-.1-.03-.15-.52-1.21-.8-2.5-.93-3.75.99-.03,1.93-.38,2.7-1.02.93-.76,1.5-1.85,1.62-3.04.12-1.2-.22-2.63-.9-3.82-.78-1.36-1.85-2.17-3.03-2.28-2.6-.23-4.8,2.96-5.02,5.24-.11,1.2.24,2.37,1.01,3.29.66.8,1.57,1.32,2.58,1.53.12,1.25.38,2.55.87,3.81-4.99-.78-9.88-1.66-14.61-2.64-.44-1.12-.69-2.29-.81-3.43,2.22-.08,4.1-1.79,4.32-4.06.22-2.28-1.34-5.85-3.94-6.1-1.18-.11-2.39.48-3.41,1.66-.89,1.04-1.5,2.37-1.61,3.57-.22,2.31,1.36,4.36,3.59,4.82.1,1.08.3,2.19.67,3.28-2.14-.46-4.25-.93-6.31-1.43-.55-.13-1.11.21-1.25.76-.13.55.21,1.11.76,1.25,4.66,1.13,9.51,2.13,14.49,3.03-.35,1.07-.54,2.15-.64,3.2-1.01.2-1.92.72-2.58,1.53-.77.93-1.12,2.1-1.01,3.29.21,2.2,2.26,5.25,4.74,5.25.09,0,.19,0,.29-.01,2.6-.25,4.15-3.82,3.94-6.1-.11-1.2-.69-2.28-1.62-3.04-.77-.64-1.72-.97-2.7-1.01.1-.97.29-1.97.62-2.93,4.44.79,8.99,1.5,13.61,2.13-.27.94-.44,1.89-.53,2.82-2.23.45-3.81,2.51-3.59,4.82.12,1.2.72,2.54,1.61,3.57.94,1.09,2.04,1.68,3.13,1.68.1,0,.19,0,.29-.01,1.18-.11,2.26-.92,3.03-2.28.68-1.19,1.02-2.62.9-3.82-.12-1.2-.69-2.28-1.62-3.04-.77-.64-1.72-.97-2.7-1.01.09-.86.25-1.73.52-2.59,5.1.68,10.28,1.28,15.5,1.79-.27.94-.44,1.89-.53,2.81-2.23.45-3.81,2.51-3.59,4.82.12,1.2.72,2.54,1.61,3.57.94,1.09,2.04,1.68,3.13,1.68.1,0,.19,0,.29-.01,1.18-.11,2.26-.92,3.04-2.28.68-1.19,1.02-2.61.9-3.82-.11-1.2-.69-2.28-1.62-3.04-.77-.64-1.72-.98-2.71-1.01.09-.86.26-1.75.52-2.61,5.18.49,10.38.92,15.58,1.26-.38,1.12-.59,2.26-.7,3.37-1.01.2-1.92.72-2.58,1.53-.77.93-1.12,2.1-1.01,3.29.12,1.2.72,2.54,1.61,3.57.94,1.09,2.04,1.68,3.13,1.68.1,0,.19,0,.29-.01,1.18-.11,2.26-.92,3.03-2.28.68-1.19,1.02-2.61.9-3.82-.11-1.2-.69-2.28-1.62-3.04-.77-.64-1.72-.98-2.71-1.01.11-1.06.34-2.16.73-3.21,4.54.29,9.08.54,13.57.74-.27.93-.43,1.86-.52,2.77-2.23.45-3.81,2.51-3.59,4.82.21,2.2,2.27,5.25,4.74,5.25.1,0,.19,0,.29-.01,1.18-.11,2.26-.92,3.03-2.28.68-1.19,1.02-2.61.9-3.82-.11-1.2-.69-2.28-1.62-3.04-.77-.64-1.72-.98-2.71-1.01.09-.87.26-1.77.53-2.64,5.02.21,9.99.36,14.87.47-.37,1.1-.58,2.23-.68,3.32-1.01.2-1.92.72-2.58,1.53-.77.93-1.12,2.1-1.01,3.29.12,1.2.72,2.54,1.61,3.57.94,1.09,2.04,1.68,3.13,1.68.1,0,.19,0,.29-.01,1.18-.11,2.26-.92,3.04-2.28.68-1.19,1.02-2.61.9-3.82-.11-1.2-.69-2.28-1.62-3.04-.77-.64-1.72-.98-2.71-1.01.11-1.06.34-2.16.73-3.21,4.71.1,9.33.15,13.82.17-.37,1.11-.58,2.24-.68,3.33-1.01.2-1.92.72-2.58,1.53-.77.93-1.12,2.1-1.01,3.29.21,2.2,2.26,5.25,4.74,5.25.09,0,.19,0,.29-.01,2.6-.25,4.15-3.82,3.94-6.1-.22-2.27-2.1-3.97-4.32-4.05.11-1.08.34-2.18.74-3.24.8,0,1.61,0,2.4,0,1.7,0,3.37,0,5.03-.02.1.1.21.17.35.17.07,0,.14-.01.2-.04.07-.03.13-.07.18-.13,1.86-.01,3.69-.03,5.49-.05-.28.94-.44,1.9-.53,2.82-2.23.45-3.81,2.51-3.59,4.82.21,2.2,2.27,5.25,4.74,5.25.09,0,.19,0,.29-.01,2.6-.25,4.15-3.82,3.94-6.1-.22-2.27-2.1-3.95-4.32-4.04.09-.91.27-1.84.56-2.75,2.94-.04,5.78-.09,8.53-.15.1.11.22.19.37.19.07,0,.14-.01.21-.04.08-.04.15-.1.2-.16,1.93-.05,3.81-.09,5.63-.15-.38,1.11-.59,2.25-.69,3.36-1.01.2-1.92.72-2.58,1.53-.76.93-1.12,2.1-1.01,3.29.12,1.2.72,2.54,1.61,3.57.94,1.09,2.04,1.68,3.13,1.68.1,0,.19,0,.29-.01,2.6-.25,4.15-3.82,3.94-6.1-.12-1.2-.69-2.28-1.62-3.04-.77-.64-1.72-.98-2.71-1.01.11-1.09.35-2.22.76-3.3,5.9-.18,11.18-.4,15.66-.61-.38,1.11-.58,2.24-.69,3.34-1.01.2-1.92.72-2.58,1.53-.77.93-1.12,2.1-1.01,3.29.21,2.2,2.26,5.25,4.74,5.25.09,0,.19,0,.29-.01,2.6-.25,4.16-3.82,3.94-6.1-.22-2.27-2.1-3.96-4.32-4.05.11-1.1.35-2.22.76-3.3,9.29-.45,14.9-.88,15.14-.9.09,0,.17-.04.26-.07.83,1.3,2.26,2.09,3.79,2.09.48,0,.98-.08,1.46-.25,2.17-.75,4.77-3.64,3.92-6.11ZM372.61,15.1c-.59-.71-.86-1.61-.78-2.54.09-.98.62-2.13,1.36-3,.73-.85,1.58-1.32,2.35-1.32.06,0,.12,0,.18,0,.82.08,1.64.72,2.24,1.77.57.99.86,2.22.77,3.2-.09.92-.53,1.75-1.24,2.34-.61.5-1.35.76-2.12.78-.14-3.14.57-5.78.58-5.82.08-.28-.08-.56-.36-.64-.27-.08-.56.08-.64.36-.05.17-.75,2.78-.64,5.98-.67-.19-1.26-.57-1.71-1.12ZM357.53,16.23c-.59-.71-.86-1.62-.78-2.54.09-.98.62-2.13,1.36-3,.73-.85,1.58-1.32,2.35-1.32.06,0,.12,0,.18,0,1.78.17,3.2,2.94,3.01,4.97-.09.92-.53,1.75-1.24,2.34-.61.5-1.35.76-2.12.78-.14-3.14.57-5.78.58-5.82.08-.28-.08-.56-.36-.64-.27-.08-.56.08-.64.36-.05.17-.75,2.78-.64,5.98-.67-.19-1.26-.57-1.71-1.12ZM341.59,17.29c-.59-.71-.86-1.61-.78-2.54.19-1.96,1.99-4.32,3.72-4.32.06,0,.12,0,.18,0,1.78.17,3.2,2.95,3.01,4.97-.17,1.76-1.64,3.08-3.36,3.12-.14-3.14.57-5.78.58-5.82.08-.28-.08-.56-.36-.64-.27-.08-.56.08-.64.36-.05.17-.75,2.78-.64,5.98-.67-.19-1.26-.58-1.71-1.12ZM324.97,14.95c.19-1.96,1.99-4.32,3.72-4.32.06,0,.12,0,.18,0,.82.08,1.64.72,2.24,1.77.57.99.86,2.22.77,3.2-.09.92-.53,1.75-1.24,2.34-.6.5-1.35.76-2.12.78-.14-3.14.57-5.78.58-5.82.08-.28-.08-.56-.36-.64-.27-.08-.56.08-.64.36-.05.17-.75,2.78-.64,5.97-1.57-.45-2.65-1.97-2.49-3.66ZM310.83,16.92c-.59-.71-.87-1.61-.78-2.54.09-.98.62-2.13,1.36-3,.73-.85,1.58-1.32,2.35-1.32.06,0,.12,0,.18,0,1.78.17,3.2,2.94,3.01,4.97-.09.92-.53,1.75-1.24,2.34-.61.5-1.34.76-2.12.78-.14-3.14.57-5.78.58-5.82.08-.28-.08-.56-.36-.64-.27-.08-.56.08-.64.36-.05.17-.75,2.78-.64,5.98-.67-.19-1.26-.57-1.71-1.12ZM294.28,13.73c.19-1.96,1.99-4.32,3.72-4.32.06,0,.12,0,.18,0,1.78.17,3.2,2.95,3.01,4.97-.17,1.76-1.64,3.08-3.36,3.12-.14-3.14.57-5.78.58-5.82.08-.28-.08-.56-.36-.64-.27-.08-.56.08-.64.36-.05.17-.75,2.78-.64,5.98-1.57-.45-2.65-1.97-2.49-3.66ZM278.51,13.08c.19-1.96,1.99-4.32,3.72-4.32.06,0,.12,0,.18,0,1.78.17,3.2,2.95,3.01,4.97-.09.92-.53,1.75-1.24,2.34-.61.5-1.35.76-2.12.78-.14-3.15.57-5.79.58-5.82.08-.28-.08-.56-.36-.64-.27-.08-.56.08-.64.36-.05.17-.75,2.78-.64,5.98-1.57-.45-2.65-1.97-2.49-3.66ZM262.82,11.57c.09-.98.62-2.13,1.36-3,.73-.85,1.58-1.32,2.35-1.32.06,0,.12,0,.18,0,.82.08,1.64.72,2.24,1.77.57.99.86,2.22.77,3.2-.09.92-.53,1.75-1.24,2.34-.6.5-1.35.76-2.12.78-.14-3.15.57-5.78.58-5.82.08-.28-.08-.56-.36-.64-.27-.08-.56.08-.64.36-.05.17-.75,2.78-.64,5.98-1.57-.45-2.65-1.97-2.49-3.66ZM247.22,10.93c.09-.98.62-2.13,1.36-3,.73-.85,1.58-1.32,2.35-1.32.06,0,.12,0,.18,0,.82.08,1.64.72,2.24,1.77.57.99.86,2.22.77,3.2-.09.92-.53,1.75-1.24,2.34-.61.5-1.35.76-2.12.78-.14-3.15.57-5.78.58-5.82.08-.27-.08-.56-.36-.64-.27-.08-.56.08-.64.36-.05.17-.75,2.78-.64,5.98-1.57-.45-2.65-1.97-2.49-3.66ZM232.31,10.25c-.59-.71-.87-1.62-.78-2.54.19-1.96,1.99-4.32,3.72-4.32.06,0,.12,0,.18,0,.82.08,1.64.72,2.24,1.77.57.99.86,2.22.77,3.2-.09.92-.53,1.75-1.24,2.34-.61.5-1.35.76-2.12.78-.14-3.15.57-5.78.58-5.82.08-.28-.08-.56-.36-.64-.27-.08-.56.08-.64.36-.05.17-.75,2.78-.64,5.98-.67-.19-1.26-.57-1.71-1.12ZM215.92,5.35c.09-.98.62-2.13,1.36-3,.73-.85,1.58-1.32,2.35-1.32.06,0,.12,0,.18,0,1.78.17,3.2,2.95,3.01,4.97-.17,1.76-1.64,3.08-3.36,3.12-.14-3.14.57-5.78.58-5.82.08-.28-.08-.56-.36-.64-.27-.08-.56.08-.64.36-.05.17-.75,2.78-.64,5.98-1.57-.45-2.65-1.97-2.49-3.66ZM229.29,21.88c.71.59,1.16,1.42,1.24,2.34.19,2.03-1.23,4.8-3.01,4.97-1.8.18-3.7-2.28-3.9-4.31-.09-.92.19-1.82.78-2.54.45-.55,1.05-.93,1.71-1.12-.11,3.19.59,5.81.64,5.98.06.23.27.38.5.38.05,0,.09,0,.14-.02.27-.08.44-.36.36-.64-.01-.04-.72-2.68-.58-5.83.77.02,1.51.29,2.12.79ZM244.04,23.8c.71.59,1.16,1.42,1.24,2.34.09.98-.2,2.21-.77,3.2-.6,1.04-1.41,1.69-2.24,1.77-.81.09-1.75-.4-2.53-1.31-.75-.87-1.27-2.02-1.36-3-.16-1.68.92-3.2,2.49-3.66-.11,3.19.59,5.81.64,5.98.06.23.27.38.5.38.05,0,.09,0,.14-.02.27-.08.44-.36.36-.64-.01-.04-.72-2.68-.58-5.83.77.02,1.51.29,2.12.79ZM260.58,25.72c.71.59,1.16,1.42,1.24,2.34.09.98-.2,2.21-.77,3.2-.6,1.04-1.41,1.69-2.24,1.77-.82.08-1.75-.4-2.53-1.31-.75-.87-1.27-2.02-1.36-3-.16-1.68.92-3.2,2.49-3.66-.11,3.19.59,5.81.64,5.98.06.23.27.38.5.38.05,0,.09,0,.14-.02.27-.08.44-.36.36-.64-.01-.04-.72-2.68-.58-5.83.77.02,1.52.29,2.12.79ZM277.04,27.65c.71.59,1.16,1.42,1.24,2.34.09.98-.2,2.21-.77,3.2-.6,1.04-1.41,1.69-2.24,1.77-.82.09-1.75-.4-2.53-1.31-.75-.87-1.27-2.02-1.36-3-.09-.92.19-1.82.78-2.54.45-.55,1.04-.93,1.71-1.12-.11,3.19.59,5.81.64,5.98.06.23.27.38.5.38.05,0,.09,0,.14-.02.27-.08.44-.36.36-.64-.01-.04-.72-2.68-.58-5.83.77.02,1.52.29,2.12.79ZM291.88,27.86c.71.59,1.16,1.42,1.24,2.34.09.98-.2,2.21-.77,3.2-.6,1.04-1.41,1.69-2.24,1.77-1.77.18-3.7-2.28-3.9-4.31-.16-1.68.92-3.2,2.49-3.66-.11,3.19.59,5.81.64,5.97.06.23.27.38.5.38.05,0,.09,0,.14-.02.27-.08.44-.36.36-.64-.01-.04-.72-2.68-.58-5.83.77.02,1.52.29,2.12.79ZM307.65,28.92c.71.59,1.16,1.42,1.24,2.34.09.98-.2,2.21-.77,3.2-.6,1.04-1.41,1.69-2.24,1.77-.82.08-1.75-.4-2.53-1.31-.75-.87-1.27-2.02-1.36-3-.09-.92.19-1.82.78-2.54.45-.55,1.05-.93,1.71-1.12-.11,3.19.59,5.81.64,5.98.06.23.27.38.5.38.05,0,.09,0,.14-.02.27-.08.44-.36.36-.64-.01-.04-.72-2.68-.58-5.83.77.02,1.52.29,2.12.79ZM323.8,31.47c.19,2.03-1.23,4.8-3.01,4.97-1.78.2-3.7-2.28-3.9-4.31-.09-.92.19-1.82.78-2.54.45-.55,1.05-.93,1.71-1.12-.11,3.19.59,5.81.64,5.98.06.23.27.38.5.38.05,0,.09,0,.14-.02.27-.08.44-.36.36-.64-.01-.04-.72-2.68-.58-5.83,1.73.04,3.2,1.37,3.36,3.13ZM338.72,30.9c.19,2.03-1.23,4.8-3.01,4.97-1.78.19-3.7-2.28-3.9-4.31-.16-1.68.92-3.2,2.49-3.66-.11,3.19.59,5.81.64,5.98.06.23.27.38.5.38.05,0,.09,0,.14-.02.27-.08.44-.36.36-.64-.01-.04-.72-2.68-.58-5.83,1.73.04,3.2,1.37,3.36,3.13ZM353.33,28.75c.71.59,1.16,1.42,1.24,2.34.19,2.03-1.23,4.8-3.01,4.97-.81.08-1.75-.4-2.53-1.31-.75-.87-1.27-2.02-1.36-3-.09-.92.19-1.82.78-2.54.45-.55,1.05-.93,1.71-1.12-.11,3.19.59,5.81.64,5.98.06.23.27.38.5.38.05,0,.09,0,.14-.02.28-.08.44-.36.36-.64-.01-.04-.72-2.68-.58-5.83.77.02,1.52.29,2.12.79ZM371.36,30.44c.19,2.03-1.23,4.8-3.01,4.97-1.77.18-3.7-2.28-3.9-4.31-.09-.92.19-1.82.78-2.54.45-.55,1.05-.93,1.71-1.12-.11,3.19.59,5.81.64,5.98.06.23.27.38.5.38.05,0,.09,0,.14-.02.27-.08.44-.36.36-.64-.01-.04-.72-2.68-.58-5.83,1.73.04,3.2,1.37,3.36,3.13ZM389.14,22.88c-1.6.55-3.33-.15-4.13-1.56,3.13-.64,5.51-1.94,5.66-2.02.25-.14.34-.45.2-.7-.14-.25-.45-.34-.7-.2-.04.02-2.43,1.33-5.52,1.93-.36-1.69.57-3.42,2.24-4,1.92-.66,4.96.07,5.54,1.76.58,1.69-1.35,4.13-3.28,4.8Z"/>
    </g>
  </g>
</svg>