<?xml version="1.0" encoding="UTF-8"?>
<svg id="Layer_2" data-name="Layer 2" xmlns="http://www.w3.org/2000/svg" viewBox="0 0 393.53 43.36">
  <defs>
    <style>
      .cls-1 {
        fill: #201522;
      }
    </style>
  </defs>
  <g id="Objects">
    <g>
      <path class="cls-1" d="M186.42,9.99c2.01-2.66,3.64-5.52,4.85-8.61.2-.52-.05-1.11-.57-1.31-.52-.21-1.1.05-1.31.57-1.02,2.6-2.35,5-3.93,7.22-.3-.98-.76-2.11-1.46-3.07-.92-1.26-2.4-2.02-3.95-2.04-.02,0-.04,0-.06,0-2.25,0-3.51,1.57-3.99,2.64-.79.1-1.26.31-1.32.34-.25.12-.36.42-.25.67.12.25.42.37.67.25.01,0,.34-.14.92-.23,1.57,3.8,4.64,4.59,6.89,4.59,0,0,.02,0,.03,0-2.94,3.26-6.53,6.07-10.64,8.47.07-1.12.04-2.66-.42-4.04-.49-1.48-1.66-2.66-3.13-3.16-2.16-.73-3.88.39-4.66,1.27-.79-.15-1.3-.09-1.36-.09-.28.03-.47.28-.44.56.03.28.28.47.56.44.05,0,.4-.03.96.06.35,4.34,3.31,5.98,5.5,6.6-4.09,2.08-8.63,3.82-13.5,5.25.28-1.06.52-2.47.36-3.82-.18-1.55-1.08-2.94-2.42-3.73-1.97-1.16-3.87-.41-4.83.28-.74-.3-1.25-.36-1.32-.36-.28-.02-.52.18-.55.46-.02.28.18.52.46.55.05,0,.4.05.92.25-.52,4.07,1.73,6.27,3.67,7.39-4.46,1.14-9.16,2.05-14.05,2.76.54-1,1.19-2.46,1.35-3.98h0c.16-1.55-.42-3.11-1.56-4.17-1.67-1.55-3.69-1.24-4.77-.76-.66-.46-1.15-.62-1.21-.64-.27-.08-.55.06-.63.33-.08.26.06.55.33.63.05.02.38.14.85.44-1.57,4.37.85,7.17,2.64,8.55-4.39.56-8.91.96-13.51,1.23.56-.89,1.15-2.03,1.41-3.25.33-1.52-.08-3.14-1.09-4.31-1.49-1.73-3.53-1.64-4.66-1.28-.6-.53-1.07-.74-1.13-.77-.25-.11-.55,0-.66.26-.11.25,0,.55.25.67.04.02.36.17.78.53-1.87,3.81-.28,6.69,1.26,8.36-4.4.19-8.86.27-13.34.25.65-.9,1.41-2.17,1.75-3.54.38-1.51.02-3.14-.95-4.35-1.43-1.77-3.48-1.75-4.62-1.43-.59-.55-1.05-.78-1.1-.81-.25-.12-.55-.01-.67.24-.12.25-.02.55.23.67.04.02.35.19.77.55-2.09,3.93-.34,6.96,1.2,8.63-4.65-.07-9.31-.23-13.94-.47.69-.9,1.67-2.4,2.06-4.03.37-1.52,0-3.14-.99-4.34-1.45-1.76-3.49-1.72-4.63-1.39-.59-.54-1.05-.77-1.11-.79-.25-.12-.55-.01-.67.24-.12.25-.01.55.24.67.04.02.36.18.77.55-2.19,4.21-.02,7.36,1.58,8.94-4.7-.28-9.36-.64-13.92-1.05.69-.88,1.53-2.15,1.94-3.55.44-1.5.14-3.13-.79-4.38-1.37-1.83-3.41-1.88-4.56-1.6-.57-.57-1.02-.81-1.07-.84-.25-.13-.55-.03-.68.21-.13.25-.03.55.21.68.01,0,.32.18.74.59-2.19,3.78-.64,6.83.81,8.57-4.42-.43-8.74-.91-12.91-1.42.67-.92,1.59-2.39,1.96-3.99.35-1.52-.05-3.14-1.05-4.32-1.47-1.74-3.52-1.67-4.65-1.32-.6-.53-1.06-.75-1.12-.78-.25-.11-.55,0-.67.25-.12.25,0,.55.25.67.04.02.36.18.78.53-1.99,3.96-.2,6.93,1.37,8.57-4.94-.63-9.65-1.3-14.05-1.98.74-.82,1.96-2.34,2.5-4.08.47-1.49.21-3.13-.7-4.39-1.33-1.85-3.37-1.95-4.52-1.7-.55-.58-1-.84-1.05-.87-.25-.13-.55-.05-.68.2-.14.24-.05.55.19.69.04.02.34.21.73.6-2.55,4.19-.38,7.56,1.13,9.19-5.38-.84-10.24-1.68-14.4-2.44.55-1,1.24-2.51,1.4-4.08h0c.16-1.55-.42-3.11-1.56-4.17-1.67-1.55-3.69-1.24-4.77-.76-.66-.46-1.15-.62-1.21-.64-.27-.08-.55.06-.63.33-.08.26.06.55.33.63.05.02.38.14.85.44-1.23,3.44,0,5.9,1.46,7.47-6.23-1.18-10.31-2.07-11.46-2.33.34-.62.78-1.58.89-2.57.1-1-.27-2.01-1.01-2.69-1.04-.96-2.28-.82-3.01-.54-.38-.25-.65-.34-.69-.35-.27-.08-.54.06-.63.33-.08.26.06.55.32.64.02,0,.15.05.33.16-.89,2.7.64,4.57,2.01,5.48-1.37.91-2.9,2.78-2.01,5.48-.18.11-.31.16-.33.16-.26.08-.41.37-.33.63.07.22.27.35.48.35.05,0,.1,0,.15-.02.04-.01.31-.11.69-.35.3.12.69.21,1.11.21.6,0,1.29-.18,1.89-.75.73-.68,1.11-1.68,1.01-2.69-.05-.45-.16-.88-.31-1.29,2.03.44,6.27,1.33,12.15,2.44-1.8,1.36-4.31,4.18-2.72,8.61-.47.31-.8.43-.85.44-.26.09-.41.37-.33.63.07.22.27.35.48.35.05,0,.1,0,.15-.02.06-.02.55-.18,1.21-.64.48.21,1.13.39,1.87.39.93,0,1.97-.29,2.91-1.15,1.14-1.06,1.72-2.61,1.56-4.16h0c-.15-1.48-.78-2.91-1.31-3.9,3.68.67,7.87,1.4,12.46,2.14-1.75,1.24-3.47,3.41-2.95,7.05-.52.21-.87.26-.92.27-.28.03-.48.28-.45.55.03.26.25.45.5.45.02,0,.03,0,.05,0,.06,0,.58-.07,1.32-.39.59.42,1.52.85,2.61.85.7,0,1.45-.17,2.21-.64,1.33-.81,2.21-2.22,2.36-3.77.13-1.3-.11-2.65-.39-3.69,4.17.64,8.62,1.28,13.28,1.89-1.82,1.31-3.8,3.71-2.89,7.68-.5.25-.84.33-.89.34-.27.05-.45.31-.4.59.04.24.26.41.5.41.03,0,.06,0,.09,0,.06-.01.57-.12,1.28-.49.55.33,1.38.64,2.33.64.79,0,1.66-.22,2.5-.83,1.26-.91,2.02-2.39,2.05-3.95.02-1.43-.39-2.86-.78-3.91,3.94.49,8.02.95,12.18,1.36-1.89,1.2-4,3.48-3.33,7.48-.51.22-.87.28-.91.29-.27.04-.47.29-.44.56.03.26.25.44.5.44.02,0,.04,0,.06,0,.06,0,.58-.08,1.31-.42.58.39,1.48.79,2.54.79.72,0,1.51-.19,2.29-.68,1.31-.84,2.16-2.26,2.28-3.82.12-1.58-.29-3.21-.66-4.29,4.24.39,8.56.73,12.92,1.01-1.68,1.35-3.28,3.64-2.51,7.27-.5.24-.85.32-.9.33-.27.05-.46.31-.41.58.04.25.26.42.5.42.03,0,.06,0,.08,0,.06-.01.57-.11,1.29-.47.56.34,1.4.68,2.38.68.77,0,1.62-.21,2.45-.79,1.27-.89,2.06-2.36,2.1-3.92.04-1.39-.33-2.79-.69-3.83.5.03,1,.05,1.49.08,3.94.19,7.76.32,11.49.38-1.79,1.3-3.66,3.63-2.87,7.47-.5.24-.85.31-.9.32-.27.05-.46.3-.42.58.04.25.25.42.5.42.03,0,.05,0,.08,0,.06-.01.57-.1,1.29-.46.57.35,1.42.7,2.41.7.76,0,1.6-.21,2.41-.77,1.28-.88,2.08-2.34,2.14-3.9.06-1.61-.42-3.24-.83-4.3.71,0,1.42.01,2.12.01,3.93,0,7.71-.08,11.37-.23-1.83,1.31-3.87,3.75-2.91,7.77-.5.26-.84.34-.89.35-.27.05-.45.32-.4.59.05.24.26.41.5.41.03,0,.06,0,.1,0,.06-.01.57-.12,1.27-.5.55.32,1.36.62,2.3.62.8,0,1.68-.22,2.53-.85,1.25-.92,2-2.41,2.01-3.97.01-1.77-.64-3.55-1.1-4.57,4.6-.25,8.99-.62,13.16-1.11-1.48,1.56-2.75,4.04-1.5,7.52-.47.31-.8.43-.85.44-.26.08-.41.37-.33.63.07.22.27.35.48.35.05,0,.1,0,.15-.02.06-.02.55-.18,1.21-.64.48.21,1.13.39,1.87.39.93,0,1.97-.29,2.91-1.15,1.14-1.05,1.72-2.61,1.56-4.16,0,0,0,0,0,0-.15-1.48-.78-2.9-1.31-3.9,5.27-.75,10.16-1.72,14.7-2.88-1.37,1.81-2.71,4.87-.42,8.51-.38.4-.68.58-.72.61-.24.14-.32.45-.19.69.09.16.26.25.44.25.08,0,.17-.02.25-.07.06-.03.5-.3,1.04-.89.26.05.55.09.88.09,1.14,0,2.6-.4,3.61-1.86.88-1.28,1.12-2.92.63-4.4-.52-1.57-1.59-2.96-2.35-3.81,5.15-1.49,9.77-3.28,13.88-5.35-.87,2.06-1.33,5.15,1.5,8.06-.29.47-.55.71-.58.74-.21.19-.22.5-.04.71.1.11.24.17.38.17.12,0,.24-.04.34-.13.05-.04.42-.39.83-1.08,1.18-.01,3.15-.56,4.04-2.66.6-1.43.49-3.09-.29-4.44-.79-1.35-2.02-2.44-2.93-3.13,4.56-2.65,8.37-5.71,11.44-9.17-.32,2.25-.02,5.66,3.85,7.72-.14.54-.3.85-.33.9-.14.24-.06.55.18.69.08.05.17.07.26.07.17,0,.34-.09.44-.25.03-.06.28-.5.46-1.28,1.12-.37,2.83-1.5,3.03-3.77.13-1.55-.48-3.09-1.64-4.13-1.4-1.25-3.3-1.95-4.34-2.27ZM87.32,24c.79.95,1.08,2.25.79,3.46-.31,1.3-1.07,2.53-1.68,3.37.1-4.11-1.04-6.59-2.16-8,.8-.11,2.06-.03,3.05,1.17ZM83.45,23.42c1.03,1.28,2.15,3.66,1.95,7.82-1.35-1.15-3.78-3.91-1.95-7.82ZM70.7,23.19c.74.99.98,2.29.63,3.49-.37,1.28-1.18,2.48-1.83,3.29.29-4.1-.74-6.63-1.79-8.09.8-.07,2.06.07,2.99,1.3ZM66.86,22.45c.97,1.34,1.98,3.77,1.6,7.89-1.3-1.21-3.59-4.07-1.6-7.89ZM54.19,21.11c.8.94,1.11,2.23.84,3.45-.29,1.3-1.03,2.55-1.63,3.4.04-4.11-1.14-6.57-2.27-7.96.8-.11,2.06-.05,3.06,1.12ZM50.31,20.58c1.05,1.27,2.2,3.63,2.07,7.79-1.37-1.13-3.84-3.86-2.07-7.79ZM37.86,18.52c.72,1.01.93,2.31.55,3.5-.4,1.27-1.24,2.45-1.9,3.25.38-4.09-.6-6.65-1.62-8.13.8-.05,2.06.11,2.96,1.37ZM34.04,17.68c.94,1.35,1.9,3.8,1.43,7.94-1.28-1.23-3.52-4.15-1.43-7.94ZM19.23,16.09c.91.84,1.37,2.08,1.24,3.32-.14,1.33-.72,2.65-1.21,3.57-.45-4.09-1.92-6.39-3.21-7.64.77-.21,2.04-.3,3.18.75ZM15.31,16.03c1.16,1.11,2.56,3.25,2.96,7.23-.16-.03-.33-.06-.49-.09-1.53-1.13-3.62-3.45-2.47-7.14ZM3.66,15.98c.5.47.76,1.16.69,1.84t0,0c-.05.52-.23,1.04-.43,1.5-.31-1.87-.99-3.07-1.65-3.81.41-.04.92.03,1.39.47ZM1.53,16.18c.59.67,1.23,1.81,1.47,3.74-.83-.63-1.9-1.85-1.47-3.74ZM3,21.99c-.24,1.92-.88,3.07-1.47,3.73-.43-1.88.64-3.1,1.47-3.73ZM3.66,25.93c-.47.44-.99.51-1.39.47.66-.74,1.34-1.94,1.65-3.81.2.45.37.97.43,1.5,0,0,0,0,0,0,.07.69-.19,1.38-.69,1.84ZM18.3,25.58c-.36,4.15-1.79,6.36-2.98,7.49-1.29-4.12,1.49-6.54,2.98-7.49ZM19.23,33.01c-1.14,1.06-2.4.96-3.18.75,1.29-1.25,2.76-3.55,3.21-7.64.49.91,1.08,2.24,1.21,3.57.13,1.24-.34,2.48-1.24,3.32ZM34.11,28.06c.26.04.52.08.78.12-1.19,3.62-2.93,5.36-4.25,6.2-.36-3.57,1.78-5.43,3.48-6.32ZM36.36,32.1c-.12,1.24-.82,2.36-1.88,3.01-1.33.81-2.55.47-3.26.1,1.51-.97,3.41-2.93,4.67-6.85.3.99.61,2.41.48,3.74ZM51.79,30.59c.1.01.19.02.29.04-.87,3.94-2.52,5.91-3.81,6.87-.73-3.96,1.87-6.03,3.52-6.91ZM52.17,37.91c-1.26.91-2.5.67-3.24.37,1.43-1.08,3.17-3.2,4.1-7.2.38.97.8,2.35.78,3.69-.02,1.24-.63,2.42-1.63,3.15ZM67.98,32.41h.1c-1.1,3.99-2.89,5.89-4.26,6.79-.52-4.18,2.49-6.08,4.16-6.79ZM69.5,36.8c-.1,1.24-.77,2.38-1.82,3.05-1.31.84-2.53.52-3.26.17,1.49-1,3.35-3,4.52-6.94.32.99.66,2.4.56,3.73ZM84.34,33.69c.23.01.45.03.68.04-.94,3.76-2.57,5.65-3.85,6.57-.62-3.63,1.53-5.64,3.17-6.61ZM85.06,40.77c-1.27.9-2.51.64-3.25.32,1.44-1.06,3.21-3.15,4.2-7.14.36.97.77,2.36.73,3.7-.04,1.24-.66,2.41-1.68,3.12ZM104.37,24.97c.78.96,1.06,2.26.76,3.46-.33,1.29-1.09,2.52-1.71,3.36.14-4.1-.99-6.59-2.08-8.01.8-.1,2.06,0,3.03,1.19ZM100.5,24.36c1.02,1.29,2.12,3.68,1.89,7.84-1.34-1.16-3.75-3.95-1.89-7.84ZM101.88,34.34c.06,0,.13,0,.19,0-.95,3.98-2.67,5.94-3.99,6.89-.66-4.08,2.14-6.08,3.8-6.89ZM101.96,41.72c-1.28.89-2.51.61-3.25.29,1.45-1.05,3.24-3.12,4.26-7.1.36.98.75,2.37.69,3.7-.05,1.24-.69,2.41-1.7,3.11ZM168.41,13.23c1.17.39,2.11,1.33,2.5,2.52.42,1.27.43,2.71.36,3.75-2.09-3.54-4.38-5.04-6.06-5.64.62-.51,1.73-1.12,3.21-.62ZM164.82,14.79c1.55.54,3.76,1.97,5.8,5.6-1.76-.26-5.28-1.32-5.8-5.6ZM153.21,19.69c1.07.63,1.79,1.74,1.93,2.98.15,1.33-.14,2.74-.42,3.74-1.31-3.89-3.25-5.83-4.77-6.77.71-.37,1.92-.74,3.26.05ZM149.38,20.47c1.38.83,3.21,2.63,4.45,6.45-.1.03-.19.05-.29.08-1.73-.72-4.51-2.53-4.16-6.53ZM137.15,22.73c.91.84,1.37,2.08,1.24,3.32-.14,1.33-.72,2.65-1.21,3.57-.45-4.08-1.91-6.39-3.2-7.64.78-.21,2.04-.3,3.17.75ZM133.23,22.67c1.19,1.13,2.62,3.34,2.98,7.49-1.5-.96-4.27-3.37-2.98-7.49ZM121.09,24.88c.81.94,1.13,2.22.87,3.44-.28,1.3-1.01,2.55-1.6,3.41,0-4.11-1.2-6.56-2.34-7.95.79-.13,2.06-.08,3.07,1.1ZM117.2,24.39c1.03,1.23,2.18,3.51,2.14,7.51-.1,0-.2,0-.3.01-1.41-1.24-3.46-3.84-1.84-7.52ZM119.11,34.21c-.82,4.08-2.48,6.12-3.79,7.12-.82-4.24,2.2-6.33,3.79-7.12ZM119.22,41.7c-1.25.92-2.49.69-3.24.4,1.42-1.1,3.13-3.23,4.03-7.24.39.96.82,2.34.81,3.68,0,1.24-.61,2.43-1.6,3.16ZM135.59,32.66c.2-.03.39-.05.59-.08-.41,3.92-1.79,6.03-2.95,7.13-1.12-3.59.84-5.89,2.36-7.05ZM137.15,39.65c-1.14,1.06-2.4.96-3.18.75,1.29-1.25,2.76-3.55,3.21-7.64.49.91,1.08,2.24,1.21,3.57.13,1.24-.34,2.48-1.24,3.32ZM154.34,29.15c.54,4.13-.38,6.6-1.3,7.96-2.14-3.75.05-6.7,1.3-7.96ZM156.85,36.21c-.89,1.28-2.14,1.46-2.94,1.42.99-1.5,1.93-4.06,1.49-8.15.68.79,1.53,1.96,1.95,3.22.39,1.18.21,2.49-.5,3.51ZM171.35,22.44s.1-.05.15-.08c1.34,3.88.94,6.45.33,7.96-2.76-3.1-1.44-6.32-.48-7.88ZM175.14,25.12c.63,1.08.71,2.4.23,3.54-.6,1.43-1.79,1.87-2.59,1.99.66-1.67,1.05-4.37-.22-8.28.82.63,1.9,1.6,2.57,2.75ZM179.99,3.76h.04c1.24.02,2.41.62,3.15,1.63.79,1.08,1.24,2.45,1.5,3.46-3.07-2.73-5.71-3.45-7.51-3.51.43-.67,1.29-1.58,2.81-1.58ZM177.1,6.36c1.6.04,4.06.69,6.98,3.3-.08.1-.17.21-.25.31-1.88.21-5.07-.04-6.73-3.61ZM185.71,11.42c2.52,3.32,2.94,5.92,2.82,7.55-3.72-2.19-3.29-5.84-2.82-7.55ZM189.55,18.99c.12-1.79-.34-4.49-2.76-7.81.98.35,2.3.94,3.29,1.83.93.83,1.42,2.06,1.31,3.29-.13,1.55-1.13,2.33-1.85,2.69Z"/>
      <path class="cls-1" d="M393.18,26.6s-.15-.06-.33-.16c.89-2.7-.64-4.57-2.01-5.48,1.37-.91,2.9-2.78,2.01-5.48.18-.11.31-.16.33-.16.26-.08.41-.37.33-.63-.08-.27-.36-.41-.63-.33-.04.01-.31.11-.69.35-.72-.28-1.97-.42-3.01.54-.73.68-1.11,1.69-1.01,2.69h0c.1.99.54,1.95.89,2.57-1.15.26-5.23,1.14-11.46,2.33,1.46-1.57,2.69-4.03,1.46-7.47.47-.31.8-.43.85-.44.26-.08.41-.37.33-.63-.08-.27-.36-.41-.63-.33-.06.02-.55.18-1.21.64-1.08-.48-3.1-.79-4.77.76-1.14,1.06-1.72,2.61-1.56,4.16h0c.16,1.57.85,3.08,1.4,4.08-4.17.76-9.02,1.6-14.4,2.44,1.51-1.62,3.68-4.99,1.13-9.19.39-.39.69-.57.73-.6.24-.14.33-.44.2-.68-.13-.24-.44-.33-.69-.2-.06.03-.5.29-1.05.87-1.15-.25-3.2-.15-4.53,1.7-.9,1.26-1.16,2.9-.7,4.39.55,1.74,1.76,3.26,2.5,4.08-4.39.67-9.1,1.34-14.05,1.98,1.57-1.64,3.36-4.62,1.37-8.57.42-.36.74-.51.78-.53.25-.12.36-.41.25-.67-.12-.25-.42-.37-.67-.25-.06.03-.52.25-1.12.78-1.13-.34-3.17-.41-4.65,1.32-1,1.18-1.4,2.8-1.05,4.32.36,1.6,1.28,3.08,1.96,3.99-4.17.51-8.49.99-12.91,1.42,1.46-1.74,3.01-4.79.81-8.58.4-.38.7-.56.75-.58.25-.13.34-.43.21-.68-.13-.25-.43-.34-.68-.21-.06.03-.51.28-1.07.84-1.15-.27-3.19-.22-4.56,1.6-.93,1.24-1.23,2.88-.79,4.38h0c.41,1.4,1.25,2.67,1.94,3.55-4.56.41-9.22.77-13.92,1.05,1.61-1.57,3.78-4.72,1.59-8.94.42-.36.73-.52.77-.55.25-.12.36-.42.24-.67-.12-.25-.42-.36-.67-.24-.06.03-.52.25-1.11.79-1.13-.33-3.18-.37-4.63,1.39-.99,1.2-1.36,2.82-.99,4.34.39,1.63,1.37,3.12,2.06,4.03-4.63.24-9.29.41-13.94.48,1.54-1.67,3.29-4.7,1.2-8.63.41-.37.72-.53.77-.55.25-.12.35-.42.23-.67-.12-.25-.42-.36-.67-.24-.06.03-.52.26-1.1.8-1.14-.32-3.18-.34-4.62,1.43-.98,1.21-1.33,2.83-.95,4.35.35,1.37,1.1,2.64,1.75,3.54-4.48.02-8.94-.06-13.34-.25,1.53-1.66,3.13-4.54,1.26-8.36.42-.35.74-.5.78-.53.25-.11.37-.41.26-.67-.11-.25-.41-.37-.67-.26-.06.03-.52.24-1.13.77-1.13-.35-3.17-.44-4.66,1.28-1.01,1.17-1.42,2.79-1.09,4.31.26,1.22.85,2.36,1.41,3.25-4.6-.27-9.12-.68-13.51-1.23,1.79-1.38,4.21-4.18,2.64-8.55.47-.31.8-.43.85-.44.26-.08.41-.37.33-.63-.08-.27-.36-.41-.63-.33-.06.02-.55.18-1.21.64-1.08-.47-3.1-.79-4.77.76-1.14,1.06-1.72,2.61-1.56,4.17h0c.16,1.52.81,2.99,1.35,3.98-4.88-.71-9.59-1.62-14.05-2.76,1.95-1.12,4.2-3.32,3.67-7.39.52-.2.88-.25.92-.25.28-.03.48-.27.46-.55-.02-.28-.27-.47-.55-.46-.06,0-.57.06-1.32.36-.95-.7-2.86-1.44-4.82-.28-1.34.79-2.24,2.18-2.42,3.73-.15,1.36.08,2.76.36,3.82-4.87-1.43-9.41-3.17-13.5-5.25,2.18-.61,5.15-2.26,5.5-6.59.55-.09.91-.06.96-.06.28.03.53-.16.56-.44s-.16-.53-.44-.56c-.06,0-.58-.06-1.36.09-.79-.88-2.5-2-4.66-1.27-1.47.49-2.64,1.67-3.13,3.16-.46,1.39-.49,2.92-.42,4.04-4.11-2.4-7.7-5.21-10.64-8.47,0,0,.02,0,.03,0,2.25,0,5.32-.79,6.89-4.59.54.08.87.22.92.24.25.12.55,0,.67-.25.12-.25,0-.55-.25-.67-.06-.03-.53-.23-1.32-.34-.48-1.07-1.75-2.64-3.99-2.64-.02,0-.04,0-.06,0-1.55.02-3.03.78-3.95,2.04-.7.96-1.16,2.09-1.46,3.07-1.59-2.22-2.91-4.62-3.93-7.22-.21-.52-.79-.78-1.31-.57-.52.2-.77.79-.57,1.31,1.21,3.09,2.84,5.95,4.85,8.61-1.04.31-2.94,1.01-4.34,2.27-1.16,1.04-1.77,2.59-1.64,4.13.2,2.27,1.9,3.4,3.02,3.77.18.78.43,1.23.46,1.28.09.16.26.25.43.25.09,0,.17-.02.25-.07.24-.14.32-.45.18-.69-.02-.04-.19-.36-.33-.9,3.87-2.06,4.17-5.47,3.85-7.72,3.08,3.46,6.89,6.52,11.44,9.17-.91.68-2.15,1.78-2.93,3.13-.79,1.35-.89,3.01-.29,4.44.88,2.1,2.86,2.65,4.04,2.66.41.68.79,1.03.83,1.08.1.09.22.13.34.13.14,0,.28-.06.38-.17.19-.21.17-.53-.04-.71,0,0-.27-.25-.58-.75,2.82-2.92,2.37-5.99,1.5-8.06,4.11,2.07,8.74,3.85,13.88,5.35-.76.85-1.83,2.24-2.35,3.81-.49,1.48-.26,3.13.63,4.4,1.01,1.46,2.47,1.86,3.61,1.86.33,0,.62-.04.88-.09.55.59.99.86,1.04.89.08.05.17.07.25.07.17,0,.34-.09.44-.25.14-.24.06-.55-.18-.69-.04-.02-.34-.21-.72-.61,2.29-3.64.95-6.7-.42-8.51,4.53,1.17,9.42,2.13,14.69,2.88-.53,1-1.15,2.42-1.31,3.9-.16,1.55.42,3.11,1.56,4.17.93.87,1.98,1.15,2.91,1.15.73,0,1.39-.18,1.87-.39.66.46,1.15.62,1.21.64.05.02.1.02.15.02.21,0,.41-.14.48-.35.08-.26-.06-.55-.33-.63-.05-.02-.38-.14-.85-.44,1.25-3.47-.02-5.96-1.5-7.52,4.17.49,8.56.86,13.16,1.11-.46,1.02-1.11,2.8-1.1,4.57.01,1.56.76,3.04,2.01,3.97.85.63,1.73.85,2.53.85.93,0,1.75-.3,2.3-.62.71.38,1.21.49,1.27.5.03,0,.07,0,.1,0,.24,0,.44-.17.49-.41.05-.27-.12-.54-.39-.59-.05,0-.39-.09-.89-.35.96-4.02-1.08-6.46-2.91-7.77,3.67.15,7.45.23,11.37.23.7,0,1.41,0,2.12-.01-.41,1.06-.89,2.7-.83,4.3.06,1.56.86,3.02,2.14,3.9.82.56,1.65.77,2.41.77.99,0,1.85-.35,2.41-.7.72.36,1.23.45,1.29.46.03,0,.05,0,.08,0,.24,0,.46-.18.5-.42.04-.28-.14-.54-.42-.58-.01,0-.37-.07-.9-.33.78-3.84-1.08-6.17-2.87-7.46,3.73-.07,7.55-.19,11.49-.38.5-.02,1-.05,1.49-.08-.37,1.04-.74,2.44-.69,3.83.05,1.56.83,3.02,2.1,3.92.83.58,1.67.79,2.45.79.98,0,1.82-.33,2.38-.68.72.37,1.22.46,1.29.47.03,0,.06,0,.09,0,.24,0,.46-.17.5-.42.05-.28-.14-.54-.41-.58-.01,0-.37-.08-.9-.34.77-3.62-.83-5.91-2.51-7.26,4.36-.28,8.68-.62,12.92-1.01-.36,1.08-.78,2.71-.66,4.29.12,1.56.97,2.98,2.28,3.82.78.5,1.56.68,2.29.68,1.06,0,1.96-.4,2.54-.79.73.33,1.24.41,1.31.42.02,0,.04,0,.06,0,.25,0,.47-.18.5-.44.04-.28-.16-.53-.43-.57-.05,0-.4-.07-.91-.29.66-4-1.44-6.28-3.33-7.48,4.17-.42,8.24-.88,12.18-1.36-.39,1.04-.81,2.48-.78,3.91.03,1.56.79,3.04,2.05,3.95.84.61,1.7.83,2.5.83.95,0,1.78-.32,2.33-.64.71.38,1.22.48,1.28.49.03,0,.06,0,.09,0,.24,0,.45-.17.49-.41.05-.27-.13-.54-.4-.59-.05,0-.4-.09-.9-.34.91-3.97-1.08-6.37-2.89-7.68,4.66-.61,9.1-1.25,13.28-1.89-.28,1.04-.51,2.38-.39,3.69.15,1.55,1.03,2.96,2.36,3.77.76.46,1.51.64,2.21.64,1.1,0,2.02-.43,2.61-.85.74.32,1.25.38,1.32.39.02,0,.03,0,.05,0,.25,0,.47-.19.5-.45.03-.28-.17-.52-.45-.56-.05,0-.4-.06-.92-.27.52-3.64-1.19-5.81-2.95-7.05,4.6-.74,8.78-1.47,12.46-2.14-.53,1-1.15,2.42-1.31,3.9h0c-.16,1.55.42,3.11,1.56,4.17.93.87,1.98,1.15,2.91,1.15.74,0,1.39-.18,1.87-.39.66.46,1.15.62,1.21.64.05.02.1.02.15.02.21,0,.41-.14.48-.35.08-.26-.06-.55-.33-.63-.05-.02-.38-.14-.85-.44,1.59-4.43-.92-7.25-2.72-8.61,5.88-1.11,10.11-2,12.15-2.44-.14.41-.26.84-.31,1.29-.1,1,.27,2.01,1.01,2.69.61.56,1.29.75,1.89.75.43,0,.81-.09,1.11-.21.38.25.65.34.69.35.05.02.1.02.15.02.21,0,.41-.14.48-.35.09-.26-.06-.55-.32-.64ZM209.7,9.97c-.08-.1-.17-.2-.25-.31,2.94-2.64,5.39-3.28,6.99-3.31-1.65,3.57-4.85,3.83-6.74,3.62ZM210.35,5.39c.74-1,1.92-1.61,3.15-1.63h.04c1.52,0,2.39.9,2.81,1.58-1.79.06-4.43.78-7.51,3.51.25-1.01.71-2.38,1.5-3.46ZM202.14,16.3c-.11-1.23.38-2.46,1.31-3.29.99-.89,2.32-1.48,3.29-1.83-2.41,3.32-2.87,6.02-2.76,7.81-.72-.37-1.71-1.15-1.85-2.69ZM205,18.98c-.12-1.64.3-4.24,2.82-7.55.46,1.71.9,5.37-2.82,7.55ZM274.49,31.91c-.1,0-.2,0-.3-.01-.04-4,1.11-6.28,2.14-7.51,1.61,3.68-.43,6.28-1.84,7.52ZM272.45,24.88c.79-.91,1.73-1.15,2.48-1.15.22,0,.42.02.59.05-1.14,1.38-2.35,3.84-2.34,7.95-.59-.85-1.32-2.1-1.6-3.41-.26-1.22.06-2.5.87-3.44ZM257.32,30.16c.36-4.15,1.79-6.36,2.98-7.49,1.29,4.12-1.49,6.53-2.98,7.49ZM255.15,26.05c-.13-1.24.34-2.48,1.24-3.32.74-.68,1.53-.89,2.2-.89.37,0,.7.06.97.14-1.29,1.25-2.76,3.55-3.21,7.64-.49-.91-1.07-2.24-1.21-3.57h0ZM240,27c-.1-.03-.19-.05-.29-.08,1.25-3.82,3.07-5.62,4.45-6.45.35,4.01-2.43,5.81-4.16,6.53ZM238.39,22.66c.14-1.24.86-2.35,1.93-2.98,1.34-.79,2.55-.43,3.26-.05-1.53.94-3.46,2.88-4.78,6.77-.28-1-.57-2.42-.42-3.74ZM222.91,20.39c2.04-3.63,4.25-5.06,5.8-5.6-.52,4.28-4.04,5.34-5.8,5.6ZM222.62,15.75c.39-1.18,1.33-2.12,2.5-2.52,1.47-.49,2.59.11,3.21.62-1.69.61-3.98,2.1-6.06,5.65-.07-1.04-.06-2.48.36-3.75ZM218.16,28.66c-.48-1.14-.39-2.46.23-3.54.67-1.15,1.75-2.12,2.57-2.75-1.27,3.89-.88,6.6-.23,8.27-.8-.13-1.97-.54-2.58-1.98ZM221.71,30.31c-.61-1.52-1-4.1.32-7.95.05.03.1.05.15.08.97,1.56,2.28,4.77-.47,7.87ZM236.68,36.21c-.7-1.02-.89-2.33-.5-3.51.42-1.27,1.28-2.43,1.95-3.22-.44,4.08.5,6.65,1.48,8.15-.8.04-2.06-.14-2.94-1.41ZM240.49,37.11c-.92-1.36-1.84-3.83-1.3-7.96,1.26,1.25,3.45,4.2,1.3,7.96ZM256.39,39.65c-.91-.84-1.37-2.08-1.24-3.32h0c.14-1.33.72-2.65,1.21-3.57.45,4.09,1.92,6.39,3.21,7.64-.77.21-2.04.3-3.18-.75ZM260.3,39.71c-1.15-1.1-2.54-3.21-2.95-7.13.2.03.4.05.6.08,1.52,1.16,3.48,3.45,2.35,7.05ZM274.31,41.7c-.99-.74-1.59-1.92-1.6-3.16,0-1.33.43-2.71.81-3.68.89,4.01,2.61,6.14,4.02,7.24-.75.29-2,.52-3.24-.39ZM278.21,41.33c-1.31-.99-2.97-3.03-3.79-7.12,1.59.79,4.62,2.88,3.79,7.12ZM291.14,32.2c-.23-4.16.87-6.55,1.89-7.84,1.86,3.9-.54,6.68-1.89,7.84ZM289.16,24.97c.8-.99,1.79-1.23,2.56-1.23.17,0,.33.01.48.03-1.1,1.42-2.22,3.91-2.08,8.01-.62-.84-1.38-2.06-1.71-3.36-.3-1.21-.02-2.5.76-3.46ZM291.57,41.72c-1.02-.7-1.65-1.87-1.7-3.11-.05-1.33.34-2.73.69-3.7,1.02,3.98,2.8,6.05,4.26,7.1-.74.32-1.98.59-3.25-.29ZM295.46,41.21c-1.33-.95-3.05-2.92-4-6.87.06,0,.13,0,.19,0,1.66.81,4.45,2.81,3.8,6.88ZM392.01,25.72c-.59-.67-1.23-1.81-1.47-3.73.83.63,1.9,1.85,1.47,3.73ZM390.54,19.92c.24-1.93.88-3.07,1.47-3.74.43,1.88-.64,3.1-1.47,3.74ZM389.18,17.82c-.07-.69.19-1.38.69-1.84.4-.37.83-.48,1.2-.48.07,0,.12.02.18.02-.66.74-1.33,1.94-1.64,3.8-.2-.45-.37-.97-.43-1.5h0ZM375.74,23.17c-.16.03-.32.06-.48.09.4-3.98,1.79-6.12,2.96-7.23,1.15,3.69-.95,6.01-2.48,7.14ZM374.31,16.09c1.14-1.06,2.4-.96,3.18-.75-1.29,1.25-2.76,3.55-3.21,7.64-.49-.91-1.08-2.24-1.21-3.57-.13-1.24.34-2.48,1.24-3.32ZM358.07,25.62c-.47-4.14.49-6.59,1.43-7.94,2.08,3.78-.15,6.7-1.43,7.94ZM355.67,18.52c.81-1.14,1.91-1.38,2.71-1.38.09,0,.17.01.25.02-1.01,1.48-1.99,4.03-1.61,8.12-.66-.8-1.5-1.98-1.9-3.25-.37-1.19-.17-2.5.55-3.5ZM341.16,28.38c-.14-4.16,1.02-6.53,2.07-7.8,1.77,3.94-.7,6.67-2.07,7.8ZM339.35,21.11c.79-.93,1.74-1.17,2.5-1.17.21,0,.39.02.56.04-1.13,1.39-2.31,3.86-2.27,7.97-.6-.85-1.33-2.09-1.63-3.4-.27-1.21.04-2.5.84-3.45ZM325.07,30.34c-.39-4.15.63-6.58,1.6-7.91,2,3.82-.3,6.7-1.6,7.91ZM322.83,23.19c.81-1.08,1.86-1.32,2.65-1.32.12,0,.22.01.33.02-1.04,1.46-2.07,3.99-1.78,8.08-.65-.81-1.46-2.01-1.83-3.29h0c-.35-1.2-.11-2.5.63-3.49ZM308.13,31.24c-.2-4.16.93-6.54,1.95-7.82,1.83,3.91-.6,6.68-1.95,7.82ZM306.22,24c.99-1.2,2.25-1.28,3.05-1.17-1.11,1.41-2.26,3.89-2.16,8-.61-.84-1.37-2.08-1.68-3.37-.29-1.21,0-2.5.79-3.46ZM308.48,40.77c-1.01-.71-1.64-1.88-1.68-3.12-.04-1.33.36-2.72.73-3.7.99,3.99,2.75,6.08,4.2,7.14-.74.31-1.98.57-3.25-.32ZM312.37,40.29c-1.28-.93-2.92-2.82-3.85-6.56.23-.01.46-.03.68-.04,1.65.97,3.78,2.97,3.17,6.6ZM325.85,39.84c-1.04-.67-1.72-1.8-1.82-3.05-.1-1.33.24-2.74.56-3.73,1.17,3.94,3.03,5.95,4.52,6.94-.72.35-1.95.67-3.26-.17ZM329.71,39.2c-1.37-.9-3.16-2.8-4.26-6.78.03,0,.07,0,.1,0,1.67.71,4.68,2.61,4.16,6.79ZM341.37,37.91c-1-.73-1.61-1.9-1.63-3.15-.02-1.33.4-2.72.78-3.69.93,4,2.67,6.12,4.1,7.2-.74.3-1.99.55-3.25-.37ZM345.26,37.5c-1.29-.97-2.94-2.94-3.81-6.87.1-.01.19-.02.29-.04,1.65.88,4.25,2.95,3.52,6.91ZM359.05,35.1c-1.06-.64-1.76-1.77-1.88-3.01-.13-1.33.18-2.74.48-3.74,1.25,3.91,3.15,5.88,4.66,6.84-.72.36-1.94.7-3.26-.1ZM362.9,34.38c-1.33-.83-3.07-2.57-4.25-6.2.26-.04.52-.08.78-.12,1.69.89,3.84,2.75,3.48,6.32ZM374.3,33.01c-.91-.84-1.37-2.08-1.24-3.32.14-1.33.72-2.65,1.21-3.57.45,4.08,1.91,6.39,3.2,7.64-.78.21-2.04.3-3.17-.75ZM378.22,33.07c-1.19-1.13-2.62-3.34-2.98-7.49,1.5.96,4.27,3.37,2.98,7.49ZM389.87,25.93c-.5-.47-.76-1.15-.69-1.84h0c.05-.53.23-1.04.43-1.5.31,1.87.99,3.07,1.65,3.81-.41.04-.92-.03-1.39-.47Z"/>
    </g>
  </g>
</svg>