<?xml version="1.0" encoding="UTF-8"?>
<svg id="Layer_2" data-name="Layer 2" xmlns="http://www.w3.org/2000/svg" viewBox="0 0 392.52 38.98">
  <defs>
    <style>
      .cls-1 {
        fill: #201522;
      }
    </style>
  </defs>
  <g id="Objects">
    <g>
      <path class="cls-1" d="M366.27,18.42c-1.8.83-3.55,1.78-5.41,2.44-1.85.69-3.8,1.08-5.76,1.26-3.92.35-7.95.15-11.68-1.09-1.87-.61-3.62-1.52-5.4-2.4-1.78-.89-3.63-1.68-5.58-2.15-1.95-.47-3.95-.73-5.94-.75-1.99-.06-4,.04-5.98.37-1.98.31-3.92.91-5.75,1.73-1.83.81-3.56,1.77-5.38,2.5-1.81.74-3.71,1.23-5.65,1.51-1.94.22-3.91.31-5.87.2-1.95-.11-3.91-.34-5.78-.9-1.88-.53-3.66-1.36-5.42-2.25-1.77-.89-3.6-1.75-5.54-2.3-1.93-.59-3.95-.82-5.94-.93-2-.11-4.01-.03-6,.2-1.99.28-3.96.78-5.83,1.54-1.87.75-3.61,1.72-5.4,2.51-1.79.8-3.65,1.38-5.57,1.68-1.92.33-3.88.42-5.84.37-1.96,0-3.9-.28-5.79-.72-1.89-.45-3.69-1.2-5.45-2.08-1.77-.87-3.57-1.79-5.49-2.42-3.86-1.27-7.96-1.45-11.95-1.08-2,.2-4.01.6-5.91,1.32-1.91.69-3.67,1.65-5.45,2.48-1.77.84-3.59,1.49-5.49,1.88-1.9.41-3.85.49-5.8.54-1.95-.04-3.91-.12-5.8-.53-1.9-.39-3.72-1.04-5.5-1.88-1.77-.83-3.54-1.79-5.44-2.48-1.9-.71-3.9-1.13-5.91-1.32-3.99-.37-8.09-.19-11.96,1.07-1.93.62-3.73,1.55-5.49,2.41-1.77.87-3.56,1.63-5.45,2.08-1.89.44-3.83.71-5.79.72-1.96.06-3.92-.04-5.84-.36-1.92-.31-3.79-.88-5.58-1.68-1.79-.79-3.53-1.76-5.4-2.51-1.86-.76-3.83-1.27-5.82-1.55-2-.23-4-.32-6-.21-2,.11-4.01.35-5.94.93-1.94.55-3.77,1.41-5.54,2.3-1.77.89-3.55,1.72-5.42,2.25-1.87.57-3.83.79-5.78.91-1.96.11-3.93.02-5.87-.2-1.94-.27-3.84-.76-5.65-1.5-1.82-.73-3.55-1.69-5.38-2.5-1.82-.82-3.76-1.42-5.74-1.73-1.98-.33-3.98-.43-5.98-.37-2,.01-4,.28-5.94.74-1.95.47-3.81,1.26-5.58,2.15-1.78.88-3.53,1.79-5.4,2.4-3.73,1.24-7.76,1.44-11.68,1.09-1.96-.19-3.91-.57-5.76-1.26-1.86-.67-3.61-1.61-5.41-2.44-1.8-.84-3.68-1.51-5.63-1.9-1.95-.41-3.94-.49-5.92-.52,1.98.06,3.97.16,5.9.59,1.94.41,3.8,1.1,5.58,1.96,1.79.85,3.53,1.82,5.4,2.51,1.86.72,3.83,1.13,5.8,1.34,3.95.39,8.01.25,11.83-.98,1.91-.6,3.7-1.5,5.48-2.36,1.78-.86,3.6-1.61,5.51-2.05,1.91-.43,3.86-.7,5.83-.7,1.96-.05,3.94.05,5.87.39,1.93.32,3.81.9,5.6,1.71,1.79.8,3.53,1.77,5.39,2.53,1.85.77,3.81,1.28,5.8,1.56,1.99.24,3.99.33,5.99.23,1.99-.11,4.01-.33,5.94-.91,1.94-.55,3.78-1.4,5.55-2.28,1.77-.88,3.55-1.7,5.43-2.23,1.87-.56,3.83-.77,5.78-.88,1.96-.1,3.92,0,5.86.22,1.93.28,3.82.77,5.62,1.52,1.81.74,3.54,1.7,5.37,2.52,1.83.83,3.78,1.44,5.77,1.76,1.99.34,4,.45,6,.4,2,0,4.02-.27,5.98-.73,1.97-.46,3.85-1.25,5.64-2.12,1.79-.87,3.54-1.76,5.39-2.35,3.69-1.2,7.69-1.36,11.56-.98,1.94.2,3.84.6,5.66,1.29,1.82.67,3.54,1.62,5.36,2.47,1.81.86,3.73,1.56,5.72,1.97,1.99.43,4.01.52,6.02.57,2.01-.05,4.03-.15,6.02-.58,1.98-.41,3.91-1.12,5.72-1.98,1.81-.86,3.54-1.8,5.36-2.47,1.81-.69,3.72-1.08,5.66-1.28,3.87-.37,7.87-.2,11.56,1,1.85.59,3.6,1.48,5.39,2.35,1.79.87,3.67,1.66,5.64,2.12,1.97.45,3.98.72,5.98.72,2,.05,4.02-.06,6-.4,1.99-.33,3.94-.94,5.77-1.77,1.83-.82,3.56-1.79,5.37-2.52,1.8-.75,3.69-1.24,5.63-1.51,1.94-.23,3.9-.32,5.86-.22,1.95.11,3.91.32,5.78.88,1.88.53,3.66,1.35,5.43,2.23,1.77.88,3.61,1.73,5.55,2.27,1.93.57,3.95.8,5.94.9,2,.1,4,0,5.99-.23,1.99-.29,3.95-.8,5.8-1.57,1.86-.76,3.6-1.73,5.39-2.53,1.79-.81,3.67-1.39,5.6-1.71,1.93-.33,3.9-.44,5.87-.39,1.97,0,3.92.27,5.83.7,1.91.44,3.73,1.19,5.51,2.05,1.78.86,3.57,1.76,5.48,2.36,3.82,1.22,7.89,1.37,11.83.97,1.98-.21,3.94-.63,5.8-1.34,1.87-.69,3.61-1.66,5.4-2.51,1.78-.86,3.65-1.55,5.59-1.96,1.94-.43,3.92-.53,5.9-.59-1.98.04-3.97.11-5.92.52-1.95.39-3.83,1.06-5.63,1.9Z"/>
      <path class="cls-1" d="M62.86,11.35c1.88,1.39,4.51,1.03,5.94-.8l-11.08-8.2c0,3.03,3.28,7.64,5.13,9.01Z"/>
      <path class="cls-1" d="M68.24,4.09c-1.85-1.37-7.21-3.16-10.11-2.28l11.08,8.2c1.33-1.9.91-4.53-.96-5.92Z"/>
      <path class="cls-1" d="M327.51,11.35c1.85-1.37,5.13-5.97,5.13-9.01l-11.08,8.2c1.43,1.83,4.07,2.2,5.94.8Z"/>
      <path class="cls-1" d="M332.25,1.81c-2.9-.88-8.26.91-10.11,2.28-1.88,1.39-2.3,4.02-.96,5.92l11.08-8.2Z"/>
      <path class="cls-1" d="M277.14,11.2c1.24-1.94,2.67-7.41,1.59-10.24l-7.44,11.61c1.99,1.2,4.58.61,5.84-1.36Z"/>
      <path class="cls-1" d="M270.74,12.2l7.44-11.61c-3.03.21-7.4,3.79-8.64,5.73-1.26,1.97-.72,4.57,1.2,5.88Z"/>
      <path class="cls-1" d="M119.07,12.56l-7.44-11.61c-1.08,2.84.35,8.3,1.59,10.24,1.26,1.97,3.85,2.56,5.84,1.36Z"/>
      <path class="cls-1" d="M120.84,6.33c-1.24-1.94-5.61-5.52-8.64-5.73l7.44,11.61c1.92-1.3,2.46-3.91,1.2-5.88Z"/>
      <path class="cls-1" d="M169.15,13.76l-1.76-13.67c-2.19,2.1-3.24,7.66-2.94,9.94.3,2.32,2.39,3.97,4.7,3.73Z"/>
      <path class="cls-1" d="M173.41,8.87c-.29-2.29-2.71-7.39-5.36-8.87l1.76,13.67c2.3-.36,3.9-2.48,3.6-4.8Z"/>
      <path class="cls-1" d="M225.93,10.03c.29-2.29-.76-7.84-2.94-9.94l-1.76,13.67c2.31.24,4.4-1.41,4.7-3.73Z"/>
      <path class="cls-1" d="M220.57,13.67l1.76-13.67c-2.65,1.48-5.06,6.59-5.36,8.87-.3,2.32,1.31,4.44,3.6,4.8Z"/>
      <path class="cls-1" d="M37.62,26.55c-1.85,1.37-5.13,5.97-5.13,9.01l11.08-8.2c-1.43-1.83-4.07-2.2-5.94-.8Z"/>
      <path class="cls-1" d="M32.88,36.1c2.9.88,8.26-.91,10.11-2.28,1.88-1.39,2.3-4.02.96-5.92l-11.08,8.2Z"/>
      <path class="cls-1" d="M352.76,26.55c-1.88-1.39-4.51-1.03-5.94.8l11.08,8.2c0-3.03-3.28-7.64-5.13-9.01Z"/>
      <path class="cls-1" d="M347.38,33.81c1.85,1.37,7.21,3.16,10.11,2.28l-11.08-8.2c-1.33,1.9-.91,4.53.96,5.92Z"/>
      <path class="cls-1" d="M295.47,25.35l7.44,11.61c1.08-2.84-.35-8.3-1.59-10.24-1.26-1.97-3.85-2.56-5.84-1.36Z"/>
      <path class="cls-1" d="M293.71,31.58c1.24,1.94,5.61,5.52,8.64,5.73l-7.44-11.61c-1.92,1.3-2.46,3.91-1.2,5.88Z"/>
      <path class="cls-1" d="M87.99,26.71c-1.24,1.94-2.67,7.41-1.59,10.24l7.44-11.61c-1.99-1.2-4.58-.61-5.84,1.36Z"/>
      <path class="cls-1" d="M94.39,25.71l-7.44,11.61c3.03-.21,7.4-3.79,8.64-5.73,1.26-1.97.72-4.57-1.2-5.88Z"/>
      <path class="cls-1" d="M139.2,27.88c-.29,2.28.76,7.84,2.94,9.94l1.76-13.67c-2.31-.24-4.4,1.41-4.7,3.73Z"/>
      <path class="cls-1" d="M144.56,24.24l-1.76,13.67c2.65-1.48,5.06-6.59,5.36-8.87.3-2.32-1.31-4.44-3.6-4.8Z"/>
      <path class="cls-1" d="M246.47,25.23l1.76,13.67c2.19-2.1,3.24-7.66,2.94-9.94-.3-2.32-2.39-3.97-4.7-3.73Z"/>
      <path class="cls-1" d="M242.21,30.11c.29,2.28,2.71,7.39,5.36,8.87l-1.76-13.67c-2.3.36-3.9,2.48-3.6,4.8Z"/>
      <path class="cls-1" d="M192.82,28.96c0,2.3,1.75,7.68,4.18,9.48v-13.78c-2.32.06-4.18,1.96-4.18,4.3Z"/>
      <path class="cls-1" d="M197.67,24.66v13.78c2.44-1.81,4.18-7.18,4.18-9.48s-1.86-4.24-4.18-4.3Z"/>
      <path class="cls-1" d="M8.39,20.26c2.07,0,3.75-1.65,3.8-3.7H0c1.6,2.15,6.35,3.7,8.39,3.7Z"/>
      <path class="cls-1" d="M8.39,12.27c-2.04,0-6.79,1.55-8.39,3.7h12.19c-.05-2.05-1.73-3.7-3.8-3.7Z"/>
      <path class="cls-1" d="M384.13,20.26c2.04,0,6.79-1.55,8.39-3.7h-12.19c.05,2.05,1.74,3.7,3.8,3.7Z"/>
      <path class="cls-1" d="M384.13,12.27c-2.07,0-3.75,1.65-3.8,3.7h12.19c-1.6-2.15-6.35-3.7-8.39-3.7Z"/>
    </g>
  </g>
</svg>