<?xml version="1.0" encoding="UTF-8"?>
<svg id="Layer_2" data-name="Layer 2" xmlns="http://www.w3.org/2000/svg" viewBox="0 0 393.5 44.7">
  <defs>
    <style>
      .cls-1 {
        fill: #201522;
      }
    </style>
  </defs>
  <g id="Objects">
    <g>
      <path class="cls-1" d="M213.51,13.32c-.12-.02-.18-.09-.2-.13-.03-.04-.06-.13-.02-.24,1.11-2.75.35-5.76-1.93-7.65-2.28-1.9-5.37-2.1-7.88-.51-.1.06-.19.04-.24.03-.05-.02-.13-.06-.17-.17-.92-2.81-3.42-4.62-6.37-4.62,0,0-.02,0-.03,0-2.97.01-5.46,1.84-6.36,4.67-.04.11-.12.16-.17.18-.05.02-.14.04-.24-.03-2.52-1.57-5.61-1.34-7.87.57-2.27,1.91-3,4.92-1.87,7.67.04.11,0,.2-.02.24-.03.04-.08.12-.2.14-2.94.42-5.16,2.57-5.66,5.5-.51,2.92.87,5.7,3.49,7.08.1.06.14.15.14.2,0,.05.01.15-.07.23-1.98,2.21-2.3,5.29-.81,7.85,1.49,2.56,4.33,3.81,7.23,3.18.11-.03.2.03.24.06s.1.11.1.22c-.1,2.96,1.64,5.53,4.43,6.53.77.28,1.56.41,2.33.41,2.02,0,3.94-.92,5.25-2.62.07-.09.17-.11.22-.11h0c.05,0,.15.01.22.11,1.83,2.33,4.81,3.18,7.59,2.16,2.78-1.02,4.51-3.6,4.39-6.57,0-.12.06-.19.1-.22.04-.03.12-.09.24-.06,2.91.61,5.73-.65,7.2-3.23,1.47-2.57,1.14-5.65-.86-7.85-.08-.09-.08-.18-.07-.23,0-.05.04-.14.14-.2,2.62-1.4,3.97-4.18,3.44-7.1-.52-2.92-2.76-5.06-5.7-5.46ZM215.31,25.02c-.34.18-.58.51-.64.89-.07.38.05.77.31,1.06,1.71,1.87,1.99,4.51.73,6.7-1.26,2.2-3.67,3.28-6.15,2.76-.38-.08-.77.02-1.07.27-.3.25-.46.62-.44,1.01.1,2.53-1.37,4.73-3.75,5.61-2.38.87-4.92.15-6.49-1.84-.24-.31-.6-.48-.99-.48h0c-.39,0-.75.18-.99.49-1.55,2-4.09,2.74-6.47,1.89-2.38-.86-3.87-3.05-3.78-5.58.01-.39-.15-.76-.45-1.01-.23-.19-.51-.29-.8-.29-.09,0-.18.01-.27.03-2.48.54-4.9-.52-6.17-2.71-1.27-2.19-1-4.82.69-6.71.26-.29.37-.68.3-1.06-.07-.38-.31-.71-.65-.89-2.24-1.18-3.42-3.55-2.98-6.05.43-2.5,2.33-4.34,4.84-4.7.39-.06.72-.28.91-.62.19-.34.22-.74.07-1.1-.96-2.34-.33-4.92,1.6-6.55,1.93-1.64,4.58-1.83,6.73-.49.33.21.73.25,1.1.11.37-.13.64-.42.76-.79.77-2.42,2.9-3.98,5.44-3.99,0,0,.01,0,.02,0,2.52,0,4.66,1.55,5.44,3.95.12.37.4.66.77.79.37.13.77.09,1.09-.12,2.14-1.35,4.78-1.18,6.73.44,1.95,1.62,2.59,4.19,1.65,6.54-.15.36-.12.76.08,1.1.2.34.53.56.92.61,2.51.34,4.42,2.17,4.87,4.66.45,2.49-.71,4.88-2.94,6.07Z"/>
      <path class="cls-1" d="M211.91,14.16c-.1-.01-.15-.07-.17-.11-.02-.04-.05-.11-.01-.2,1.01-2.5.32-5.23-1.75-6.95-2.07-1.73-4.87-1.91-7.15-.47-.08.05-.16.04-.2.02-.04-.01-.11-.05-.14-.14-.84-2.56-3.12-4.23-5.81-4.2-2.69,0-4.96,1.67-5.78,4.24-.03.09-.1.13-.14.14-.04.01-.12.03-.2-.02-2.29-1.42-5.09-1.22-7.15.52-2.06,1.74-2.73,4.47-1.7,6.96.04.09,0,.16-.01.2-.02.04-.07.1-.16.11-2.67.38-4.68,2.34-5.14,4.99-.46,2.65.79,5.17,3.17,6.43.08.04.11.12.12.16,0,.04.01.12-.05.19-1.8,2-2.09,4.8-.73,7.13,1.35,2.33,3.93,3.46,6.56,2.89.09-.02.16.02.19.05s.08.08.08.18c-.09,2.69,1.49,5.02,4.02,5.93.7.25,1.41.37,2.11.37,1.83,0,3.58-.84,4.77-2.38.06-.08.14-.09.18-.09.05.02.12.01.18.09,1.66,2.12,4.37,2.89,6.89,1.96,2.53-.93,4.09-3.27,3.98-5.96,0-.09.05-.15.08-.18.03-.03.1-.07.19-.05,2.63.56,5.2-.59,6.54-2.93,1.34-2.34,1.03-5.13-.78-7.12-.06-.07-.06-.15-.06-.19,0-.04.03-.12.12-.16,2.38-1.27,3.6-3.8,3.13-6.45-.48-2.65-2.51-4.59-5.18-4.95ZM213.52,24.74c-.32.17-.53.47-.6.82-.06.35.04.71.29.98,1.54,1.69,1.79,4.05.66,6.03-1.13,1.98-3.31,2.95-5.54,2.48-.35-.07-.71.02-.99.25-.27.23-.42.57-.41.93.09,2.28-1.23,4.26-3.37,5.05-2.14.79-4.43.14-5.84-1.66-.22-.28-.55-.44-.91-.44h0c-.36,0-.69.17-.91.45-1.39,1.8-3.68,2.47-5.83,1.7s-3.48-2.74-3.41-5.02c.01-.36-.14-.7-.42-.93-.21-.18-.47-.27-.74-.27-.08,0-.17,0-.25.03-2.23.49-4.41-.47-5.55-2.44-1.15-1.97-.9-4.34.62-6.04.24-.27.34-.62.28-.98-.06-.35-.28-.65-.6-.82-2.02-1.06-3.07-3.2-2.68-5.44.39-2.25,2.1-3.91,4.35-4.23.36-.05.66-.26.84-.57.18-.31.2-.68.07-1.02-.87-2.11-.3-4.42,1.44-5.89,1.74-1.47,4.12-1.64,6.05-.44.31.19.67.23,1.01.1.34-.12.59-.39.7-.74.69-2.17,2.61-3.58,4.89-3.59h.02c2.27,0,4.19,1.39,4.9,3.56.11.34.37.61.71.73.34.12.71.08,1.01-.11,1.93-1.22,4.3-1.06,6.06.4,1.75,1.46,2.33,3.77,1.48,5.88-.13.33-.11.7.07,1.01.18.31.49.52.85.57,2.26.3,3.98,1.95,4.38,4.2.4,2.24-.64,4.39-2.65,5.46Z"/>
      <path class="cls-1" d="M210.31,15c-.07-.01-.11-.06-.13-.09-.02-.03-.04-.08-.01-.15h0c.9-2.24.29-4.69-1.57-6.24-1.86-1.55-4.38-1.71-6.42-.42-.06.04-.12.03-.15.02-.03-.01-.08-.04-.11-.11-.75-2.29-2.79-3.77-5.2-3.77h-.02c-2.42,0-4.46,1.5-5.19,3.81-.02.07-.08.1-.11.11-.03.01-.09.02-.15-.02-2.05-1.28-4.57-1.1-6.42.46-1.85,1.56-2.45,4.02-1.53,6.25.03.07,0,.13,0,.15-.02.03-.05.08-.13.09-2.4.34-4.21,2.1-4.62,4.48-.41,2.38.71,4.65,2.85,5.77.07.03.08.09.09.12,0,.03,0,.09-.04.15-1.62,1.8-1.87,4.31-.66,6.4,1.22,2.09,3.53,3.11,5.89,2.59.07-.02.12.02.15.04.02.02.07.07.06.14-.08,2.42,1.34,4.51,3.61,5.33.63.23,1.27.34,1.9.34,1.65,0,3.21-.75,4.28-2.14.05-.06.11-.07.14-.07-.01-.02.09,0,.14.07,1.49,1.9,3.92,2.6,6.19,1.76,2.27-.84,3.67-2.94,3.58-5.35,0-.07.04-.12.06-.14.02-.02.07-.05.15-.04,2.37.5,4.67-.53,5.87-2.63,1.2-2.1.93-4.61-.7-6.4-.05-.06-.05-.12-.04-.15,0-.03.02-.09.09-.13,2.13-1.14,3.24-3.41,2.81-5.79s-2.25-4.13-4.65-4.45ZM211.73,24.46c-.29.16-.49.43-.55.76-.06.33.04.65.26.9,1.36,1.5,1.6,3.6.59,5.36-1.01,1.76-2.94,2.62-4.92,2.21-.32-.07-.65.01-.9.23-.25.21-.39.52-.38.85.08,2.02-1.09,3.79-3,4.48-1.9.7-3.94.12-5.19-1.47-.2-.26-.51-.41-.84-.41h0c-.33,0-.63.15-.84.41-1.24,1.6-3.27,2.2-5.18,1.51-1.91-.69-3.09-2.44-3.03-4.46.01-.33-.13-.64-.38-.85-.19-.16-.43-.25-.68-.25-.08,0-.15,0-.23.03-1.98.43-3.92-.42-4.94-2.17-1.02-1.75-.8-3.86.55-5.37.22-.25.31-.57.25-.9-.06-.32-.26-.6-.55-.75-1.79-.94-2.73-2.84-2.39-4.84.34-2,1.86-3.47,3.87-3.76.33-.05.61-.24.77-.52.16-.29.19-.63.06-.93-.77-1.87-.27-3.93,1.28-5.24,1.55-1.31,3.66-1.46,5.38-.39.28.18.62.21.93.1.31-.11.54-.36.64-.67.62-1.93,2.32-3.18,4.35-3.19,2.06.01,3.74,1.23,4.37,3.16.1.31.34.56.65.67.31.11.65.08.93-.1,1.71-1.08,3.82-.95,5.38.35,1.56,1.3,2.07,3.35,1.32,5.23-.12.31-.1.65.07.93.17.29.45.47.78.52,2.01.27,3.54,1.73,3.9,3.73.36,2-.56,3.9-2.35,4.85Z"/>
      <path class="cls-1" d="M208.7,15.84c-.05,0-.08-.04-.09-.06-.01-.02-.03-.06,0-.11h0c.8-1.99.25-4.16-1.39-5.54-1.65-1.37-3.89-1.52-5.7-.37-.04.03-.09.02-.11.01-.02,0-.06-.03-.08-.08-.66-2.03-2.47-3.35-4.61-3.35h-.02c-2.15,0-3.95,1.33-4.6,3.38-.02.05-.05.07-.08.08-.02,0-.06.02-.11-.01-1.82-1.13-4.06-.97-5.69.41-1.64,1.38-2.17,3.56-1.36,5.55.02.05,0,.09,0,.11-.01.02-.04.05-.09.06-2.12.3-3.73,1.86-4.1,3.98-.37,2.11.63,4.12,2.52,5.12.05.03.06.07.07.09,0,.02,0,.06-.03.1-1.43,1.6-1.66,3.83-.58,5.68,1.08,1.85,3.13,2.76,5.23,2.3.05-.01.09.01.11.03.02.02.05.05.04.1-.07,2.14,1.19,4,3.2,4.72.56.2,1.13.3,1.68.3,1.46,0,2.85-.67,3.8-1.9.03-.04.09-.05.1-.05.02,0,.07,0,.1.05,1.32,1.69,3.48,2.3,5.49,1.56,2.01-.74,3.26-2.6,3.17-4.75,0-.05.03-.08.04-.1.02-.01.05-.04.11-.03,2.1.44,4.14-.47,5.21-2.33,1.07-1.86.82-4.09-.62-5.68-.04-.04-.04-.08-.03-.11,0-.02.02-.06.06-.09,1.89-1.01,2.87-3.03,2.49-5.14-.38-2.11-2-3.66-4.13-3.95ZM209.94,24.19c-.26.14-.45.39-.5.69-.05.3.04.59.24.82,1.19,1.31,1.4,3.15.52,4.69-.88,1.54-2.57,2.29-4.31,1.93-.29-.06-.59.01-.82.21-.23.19-.35.48-.34.78.07,1.77-.96,3.31-2.62,3.92-1.66.61-3.45.11-4.54-1.29-.18-.23-.46-.37-.76-.37h0c-.3,0-.58.14-.76.38-1.08,1.4-2.86,1.92-4.53,1.32-1.67-.6-2.71-2.13-2.65-3.9,0-.3-.12-.58-.35-.78-.18-.15-.39-.22-.62-.22-.07,0-.14,0-.21.02-1.73.38-3.43-.37-4.32-1.9-.89-1.53-.7-3.37.48-4.69.2-.22.29-.52.23-.82-.05-.3-.24-.55-.5-.69-1.57-.82-2.39-2.48-2.09-4.23.3-1.75,1.63-3.04,3.39-3.29.3-.04.55-.22.7-.48.15-.26.17-.57.06-.85-.67-1.64-.23-3.44,1.12-4.58,1.35-1.14,3.2-1.28,4.71-.34.25.16.56.19.85.09.28-.1.5-.33.59-.61.54-1.69,2.03-2.78,3.81-2.79h.01c1.77,0,3.26,1.08,3.81,2.76.09.29.31.51.59.61.28.1.59.07.84-.09,1.5-.95,3.35-.83,4.71.31,1.36,1.13,1.81,2.93,1.15,4.58-.11.28-.09.59.06.85.15.26.41.43.71.47,1.76.24,3.1,1.52,3.41,3.26.31,1.74-.49,3.41-2.06,4.25Z"/>
      <path class="cls-1" d="M207.04,16.65s-.02-.04,0-.06c.7-1.74.22-3.63-1.22-4.83-1.44-1.2-3.39-1.33-4.97-.32l-.11-.04c-.58-1.77-2.16-2.92-4.02-2.92h-.02c-1.87,0-3.45,1.16-4.02,2.95l.38.12-.49-.08c-1.59-.99-3.54-.85-4.97.36-1.43,1.21-1.89,3.11-1.18,4.84l-.06.1c-1.85.26-3.26,1.63-3.58,3.47-.32,1.84.55,3.6,2.2,4.47l.02.11c-1.25,1.39-1.45,3.34-.51,4.96.94,1.62,2.73,2.4,4.56,2.01l.09.07c-.06,1.87,1.03,3.49,2.8,4.12.49.17.98.26,1.47.26,1.27,0,2.49-.58,3.31-1.65h.12c1.15,1.47,3.03,2.01,4.79,1.36,1.76-.65,2.84-2.27,2.77-4.14l.09-.07c1.83.39,3.62-.41,4.55-2.04.93-1.63.72-3.57-.54-4.95l.02-.11c1.65-.88,2.5-2.64,2.17-4.48-.33-1.84-1.74-3.19-3.65-3.48ZM208.15,23.91c-.24.13-.4.35-.45.62-.05.27.03.53.21.73,1.02,1.12,1.2,2.7.44,4.02-.76,1.32-2.21,1.96-3.69,1.65-.26-.06-.54.01-.74.19s-.32.43-.31.7c.06,1.52-.82,2.84-2.25,3.36-1.43.52-2.95.09-3.89-1.11-.17-.21-.42-.33-.68-.33h0c-.27,0-.52.12-.69.34-.93,1.2-2.45,1.65-3.88,1.13-1.43-.51-2.32-1.83-2.27-3.35,0-.27-.1-.52-.31-.7-.16-.13-.35-.2-.55-.2-.06,0-.13,0-.19.02-1.49.33-2.94-.32-3.7-1.63-.76-1.31-.6-2.89.41-4.02.18-.2.26-.47.21-.74-.05-.27-.21-.49-.45-.62-1.35-.71-2.05-2.13-1.79-3.63.26-1.5,1.4-2.6,2.9-2.82.27-.04.5-.19.63-.43.14-.24.15-.51.05-.76-.58-1.4-.2-2.95.96-3.93,1.16-.98,2.74-1.1,4.03-.29.23.14.51.17.76.08.25-.09.45-.3.53-.55.46-1.45,1.74-2.39,3.26-2.39h.01c1.51,0,2.79.93,3.26,2.37.08.26.28.46.53.55.25.09.53.06.76-.08,1.29-.81,2.87-.71,4.04.26,1.17.97,1.55,2.51.99,3.92-.1.25-.08.53.06.76.14.23.37.39.64.42,1.51.2,2.65,1.3,2.92,2.8.27,1.5-.42,2.92-1.76,3.64Z"/>
      <path class="cls-1" d="M205.48,17.52s0-.02,0-.02c.6-1.48.19-3.1-1.04-4.13-1.23-1.02-2.89-1.13-4.28-.29-.49-1.51-1.84-2.49-3.43-2.49h-.01c-1.6,0-2.94.99-3.46,2.53-1.36-.85-3.02-.73-4.24.31-1.22,1.03-1.62,2.65-1.03,4.16-1.58.22-2.78,1.39-3.05,2.96s.47,3.07,1.89,3.85c-1.07,1.19-1.24,2.85-.43,4.23.8,1.38,2.33,2.05,3.92,1.74-.05,1.6.88,2.98,2.39,3.52.42.15.84.22,1.25.22,1.09,0,2.13-.5,2.86-1.41.99,1.26,2.59,1.71,4.09,1.16s2.43-1.94,2.39-3.56c1.57.33,3.09-.35,3.88-1.74.79-1.39.61-3.05-.46-4.26,1.41-.75,2.14-2.25,1.85-3.83-.28-1.57-1.49-2.73-3.09-2.95ZM206.36,23.63c-.21.11-.36.31-.4.55-.04.24.03.48.19.65,1.03,1.14.87,2.47.37,3.35-.63,1.1-1.83,1.64-3.08,1.38-.23-.05-.48.01-.66.17s-.28.38-.27.62c.06,1.54-.93,2.45-1.87,2.8-1.19.44-2.46.08-3.24-.92-.15-.19-.37-.3-.61-.3h0c-.24,0-.46.11-.61.3-.77,1-2.04,1.37-3.23.94-.95-.34-1.94-1.25-1.89-2.79,0-.24-.09-.47-.28-.62-.14-.12-.31-.18-.49-.18-.06,0-.11,0-.17.02-1.5.33-2.58-.49-3.08-1.36-.64-1.09-.5-2.41.34-3.35.16-.18.23-.42.19-.66-.04-.24-.19-.44-.4-.55-1.36-.71-1.66-2.03-1.49-3.02.17-.99.9-2.13,2.42-2.35.24-.03.44-.17.56-.38.12-.21.14-.46.04-.68-.58-1.42.03-2.62.8-3.27.97-.82,2.28-.91,3.36-.24.2.13.45.15.68.07.23-.08.4-.26.47-.49.47-1.46,1.71-1.99,2.72-1.99h.01c1.26,0,2.33.77,2.72,1.97.08.23.25.41.47.49.23.08.47.06.68-.07,1.3-.82,2.59-.43,3.36.22.97.81,1.3,2.09.82,3.27h0c-.09.22-.07.47.05.68.12.21.33.34.57.38,1.52.21,2.25,1.34,2.43,2.33.18.99-.11,2.31-1.47,3.03Z"/>
      <path class="cls-1" d="M203.91,18.41c.49-1.23.16-2.57-.86-3.42-1.02-.85-2.4-.94-3.48-.21-.41-1.26-1.53-2.07-2.85-2.07h-.01c-1.32,0-2.44.82-2.8,2.07-1.12-.7-2.51-.6-3.52.25-1.01.86-1.34,2.2-.81,3.39-1.31.19-2.3,1.15-2.53,2.46-.23,1.31.39,2.55,1.55,3.12-.88.99-1.03,2.36-.36,3.51.67,1.14,1.94,1.7,3.19,1.39-.04,1.32.73,2.47,1.98,2.92.34.12.69.18,1.04.18.9,0,1.75-.41,2.3-1.17.82,1.04,2.15,1.42,3.39.96,1.24-.46,2.01-1.6,1.95-2.9,1.29.26,2.54-.3,3.19-1.45.66-1.15.51-2.53-.39-3.46,1.17-.62,1.77-1.87,1.54-3.17-.23-1.3-1.23-2.26-2.52-2.4ZM204.57,23.35c-.19.1-.31.28-.35.48-.04.21.02.42.17.57.83.91.69,1.98.29,2.68-.4.7-1.25,1.36-2.46,1.1h0c-.2-.04-.42.01-.58.15-.16.14-.25.34-.24.55.05,1.23-.74,1.96-1.5,2.24-.76.28-1.83.23-2.59-.74-.13-.17-.36-.28-.54-.26-.21,0-.41.1-.54.26-.75.97-1.83,1.03-2.58.75-.76-.27-1.55-1-1.51-2.23,0-.21-.08-.41-.24-.55-.12-.1-.28-.16-.43-.16-.05,0-.1,0-.15.02-1.2.26-2.06-.39-2.46-1.08-.41-.7-.55-1.77.27-2.68.14-.16.2-.36.16-.57-.04-.21-.17-.38-.35-.48-1.09-.57-1.33-1.62-1.19-2.41.14-.79.72-1.7,1.93-1.88.21-.03.39-.15.49-.33.1-.18.12-.4.04-.6-.47-1.14.02-2.1.64-2.62.62-.52,1.64-.84,2.69-.2.18.11.4.13.59.06.2-.07.35-.23.41-.43.37-1.17,1.37-1.59,2.17-1.59h0c.8,0,1.79.41,2.17,1.58.07.2.22.36.42.43.2.07.41.05.59-.06,1.04-.66,2.07-.34,2.69.17.62.52,1.12,1.47.66,2.61-.08.2-.06.41.04.59.11.18.29.3.5.33,1.22.16,1.8,1.07,1.95,1.86.14.79-.09,1.85-1.17,2.42Z"/>
      <path class="cls-1" d="M392.29,13.44c-1.54-1.45-3.98-1.37-5.43.17-.7.75-1.07,1.72-1.04,2.75.03.87.35,1.68.91,2.34l-3.31,3.52h-18l2.69-2.85c.65.46,1.41.72,2.21.72.04,0,.08,0,.12,0,1.02-.03,1.98-.46,2.68-1.21h0c1.45-1.54,1.38-3.98-.17-5.43-1.54-1.45-3.98-1.37-5.43.17-.7.75-1.07,1.72-1.04,2.75.03.87.35,1.68.91,2.34l-3.31,3.52h-18l2.69-2.85c.66.47,1.44.72,2.21.72,1.02,0,2.04-.4,2.8-1.21h0c1.45-1.54,1.38-3.98-.17-5.43-1.54-1.45-3.97-1.37-5.43.17-.7.75-1.07,1.72-1.04,2.75.03.87.35,1.68.91,2.34l-3.31,3.52h-18l2.68-2.85c.65.46,1.41.72,2.21.72.04,0,.08,0,.12,0,1.02-.03,1.98-.46,2.68-1.21h0c1.45-1.54,1.38-3.98-.17-5.43-1.54-1.45-3.98-1.37-5.43.17-.7.75-1.07,1.72-1.04,2.75.03.87.35,1.68.91,2.34l-3.31,3.52h-18l2.69-2.85c.65.46,1.41.72,2.21.72.04,0,.08,0,.12,0,1.02-.03,1.98-.46,2.68-1.21h0c1.45-1.54,1.38-3.98-.17-5.43-1.54-1.45-3.98-1.37-5.43.17-.7.75-1.07,1.72-1.04,2.75.03.87.35,1.68.91,2.34l-3.31,3.52h-18l2.69-2.85c.65.46,1.41.72,2.21.72.04,0,.08,0,.12,0,1.02-.03,1.98-.46,2.68-1.21h0c1.45-1.54,1.38-3.98-.17-5.43-1.54-1.45-3.98-1.37-5.43.17-.7.75-1.07,1.72-1.04,2.75.03.87.35,1.68.91,2.34l-3.31,3.52h-18l2.68-2.85c.65.46,1.41.72,2.21.72.04,0,.08,0,.12,0,1.02-.03,1.98-.46,2.68-1.21h0c1.45-1.54,1.38-3.98-.17-5.43-1.54-1.45-3.98-1.37-5.43.17-.7.75-1.07,1.72-1.04,2.75.03.87.35,1.68.91,2.34l-3.31,3.52h-18l2.69-2.85c.66.47,1.44.72,2.21.72,1.02,0,2.04-.41,2.8-1.21h0c1.45-1.54,1.38-3.98-.17-5.43s-3.97-1.37-5.43.17c-.7.75-1.07,1.72-1.04,2.75.03.87.35,1.68.91,2.34l-3.31,3.52h-18l2.68-2.85c.65.46,1.41.72,2.21.72.04,0,.08,0,.12,0,1.02-.03,1.98-.46,2.68-1.21h0c1.45-1.54,1.38-3.98-.17-5.43-1.54-1.45-3.98-1.37-5.43.17-.7.75-1.07,1.72-1.04,2.75.03.87.35,1.68.91,2.34l-3.31,3.52h-4.47v.97h15.35l3.33,3.54c-.55.64-.88,1.43-.91,2.28-.03.98.33,1.92,1,2.64.67.72,1.59,1.13,2.57,1.16.04,0,.08,0,.11,0,.94,0,1.83-.35,2.52-1,1.48-1.39,1.55-3.73.16-5.21-.67-.72-1.59-1.13-2.57-1.16-.83-.04-1.62.23-2.28.72l-2.8-2.97h18.2l3.33,3.54c-1.22,1.41-1.21,3.54.09,4.92.72.77,1.7,1.16,2.69,1.16.91,0,1.81-.33,2.52-1,1.48-1.39,1.55-3.73.16-5.21-1.29-1.37-3.37-1.51-4.85-.43l-2.8-2.98h18.2l3.33,3.54c-.55.64-.88,1.43-.91,2.28-.03.98.33,1.92,1,2.64.67.72,1.59,1.13,2.57,1.16.04,0,.08,0,.12,0,.94,0,1.83-.35,2.52-1,1.48-1.39,1.55-3.73.16-5.21-.67-.72-1.59-1.13-2.57-1.16-.82-.04-1.62.23-2.28.72l-2.8-2.97h18.2l3.33,3.54c-1.21,1.41-1.21,3.54.09,4.92.72.77,1.7,1.16,2.69,1.16.91,0,1.81-.33,2.52-1,1.48-1.39,1.55-3.73.16-5.21-1.29-1.37-3.37-1.51-4.85-.43l-2.8-2.98h18.2l3.33,3.54c-.55.64-.88,1.43-.91,2.28-.03.98.32,1.92,1,2.64.67.72,1.59,1.13,2.57,1.16.04,0,.08,0,.12,0,.94,0,1.83-.35,2.52-1,1.48-1.39,1.55-3.73.16-5.21-.67-.72-1.59-1.13-2.57-1.16-.83-.04-1.62.23-2.28.72l-2.8-2.97h18.2l3.33,3.54c-1.22,1.41-1.21,3.54.09,4.92.72.77,1.7,1.16,2.69,1.16.91,0,1.81-.33,2.52-1,1.48-1.39,1.55-3.73.16-5.21-.67-.72-1.59-1.13-2.57-1.16-.84-.04-1.62.23-2.28.72l-2.8-2.97h18.2l3.33,3.54c-1.22,1.41-1.21,3.54.09,4.92.67.72,1.59,1.13,2.57,1.16.04,0,.08,0,.12,0,.94,0,1.83-.35,2.52-1,1.48-1.39,1.55-3.73.16-5.21-.67-.72-1.59-1.13-2.57-1.16-.83-.04-1.62.23-2.28.72l-2.8-2.97h18.2l3.33,3.54c-1.22,1.41-1.21,3.54.09,4.92.67.72,1.59,1.13,2.57,1.16.04,0,.08,0,.11,0,.94,0,1.83-.35,2.52-1,1.48-1.39,1.55-3.73.16-5.21-.67-.72-1.59-1.13-2.57-1.16-.85-.04-1.63.23-2.28.72l-2.8-2.97h7.83v-.21l.06.06,3.46-3.67c.66.47,1.44.72,2.21.72,1.02,0,2.04-.4,2.8-1.21h0c1.45-1.54,1.38-3.98-.17-5.43ZM368.23,14.27c.56-.6,1.32-.9,2.09-.9.7,0,1.41.26,1.96.78,1.15,1.08,1.2,2.9.12,4.05-.52.56-1.23.88-2,.9-.76.03-1.49-.25-2.05-.78-.56-.52-.88-1.23-.9-2-.02-.76.25-1.49.78-2.05ZM348.89,14.27c.56-.6,1.32-.9,2.09-.9.7,0,1.41.26,1.96.78,1.15,1.08,1.2,2.9.12,4.05-1.08,1.15-2.9,1.2-4.05.12-.56-.52-.88-1.23-.9-2-.02-.76.25-1.49.78-2.05ZM329.55,14.27c.56-.6,1.32-.9,2.09-.9.7,0,1.41.26,1.96.78,1.15,1.08,1.2,2.9.12,4.05-.52.56-1.23.88-2,.9-.75.03-1.49-.25-2.05-.78-.56-.52-.88-1.23-.9-2-.02-.76.25-1.49.78-2.05ZM310.2,14.27c.56-.6,1.32-.9,2.09-.9.7,0,1.41.26,1.96.78,1.15,1.08,1.2,2.9.12,4.05-.52.56-1.23.88-2,.9-.76.03-1.49-.25-2.05-.78-.56-.52-.88-1.23-.9-2-.02-.76.25-1.49.78-2.05ZM290.86,14.27c.56-.6,1.32-.9,2.09-.9.7,0,1.41.26,1.96.78,1.15,1.08,1.2,2.9.12,4.05-.52.56-1.23.88-2,.9-.75.03-1.49-.25-2.05-.78-.56-.52-.88-1.23-.9-2-.02-.76.25-1.49.78-2.05ZM271.52,14.27c.56-.6,1.32-.9,2.09-.9.7,0,1.41.26,1.96.78,1.15,1.08,1.2,2.9.12,4.05-.52.56-1.23.88-2,.9-.75.03-1.49-.25-2.05-.78-.56-.52-.88-1.23-.9-2-.02-.76.25-1.49.78-2.05ZM252.17,14.27c.56-.6,1.32-.9,2.09-.9.7,0,1.41.26,1.96.78,1.15,1.08,1.2,2.9.12,4.05-1.08,1.15-2.9,1.21-4.05.12-.56-.52-.88-1.23-.9-2-.02-.76.25-1.49.78-2.05ZM232.83,14.27c.56-.6,1.32-.9,2.09-.9.7,0,1.41.26,1.96.78,1.15,1.08,1.2,2.9.12,4.05-.52.56-1.23.88-2,.9-.75.03-1.49-.25-2.05-.78-.56-.52-.88-1.23-.9-2-.02-.76.25-1.49.78-2.05ZM245.75,26.09c.8.02,1.55.36,2.1.95,1.14,1.21,1.08,3.12-.13,4.26-1.21,1.14-3.12,1.08-4.26-.13-1.14-1.21-1.08-3.12.13-4.26.56-.53,1.29-.82,2.06-.82.03,0,.06,0,.09,0ZM267.2,27.04c1.14,1.21,1.08,3.12-.13,4.26-1.21,1.14-3.12,1.08-4.26-.13-1.14-1.21-1.08-3.12.13-4.26.58-.55,1.32-.82,2.07-.82.8,0,1.6.32,2.2.95ZM284.44,26.09c.8.02,1.55.36,2.1.95,1.14,1.21,1.08,3.12-.13,4.26-.58.55-1.33.84-2.16.82-.81-.02-1.55-.36-2.1-.95-1.14-1.21-1.08-3.12.13-4.26.56-.53,1.29-.82,2.06-.82.03,0,.06,0,.09,0ZM305.89,27.04c1.14,1.21,1.08,3.12-.13,4.26-1.21,1.14-3.12,1.08-4.26-.13-1.14-1.21-1.08-3.12.13-4.26.58-.55,1.32-.82,2.07-.82.8,0,1.6.32,2.2.95ZM323.12,26.09c.81.02,1.55.36,2.1.95,1.14,1.21,1.08,3.12-.13,4.26-.59.55-1.37.83-2.16.82-.81-.02-1.55-.36-2.1-.95-.55-.59-.84-1.35-.82-2.16.02-.8.36-1.55.95-2.1.56-.53,1.29-.82,2.06-.82.03,0,.06,0,.09,0ZM342.47,26.09c.81.02,1.55.36,2.1.95,1.14,1.21,1.08,3.12-.13,4.26-1.21,1.14-3.12,1.08-4.26-.13-1.14-1.21-1.08-3.12.13-4.26.56-.53,1.29-.82,2.06-.82.03,0,.06,0,.09,0ZM361.81,26.09c.8.02,1.55.36,2.1.95,1.14,1.21,1.08,3.12-.13,4.26-.59.55-1.35.83-2.16.82-.81-.02-1.55-.36-2.1-.95-.55-.59-.84-1.35-.82-2.16.02-.8.36-1.55.95-2.1.56-.53,1.29-.82,2.06-.82.03,0,.06,0,.09,0ZM381.15,26.09c.81.02,1.55.36,2.1.95,1.14,1.21,1.08,3.12-.13,4.26-.59.55-1.36.85-2.16.82-.81-.02-1.55-.36-2.1-.95-1.14-1.21-1.08-3.12.13-4.26.56-.53,1.29-.82,2.06-.82.03,0,.06,0,.09,0ZM391.74,18.19c-1.08,1.15-2.9,1.21-4.05.12-.56-.52-.88-1.23-.9-2-.02-.76.25-1.49.78-2.05.56-.6,1.32-.9,2.09-.9.7,0,1.41.26,1.96.78,1.15,1.08,1.2,2.9.12,4.05Z"/>
      <path class="cls-1" d="M161.51,17.71c.55-.66.88-1.46.91-2.34.03-1.02-.34-2-1.04-2.75-1.45-1.54-3.88-1.61-5.43-.17-1.54,1.45-1.62,3.89-.17,5.43h0c.7.75,1.65,1.18,2.68,1.21.04,0,.08,0,.12,0,.8,0,1.57-.26,2.21-.72l2.69,2.85h-18l-3.31-3.52c.55-.66.88-1.46.91-2.34.03-1.02-.34-2-1.04-2.75-1.45-1.54-3.88-1.61-5.43-.17-1.54,1.45-1.62,3.88-.17,5.43h0c.75.8,1.77,1.21,2.8,1.21.78,0,1.55-.25,2.21-.72l2.69,2.85h-18l-3.31-3.52c.55-.66.88-1.46.91-2.34.03-1.02-.34-2-1.04-2.75-1.45-1.54-3.88-1.61-5.43-.17-1.54,1.45-1.62,3.88-.17,5.43h0c.7.75,1.65,1.18,2.68,1.21.04,0,.08,0,.12,0,.8,0,1.57-.26,2.21-.72l2.69,2.85h-18l-3.31-3.52c.55-.66.88-1.46.91-2.34.03-1.02-.34-2-1.04-2.75-1.45-1.54-3.88-1.61-5.43-.17-1.54,1.45-1.62,3.89-.17,5.43h0c.7.75,1.65,1.18,2.68,1.21.04,0,.08,0,.12,0,.8,0,1.57-.26,2.21-.72l2.68,2.85h-18l-3.31-3.52c.55-.66.88-1.46.91-2.34.03-1.02-.34-2-1.04-2.75-1.45-1.54-3.88-1.61-5.43-.17-1.54,1.45-1.62,3.89-.17,5.43h0c.7.75,1.65,1.18,2.68,1.21.04,0,.08,0,.12,0,.8,0,1.57-.26,2.21-.72l2.68,2.85h-18l-3.31-3.52c.55-.66.88-1.46.91-2.34.03-1.02-.34-2-1.04-2.75-1.45-1.54-3.88-1.61-5.43-.17-1.54,1.45-1.62,3.89-.17,5.43h0c.7.75,1.65,1.18,2.68,1.21.04,0,.08,0,.12,0,.8,0,1.57-.26,2.21-.72l2.69,2.85h-18l-3.31-3.52c.55-.66.88-1.46.91-2.34.03-1.02-.34-2-1.04-2.75-1.45-1.54-3.88-1.61-5.43-.17-1.54,1.45-1.62,3.88-.17,5.43h0c.75.8,1.77,1.21,2.8,1.21.78,0,1.55-.25,2.21-.72l2.69,2.85h-18l-3.31-3.52c.55-.66.88-1.46.91-2.34.03-1.02-.34-2-1.04-2.75-1.45-1.54-3.88-1.61-5.43-.17-1.54,1.45-1.62,3.88-.17,5.43h0c.7.75,1.65,1.18,2.68,1.21.04,0,.08,0,.12,0,.8,0,1.57-.26,2.21-.72l2.68,2.85H10.08l-3.31-3.52c.55-.66.88-1.46.91-2.34.03-1.02-.34-2-1.04-2.75-1.45-1.54-3.88-1.61-5.43-.17-1.54,1.45-1.62,3.88-.17,5.43h0c.75.8,1.77,1.21,2.8,1.21.78,0,1.55-.25,2.21-.72l3.46,3.67.06-.06v.21h7.83l-2.8,2.97c-.66-.49-1.43-.76-2.28-.72-.98.03-1.9.44-2.57,1.16-1.39,1.48-1.32,3.82.16,5.21.69.65,1.58,1,2.52,1,.04,0,.08,0,.11,0,.98-.03,1.9-.44,2.57-1.16,1.3-1.39,1.31-3.51.09-4.92l3.33-3.54h18.2l-2.8,2.97c-.66-.49-1.45-.76-2.28-.72-.98.03-1.9.44-2.57,1.16-1.39,1.48-1.32,3.82.16,5.21.69.65,1.58,1,2.52,1,.04,0,.08,0,.12,0,.98-.03,1.9-.44,2.57-1.16,1.3-1.39,1.31-3.51.09-4.92l3.33-3.54h18.2l-2.8,2.97c-.66-.49-1.44-.76-2.28-.72-.98.03-1.9.44-2.57,1.16-1.39,1.48-1.32,3.82.16,5.21.71.67,1.62,1,2.52,1,.98,0,1.96-.39,2.69-1.16,1.3-1.39,1.31-3.51.09-4.92l3.33-3.54h18.2l-2.8,2.97c-.66-.49-1.46-.77-2.28-.72-.98.03-1.9.44-2.57,1.16-1.39,1.48-1.32,3.82.16,5.21.69.65,1.58,1,2.52,1,.04,0,.08,0,.12,0,.98-.03,1.9-.44,2.57-1.16.67-.72,1.03-1.65,1-2.64-.03-.85-.35-1.65-.91-2.28l3.33-3.54h18.2l-2.8,2.98c-1.48-1.08-3.56-.93-4.85.43-1.39,1.48-1.32,3.82.16,5.21.71.67,1.62,1,2.52,1,.98,0,1.96-.39,2.69-1.16,1.3-1.39,1.31-3.51.09-4.92l3.33-3.54h18.2l-2.8,2.97c-.66-.49-1.46-.77-2.28-.72-.98.03-1.9.44-2.57,1.16-1.39,1.48-1.32,3.82.16,5.21.69.65,1.58,1,2.52,1,.04,0,.08,0,.12,0,.98-.03,1.9-.44,2.57-1.16.67-.72,1.03-1.65,1-2.64-.03-.85-.35-1.65-.91-2.28l3.33-3.54h18.2l-2.8,2.98c-1.48-1.08-3.56-.93-4.85.43-1.39,1.48-1.32,3.82.16,5.21.71.67,1.62,1,2.52,1,.98,0,1.96-.39,2.69-1.16,1.3-1.39,1.31-3.51.09-4.92l3.33-3.54h18.2l-2.8,2.97c-.66-.49-1.45-.76-2.28-.72-.98.03-1.9.44-2.57,1.16-1.39,1.48-1.32,3.82.16,5.21.69.65,1.58,1,2.52,1,.04,0,.08,0,.11,0,.98-.03,1.9-.44,2.57-1.16.67-.72,1.03-1.65,1-2.64-.03-.85-.35-1.65-.91-2.28l3.33-3.54h15.35v-.97h-4.47l-3.31-3.52ZM158.49,18.12c-.76-.02-1.47-.34-2-.9-1.08-1.15-1.03-2.96.12-4.05,1.15-1.08,2.96-1.03,4.04.12.52.56.8,1.28.78,2.05-.02.76-.34,1.47-.9,2-.56.52-1.31.8-2.05.78ZM137.15,17.22c-1.08-1.15-1.02-2.96.12-4.05,1.15-1.08,2.96-1.03,4.05.12.52.56.8,1.28.78,2.05-.02.76-.34,1.47-.9,2-1.15,1.08-2.96,1.03-4.04-.12ZM119.81,18.12c-.76-.02-1.47-.34-2-.9-1.08-1.15-1.03-2.96.12-4.05,1.15-1.08,2.96-1.03,4.04.12.52.56.8,1.28.78,2.05-.02.76-.34,1.47-.9,2-.56.52-1.3.8-2.05.78ZM100.47,18.12c-.76-.02-1.47-.34-2-.9-1.08-1.15-1.03-2.96.12-4.05,1.15-1.08,2.96-1.03,4.05.12.52.56.8,1.28.78,2.05-.02.76-.34,1.47-.9,2-.56.52-1.31.8-2.05.78ZM81.12,18.12c-.76-.02-1.47-.34-2-.9-1.08-1.15-1.02-2.96.12-4.05,1.15-1.08,2.96-1.03,4.05.12.52.56.8,1.28.78,2.05-.02.76-.34,1.47-.9,2-.56.52-1.31.8-2.05.78ZM61.78,18.12c-.76-.02-1.47-.34-2-.9-1.08-1.15-1.03-2.96.12-4.05,1.15-1.08,2.96-1.03,4.04.12.52.56.8,1.28.78,2.05-.02.76-.34,1.47-.9,2-.56.52-1.3.8-2.05.78ZM40.44,17.22c-1.08-1.15-1.02-2.96.12-4.05,1.15-1.08,2.96-1.03,4.05.12.52.56.8,1.28.78,2.05-.02.76-.34,1.47-.9,2-1.15,1.08-2.96,1.03-4.04-.12ZM23.09,18.12c-.76-.02-1.47-.34-2-.9-1.08-1.15-1.03-2.96.12-4.05,1.15-1.08,2.96-1.03,4.05.12.52.56.8,1.28.78,2.05-.02.76-.34,1.47-.9,2-.56.52-1.31.8-2.05.78ZM1.75,17.22c-1.08-1.15-1.02-2.96.12-4.05,1.15-1.08,2.96-1.03,4.04.12.52.56.8,1.28.78,2.05-.02.76-.34,1.47-.9,2-1.15,1.08-2.96,1.03-4.05-.12ZM14.63,30.2c-.55.59-1.3.92-2.1.95-.8.04-1.57-.27-2.16-.82-1.21-1.14-1.27-3.05-.13-4.26.55-.59,1.3-.92,2.1-.95.03,0,.06,0,.09,0,.77,0,1.5.29,2.06.82,1.21,1.14,1.27,3.05.13,4.26ZM33.97,30.2c-.55.59-1.3.92-2.1.95-.81.02-1.57-.27-2.16-.82-1.21-1.14-1.27-3.05-.13-4.26.55-.59,1.3-.92,2.1-.95.03,0,.06,0,.09,0,.77,0,1.5.29,2.06.82.59.55.92,1.3.95,2.1.02.81-.27,1.57-.82,2.16ZM53.32,30.2c-1.14,1.21-3.05,1.27-4.26.13-1.21-1.14-1.27-3.05-.13-4.26.55-.59,1.3-.92,2.1-.95.03,0,.06,0,.09,0,.77,0,1.5.29,2.06.82,1.21,1.14,1.27,3.05.13,4.26ZM72.66,30.2c-.55.59-1.3.92-2.1.95-.79.02-1.57-.27-2.16-.82-1.21-1.14-1.27-3.05-.13-4.26.55-.59,1.3-.92,2.1-.95.03,0,.06,0,.09,0,.77,0,1.5.29,2.06.82.59.55.92,1.3.95,2.1.02.81-.27,1.57-.82,2.16ZM92,30.2c-1.14,1.21-3.05,1.27-4.26.13-1.21-1.14-1.27-3.05-.13-4.26.59-.63,1.39-.95,2.2-.95.74,0,1.48.27,2.07.82,1.21,1.14,1.27,3.05.13,4.26ZM111.34,30.2c-.55.59-1.3.92-2.1.95-.83.02-1.57-.27-2.16-.82-1.21-1.14-1.27-3.05-.13-4.26.55-.59,1.3-.92,2.1-.95.03,0,.06,0,.09,0,.77,0,1.5.29,2.06.82,1.21,1.14,1.27,3.05.13,4.26ZM130.69,30.2c-1.14,1.21-3.05,1.27-4.26.13-1.21-1.14-1.27-3.05-.13-4.26.59-.63,1.39-.95,2.2-.95.74,0,1.48.27,2.07.82,1.21,1.14,1.27,3.05.13,4.26ZM150.03,30.2c-1.14,1.21-3.05,1.27-4.26.13-1.21-1.14-1.27-3.05-.13-4.26.55-.59,1.3-.92,2.1-.95.03,0,.06,0,.09,0,.77,0,1.5.29,2.06.82,1.21,1.14,1.27,3.05.13,4.26Z"/>
    </g>
  </g>
</svg>