<?xml version="1.0" encoding="UTF-8"?>
<svg id="Layer_2" data-name="Layer 2" xmlns="http://www.w3.org/2000/svg" viewBox="0 0 394.07 42.98">
  <defs>
    <style>
      .cls-1 {
        fill: #201522;
      }
    </style>
  </defs>
  <g id="Objects">
    <g>
      <path class="cls-1" d="M393.73,21.67c-.66-2.55-2.17-4.89-4.26-6.5-2.06-1.63-4.54-2.62-7.06-3.12-5.11-1.01-10.2.09-14.93,1.36-9.48,2.62-18.86,5.5-28.33,8.08-4.73,1.3-9.49,2.5-14.26,3.66-4.76,1.18-9.56,2.22-14.36,3.22-9.61,1.96-19.27,3.67-28.97,4.78-2.43.27-4.85.56-7.29.7-1.22.08-2.43.2-3.65.25l-3.65.12c-2.43.11-4.86.06-7.25-.1-2.39-.16-4.76-.51-7.04-1.14-4.51-1.23-8.8-3.74-11.35-7.59-2.56-3.72-3.06-9.05-.65-12.92,1.17-1.91,3.16-3.28,5.36-3.88,2.2-.6,4.67-.4,6.59.85,1.93,1.21,3.01,3.55,3.06,5.9.07,2.33-.95,4.83-3.09,6.05-.05.03-.07.09-.04.13.02.05.09.07.14.05,1.13-.53,2.08-1.46,2.7-2.57.62-1.11.94-2.38.99-3.65.05-1.28-.17-2.57-.69-3.77-.51-1.19-1.37-2.28-2.45-3.03-2.16-1.55-5-1.9-7.54-1.32-2.55.56-4.96,2.09-6.42,4.34-1.48,2.22-2.1,4.91-2.01,7.52.09,2.61.9,5.22,2.32,7.43,2.87,4.43,7.59,7.26,12.49,8.6,4.93,1.35,10.02,1.44,14.94,1.2l3.71-.17c1.23-.08,2.46-.21,3.69-.31,2.47-.18,4.91-.51,7.36-.81,4.89-.62,9.74-1.5,14.58-2.41l7.22-1.53,7.18-1.67c4.78-1.15,9.53-2.38,14.3-3.58l14.26-3.7c4.76-1.22,9.52-2.42,14.28-3.59l14.29-3.5c4.72-1.13,9.54-2.07,14.16-1.19,2.29.43,4.51,1.3,6.32,2.7,1.82,1.37,3.17,3.33,3.79,5.52.61,2.17.45,4.6-.75,6.48-1.22,1.87-3.37,3.2-5.63,3.34-1.12.06-2.26-.21-3.22-.78-.95-.59-1.67-1.55-2.1-2.63-.43-1.08-.58-2.29-.36-3.45.21-1.15.81-2.26,1.79-2.96.04-.03.06-.09.03-.14-.03-.05-.09-.06-.14-.03-1.08.65-1.86,1.79-2.16,3.03-.31,1.24-.23,2.57.17,3.8.4,1.22,1.15,2.37,2.25,3.16,1.11.77,2.45,1.11,3.78,1.1,2.67-.08,5.18-1.48,6.74-3.66,1.57-2.24,1.84-5.13,1.17-7.67Z"/>
      <path class="cls-1" d="M148.36,7.24c-2.54-.58-5.37-.23-7.54,1.32-1.08.76-1.94,1.84-2.45,3.03-.51,1.2-.74,2.49-.69,3.77.05,1.27.37,2.54.99,3.65.61,1.11,1.56,2.04,2.7,2.57.05.02.11,0,.13-.04.03-.05.01-.11-.04-.14-2.14-1.21-3.16-3.71-3.09-6.05.05-2.35,1.13-4.69,3.06-5.9,1.92-1.25,4.39-1.45,6.59-.85,2.21.61,4.19,1.97,5.36,3.88,2.41,3.87,1.91,9.2-.65,12.92-2.55,3.85-6.84,6.36-11.35,7.59-2.27.63-4.64.97-7.04,1.14-2.39.16-4.82.22-7.25.1l-3.65-.12c-1.22-.06-2.43-.17-3.65-.25-2.43-.14-4.86-.43-7.29-.7-9.71-1.12-19.36-2.83-28.97-4.78-4.8-1-9.6-2.04-14.36-3.22-4.77-1.15-9.52-2.36-14.26-3.66-9.47-2.58-18.85-5.46-28.33-8.08-4.73-1.28-9.82-2.37-14.93-1.36-2.51.5-4.99,1.48-7.06,3.12-2.09,1.61-3.6,3.95-4.26,6.5-.67,2.54-.4,5.43,1.17,7.67,1.56,2.18,4.07,3.58,6.74,3.66,1.33.02,2.67-.33,3.78-1.1,1.1-.79,1.85-1.94,2.25-3.16.4-1.23.48-2.55.17-3.8-.3-1.24-1.08-2.38-2.16-3.03-.05-.03-.11-.02-.14.03-.03.05-.02.11.02.14.98.7,1.59,1.81,1.79,2.96.21,1.16.07,2.37-.36,3.45-.43,1.08-1.16,2.03-2.1,2.63-.95.57-2.09.84-3.22.78-2.26-.14-4.42-1.47-5.63-3.34-1.2-1.87-1.37-4.31-.75-6.48.62-2.19,1.97-4.15,3.79-5.52,1.81-1.4,4.03-2.27,6.32-2.7,4.62-.88,9.44.05,14.16,1.19l14.29,3.5c4.77,1.17,9.53,2.37,14.28,3.59l14.26,3.7c4.76,1.2,9.52,2.43,14.3,3.58l7.18,1.67,7.22,1.53c4.84.91,9.68,1.79,14.58,2.41,2.45.3,4.89.63,7.36.81,1.23.1,2.46.23,3.69.31l3.71.17c4.92.24,10,.14,14.94-1.2,4.9-1.34,9.62-4.17,12.49-8.6,1.42-2.21,2.23-4.82,2.32-7.43.1-2.61-.53-5.3-2.01-7.52-1.46-2.26-3.87-3.79-6.42-4.34Z"/>
      <path class="cls-1" d="M209.91,21.95c-4.23-1.87-8.43-3.79-12.59-5.59,2.46-.98,4.94-2.06,7.46-3.1,2.61-1.13,5.25-2.28,7.87-3.48l1.43-.65-1.41-.79c-2.5-1.4-5.04-2.73-7.56-4.09l-7.61-3.99-.47-.25-.47.25-7.61,3.99c-2.52,1.36-5.05,2.7-7.56,4.09l-1.4.78,1.42.65c2.63,1.2,5.26,2.35,7.87,3.48,2.52,1.04,5.01,2.13,7.46,3.11-4.16,1.8-8.36,3.72-12.59,5.59-4.32,1.96-8.66,3.94-13,5.98l-1.43.67,1.41.76c4.21,2.28,8.45,4.5,12.68,6.74l12.74,6.64.47.25.47-.25,12.74-6.63c4.23-2.25,8.47-4.46,12.68-6.74l1.42-.77-1.43-.67c-4.34-2.03-8.68-4.02-13-5.98ZM209.35,34.36l-12.31,6.29-12.31-6.29c-3.81-1.91-7.61-3.84-11.43-5.73,3.69-1.87,7.38-3.78,11.09-5.71,4.1-2.18,8.23-4.31,12.39-6.56.08.03.17.07.26.11-.07-.04-.15-.08-.22-.12.07-.04.15-.08.22-.12-.08.03-.16.07-.24.11-2.46-1.41-4.89-2.72-7.28-4.07-2-1.09-3.99-2.15-5.97-3.2,2.11-1.02,4.21-2.07,6.31-3.1l7.19-3.65,7.19,3.65c2.1,1.03,4.2,2.08,6.3,3.1-1.98,1.04-3.97,2.11-5.97,3.19-2.39,1.35-4.82,2.65-7.28,4.07-.08-.03-.16-.07-.24-.11.07.04.15.08.22.12-.07.04-.15.08-.22.12.08-.03.17-.07.26-.11,4.16,2.25,8.3,4.38,12.39,6.56,3.71,1.93,7.4,3.83,11.09,5.71-3.82,1.89-7.62,3.82-11.42,5.72Z"/>
    </g>
  </g>
</svg>