<?xml version="1.0" encoding="UTF-8"?>
<svg id="Layer_2" data-name="Layer 2" xmlns="http://www.w3.org/2000/svg" viewBox="0 0 393.54 35.75">
  <defs>
    <style>
      .cls-1 {
        fill: #201522;
      }
    </style>
  </defs>
  <g id="Objects">
    <g>
      <path class="cls-1" d="M196.77,11.87c-1.58-.02-3.13.67-4.2,1.8-1.09,1.12-1.64,2.7-1.54,4.2.09,1.51.75,2.91,1.76,3.97,1,1.07,2.42,1.84,3.97,1.91,1.54.08,3.12-.61,4.08-1.8.99-1.17,1.41-2.66,1.42-4.08,0-1.43-.42-2.92-1.41-4.1-.96-1.2-2.53-1.9-4.1-1.91ZM200.39,21.5c-1.05.85-2.31,1.33-3.62,1.4-1.3.08-2.72-.32-3.74-1.28-1.02-.95-1.53-2.38-1.43-3.74.1-1.36.71-2.61,1.66-3.51.95-.9,2.23-1.38,3.51-1.39,1.29-.02,2.56.45,3.61,1.29,1.04.84,1.8,2.18,1.79,3.61.02,1.43-.74,2.78-1.77,3.63Z"/>
      <path class="cls-1" d="M16.84,19.69c.41-.14.83-.3,1.23-.5.39-.21.82-.41,1.11-.92.15-.25.14-.64,0-.89-.13-.26-.32-.44-.5-.6-.37-.31-.77-.54-1.18-.73-3.3-1.47-6.87-1.4-10.31-1.52-1.72.02-3.5.12-5.17.88-.41.19-.83.43-1.18.77-.36.33-.67.78-.79,1.33-.12.55.01,1.15.29,1.6.27.46.64.8,1.03,1.1,1.59,1.1,3.44,1.39,5.21,1.45,1.8.03,3.52-.26,5.22-.62,1.7-.37,3.38-.78,5.04-1.34ZM6.62,20.68c-1.64-.11-3.33-.51-4.61-1.38-.63-.43-1.08-1.02-.98-1.63.08-.61.64-1.24,1.32-1.68,1.37-.91,3.12-1.36,4.83-1.37,1.72,0,3.43.39,5.09.8,1.65.45,3.32.84,4.88,1.41.38.15.76.31,1.08.52.32.22.53.45.42.69-.1.28-.45.56-.79.78-.35.22-.74.4-1.14.55-1.6.61-3.31.91-5.01,1.1-1.7.16-3.43.3-5.09.21Z"/>
      <path class="cls-1" d="M21.87,21.12c-.28-.09-.54-.09-.78-.07-.48.04-.93.17-1.35.32-3.37,1.29-5.85,3.87-8.36,6.21-1.2,1.23-2.38,2.56-3.03,4.28-.15.43-.28.89-.29,1.38-.02.49.07,1.03.39,1.5.3.47.82.81,1.34.93.52.13,1.02.11,1.5.05,1.9-.35,3.42-1.44,4.71-2.66,1.29-1.25,2.3-2.67,3.25-4.13.94-1.46,1.84-2.95,2.61-4.51.19-.39.37-.79.52-1.22.13-.43.29-.87.14-1.43-.08-.28-.35-.55-.64-.63ZM21.96,23.07c-.1.4-.25.8-.41,1.2-.7,1.56-1.7,2.98-2.77,4.32-1.09,1.32-2.21,2.64-3.45,3.75-1.24,1.08-2.72,1.99-4.23,2.29-.75.14-1.49.04-1.84-.46-.37-.49-.42-1.33-.26-2.12.33-1.61,1.24-3.17,2.45-4.39,1.22-1.22,2.7-2.15,4.16-3.04,1.49-.85,2.94-1.76,4.45-2.45.38-.16.76-.32,1.13-.4.38-.07.69-.05.78.19.13.27.08.72,0,1.11Z"/>
      <path class="cls-1" d="M11.37,8.17c2.52,2.34,4.99,4.92,8.36,6.21.43.15.87.27,1.35.32.25.01.5.01.78-.07.28-.08.56-.35.64-.63.15-.56,0-1.01-.14-1.43-.14-.43-.33-.82-.52-1.22-.77-1.57-1.67-3.05-2.61-4.51-.95-1.46-1.96-2.88-3.25-4.13C14.69,1.49,13.17.4,11.27.05c-.48-.06-.98-.08-1.5.05-.51.12-1.04.45-1.34.93-.31.47-.4,1.01-.39,1.5,0,.49.13.95.29,1.38.65,1.72,1.83,3.04,3.03,4.27ZM9.25,1.6c.36-.49,1.1-.6,1.84-.46,1.52.29,2.99,1.2,4.23,2.29,1.24,1.11,2.36,2.43,3.45,3.75,1.07,1.34,2.07,2.76,2.77,4.32.17.39.32.79.41,1.2.09.39.13.84,0,1.11-.1.24-.4.26-.78.19-.37-.07-.75-.23-1.13-.4-1.51-.69-2.96-1.59-4.45-2.45-1.47-.88-2.94-1.82-4.16-3.04-1.21-1.21-2.12-2.77-2.45-4.39-.16-.79-.11-1.63.26-2.12Z"/>
      <polygon class="cls-1" points="34.56 17.07 28.54 11.06 21.72 17.88 28.54 24.7 34.56 18.68 173.3 18.68 182.02 27.4 182.02 8.35 173.3 17.07 34.56 17.07"/>
      <polygon class="cls-1" points="365 11.06 358.98 17.07 220.24 17.07 211.52 8.35 211.52 27.4 220.24 18.68 358.98 18.68 365 24.7 371.82 17.88 365 11.06"/>
      <path class="cls-1" d="M393.49,17.5c-.11-.55-.43-1-.79-1.33-.35-.35-.77-.58-1.18-.77-1.67-.75-3.45-.86-5.17-.88-3.43.12-7.01.05-10.31,1.52-.41.2-.81.42-1.18.73-.18.16-.37.35-.5.6-.14.26-.15.64,0,.89.29.5.72.71,1.11.92.4.2.81.35,1.23.5,1.65.56,3.34.97,5.04,1.34,1.7.36,3.42.66,5.22.62,1.78-.06,3.62-.36,5.21-1.45.38-.29.75-.64,1.03-1.1.28-.45.42-1.05.29-1.6ZM391.53,19.3c-1.28.86-2.97,1.26-4.61,1.38-1.66.09-3.38-.05-5.09-.21-1.7-.19-3.41-.49-5.01-1.1-.4-.16-.78-.34-1.14-.55-.34-.22-.69-.5-.79-.78-.11-.24.1-.47.42-.69.31-.21.7-.37,1.08-.52,1.56-.57,3.22-.97,4.88-1.41,1.66-.41,3.36-.79,5.09-.8,1.71,0,3.46.46,4.83,1.37.68.44,1.23,1.07,1.32,1.68.09.6-.35,1.2-.98,1.63Z"/>
      <path class="cls-1" d="M382.17,27.58c-2.52-2.34-4.99-4.92-8.36-6.21-.43-.15-.87-.27-1.35-.32-.25-.01-.5-.01-.78.07-.28.08-.56.35-.64.63-.15.56,0,1.01.14,1.43.14.43.33.83.52,1.22.77,1.57,1.67,3.05,2.61,4.51.95,1.46,1.96,2.88,3.25,4.13,1.3,1.21,2.81,2.31,4.71,2.66.48.06.98.08,1.5-.05.51-.12,1.04-.45,1.34-.93.31-.47.4-1.01.39-1.5,0-.49-.13-.95-.29-1.38-.65-1.72-1.83-3.04-3.03-4.28ZM384.29,34.16c-.36.49-1.1.6-1.84.46-1.52-.29-2.99-1.2-4.23-2.29-1.24-1.11-2.36-2.43-3.45-3.75-1.07-1.34-2.07-2.76-2.77-4.32-.17-.39-.32-.79-.41-1.2-.09-.39-.13-.84,0-1.11.1-.24.4-.26.79-.19.37.07.75.23,1.13.4,1.51.69,2.96,1.59,4.45,2.45,1.47.88,2.94,1.82,4.16,3.04,1.21,1.21,2.12,2.77,2.45,4.39.16.79.11,1.63-.26,2.12Z"/>
      <path class="cls-1" d="M371.67,14.63c.28.09.54.09.78.07.49-.04.93-.17,1.35-.32,3.37-1.29,5.85-3.87,8.36-6.21,1.2-1.23,2.38-2.56,3.03-4.27.15-.43.28-.89.29-1.38.02-.49-.07-1.03-.39-1.5-.3-.47-.82-.81-1.34-.93-.52-.13-1.02-.11-1.5-.05-1.9.35-3.42,1.44-4.71,2.66-1.29,1.25-2.3,2.67-3.25,4.13-.94,1.46-1.84,2.95-2.61,4.51-.19.39-.37.79-.52,1.22-.13.43-.29.87-.14,1.43.08.28.35.55.64.63ZM371.58,12.69c.1-.4.24-.8.41-1.2.7-1.56,1.7-2.98,2.77-4.32,1.09-1.32,2.21-2.64,3.45-3.75,1.24-1.08,2.72-1.99,4.23-2.29.75-.14,1.48-.04,1.84.46.37.49.42,1.33.26,2.12-.33,1.61-1.24,3.17-2.45,4.39-1.22,1.22-2.7,2.15-4.16,3.04-1.48.85-2.94,1.76-4.45,2.45-.38.16-.76.32-1.13.4-.38.07-.69.05-.79-.19-.13-.27-.08-.72,0-1.11Z"/>
    </g>
  </g>
</svg>