<?xml version="1.0" encoding="UTF-8"?>
<svg id="Layer_2" data-name="Layer 2" xmlns="http://www.w3.org/2000/svg" viewBox="0 0 85.78 85.78">
  <defs>
    <style>
      .cls-1 {
        fill: none;
        stroke: #261200;
        stroke-miterlimit: 10;
      }
    </style>
  </defs>
  <g id="_Ñëîé_1" data-name="Ñëîé 1">
    <path class="cls-1" d="M74.64,56.63c6.86-3.76,10.64-8.63,10.64-13.74s-3.77-9.98-10.64-13.74v-4.29c0-2.84-2.31-5.15-5.15-5.15h-2.08v-.69c0-2.54-2.75-4.61-6.13-4.61h-3.05C54.35,5.56,48.77.5,42.89.5s-11.46,5.06-15.35,13.91h-3.05c-3.38,0-6.13,2.07-6.13,4.61v.69h-2.08c-2.84,0-5.15,2.31-5.15,5.15v4.29c-6.87,3.77-10.64,8.63-10.64,13.74s3.77,9.97,10.64,13.74v4.29c0,2.84,2.31,5.15,5.15,5.15h2.08v.69c0,2.54,2.75,4.61,6.13,4.61h3.05c3.89,8.85,9.47,13.91,15.35,13.91s11.45-5.06,15.35-13.91h3.05c3.38,0,6.13-2.07,6.13-4.61v-.69h2.08c2.84,0,5.15-2.31,5.15-5.15v-4.29Z"/>
  </g>
</svg>