<?xml version="1.0" encoding="UTF-8"?>
<svg id="Layer_2" data-name="Layer 2" xmlns="http://www.w3.org/2000/svg" viewBox="0 0 102.56 70.81">
  <defs>
    <style>
      .cls-1 {
        fill: none;
        stroke: #261200;
        stroke-miterlimit: 10;
      }
    </style>
  </defs>
  <g id="_Ñëîé_1" data-name="Ñëîé 1">
    <path class="cls-1" d="M50.58,68.53l.7,1.25.7-1.25c4.23-7.63,13.61-5.83,22.67-4.09,2.77.53,5.38,1.03,7.77,1.24,3.36.29,7.18.33,10.09-1.55,3.4-2.2,5.61-6.5,5.31-10.51-.12-1.66-.58-3.29-1.02-4.87-.56-2-1.09-3.89-.98-5.79.16-2.71,1.64-4.83,4.8-6.88l1.03-.67-1.03-.67c-3.16-2.05-4.64-4.17-4.8-6.88-.11-1.91.42-3.79.98-5.8.44-1.58.9-3.21,1.02-4.87.29-3.98-1.91-8.31-5.31-10.51-2.91-1.88-6.74-1.84-10.09-1.55-2.38.21-5,.71-7.76,1.24-9.06,1.74-18.44,3.54-22.67-4.09l-.7-1.26-.7,1.26c-4.23,7.63-13.61,5.83-22.67,4.09-2.77-.53-5.38-1.03-7.76-1.24-3.36-.29-7.18-.33-10.09,1.55-3.39,2.19-5.61,6.52-5.31,10.51.12,1.66.58,3.29,1.02,4.87.56,2,1.09,3.89.98,5.79-.16,2.71-1.64,4.83-4.8,6.88l-1.03.67,1.03.67c3.16,2.05,4.64,4.17,4.8,6.88.11,1.9-.42,3.79-.98,5.79-.44,1.58-.9,3.21-1.02,4.87-.02.24-.03.48-.03.72h0c0,3.79,2.14,7.72,5.33,9.79,2.91,1.88,6.73,1.84,10.09,1.55,2.39-.2,5-.71,7.77-1.24,9.06-1.74,18.44-3.54,22.67,4.09Z"/>
  </g>
</svg>