<?xml version="1.0" encoding="UTF-8"?>
<svg id="Layer_2" data-name="Layer 2" xmlns="http://www.w3.org/2000/svg" viewBox="0 0 108.43 63.92">
  <defs>
    <style>
      .cls-1 {
        fill: none;
        stroke: #261200;
        stroke-miterlimit: 10;
      }
    </style>
  </defs>
  <g id="_Ñëîé_1" data-name="Ñëîé 1">
    <path class="cls-1" d="M69.13,63.42c4.05,0,7.36-1.68,7.36-3.73s2.95-3.73,6.55-3.73,6.55-2.74,6.55-6.09,3.09-7.29,6.86-8.75c0,0,11.48-4.45,11.48-9.17s-11.48-9.17-11.48-9.17c-3.77-1.46-6.86-5.4-6.86-8.75s-2.95-6.09-6.55-6.09-6.55-1.68-6.55-3.73-3.31-3.73-7.36-3.73h-29.83c-4.05,0-7.36,1.68-7.36,3.73s-2.95,3.73-6.55,3.73-6.55,2.74-6.55,6.09-3.09,7.29-6.86,8.75c0,0-11.48,4.45-11.48,9.17s11.48,9.17,11.48,9.17c3.77,1.46,6.86,5.4,6.86,8.75s2.95,6.09,6.55,6.09,6.55,1.68,6.55,3.73,3.31,3.73,7.36,3.73h29.83Z"/>
  </g>
</svg>