<?xml version="1.0" encoding="UTF-8"?>
<svg id="Layer_2" data-name="Layer 2" xmlns="http://www.w3.org/2000/svg" viewBox="0 0 103.52 101.73">
  <defs>
    <style>
      .cls-1 {
        fill: none;
        stroke: #261200;
        stroke-miterlimit: 10;
      }
    </style>
  </defs>
  <g id="_Ñëîé_1" data-name="Ñëîé 1">
    <path class="cls-1" d="M2.92,50.87c-1.89,2.47-2.72,5.5-2.33,8.54.4,3.11,2.02,5.89,4.56,7.82,1.96,1.49,4.4,2.25,7.26,2.25h0c2.51,0,5.27-.61,7.77-1.7-1.91,2.83-2.49,5.4-1.73,7.62,1.54,4.54,7.99,6.51,13.68,8.25,1.57.48,3.05.93,4.25,1.4,7.2,2.77,12.44,7.37,14.38,12.6l.99,2.66.99-2.66c1.94-5.23,7.19-9.83,14.38-12.6,1.2-.46,2.68-.91,4.25-1.4,5.69-1.74,12.14-3.71,13.68-8.25.75-2.22.18-4.78-1.72-7.6,2.55,1.08,5.28,1.68,7.76,1.68,2.86,0,5.31-.76,7.27-2.25,2.54-1.93,4.16-4.71,4.56-7.82.39-3.03-.43-6.04-2.33-8.54,1.89-2.47,2.72-5.5,2.33-8.54-.4-3.11-2.02-5.89-4.56-7.82-1.96-1.49-4.4-2.25-7.27-2.25-2.51,0-5.27.61-7.77,1.7,1.91-2.83,2.49-5.39,1.73-7.62-1.54-4.54-7.99-6.51-13.68-8.25-1.57-.48-3.05-.93-4.26-1.4-7.2-2.77-12.44-7.36-14.38-12.6l-.99-2.65-.99,2.65c-1.94,5.23-7.18,9.82-14.38,12.6-1.2.46-2.69.92-4.26,1.4-5.69,1.74-12.14,3.71-13.68,8.25-.75,2.22-.17,4.78,1.71,7.6-2.54-1.08-5.27-1.67-7.75-1.67-2.86,0-5.31.76-7.27,2.25-2.54,1.93-4.16,4.71-4.56,7.82-.39,3.04.44,6.06,2.33,8.54h0Z"/>
  </g>
</svg>