<?xml version="1.0" encoding="UTF-8"?>
<svg id="Layer_2" data-name="Layer 2" xmlns="http://www.w3.org/2000/svg" viewBox="0 0 98.1 101.04">
  <defs>
    <style>
      .cls-1 {
        fill: none;
        stroke: #261200;
        stroke-miterlimit: 10;
      }
    </style>
  </defs>
  <g id="_Ñëîé_1" data-name="Ñëîé 1">
    <path class="cls-1" d="M97.06,50.77c.73-.14.73-.37,0-.51s-2.61-.63-4.19-1.09c-1.57-.46-4.97-3.87-4.69-5.71l-.16-1.73c-.3-3.2-1.54-6.05-3.47-8.04-1.49-1.53-3.35-2.31-5.53-2.31h-1.91c-2.2.96-3.16-.75-2.11-3.8l-.57-2.29c-1.17-4.67-6.08-6.69-10.42-8.48-1.2-.49-2.33-.96-3.24-1.44-5.48-2.85-5.97-3.76-5.97-3.76-2.74-5.05-5.15-9.8-5.35-10.55-.21-.75-.55-.75-.75,0-.21.75-2.62,5.5-5.35,10.55,0,0-.49.91-5.97,3.76-.91.48-2.05.94-3.24,1.44-4.33,1.79-9.25,3.81-10.42,8.48l-.57,2.28c1.03,3.04.07,4.75-2.14,3.8h-1.89c-2.18,0-4.04.78-5.54,2.31-1.94,1.99-3.17,4.85-3.47,8.05l-.16,1.72c.28,1.84-.64,3.94-2.04,4.67-1.4.73-6.11,2-6.84,2.14-.73.14-.73.37,0,.51.73.14,2.61.63,4.19,1.09,1.57.46,4.97,3.87,4.69,5.71l.16,1.72c.3,3.2,1.54,6.06,3.47,8.05,1.49,1.53,3.35,2.31,5.53,2.31h1.91c2.2-.96,3.16.75,2.11,3.8l.57,2.29c1.17,4.67,6.08,6.69,10.42,8.48,1.2.49,2.33.96,3.24,1.44,5.48,2.85,5.98,3.76,5.98,3.76,2.74,5.05,5.15,9.8,5.35,10.55.21.75.55.75.75,0,.21-.75,2.61-5.5,5.35-10.55,0,0,.5-.91,5.98-3.77.92-.48,2.04-.94,3.24-1.44,4.33-1.79,9.25-3.81,10.42-8.48l.57-2.29c-1.04-3.04-.07-4.75,2.14-3.8h1.89c2.18,0,4.04-.78,5.53-2.31,1.94-1.99,3.17-4.84,3.47-8.05l.16-1.72c-.28-1.84.63-3.94,2.04-4.66,1.4-.73,6.11-2,6.84-2.14Z"/>
  </g>
</svg>