<?xml version="1.0" encoding="UTF-8"?>
<svg id="Layer_2" data-name="Layer 2" xmlns="http://www.w3.org/2000/svg" viewBox="0 0 109.03 80.68">
  <defs>
    <style>
      .cls-1 {
        fill: none;
        stroke: #261200;
        stroke-miterlimit: 10;
      }
    </style>
  </defs>
  <g id="_Ñëîé_1" data-name="Ñëîé 1">
    <path class="cls-1" d="M97.97,55.41h4.75c3.21,0,5.81-3.06,5.81-6.81v-16.53c0-3.76-2.61-6.81-5.81-6.81h-4.75c-.55-4.05-3.08-7.11-6-7.11h-4.75c-.66-3.66-2.7-6.24-5-6.24h-5.99C70.39,4.55,62.7.5,54.52.5s-15.88,4.05-21.71,11.41h-5.99c-2.31,0-4.34,2.58-5,6.24h-4.75c-2.92,0-5.45,3.06-6,7.11h-4.75c-3.2,0-5.81,3.05-5.81,6.81v16.53c0,3.75,2.61,6.81,5.81,6.81h4.75c.55,4.05,3.08,7.11,6,7.11h4.75c.66,3.66,2.7,6.24,5,6.24h5.99c5.83,7.36,13.52,11.41,21.71,11.41s15.88-4.05,21.71-11.41h5.99c2.31,0,4.34-2.58,5-6.24h4.75c2.92,0,5.45-3.06,6-7.11Z"/>
  </g>
</svg>