<?xml version="1.0" encoding="UTF-8"?>
<svg id="Layer_2" data-name="Layer 2" xmlns="http://www.w3.org/2000/svg" viewBox="0 0 82.47 82.47">
  <defs>
    <style>
      .cls-1 {
        fill: none;
        stroke: #261200;
        stroke-miterlimit: 10;
      }
    </style>
  </defs>
  <g id="_Ñëîé_1" data-name="Ñëîé 1">
    <path class="cls-1" d="M72.83,23.72h-1.27s-.02-.02-.02-.04c-.3-.52-.63-1.03-.96-1.53-.09-.13-.17-.27-.25-.4-.3-.46-.63-.9-.96-1.34-.12-.17-.24-.35-.37-.51-.3-.38-.61-.75-.92-1.13-.18-.21-.35-.43-.53-.64-.28-.31-.56-.61-.85-.91-.24-.25-.47-.51-.71-.75-.24-.24-.5-.47-.75-.71-.3-.28-.6-.57-.91-.85-.21-.18-.42-.35-.64-.53-.37-.31-.74-.62-1.13-.92-.17-.13-.34-.25-.51-.37-.44-.33-.88-.65-1.34-.96-.13-.09-.27-.17-.4-.25-.5-.33-1.01-.65-1.53-.95-.01,0-.02-.02-.04-.02v-1.27c0-5.05-4.09-9.14-9.14-9.14h-16.75c-5.05,0-9.14,4.09-9.14,9.14v1.27s-.02.02-.04.02c-.52.3-1.03.62-1.53.95-.13.09-.27.17-.4.25-.46.31-.9.63-1.34.96-.17.12-.35.25-.51.38-.38.3-.75.61-1.12.92-.21.18-.43.35-.64.53-.31.27-.61.56-.91.85-.25.24-.51.47-.75.71-.24.24-.47.5-.71.75-.29.3-.57.6-.85.91-.18.21-.35.42-.53.64-.31.37-.62.74-.92,1.13-.13.17-.25.34-.37.51-.33.44-.65.88-.96,1.34-.09.13-.17.27-.25.4-.33.5-.65,1.01-.96,1.53,0,.01-.02.02-.02.04h-1.27c-5.05,0-9.14,4.09-9.14,9.14v16.75c0,5.04,4.09,9.14,9.14,9.14h1.27s.02.02.02.04c.3.52.62,1.03.96,1.53.08.13.16.27.25.4.31.46.63.9.96,1.34.13.17.25.35.38.51.3.38.61.75.92,1.12.18.21.35.43.53.64.28.31.56.61.85.91.24.25.47.51.71.75.24.24.5.47.75.71.3.29.6.57.91.85.21.18.42.35.64.53.37.31.74.62,1.12.92.17.13.34.25.51.38.44.33.88.65,1.34.96.13.09.27.17.4.25.5.33,1.01.65,1.53.95.01,0,.02.02.04.02v1.27c0,5.05,4.09,9.14,9.14,9.14h16.75c5.05,0,9.14-4.09,9.14-9.14v-1.27s.02-.02.04-.02c.52-.3,1.03-.62,1.53-.95.13-.09.27-.17.4-.25.46-.31.9-.63,1.34-.96.17-.12.35-.24.51-.38.38-.29.75-.61,1.13-.92.21-.18.43-.35.64-.53.31-.27.61-.56.91-.85.25-.24.51-.47.75-.71.24-.24.47-.5.71-.75.28-.3.57-.6.85-.91.18-.21.35-.42.53-.64.31-.37.62-.74.92-1.12.13-.17.25-.34.38-.51.33-.44.65-.88.96-1.34.09-.13.17-.27.25-.4.33-.5.65-1.01.96-1.53,0-.01.02-.02.02-.04h1.27c5.05,0,9.14-4.09,9.14-9.14v-16.75c0-5.05-4.09-9.14-9.14-9.14Z"/>
  </g>
</svg>