<?xml version="1.0" encoding="UTF-8"?>
<svg id="Layer_2" data-name="Layer 2" xmlns="http://www.w3.org/2000/svg" viewBox="0 0 101.08 76.9">
  <defs>
    <style>
      .cls-1 {
        fill: none;
        stroke: #261200;
        stroke-miterlimit: 10;
      }
    </style>
  </defs>
  <g id="_Ñëîé_1" data-name="Ñëîé 1">
    <path class="cls-1" d="M27.6,6.26c-.87-.11-1.59-.16-2.27-.16-2.3,0-4.08.62-5.44,1.88-2.21,2.06-3.73,5.84-3.9,9.59h-.38c-2.32,0-4.32,2.27-5.31,5.97h-2.69c-3.92,0-7.11,3.5-7.11,7.81v14.22c0,4.31,3.19,7.81,7.11,7.81h2.69c.99,3.7,3,5.97,5.31,5.97h.38c.17,3.75,1.69,7.53,3.9,9.59,1.36,1.27,3.13,1.88,5.44,1.88.68,0,1.4-.05,2.27-.16,1.79-.22,3.73-.76,5.79-1.33,2.82-.78,5.75-1.6,8.39-1.6,3.94,0,6.5,1.88,8.05,5.91l.72,1.88.72-1.88c1.55-4.03,4.1-5.91,8.04-5.91,2.65,0,5.57.81,8.39,1.6,2.06.57,4,1.11,5.79,1.33.87.11,1.59.16,2.27.16,2.3,0,4.08-.62,5.44-1.88,2.21-2.06,3.73-5.84,3.9-9.59h.38c2.32,0,4.32-2.27,5.31-5.97h2.69c3.92,0,7.11-3.5,7.11-7.81v-14.22c0-4.31-3.19-7.81-7.11-7.81h-2.69c-.99-3.7-3-5.97-5.31-5.97h-.38c-.17-3.75-1.69-7.53-3.9-9.59-1.36-1.27-3.13-1.88-5.44-1.88-.68,0-1.4.05-2.27.16-1.79.22-3.73.76-5.79,1.33-2.82.78-5.74,1.6-8.39,1.6-3.94,0-6.5-1.88-8.04-5.9l-.72-1.88-.72,1.88c-1.55,4.03-4.11,5.9-8.05,5.9-2.65,0-5.57-.81-8.39-1.6-2.06-.57-4-1.11-5.79-1.33Z"/>
  </g>
</svg>