<?xml version="1.0" encoding="UTF-8"?>
<svg id="Layer_2" data-name="Layer 2" xmlns="http://www.w3.org/2000/svg" viewBox="0 0 112.55 76.46">
  <defs>
    <style>
      .cls-1 {
        fill: none;
        stroke: #261200;
        stroke-miterlimit: 10;
      }
    </style>
  </defs>
  <g id="_Ñëîé_1" data-name="Ñëîé 1">
    <path class="cls-1" d="M2.4,42.03s2.87,2.37,4.81,6.3c2.35,4.77,4.79,9.7,11.9,9.7h0c2.2,0,4.69-.46,7.62-1.4.87,13.3,9.13,13.55,16.43,13.78,4.55.14,8.85.27,11.13,3.42l.59.81c.4,1.09.98,1.32,1.4,1.32s1-.23,1.4-1.32l.59-.81c2.28-3.15,6.58-3.28,11.13-3.42,7.3-.23,15.57-.48,16.4-13.79,2.94.95,5.44,1.41,7.65,1.41,7.12,0,9.55-4.93,11.9-9.71,1.93-3.91,4.78-6.27,4.81-6.3,1.23-1,1.9-2.35,1.9-3.8s-.67-2.8-1.9-3.8c-.03-.02-2.88-2.39-4.81-6.3-2.35-4.77-4.79-9.71-11.9-9.71-2.2,0-4.69.46-7.62,1.4-.87-13.3-9.13-13.55-16.43-13.78-4.55-.14-8.85-.27-11.13-3.42l-.59-.81c-.4-1.09-.98-1.32-1.4-1.32s-1,.23-1.4,1.32l-.59.81c-2.28,3.15-6.58,3.28-11.13,3.42-7.3.23-15.57.48-16.4,13.79-2.94-.95-5.44-1.41-7.65-1.41-7.12,0-9.55,4.93-11.9,9.71-1.93,3.91-4.78,6.28-4.81,6.3-1.23,1-1.9,2.35-1.9,3.8s.68,2.8,1.9,3.8Z"/>
  </g>
</svg>