<?xml version="1.0" encoding="UTF-8"?>
<svg id="Layer_2" data-name="Layer 2" xmlns="http://www.w3.org/2000/svg" viewBox="0 0 108.49 74.67">
  <defs>
    <style>
      .cls-1 {
        fill: none;
        stroke: #261200;
        stroke-miterlimit: 10;
      }
    </style>
  </defs>
  <g id="_Ñëîé_1" data-name="Ñëîé 1">
    <path class="cls-1" d="M107.99,37.34c0-1.56-1.36-2.83-3.02-2.83s-3.02-2.5-3.02-5.57-.81-5.57-1.81-5.57-1.81-.73-1.81-1.62-.95-1.62-2.11-1.62-2.11-1.32-2.11-2.93-1.43-2.93-3.17-2.93-3.17-2.23-3.17-4.96-2.72-4.96-6.04-4.96h-10.27c-3.32,0-6.04-.87-6.04-1.92s-2.72-1.92-6.04-1.92h-10.27c-3.32,0-6.04.87-6.04,1.92s-2.72,1.92-6.04,1.92h-10.27c-3.32,0-6.04,2.23-6.04,4.96s-1.43,4.96-3.17,4.96-3.17,1.32-3.17,2.93-.95,2.93-2.11,2.93-2.11.73-2.11,1.62-.81,1.62-1.81,1.62-1.81,2.51-1.81,5.57-1.36,5.57-3.02,5.57-3.02,1.27-3.02,2.83,1.36,2.83,3.02,2.83,3.02,2.5,3.02,5.57.81,5.57,1.81,5.57,1.81.73,1.81,1.62.95,1.62,2.11,1.62,2.11,1.32,2.11,2.94,1.43,2.94,3.17,2.94,3.17,2.23,3.17,4.96,2.72,4.96,6.04,4.96h10.27c3.32,0,6.04.87,6.04,1.92s2.72,1.92,6.04,1.92h10.27c3.32,0,6.04-.87,6.04-1.92s2.72-1.92,6.04-1.92h10.27c3.32,0,6.04-2.23,6.04-4.96s1.43-4.96,3.17-4.96,3.17-1.32,3.17-2.94.95-2.94,2.11-2.94,2.11-.73,2.11-1.62.81-1.62,1.81-1.62,1.81-2.5,1.81-5.57,1.36-5.57,3.02-5.57,3.02-1.27,3.02-2.83Z"/>
  </g>
</svg>