<?xml version="1.0" encoding="UTF-8"?>
<svg id="Layer_2" data-name="Layer 2" xmlns="http://www.w3.org/2000/svg" viewBox="0 0 103.28 79.28">
  <defs>
    <style>
      .cls-1 {
        fill: none;
        stroke: #261200;
        stroke-miterlimit: 10;
      }
    </style>
  </defs>
  <g id="_Ñëîé_1" data-name="Ñëîé 1">
    <path class="cls-1" d="M.5,39.64c0,5.72,1.6,11.15,4.48,16.04v9.86c0,3.5,3.04,6.34,6.78,6.34h10.89c8.24,4.34,18.22,6.89,28.98,6.89s20.74-2.55,28.98-6.89h10.89c3.75,0,6.79-2.84,6.79-6.34v-9.86c2.88-4.9,4.48-10.33,4.48-16.04s-1.6-11.15-4.48-16.04v-9.86c0-3.5-3.04-6.34-6.79-6.34h-10.89C72.38,3.05,62.4.5,51.64.5s-20.74,2.55-28.98,6.89h-10.89c-3.75,0-6.78,2.84-6.78,6.34v9.86C2.1,28.49.5,33.92.5,39.64Z"/>
  </g>
</svg>