<?xml version="1.0" encoding="UTF-8"?>
<svg id="Layer_2" data-name="Layer 2" xmlns="http://www.w3.org/2000/svg" viewBox="0 0 86.94 85.97">
  <defs>
    <style>
      .cls-1 {
        fill: none;
        stroke: #261200;
        stroke-miterlimit: 10;
      }
    </style>
  </defs>
  <g id="_Ñëîé_1" data-name="Ñëîé 1">
    <path class="cls-1" d="M86.44,34.93c0-2.69-1.04-4.88-2.32-4.88s-2.32-1.8-2.32-4.01-.95-4.01-2.11-4.01-2.36-.38-2.66-.85c-.3-.47-1.14-3.86-1.14-6.55v-1.43c0-2.69-1.43-4.88-3.17-4.88s-3.17-.22-3.17-.49-1.77-.49-3.93-.49-4.42-.24-5.03-.53c-.6-.29-2.24-2.19-2.24-3.65s-2.2-2.66-4.88-2.66h-20.02c-2.69,0-4.88,1.2-4.88,2.66s-.51,2.88-1.13,3.14c-.62.27-3.98,1.04-6.14,1.04s-3.93.22-3.93.49-1.43.49-3.17.49-3.17,2.2-3.17,4.88v1.43c0,2.69-.26,5.25-.58,5.71-.32.45-2.06,1.69-3.22,1.69s-2.11,1.8-2.11,4.01-1.04,4.01-2.32,4.01-2.32,2.2-2.32,4.88v16.11c0,2.69,1.04,4.88,2.32,4.88s2.32,1.8,2.32,4.01.95,4.01,2.11,4.01,2.36.38,2.66.85c.3.47,1.14,3.86,1.14,6.55v1.43c0,2.69,1.43,4.88,3.17,4.88s3.17.22,3.17.49,1.77.49,3.93.49,4.42.24,5.03.53c.6.29,2.24,2.19,2.24,3.65s2.2,2.66,4.88,2.66h20.02c2.69,0,4.88-1.2,4.88-2.66s.51-2.88,1.13-3.14c.62-.27,3.98-1.04,6.14-1.04s3.93-.22,3.93-.49,1.43-.49,3.17-.49,3.17-2.2,3.17-4.88v-1.43c0-2.69.26-5.25.58-5.71.32-.45,2.06-1.69,3.22-1.69s2.11-1.8,2.11-4.01,1.04-4.01,2.32-4.01,2.32-2.2,2.32-4.88v-16.11Z"/>
  </g>
</svg>