<?xml version="1.0" encoding="UTF-8"?>
<svg id="Layer_2" data-name="Layer 2" xmlns="http://www.w3.org/2000/svg" viewBox="0 0 107.34 72.65">
  <defs>
    <style>
      .cls-1 {
        fill: none;
        stroke: #261200;
        stroke-miterlimit: 10;
      }
    </style>
  </defs>
  <g id="_Ñëîé_1" data-name="Ñëîé 1">
    <path class="cls-1" d="M102.81,31.43h-2.21c-.14-2.53-1.71-4.53-3.63-4.53h-.54s-.01-.06-.02-.1c-.65-2.85-2.46-4.65-5.38-5.36-.4-.1-.78-.17-1.14-.25-1.54-.31-2.65-.54-3.97-2.03-.83-.95-1.59-1.95-2.31-2.92-2.05-2.73-3.98-5.3-7.27-5.98-.69-.14-1.44-.22-2.15-.22-1.87,0-5.11.53-6.51,3.92-.97-3-2.73-5.49-4.84-6.81-.15-1.36-1.97-2.39-4.39-2.49v-1.23c0-1.62-1.2-2.94-2.67-2.94h-4.21c-1.47,0-2.67,1.32-2.67,2.94v1.23c-2.42.1-4.23,1.12-4.39,2.49-2.11,1.32-3.88,3.81-4.84,6.81-1.41-3.39-4.64-3.92-6.51-3.92-.71,0-1.45.08-2.15.22-3.29.68-5.22,3.25-7.27,5.98-.73.97-1.48,1.97-2.31,2.92-1.32,1.5-2.43,1.72-3.97,2.03-.37.07-.75.15-1.14.25-2.92.7-4.73,2.5-5.38,5.36,0,.03-.01.06-.02.09h-.54c-1.92,0-3.49,2-3.63,4.53h-2.21c-2.26,0-4.03,1.2-4.03,2.73v4.33c0,1.53,1.77,2.73,4.03,2.73h2.21c.14,2.53,1.71,4.53,3.63,4.53h.54s.01.06.02.1c.65,2.85,2.46,4.65,5.38,5.36.4.1.77.17,1.14.25,1.54.31,2.66.54,3.98,2.03.83.95,1.59,1.95,2.31,2.92,2.05,2.73,3.98,5.3,7.27,5.98.69.14,1.44.22,2.15.22,1.87,0,5.11-.52,6.51-3.92.97,3,2.73,5.49,4.84,6.81.15,1.37,1.97,2.39,4.39,2.49v1.24c0,1.62,1.2,2.94,2.67,2.94h4.21c1.48,0,2.67-1.32,2.67-2.94v-1.24c2.42-.1,4.24-1.12,4.39-2.49,2.11-1.32,3.88-3.81,4.84-6.81,1.4,3.39,4.64,3.92,6.51,3.92.71,0,1.45-.08,2.15-.22,3.29-.68,5.22-3.26,7.27-5.98.73-.97,1.48-1.97,2.31-2.92,1.32-1.49,2.43-1.72,3.98-2.03.36-.07.74-.15,1.14-.25,2.91-.71,4.73-2.51,5.38-5.36,0-.03.02-.06.02-.1h.54c1.92,0,3.49-2,3.63-4.53h2.21c2.26,0,4.03-1.2,4.03-2.73v-4.33c0-1.53-1.77-2.73-4.03-2.73Z"/>
  </g>
</svg>