<?xml version="1.0" encoding="UTF-8"?>
<svg id="Layer_2" data-name="Layer 2" xmlns="http://www.w3.org/2000/svg" viewBox="0 0 115.19 93.93">
  <defs>
    <style>
      .cls-1 {
        fill: none;
        stroke: #261200;
        stroke-miterlimit: 10;
      }
    </style>
  </defs>
  <g id="_Ñëîé_1" data-name="Ñëîé 1">
    <path class="cls-1" d="M114.69,46.97c0-3.84-3.99-7.39-10.75-10.29-1.71-2.07-3.93-3.99-6.56-5.74v-7.05c0-4.02-3.26-7.29-7.29-7.29h-4.86v-.61c0-4.02-3.26-7.29-7.29-7.29h-4.5C68.94,3.53,63.48.5,57.59.5s-11.34,3.03-15.84,8.2h-4.5c-4.03,0-7.29,3.26-7.29,7.29v.61h-4.86c-4.03,0-7.29,3.26-7.29,7.29v7.05c-2.63,1.75-4.85,3.68-6.56,5.74-6.76,2.89-10.75,6.45-10.75,10.29s3.99,7.39,10.75,10.29c1.71,2.07,3.93,3.99,6.56,5.74v7.05c0,4.03,3.26,7.29,7.29,7.29h4.86v.61c0,4.03,3.26,7.29,7.29,7.29h4.5c4.5,5.17,9.96,8.2,15.84,8.2s11.34-3.03,15.85-8.2h4.5c4.03,0,7.29-3.26,7.29-7.29v-.61h4.86c4.02,0,7.29-3.26,7.29-7.29v-7.05c2.63-1.75,4.85-3.68,6.56-5.74,6.76-2.89,10.75-6.45,10.75-10.29Z"/>
  </g>
</svg>