<?xml version="1.0" encoding="UTF-8"?>
<svg id="Layer_2" data-name="Layer 2" xmlns="http://www.w3.org/2000/svg" viewBox="0 0 99.94 67.32">
  <defs>
    <style>
      .cls-1 {
        fill: none;
        stroke: #261200;
        stroke-miterlimit: 10;
      }
    </style>
  </defs>
  <g id="_Ñëîé_1" data-name="Ñëîé 1">
    <path class="cls-1" d="M98.98,32.72s-.01-.01-.02-.02h-.01c-3.89-3.09-3.18-7.15-2.43-11.46.23-1.29.46-2.63.56-3.94.29-3.78-.21-7.5-1.46-10.78-1.27-3.32-3.66-5.39-6.58-5.69-.29-.03-.58-.04-.87-.04-2.93,0-5.77,1.59-7.83,4.32-1.3-2.99-4.75-4.61-9.91-4.61-1.11,0-2.28.07-3.48.22-1.66.2-3.37.54-5.23,1.04-.11.02-.23.05-.35.1-1.46.4-2.99.89-4.97,1.59-1.95.69-4.24,1.44-6.44,1.81-2.2-.37-4.49-1.12-6.45-1.81-1.96-.69-3.5-1.18-4.97-1.59-.12-.05-.23-.08-.35-.09-1.86-.5-3.57-.84-5.23-1.04-1.2-.15-2.37-.22-3.48-.22-5.16,0-8.61,1.62-9.91,4.61C17.55,2.39,14.7.8,11.77.8c-.29,0-.57.02-.87.04-2.92.3-5.32,2.38-6.58,5.69-1.25,3.28-1.75,7-1.46,10.78.1,1.31.34,2.64.56,3.93.75,4.32,1.46,8.39-2.42,11.44l-.1.08c-.27.24-.41.56-.4.87,0,.34.13.66.39.9l.07.06c3.92,3.08,3.21,7.16,2.46,11.48-.22,1.29-.46,2.63-.56,3.93-.29,3.78.21,7.5,1.46,10.78,1.27,3.32,3.67,5.39,6.58,5.69.29.03.58.05.87.05,2.93,0,5.77-1.59,7.83-4.32,1.3,2.99,4.75,4.61,9.91,4.61,1.11,0,2.27-.07,3.48-.22,1.66-.2,3.37-.54,5.23-1.04.12-.01.23-.05.35-.1,1.46-.4,2.99-.89,4.96-1.59,1.95-.69,4.23-1.44,6.44-1.81,2.22.37,4.5,1.12,6.44,1.81,1.98.7,3.51,1.19,4.96,1.59.12.05.23.08.35.1,1.86.5,3.57.84,5.23,1.04,1.2.15,2.37.22,3.48.22,5.16,0,8.61-1.62,9.91-4.61,2.05,2.73,4.9,4.32,7.83,4.32h0c.29,0,.57-.02.87-.05,2.92-.3,5.32-2.38,6.58-5.69,1.25-3.28,1.76-7,1.46-10.78-.1-1.31-.33-2.64-.56-3.94-.75-4.32-1.46-8.39,2.47-11.48l.09-.08c.24-.23.37-.54.36-.83,0-.31-.11-.6-.32-.83l-.14-.13Z"/>
  </g>
</svg>