<?xml version="1.0" encoding="UTF-8"?>
<svg id="Layer_2" data-name="Layer 2" xmlns="http://www.w3.org/2000/svg" viewBox="0 0 100.37 80.5">
  <defs>
    <style>
      .cls-1 {
        fill: none;
        stroke: #261200;
        stroke-miterlimit: 10;
      }
    </style>
  </defs>
  <g id="_Ñëîé_1" data-name="Ñëîé 1">
    <path class="cls-1" d="M97.8,30.73c-11.43,0-20.7-9.27-20.7-20.7h-11.33C61.58,4.09,56.14.5,50.19.5s-11.39,3.59-15.59,9.52h-11.33c0,11.43-9.27,20.7-20.7,20.7-.7,0-1.39-.04-2.07-.1v19.25c.68-.07,1.37-.1,2.07-.1,11.43,0,20.7,9.27,20.7,20.7h11.33c4.2,5.93,9.64,9.52,15.59,9.52s11.39-3.59,15.59-9.52h11.33c0-11.43,9.27-20.7,20.7-20.7.7,0,1.39.04,2.07.1v-19.25c-.68.07-1.37.1-2.07.1Z"/>
  </g>
</svg>