<?xml version="1.0" encoding="UTF-8"?>
<svg id="Layer_2" data-name="Layer 2" xmlns="http://www.w3.org/2000/svg" viewBox="0 0 95.9 71.41">
  <defs>
    <style>
      .cls-1 {
        fill: none;
        stroke: #261200;
        stroke-miterlimit: 10;
      }
    </style>
  </defs>
  <g id="_Ñëîé_1" data-name="Ñëîé 1">
    <path class="cls-1" d="M95.4,19.45c0-2.81-2.29-5.1-5.1-5.1h0c-2.81,0-5.1-1.51-5.1-3.36s-2.3-3.35-5.1-3.35h-5.79c-2.81,0-7.12-1.09-9.6-2.42,0,0-8.77-4.72-16.76-4.72s-16.76,4.72-16.76,4.72c-2.47,1.33-6.79,2.42-9.59,2.42h-5.79c-2.81,0-5.1,1.51-5.1,3.35s-2.3,3.36-5.1,3.36h0c-2.81,0-5.1,2.3-5.1,5.1v32.5c0,2.81,2.3,5.1,5.1,5.1h0c2.81,0,5.1,1.51,5.1,3.36s2.3,3.35,5.1,3.35h5.79c2.81,0,7.12,1.09,9.59,2.42,0,0,8.77,4.72,16.76,4.72s16.76-4.72,16.76-4.72c2.47-1.33,6.79-2.42,9.6-2.42h5.79c2.81,0,5.1-1.51,5.1-3.35s2.3-3.36,5.1-3.36h0c2.81,0,5.1-2.29,5.1-5.1V19.45Z"/>
  </g>
</svg>