<?xml version="1.0" encoding="UTF-8"?>
<svg xmlns="http://www.w3.org/2000/svg" width="122.000mm" height="73.000mm" viewBox="0 0 122.000 73.000">
  <path d="M 8.000 5.000 L 114.000 5.000 L 114.000 5.150 L 117.000 5.150 L 117.000 11.517 L 114.000 11.517 L 114.000 11.667 L 114.000 18.333 L 114.000 18.483 L 117.000 18.483 L 117.000 24.850 L 114.000 24.850 L 114.000 25.000 L 114.000 31.667 L 114.000 31.817 L 117.000 31.817 L 117.000 38.183 L 114.000 38.183 L 114.000 38.333 L 114.000 45.000 L 114.000 45.150 L 117.000 45.150 L 117.000 51.517 L 114.000 51.517 L 114.000 51.667 L 114.000 58.333 L 114.000 58.483 L 117.000 58.483 L 117.000 64.850 L 114.000 64.850 L 114.000 65.000 L 113.850 65.000 L 113.850 68.000 L 105.996 68.000 L 105.996 65.000 L 105.846 65.000 L 97.692 65.000 L 97.542 65.000 L 97.542 68.000 L 89.688 68.000 L 89.688 65.000 L 89.538 65.000 L 81.385 65.000 L 81.235 65.000 L 81.235 68.000 L 73.381 68.000 L 73.381 65.000 L 73.231 65.000 L 65.077 65.000 L 64.927 65.000 L 64.927 68.000 L 57.073 68.000 L 57.073 65.000 L 56.923 65.000 L 48.769 65.000 L 48.619 65.000 L 48.619 68.000 L 40.765 68.000 L 40.765 65.000 L 40.615 65.000 L 32.462 65.000 L 32.312 65.000 L 32.312 68.000 L 24.458 68.000 L 24.458 65.000 L 24.308 65.000 L 16.154 65.000 L 16.004 65.000 L 16.004 68.000 L 8.150 68.000 L 8.150 65.000 L 8.000 65.000 L 8.000 64.850 L 5.000 64.850 L 5.000 58.483 L 8.000 58.483 L 8.000 58.333 L 8.000 51.667 L 8.000 51.517 L 5.000 51.517 L 5.000 45.150 L 8.000 45.150 L 8.000 45.000 L 8.000 38.333 L 8.000 38.183 L 5.000 38.183 L 5.000 31.817 L 8.000 31.817 L 8.000 31.667 L 8.000 25.000 L 8.000 24.850 L 5.000 24.850 L 5.000 18.483 L 8.000 18.483 L 8.000 18.333 L 8.000 11.667 L 8.000 11.517 L 5.000 11.517 L 5.000 5.150 L 8.000 5.150 L 8.000 5.000 Z" fill="none" stroke="#000000" stroke-width="0.1"/>
</svg>