<?xml version="1.0" encoding="UTF-8"?>
<svg xmlns="http://www.w3.org/2000/svg" width="182.000mm" height="133.000mm" viewBox="0 0 182.000 133.000">
  <!-- LEFT -->
  <path d="M 91.000 65.000 L 177.000 65.000 L 174.000 65.000 L 174.000 73.571 L 177.000 73.571 L 177.000 82.143 L 174.000 82.143 L 174.000 90.714 L 177.000 90.714 L 177.000 99.286 L 174.000 99.286 L 174.000 107.857 L 177.000 107.857 L 177.000 116.429 L 174.000 116.429 L 174.000 125.000 L 177.000 125.000 L 5.000 128.000 L 14.556 128.000 L 14.556 125.000 L 24.111 125.000 L 24.111 128.000 L 33.667 128.000 L 33.667 125.000 L 43.222 125.000 L 43.222 128.000 L 52.778 128.000 L 52.778 125.000 L 62.333 125.000 L 62.333 128.000 L 71.889 128.000 L 71.889 125.000 L 81.444 125.000 L 81.444 128.000 L 91.000 128.000 L 91.000 125.000 L 94.000 5.000 L 94.000 13.571 L 91.000 13.571 L 91.000 22.143 L 94.000 22.143 L 94.000 30.714 L 91.000 30.714 L 91.000 39.286 L 94.000 39.286 L 94.000 47.857 L 91.000 47.857 L 91.000 56.429 L 94.000 56.429 L 94.000 65.000 L 91.000 65.000 Z" fill="none" stroke="#000000" stroke-width="0.1"/>
</svg>