<?xml version="1.0" encoding="UTF-8"?>
<svg xmlns="http://www.w3.org/2000/svg" width="225.000mm" height="133.000mm" viewBox="0 0 225.000 133.000">
  <!-- BACK -->
  <path d="M 111.000 65.000 L 126.750 65.000 L 126.750 57.000 L 138.750 57.000 L 138.750 65.000 L 139.250 65.000 L 151.250 65.000 L 151.750 65.000 L 151.750 57.000 L 163.750 57.000 L 163.750 65.000 L 164.250 65.000 L 176.250 65.000 L 176.750 65.000 L 176.750 57.000 L 188.750 57.000 L 188.750 65.000 L 189.250 65.000 L 201.250 65.000 L 217.000 65.000 L 220.000 65.000 L 220.000 73.571 L 217.000 73.571 L 217.000 82.143 L 220.000 82.143 L 220.000 90.714 L 217.000 90.714 L 217.000 99.286 L 220.000 99.286 L 220.000 107.857 L 217.000 107.857 L 217.000 116.429 L 220.000 116.429 L 220.000 125.000 L 217.000 125.000 L 5.000 128.000 L 14.636 128.000 L 14.636 125.000 L 24.273 125.000 L 24.273 128.000 L 33.909 128.000 L 33.909 125.000 L 43.545 125.000 L 43.545 128.000 L 53.182 128.000 L 53.182 125.000 L 62.818 125.000 L 62.818 128.000 L 72.455 128.000 L 72.455 125.000 L 82.091 125.000 L 82.091 128.000 L 91.727 128.000 L 91.727 125.000 L 101.364 125.000 L 101.364 128.000 L 111.000 128.000 L 111.000 125.000 L 108.000 5.000 L 108.000 13.571 L 111.000 13.571 L 111.000 22.143 L 108.000 22.143 L 108.000 30.714 L 111.000 30.714 L 111.000 39.286 L 108.000 39.286 L 108.000 47.857 L 111.000 47.857 L 111.000 56.429 L 108.000 56.429 L 108.000 65.000 L 111.000 65.000 Z" fill="none" stroke="#000000" stroke-width="0.1"/>
  <circle cx="132.750" cy="61.000" r="2.700" fill="none" stroke="#000000" stroke-width="0.1"/>
  <circle cx="157.750" cy="61.000" r="2.700" fill="none" stroke="#000000" stroke-width="0.1"/>
  <circle cx="182.750" cy="61.000" r="2.700" fill="none" stroke="#000000" stroke-width="0.1"/>
</svg>