<?xml version="1.0" encoding="UTF-8"?>
<svg xmlns="http://www.w3.org/2000/svg" width="225.000mm" height="248.000mm" viewBox="0 0 225.000 248.000">
  <path d="M 8.000 13.000 L 11.600 13.000 L 11.600 5.000 L 23.600 5.000 L 23.600 13.000 L 36.400 13.000 L 36.400 5.000 L 48.400 5.000 L 48.400 13.000 L 61.200 13.000 L 61.200 5.000 L 73.200 5.000 L 73.200 13.000 L 86.000 13.000 L 86.000 5.000 L 98.000 5.000 L 98.000 13.000 L 114.000 13.000 L 114.000 13.150 L 117.000 13.150 L 117.000 19.517 L 114.000 19.517 L 114.000 19.667 L 114.000 26.333 L 114.000 26.483 L 117.000 26.483 L 117.000 32.850 L 114.000 32.850 L 114.000 33.000 L 114.000 39.667 L 114.000 39.817 L 117.000 39.817 L 117.000 46.183 L 114.000 46.183 L 114.000 46.333 L 114.000 53.000 L 114.000 53.150 L 117.000 53.150 L 117.000 59.517 L 114.000 59.517 L 114.000 59.667 L 114.000 66.333 L 114.000 66.483 L 117.000 66.483 L 117.000 72.850 L 114.000 72.850 L 114.000 73.000 L 113.850 73.000 L 113.850 76.000 L 105.996 76.000 L 105.996 73.000 L 105.846 73.000 L 97.692 73.000 L 97.542 73.000 L 97.542 76.000 L 89.688 76.000 L 89.688 73.000 L 89.538 73.000 L 81.385 73.000 L 81.235 73.000 L 81.235 76.000 L 73.381 76.000 L 73.381 73.000 L 73.231 73.000 L 65.077 73.000 L 64.927 73.000 L 64.927 76.000 L 57.073 76.000 L 57.073 73.000 L 56.923 73.000 L 48.769 73.000 L 48.619 73.000 L 48.619 76.000 L 40.765 76.000 L 40.765 73.000 L 40.615 73.000 L 32.462 73.000 L 32.312 73.000 L 32.312 76.000 L 24.458 76.000 L 24.458 73.000 L 24.308 73.000 L 16.154 73.000 L 16.004 73.000 L 16.004 76.000 L 8.150 76.000 L 8.150 73.000 L 8.000 73.000 L 8.000 72.850 L 5.000 72.850 L 5.000 66.483 L 8.000 66.483 L 8.000 66.333 L 8.000 59.667 L 8.000 59.517 L 5.000 59.517 L 5.000 53.150 L 8.000 53.150 L 8.000 53.000 L 8.000 46.333 L 8.000 46.183 L 5.000 46.183 L 5.000 39.817 L 8.000 39.817 L 8.000 39.667 L 8.000 33.000 L 8.000 32.850 L 5.000 32.850 L 5.000 26.483 L 8.000 26.483 L 8.000 26.333 L 8.000 19.667 L 8.000 19.517 L 5.000 19.517 L 5.000 13.150 L 8.000 13.150 L 8.000 13.000 Z" fill="none" stroke="#000000" stroke-width="0.1"/>
  <circle cx="17.600" cy="9.000" r="2.700" fill="none" stroke="#000000" stroke-width="0.1"/>
  <circle cx="42.400" cy="9.000" r="2.700" fill="none" stroke="#000000" stroke-width="0.1"/>
  <circle cx="67.200" cy="9.000" r="2.700" fill="none" stroke="#000000" stroke-width="0.1"/>
  <circle cx="92.000" cy="9.000" r="2.700" fill="none" stroke="#000000" stroke-width="0.1"/>
  <path d="M 114.000 5.000 L 220.000 5.000 L 220.000 91.000 L 204.000 91.000 L 204.000 99.000 L 192.000 99.000 L 192.000 91.000 L 179.200 91.000 L 179.200 99.000 L 167.200 99.000 L 167.200 91.000 L 154.400 91.000 L 154.400 99.000 L 142.400 99.000 L 142.400 91.000 L 129.600 91.000 L 129.600 99.000 L 117.600 99.000 L 117.600 91.000 L 114.000 91.000 L 114.000 5.000 Z" fill="none" stroke="#000000" stroke-width="0.1"/>
  <circle cx="198.000" cy="95.000" r="2.700" fill="none" stroke="#000000" stroke-width="0.1"/>
  <circle cx="173.200" cy="95.000" r="2.700" fill="none" stroke="#000000" stroke-width="0.1"/>
  <circle cx="148.400" cy="95.000" r="2.700" fill="none" stroke="#000000" stroke-width="0.1"/>
  <circle cx="123.600" cy="95.000" r="2.700" fill="none" stroke="#000000" stroke-width="0.1"/>
  <path d="M 8.000 94.000 L 94.000 94.000 L 94.000 100.667 L 94.000 100.517 L 97.000 100.517 L 97.000 107.483 L 94.000 107.483 L 94.000 107.333 L 94.000 114.000 L 94.000 113.850 L 97.000 113.850 L 97.000 120.817 L 94.000 120.817 L 94.000 120.667 L 94.000 127.333 L 94.000 127.183 L 97.000 127.183 L 97.000 134.150 L 94.000 134.150 L 94.000 134.000 L 94.000 140.667 L 94.000 140.517 L 97.000 140.517 L 97.000 147.483 L 94.000 147.483 L 94.000 147.333 L 94.000 154.000 L 93.850 154.000 L 93.850 157.000 L 86.332 157.000 L 86.332 154.000 L 86.182 154.000 L 78.364 154.000 L 78.214 154.000 L 78.214 157.000 L 70.695 157.000 L 70.695 154.000 L 70.545 154.000 L 62.727 154.000 L 62.577 154.000 L 62.577 157.000 L 55.059 157.000 L 55.059 154.000 L 54.909 154.000 L 47.091 154.000 L 46.941 154.000 L 46.941 157.000 L 39.423 157.000 L 39.423 154.000 L 39.273 154.000 L 31.455 154.000 L 31.305 154.000 L 31.305 157.000 L 23.786 157.000 L 23.786 154.000 L 23.636 154.000 L 15.818 154.000 L 15.668 154.000 L 15.668 157.000 L 8.150 157.000 L 8.150 154.000 L 8.000 154.000 L 8.000 147.333 L 8.000 147.483 L 5.000 147.483 L 5.000 140.517 L 8.000 140.517 L 8.000 140.667 L 8.000 134.000 L 8.000 134.150 L 5.000 134.150 L 5.000 127.183 L 8.000 127.183 L 8.000 127.333 L 8.000 120.667 L 8.000 120.817 L 5.000 120.817 L 5.000 113.850 L 8.000 113.850 L 8.000 114.000 L 8.000 107.333 L 8.000 107.483 L 5.000 107.483 L 5.000 100.517 L 8.000 100.517 L 8.000 100.667 L 8.000 94.000 Z" fill="none" stroke="#000000" stroke-width="0.1"/>
  <path d="M 117.000 94.000 L 203.000 94.000 L 203.000 100.667 L 203.000 100.517 L 206.000 100.517 L 206.000 107.483 L 203.000 107.483 L 203.000 107.333 L 203.000 114.000 L 203.000 113.850 L 206.000 113.850 L 206.000 120.817 L 203.000 120.817 L 203.000 120.667 L 203.000 127.333 L 203.000 127.183 L 206.000 127.183 L 206.000 134.150 L 203.000 134.150 L 203.000 134.000 L 203.000 140.667 L 203.000 140.517 L 206.000 140.517 L 206.000 147.483 L 203.000 147.483 L 203.000 147.333 L 203.000 154.000 L 202.850 154.000 L 202.850 157.000 L 195.332 157.000 L 195.332 154.000 L 195.182 154.000 L 187.364 154.000 L 187.214 154.000 L 187.214 157.000 L 179.695 157.000 L 179.695 154.000 L 179.545 154.000 L 171.727 154.000 L 171.577 154.000 L 171.577 157.000 L 164.059 157.000 L 164.059 154.000 L 163.909 154.000 L 156.091 154.000 L 155.941 154.000 L 155.941 157.000 L 148.423 157.000 L 148.423 154.000 L 148.273 154.000 L 140.455 154.000 L 140.305 154.000 L 140.305 157.000 L 132.786 157.000 L 132.786 154.000 L 132.636 154.000 L 124.818 154.000 L 124.668 154.000 L 124.668 157.000 L 117.150 157.000 L 117.150 154.000 L 117.000 154.000 L 117.000 147.333 L 117.000 147.483 L 114.000 147.483 L 114.000 140.517 L 117.000 140.517 L 117.000 140.667 L 117.000 134.000 L 117.000 134.150 L 114.000 134.150 L 114.000 127.183 L 117.000 127.183 L 117.000 127.333 L 117.000 120.667 L 117.000 120.817 L 114.000 120.817 L 114.000 113.850 L 117.000 113.850 L 117.000 114.000 L 117.000 107.333 L 117.000 107.483 L 114.000 107.483 L 114.000 100.517 L 117.000 100.517 L 117.000 100.667 L 117.000 94.000 Z" fill="none" stroke="#000000" stroke-width="0.1"/>
  <path d="M 8.000 157.000 L 114.000 157.000 L 114.000 157.150 L 117.000 157.150 L 117.000 163.517 L 114.000 163.517 L 114.000 163.667 L 114.000 170.333 L 114.000 170.483 L 117.000 170.483 L 117.000 176.850 L 114.000 176.850 L 114.000 177.000 L 114.000 183.667 L 114.000 183.817 L 117.000 183.817 L 117.000 190.183 L 114.000 190.183 L 114.000 190.333 L 114.000 197.000 L 114.000 197.150 L 117.000 197.150 L 117.000 203.517 L 114.000 203.517 L 114.000 203.667 L 114.000 210.333 L 114.000 210.483 L 117.000 210.483 L 117.000 216.850 L 114.000 216.850 L 114.000 217.000 L 113.850 217.000 L 113.850 220.000 L 105.996 220.000 L 105.996 217.000 L 105.846 217.000 L 97.692 217.000 L 97.542 217.000 L 97.542 220.000 L 89.688 220.000 L 89.688 217.000 L 89.538 217.000 L 81.385 217.000 L 81.235 217.000 L 81.235 220.000 L 73.381 220.000 L 73.381 217.000 L 73.231 217.000 L 65.077 217.000 L 64.927 217.000 L 64.927 220.000 L 57.073 220.000 L 57.073 217.000 L 56.923 217.000 L 48.769 217.000 L 48.619 217.000 L 48.619 220.000 L 40.765 220.000 L 40.765 217.000 L 40.615 217.000 L 32.462 217.000 L 32.312 217.000 L 32.312 220.000 L 24.458 220.000 L 24.458 217.000 L 24.308 217.000 L 16.154 217.000 L 16.004 217.000 L 16.004 220.000 L 8.150 220.000 L 8.150 217.000 L 8.000 217.000 L 8.000 216.850 L 5.000 216.850 L 5.000 210.483 L 8.000 210.483 L 8.000 210.333 L 8.000 203.667 L 8.000 203.517 L 5.000 203.517 L 5.000 197.150 L 8.000 197.150 L 8.000 197.000 L 8.000 190.333 L 8.000 190.183 L 5.000 190.183 L 5.000 183.817 L 8.000 183.817 L 8.000 183.667 L 8.000 177.000 L 8.000 176.850 L 5.000 176.850 L 5.000 170.483 L 8.000 170.483 L 8.000 170.333 L 8.000 163.667 L 8.000 163.517 L 5.000 163.517 L 5.000 157.150 L 8.000 157.150 L 8.000 157.000 Z" fill="none" stroke="#000000" stroke-width="0.1"/>
  <path d="M 117.000 160.000 L 125.154 160.000 L 125.004 160.000 L 125.004 157.000 L 133.458 157.000 L 133.458 160.000 L 133.308 160.000 L 141.462 160.000 L 141.312 160.000 L 141.312 157.000 L 149.765 157.000 L 149.765 160.000 L 149.615 160.000 L 157.769 160.000 L 157.619 160.000 L 157.619 157.000 L 166.073 157.000 L 166.073 160.000 L 165.923 160.000 L 174.077 160.000 L 173.927 160.000 L 173.927 157.000 L 182.381 157.000 L 182.381 160.000 L 182.231 160.000 L 190.385 160.000 L 190.235 160.000 L 190.235 157.000 L 198.688 157.000 L 198.688 160.000 L 198.538 160.000 L 206.692 160.000 L 206.542 160.000 L 206.542 157.000 L 214.996 157.000 L 214.996 160.000 L 214.846 160.000 L 223.000 160.000 L 223.000 167.818 L 223.000 167.668 L 226.000 167.668 L 226.000 175.786 L 223.000 175.786 L 223.000 175.636 L 223.000 183.455 L 223.000 183.305 L 226.000 183.305 L 226.000 191.423 L 223.000 191.423 L 223.000 191.273 L 223.000 199.091 L 223.000 198.941 L 226.000 198.941 L 226.000 207.059 L 223.000 207.059 L 223.000 206.909 L 223.000 214.727 L 223.000 214.577 L 226.000 214.577 L 226.000 222.695 L 223.000 222.695 L 223.000 222.545 L 223.000 230.364 L 223.000 230.214 L 226.000 230.214 L 226.000 238.332 L 223.000 238.332 L 223.000 238.182 L 223.000 246.000 L 214.846 246.000 L 214.996 246.000 L 214.996 249.000 L 206.542 249.000 L 206.542 246.000 L 206.692 246.000 L 198.538 246.000 L 198.688 246.000 L 198.688 249.000 L 190.235 249.000 L 190.235 246.000 L 190.385 246.000 L 182.231 246.000 L 182.381 246.000 L 182.381 249.000 L 173.927 249.000 L 173.927 246.000 L 174.077 246.000 L 165.923 246.000 L 166.073 246.000 L 166.073 249.000 L 157.619 249.000 L 157.619 246.000 L 157.769 246.000 L 149.615 246.000 L 149.765 246.000 L 149.765 249.000 L 141.312 249.000 L 141.312 246.000 L 141.462 246.000 L 133.308 246.000 L 133.458 246.000 L 133.458 249.000 L 125.004 249.000 L 125.004 246.000 L 125.154 246.000 L 117.000 246.000 L 117.000 238.182 L 117.000 238.332 L 114.000 238.332 L 114.000 230.214 L 117.000 230.214 L 117.000 230.364 L 117.000 222.545 L 117.000 222.695 L 114.000 222.695 L 114.000 214.577 L 117.000 214.577 L 117.000 214.727 L 117.000 206.909 L 117.000 207.059 L 114.000 207.059 L 114.000 198.941 L 117.000 198.941 L 117.000 199.091 L 117.000 191.273 L 117.000 191.423 L 114.000 191.423 L 114.000 183.305 L 117.000 183.305 L 117.000 183.455 L 117.000 175.636 L 117.000 175.786 L 114.000 175.786 L 114.000 167.668 L 117.000 167.668 L 117.000 167.818 L 117.000 160.000 Z" fill="none" stroke="#000000" stroke-width="0.1"/>

  <!-- Debug: BACK -->
  <text x="10" y="18" font-size="4" font-weight="bold" fill="#cc0000">BACK</text>
  <text x="10" y="22" font-size="2.5" fill="#666666">106.0×60.0</text>
  <text x="10" y="26" font-size="3" fill="#0066cc">HINGE EDGE: top</text>

  <!-- Debug: LID -->
  <text x="116" y="10" font-size="4" font-weight="bold" fill="#cc0000">LID</text>
  <text x="116" y="14" font-size="2.5" fill="#666666">106.0×86.0</text>
  <text x="116" y="18" font-size="3" fill="#0066cc">HINGE EDGE: bottom</text>

  <!-- Debug: LEFT -->
  <text x="10" y="99.00000000000001" font-size="4" font-weight="bold" fill="#cc0000">LEFT</text>
  <text x="10" y="103.00000000000001" font-size="2.5" fill="#666666">86.0×60.0</text>
  

  <!-- Debug: RIGHT -->
  <text x="119" y="99.00000000000001" font-size="4" font-weight="bold" fill="#cc0000">RIGHT</text>
  <text x="119" y="103.00000000000001" font-size="2.5" fill="#666666">86.0×60.0</text>
  

  <!-- Debug: FRONT -->
  <text x="10" y="162" font-size="4" font-weight="bold" fill="#cc0000">FRONT</text>
  <text x="10" y="166" font-size="2.5" fill="#666666">106.0×60.0</text>
  

  <!-- Debug: BOTTOM -->
  <text x="119" y="165" font-size="4" font-weight="bold" fill="#cc0000">BOTTOM</text>
  <text x="119" y="169" font-size="2.5" fill="#666666">106.0×86.0</text>
  
</svg>