<?xml version="1.0" encoding="UTF-8"?>
<svg xmlns="http://www.w3.org/2000/svg" width="170.000mm" height="133.000mm" viewBox="0 0 170.000 133.000">
  <!-- LEFT -->
  <path d="M 85.000 65.000 L 165.000 65.000 L 162.000 65.000 L 162.000 73.571 L 165.000 73.571 L 165.000 82.143 L 162.000 82.143 L 162.000 90.714 L 165.000 90.714 L 165.000 99.286 L 162.000 99.286 L 162.000 107.857 L 165.000 107.857 L 165.000 116.429 L 162.000 116.429 L 162.000 125.000 L 165.000 125.000 L 5.000 128.000 L 13.889 128.000 L 13.889 125.000 L 22.778 125.000 L 22.778 128.000 L 31.667 128.000 L 31.667 125.000 L 40.556 125.000 L 40.556 128.000 L 49.444 128.000 L 49.444 125.000 L 58.333 125.000 L 58.333 128.000 L 67.222 128.000 L 67.222 125.000 L 76.111 125.000 L 76.111 128.000 L 85.000 128.000 L 85.000 125.000 L 88.000 5.000 L 88.000 13.571 L 85.000 13.571 L 85.000 22.143 L 88.000 22.143 L 88.000 30.714 L 85.000 30.714 L 85.000 39.286 L 88.000 39.286 L 88.000 47.857 L 85.000 47.857 L 85.000 56.429 L 88.000 56.429 L 88.000 65.000 L 85.000 65.000 Z" fill="none" stroke="#000000" stroke-width="0.1"/>
  <circle cx="157.000" cy="73.000" r="2.700" fill="none" stroke="#000000" stroke-width="0.1"/>
</svg>