<?xml version="1.0" encoding="UTF-8"?>
<svg xmlns="http://www.w3.org/2000/svg" width="122.000mm" height="81.000mm" viewBox="0 0 122.000 81.000">
  <path d="M 8.000 13.000 L 11.600 13.000 L 11.600 5.000 L 23.600 5.000 L 23.600 13.000 L 36.400 13.000 L 36.400 5.000 L 48.400 5.000 L 48.400 13.000 L 61.200 13.000 L 61.200 5.000 L 73.200 5.000 L 73.200 13.000 L 86.000 13.000 L 86.000 5.000 L 98.000 5.000 L 98.000 13.000 L 114.000 13.000 L 114.000 13.150 L 117.000 13.150 L 117.000 19.517 L 114.000 19.517 L 114.000 19.667 L 114.000 26.333 L 114.000 26.483 L 117.000 26.483 L 117.000 32.850 L 114.000 32.850 L 114.000 33.000 L 114.000 39.667 L 114.000 39.817 L 117.000 39.817 L 117.000 46.183 L 114.000 46.183 L 114.000 46.333 L 114.000 53.000 L 114.000 53.150 L 117.000 53.150 L 117.000 59.517 L 114.000 59.517 L 114.000 59.667 L 114.000 66.333 L 114.000 66.483 L 117.000 66.483 L 117.000 72.850 L 114.000 72.850 L 114.000 73.000 L 113.850 73.000 L 113.850 76.000 L 105.996 76.000 L 105.996 73.000 L 105.846 73.000 L 97.692 73.000 L 97.542 73.000 L 97.542 76.000 L 89.688 76.000 L 89.688 73.000 L 89.538 73.000 L 81.385 73.000 L 81.235 73.000 L 81.235 76.000 L 73.381 76.000 L 73.381 73.000 L 73.231 73.000 L 65.077 73.000 L 64.927 73.000 L 64.927 76.000 L 57.073 76.000 L 57.073 73.000 L 56.923 73.000 L 48.769 73.000 L 48.619 73.000 L 48.619 76.000 L 40.765 76.000 L 40.765 73.000 L 40.615 73.000 L 32.462 73.000 L 32.312 73.000 L 32.312 76.000 L 24.458 76.000 L 24.458 73.000 L 24.308 73.000 L 16.154 73.000 L 16.004 73.000 L 16.004 76.000 L 8.150 76.000 L 8.150 73.000 L 8.000 73.000 L 8.000 72.850 L 5.000 72.850 L 5.000 66.483 L 8.000 66.483 L 8.000 66.333 L 8.000 59.667 L 8.000 59.517 L 5.000 59.517 L 5.000 53.150 L 8.000 53.150 L 8.000 53.000 L 8.000 46.333 L 8.000 46.183 L 5.000 46.183 L 5.000 39.817 L 8.000 39.817 L 8.000 39.667 L 8.000 33.000 L 8.000 32.850 L 5.000 32.850 L 5.000 26.483 L 8.000 26.483 L 8.000 26.333 L 8.000 19.667 L 8.000 19.517 L 5.000 19.517 L 5.000 13.150 L 8.000 13.150 L 8.000 13.000 Z" fill="none" stroke="#000000" stroke-width="0.1"/>
  <circle cx="17.600" cy="9.000" r="2.700" fill="none" stroke="#000000" stroke-width="0.1"/>
  <circle cx="42.400" cy="9.000" r="2.700" fill="none" stroke="#000000" stroke-width="0.1"/>
  <circle cx="67.200" cy="9.000" r="2.700" fill="none" stroke="#000000" stroke-width="0.1"/>
  <circle cx="92.000" cy="9.000" r="2.700" fill="none" stroke="#000000" stroke-width="0.1"/>
</svg>