<?xml version="1.0" encoding="UTF-8"?>
<svg xmlns="http://www.w3.org/2000/svg" width="442.000mm" height="498.000mm" viewBox="0 0 442.000 498.000">
  <!-- BACK -->
  <path d="M 111.000 125.000 L 126.750 125.000 L 126.750 117.000 L 138.750 117.000 L 138.750 125.000 L 139.250 125.000 L 151.250 125.000 L 151.750 125.000 L 151.750 117.000 L 163.750 117.000 L 163.750 125.000 L 164.250 125.000 L 176.250 125.000 L 176.750 125.000 L 176.750 117.000 L 188.750 117.000 L 188.750 125.000 L 189.250 125.000 L 201.250 125.000 L 217.000 125.000 L 220.000 125.000 L 220.000 133.571 L 217.000 133.571 L 217.000 142.143 L 220.000 142.143 L 220.000 150.714 L 217.000 150.714 L 217.000 159.286 L 220.000 159.286 L 220.000 167.857 L 217.000 167.857 L 217.000 176.429 L 220.000 176.429 L 220.000 185.000 L 217.000 185.000 L 5.000 188.000 L 14.636 188.000 L 14.636 185.000 L 24.273 185.000 L 24.273 188.000 L 33.909 188.000 L 33.909 185.000 L 43.545 185.000 L 43.545 188.000 L 53.182 188.000 L 53.182 185.000 L 62.818 185.000 L 62.818 188.000 L 72.455 188.000 L 72.455 185.000 L 82.091 185.000 L 82.091 188.000 L 91.727 188.000 L 91.727 185.000 L 101.364 185.000 L 101.364 188.000 L 111.000 188.000 L 111.000 185.000 L 108.000 65.000 L 108.000 73.571 L 111.000 73.571 L 111.000 82.143 L 108.000 82.143 L 108.000 90.714 L 111.000 90.714 L 111.000 99.286 L 108.000 99.286 L 108.000 107.857 L 111.000 107.857 L 111.000 116.429 L 108.000 116.429 L 108.000 125.000 L 111.000 125.000 Z" fill="none" stroke="#000000" stroke-width="0.1"/>
  <circle cx="132.750" cy="121.000" r="2.700" fill="none" stroke="#000000" stroke-width="0.1"/>
  <circle cx="157.750" cy="121.000" r="2.700" fill="none" stroke="#000000" stroke-width="0.1"/>
  <circle cx="182.750" cy="121.000" r="2.700" fill="none" stroke="#000000" stroke-width="0.1"/>

  <!-- LID -->
  <path d="M 225.000 73.000 L 240.750 73.000 L 252.750 73.000 L 253.250 73.000 L 253.250 65.000 L 265.250 65.000 L 265.250 73.000 L 265.750 73.000 L 277.750 73.000 L 278.250 73.000 L 278.250 65.000 L 290.250 65.000 L 290.250 73.000 L 290.750 73.000 L 302.750 73.000 L 303.250 73.000 L 303.250 65.000 L 315.250 65.000 L 315.250 73.000 L 331.000 73.000 L 331.000 159.000 L 225.000 159.000 L 225.000 73.000 Z" fill="none" stroke="#000000" stroke-width="0.1"/>
  <circle cx="259.250" cy="69.000" r="2.700" fill="none" stroke="#000000" stroke-width="0.1"/>
  <circle cx="284.250" cy="69.000" r="2.700" fill="none" stroke="#000000" stroke-width="0.1"/>
  <circle cx="309.250" cy="69.000" r="2.700" fill="none" stroke="#000000" stroke-width="0.1"/>

  <!-- FRONT -->
  <path d="M 111.000 253.000 L 217.000 253.000 L 220.000 253.000 L 220.000 261.571 L 217.000 261.571 L 217.000 270.143 L 220.000 270.143 L 220.000 278.714 L 217.000 278.714 L 217.000 287.286 L 220.000 287.286 L 220.000 295.857 L 217.000 295.857 L 217.000 304.429 L 220.000 304.429 L 220.000 313.000 L 217.000 313.000 L 5.000 316.000 L 14.636 316.000 L 14.636 313.000 L 24.273 313.000 L 24.273 316.000 L 33.909 316.000 L 33.909 313.000 L 43.545 313.000 L 43.545 316.000 L 53.182 316.000 L 53.182 313.000 L 62.818 313.000 L 62.818 316.000 L 72.455 316.000 L 72.455 313.000 L 82.091 313.000 L 82.091 316.000 L 91.727 316.000 L 91.727 313.000 L 101.364 313.000 L 101.364 316.000 L 111.000 316.000 L 111.000 313.000 L 108.000 193.000 L 108.000 201.571 L 111.000 201.571 L 111.000 210.143 L 108.000 210.143 L 108.000 218.714 L 111.000 218.714 L 111.000 227.286 L 108.000 227.286 L 108.000 235.857 L 111.000 235.857 L 111.000 244.429 L 108.000 244.429 L 108.000 253.000 L 111.000 253.000 Z" fill="none" stroke="#000000" stroke-width="0.1"/>

  <!-- BOTTOM -->
  <path d="M 331.000 279.000 L 331.000 282.000 L 340.636 282.000 L 340.636 279.000 L 350.273 279.000 L 350.273 282.000 L 359.909 282.000 L 359.909 279.000 L 369.545 279.000 L 369.545 282.000 L 379.182 282.000 L 379.182 279.000 L 388.818 279.000 L 388.818 282.000 L 398.455 282.000 L 398.455 279.000 L 408.091 279.000 L 408.091 282.000 L 417.727 282.000 L 417.727 279.000 L 427.364 279.000 L 427.364 282.000 L 437.000 282.000 L 437.000 279.000 L 434.000 279.000 L 434.000 288.556 L 437.000 288.556 L 437.000 298.111 L 434.000 298.111 L 434.000 307.667 L 437.000 307.667 L 437.000 317.222 L 434.000 317.222 L 434.000 326.778 L 437.000 326.778 L 437.000 336.333 L 434.000 336.333 L 434.000 345.889 L 437.000 345.889 L 437.000 355.444 L 434.000 355.444 L 434.000 365.000 L 437.000 365.000 L 225.000 362.000 L 234.636 362.000 L 234.636 365.000 L 244.273 365.000 L 244.273 362.000 L 253.909 362.000 L 253.909 365.000 L 263.545 365.000 L 263.545 362.000 L 273.182 362.000 L 273.182 365.000 L 282.818 365.000 L 282.818 362.000 L 292.455 362.000 L 292.455 365.000 L 302.091 365.000 L 302.091 362.000 L 311.727 362.000 L 311.727 365.000 L 321.364 365.000 L 321.364 362.000 L 331.000 362.000 L 331.000 365.000 L 334.000 193.000 L 334.000 202.556 L 331.000 202.556 L 331.000 212.111 L 334.000 212.111 L 334.000 221.667 L 331.000 221.667 L 331.000 231.222 L 334.000 231.222 L 334.000 240.778 L 331.000 240.778 L 331.000 250.333 L 334.000 250.333 L 334.000 259.889 L 331.000 259.889 L 331.000 269.444 L 334.000 269.444 L 334.000 279.000 L 331.000 279.000 Z" fill="none" stroke="#000000" stroke-width="0.1"/>

  <!-- LEFT -->
  <path d="M 91.000 430.000 L 177.000 430.000 L 174.000 430.000 L 174.000 438.571 L 177.000 438.571 L 177.000 447.143 L 174.000 447.143 L 174.000 455.714 L 177.000 455.714 L 177.000 464.286 L 174.000 464.286 L 174.000 472.857 L 177.000 472.857 L 177.000 481.429 L 174.000 481.429 L 174.000 490.000 L 177.000 490.000 L 5.000 493.000 L 14.556 493.000 L 14.556 490.000 L 24.111 490.000 L 24.111 493.000 L 33.667 493.000 L 33.667 490.000 L 43.222 490.000 L 43.222 493.000 L 52.778 493.000 L 52.778 490.000 L 62.333 490.000 L 62.333 493.000 L 71.889 493.000 L 71.889 490.000 L 81.444 490.000 L 81.444 493.000 L 91.000 493.000 L 91.000 490.000 L 94.000 370.000 L 94.000 378.571 L 91.000 378.571 L 91.000 387.143 L 94.000 387.143 L 94.000 395.714 L 91.000 395.714 L 91.000 404.286 L 94.000 404.286 L 94.000 412.857 L 91.000 412.857 L 91.000 421.429 L 94.000 421.429 L 94.000 430.000 L 91.000 430.000 Z" fill="none" stroke="#000000" stroke-width="0.1"/>

  <!-- RIGHT -->
  <path d="M 311.000 430.000 L 397.000 430.000 L 394.000 430.000 L 394.000 438.571 L 397.000 438.571 L 397.000 447.143 L 394.000 447.143 L 394.000 455.714 L 397.000 455.714 L 397.000 464.286 L 394.000 464.286 L 394.000 472.857 L 397.000 472.857 L 397.000 481.429 L 394.000 481.429 L 394.000 490.000 L 397.000 490.000 L 225.000 493.000 L 234.556 493.000 L 234.556 490.000 L 244.111 490.000 L 244.111 493.000 L 253.667 493.000 L 253.667 490.000 L 263.222 490.000 L 263.222 493.000 L 272.778 493.000 L 272.778 490.000 L 282.333 490.000 L 282.333 493.000 L 291.889 493.000 L 291.889 490.000 L 301.444 490.000 L 301.444 493.000 L 311.000 493.000 L 311.000 490.000 L 314.000 370.000 L 314.000 378.571 L 311.000 378.571 L 311.000 387.143 L 314.000 387.143 L 314.000 395.714 L 311.000 395.714 L 311.000 404.286 L 314.000 404.286 L 314.000 412.857 L 311.000 412.857 L 311.000 421.429 L 314.000 421.429 L 314.000 430.000 L 311.000 430.000 Z" fill="none" stroke="#000000" stroke-width="0.1"/>

  <!-- DEBUG OVERLAY -->
  <!-- Debug: BACK -->
  <text x="113.99999999999991" y="132.99999999999997" font-size="5" font-weight="bold" fill="#cc0000">BACK</text>
  <text x="113.99999999999991" y="137.99999999999997" font-size="3" fill="#666666">106.0×60.0</text>
  <text x="113.99999999999991" y="141.99999999999997" font-size="2.5" fill="#0066cc">HINGE: TOP</text>
  <line x1="110.99999999999991" y1="124.99999999999997" x2="216.99999999999991" y2="124.99999999999997" stroke="#0066cc" stroke-width="0.5" stroke-dasharray="2,1"/>
  <!-- Debug: LID -->
  <text x="227.99999999999991" y="80.99999999999999" font-size="5" font-weight="bold" fill="#cc0000">LID</text>
  <text x="227.99999999999991" y="85.99999999999999" font-size="3" fill="#666666">106.0×86.0</text>
  <text x="227.99999999999991" y="89.99999999999999" font-size="2.5" fill="#0066cc">HINGE: TOP</text>
  <line x1="224.99999999999991" y1="72.99999999999999" x2="330.9999999999999" y2="72.99999999999999" stroke="#0066cc" stroke-width="0.5" stroke-dasharray="2,1"/>
  <!-- Debug: FRONT -->
  <text x="113.99999999999991" y="260.99999999999994" font-size="5" font-weight="bold" fill="#cc0000">FRONT</text>
  <text x="113.99999999999991" y="265.99999999999994" font-size="3" fill="#666666">106.0×60.0</text>
  <!-- Debug: BOTTOM -->
  <text x="333.99999999999983" y="286.9999999999999" font-size="5" font-weight="bold" fill="#cc0000">BOTTOM</text>
  <text x="333.99999999999983" y="291.9999999999999" font-size="3" fill="#666666">106.0×86.0</text>
  <!-- Debug: LEFT -->
  <text x="93.99999999999994" y="437.9999999999999" font-size="5" font-weight="bold" fill="#cc0000">LEFT</text>
  <text x="93.99999999999994" y="442.9999999999999" font-size="3" fill="#666666">86.0×60.0</text>
  <!-- Debug: RIGHT -->
  <text x="313.9999999999999" y="437.9999999999999" font-size="5" font-weight="bold" fill="#cc0000">RIGHT</text>
  <text x="313.9999999999999" y="442.9999999999999" font-size="3" fill="#666666">86.0×60.0</text>
</svg>