<?xml version="1.0" encoding="UTF-8"?>
<svg xmlns="http://www.w3.org/2000/svg" width="102.000mm" height="73.000mm" viewBox="0 0 102.000 73.000">
  <path d="M 8.000 5.000 L 94.000 5.000 L 94.000 11.667 L 94.000 11.517 L 97.000 11.517 L 97.000 18.483 L 94.000 18.483 L 94.000 18.333 L 94.000 25.000 L 94.000 24.850 L 97.000 24.850 L 97.000 31.817 L 94.000 31.817 L 94.000 31.667 L 94.000 38.333 L 94.000 38.183 L 97.000 38.183 L 97.000 45.150 L 94.000 45.150 L 94.000 45.000 L 94.000 51.667 L 94.000 51.517 L 97.000 51.517 L 97.000 58.483 L 94.000 58.483 L 94.000 58.333 L 94.000 65.000 L 93.850 65.000 L 93.850 68.000 L 86.332 68.000 L 86.332 65.000 L 86.182 65.000 L 78.364 65.000 L 78.214 65.000 L 78.214 68.000 L 70.695 68.000 L 70.695 65.000 L 70.545 65.000 L 62.727 65.000 L 62.577 65.000 L 62.577 68.000 L 55.059 68.000 L 55.059 65.000 L 54.909 65.000 L 47.091 65.000 L 46.941 65.000 L 46.941 68.000 L 39.423 68.000 L 39.423 65.000 L 39.273 65.000 L 31.455 65.000 L 31.305 65.000 L 31.305 68.000 L 23.786 68.000 L 23.786 65.000 L 23.636 65.000 L 15.818 65.000 L 15.668 65.000 L 15.668 68.000 L 8.150 68.000 L 8.150 65.000 L 8.000 65.000 L 8.000 58.333 L 8.000 58.483 L 5.000 58.483 L 5.000 51.517 L 8.000 51.517 L 8.000 51.667 L 8.000 45.000 L 8.000 45.150 L 5.000 45.150 L 5.000 38.183 L 8.000 38.183 L 8.000 38.333 L 8.000 31.667 L 8.000 31.817 L 5.000 31.817 L 5.000 24.850 L 8.000 24.850 L 8.000 25.000 L 8.000 18.333 L 8.000 18.483 L 5.000 18.483 L 5.000 11.517 L 8.000 11.517 L 8.000 11.667 L 8.000 5.000 Z" fill="none" stroke="#000000" stroke-width="0.1"/>
</svg>