<?xml version="1.0" encoding="UTF-8"?>
<svg xmlns="http://www.w3.org/2000/svg" width="222.000mm" height="182.000mm" viewBox="0 0 222.000 182.000">
  <!-- BOTTOM -->
  <path d="M 111.000 91.000 L 111.000 94.000 L 120.636 94.000 L 120.636 91.000 L 130.273 91.000 L 130.273 94.000 L 139.909 94.000 L 139.909 91.000 L 149.545 91.000 L 149.545 94.000 L 159.182 94.000 L 159.182 91.000 L 168.818 91.000 L 168.818 94.000 L 178.455 94.000 L 178.455 91.000 L 188.091 91.000 L 188.091 94.000 L 197.727 94.000 L 197.727 91.000 L 207.364 91.000 L 207.364 94.000 L 217.000 94.000 L 217.000 91.000 L 214.000 91.000 L 214.000 100.556 L 217.000 100.556 L 217.000 110.111 L 214.000 110.111 L 214.000 119.667 L 217.000 119.667 L 217.000 129.222 L 214.000 129.222 L 214.000 138.778 L 217.000 138.778 L 217.000 148.333 L 214.000 148.333 L 214.000 157.889 L 217.000 157.889 L 217.000 167.444 L 214.000 167.444 L 214.000 177.000 L 217.000 177.000 L 5.000 174.000 L 14.636 174.000 L 14.636 177.000 L 24.273 177.000 L 24.273 174.000 L 33.909 174.000 L 33.909 177.000 L 43.545 177.000 L 43.545 174.000 L 53.182 174.000 L 53.182 177.000 L 62.818 177.000 L 62.818 174.000 L 72.455 174.000 L 72.455 177.000 L 82.091 177.000 L 82.091 174.000 L 91.727 174.000 L 91.727 177.000 L 101.364 177.000 L 101.364 174.000 L 111.000 174.000 L 111.000 177.000 L 114.000 5.000 L 114.000 14.556 L 111.000 14.556 L 111.000 24.111 L 114.000 24.111 L 114.000 33.667 L 111.000 33.667 L 111.000 43.222 L 114.000 43.222 L 114.000 52.778 L 111.000 52.778 L 111.000 62.333 L 114.000 62.333 L 114.000 71.889 L 111.000 71.889 L 111.000 81.444 L 114.000 81.444 L 114.000 91.000 L 111.000 91.000 Z" fill="none" stroke="#000000" stroke-width="0.1"/>
</svg>