<?xml version="1.0" encoding="UTF-8"?>
<svg xmlns="http://www.w3.org/2000/svg" width="122.000mm" height="102.000mm" viewBox="0 0 122.000 102.000">
  <path d="M 8.000 8.000 L 16.154 8.000 L 16.004 8.000 L 16.004 5.000 L 24.458 5.000 L 24.458 8.000 L 24.308 8.000 L 32.462 8.000 L 32.312 8.000 L 32.312 5.000 L 40.765 5.000 L 40.765 8.000 L 40.615 8.000 L 48.769 8.000 L 48.619 8.000 L 48.619 5.000 L 57.073 5.000 L 57.073 8.000 L 56.923 8.000 L 65.077 8.000 L 64.927 8.000 L 64.927 5.000 L 73.381 5.000 L 73.381 8.000 L 73.231 8.000 L 81.385 8.000 L 81.235 8.000 L 81.235 5.000 L 89.688 5.000 L 89.688 8.000 L 89.538 8.000 L 97.692 8.000 L 97.542 8.000 L 97.542 5.000 L 105.996 5.000 L 105.996 8.000 L 105.846 8.000 L 114.000 8.000 L 114.000 15.818 L 114.000 15.668 L 117.000 15.668 L 117.000 23.786 L 114.000 23.786 L 114.000 23.636 L 114.000 31.455 L 114.000 31.305 L 117.000 31.305 L 117.000 39.423 L 114.000 39.423 L 114.000 39.273 L 114.000 47.091 L 114.000 46.941 L 117.000 46.941 L 117.000 55.059 L 114.000 55.059 L 114.000 54.909 L 114.000 62.727 L 114.000 62.577 L 117.000 62.577 L 117.000 70.695 L 114.000 70.695 L 114.000 70.545 L 114.000 78.364 L 114.000 78.214 L 117.000 78.214 L 117.000 86.332 L 114.000 86.332 L 114.000 86.182 L 114.000 94.000 L 105.846 94.000 L 105.996 94.000 L 105.996 97.000 L 97.542 97.000 L 97.542 94.000 L 97.692 94.000 L 89.538 94.000 L 89.688 94.000 L 89.688 97.000 L 81.235 97.000 L 81.235 94.000 L 81.385 94.000 L 73.231 94.000 L 73.381 94.000 L 73.381 97.000 L 64.927 97.000 L 64.927 94.000 L 65.077 94.000 L 56.923 94.000 L 57.073 94.000 L 57.073 97.000 L 48.619 97.000 L 48.619 94.000 L 48.769 94.000 L 40.615 94.000 L 40.765 94.000 L 40.765 97.000 L 32.312 97.000 L 32.312 94.000 L 32.462 94.000 L 24.308 94.000 L 24.458 94.000 L 24.458 97.000 L 16.004 97.000 L 16.004 94.000 L 16.154 94.000 L 8.000 94.000 L 8.000 86.182 L 8.000 86.332 L 5.000 86.332 L 5.000 78.214 L 8.000 78.214 L 8.000 78.364 L 8.000 70.545 L 8.000 70.695 L 5.000 70.695 L 5.000 62.577 L 8.000 62.577 L 8.000 62.727 L 8.000 54.909 L 8.000 55.059 L 5.000 55.059 L 5.000 46.941 L 8.000 46.941 L 8.000 47.091 L 8.000 39.273 L 8.000 39.423 L 5.000 39.423 L 5.000 31.305 L 8.000 31.305 L 8.000 31.455 L 8.000 23.636 L 8.000 23.786 L 5.000 23.786 L 5.000 15.668 L 8.000 15.668 L 8.000 15.818 L 8.000 8.000 Z" fill="none" stroke="#000000" stroke-width="0.1"/>
</svg>