<?xml version="1.0" encoding="UTF-8"?>
<svg xmlns="http://www.w3.org/2000/svg" width="390.000mm" height="438.000mm" viewBox="0 0 390.000 438.000">
  <!-- LEFT -->
  <path d="M 85.000 65.000 L 165.000 65.000 L 162.000 65.000 L 162.000 73.571 L 165.000 73.571 L 165.000 82.143 L 162.000 82.143 L 162.000 90.714 L 165.000 90.714 L 165.000 99.286 L 162.000 99.286 L 162.000 107.857 L 165.000 107.857 L 165.000 116.429 L 162.000 116.429 L 162.000 125.000 L 165.000 125.000 L 5.000 128.000 L 13.889 128.000 L 13.889 125.000 L 22.778 125.000 L 22.778 128.000 L 31.667 128.000 L 31.667 125.000 L 40.556 125.000 L 40.556 128.000 L 49.444 128.000 L 49.444 125.000 L 58.333 125.000 L 58.333 128.000 L 67.222 128.000 L 67.222 125.000 L 76.111 125.000 L 76.111 128.000 L 85.000 128.000 L 85.000 125.000 L 88.000 5.000 L 88.000 13.571 L 85.000 13.571 L 85.000 22.143 L 88.000 22.143 L 88.000 30.714 L 85.000 30.714 L 85.000 39.286 L 88.000 39.286 L 88.000 47.857 L 85.000 47.857 L 85.000 56.429 L 88.000 56.429 L 88.000 65.000 L 85.000 65.000 Z" fill="none" stroke="#000000" stroke-width="0.1"/>
  <circle cx="157.000" cy="73.000" r="2.700" fill="none" stroke="#000000" stroke-width="0.1"/>

  <!-- FRONT -->
  <path d="M 276.000 65.000 L 382.000 65.000 L 385.000 65.000 L 385.000 73.571 L 382.000 73.571 L 382.000 82.143 L 385.000 82.143 L 385.000 90.714 L 382.000 90.714 L 382.000 99.286 L 385.000 99.286 L 385.000 107.857 L 382.000 107.857 L 382.000 116.429 L 385.000 116.429 L 385.000 125.000 L 382.000 125.000 L 170.000 128.000 L 179.636 128.000 L 179.636 125.000 L 189.273 125.000 L 189.273 128.000 L 198.909 128.000 L 198.909 125.000 L 208.545 125.000 L 208.545 128.000 L 218.182 128.000 L 218.182 125.000 L 227.818 125.000 L 227.818 128.000 L 237.455 128.000 L 237.455 125.000 L 247.091 125.000 L 247.091 128.000 L 256.727 128.000 L 256.727 125.000 L 266.364 125.000 L 266.364 128.000 L 276.000 128.000 L 276.000 125.000 L 273.000 5.000 L 273.000 13.571 L 276.000 13.571 L 276.000 22.143 L 273.000 22.143 L 273.000 30.714 L 276.000 30.714 L 276.000 39.286 L 273.000 39.286 L 273.000 47.857 L 276.000 47.857 L 276.000 56.429 L 273.000 56.429 L 273.000 65.000 L 276.000 65.000 Z" fill="none" stroke="#000000" stroke-width="0.1"/>

  <!-- RIGHT -->
  <path d="M 85.000 193.000 L 165.000 193.000 L 162.000 193.000 L 162.000 201.571 L 165.000 201.571 L 165.000 210.143 L 162.000 210.143 L 162.000 218.714 L 165.000 218.714 L 165.000 227.286 L 162.000 227.286 L 162.000 235.857 L 165.000 235.857 L 165.000 244.429 L 162.000 244.429 L 162.000 253.000 L 165.000 253.000 L 5.000 256.000 L 13.889 256.000 L 13.889 253.000 L 22.778 253.000 L 22.778 256.000 L 31.667 256.000 L 31.667 253.000 L 40.556 253.000 L 40.556 256.000 L 49.444 256.000 L 49.444 253.000 L 58.333 253.000 L 58.333 256.000 L 67.222 256.000 L 67.222 253.000 L 76.111 253.000 L 76.111 256.000 L 85.000 256.000 L 85.000 253.000 L 88.000 133.000 L 88.000 141.571 L 85.000 141.571 L 85.000 150.143 L 88.000 150.143 L 88.000 158.714 L 85.000 158.714 L 85.000 167.286 L 88.000 167.286 L 88.000 175.857 L 85.000 175.857 L 85.000 184.429 L 88.000 184.429 L 88.000 193.000 L 85.000 193.000 Z" fill="none" stroke="#000000" stroke-width="0.1"/>
  <circle cx="157.000" cy="201.000" r="2.700" fill="none" stroke="#000000" stroke-width="0.1"/>

  <!-- BACK -->
  <path d="M 276.000 193.000 L 382.000 193.000 L 385.000 193.000 L 385.000 201.571 L 382.000 201.571 L 382.000 210.143 L 385.000 210.143 L 385.000 218.714 L 382.000 218.714 L 382.000 227.286 L 385.000 227.286 L 385.000 235.857 L 382.000 235.857 L 382.000 244.429 L 385.000 244.429 L 385.000 253.000 L 382.000 253.000 L 170.000 256.000 L 179.636 256.000 L 179.636 253.000 L 189.273 253.000 L 189.273 256.000 L 198.909 256.000 L 198.909 253.000 L 208.545 253.000 L 208.545 256.000 L 218.182 256.000 L 218.182 253.000 L 227.818 253.000 L 227.818 256.000 L 237.455 256.000 L 237.455 253.000 L 247.091 253.000 L 247.091 256.000 L 256.727 256.000 L 256.727 253.000 L 266.364 253.000 L 266.364 256.000 L 276.000 256.000 L 276.000 253.000 L 273.000 133.000 L 273.000 141.571 L 276.000 141.571 L 276.000 150.143 L 273.000 150.143 L 273.000 158.714 L 276.000 158.714 L 276.000 167.286 L 273.000 167.286 L 273.000 175.857 L 276.000 175.857 L 276.000 184.429 L 273.000 184.429 L 273.000 193.000 L 276.000 193.000 Z" fill="none" stroke="#000000" stroke-width="0.1"/>

  <!-- LID -->
  <path d="M 5.000 261.000 L 111.000 261.000 L 111.000 347.000 L 68.000 347.000 L 68.000 347.000 L 48.000 341.000 L 48.341 343.588 L 49.340 346.000 L 50.929 348.071 L 53.000 349.660 L 55.412 350.659 L 58.000 351.000 L 60.588 350.659 L 63.000 349.660 L 65.071 348.071 L 66.660 346.000 L 67.659 343.588 L 68.000 341.000 L 48.000 341.000 L 48.000 347.000 L 48.000 347.000 L 5.000 347.000 L 5.000 261.000 Z" fill="none" stroke="#000000" stroke-width="0.1"/>

  <!-- BOTTOM -->
  <path d="M 276.000 347.000 L 276.000 350.000 L 285.636 350.000 L 285.636 347.000 L 295.273 347.000 L 295.273 350.000 L 304.909 350.000 L 304.909 347.000 L 314.545 347.000 L 314.545 350.000 L 324.182 350.000 L 324.182 347.000 L 333.818 347.000 L 333.818 350.000 L 343.455 350.000 L 343.455 347.000 L 353.091 347.000 L 353.091 350.000 L 362.727 350.000 L 362.727 347.000 L 372.364 347.000 L 372.364 350.000 L 382.000 350.000 L 382.000 347.000 L 379.000 347.000 L 379.000 356.556 L 382.000 356.556 L 382.000 366.111 L 379.000 366.111 L 379.000 375.667 L 382.000 375.667 L 382.000 385.222 L 379.000 385.222 L 379.000 394.778 L 382.000 394.778 L 382.000 404.333 L 379.000 404.333 L 379.000 413.889 L 382.000 413.889 L 382.000 423.444 L 379.000 423.444 L 379.000 433.000 L 382.000 433.000 L 170.000 430.000 L 179.636 430.000 L 179.636 433.000 L 189.273 433.000 L 189.273 430.000 L 198.909 430.000 L 198.909 433.000 L 208.545 433.000 L 208.545 430.000 L 218.182 430.000 L 218.182 433.000 L 227.818 433.000 L 227.818 430.000 L 237.455 430.000 L 237.455 433.000 L 247.091 433.000 L 247.091 430.000 L 256.727 430.000 L 256.727 433.000 L 266.364 433.000 L 266.364 430.000 L 276.000 430.000 L 276.000 433.000 L 279.000 261.000 L 279.000 270.556 L 276.000 270.556 L 276.000 280.111 L 279.000 280.111 L 279.000 289.667 L 276.000 289.667 L 276.000 299.222 L 279.000 299.222 L 279.000 308.778 L 276.000 308.778 L 276.000 318.333 L 279.000 318.333 L 279.000 327.889 L 276.000 327.889 L 276.000 337.444 L 279.000 337.444 L 279.000 347.000 L 276.000 347.000 Z" fill="none" stroke="#000000" stroke-width="0.1"/>

  <!-- DEBUG OVERLAY -->
  <!-- Debug: LEFT -->
  <text x="87.99999999999997" y="72.99999999999999" font-size="5" font-weight="bold" fill="#cc0000">LEFT</text>
  <text x="87.99999999999997" y="77.99999999999999" font-size="3" fill="#666666">80.0×60.0</text>
  <text x="87.99999999999997" y="81.99999999999999" font-size="2.5" fill="#0066cc">PIN HOLE</text>
  <circle cx="157.000" cy="73.000" r="1" fill="#0066cc" opacity="0.5"/>
  <!-- Debug: FRONT -->
  <text x="278.9999999999999" y="72.99999999999999" font-size="5" font-weight="bold" fill="#cc0000">FRONT</text>
  <text x="278.9999999999999" y="77.99999999999999" font-size="3" fill="#666666">106.0×60.0</text>
  <!-- Debug: RIGHT -->
  <text x="87.99999999999997" y="201" font-size="5" font-weight="bold" fill="#cc0000">RIGHT</text>
  <text x="87.99999999999997" y="206" font-size="3" fill="#666666">80.0×60.0</text>
  <text x="87.99999999999997" y="210" font-size="2.5" fill="#0066cc">PIN HOLE</text>
  <circle cx="157.000" cy="201.000" r="1" fill="#0066cc" opacity="0.5"/>
  <!-- Debug: BACK -->
  <text x="278.9999999999999" y="201" font-size="5" font-weight="bold" fill="#cc0000">BACK</text>
  <text x="278.9999999999999" y="206" font-size="3" fill="#666666">106.0×60.0</text>
  <!-- Debug: LID -->
  <text x="8" y="269" font-size="5" font-weight="bold" fill="#cc0000">LID</text>
  <text x="8" y="274" font-size="3" fill="#666666">106.0×86.0</text>
  <!-- Debug: BOTTOM -->
  <text x="278.9999999999999" y="354.99999999999994" font-size="5" font-weight="bold" fill="#cc0000">BOTTOM</text>
  <text x="278.9999999999999" y="359.99999999999994" font-size="3" fill="#666666">106.0×86.0</text>
</svg>