<?xml version="1.0" encoding="UTF-8"?>
<svg xmlns="http://www.w3.org/2000/svg" width="122.000mm" height="99.000mm" viewBox="0 0 122.000 99.000">
  <path d="M 8.000 8.000 L 8.000 5.000 L 17.636 5.000 L 17.636 8.000 L 27.273 8.000 L 27.273 5.000 L 36.909 5.000 L 36.909 8.000 L 46.545 8.000 L 46.545 5.000 L 56.182 5.000 L 56.182 8.000 L 65.818 8.000 L 65.818 5.000 L 75.455 5.000 L 75.455 8.000 L 85.091 8.000 L 85.091 5.000 L 94.727 5.000 L 94.727 8.000 L 104.364 8.000 L 104.364 5.000 L 114.000 5.000 L 114.000 8.000 L 117.000 8.000 L 117.000 17.556 L 114.000 17.556 L 114.000 27.111 L 117.000 27.111 L 117.000 36.667 L 114.000 36.667 L 114.000 46.222 L 117.000 46.222 L 117.000 55.778 L 114.000 55.778 L 114.000 65.333 L 117.000 65.333 L 117.000 74.889 L 114.000 74.889 L 114.000 84.444 L 117.000 84.444 L 117.000 94.000 L 114.000 94.000 L 114.000 91.000 L 104.364 91.000 L 104.364 94.000 L 94.727 94.000 L 94.727 91.000 L 85.091 91.000 L 85.091 94.000 L 75.455 94.000 L 75.455 91.000 L 65.818 91.000 L 65.818 94.000 L 56.182 94.000 L 56.182 91.000 L 46.545 91.000 L 46.545 94.000 L 36.909 94.000 L 36.909 91.000 L 27.273 91.000 L 27.273 94.000 L 17.636 94.000 L 17.636 91.000 L 8.000 91.000 L 8.000 94.000 L 5.000 94.000 L 5.000 84.444 L 8.000 84.444 L 8.000 74.889 L 5.000 74.889 L 5.000 65.333 L 8.000 65.333 L 8.000 55.778 L 5.000 55.778 L 5.000 46.222 L 8.000 46.222 L 8.000 36.667 L 5.000 36.667 L 5.000 27.111 L 8.000 27.111 L 8.000 17.556 L 5.000 17.556 L 5.000 8.000 L 8.000 8.000 L 8.000 8.000 Z" fill="none" stroke="#000000" stroke-width="0.1"/>
</svg>