<?xml version="1.0" encoding="UTF-8"?>
<svg xmlns="http://www.w3.org/2000/svg" width="344.000mm" height="167.000mm" viewBox="0 0 344.000 167.000">
  <!-- FRONT -->
  <path d="M 5.000 5.000 L 111.000 5.000 L 108.000 5.000 L 108.000 13.571 L 111.000 13.571 L 111.000 22.143 L 108.000 22.143 L 108.000 30.714 L 111.000 30.714 L 111.000 39.286 L 108.000 39.286 L 108.000 47.857 L 111.000 47.857 L 111.000 56.429 L 108.000 56.429 L 108.000 65.000 L 111.000 65.000 L 111.000 68.000 L 101.364 68.000 L 101.364 65.000 L 91.727 65.000 L 91.727 68.000 L 82.091 68.000 L 82.091 65.000 L 72.455 65.000 L 72.455 68.000 L 62.818 68.000 L 62.818 65.000 L 53.182 65.000 L 53.182 68.000 L 43.545 68.000 L 43.545 65.000 L 33.909 65.000 L 33.909 68.000 L 24.273 68.000 L 24.273 65.000 L 14.636 65.000 L 14.636 68.000 L 5.000 68.000 L 5.000 65.000 L 8.000 65.000 L 8.000 56.429 L 5.000 56.429 L 5.000 47.857 L 8.000 47.857 L 8.000 39.286 L 5.000 39.286 L 5.000 30.714 L 8.000 30.714 L 8.000 22.143 L 5.000 22.143 L 5.000 13.571 L 8.000 13.571 L 8.000 5.000 L 5.000 5.000 L 5.000 5.000 Z" fill="none" stroke="#000000" stroke-width="0.1"/>

  <!-- BACK -->
  <path d="M 116.000 5.000 L 222.000 5.000 L 219.000 5.000 L 219.000 13.571 L 222.000 13.571 L 222.000 22.143 L 219.000 22.143 L 219.000 30.714 L 222.000 30.714 L 222.000 39.286 L 219.000 39.286 L 219.000 47.857 L 222.000 47.857 L 222.000 56.429 L 219.000 56.429 L 219.000 65.000 L 222.000 65.000 L 222.000 68.000 L 212.364 68.000 L 212.364 65.000 L 202.727 65.000 L 202.727 68.000 L 193.091 68.000 L 193.091 65.000 L 183.455 65.000 L 183.455 68.000 L 173.818 68.000 L 173.818 65.000 L 164.182 65.000 L 164.182 68.000 L 154.545 68.000 L 154.545 65.000 L 144.909 65.000 L 144.909 68.000 L 135.273 68.000 L 135.273 65.000 L 125.636 65.000 L 125.636 68.000 L 116.000 68.000 L 116.000 65.000 L 119.000 65.000 L 119.000 56.429 L 116.000 56.429 L 116.000 47.857 L 119.000 47.857 L 119.000 39.286 L 116.000 39.286 L 116.000 30.714 L 119.000 30.714 L 119.000 22.143 L 116.000 22.143 L 116.000 13.571 L 119.000 13.571 L 119.000 5.000 L 116.000 5.000 L 116.000 5.000 Z" fill="none" stroke="#000000" stroke-width="0.1"/>

  <!-- LEFT -->
  <path d="M 236.000 5.000 L 316.000 5.000 L 319.000 5.000 L 319.000 13.571 L 316.000 13.571 L 316.000 22.143 L 319.000 22.143 L 319.000 30.714 L 316.000 30.714 L 316.000 39.286 L 319.000 39.286 L 319.000 47.857 L 316.000 47.857 L 316.000 56.429 L 319.000 56.429 L 319.000 65.000 L 316.000 65.000 L 316.000 68.000 L 307.111 68.000 L 307.111 65.000 L 298.222 65.000 L 298.222 68.000 L 289.333 68.000 L 289.333 65.000 L 280.444 65.000 L 280.444 68.000 L 271.556 68.000 L 271.556 65.000 L 262.667 65.000 L 262.667 68.000 L 253.778 68.000 L 253.778 65.000 L 244.889 65.000 L 244.889 68.000 L 236.000 68.000 L 236.000 65.000 L 233.000 65.000 L 233.000 56.429 L 236.000 56.429 L 236.000 47.857 L 233.000 47.857 L 233.000 39.286 L 236.000 39.286 L 236.000 30.714 L 233.000 30.714 L 233.000 22.143 L 236.000 22.143 L 236.000 13.571 L 233.000 13.571 L 233.000 5.000 L 236.000 5.000 L 236.000 5.000 Z" fill="none" stroke="#000000" stroke-width="0.1"/>

  <!-- RIGHT -->
  <path d="M 8.000 73.000 L 88.000 73.000 L 91.000 73.000 L 91.000 81.571 L 88.000 81.571 L 88.000 90.143 L 91.000 90.143 L 91.000 98.714 L 88.000 98.714 L 88.000 107.286 L 91.000 107.286 L 91.000 115.857 L 88.000 115.857 L 88.000 124.429 L 91.000 124.429 L 91.000 133.000 L 88.000 133.000 L 88.000 136.000 L 79.111 136.000 L 79.111 133.000 L 70.222 133.000 L 70.222 136.000 L 61.333 136.000 L 61.333 133.000 L 52.444 133.000 L 52.444 136.000 L 43.556 136.000 L 43.556 133.000 L 34.667 133.000 L 34.667 136.000 L 25.778 136.000 L 25.778 133.000 L 16.889 133.000 L 16.889 136.000 L 8.000 136.000 L 8.000 133.000 L 5.000 133.000 L 5.000 124.429 L 8.000 124.429 L 8.000 115.857 L 5.000 115.857 L 5.000 107.286 L 8.000 107.286 L 8.000 98.714 L 5.000 98.714 L 5.000 90.143 L 8.000 90.143 L 8.000 81.571 L 5.000 81.571 L 5.000 73.000 L 8.000 73.000 L 8.000 73.000 Z" fill="none" stroke="#000000" stroke-width="0.1"/>

  <!-- BOTTOM -->
  <path d="M 119.000 76.000 L 119.000 73.000 L 128.636 73.000 L 128.636 76.000 L 138.273 76.000 L 138.273 73.000 L 147.909 73.000 L 147.909 76.000 L 157.545 76.000 L 157.545 73.000 L 167.182 73.000 L 167.182 76.000 L 176.818 76.000 L 176.818 73.000 L 186.455 73.000 L 186.455 76.000 L 196.091 76.000 L 196.091 73.000 L 205.727 73.000 L 205.727 76.000 L 215.364 76.000 L 215.364 73.000 L 225.000 73.000 L 225.000 76.000 L 228.000 76.000 L 228.000 85.556 L 225.000 85.556 L 225.000 95.111 L 228.000 95.111 L 228.000 104.667 L 225.000 104.667 L 225.000 114.222 L 228.000 114.222 L 228.000 123.778 L 225.000 123.778 L 225.000 133.333 L 228.000 133.333 L 228.000 142.889 L 225.000 142.889 L 225.000 152.444 L 228.000 152.444 L 228.000 162.000 L 225.000 162.000 L 225.000 159.000 L 215.364 159.000 L 215.364 162.000 L 205.727 162.000 L 205.727 159.000 L 196.091 159.000 L 196.091 162.000 L 186.455 162.000 L 186.455 159.000 L 176.818 159.000 L 176.818 162.000 L 167.182 162.000 L 167.182 159.000 L 157.545 159.000 L 157.545 162.000 L 147.909 162.000 L 147.909 159.000 L 138.273 159.000 L 138.273 162.000 L 128.636 162.000 L 128.636 159.000 L 119.000 159.000 L 119.000 162.000 L 116.000 162.000 L 116.000 152.444 L 119.000 152.444 L 119.000 142.889 L 116.000 142.889 L 116.000 133.333 L 119.000 133.333 L 119.000 123.778 L 116.000 123.778 L 116.000 114.222 L 119.000 114.222 L 119.000 104.667 L 116.000 104.667 L 116.000 95.111 L 119.000 95.111 L 119.000 85.556 L 116.000 85.556 L 116.000 76.000 L 119.000 76.000 L 119.000 76.000 Z" fill="none" stroke="#000000" stroke-width="0.1"/>

  <!-- LID -->
  <path d="M 233.000 73.000 L 339.000 73.000 L 339.000 159.000 L 233.000 159.000 L 233.000 73.000 L 233.000 73.000 Z" fill="none" stroke="#000000" stroke-width="0.1"/>


</svg>