<?xml version="1.0" encoding="UTF-8"?>
<svg xmlns="http://www.w3.org/2000/svg" width="116.000mm" height="73.000mm" viewBox="0 0 116.000 73.000">
  <path d="M 5.000 5.000 L 111.000 5.000 L 108.000 5.000 L 108.000 13.571 L 111.000 13.571 L 111.000 22.143 L 108.000 22.143 L 108.000 30.714 L 111.000 30.714 L 111.000 39.286 L 108.000 39.286 L 108.000 47.857 L 111.000 47.857 L 111.000 56.429 L 108.000 56.429 L 108.000 65.000 L 111.000 65.000 L 111.000 68.000 L 101.364 68.000 L 101.364 65.000 L 91.727 65.000 L 91.727 68.000 L 82.091 68.000 L 82.091 65.000 L 72.455 65.000 L 72.455 68.000 L 62.818 68.000 L 62.818 65.000 L 53.182 65.000 L 53.182 68.000 L 43.545 68.000 L 43.545 65.000 L 33.909 65.000 L 33.909 68.000 L 24.273 68.000 L 24.273 65.000 L 14.636 65.000 L 14.636 68.000 L 5.000 68.000 L 5.000 65.000 L 8.000 65.000 L 8.000 56.429 L 5.000 56.429 L 5.000 47.857 L 8.000 47.857 L 8.000 39.286 L 5.000 39.286 L 5.000 30.714 L 8.000 30.714 L 8.000 22.143 L 5.000 22.143 L 5.000 13.571 L 8.000 13.571 L 8.000 5.000 L 5.000 5.000 L 5.000 5.000 Z" fill="none" stroke="#000000" stroke-width="0.1"/>
</svg>