<?xml version="1.0" encoding="UTF-8"?>
<svg xmlns="http://www.w3.org/2000/svg" width="96.000mm" height="73.000mm" viewBox="0 0 96.000 73.000">
  <path d="M 8.000 5.000 L 88.000 5.000 L 91.000 5.000 L 91.000 13.571 L 88.000 13.571 L 88.000 22.143 L 91.000 22.143 L 91.000 30.714 L 88.000 30.714 L 88.000 39.286 L 91.000 39.286 L 91.000 47.857 L 88.000 47.857 L 88.000 56.429 L 91.000 56.429 L 91.000 65.000 L 88.000 65.000 L 88.000 68.000 L 79.111 68.000 L 79.111 65.000 L 70.222 65.000 L 70.222 68.000 L 61.333 68.000 L 61.333 65.000 L 52.444 65.000 L 52.444 68.000 L 43.556 68.000 L 43.556 65.000 L 34.667 65.000 L 34.667 68.000 L 25.778 68.000 L 25.778 65.000 L 16.889 65.000 L 16.889 68.000 L 8.000 68.000 L 8.000 65.000 L 5.000 65.000 L 5.000 56.429 L 8.000 56.429 L 8.000 47.857 L 5.000 47.857 L 5.000 39.286 L 8.000 39.286 L 8.000 30.714 L 5.000 30.714 L 5.000 22.143 L 8.000 22.143 L 8.000 13.571 L 5.000 13.571 L 5.000 5.000 L 8.000 5.000 L 8.000 5.000 Z" fill="none" stroke="#000000" stroke-width="0.1"/>
</svg>